%TF.GenerationSoftware,KiCad,Pcbnew,10.0.3*%
%TF.CreationDate,2026-05-30T16:42:28-04:00*%
%TF.ProjectId,float_pcb,666c6f61-745f-4706-9362-2e6b69636164,rev?*%
%TF.SameCoordinates,Original*%
%TF.FileFunction,Soldermask,Top*%
%TF.FilePolarity,Negative*%
%FSLAX46Y46*%
G04 Gerber Fmt 4.6, Leading zero omitted, Abs format (unit mm)*
G04 Created by KiCad (PCBNEW 10.0.3) date 2026-05-30 16:42:28*
%MOMM*%
%LPD*%
G01*
G04 APERTURE LIST*
G04 Aperture macros list*
%AMRoundRect*
0 Rectangle with rounded corners*
0 $1 Rounding radius*
0 $2 $3 $4 $5 $6 $7 $8 $9 X,Y pos of 4 corners*
0 Add a 4 corners polygon primitive as box body*
4,1,4,$2,$3,$4,$5,$6,$7,$8,$9,$2,$3,0*
0 Add four circle primitives for the rounded corners*
1,1,$1+$1,$2,$3*
1,1,$1+$1,$4,$5*
1,1,$1+$1,$6,$7*
1,1,$1+$1,$8,$9*
0 Add four rect primitives between the rounded corners*
20,1,$1+$1,$2,$3,$4,$5,0*
20,1,$1+$1,$4,$5,$6,$7,0*
20,1,$1+$1,$6,$7,$8,$9,0*
20,1,$1+$1,$8,$9,$2,$3,0*%
%AMFreePoly0*
4,1,52,-0.093366,0.683694,-0.077145,0.672855,-0.066306,0.656634,-0.062500,0.637500,-0.062500,0.287500,0.187500,0.287500,0.187500,0.637500,0.191306,0.656634,0.202145,0.672855,0.218366,0.683694,0.237500,0.687500,0.387500,0.687500,0.406634,0.683694,0.422855,0.672855,0.433694,0.656634,0.437500,0.637500,0.437500,0.287500,0.487500,0.287500,0.506634,0.283694,0.522855,0.272855,
0.533694,0.256634,0.537500,0.237500,0.537500,-0.807500,0.533694,-0.826634,0.522855,-0.842855,0.506634,-0.853694,0.487500,-0.857500,0.167500,-0.857500,0.148366,-0.853694,0.132145,-0.842855,0.121306,-0.826634,0.117500,-0.807500,0.117500,-0.664500,-0.259500,-0.287500,-0.487500,-0.287500,-0.506634,-0.283694,-0.522855,-0.272855,-0.533694,-0.256634,-0.537500,-0.237500,-0.537500,0.237500,
-0.533694,0.256634,-0.522855,0.272855,-0.506634,0.283694,-0.487500,0.287500,-0.312500,0.287500,-0.312500,0.637500,-0.308694,0.656634,-0.297855,0.672855,-0.281634,0.683694,-0.262500,0.687500,-0.112500,0.687500,-0.093366,0.683694,-0.093366,0.683694,$1*%
%AMFreePoly1*
4,1,69,0.413042,1.099999,0.446320,1.093381,0.474531,1.074531,0.493381,1.046320,0.500000,1.013043,0.500000,0.885000,0.850000,0.885000,0.869134,0.881194,0.885355,0.870355,0.896194,0.854134,0.900000,0.835000,0.900000,0.685000,0.896194,0.665866,0.885355,0.649645,0.869134,0.638806,0.850000,0.635000,0.500000,0.635000,0.500000,0.385000,0.850000,0.385000,0.869134,0.381194,
0.885355,0.370355,0.896194,0.354134,0.900000,0.335000,0.900000,0.185000,0.896194,0.165866,0.885355,0.149645,0.869134,0.138806,0.850000,0.135000,0.500000,0.135000,0.499999,-0.115000,0.850000,-0.115000,0.869134,-0.118806,0.885355,-0.129645,0.896194,-0.145866,0.900000,-0.165000,0.900000,-0.315000,0.896194,-0.334134,0.885355,-0.350355,0.869134,-0.361194,0.850000,-0.365000,
0.499999,-0.365000,0.499999,-0.615000,0.850000,-0.615000,0.869134,-0.618806,0.885355,-0.629645,0.896194,-0.645866,0.900000,-0.665000,0.900000,-0.815000,0.896194,-0.834134,0.885355,-0.850355,0.869134,-0.861194,0.850000,-0.865000,0.499999,-0.865000,0.499999,-1.013042,0.493381,-1.046320,0.474531,-1.074531,0.446320,-1.093381,0.413043,-1.100000,-0.413042,-1.099999,-0.446320,-1.093381,
-0.474531,-1.074531,-0.493381,-1.046320,-0.500000,-1.013043,-0.499999,1.013042,-0.493381,1.046320,-0.474531,1.074531,-0.446320,1.093381,-0.413043,1.100000,0.413042,1.099999,0.413042,1.099999,$1*%
%AMFreePoly2*
4,1,69,0.446320,1.093381,0.474531,1.074531,0.493381,1.046320,0.499999,1.013042,0.500000,-1.013043,0.493381,-1.046320,0.474531,-1.074531,0.446320,-1.093381,0.413042,-1.099999,-0.413043,-1.100000,-0.446320,-1.093381,-0.474531,-1.074531,-0.493381,-1.046320,-0.499999,-1.013042,-0.499999,-0.865000,-0.850001,-0.865000,-0.869135,-0.861194,-0.885356,-0.850355,-0.896195,-0.834134,-0.900001,-0.815000,
-0.900001,-0.665000,-0.896195,-0.645866,-0.885356,-0.629645,-0.869135,-0.618806,-0.850001,-0.615000,-0.499999,-0.615000,-0.499999,-0.365000,-0.850001,-0.365000,-0.869135,-0.361194,-0.885356,-0.350355,-0.896195,-0.334134,-0.900001,-0.315000,-0.900001,-0.165000,-0.896195,-0.145866,-0.885356,-0.129645,-0.869135,-0.118806,-0.850001,-0.115000,-0.499999,-0.115000,-0.500000,0.135000,-0.850000,0.135000,
-0.869134,0.138806,-0.885355,0.149645,-0.896194,0.165866,-0.900000,0.185000,-0.900000,0.335000,-0.896194,0.354134,-0.885355,0.370355,-0.869134,0.381194,-0.850000,0.385000,-0.500000,0.385000,-0.500000,0.635000,-0.850000,0.635000,-0.869134,0.638806,-0.885355,0.649645,-0.896194,0.665866,-0.900000,0.685000,-0.900000,0.835000,-0.896194,0.854134,-0.885355,0.870355,-0.869134,0.881194,
-0.850000,0.885000,-0.500000,0.885000,-0.500000,1.013043,-0.493381,1.046320,-0.474531,1.074531,-0.446320,1.093381,-0.413042,1.099999,0.413043,1.100000,0.446320,1.093381,0.446320,1.093381,$1*%
%AMFreePoly3*
4,1,52,-0.218366,0.683694,-0.202145,0.672855,-0.191306,0.656634,-0.187500,0.637500,-0.187500,0.287500,0.062500,0.287500,0.062500,0.637500,0.066306,0.656634,0.077145,0.672855,0.093366,0.683694,0.112500,0.687500,0.262500,0.687500,0.281634,0.683694,0.297855,0.672855,0.308694,0.656634,0.312500,0.637500,0.312500,0.287500,0.487500,0.287500,0.506634,0.283694,0.522855,0.272855,
0.533694,0.256634,0.537500,0.237500,0.537500,-0.237500,0.533694,-0.256634,0.522855,-0.272855,0.506634,-0.283694,0.487500,-0.287500,0.259500,-0.287500,-0.117500,-0.664500,-0.117500,-0.807500,-0.121306,-0.826634,-0.132145,-0.842855,-0.148366,-0.853694,-0.167500,-0.857500,-0.487500,-0.857500,-0.506634,-0.853694,-0.522855,-0.842855,-0.533694,-0.826634,-0.537500,-0.807500,-0.537500,0.237500,
-0.533694,0.256634,-0.522855,0.272855,-0.506634,0.283694,-0.487500,0.287500,-0.437500,0.287500,-0.437500,0.637500,-0.433694,0.656634,-0.422855,0.672855,-0.406634,0.683694,-0.387500,0.687500,-0.237500,0.687500,-0.218366,0.683694,-0.218366,0.683694,$1*%
G04 Aperture macros list end*
%ADD10C,1.500000*%
%ADD11RoundRect,0.050000X-0.060000X-0.250000X0.060000X-0.250000X0.060000X0.250000X-0.060000X0.250000X0*%
%ADD12FreePoly0,270.000000*%
%ADD13FreePoly1,0.000000*%
%ADD14FreePoly2,0.000000*%
%ADD15FreePoly3,90.000000*%
%ADD16RoundRect,0.225000X-0.250000X0.225000X-0.250000X-0.225000X0.250000X-0.225000X0.250000X0.225000X0*%
%ADD17RoundRect,0.250000X-0.475000X0.250000X-0.475000X-0.250000X0.475000X-0.250000X0.475000X0.250000X0*%
%ADD18RoundRect,0.225000X0.250000X-0.225000X0.250000X0.225000X-0.250000X0.225000X-0.250000X-0.225000X0*%
%ADD19RoundRect,0.200000X0.275000X-0.200000X0.275000X0.200000X-0.275000X0.200000X-0.275000X-0.200000X0*%
%ADD20RoundRect,0.250000X0.475000X-0.250000X0.475000X0.250000X-0.475000X0.250000X-0.475000X-0.250000X0*%
%ADD21RoundRect,0.200000X-0.275000X0.200000X-0.275000X-0.200000X0.275000X-0.200000X0.275000X0.200000X0*%
%ADD22RoundRect,0.218750X-0.256250X0.218750X-0.256250X-0.218750X0.256250X-0.218750X0.256250X0.218750X0*%
%ADD23RoundRect,0.150000X0.587500X0.150000X-0.587500X0.150000X-0.587500X-0.150000X0.587500X-0.150000X0*%
%ADD24RoundRect,0.218750X0.256250X-0.218750X0.256250X0.218750X-0.256250X0.218750X-0.256250X-0.218750X0*%
%ADD25RoundRect,0.200000X0.200000X0.275000X-0.200000X0.275000X-0.200000X-0.275000X0.200000X-0.275000X0*%
%ADD26RoundRect,0.200000X-0.200000X-0.275000X0.200000X-0.275000X0.200000X0.275000X-0.200000X0.275000X0*%
%ADD27R,1.700000X1.000000*%
%ADD28RoundRect,0.150000X-0.587500X-0.150000X0.587500X-0.150000X0.587500X0.150000X-0.587500X0.150000X0*%
%ADD29R,1.500000X0.900000*%
%ADD30R,0.900000X1.500000*%
%ADD31C,0.600000*%
%ADD32R,3.900000X3.900000*%
%ADD33RoundRect,0.760000X-1.140000X-1.140000X1.140000X-1.140000X1.140000X1.140000X-1.140000X1.140000X0*%
%ADD34C,3.800000*%
%ADD35RoundRect,0.250000X0.600000X0.750000X-0.600000X0.750000X-0.600000X-0.750000X0.600000X-0.750000X0*%
%ADD36O,1.700000X2.000000*%
%ADD37RoundRect,0.150000X-0.302462X0.150000X-0.302462X-0.150000X0.302462X-0.150000X0.302462X0.150000X0*%
%ADD38RoundRect,0.150000X-0.302499X0.150000X-0.302499X-0.150000X0.302499X-0.150000X0.302499X0.150000X0*%
%ADD39RoundRect,0.075000X-0.500000X0.075000X-0.500000X-0.075000X0.500000X-0.075000X0.500000X0.075000X0*%
%ADD40RoundRect,0.150000X-0.302500X0.150000X-0.302500X-0.150000X0.302500X-0.150000X0.302500X0.150000X0*%
%ADD41RoundRect,0.150000X-0.302497X0.150000X-0.302497X-0.150000X0.302497X-0.150000X0.302497X0.150000X0*%
%ADD42RoundRect,0.150000X-0.302498X0.150000X-0.302498X-0.150000X0.302498X-0.150000X0.302498X0.150000X0*%
%ADD43O,2.100000X1.000000*%
%ADD44O,1.800000X1.000000*%
%ADD45R,1.700000X1.700000*%
%ADD46C,1.700000*%
%ADD47RoundRect,0.250000X0.600000X0.725000X-0.600000X0.725000X-0.600000X-0.725000X0.600000X-0.725000X0*%
%ADD48O,1.700000X1.950000*%
%ADD49C,1.612000*%
%ADD50RoundRect,0.150000X0.512500X0.150000X-0.512500X0.150000X-0.512500X-0.150000X0.512500X-0.150000X0*%
G04 APERTURE END LIST*
D10*
%TO.C,TP4*%
X230025000Y-71025000D03*
%TD*%
D11*
%TO.C,U2*%
X236700000Y-81600000D03*
X237200000Y-81600000D03*
X237700000Y-81600000D03*
D12*
X238362500Y-82187500D03*
D13*
X238150000Y-84175000D03*
D14*
X236250000Y-84175000D03*
D15*
X236037500Y-82187500D03*
%TD*%
D10*
%TO.C,TP3*%
X237750000Y-110750000D03*
%TD*%
%TO.C,TP2*%
X208775000Y-118275000D03*
%TD*%
%TO.C,TP1*%
X250000000Y-84500000D03*
%TD*%
D11*
%TO.C,U1*%
X214937500Y-81600000D03*
X215437500Y-81600000D03*
X215937500Y-81600000D03*
D12*
X216600000Y-82187500D03*
D13*
X216387500Y-84175000D03*
D14*
X214487500Y-84175000D03*
D15*
X214275000Y-82187500D03*
%TD*%
D16*
%TO.C,C4*%
X224000000Y-79975000D03*
X224000000Y-81525000D03*
%TD*%
D17*
%TO.C,C5*%
X219750000Y-83300000D03*
X219750000Y-85200000D03*
%TD*%
D18*
%TO.C,C2*%
X211500000Y-85300000D03*
X211500000Y-83750000D03*
%TD*%
D19*
%TO.C,R3*%
X207250000Y-82075000D03*
X207250000Y-80425000D03*
%TD*%
%TO.C,R2*%
X207250000Y-85325000D03*
X207250000Y-83675000D03*
%TD*%
D20*
%TO.C,C1*%
X211250000Y-82000000D03*
X211250000Y-80100000D03*
%TD*%
D21*
%TO.C,R4*%
X224000000Y-83175000D03*
X224000000Y-84825000D03*
%TD*%
%TO.C,R5*%
X219500000Y-79925000D03*
X219500000Y-81575000D03*
%TD*%
D22*
%TO.C,D2*%
X228000000Y-80012500D03*
X228000000Y-81587500D03*
%TD*%
D23*
%TO.C,Q1*%
X214437500Y-111200000D03*
X214437500Y-109300000D03*
X212562500Y-110250000D03*
%TD*%
D18*
%TO.C,C14*%
X212750000Y-90275000D03*
X212750000Y-88725000D03*
%TD*%
D24*
%TO.C,D3*%
X240000000Y-93577500D03*
X240000000Y-92002500D03*
%TD*%
D21*
%TO.C,R16*%
X240000000Y-88715000D03*
X240000000Y-90365000D03*
%TD*%
D25*
%TO.C,R11*%
X201325000Y-104750000D03*
X199675000Y-104750000D03*
%TD*%
D18*
%TO.C,C3*%
X203250000Y-85275000D03*
X203250000Y-83725000D03*
%TD*%
D21*
%TO.C,R7*%
X239500000Y-75425000D03*
X239500000Y-77075000D03*
%TD*%
D18*
%TO.C,C13*%
X215750000Y-90275000D03*
X215750000Y-88725000D03*
%TD*%
D16*
%TO.C,C12*%
X215000000Y-92975000D03*
X215000000Y-94525000D03*
%TD*%
D26*
%TO.C,R1*%
X216350000Y-114250000D03*
X218000000Y-114250000D03*
%TD*%
D21*
%TO.C,R8*%
X245250000Y-83175000D03*
X245250000Y-84825000D03*
%TD*%
%TO.C,R20*%
X243750000Y-106425000D03*
X243750000Y-108075000D03*
%TD*%
%TO.C,R6*%
X239500000Y-72100000D03*
X239500000Y-73750000D03*
%TD*%
D27*
%TO.C,BOOT1*%
X254500000Y-101750000D03*
X248200000Y-101750000D03*
X254500000Y-97950000D03*
X248200000Y-97950000D03*
%TD*%
D20*
%TO.C,C6*%
X233000000Y-81950000D03*
X233000000Y-80050000D03*
%TD*%
D28*
%TO.C,Q2*%
X247312500Y-105050000D03*
X247312500Y-106950000D03*
X249187500Y-106000000D03*
%TD*%
D21*
%TO.C,R12*%
X211000000Y-92925000D03*
X211000000Y-94575000D03*
%TD*%
D29*
%TO.C,U4*%
X218250000Y-89115000D03*
X218250000Y-90385000D03*
X218250000Y-91655000D03*
X218250000Y-92925000D03*
X218250000Y-94195000D03*
X218250000Y-95465000D03*
X218250000Y-96735000D03*
X218250000Y-98005000D03*
X218250000Y-99275000D03*
X218250000Y-100545000D03*
X218250000Y-101815000D03*
X218250000Y-103085000D03*
X218250000Y-104355000D03*
X218250000Y-105625000D03*
D30*
X220015000Y-106875000D03*
X221285000Y-106875000D03*
X222555000Y-106875000D03*
X223825000Y-106875000D03*
X225095000Y-106875000D03*
X226365000Y-106875000D03*
X227635000Y-106875000D03*
X228905000Y-106875000D03*
X230175000Y-106875000D03*
X231445000Y-106875000D03*
X232715000Y-106875000D03*
X233985000Y-106875000D03*
D29*
X235750000Y-105625000D03*
X235750000Y-104355000D03*
X235750000Y-103085000D03*
X235750000Y-101815000D03*
X235750000Y-100545000D03*
X235750000Y-99275000D03*
X235750000Y-98005000D03*
X235750000Y-96735000D03*
X235750000Y-95465000D03*
X235750000Y-94195000D03*
X235750000Y-92925000D03*
X235750000Y-91655000D03*
X235750000Y-90385000D03*
X235750000Y-89115000D03*
D31*
X224100000Y-96135000D03*
X224100000Y-97535000D03*
X224800000Y-95435000D03*
X224800000Y-96835000D03*
X224800000Y-98235000D03*
X225500000Y-96135000D03*
D32*
X225500000Y-96835000D03*
D31*
X225500000Y-97535000D03*
X226200000Y-95435000D03*
X226200000Y-96835000D03*
X226200000Y-98235000D03*
X226900000Y-96135000D03*
X226900000Y-97535000D03*
%TD*%
D21*
%TO.C,R15*%
X228000000Y-83175000D03*
X228000000Y-84825000D03*
%TD*%
D33*
%TO.C,J7*%
X212500000Y-76000000D03*
D34*
X217500000Y-76000000D03*
%TD*%
D35*
%TO.C,J1*%
X226250000Y-76250000D03*
D36*
X223750000Y-76250000D03*
%TD*%
D17*
%TO.C,C10*%
X241500000Y-83300000D03*
X241500000Y-85200000D03*
%TD*%
D19*
%TO.C,R14*%
X233750000Y-77075000D03*
X233750000Y-75425000D03*
%TD*%
D37*
%TO.C,J3*%
X204552462Y-94550032D03*
D38*
X204552476Y-95349606D03*
D39*
X204430000Y-96500000D03*
X204430000Y-97500000D03*
X204430000Y-98000000D03*
X204430000Y-99000000D03*
D40*
X204552500Y-100150000D03*
D41*
X204552497Y-100950000D03*
D42*
X204552498Y-100950000D03*
D38*
X204552499Y-100150000D03*
D39*
X204430000Y-99500000D03*
X204430000Y-98500000D03*
X204430000Y-97000000D03*
X204430000Y-96000000D03*
D40*
X204552500Y-95350000D03*
D42*
X204552498Y-94550001D03*
D43*
X203855000Y-93430000D03*
D44*
X199675000Y-93430000D03*
D43*
X203855000Y-102070000D03*
D44*
X199675000Y-102070000D03*
%TD*%
D21*
%TO.C,R9*%
X241250000Y-79925000D03*
X241250000Y-81575000D03*
%TD*%
D45*
%TO.C,J2*%
X240000000Y-104500000D03*
D46*
X240000000Y-101960000D03*
X240000000Y-99420000D03*
X240000000Y-96880000D03*
%TD*%
D47*
%TO.C,J4*%
X251000000Y-92250000D03*
D48*
X248500000Y-92250000D03*
X246000000Y-92250000D03*
%TD*%
D47*
%TO.C,J9*%
X238750000Y-120500000D03*
D48*
X236250000Y-120500000D03*
X233750000Y-120500000D03*
X231250000Y-120500000D03*
%TD*%
D49*
%TO.C,LS1*%
X248201500Y-113625000D03*
X244201500Y-113625000D03*
%TD*%
D18*
%TO.C,C7*%
X233250000Y-85300000D03*
X233250000Y-83750000D03*
%TD*%
D16*
%TO.C,C8*%
X243500000Y-75475000D03*
X243500000Y-77025000D03*
%TD*%
D50*
%TO.C,U3*%
X214775000Y-106250000D03*
X214775000Y-105300000D03*
X214775000Y-104350000D03*
X212500000Y-104350000D03*
X212500000Y-105300000D03*
X212500000Y-106250000D03*
%TD*%
D26*
%TO.C,R18*%
X234675000Y-114250000D03*
X236325000Y-114250000D03*
%TD*%
%TO.C,R19*%
X230425000Y-114250000D03*
X232075000Y-114250000D03*
%TD*%
D47*
%TO.C,J5*%
X222000000Y-120500000D03*
D48*
X219500000Y-120500000D03*
X217000000Y-120500000D03*
X214500000Y-120500000D03*
%TD*%
D25*
%TO.C,R10*%
X201325000Y-90250000D03*
X199675000Y-90250000D03*
%TD*%
D16*
%TO.C,C9*%
X245250000Y-79975000D03*
X245250000Y-81525000D03*
%TD*%
D22*
%TO.C,D1*%
X233750000Y-72212500D03*
X233750000Y-73787500D03*
%TD*%
D27*
%TO.C,ENABLE1*%
X209450000Y-98200000D03*
X215750000Y-98200000D03*
X209450000Y-102000000D03*
X215750000Y-102000000D03*
%TD*%
D35*
%TO.C,J6*%
X208250000Y-111500000D03*
D36*
X205750000Y-111500000D03*
%TD*%
D19*
%TO.C,R17*%
X218500000Y-111075000D03*
X218500000Y-109425000D03*
%TD*%
D26*
%TO.C,R13*%
X220425000Y-114250000D03*
X222075000Y-114250000D03*
%TD*%
M02*
