%TF.GenerationSoftware,KiCad,Pcbnew,10.0.3*%
%TF.CreationDate,2026-05-23T00:42:29-04:00*%
%TF.ProjectId,float_pcb,666c6f61-745f-4706-9362-2e6b69636164,rev?*%
%TF.SameCoordinates,Original*%
%TF.FileFunction,Legend,Top*%
%TF.FilePolarity,Positive*%
%FSLAX46Y46*%
G04 Gerber Fmt 4.6, Leading zero omitted, Abs format (unit mm)*
G04 Created by KiCad (PCBNEW 10.0.3) date 2026-05-23 00:42:29*
%MOMM*%
%LPD*%
G01*
G04 APERTURE LIST*
G04 Aperture macros list*
%AMRoundRect*
0 Rectangle with rounded corners*
0 $1 Rounding radius*
0 $2 $3 $4 $5 $6 $7 $8 $9 X,Y pos of 4 corners*
0 Add a 4 corners polygon primitive as box body*
4,1,4,$2,$3,$4,$5,$6,$7,$8,$9,$2,$3,0*
0 Add four circle primitives for the rounded corners*
1,1,$1+$1,$2,$3*
1,1,$1+$1,$4,$5*
1,1,$1+$1,$6,$7*
1,1,$1+$1,$8,$9*
0 Add four rect primitives between the rounded corners*
20,1,$1+$1,$2,$3,$4,$5,0*
20,1,$1+$1,$4,$5,$6,$7,0*
20,1,$1+$1,$6,$7,$8,$9,0*
20,1,$1+$1,$8,$9,$2,$3,0*%
%AMOutline5P*
0 Free polygon, 5 corners , with rotation*
0 The origin of the aperture is its center*
0 number of corners: always 5*
0 $1 to $10 corner X, Y*
0 $11 Rotation angle, in degrees counterclockwise*
0 create outline with 5 corners*
4,1,5,$1,$2,$3,$4,$5,$6,$7,$8,$9,$10,$1,$2,$11*%
%AMOutline6P*
0 Free polygon, 6 corners , with rotation*
0 The origin of the aperture is its center*
0 number of corners: always 6*
0 $1 to $12 corner X, Y*
0 $13 Rotation angle, in degrees counterclockwise*
0 create outline with 6 corners*
4,1,6,$1,$2,$3,$4,$5,$6,$7,$8,$9,$10,$11,$12,$1,$2,$13*%
%AMOutline7P*
0 Free polygon, 7 corners , with rotation*
0 The origin of the aperture is its center*
0 number of corners: always 7*
0 $1 to $14 corner X, Y*
0 $15 Rotation angle, in degrees counterclockwise*
0 create outline with 7 corners*
4,1,7,$1,$2,$3,$4,$5,$6,$7,$8,$9,$10,$11,$12,$13,$14,$1,$2,$15*%
%AMOutline8P*
0 Free polygon, 8 corners , with rotation*
0 The origin of the aperture is its center*
0 number of corners: always 8*
0 $1 to $16 corner X, Y*
0 $17 Rotation angle, in degrees counterclockwise*
0 create outline with 8 corners*
4,1,8,$1,$2,$3,$4,$5,$6,$7,$8,$9,$10,$11,$12,$13,$14,$15,$16,$1,$2,$17*%
%AMFreePoly0*
4,1,52,-0.218366,0.683694,-0.202145,0.672855,-0.191306,0.656634,-0.187500,0.637500,-0.187500,0.287500,0.062500,0.287500,0.062500,0.637500,0.066306,0.656634,0.077145,0.672855,0.093366,0.683694,0.112500,0.687500,0.262500,0.687500,0.281634,0.683694,0.297855,0.672855,0.308694,0.656634,0.312500,0.637500,0.312500,0.287500,0.487500,0.287500,0.506634,0.283694,0.522855,0.272855,
0.533694,0.256634,0.537500,0.237500,0.537500,-0.237500,0.533694,-0.256634,0.522855,-0.272855,0.506634,-0.283694,0.487500,-0.287500,0.259500,-0.287500,-0.117500,-0.664500,-0.117500,-0.807500,-0.121306,-0.826634,-0.132145,-0.842855,-0.148366,-0.853694,-0.167500,-0.857500,-0.487500,-0.857500,-0.506634,-0.853694,-0.522855,-0.842855,-0.533694,-0.826634,-0.537500,-0.807500,-0.537500,0.237500,
-0.533694,0.256634,-0.522855,0.272855,-0.506634,0.283694,-0.487500,0.287500,-0.437500,0.287500,-0.437500,0.637500,-0.433694,0.656634,-0.422855,0.672855,-0.406634,0.683694,-0.387500,0.687500,-0.237500,0.687500,-0.218366,0.683694,-0.218366,0.683694,$1*%
%AMFreePoly1*
4,1,69,0.446320,1.093381,0.474531,1.074531,0.493381,1.046320,0.499999,1.013042,0.500000,-1.013043,0.493381,-1.046320,0.474531,-1.074531,0.446320,-1.093381,0.413042,-1.099999,-0.413043,-1.100000,-0.446320,-1.093381,-0.474531,-1.074531,-0.493381,-1.046320,-0.499999,-1.013042,-0.499999,-0.865000,-0.850001,-0.865000,-0.869135,-0.861194,-0.885356,-0.850355,-0.896195,-0.834134,-0.900001,-0.815000,
-0.900001,-0.665000,-0.896195,-0.645866,-0.885356,-0.629645,-0.869135,-0.618806,-0.850001,-0.615000,-0.499999,-0.615000,-0.499999,-0.365000,-0.850001,-0.365000,-0.869135,-0.361194,-0.885356,-0.350355,-0.896195,-0.334134,-0.900001,-0.315000,-0.900001,-0.165000,-0.896195,-0.145866,-0.885356,-0.129645,-0.869135,-0.118806,-0.850001,-0.115000,-0.499999,-0.115000,-0.500000,0.135000,-0.850000,0.135000,
-0.869134,0.138806,-0.885355,0.149645,-0.896194,0.165866,-0.900000,0.185000,-0.900000,0.335000,-0.896194,0.354134,-0.885355,0.370355,-0.869134,0.381194,-0.850000,0.385000,-0.500000,0.385000,-0.500000,0.635000,-0.850000,0.635000,-0.869134,0.638806,-0.885355,0.649645,-0.896194,0.665866,-0.900000,0.685000,-0.900000,0.835000,-0.896194,0.854134,-0.885355,0.870355,-0.869134,0.881194,
-0.850000,0.885000,-0.500000,0.885000,-0.500000,1.013043,-0.493381,1.046320,-0.474531,1.074531,-0.446320,1.093381,-0.413042,1.099999,0.413043,1.100000,0.446320,1.093381,0.446320,1.093381,$1*%
%AMFreePoly2*
4,1,69,0.413042,1.099999,0.446320,1.093381,0.474531,1.074531,0.493381,1.046320,0.500000,1.013043,0.500000,0.885000,0.850000,0.885000,0.869134,0.881194,0.885355,0.870355,0.896194,0.854134,0.900000,0.835000,0.900000,0.685000,0.896194,0.665866,0.885355,0.649645,0.869134,0.638806,0.850000,0.635000,0.500000,0.635000,0.500000,0.385000,0.850000,0.385000,0.869134,0.381194,
0.885355,0.370355,0.896194,0.354134,0.900000,0.335000,0.900000,0.185000,0.896194,0.165866,0.885355,0.149645,0.869134,0.138806,0.850000,0.135000,0.500000,0.135000,0.499999,-0.115000,0.850000,-0.115000,0.869134,-0.118806,0.885355,-0.129645,0.896194,-0.145866,0.900000,-0.165000,0.900000,-0.315000,0.896194,-0.334134,0.885355,-0.350355,0.869134,-0.361194,0.850000,-0.365000,
0.499999,-0.365000,0.499999,-0.615000,0.850000,-0.615000,0.869134,-0.618806,0.885355,-0.629645,0.896194,-0.645866,0.900000,-0.665000,0.900000,-0.815000,0.896194,-0.834134,0.885355,-0.850355,0.869134,-0.861194,0.850000,-0.865000,0.499999,-0.865000,0.499999,-1.013042,0.493381,-1.046320,0.474531,-1.074531,0.446320,-1.093381,0.413043,-1.100000,-0.413042,-1.099999,-0.446320,-1.093381,
-0.474531,-1.074531,-0.493381,-1.046320,-0.500000,-1.013043,-0.499999,1.013042,-0.493381,1.046320,-0.474531,1.074531,-0.446320,1.093381,-0.413043,1.100000,0.413042,1.099999,0.413042,1.099999,$1*%
%AMFreePoly3*
4,1,52,-0.093366,0.683694,-0.077145,0.672855,-0.066306,0.656634,-0.062500,0.637500,-0.062500,0.287500,0.187500,0.287500,0.187500,0.637500,0.191306,0.656634,0.202145,0.672855,0.218366,0.683694,0.237500,0.687500,0.387500,0.687500,0.406634,0.683694,0.422855,0.672855,0.433694,0.656634,0.437500,0.637500,0.437500,0.287500,0.487500,0.287500,0.506634,0.283694,0.522855,0.272855,
0.533694,0.256634,0.537500,0.237500,0.537500,-0.807500,0.533694,-0.826634,0.522855,-0.842855,0.506634,-0.853694,0.487500,-0.857500,0.167500,-0.857500,0.148366,-0.853694,0.132145,-0.842855,0.121306,-0.826634,0.117500,-0.807500,0.117500,-0.664500,-0.259500,-0.287500,-0.487500,-0.287500,-0.506634,-0.283694,-0.522855,-0.272855,-0.533694,-0.256634,-0.537500,-0.237500,-0.537500,0.237500,
-0.533694,0.256634,-0.522855,0.272855,-0.506634,0.283694,-0.487500,0.287500,-0.312500,0.287500,-0.312500,0.637500,-0.308694,0.656634,-0.297855,0.672855,-0.281634,0.683694,-0.262500,0.687500,-0.112500,0.687500,-0.093366,0.683694,-0.093366,0.683694,$1*%
G04 Aperture macros list end*
%ADD10C,0.200000*%
%ADD11C,0.150000*%
%ADD12C,0.100000*%
%ADD13C,0.120000*%
%ADD14C,0.300000*%
%ADD15C,0.000000*%
%ADD16O,2.000000X1.700000*%
%ADD17RoundRect,0.250000X-0.750000X0.600000X-0.750000X-0.600000X0.750000X-0.600000X0.750000X0.600000X0*%
%ADD18RoundRect,0.250000X0.750000X-0.600000X0.750000X0.600000X-0.750000X0.600000X-0.750000X-0.600000X0*%
%ADD19RoundRect,0.250000X0.250000X0.475000X-0.250000X0.475000X-0.250000X-0.475000X0.250000X-0.475000X0*%
%ADD20RoundRect,0.250000X-0.475000X0.250000X-0.475000X-0.250000X0.475000X-0.250000X0.475000X0.250000X0*%
%ADD21RoundRect,0.250000X-0.450000X0.262500X-0.450000X-0.262500X0.450000X-0.262500X0.450000X0.262500X0*%
%ADD22RoundRect,0.150000X0.587500X0.150000X-0.587500X0.150000X-0.587500X-0.150000X0.587500X-0.150000X0*%
%ADD23RoundRect,0.250000X0.475000X-0.250000X0.475000X0.250000X-0.475000X0.250000X-0.475000X-0.250000X0*%
%ADD24RoundRect,0.243750X-0.456250X0.243750X-0.456250X-0.243750X0.456250X-0.243750X0.456250X0.243750X0*%
%ADD25RoundRect,0.250000X0.450000X-0.262500X0.450000X0.262500X-0.450000X0.262500X-0.450000X-0.262500X0*%
%ADD26RoundRect,0.250000X-0.262500X-0.450000X0.262500X-0.450000X0.262500X0.450000X-0.262500X0.450000X0*%
%ADD27FreePoly0,90.000000*%
%ADD28FreePoly1,0.000000*%
%ADD29FreePoly2,0.000000*%
%ADD30FreePoly3,270.000000*%
%ADD31RoundRect,0.050000X-0.060000X-0.250000X0.060000X-0.250000X0.060000X0.250000X-0.060000X0.250000X0*%
%ADD32R,1.700000X1.700000*%
%ADD33C,1.700000*%
%ADD34R,1.700000X1.000000*%
%ADD35RoundRect,0.760000X-1.140000X1.140000X-1.140000X-1.140000X1.140000X-1.140000X1.140000X1.140000X0*%
%ADD36C,3.800000*%
%ADD37C,0.650000*%
%ADD38RoundRect,0.150000X0.302462X-0.150000X0.302462X0.150000X-0.302462X0.150000X-0.302462X-0.150000X0*%
%ADD39RoundRect,0.150000X0.302499X-0.150000X0.302499X0.150000X-0.302499X0.150000X-0.302499X-0.150000X0*%
%ADD40RoundRect,0.075000X0.500000X-0.075000X0.500000X0.075000X-0.500000X0.075000X-0.500000X-0.075000X0*%
%ADD41RoundRect,0.150000X0.302500X-0.150000X0.302500X0.150000X-0.302500X0.150000X-0.302500X-0.150000X0*%
%ADD42RoundRect,0.150000X0.302497X-0.150000X0.302497X0.150000X-0.302497X0.150000X-0.302497X-0.150000X0*%
%ADD43RoundRect,0.150000X0.302498X-0.150000X0.302498X0.150000X-0.302498X0.150000X-0.302498X-0.150000X0*%
%ADD44O,2.100000X1.000000*%
%ADD45O,1.800000X1.000000*%
%ADD46RoundRect,0.150000X0.700000X-0.150000X0.700000X0.150000X-0.700000X0.150000X-0.700000X-0.150000X0*%
%ADD47RoundRect,0.250000X1.150000X-0.250000X1.150000X0.250000X-1.150000X0.250000X-1.150000X-0.250000X0*%
%ADD48R,0.800000X0.400000*%
%ADD49R,0.400000X0.800000*%
%ADD50Outline5P,-0.600000X0.204000X-0.204000X0.600000X0.600000X0.600000X0.600000X-0.600000X-0.600000X-0.600000X0.000000*%
%ADD51R,1.200000X1.200000*%
%ADD52R,0.800000X0.800000*%
%ADD53RoundRect,0.243750X0.456250X-0.243750X0.456250X0.243750X-0.456250X0.243750X-0.456250X-0.243750X0*%
%ADD54C,2.200000*%
G04 APERTURE END LIST*
D10*
X102107142Y-69983465D02*
X101773809Y-69983465D01*
X101773809Y-70507275D02*
X101773809Y-69507275D01*
X101773809Y-69507275D02*
X102249999Y-69507275D01*
X103107142Y-70507275D02*
X102630952Y-70507275D01*
X102630952Y-70507275D02*
X102630952Y-69507275D01*
X103630952Y-69507275D02*
X103821428Y-69507275D01*
X103821428Y-69507275D02*
X103916666Y-69554894D01*
X103916666Y-69554894D02*
X104011904Y-69650132D01*
X104011904Y-69650132D02*
X104059523Y-69840608D01*
X104059523Y-69840608D02*
X104059523Y-70173941D01*
X104059523Y-70173941D02*
X104011904Y-70364417D01*
X104011904Y-70364417D02*
X103916666Y-70459656D01*
X103916666Y-70459656D02*
X103821428Y-70507275D01*
X103821428Y-70507275D02*
X103630952Y-70507275D01*
X103630952Y-70507275D02*
X103535714Y-70459656D01*
X103535714Y-70459656D02*
X103440476Y-70364417D01*
X103440476Y-70364417D02*
X103392857Y-70173941D01*
X103392857Y-70173941D02*
X103392857Y-69840608D01*
X103392857Y-69840608D02*
X103440476Y-69650132D01*
X103440476Y-69650132D02*
X103535714Y-69554894D01*
X103535714Y-69554894D02*
X103630952Y-69507275D01*
X104440476Y-70221560D02*
X104916666Y-70221560D01*
X104345238Y-70507275D02*
X104678571Y-69507275D01*
X104678571Y-69507275D02*
X105011904Y-70507275D01*
X105202381Y-69507275D02*
X105773809Y-69507275D01*
X105488095Y-70507275D02*
X105488095Y-69507275D01*
X106869048Y-70507275D02*
X106869048Y-69507275D01*
X106869048Y-69507275D02*
X107250000Y-69507275D01*
X107250000Y-69507275D02*
X107345238Y-69554894D01*
X107345238Y-69554894D02*
X107392857Y-69602513D01*
X107392857Y-69602513D02*
X107440476Y-69697751D01*
X107440476Y-69697751D02*
X107440476Y-69840608D01*
X107440476Y-69840608D02*
X107392857Y-69935846D01*
X107392857Y-69935846D02*
X107345238Y-69983465D01*
X107345238Y-69983465D02*
X107250000Y-70031084D01*
X107250000Y-70031084D02*
X106869048Y-70031084D01*
X108440476Y-70412036D02*
X108392857Y-70459656D01*
X108392857Y-70459656D02*
X108250000Y-70507275D01*
X108250000Y-70507275D02*
X108154762Y-70507275D01*
X108154762Y-70507275D02*
X108011905Y-70459656D01*
X108011905Y-70459656D02*
X107916667Y-70364417D01*
X107916667Y-70364417D02*
X107869048Y-70269179D01*
X107869048Y-70269179D02*
X107821429Y-70078703D01*
X107821429Y-70078703D02*
X107821429Y-69935846D01*
X107821429Y-69935846D02*
X107869048Y-69745370D01*
X107869048Y-69745370D02*
X107916667Y-69650132D01*
X107916667Y-69650132D02*
X108011905Y-69554894D01*
X108011905Y-69554894D02*
X108154762Y-69507275D01*
X108154762Y-69507275D02*
X108250000Y-69507275D01*
X108250000Y-69507275D02*
X108392857Y-69554894D01*
X108392857Y-69554894D02*
X108440476Y-69602513D01*
X109202381Y-69983465D02*
X109345238Y-70031084D01*
X109345238Y-70031084D02*
X109392857Y-70078703D01*
X109392857Y-70078703D02*
X109440476Y-70173941D01*
X109440476Y-70173941D02*
X109440476Y-70316798D01*
X109440476Y-70316798D02*
X109392857Y-70412036D01*
X109392857Y-70412036D02*
X109345238Y-70459656D01*
X109345238Y-70459656D02*
X109250000Y-70507275D01*
X109250000Y-70507275D02*
X108869048Y-70507275D01*
X108869048Y-70507275D02*
X108869048Y-69507275D01*
X108869048Y-69507275D02*
X109202381Y-69507275D01*
X109202381Y-69507275D02*
X109297619Y-69554894D01*
X109297619Y-69554894D02*
X109345238Y-69602513D01*
X109345238Y-69602513D02*
X109392857Y-69697751D01*
X109392857Y-69697751D02*
X109392857Y-69792989D01*
X109392857Y-69792989D02*
X109345238Y-69888227D01*
X109345238Y-69888227D02*
X109297619Y-69935846D01*
X109297619Y-69935846D02*
X109202381Y-69983465D01*
X109202381Y-69983465D02*
X108869048Y-69983465D01*
X110488096Y-69507275D02*
X110821429Y-70507275D01*
X110821429Y-70507275D02*
X111154762Y-69507275D01*
X111678572Y-69507275D02*
X111773810Y-69507275D01*
X111773810Y-69507275D02*
X111869048Y-69554894D01*
X111869048Y-69554894D02*
X111916667Y-69602513D01*
X111916667Y-69602513D02*
X111964286Y-69697751D01*
X111964286Y-69697751D02*
X112011905Y-69888227D01*
X112011905Y-69888227D02*
X112011905Y-70126322D01*
X112011905Y-70126322D02*
X111964286Y-70316798D01*
X111964286Y-70316798D02*
X111916667Y-70412036D01*
X111916667Y-70412036D02*
X111869048Y-70459656D01*
X111869048Y-70459656D02*
X111773810Y-70507275D01*
X111773810Y-70507275D02*
X111678572Y-70507275D01*
X111678572Y-70507275D02*
X111583334Y-70459656D01*
X111583334Y-70459656D02*
X111535715Y-70412036D01*
X111535715Y-70412036D02*
X111488096Y-70316798D01*
X111488096Y-70316798D02*
X111440477Y-70126322D01*
X111440477Y-70126322D02*
X111440477Y-69888227D01*
X111440477Y-69888227D02*
X111488096Y-69697751D01*
X111488096Y-69697751D02*
X111535715Y-69602513D01*
X111535715Y-69602513D02*
X111583334Y-69554894D01*
X111583334Y-69554894D02*
X111678572Y-69507275D01*
X106011904Y-71117219D02*
X105535714Y-71117219D01*
X105535714Y-71117219D02*
X105488095Y-71593409D01*
X105488095Y-71593409D02*
X105535714Y-71545790D01*
X105535714Y-71545790D02*
X105630952Y-71498171D01*
X105630952Y-71498171D02*
X105869047Y-71498171D01*
X105869047Y-71498171D02*
X105964285Y-71545790D01*
X105964285Y-71545790D02*
X106011904Y-71593409D01*
X106011904Y-71593409D02*
X106059523Y-71688647D01*
X106059523Y-71688647D02*
X106059523Y-71926742D01*
X106059523Y-71926742D02*
X106011904Y-72021980D01*
X106011904Y-72021980D02*
X105964285Y-72069600D01*
X105964285Y-72069600D02*
X105869047Y-72117219D01*
X105869047Y-72117219D02*
X105630952Y-72117219D01*
X105630952Y-72117219D02*
X105535714Y-72069600D01*
X105535714Y-72069600D02*
X105488095Y-72021980D01*
X107202380Y-71069600D02*
X106345238Y-72355314D01*
X107488095Y-71212457D02*
X107535714Y-71164838D01*
X107535714Y-71164838D02*
X107630952Y-71117219D01*
X107630952Y-71117219D02*
X107869047Y-71117219D01*
X107869047Y-71117219D02*
X107964285Y-71164838D01*
X107964285Y-71164838D02*
X108011904Y-71212457D01*
X108011904Y-71212457D02*
X108059523Y-71307695D01*
X108059523Y-71307695D02*
X108059523Y-71402933D01*
X108059523Y-71402933D02*
X108011904Y-71545790D01*
X108011904Y-71545790D02*
X107440476Y-72117219D01*
X107440476Y-72117219D02*
X108059523Y-72117219D01*
X108916666Y-71117219D02*
X108726190Y-71117219D01*
X108726190Y-71117219D02*
X108630952Y-71164838D01*
X108630952Y-71164838D02*
X108583333Y-71212457D01*
X108583333Y-71212457D02*
X108488095Y-71355314D01*
X108488095Y-71355314D02*
X108440476Y-71545790D01*
X108440476Y-71545790D02*
X108440476Y-71926742D01*
X108440476Y-71926742D02*
X108488095Y-72021980D01*
X108488095Y-72021980D02*
X108535714Y-72069600D01*
X108535714Y-72069600D02*
X108630952Y-72117219D01*
X108630952Y-72117219D02*
X108821428Y-72117219D01*
X108821428Y-72117219D02*
X108916666Y-72069600D01*
X108916666Y-72069600D02*
X108964285Y-72021980D01*
X108964285Y-72021980D02*
X109011904Y-71926742D01*
X109011904Y-71926742D02*
X109011904Y-71688647D01*
X109011904Y-71688647D02*
X108964285Y-71593409D01*
X108964285Y-71593409D02*
X108916666Y-71545790D01*
X108916666Y-71545790D02*
X108821428Y-71498171D01*
X108821428Y-71498171D02*
X108630952Y-71498171D01*
X108630952Y-71498171D02*
X108535714Y-71545790D01*
X108535714Y-71545790D02*
X108488095Y-71593409D01*
X108488095Y-71593409D02*
X108440476Y-71688647D01*
D11*
X116504819Y-79325833D02*
X117219104Y-79325833D01*
X117219104Y-79325833D02*
X117361961Y-79373452D01*
X117361961Y-79373452D02*
X117457200Y-79468690D01*
X117457200Y-79468690D02*
X117504819Y-79611547D01*
X117504819Y-79611547D02*
X117504819Y-79706785D01*
X116504819Y-78421071D02*
X116504819Y-78611547D01*
X116504819Y-78611547D02*
X116552438Y-78706785D01*
X116552438Y-78706785D02*
X116600057Y-78754404D01*
X116600057Y-78754404D02*
X116742914Y-78849642D01*
X116742914Y-78849642D02*
X116933390Y-78897261D01*
X116933390Y-78897261D02*
X117314342Y-78897261D01*
X117314342Y-78897261D02*
X117409580Y-78849642D01*
X117409580Y-78849642D02*
X117457200Y-78802023D01*
X117457200Y-78802023D02*
X117504819Y-78706785D01*
X117504819Y-78706785D02*
X117504819Y-78516309D01*
X117504819Y-78516309D02*
X117457200Y-78421071D01*
X117457200Y-78421071D02*
X117409580Y-78373452D01*
X117409580Y-78373452D02*
X117314342Y-78325833D01*
X117314342Y-78325833D02*
X117076247Y-78325833D01*
X117076247Y-78325833D02*
X116981009Y-78373452D01*
X116981009Y-78373452D02*
X116933390Y-78421071D01*
X116933390Y-78421071D02*
X116885771Y-78516309D01*
X116885771Y-78516309D02*
X116885771Y-78706785D01*
X116885771Y-78706785D02*
X116933390Y-78802023D01*
X116933390Y-78802023D02*
X116981009Y-78849642D01*
X116981009Y-78849642D02*
X117076247Y-78897261D01*
X101804819Y-95575833D02*
X102519104Y-95575833D01*
X102519104Y-95575833D02*
X102661961Y-95623452D01*
X102661961Y-95623452D02*
X102757200Y-95718690D01*
X102757200Y-95718690D02*
X102804819Y-95861547D01*
X102804819Y-95861547D02*
X102804819Y-95956785D01*
X102804819Y-94575833D02*
X102804819Y-95147261D01*
X102804819Y-94861547D02*
X101804819Y-94861547D01*
X101804819Y-94861547D02*
X101947676Y-94956785D01*
X101947676Y-94956785D02*
X102042914Y-95052023D01*
X102042914Y-95052023D02*
X102090533Y-95147261D01*
X149854819Y-97590833D02*
X150569104Y-97590833D01*
X150569104Y-97590833D02*
X150711961Y-97638452D01*
X150711961Y-97638452D02*
X150807200Y-97733690D01*
X150807200Y-97733690D02*
X150854819Y-97876547D01*
X150854819Y-97876547D02*
X150854819Y-97971785D01*
X149950057Y-97162261D02*
X149902438Y-97114642D01*
X149902438Y-97114642D02*
X149854819Y-97019404D01*
X149854819Y-97019404D02*
X149854819Y-96781309D01*
X149854819Y-96781309D02*
X149902438Y-96686071D01*
X149902438Y-96686071D02*
X149950057Y-96638452D01*
X149950057Y-96638452D02*
X150045295Y-96590833D01*
X150045295Y-96590833D02*
X150140533Y-96590833D01*
X150140533Y-96590833D02*
X150283390Y-96638452D01*
X150283390Y-96638452D02*
X150854819Y-97209880D01*
X150854819Y-97209880D02*
X150854819Y-96590833D01*
X135357142Y-73289580D02*
X135309523Y-73337200D01*
X135309523Y-73337200D02*
X135166666Y-73384819D01*
X135166666Y-73384819D02*
X135071428Y-73384819D01*
X135071428Y-73384819D02*
X134928571Y-73337200D01*
X134928571Y-73337200D02*
X134833333Y-73241961D01*
X134833333Y-73241961D02*
X134785714Y-73146723D01*
X134785714Y-73146723D02*
X134738095Y-72956247D01*
X134738095Y-72956247D02*
X134738095Y-72813390D01*
X134738095Y-72813390D02*
X134785714Y-72622914D01*
X134785714Y-72622914D02*
X134833333Y-72527676D01*
X134833333Y-72527676D02*
X134928571Y-72432438D01*
X134928571Y-72432438D02*
X135071428Y-72384819D01*
X135071428Y-72384819D02*
X135166666Y-72384819D01*
X135166666Y-72384819D02*
X135309523Y-72432438D01*
X135309523Y-72432438D02*
X135357142Y-72480057D01*
X136309523Y-73384819D02*
X135738095Y-73384819D01*
X136023809Y-73384819D02*
X136023809Y-72384819D01*
X136023809Y-72384819D02*
X135928571Y-72527676D01*
X135928571Y-72527676D02*
X135833333Y-72622914D01*
X135833333Y-72622914D02*
X135738095Y-72670533D01*
X137166666Y-72718152D02*
X137166666Y-73384819D01*
X136928571Y-72337200D02*
X136690476Y-73051485D01*
X136690476Y-73051485D02*
X137309523Y-73051485D01*
X118039580Y-95166666D02*
X118087200Y-95214285D01*
X118087200Y-95214285D02*
X118134819Y-95357142D01*
X118134819Y-95357142D02*
X118134819Y-95452380D01*
X118134819Y-95452380D02*
X118087200Y-95595237D01*
X118087200Y-95595237D02*
X117991961Y-95690475D01*
X117991961Y-95690475D02*
X117896723Y-95738094D01*
X117896723Y-95738094D02*
X117706247Y-95785713D01*
X117706247Y-95785713D02*
X117563390Y-95785713D01*
X117563390Y-95785713D02*
X117372914Y-95738094D01*
X117372914Y-95738094D02*
X117277676Y-95690475D01*
X117277676Y-95690475D02*
X117182438Y-95595237D01*
X117182438Y-95595237D02*
X117134819Y-95452380D01*
X117134819Y-95452380D02*
X117134819Y-95357142D01*
X117134819Y-95357142D02*
X117182438Y-95214285D01*
X117182438Y-95214285D02*
X117230057Y-95166666D01*
X117134819Y-94833332D02*
X117134819Y-94166666D01*
X117134819Y-94166666D02*
X118134819Y-94595237D01*
X123242319Y-94854166D02*
X122766128Y-95187499D01*
X123242319Y-95425594D02*
X122242319Y-95425594D01*
X122242319Y-95425594D02*
X122242319Y-95044642D01*
X122242319Y-95044642D02*
X122289938Y-94949404D01*
X122289938Y-94949404D02*
X122337557Y-94901785D01*
X122337557Y-94901785D02*
X122432795Y-94854166D01*
X122432795Y-94854166D02*
X122575652Y-94854166D01*
X122575652Y-94854166D02*
X122670890Y-94901785D01*
X122670890Y-94901785D02*
X122718509Y-94949404D01*
X122718509Y-94949404D02*
X122766128Y-95044642D01*
X122766128Y-95044642D02*
X122766128Y-95425594D01*
X122242319Y-93997023D02*
X122242319Y-94187499D01*
X122242319Y-94187499D02*
X122289938Y-94282737D01*
X122289938Y-94282737D02*
X122337557Y-94330356D01*
X122337557Y-94330356D02*
X122480414Y-94425594D01*
X122480414Y-94425594D02*
X122670890Y-94473213D01*
X122670890Y-94473213D02*
X123051842Y-94473213D01*
X123051842Y-94473213D02*
X123147080Y-94425594D01*
X123147080Y-94425594D02*
X123194700Y-94377975D01*
X123194700Y-94377975D02*
X123242319Y-94282737D01*
X123242319Y-94282737D02*
X123242319Y-94092261D01*
X123242319Y-94092261D02*
X123194700Y-93997023D01*
X123194700Y-93997023D02*
X123147080Y-93949404D01*
X123147080Y-93949404D02*
X123051842Y-93901785D01*
X123051842Y-93901785D02*
X122813747Y-93901785D01*
X122813747Y-93901785D02*
X122718509Y-93949404D01*
X122718509Y-93949404D02*
X122670890Y-93997023D01*
X122670890Y-93997023D02*
X122623271Y-94092261D01*
X122623271Y-94092261D02*
X122623271Y-94282737D01*
X122623271Y-94282737D02*
X122670890Y-94377975D01*
X122670890Y-94377975D02*
X122718509Y-94425594D01*
X122718509Y-94425594D02*
X122813747Y-94473213D01*
X140154761Y-88950057D02*
X140059523Y-88902438D01*
X140059523Y-88902438D02*
X139964285Y-88807200D01*
X139964285Y-88807200D02*
X139821428Y-88664342D01*
X139821428Y-88664342D02*
X139726190Y-88616723D01*
X139726190Y-88616723D02*
X139630952Y-88616723D01*
X139678571Y-88854819D02*
X139583333Y-88807200D01*
X139583333Y-88807200D02*
X139488095Y-88711961D01*
X139488095Y-88711961D02*
X139440476Y-88521485D01*
X139440476Y-88521485D02*
X139440476Y-88188152D01*
X139440476Y-88188152D02*
X139488095Y-87997676D01*
X139488095Y-87997676D02*
X139583333Y-87902438D01*
X139583333Y-87902438D02*
X139678571Y-87854819D01*
X139678571Y-87854819D02*
X139869047Y-87854819D01*
X139869047Y-87854819D02*
X139964285Y-87902438D01*
X139964285Y-87902438D02*
X140059523Y-87997676D01*
X140059523Y-87997676D02*
X140107142Y-88188152D01*
X140107142Y-88188152D02*
X140107142Y-88521485D01*
X140107142Y-88521485D02*
X140059523Y-88711961D01*
X140059523Y-88711961D02*
X139964285Y-88807200D01*
X139964285Y-88807200D02*
X139869047Y-88854819D01*
X139869047Y-88854819D02*
X139678571Y-88854819D01*
X141059523Y-88854819D02*
X140488095Y-88854819D01*
X140773809Y-88854819D02*
X140773809Y-87854819D01*
X140773809Y-87854819D02*
X140678571Y-87997676D01*
X140678571Y-87997676D02*
X140583333Y-88092914D01*
X140583333Y-88092914D02*
X140488095Y-88140533D01*
X119179580Y-88916666D02*
X119227200Y-88964285D01*
X119227200Y-88964285D02*
X119274819Y-89107142D01*
X119274819Y-89107142D02*
X119274819Y-89202380D01*
X119274819Y-89202380D02*
X119227200Y-89345237D01*
X119227200Y-89345237D02*
X119131961Y-89440475D01*
X119131961Y-89440475D02*
X119036723Y-89488094D01*
X119036723Y-89488094D02*
X118846247Y-89535713D01*
X118846247Y-89535713D02*
X118703390Y-89535713D01*
X118703390Y-89535713D02*
X118512914Y-89488094D01*
X118512914Y-89488094D02*
X118417676Y-89440475D01*
X118417676Y-89440475D02*
X118322438Y-89345237D01*
X118322438Y-89345237D02*
X118274819Y-89202380D01*
X118274819Y-89202380D02*
X118274819Y-89107142D01*
X118274819Y-89107142D02*
X118322438Y-88964285D01*
X118322438Y-88964285D02*
X118370057Y-88916666D01*
X118608152Y-88059523D02*
X119274819Y-88059523D01*
X118227200Y-88297618D02*
X118941485Y-88535713D01*
X118941485Y-88535713D02*
X118941485Y-87916666D01*
X148104819Y-92238094D02*
X147104819Y-92238094D01*
X147104819Y-92238094D02*
X147104819Y-91999999D01*
X147104819Y-91999999D02*
X147152438Y-91857142D01*
X147152438Y-91857142D02*
X147247676Y-91761904D01*
X147247676Y-91761904D02*
X147342914Y-91714285D01*
X147342914Y-91714285D02*
X147533390Y-91666666D01*
X147533390Y-91666666D02*
X147676247Y-91666666D01*
X147676247Y-91666666D02*
X147866723Y-91714285D01*
X147866723Y-91714285D02*
X147961961Y-91761904D01*
X147961961Y-91761904D02*
X148057200Y-91857142D01*
X148057200Y-91857142D02*
X148104819Y-91999999D01*
X148104819Y-91999999D02*
X148104819Y-92238094D01*
X147104819Y-91333332D02*
X147104819Y-90714285D01*
X147104819Y-90714285D02*
X147485771Y-91047618D01*
X147485771Y-91047618D02*
X147485771Y-90904761D01*
X147485771Y-90904761D02*
X147533390Y-90809523D01*
X147533390Y-90809523D02*
X147581009Y-90761904D01*
X147581009Y-90761904D02*
X147676247Y-90714285D01*
X147676247Y-90714285D02*
X147914342Y-90714285D01*
X147914342Y-90714285D02*
X148009580Y-90761904D01*
X148009580Y-90761904D02*
X148057200Y-90809523D01*
X148057200Y-90809523D02*
X148104819Y-90904761D01*
X148104819Y-90904761D02*
X148104819Y-91190475D01*
X148104819Y-91190475D02*
X148057200Y-91285713D01*
X148057200Y-91285713D02*
X148009580Y-91333332D01*
X144804819Y-96392857D02*
X144328628Y-96726190D01*
X144804819Y-96964285D02*
X143804819Y-96964285D01*
X143804819Y-96964285D02*
X143804819Y-96583333D01*
X143804819Y-96583333D02*
X143852438Y-96488095D01*
X143852438Y-96488095D02*
X143900057Y-96440476D01*
X143900057Y-96440476D02*
X143995295Y-96392857D01*
X143995295Y-96392857D02*
X144138152Y-96392857D01*
X144138152Y-96392857D02*
X144233390Y-96440476D01*
X144233390Y-96440476D02*
X144281009Y-96488095D01*
X144281009Y-96488095D02*
X144328628Y-96583333D01*
X144328628Y-96583333D02*
X144328628Y-96964285D01*
X144804819Y-95440476D02*
X144804819Y-96011904D01*
X144804819Y-95726190D02*
X143804819Y-95726190D01*
X143804819Y-95726190D02*
X143947676Y-95821428D01*
X143947676Y-95821428D02*
X144042914Y-95916666D01*
X144042914Y-95916666D02*
X144090533Y-96011904D01*
X143804819Y-94583333D02*
X143804819Y-94773809D01*
X143804819Y-94773809D02*
X143852438Y-94869047D01*
X143852438Y-94869047D02*
X143900057Y-94916666D01*
X143900057Y-94916666D02*
X144042914Y-95011904D01*
X144042914Y-95011904D02*
X144233390Y-95059523D01*
X144233390Y-95059523D02*
X144614342Y-95059523D01*
X144614342Y-95059523D02*
X144709580Y-95011904D01*
X144709580Y-95011904D02*
X144757200Y-94964285D01*
X144757200Y-94964285D02*
X144804819Y-94869047D01*
X144804819Y-94869047D02*
X144804819Y-94678571D01*
X144804819Y-94678571D02*
X144757200Y-94583333D01*
X144757200Y-94583333D02*
X144709580Y-94535714D01*
X144709580Y-94535714D02*
X144614342Y-94488095D01*
X144614342Y-94488095D02*
X144376247Y-94488095D01*
X144376247Y-94488095D02*
X144281009Y-94535714D01*
X144281009Y-94535714D02*
X144233390Y-94583333D01*
X144233390Y-94583333D02*
X144185771Y-94678571D01*
X144185771Y-94678571D02*
X144185771Y-94869047D01*
X144185771Y-94869047D02*
X144233390Y-94964285D01*
X144233390Y-94964285D02*
X144281009Y-95011904D01*
X144281009Y-95011904D02*
X144376247Y-95059523D01*
X99179580Y-84916666D02*
X99227200Y-84964285D01*
X99227200Y-84964285D02*
X99274819Y-85107142D01*
X99274819Y-85107142D02*
X99274819Y-85202380D01*
X99274819Y-85202380D02*
X99227200Y-85345237D01*
X99227200Y-85345237D02*
X99131961Y-85440475D01*
X99131961Y-85440475D02*
X99036723Y-85488094D01*
X99036723Y-85488094D02*
X98846247Y-85535713D01*
X98846247Y-85535713D02*
X98703390Y-85535713D01*
X98703390Y-85535713D02*
X98512914Y-85488094D01*
X98512914Y-85488094D02*
X98417676Y-85440475D01*
X98417676Y-85440475D02*
X98322438Y-85345237D01*
X98322438Y-85345237D02*
X98274819Y-85202380D01*
X98274819Y-85202380D02*
X98274819Y-85107142D01*
X98274819Y-85107142D02*
X98322438Y-84964285D01*
X98322438Y-84964285D02*
X98370057Y-84916666D01*
X98370057Y-84535713D02*
X98322438Y-84488094D01*
X98322438Y-84488094D02*
X98274819Y-84392856D01*
X98274819Y-84392856D02*
X98274819Y-84154761D01*
X98274819Y-84154761D02*
X98322438Y-84059523D01*
X98322438Y-84059523D02*
X98370057Y-84011904D01*
X98370057Y-84011904D02*
X98465295Y-83964285D01*
X98465295Y-83964285D02*
X98560533Y-83964285D01*
X98560533Y-83964285D02*
X98703390Y-84011904D01*
X98703390Y-84011904D02*
X99274819Y-84583332D01*
X99274819Y-84583332D02*
X99274819Y-83964285D01*
X148107142Y-82304819D02*
X147773809Y-81828628D01*
X147535714Y-82304819D02*
X147535714Y-81304819D01*
X147535714Y-81304819D02*
X147916666Y-81304819D01*
X147916666Y-81304819D02*
X148011904Y-81352438D01*
X148011904Y-81352438D02*
X148059523Y-81400057D01*
X148059523Y-81400057D02*
X148107142Y-81495295D01*
X148107142Y-81495295D02*
X148107142Y-81638152D01*
X148107142Y-81638152D02*
X148059523Y-81733390D01*
X148059523Y-81733390D02*
X148011904Y-81781009D01*
X148011904Y-81781009D02*
X147916666Y-81828628D01*
X147916666Y-81828628D02*
X147535714Y-81828628D01*
X149059523Y-82304819D02*
X148488095Y-82304819D01*
X148773809Y-82304819D02*
X148773809Y-81304819D01*
X148773809Y-81304819D02*
X148678571Y-81447676D01*
X148678571Y-81447676D02*
X148583333Y-81542914D01*
X148583333Y-81542914D02*
X148488095Y-81590533D01*
X150011904Y-82304819D02*
X149440476Y-82304819D01*
X149726190Y-82304819D02*
X149726190Y-81304819D01*
X149726190Y-81304819D02*
X149630952Y-81447676D01*
X149630952Y-81447676D02*
X149535714Y-81542914D01*
X149535714Y-81542914D02*
X149440476Y-81590533D01*
X112539580Y-89166666D02*
X112587200Y-89214285D01*
X112587200Y-89214285D02*
X112634819Y-89357142D01*
X112634819Y-89357142D02*
X112634819Y-89452380D01*
X112634819Y-89452380D02*
X112587200Y-89595237D01*
X112587200Y-89595237D02*
X112491961Y-89690475D01*
X112491961Y-89690475D02*
X112396723Y-89738094D01*
X112396723Y-89738094D02*
X112206247Y-89785713D01*
X112206247Y-89785713D02*
X112063390Y-89785713D01*
X112063390Y-89785713D02*
X111872914Y-89738094D01*
X111872914Y-89738094D02*
X111777676Y-89690475D01*
X111777676Y-89690475D02*
X111682438Y-89595237D01*
X111682438Y-89595237D02*
X111634819Y-89452380D01*
X111634819Y-89452380D02*
X111634819Y-89357142D01*
X111634819Y-89357142D02*
X111682438Y-89214285D01*
X111682438Y-89214285D02*
X111730057Y-89166666D01*
X111634819Y-88833332D02*
X111634819Y-88214285D01*
X111634819Y-88214285D02*
X112015771Y-88547618D01*
X112015771Y-88547618D02*
X112015771Y-88404761D01*
X112015771Y-88404761D02*
X112063390Y-88309523D01*
X112063390Y-88309523D02*
X112111009Y-88261904D01*
X112111009Y-88261904D02*
X112206247Y-88214285D01*
X112206247Y-88214285D02*
X112444342Y-88214285D01*
X112444342Y-88214285D02*
X112539580Y-88261904D01*
X112539580Y-88261904D02*
X112587200Y-88309523D01*
X112587200Y-88309523D02*
X112634819Y-88404761D01*
X112634819Y-88404761D02*
X112634819Y-88690475D01*
X112634819Y-88690475D02*
X112587200Y-88785713D01*
X112587200Y-88785713D02*
X112539580Y-88833332D01*
X123242319Y-99854166D02*
X122766128Y-100187499D01*
X123242319Y-100425594D02*
X122242319Y-100425594D01*
X122242319Y-100425594D02*
X122242319Y-100044642D01*
X122242319Y-100044642D02*
X122289938Y-99949404D01*
X122289938Y-99949404D02*
X122337557Y-99901785D01*
X122337557Y-99901785D02*
X122432795Y-99854166D01*
X122432795Y-99854166D02*
X122575652Y-99854166D01*
X122575652Y-99854166D02*
X122670890Y-99901785D01*
X122670890Y-99901785D02*
X122718509Y-99949404D01*
X122718509Y-99949404D02*
X122766128Y-100044642D01*
X122766128Y-100044642D02*
X122766128Y-100425594D01*
X122242319Y-99520832D02*
X122242319Y-98854166D01*
X122242319Y-98854166D02*
X123242319Y-99282737D01*
X129179580Y-88666666D02*
X129227200Y-88714285D01*
X129227200Y-88714285D02*
X129274819Y-88857142D01*
X129274819Y-88857142D02*
X129274819Y-88952380D01*
X129274819Y-88952380D02*
X129227200Y-89095237D01*
X129227200Y-89095237D02*
X129131961Y-89190475D01*
X129131961Y-89190475D02*
X129036723Y-89238094D01*
X129036723Y-89238094D02*
X128846247Y-89285713D01*
X128846247Y-89285713D02*
X128703390Y-89285713D01*
X128703390Y-89285713D02*
X128512914Y-89238094D01*
X128512914Y-89238094D02*
X128417676Y-89190475D01*
X128417676Y-89190475D02*
X128322438Y-89095237D01*
X128322438Y-89095237D02*
X128274819Y-88952380D01*
X128274819Y-88952380D02*
X128274819Y-88857142D01*
X128274819Y-88857142D02*
X128322438Y-88714285D01*
X128322438Y-88714285D02*
X128370057Y-88666666D01*
X128274819Y-87761904D02*
X128274819Y-88238094D01*
X128274819Y-88238094D02*
X128751009Y-88285713D01*
X128751009Y-88285713D02*
X128703390Y-88238094D01*
X128703390Y-88238094D02*
X128655771Y-88142856D01*
X128655771Y-88142856D02*
X128655771Y-87904761D01*
X128655771Y-87904761D02*
X128703390Y-87809523D01*
X128703390Y-87809523D02*
X128751009Y-87761904D01*
X128751009Y-87761904D02*
X128846247Y-87714285D01*
X128846247Y-87714285D02*
X129084342Y-87714285D01*
X129084342Y-87714285D02*
X129179580Y-87761904D01*
X129179580Y-87761904D02*
X129227200Y-87809523D01*
X129227200Y-87809523D02*
X129274819Y-87904761D01*
X129274819Y-87904761D02*
X129274819Y-88142856D01*
X129274819Y-88142856D02*
X129227200Y-88238094D01*
X129227200Y-88238094D02*
X129179580Y-88285713D01*
D12*
X130288095Y-100346419D02*
X130288095Y-101155942D01*
X130288095Y-101155942D02*
X130335714Y-101251180D01*
X130335714Y-101251180D02*
X130383333Y-101298800D01*
X130383333Y-101298800D02*
X130478571Y-101346419D01*
X130478571Y-101346419D02*
X130669047Y-101346419D01*
X130669047Y-101346419D02*
X130764285Y-101298800D01*
X130764285Y-101298800D02*
X130811904Y-101251180D01*
X130811904Y-101251180D02*
X130859523Y-101155942D01*
X130859523Y-101155942D02*
X130859523Y-100346419D01*
X131288095Y-100441657D02*
X131335714Y-100394038D01*
X131335714Y-100394038D02*
X131430952Y-100346419D01*
X131430952Y-100346419D02*
X131669047Y-100346419D01*
X131669047Y-100346419D02*
X131764285Y-100394038D01*
X131764285Y-100394038D02*
X131811904Y-100441657D01*
X131811904Y-100441657D02*
X131859523Y-100536895D01*
X131859523Y-100536895D02*
X131859523Y-100632133D01*
X131859523Y-100632133D02*
X131811904Y-100774990D01*
X131811904Y-100774990D02*
X131240476Y-101346419D01*
X131240476Y-101346419D02*
X131859523Y-101346419D01*
D11*
X157461666Y-78394819D02*
X157461666Y-79109104D01*
X157461666Y-79109104D02*
X157414047Y-79251961D01*
X157414047Y-79251961D02*
X157318809Y-79347200D01*
X157318809Y-79347200D02*
X157175952Y-79394819D01*
X157175952Y-79394819D02*
X157080714Y-79394819D01*
X158080714Y-78823390D02*
X157985476Y-78775771D01*
X157985476Y-78775771D02*
X157937857Y-78728152D01*
X157937857Y-78728152D02*
X157890238Y-78632914D01*
X157890238Y-78632914D02*
X157890238Y-78585295D01*
X157890238Y-78585295D02*
X157937857Y-78490057D01*
X157937857Y-78490057D02*
X157985476Y-78442438D01*
X157985476Y-78442438D02*
X158080714Y-78394819D01*
X158080714Y-78394819D02*
X158271190Y-78394819D01*
X158271190Y-78394819D02*
X158366428Y-78442438D01*
X158366428Y-78442438D02*
X158414047Y-78490057D01*
X158414047Y-78490057D02*
X158461666Y-78585295D01*
X158461666Y-78585295D02*
X158461666Y-78632914D01*
X158461666Y-78632914D02*
X158414047Y-78728152D01*
X158414047Y-78728152D02*
X158366428Y-78775771D01*
X158366428Y-78775771D02*
X158271190Y-78823390D01*
X158271190Y-78823390D02*
X158080714Y-78823390D01*
X158080714Y-78823390D02*
X157985476Y-78871009D01*
X157985476Y-78871009D02*
X157937857Y-78918628D01*
X157937857Y-78918628D02*
X157890238Y-79013866D01*
X157890238Y-79013866D02*
X157890238Y-79204342D01*
X157890238Y-79204342D02*
X157937857Y-79299580D01*
X157937857Y-79299580D02*
X157985476Y-79347200D01*
X157985476Y-79347200D02*
X158080714Y-79394819D01*
X158080714Y-79394819D02*
X158271190Y-79394819D01*
X158271190Y-79394819D02*
X158366428Y-79347200D01*
X158366428Y-79347200D02*
X158414047Y-79299580D01*
X158414047Y-79299580D02*
X158461666Y-79204342D01*
X158461666Y-79204342D02*
X158461666Y-79013866D01*
X158461666Y-79013866D02*
X158414047Y-78918628D01*
X158414047Y-78918628D02*
X158366428Y-78871009D01*
X158366428Y-78871009D02*
X158271190Y-78823390D01*
X135357142Y-68789580D02*
X135309523Y-68837200D01*
X135309523Y-68837200D02*
X135166666Y-68884819D01*
X135166666Y-68884819D02*
X135071428Y-68884819D01*
X135071428Y-68884819D02*
X134928571Y-68837200D01*
X134928571Y-68837200D02*
X134833333Y-68741961D01*
X134833333Y-68741961D02*
X134785714Y-68646723D01*
X134785714Y-68646723D02*
X134738095Y-68456247D01*
X134738095Y-68456247D02*
X134738095Y-68313390D01*
X134738095Y-68313390D02*
X134785714Y-68122914D01*
X134785714Y-68122914D02*
X134833333Y-68027676D01*
X134833333Y-68027676D02*
X134928571Y-67932438D01*
X134928571Y-67932438D02*
X135071428Y-67884819D01*
X135071428Y-67884819D02*
X135166666Y-67884819D01*
X135166666Y-67884819D02*
X135309523Y-67932438D01*
X135309523Y-67932438D02*
X135357142Y-67980057D01*
X136309523Y-68884819D02*
X135738095Y-68884819D01*
X136023809Y-68884819D02*
X136023809Y-67884819D01*
X136023809Y-67884819D02*
X135928571Y-68027676D01*
X135928571Y-68027676D02*
X135833333Y-68122914D01*
X135833333Y-68122914D02*
X135738095Y-68170533D01*
X136642857Y-67884819D02*
X137261904Y-67884819D01*
X137261904Y-67884819D02*
X136928571Y-68265771D01*
X136928571Y-68265771D02*
X137071428Y-68265771D01*
X137071428Y-68265771D02*
X137166666Y-68313390D01*
X137166666Y-68313390D02*
X137214285Y-68361009D01*
X137214285Y-68361009D02*
X137261904Y-68456247D01*
X137261904Y-68456247D02*
X137261904Y-68694342D01*
X137261904Y-68694342D02*
X137214285Y-68789580D01*
X137214285Y-68789580D02*
X137166666Y-68837200D01*
X137166666Y-68837200D02*
X137071428Y-68884819D01*
X137071428Y-68884819D02*
X136785714Y-68884819D01*
X136785714Y-68884819D02*
X136690476Y-68837200D01*
X136690476Y-68837200D02*
X136642857Y-68789580D01*
X134289580Y-74892857D02*
X134337200Y-74940476D01*
X134337200Y-74940476D02*
X134384819Y-75083333D01*
X134384819Y-75083333D02*
X134384819Y-75178571D01*
X134384819Y-75178571D02*
X134337200Y-75321428D01*
X134337200Y-75321428D02*
X134241961Y-75416666D01*
X134241961Y-75416666D02*
X134146723Y-75464285D01*
X134146723Y-75464285D02*
X133956247Y-75511904D01*
X133956247Y-75511904D02*
X133813390Y-75511904D01*
X133813390Y-75511904D02*
X133622914Y-75464285D01*
X133622914Y-75464285D02*
X133527676Y-75416666D01*
X133527676Y-75416666D02*
X133432438Y-75321428D01*
X133432438Y-75321428D02*
X133384819Y-75178571D01*
X133384819Y-75178571D02*
X133384819Y-75083333D01*
X133384819Y-75083333D02*
X133432438Y-74940476D01*
X133432438Y-74940476D02*
X133480057Y-74892857D01*
X134384819Y-73940476D02*
X134384819Y-74511904D01*
X134384819Y-74226190D02*
X133384819Y-74226190D01*
X133384819Y-74226190D02*
X133527676Y-74321428D01*
X133527676Y-74321428D02*
X133622914Y-74416666D01*
X133622914Y-74416666D02*
X133670533Y-74511904D01*
X133480057Y-73559523D02*
X133432438Y-73511904D01*
X133432438Y-73511904D02*
X133384819Y-73416666D01*
X133384819Y-73416666D02*
X133384819Y-73178571D01*
X133384819Y-73178571D02*
X133432438Y-73083333D01*
X133432438Y-73083333D02*
X133480057Y-73035714D01*
X133480057Y-73035714D02*
X133575295Y-72988095D01*
X133575295Y-72988095D02*
X133670533Y-72988095D01*
X133670533Y-72988095D02*
X133813390Y-73035714D01*
X133813390Y-73035714D02*
X134384819Y-73607142D01*
X134384819Y-73607142D02*
X134384819Y-72988095D01*
X104054819Y-82666666D02*
X103578628Y-82999999D01*
X104054819Y-83238094D02*
X103054819Y-83238094D01*
X103054819Y-83238094D02*
X103054819Y-82857142D01*
X103054819Y-82857142D02*
X103102438Y-82761904D01*
X103102438Y-82761904D02*
X103150057Y-82714285D01*
X103150057Y-82714285D02*
X103245295Y-82666666D01*
X103245295Y-82666666D02*
X103388152Y-82666666D01*
X103388152Y-82666666D02*
X103483390Y-82714285D01*
X103483390Y-82714285D02*
X103531009Y-82761904D01*
X103531009Y-82761904D02*
X103578628Y-82857142D01*
X103578628Y-82857142D02*
X103578628Y-83238094D01*
X103054819Y-82333332D02*
X103054819Y-81714285D01*
X103054819Y-81714285D02*
X103435771Y-82047618D01*
X103435771Y-82047618D02*
X103435771Y-81904761D01*
X103435771Y-81904761D02*
X103483390Y-81809523D01*
X103483390Y-81809523D02*
X103531009Y-81761904D01*
X103531009Y-81761904D02*
X103626247Y-81714285D01*
X103626247Y-81714285D02*
X103864342Y-81714285D01*
X103864342Y-81714285D02*
X103959580Y-81761904D01*
X103959580Y-81761904D02*
X104007200Y-81809523D01*
X104007200Y-81809523D02*
X104054819Y-81904761D01*
X104054819Y-81904761D02*
X104054819Y-82190475D01*
X104054819Y-82190475D02*
X104007200Y-82285713D01*
X104007200Y-82285713D02*
X103959580Y-82333332D01*
X139804819Y-97166666D02*
X139328628Y-97499999D01*
X139804819Y-97738094D02*
X138804819Y-97738094D01*
X138804819Y-97738094D02*
X138804819Y-97357142D01*
X138804819Y-97357142D02*
X138852438Y-97261904D01*
X138852438Y-97261904D02*
X138900057Y-97214285D01*
X138900057Y-97214285D02*
X138995295Y-97166666D01*
X138995295Y-97166666D02*
X139138152Y-97166666D01*
X139138152Y-97166666D02*
X139233390Y-97214285D01*
X139233390Y-97214285D02*
X139281009Y-97261904D01*
X139281009Y-97261904D02*
X139328628Y-97357142D01*
X139328628Y-97357142D02*
X139328628Y-97738094D01*
X139233390Y-96595237D02*
X139185771Y-96690475D01*
X139185771Y-96690475D02*
X139138152Y-96738094D01*
X139138152Y-96738094D02*
X139042914Y-96785713D01*
X139042914Y-96785713D02*
X138995295Y-96785713D01*
X138995295Y-96785713D02*
X138900057Y-96738094D01*
X138900057Y-96738094D02*
X138852438Y-96690475D01*
X138852438Y-96690475D02*
X138804819Y-96595237D01*
X138804819Y-96595237D02*
X138804819Y-96404761D01*
X138804819Y-96404761D02*
X138852438Y-96309523D01*
X138852438Y-96309523D02*
X138900057Y-96261904D01*
X138900057Y-96261904D02*
X138995295Y-96214285D01*
X138995295Y-96214285D02*
X139042914Y-96214285D01*
X139042914Y-96214285D02*
X139138152Y-96261904D01*
X139138152Y-96261904D02*
X139185771Y-96309523D01*
X139185771Y-96309523D02*
X139233390Y-96404761D01*
X139233390Y-96404761D02*
X139233390Y-96595237D01*
X139233390Y-96595237D02*
X139281009Y-96690475D01*
X139281009Y-96690475D02*
X139328628Y-96738094D01*
X139328628Y-96738094D02*
X139423866Y-96785713D01*
X139423866Y-96785713D02*
X139614342Y-96785713D01*
X139614342Y-96785713D02*
X139709580Y-96738094D01*
X139709580Y-96738094D02*
X139757200Y-96690475D01*
X139757200Y-96690475D02*
X139804819Y-96595237D01*
X139804819Y-96595237D02*
X139804819Y-96404761D01*
X139804819Y-96404761D02*
X139757200Y-96309523D01*
X139757200Y-96309523D02*
X139709580Y-96261904D01*
X139709580Y-96261904D02*
X139614342Y-96214285D01*
X139614342Y-96214285D02*
X139423866Y-96214285D01*
X139423866Y-96214285D02*
X139328628Y-96261904D01*
X139328628Y-96261904D02*
X139281009Y-96309523D01*
X139281009Y-96309523D02*
X139233390Y-96404761D01*
X117766666Y-71081009D02*
X117909523Y-71128628D01*
X117909523Y-71128628D02*
X117957142Y-71176247D01*
X117957142Y-71176247D02*
X118004761Y-71271485D01*
X118004761Y-71271485D02*
X118004761Y-71414342D01*
X118004761Y-71414342D02*
X117957142Y-71509580D01*
X117957142Y-71509580D02*
X117909523Y-71557200D01*
X117909523Y-71557200D02*
X117814285Y-71604819D01*
X117814285Y-71604819D02*
X117433333Y-71604819D01*
X117433333Y-71604819D02*
X117433333Y-70604819D01*
X117433333Y-70604819D02*
X117766666Y-70604819D01*
X117766666Y-70604819D02*
X117861904Y-70652438D01*
X117861904Y-70652438D02*
X117909523Y-70700057D01*
X117909523Y-70700057D02*
X117957142Y-70795295D01*
X117957142Y-70795295D02*
X117957142Y-70890533D01*
X117957142Y-70890533D02*
X117909523Y-70985771D01*
X117909523Y-70985771D02*
X117861904Y-71033390D01*
X117861904Y-71033390D02*
X117766666Y-71081009D01*
X117766666Y-71081009D02*
X117433333Y-71081009D01*
X118623809Y-70604819D02*
X118814285Y-70604819D01*
X118814285Y-70604819D02*
X118909523Y-70652438D01*
X118909523Y-70652438D02*
X119004761Y-70747676D01*
X119004761Y-70747676D02*
X119052380Y-70938152D01*
X119052380Y-70938152D02*
X119052380Y-71271485D01*
X119052380Y-71271485D02*
X119004761Y-71461961D01*
X119004761Y-71461961D02*
X118909523Y-71557200D01*
X118909523Y-71557200D02*
X118814285Y-71604819D01*
X118814285Y-71604819D02*
X118623809Y-71604819D01*
X118623809Y-71604819D02*
X118528571Y-71557200D01*
X118528571Y-71557200D02*
X118433333Y-71461961D01*
X118433333Y-71461961D02*
X118385714Y-71271485D01*
X118385714Y-71271485D02*
X118385714Y-70938152D01*
X118385714Y-70938152D02*
X118433333Y-70747676D01*
X118433333Y-70747676D02*
X118528571Y-70652438D01*
X118528571Y-70652438D02*
X118623809Y-70604819D01*
X119671428Y-70604819D02*
X119861904Y-70604819D01*
X119861904Y-70604819D02*
X119957142Y-70652438D01*
X119957142Y-70652438D02*
X120052380Y-70747676D01*
X120052380Y-70747676D02*
X120099999Y-70938152D01*
X120099999Y-70938152D02*
X120099999Y-71271485D01*
X120099999Y-71271485D02*
X120052380Y-71461961D01*
X120052380Y-71461961D02*
X119957142Y-71557200D01*
X119957142Y-71557200D02*
X119861904Y-71604819D01*
X119861904Y-71604819D02*
X119671428Y-71604819D01*
X119671428Y-71604819D02*
X119576190Y-71557200D01*
X119576190Y-71557200D02*
X119480952Y-71461961D01*
X119480952Y-71461961D02*
X119433333Y-71271485D01*
X119433333Y-71271485D02*
X119433333Y-70938152D01*
X119433333Y-70938152D02*
X119480952Y-70747676D01*
X119480952Y-70747676D02*
X119576190Y-70652438D01*
X119576190Y-70652438D02*
X119671428Y-70604819D01*
X120385714Y-70604819D02*
X120957142Y-70604819D01*
X120671428Y-71604819D02*
X120671428Y-70604819D01*
X121814285Y-71604819D02*
X121242857Y-71604819D01*
X121528571Y-71604819D02*
X121528571Y-70604819D01*
X121528571Y-70604819D02*
X121433333Y-70747676D01*
X121433333Y-70747676D02*
X121338095Y-70842914D01*
X121338095Y-70842914D02*
X121242857Y-70890533D01*
X113039580Y-97116666D02*
X113087200Y-97164285D01*
X113087200Y-97164285D02*
X113134819Y-97307142D01*
X113134819Y-97307142D02*
X113134819Y-97402380D01*
X113134819Y-97402380D02*
X113087200Y-97545237D01*
X113087200Y-97545237D02*
X112991961Y-97640475D01*
X112991961Y-97640475D02*
X112896723Y-97688094D01*
X112896723Y-97688094D02*
X112706247Y-97735713D01*
X112706247Y-97735713D02*
X112563390Y-97735713D01*
X112563390Y-97735713D02*
X112372914Y-97688094D01*
X112372914Y-97688094D02*
X112277676Y-97640475D01*
X112277676Y-97640475D02*
X112182438Y-97545237D01*
X112182438Y-97545237D02*
X112134819Y-97402380D01*
X112134819Y-97402380D02*
X112134819Y-97307142D01*
X112134819Y-97307142D02*
X112182438Y-97164285D01*
X112182438Y-97164285D02*
X112230057Y-97116666D01*
X112134819Y-96259523D02*
X112134819Y-96449999D01*
X112134819Y-96449999D02*
X112182438Y-96545237D01*
X112182438Y-96545237D02*
X112230057Y-96592856D01*
X112230057Y-96592856D02*
X112372914Y-96688094D01*
X112372914Y-96688094D02*
X112563390Y-96735713D01*
X112563390Y-96735713D02*
X112944342Y-96735713D01*
X112944342Y-96735713D02*
X113039580Y-96688094D01*
X113039580Y-96688094D02*
X113087200Y-96640475D01*
X113087200Y-96640475D02*
X113134819Y-96545237D01*
X113134819Y-96545237D02*
X113134819Y-96354761D01*
X113134819Y-96354761D02*
X113087200Y-96259523D01*
X113087200Y-96259523D02*
X113039580Y-96211904D01*
X113039580Y-96211904D02*
X112944342Y-96164285D01*
X112944342Y-96164285D02*
X112706247Y-96164285D01*
X112706247Y-96164285D02*
X112611009Y-96211904D01*
X112611009Y-96211904D02*
X112563390Y-96259523D01*
X112563390Y-96259523D02*
X112515771Y-96354761D01*
X112515771Y-96354761D02*
X112515771Y-96545237D01*
X112515771Y-96545237D02*
X112563390Y-96640475D01*
X112563390Y-96640475D02*
X112611009Y-96688094D01*
X112611009Y-96688094D02*
X112706247Y-96735713D01*
X127857142Y-73304819D02*
X127523809Y-72828628D01*
X127285714Y-73304819D02*
X127285714Y-72304819D01*
X127285714Y-72304819D02*
X127666666Y-72304819D01*
X127666666Y-72304819D02*
X127761904Y-72352438D01*
X127761904Y-72352438D02*
X127809523Y-72400057D01*
X127809523Y-72400057D02*
X127857142Y-72495295D01*
X127857142Y-72495295D02*
X127857142Y-72638152D01*
X127857142Y-72638152D02*
X127809523Y-72733390D01*
X127809523Y-72733390D02*
X127761904Y-72781009D01*
X127761904Y-72781009D02*
X127666666Y-72828628D01*
X127666666Y-72828628D02*
X127285714Y-72828628D01*
X128809523Y-73304819D02*
X128238095Y-73304819D01*
X128523809Y-73304819D02*
X128523809Y-72304819D01*
X128523809Y-72304819D02*
X128428571Y-72447676D01*
X128428571Y-72447676D02*
X128333333Y-72542914D01*
X128333333Y-72542914D02*
X128238095Y-72590533D01*
X129190476Y-72400057D02*
X129238095Y-72352438D01*
X129238095Y-72352438D02*
X129333333Y-72304819D01*
X129333333Y-72304819D02*
X129571428Y-72304819D01*
X129571428Y-72304819D02*
X129666666Y-72352438D01*
X129666666Y-72352438D02*
X129714285Y-72400057D01*
X129714285Y-72400057D02*
X129761904Y-72495295D01*
X129761904Y-72495295D02*
X129761904Y-72590533D01*
X129761904Y-72590533D02*
X129714285Y-72733390D01*
X129714285Y-72733390D02*
X129142857Y-73304819D01*
X129142857Y-73304819D02*
X129761904Y-73304819D01*
X134104819Y-84142857D02*
X133628628Y-84476190D01*
X134104819Y-84714285D02*
X133104819Y-84714285D01*
X133104819Y-84714285D02*
X133104819Y-84333333D01*
X133104819Y-84333333D02*
X133152438Y-84238095D01*
X133152438Y-84238095D02*
X133200057Y-84190476D01*
X133200057Y-84190476D02*
X133295295Y-84142857D01*
X133295295Y-84142857D02*
X133438152Y-84142857D01*
X133438152Y-84142857D02*
X133533390Y-84190476D01*
X133533390Y-84190476D02*
X133581009Y-84238095D01*
X133581009Y-84238095D02*
X133628628Y-84333333D01*
X133628628Y-84333333D02*
X133628628Y-84714285D01*
X134104819Y-83190476D02*
X134104819Y-83761904D01*
X134104819Y-83476190D02*
X133104819Y-83476190D01*
X133104819Y-83476190D02*
X133247676Y-83571428D01*
X133247676Y-83571428D02*
X133342914Y-83666666D01*
X133342914Y-83666666D02*
X133390533Y-83761904D01*
X133104819Y-82857142D02*
X133104819Y-82238095D01*
X133104819Y-82238095D02*
X133485771Y-82571428D01*
X133485771Y-82571428D02*
X133485771Y-82428571D01*
X133485771Y-82428571D02*
X133533390Y-82333333D01*
X133533390Y-82333333D02*
X133581009Y-82285714D01*
X133581009Y-82285714D02*
X133676247Y-82238095D01*
X133676247Y-82238095D02*
X133914342Y-82238095D01*
X133914342Y-82238095D02*
X134009580Y-82285714D01*
X134009580Y-82285714D02*
X134057200Y-82333333D01*
X134057200Y-82333333D02*
X134104819Y-82428571D01*
X134104819Y-82428571D02*
X134104819Y-82714285D01*
X134104819Y-82714285D02*
X134057200Y-82809523D01*
X134057200Y-82809523D02*
X134009580Y-82857142D01*
X104054819Y-87416666D02*
X103578628Y-87749999D01*
X104054819Y-87988094D02*
X103054819Y-87988094D01*
X103054819Y-87988094D02*
X103054819Y-87607142D01*
X103054819Y-87607142D02*
X103102438Y-87511904D01*
X103102438Y-87511904D02*
X103150057Y-87464285D01*
X103150057Y-87464285D02*
X103245295Y-87416666D01*
X103245295Y-87416666D02*
X103388152Y-87416666D01*
X103388152Y-87416666D02*
X103483390Y-87464285D01*
X103483390Y-87464285D02*
X103531009Y-87511904D01*
X103531009Y-87511904D02*
X103578628Y-87607142D01*
X103578628Y-87607142D02*
X103578628Y-87988094D01*
X103150057Y-87035713D02*
X103102438Y-86988094D01*
X103102438Y-86988094D02*
X103054819Y-86892856D01*
X103054819Y-86892856D02*
X103054819Y-86654761D01*
X103054819Y-86654761D02*
X103102438Y-86559523D01*
X103102438Y-86559523D02*
X103150057Y-86511904D01*
X103150057Y-86511904D02*
X103245295Y-86464285D01*
X103245295Y-86464285D02*
X103340533Y-86464285D01*
X103340533Y-86464285D02*
X103483390Y-86511904D01*
X103483390Y-86511904D02*
X104054819Y-87083332D01*
X104054819Y-87083332D02*
X104054819Y-86464285D01*
X100954819Y-75333333D02*
X101669104Y-75333333D01*
X101669104Y-75333333D02*
X101811961Y-75380952D01*
X101811961Y-75380952D02*
X101907200Y-75476190D01*
X101907200Y-75476190D02*
X101954819Y-75619047D01*
X101954819Y-75619047D02*
X101954819Y-75714285D01*
X100954819Y-74952380D02*
X100954819Y-74285714D01*
X100954819Y-74285714D02*
X101954819Y-74714285D01*
X97614700Y-69071428D02*
X97614700Y-67928571D01*
X97614700Y-82071428D02*
X97614700Y-80928571D01*
X98186128Y-81499999D02*
X97043271Y-81499999D01*
X143039580Y-101392857D02*
X143087200Y-101440476D01*
X143087200Y-101440476D02*
X143134819Y-101583333D01*
X143134819Y-101583333D02*
X143134819Y-101678571D01*
X143134819Y-101678571D02*
X143087200Y-101821428D01*
X143087200Y-101821428D02*
X142991961Y-101916666D01*
X142991961Y-101916666D02*
X142896723Y-101964285D01*
X142896723Y-101964285D02*
X142706247Y-102011904D01*
X142706247Y-102011904D02*
X142563390Y-102011904D01*
X142563390Y-102011904D02*
X142372914Y-101964285D01*
X142372914Y-101964285D02*
X142277676Y-101916666D01*
X142277676Y-101916666D02*
X142182438Y-101821428D01*
X142182438Y-101821428D02*
X142134819Y-101678571D01*
X142134819Y-101678571D02*
X142134819Y-101583333D01*
X142134819Y-101583333D02*
X142182438Y-101440476D01*
X142182438Y-101440476D02*
X142230057Y-101392857D01*
X143134819Y-100440476D02*
X143134819Y-101011904D01*
X143134819Y-100726190D02*
X142134819Y-100726190D01*
X142134819Y-100726190D02*
X142277676Y-100821428D01*
X142277676Y-100821428D02*
X142372914Y-100916666D01*
X142372914Y-100916666D02*
X142420533Y-101011904D01*
X142134819Y-99821428D02*
X142134819Y-99726190D01*
X142134819Y-99726190D02*
X142182438Y-99630952D01*
X142182438Y-99630952D02*
X142230057Y-99583333D01*
X142230057Y-99583333D02*
X142325295Y-99535714D01*
X142325295Y-99535714D02*
X142515771Y-99488095D01*
X142515771Y-99488095D02*
X142753866Y-99488095D01*
X142753866Y-99488095D02*
X142944342Y-99535714D01*
X142944342Y-99535714D02*
X143039580Y-99583333D01*
X143039580Y-99583333D02*
X143087200Y-99630952D01*
X143087200Y-99630952D02*
X143134819Y-99726190D01*
X143134819Y-99726190D02*
X143134819Y-99821428D01*
X143134819Y-99821428D02*
X143087200Y-99916666D01*
X143087200Y-99916666D02*
X143039580Y-99964285D01*
X143039580Y-99964285D02*
X142944342Y-100011904D01*
X142944342Y-100011904D02*
X142753866Y-100059523D01*
X142753866Y-100059523D02*
X142515771Y-100059523D01*
X142515771Y-100059523D02*
X142325295Y-100011904D01*
X142325295Y-100011904D02*
X142230057Y-99964285D01*
X142230057Y-99964285D02*
X142182438Y-99916666D01*
X142182438Y-99916666D02*
X142134819Y-99821428D01*
X104567319Y-93655357D02*
X104091128Y-93988690D01*
X104567319Y-94226785D02*
X103567319Y-94226785D01*
X103567319Y-94226785D02*
X103567319Y-93845833D01*
X103567319Y-93845833D02*
X103614938Y-93750595D01*
X103614938Y-93750595D02*
X103662557Y-93702976D01*
X103662557Y-93702976D02*
X103757795Y-93655357D01*
X103757795Y-93655357D02*
X103900652Y-93655357D01*
X103900652Y-93655357D02*
X103995890Y-93702976D01*
X103995890Y-93702976D02*
X104043509Y-93750595D01*
X104043509Y-93750595D02*
X104091128Y-93845833D01*
X104091128Y-93845833D02*
X104091128Y-94226785D01*
X104567319Y-92702976D02*
X104567319Y-93274404D01*
X104567319Y-92988690D02*
X103567319Y-92988690D01*
X103567319Y-92988690D02*
X103710176Y-93083928D01*
X103710176Y-93083928D02*
X103805414Y-93179166D01*
X103805414Y-93179166D02*
X103853033Y-93274404D01*
X103900652Y-91845833D02*
X104567319Y-91845833D01*
X103519700Y-92083928D02*
X104233985Y-92322023D01*
X104233985Y-92322023D02*
X104233985Y-91702976D01*
X124304819Y-91166666D02*
X123828628Y-91499999D01*
X124304819Y-91738094D02*
X123304819Y-91738094D01*
X123304819Y-91738094D02*
X123304819Y-91357142D01*
X123304819Y-91357142D02*
X123352438Y-91261904D01*
X123352438Y-91261904D02*
X123400057Y-91214285D01*
X123400057Y-91214285D02*
X123495295Y-91166666D01*
X123495295Y-91166666D02*
X123638152Y-91166666D01*
X123638152Y-91166666D02*
X123733390Y-91214285D01*
X123733390Y-91214285D02*
X123781009Y-91261904D01*
X123781009Y-91261904D02*
X123828628Y-91357142D01*
X123828628Y-91357142D02*
X123828628Y-91738094D01*
X123638152Y-90309523D02*
X124304819Y-90309523D01*
X123257200Y-90547618D02*
X123971485Y-90785713D01*
X123971485Y-90785713D02*
X123971485Y-90166666D01*
X94179580Y-84916666D02*
X94227200Y-84964285D01*
X94227200Y-84964285D02*
X94274819Y-85107142D01*
X94274819Y-85107142D02*
X94274819Y-85202380D01*
X94274819Y-85202380D02*
X94227200Y-85345237D01*
X94227200Y-85345237D02*
X94131961Y-85440475D01*
X94131961Y-85440475D02*
X94036723Y-85488094D01*
X94036723Y-85488094D02*
X93846247Y-85535713D01*
X93846247Y-85535713D02*
X93703390Y-85535713D01*
X93703390Y-85535713D02*
X93512914Y-85488094D01*
X93512914Y-85488094D02*
X93417676Y-85440475D01*
X93417676Y-85440475D02*
X93322438Y-85345237D01*
X93322438Y-85345237D02*
X93274819Y-85202380D01*
X93274819Y-85202380D02*
X93274819Y-85107142D01*
X93274819Y-85107142D02*
X93322438Y-84964285D01*
X93322438Y-84964285D02*
X93370057Y-84916666D01*
X94274819Y-83964285D02*
X94274819Y-84535713D01*
X94274819Y-84249999D02*
X93274819Y-84249999D01*
X93274819Y-84249999D02*
X93417676Y-84345237D01*
X93417676Y-84345237D02*
X93512914Y-84440475D01*
X93512914Y-84440475D02*
X93560533Y-84535713D01*
X134104819Y-79416666D02*
X133628628Y-79749999D01*
X134104819Y-79988094D02*
X133104819Y-79988094D01*
X133104819Y-79988094D02*
X133104819Y-79607142D01*
X133104819Y-79607142D02*
X133152438Y-79511904D01*
X133152438Y-79511904D02*
X133200057Y-79464285D01*
X133200057Y-79464285D02*
X133295295Y-79416666D01*
X133295295Y-79416666D02*
X133438152Y-79416666D01*
X133438152Y-79416666D02*
X133533390Y-79464285D01*
X133533390Y-79464285D02*
X133581009Y-79511904D01*
X133581009Y-79511904D02*
X133628628Y-79607142D01*
X133628628Y-79607142D02*
X133628628Y-79988094D01*
X134104819Y-78464285D02*
X134104819Y-79035713D01*
X134104819Y-78749999D02*
X133104819Y-78749999D01*
X133104819Y-78749999D02*
X133247676Y-78845237D01*
X133247676Y-78845237D02*
X133342914Y-78940475D01*
X133342914Y-78940475D02*
X133390533Y-79035713D01*
X150954819Y-86833333D02*
X151669104Y-86833333D01*
X151669104Y-86833333D02*
X151811961Y-86880952D01*
X151811961Y-86880952D02*
X151907200Y-86976190D01*
X151907200Y-86976190D02*
X151954819Y-87119047D01*
X151954819Y-87119047D02*
X151954819Y-87214285D01*
X150954819Y-86452380D02*
X150954819Y-85833333D01*
X150954819Y-85833333D02*
X151335771Y-86166666D01*
X151335771Y-86166666D02*
X151335771Y-86023809D01*
X151335771Y-86023809D02*
X151383390Y-85928571D01*
X151383390Y-85928571D02*
X151431009Y-85880952D01*
X151431009Y-85880952D02*
X151526247Y-85833333D01*
X151526247Y-85833333D02*
X151764342Y-85833333D01*
X151764342Y-85833333D02*
X151859580Y-85880952D01*
X151859580Y-85880952D02*
X151907200Y-85928571D01*
X151907200Y-85928571D02*
X151954819Y-86023809D01*
X151954819Y-86023809D02*
X151954819Y-86309523D01*
X151954819Y-86309523D02*
X151907200Y-86404761D01*
X151907200Y-86404761D02*
X151859580Y-86452380D01*
X142917319Y-93504166D02*
X142441128Y-93837499D01*
X142917319Y-94075594D02*
X141917319Y-94075594D01*
X141917319Y-94075594D02*
X141917319Y-93694642D01*
X141917319Y-93694642D02*
X141964938Y-93599404D01*
X141964938Y-93599404D02*
X142012557Y-93551785D01*
X142012557Y-93551785D02*
X142107795Y-93504166D01*
X142107795Y-93504166D02*
X142250652Y-93504166D01*
X142250652Y-93504166D02*
X142345890Y-93551785D01*
X142345890Y-93551785D02*
X142393509Y-93599404D01*
X142393509Y-93599404D02*
X142441128Y-93694642D01*
X142441128Y-93694642D02*
X142441128Y-94075594D01*
X142917319Y-93027975D02*
X142917319Y-92837499D01*
X142917319Y-92837499D02*
X142869700Y-92742261D01*
X142869700Y-92742261D02*
X142822080Y-92694642D01*
X142822080Y-92694642D02*
X142679223Y-92599404D01*
X142679223Y-92599404D02*
X142488747Y-92551785D01*
X142488747Y-92551785D02*
X142107795Y-92551785D01*
X142107795Y-92551785D02*
X142012557Y-92599404D01*
X142012557Y-92599404D02*
X141964938Y-92647023D01*
X141964938Y-92647023D02*
X141917319Y-92742261D01*
X141917319Y-92742261D02*
X141917319Y-92932737D01*
X141917319Y-92932737D02*
X141964938Y-93027975D01*
X141964938Y-93027975D02*
X142012557Y-93075594D01*
X142012557Y-93075594D02*
X142107795Y-93123213D01*
X142107795Y-93123213D02*
X142345890Y-93123213D01*
X142345890Y-93123213D02*
X142441128Y-93075594D01*
X142441128Y-93075594D02*
X142488747Y-93027975D01*
X142488747Y-93027975D02*
X142536366Y-92932737D01*
X142536366Y-92932737D02*
X142536366Y-92742261D01*
X142536366Y-92742261D02*
X142488747Y-92647023D01*
X142488747Y-92647023D02*
X142441128Y-92599404D01*
X142441128Y-92599404D02*
X142345890Y-92551785D01*
X134304819Y-92642857D02*
X133828628Y-92976190D01*
X134304819Y-93214285D02*
X133304819Y-93214285D01*
X133304819Y-93214285D02*
X133304819Y-92833333D01*
X133304819Y-92833333D02*
X133352438Y-92738095D01*
X133352438Y-92738095D02*
X133400057Y-92690476D01*
X133400057Y-92690476D02*
X133495295Y-92642857D01*
X133495295Y-92642857D02*
X133638152Y-92642857D01*
X133638152Y-92642857D02*
X133733390Y-92690476D01*
X133733390Y-92690476D02*
X133781009Y-92738095D01*
X133781009Y-92738095D02*
X133828628Y-92833333D01*
X133828628Y-92833333D02*
X133828628Y-93214285D01*
X134304819Y-91690476D02*
X134304819Y-92261904D01*
X134304819Y-91976190D02*
X133304819Y-91976190D01*
X133304819Y-91976190D02*
X133447676Y-92071428D01*
X133447676Y-92071428D02*
X133542914Y-92166666D01*
X133542914Y-92166666D02*
X133590533Y-92261904D01*
X133304819Y-90785714D02*
X133304819Y-91261904D01*
X133304819Y-91261904D02*
X133781009Y-91309523D01*
X133781009Y-91309523D02*
X133733390Y-91261904D01*
X133733390Y-91261904D02*
X133685771Y-91166666D01*
X133685771Y-91166666D02*
X133685771Y-90928571D01*
X133685771Y-90928571D02*
X133733390Y-90833333D01*
X133733390Y-90833333D02*
X133781009Y-90785714D01*
X133781009Y-90785714D02*
X133876247Y-90738095D01*
X133876247Y-90738095D02*
X134114342Y-90738095D01*
X134114342Y-90738095D02*
X134209580Y-90785714D01*
X134209580Y-90785714D02*
X134257200Y-90833333D01*
X134257200Y-90833333D02*
X134304819Y-90928571D01*
X134304819Y-90928571D02*
X134304819Y-91166666D01*
X134304819Y-91166666D02*
X134257200Y-91261904D01*
X134257200Y-91261904D02*
X134209580Y-91309523D01*
X137604819Y-88738094D02*
X136604819Y-88738094D01*
X136604819Y-88738094D02*
X136604819Y-88499999D01*
X136604819Y-88499999D02*
X136652438Y-88357142D01*
X136652438Y-88357142D02*
X136747676Y-88261904D01*
X136747676Y-88261904D02*
X136842914Y-88214285D01*
X136842914Y-88214285D02*
X137033390Y-88166666D01*
X137033390Y-88166666D02*
X137176247Y-88166666D01*
X137176247Y-88166666D02*
X137366723Y-88214285D01*
X137366723Y-88214285D02*
X137461961Y-88261904D01*
X137461961Y-88261904D02*
X137557200Y-88357142D01*
X137557200Y-88357142D02*
X137604819Y-88499999D01*
X137604819Y-88499999D02*
X137604819Y-88738094D01*
X136700057Y-87785713D02*
X136652438Y-87738094D01*
X136652438Y-87738094D02*
X136604819Y-87642856D01*
X136604819Y-87642856D02*
X136604819Y-87404761D01*
X136604819Y-87404761D02*
X136652438Y-87309523D01*
X136652438Y-87309523D02*
X136700057Y-87261904D01*
X136700057Y-87261904D02*
X136795295Y-87214285D01*
X136795295Y-87214285D02*
X136890533Y-87214285D01*
X136890533Y-87214285D02*
X137033390Y-87261904D01*
X137033390Y-87261904D02*
X137604819Y-87833332D01*
X137604819Y-87833332D02*
X137604819Y-87214285D01*
D12*
X114825595Y-91833919D02*
X114825595Y-92643442D01*
X114825595Y-92643442D02*
X114873214Y-92738680D01*
X114873214Y-92738680D02*
X114920833Y-92786300D01*
X114920833Y-92786300D02*
X115016071Y-92833919D01*
X115016071Y-92833919D02*
X115206547Y-92833919D01*
X115206547Y-92833919D02*
X115301785Y-92786300D01*
X115301785Y-92786300D02*
X115349404Y-92738680D01*
X115349404Y-92738680D02*
X115397023Y-92643442D01*
X115397023Y-92643442D02*
X115397023Y-91833919D01*
X116397023Y-92833919D02*
X115825595Y-92833919D01*
X116111309Y-92833919D02*
X116111309Y-91833919D01*
X116111309Y-91833919D02*
X116016071Y-91976776D01*
X116016071Y-91976776D02*
X115920833Y-92072014D01*
X115920833Y-92072014D02*
X115825595Y-92119633D01*
D11*
X127039580Y-97416666D02*
X127087200Y-97464285D01*
X127087200Y-97464285D02*
X127134819Y-97607142D01*
X127134819Y-97607142D02*
X127134819Y-97702380D01*
X127134819Y-97702380D02*
X127087200Y-97845237D01*
X127087200Y-97845237D02*
X126991961Y-97940475D01*
X126991961Y-97940475D02*
X126896723Y-97988094D01*
X126896723Y-97988094D02*
X126706247Y-98035713D01*
X126706247Y-98035713D02*
X126563390Y-98035713D01*
X126563390Y-98035713D02*
X126372914Y-97988094D01*
X126372914Y-97988094D02*
X126277676Y-97940475D01*
X126277676Y-97940475D02*
X126182438Y-97845237D01*
X126182438Y-97845237D02*
X126134819Y-97702380D01*
X126134819Y-97702380D02*
X126134819Y-97607142D01*
X126134819Y-97607142D02*
X126182438Y-97464285D01*
X126182438Y-97464285D02*
X126230057Y-97416666D01*
X126563390Y-96845237D02*
X126515771Y-96940475D01*
X126515771Y-96940475D02*
X126468152Y-96988094D01*
X126468152Y-96988094D02*
X126372914Y-97035713D01*
X126372914Y-97035713D02*
X126325295Y-97035713D01*
X126325295Y-97035713D02*
X126230057Y-96988094D01*
X126230057Y-96988094D02*
X126182438Y-96940475D01*
X126182438Y-96940475D02*
X126134819Y-96845237D01*
X126134819Y-96845237D02*
X126134819Y-96654761D01*
X126134819Y-96654761D02*
X126182438Y-96559523D01*
X126182438Y-96559523D02*
X126230057Y-96511904D01*
X126230057Y-96511904D02*
X126325295Y-96464285D01*
X126325295Y-96464285D02*
X126372914Y-96464285D01*
X126372914Y-96464285D02*
X126468152Y-96511904D01*
X126468152Y-96511904D02*
X126515771Y-96559523D01*
X126515771Y-96559523D02*
X126563390Y-96654761D01*
X126563390Y-96654761D02*
X126563390Y-96845237D01*
X126563390Y-96845237D02*
X126611009Y-96940475D01*
X126611009Y-96940475D02*
X126658628Y-96988094D01*
X126658628Y-96988094D02*
X126753866Y-97035713D01*
X126753866Y-97035713D02*
X126944342Y-97035713D01*
X126944342Y-97035713D02*
X127039580Y-96988094D01*
X127039580Y-96988094D02*
X127087200Y-96940475D01*
X127087200Y-96940475D02*
X127134819Y-96845237D01*
X127134819Y-96845237D02*
X127134819Y-96654761D01*
X127134819Y-96654761D02*
X127087200Y-96559523D01*
X127087200Y-96559523D02*
X127039580Y-96511904D01*
X127039580Y-96511904D02*
X126944342Y-96464285D01*
X126944342Y-96464285D02*
X126753866Y-96464285D01*
X126753866Y-96464285D02*
X126658628Y-96511904D01*
X126658628Y-96511904D02*
X126611009Y-96559523D01*
X126611009Y-96559523D02*
X126563390Y-96654761D01*
X119204819Y-80058333D02*
X119919104Y-80058333D01*
X119919104Y-80058333D02*
X120061961Y-80105952D01*
X120061961Y-80105952D02*
X120157200Y-80201190D01*
X120157200Y-80201190D02*
X120204819Y-80344047D01*
X120204819Y-80344047D02*
X120204819Y-80439285D01*
X119204819Y-79105952D02*
X119204819Y-79582142D01*
X119204819Y-79582142D02*
X119681009Y-79629761D01*
X119681009Y-79629761D02*
X119633390Y-79582142D01*
X119633390Y-79582142D02*
X119585771Y-79486904D01*
X119585771Y-79486904D02*
X119585771Y-79248809D01*
X119585771Y-79248809D02*
X119633390Y-79153571D01*
X119633390Y-79153571D02*
X119681009Y-79105952D01*
X119681009Y-79105952D02*
X119776247Y-79058333D01*
X119776247Y-79058333D02*
X120014342Y-79058333D01*
X120014342Y-79058333D02*
X120109580Y-79105952D01*
X120109580Y-79105952D02*
X120157200Y-79153571D01*
X120157200Y-79153571D02*
X120204819Y-79248809D01*
X120204819Y-79248809D02*
X120204819Y-79486904D01*
X120204819Y-79486904D02*
X120157200Y-79582142D01*
X120157200Y-79582142D02*
X120109580Y-79629761D01*
X148107142Y-87304819D02*
X147773809Y-86828628D01*
X147535714Y-87304819D02*
X147535714Y-86304819D01*
X147535714Y-86304819D02*
X147916666Y-86304819D01*
X147916666Y-86304819D02*
X148011904Y-86352438D01*
X148011904Y-86352438D02*
X148059523Y-86400057D01*
X148059523Y-86400057D02*
X148107142Y-86495295D01*
X148107142Y-86495295D02*
X148107142Y-86638152D01*
X148107142Y-86638152D02*
X148059523Y-86733390D01*
X148059523Y-86733390D02*
X148011904Y-86781009D01*
X148011904Y-86781009D02*
X147916666Y-86828628D01*
X147916666Y-86828628D02*
X147535714Y-86828628D01*
X149059523Y-87304819D02*
X148488095Y-87304819D01*
X148773809Y-87304819D02*
X148773809Y-86304819D01*
X148773809Y-86304819D02*
X148678571Y-86447676D01*
X148678571Y-86447676D02*
X148583333Y-86542914D01*
X148583333Y-86542914D02*
X148488095Y-86590533D01*
X149678571Y-86304819D02*
X149773809Y-86304819D01*
X149773809Y-86304819D02*
X149869047Y-86352438D01*
X149869047Y-86352438D02*
X149916666Y-86400057D01*
X149916666Y-86400057D02*
X149964285Y-86495295D01*
X149964285Y-86495295D02*
X150011904Y-86685771D01*
X150011904Y-86685771D02*
X150011904Y-86923866D01*
X150011904Y-86923866D02*
X149964285Y-87114342D01*
X149964285Y-87114342D02*
X149916666Y-87209580D01*
X149916666Y-87209580D02*
X149869047Y-87257200D01*
X149869047Y-87257200D02*
X149773809Y-87304819D01*
X149773809Y-87304819D02*
X149678571Y-87304819D01*
X149678571Y-87304819D02*
X149583333Y-87257200D01*
X149583333Y-87257200D02*
X149535714Y-87209580D01*
X149535714Y-87209580D02*
X149488095Y-87114342D01*
X149488095Y-87114342D02*
X149440476Y-86923866D01*
X149440476Y-86923866D02*
X149440476Y-86685771D01*
X149440476Y-86685771D02*
X149488095Y-86495295D01*
X149488095Y-86495295D02*
X149535714Y-86400057D01*
X149535714Y-86400057D02*
X149583333Y-86352438D01*
X149583333Y-86352438D02*
X149678571Y-86304819D01*
X139788095Y-80404819D02*
X139788095Y-81214342D01*
X139788095Y-81214342D02*
X139835714Y-81309580D01*
X139835714Y-81309580D02*
X139883333Y-81357200D01*
X139883333Y-81357200D02*
X139978571Y-81404819D01*
X139978571Y-81404819D02*
X140169047Y-81404819D01*
X140169047Y-81404819D02*
X140264285Y-81357200D01*
X140264285Y-81357200D02*
X140311904Y-81309580D01*
X140311904Y-81309580D02*
X140359523Y-81214342D01*
X140359523Y-81214342D02*
X140359523Y-80404819D01*
X140740476Y-80404819D02*
X141359523Y-80404819D01*
X141359523Y-80404819D02*
X141026190Y-80785771D01*
X141026190Y-80785771D02*
X141169047Y-80785771D01*
X141169047Y-80785771D02*
X141264285Y-80833390D01*
X141264285Y-80833390D02*
X141311904Y-80881009D01*
X141311904Y-80881009D02*
X141359523Y-80976247D01*
X141359523Y-80976247D02*
X141359523Y-81214342D01*
X141359523Y-81214342D02*
X141311904Y-81309580D01*
X141311904Y-81309580D02*
X141264285Y-81357200D01*
X141264285Y-81357200D02*
X141169047Y-81404819D01*
X141169047Y-81404819D02*
X140883333Y-81404819D01*
X140883333Y-81404819D02*
X140788095Y-81357200D01*
X140788095Y-81357200D02*
X140740476Y-81309580D01*
X124304819Y-86666666D02*
X123828628Y-86999999D01*
X124304819Y-87238094D02*
X123304819Y-87238094D01*
X123304819Y-87238094D02*
X123304819Y-86857142D01*
X123304819Y-86857142D02*
X123352438Y-86761904D01*
X123352438Y-86761904D02*
X123400057Y-86714285D01*
X123400057Y-86714285D02*
X123495295Y-86666666D01*
X123495295Y-86666666D02*
X123638152Y-86666666D01*
X123638152Y-86666666D02*
X123733390Y-86714285D01*
X123733390Y-86714285D02*
X123781009Y-86761904D01*
X123781009Y-86761904D02*
X123828628Y-86857142D01*
X123828628Y-86857142D02*
X123828628Y-87238094D01*
X123304819Y-85761904D02*
X123304819Y-86238094D01*
X123304819Y-86238094D02*
X123781009Y-86285713D01*
X123781009Y-86285713D02*
X123733390Y-86238094D01*
X123733390Y-86238094D02*
X123685771Y-86142856D01*
X123685771Y-86142856D02*
X123685771Y-85904761D01*
X123685771Y-85904761D02*
X123733390Y-85809523D01*
X123733390Y-85809523D02*
X123781009Y-85761904D01*
X123781009Y-85761904D02*
X123876247Y-85714285D01*
X123876247Y-85714285D02*
X124114342Y-85714285D01*
X124114342Y-85714285D02*
X124209580Y-85761904D01*
X124209580Y-85761904D02*
X124257200Y-85809523D01*
X124257200Y-85809523D02*
X124304819Y-85904761D01*
X124304819Y-85904761D02*
X124304819Y-86142856D01*
X124304819Y-86142856D02*
X124257200Y-86238094D01*
X124257200Y-86238094D02*
X124209580Y-86285713D01*
X134679580Y-97191666D02*
X134727200Y-97239285D01*
X134727200Y-97239285D02*
X134774819Y-97382142D01*
X134774819Y-97382142D02*
X134774819Y-97477380D01*
X134774819Y-97477380D02*
X134727200Y-97620237D01*
X134727200Y-97620237D02*
X134631961Y-97715475D01*
X134631961Y-97715475D02*
X134536723Y-97763094D01*
X134536723Y-97763094D02*
X134346247Y-97810713D01*
X134346247Y-97810713D02*
X134203390Y-97810713D01*
X134203390Y-97810713D02*
X134012914Y-97763094D01*
X134012914Y-97763094D02*
X133917676Y-97715475D01*
X133917676Y-97715475D02*
X133822438Y-97620237D01*
X133822438Y-97620237D02*
X133774819Y-97477380D01*
X133774819Y-97477380D02*
X133774819Y-97382142D01*
X133774819Y-97382142D02*
X133822438Y-97239285D01*
X133822438Y-97239285D02*
X133870057Y-97191666D01*
X134774819Y-96715475D02*
X134774819Y-96524999D01*
X134774819Y-96524999D02*
X134727200Y-96429761D01*
X134727200Y-96429761D02*
X134679580Y-96382142D01*
X134679580Y-96382142D02*
X134536723Y-96286904D01*
X134536723Y-96286904D02*
X134346247Y-96239285D01*
X134346247Y-96239285D02*
X133965295Y-96239285D01*
X133965295Y-96239285D02*
X133870057Y-96286904D01*
X133870057Y-96286904D02*
X133822438Y-96334523D01*
X133822438Y-96334523D02*
X133774819Y-96429761D01*
X133774819Y-96429761D02*
X133774819Y-96620237D01*
X133774819Y-96620237D02*
X133822438Y-96715475D01*
X133822438Y-96715475D02*
X133870057Y-96763094D01*
X133870057Y-96763094D02*
X133965295Y-96810713D01*
X133965295Y-96810713D02*
X134203390Y-96810713D01*
X134203390Y-96810713D02*
X134298628Y-96763094D01*
X134298628Y-96763094D02*
X134346247Y-96715475D01*
X134346247Y-96715475D02*
X134393866Y-96620237D01*
X134393866Y-96620237D02*
X134393866Y-96429761D01*
X134393866Y-96429761D02*
X134346247Y-96334523D01*
X134346247Y-96334523D02*
X134298628Y-96286904D01*
X134298628Y-96286904D02*
X134203390Y-96239285D01*
X104454819Y-100213094D02*
X103454819Y-100213094D01*
X103454819Y-100213094D02*
X103454819Y-99974999D01*
X103454819Y-99974999D02*
X103502438Y-99832142D01*
X103502438Y-99832142D02*
X103597676Y-99736904D01*
X103597676Y-99736904D02*
X103692914Y-99689285D01*
X103692914Y-99689285D02*
X103883390Y-99641666D01*
X103883390Y-99641666D02*
X104026247Y-99641666D01*
X104026247Y-99641666D02*
X104216723Y-99689285D01*
X104216723Y-99689285D02*
X104311961Y-99736904D01*
X104311961Y-99736904D02*
X104407200Y-99832142D01*
X104407200Y-99832142D02*
X104454819Y-99974999D01*
X104454819Y-99974999D02*
X104454819Y-100213094D01*
X104454819Y-98689285D02*
X104454819Y-99260713D01*
X104454819Y-98974999D02*
X103454819Y-98974999D01*
X103454819Y-98974999D02*
X103597676Y-99070237D01*
X103597676Y-99070237D02*
X103692914Y-99165475D01*
X103692914Y-99165475D02*
X103740533Y-99260713D01*
X126100000Y-71181009D02*
X126433333Y-71181009D01*
X126576190Y-71704819D02*
X126100000Y-71704819D01*
X126100000Y-71704819D02*
X126100000Y-70704819D01*
X126100000Y-70704819D02*
X126576190Y-70704819D01*
X127004762Y-71704819D02*
X127004762Y-70704819D01*
X127004762Y-70704819D02*
X127576190Y-71704819D01*
X127576190Y-71704819D02*
X127576190Y-70704819D01*
X128004762Y-71419104D02*
X128480952Y-71419104D01*
X127909524Y-71704819D02*
X128242857Y-70704819D01*
X128242857Y-70704819D02*
X128576190Y-71704819D01*
X129242857Y-71181009D02*
X129385714Y-71228628D01*
X129385714Y-71228628D02*
X129433333Y-71276247D01*
X129433333Y-71276247D02*
X129480952Y-71371485D01*
X129480952Y-71371485D02*
X129480952Y-71514342D01*
X129480952Y-71514342D02*
X129433333Y-71609580D01*
X129433333Y-71609580D02*
X129385714Y-71657200D01*
X129385714Y-71657200D02*
X129290476Y-71704819D01*
X129290476Y-71704819D02*
X128909524Y-71704819D01*
X128909524Y-71704819D02*
X128909524Y-70704819D01*
X128909524Y-70704819D02*
X129242857Y-70704819D01*
X129242857Y-70704819D02*
X129338095Y-70752438D01*
X129338095Y-70752438D02*
X129385714Y-70800057D01*
X129385714Y-70800057D02*
X129433333Y-70895295D01*
X129433333Y-70895295D02*
X129433333Y-70990533D01*
X129433333Y-70990533D02*
X129385714Y-71085771D01*
X129385714Y-71085771D02*
X129338095Y-71133390D01*
X129338095Y-71133390D02*
X129242857Y-71181009D01*
X129242857Y-71181009D02*
X128909524Y-71181009D01*
X130385714Y-71704819D02*
X129909524Y-71704819D01*
X129909524Y-71704819D02*
X129909524Y-70704819D01*
X130719048Y-71181009D02*
X131052381Y-71181009D01*
X131195238Y-71704819D02*
X130719048Y-71704819D01*
X130719048Y-71704819D02*
X130719048Y-70704819D01*
X130719048Y-70704819D02*
X131195238Y-70704819D01*
X132147619Y-71704819D02*
X131576191Y-71704819D01*
X131861905Y-71704819D02*
X131861905Y-70704819D01*
X131861905Y-70704819D02*
X131766667Y-70847676D01*
X131766667Y-70847676D02*
X131671429Y-70942914D01*
X131671429Y-70942914D02*
X131576191Y-70990533D01*
X143554819Y-86642857D02*
X143078628Y-86976190D01*
X143554819Y-87214285D02*
X142554819Y-87214285D01*
X142554819Y-87214285D02*
X142554819Y-86833333D01*
X142554819Y-86833333D02*
X142602438Y-86738095D01*
X142602438Y-86738095D02*
X142650057Y-86690476D01*
X142650057Y-86690476D02*
X142745295Y-86642857D01*
X142745295Y-86642857D02*
X142888152Y-86642857D01*
X142888152Y-86642857D02*
X142983390Y-86690476D01*
X142983390Y-86690476D02*
X143031009Y-86738095D01*
X143031009Y-86738095D02*
X143078628Y-86833333D01*
X143078628Y-86833333D02*
X143078628Y-87214285D01*
X143554819Y-85690476D02*
X143554819Y-86261904D01*
X143554819Y-85976190D02*
X142554819Y-85976190D01*
X142554819Y-85976190D02*
X142697676Y-86071428D01*
X142697676Y-86071428D02*
X142792914Y-86166666D01*
X142792914Y-86166666D02*
X142840533Y-86261904D01*
X142554819Y-85357142D02*
X142554819Y-84690476D01*
X142554819Y-84690476D02*
X143554819Y-85119047D01*
%TO.C,J6*%
D13*
X115200000Y-80992500D02*
X115950000Y-80992500D01*
X115950000Y-82792500D01*
X115200000Y-82792500D01*
X115200000Y-80992500D01*
X115200000Y-78492500D02*
X115950000Y-78492500D01*
X115950000Y-79492500D01*
X115200000Y-79492500D01*
X115200000Y-78492500D01*
X115200000Y-75192500D02*
X115950000Y-75192500D01*
X115950000Y-76992500D01*
X115200000Y-76992500D01*
X115200000Y-75192500D01*
X109990000Y-75182500D02*
X115960000Y-75182500D01*
X115960000Y-82802500D01*
X109990000Y-82802500D01*
X109990000Y-75182500D01*
X113700000Y-82792500D02*
X113700000Y-82042500D01*
X110750000Y-82042500D02*
X110750000Y-78992500D01*
X113700000Y-82042500D02*
X110750000Y-82042500D01*
X116250000Y-76142500D02*
X116250000Y-74892500D01*
X110750000Y-75942500D02*
X110750000Y-78992500D01*
X113700000Y-75942500D02*
X110750000Y-75942500D01*
X113700000Y-75192500D02*
X113700000Y-75942500D01*
X116250000Y-74892500D02*
X115000000Y-74892500D01*
%TO.C,J1*%
X101550000Y-91142500D02*
X100300000Y-91142500D01*
X99000000Y-91442500D02*
X99000000Y-92192500D01*
X99000000Y-92192500D02*
X96050000Y-92192500D01*
X96050000Y-92192500D02*
X96050000Y-95242500D01*
X101550000Y-92392500D02*
X101550000Y-91142500D01*
X99000000Y-98292500D02*
X96050000Y-98292500D01*
X96050000Y-98292500D02*
X96050000Y-95242500D01*
X99000000Y-99042500D02*
X99000000Y-98292500D01*
X95290000Y-91432500D02*
X101260000Y-91432500D01*
X101260000Y-99052500D01*
X95290000Y-99052500D01*
X95290000Y-91432500D01*
X100500000Y-91442500D02*
X101250000Y-91442500D01*
X101250000Y-93242500D01*
X100500000Y-93242500D01*
X100500000Y-91442500D01*
X100500000Y-94742500D02*
X101250000Y-94742500D01*
X101250000Y-95742500D01*
X100500000Y-95742500D01*
X100500000Y-94742500D01*
X100500000Y-97242500D02*
X101250000Y-97242500D01*
X101250000Y-99042500D01*
X100500000Y-99042500D01*
X100500000Y-97242500D01*
%TO.C,J2*%
X151200000Y-101357500D02*
X152450000Y-101357500D01*
X153750000Y-101057500D02*
X153750000Y-100307500D01*
X153750000Y-100307500D02*
X156700000Y-100307500D01*
X156700000Y-100307500D02*
X156700000Y-97257500D01*
X151200000Y-100107500D02*
X151200000Y-101357500D01*
X153750000Y-94207500D02*
X156700000Y-94207500D01*
X156700000Y-94207500D02*
X156700000Y-97257500D01*
X153750000Y-93457500D02*
X153750000Y-94207500D01*
X151490000Y-93447500D02*
X157460000Y-93447500D01*
X157460000Y-101067500D01*
X151490000Y-101067500D01*
X151490000Y-93447500D01*
X151500000Y-99257500D02*
X152250000Y-99257500D01*
X152250000Y-101057500D01*
X151500000Y-101057500D01*
X151500000Y-99257500D01*
X151500000Y-96757500D02*
X152250000Y-96757500D01*
X152250000Y-97757500D01*
X151500000Y-97757500D01*
X151500000Y-96757500D01*
X151500000Y-93457500D02*
X152250000Y-93457500D01*
X152250000Y-95257500D01*
X151500000Y-95257500D01*
X151500000Y-93457500D01*
%TO.C,C14*%
X136261252Y-70515000D02*
X135738748Y-70515000D01*
X136261252Y-71985000D02*
X135738748Y-71985000D01*
%TO.C,C7*%
X116735000Y-94738748D02*
X116735000Y-95261252D01*
X115265000Y-94738748D02*
X115265000Y-95261252D01*
%TO.C,R6*%
X121872500Y-94460436D02*
X121872500Y-94914564D01*
X120402500Y-94460436D02*
X120402500Y-94914564D01*
%TO.C,Q1*%
X139490000Y-84440000D02*
X141010000Y-84440000D01*
X139490000Y-85440000D02*
X139490000Y-84440000D01*
X139490000Y-87560000D02*
X139490000Y-86560000D01*
X141010000Y-84440000D02*
X141010000Y-84490000D01*
X141010000Y-85610000D02*
X141010000Y-86390000D01*
X141010000Y-87510000D02*
X141010000Y-87560000D01*
X141010000Y-87560000D02*
X139490000Y-87560000D01*
X141550000Y-86380000D02*
X141310000Y-86050000D01*
X141790000Y-86050000D01*
X141550000Y-86380000D01*
G36*
X141550000Y-86380000D02*
G01*
X141310000Y-86050000D01*
X141790000Y-86050000D01*
X141550000Y-86380000D01*
G37*
%TO.C,C4*%
X119765000Y-89011252D02*
X119765000Y-88488748D01*
X121235000Y-89011252D02*
X121235000Y-88488748D01*
%TO.C,D3*%
X145040000Y-89815000D02*
X145040000Y-92500000D01*
X146960000Y-89815000D02*
X145040000Y-89815000D01*
X146960000Y-92500000D02*
X146960000Y-89815000D01*
%TO.C,R16*%
X145265000Y-95977064D02*
X145265000Y-95522936D01*
X146735000Y-95977064D02*
X146735000Y-95522936D01*
%TO.C,C2*%
X99765000Y-85011252D02*
X99765000Y-84488748D01*
X101235000Y-85011252D02*
X101235000Y-84488748D01*
%TO.C,R11*%
X148522936Y-82765000D02*
X148977064Y-82765000D01*
X148522936Y-84235000D02*
X148977064Y-84235000D01*
%TO.C,C3*%
X109765000Y-88738748D02*
X109765000Y-89261252D01*
X111235000Y-88738748D02*
X111235000Y-89261252D01*
%TO.C,R7*%
X120402500Y-99460436D02*
X120402500Y-99914564D01*
X121872500Y-99460436D02*
X121872500Y-99914564D01*
%TO.C,C5*%
X129765000Y-88761252D02*
X129765000Y-88238748D01*
X131235000Y-88761252D02*
X131235000Y-88238748D01*
%TO.C,U2*%
D12*
X129400000Y-95325000D02*
X130000000Y-95325000D01*
X132700000Y-95325000D02*
X132100000Y-95325000D01*
X132700000Y-99750000D02*
X129400000Y-99750000D01*
D14*
X128700000Y-96225000D02*
G75*
G02*
X128400000Y-96225000I-150000J0D01*
G01*
X128400000Y-96225000D02*
G75*
G02*
X128700000Y-96225000I150000J0D01*
G01*
%TO.C,J8*%
D13*
X156415000Y-75290000D02*
X156415000Y-67560000D01*
X159175000Y-67560000D02*
X156415000Y-67560000D01*
X159175000Y-75290000D02*
X156415000Y-75290000D01*
X159175000Y-75290000D02*
X159175000Y-67560000D01*
X159175000Y-76560000D02*
X159175000Y-77940000D01*
X159175000Y-77940000D02*
X157795000Y-77940000D01*
%TO.C,C13*%
X136261252Y-66015000D02*
X135738748Y-66015000D01*
X136261252Y-67485000D02*
X135738748Y-67485000D01*
%TO.C,C12*%
X132985000Y-73988748D02*
X132985000Y-74511252D01*
X131515000Y-73988748D02*
X131515000Y-74511252D01*
%TO.C,R3*%
X104515000Y-82727064D02*
X104515000Y-82272936D01*
X105985000Y-82727064D02*
X105985000Y-82272936D01*
%TO.C,R8*%
X140265000Y-97227064D02*
X140265000Y-96772936D01*
X141735000Y-97227064D02*
X141735000Y-96772936D01*
%TO.C,BOOT1*%
X116850000Y-68400000D02*
X116850000Y-66400000D01*
X117900000Y-65100000D02*
X118350000Y-64650000D01*
X117900000Y-69700000D02*
X118350000Y-70150000D01*
X120850000Y-64650000D02*
X118350000Y-64650000D01*
X120850000Y-70150000D02*
X118350000Y-70150000D01*
X121300000Y-65100000D02*
X120850000Y-64650000D01*
X121300000Y-69700000D02*
X120850000Y-70150000D01*
X122350000Y-68400000D02*
X122350000Y-66400000D01*
%TO.C,C6*%
X110265000Y-96688748D02*
X110265000Y-97211252D01*
X111735000Y-96688748D02*
X111735000Y-97211252D01*
%TO.C,R12*%
X128272936Y-73765000D02*
X128727064Y-73765000D01*
X128272936Y-75235000D02*
X128727064Y-75235000D01*
%TO.C,R13*%
X131265000Y-83272936D02*
X131265000Y-83727064D01*
X132735000Y-83272936D02*
X132735000Y-83727064D01*
%TO.C,R2*%
X104515000Y-87477064D02*
X104515000Y-87022936D01*
X105985000Y-87477064D02*
X105985000Y-87022936D01*
%TO.C,J7*%
X94790000Y-71490000D02*
X94790000Y-80210000D01*
X96090000Y-69790000D02*
X94790000Y-71490000D01*
X98910000Y-69790000D02*
X96090000Y-69790000D01*
X98910000Y-69790000D02*
X100210000Y-71490000D01*
X100210000Y-71490000D02*
X100210000Y-80210000D01*
X100210000Y-80210000D02*
X94790000Y-80210000D01*
%TO.C,C10*%
X140265000Y-100488748D02*
X140265000Y-101011252D01*
X141735000Y-100488748D02*
X141735000Y-101011252D01*
%TO.C,R14*%
X105127500Y-93239564D02*
X105127500Y-92785436D01*
X106597500Y-93239564D02*
X106597500Y-92785436D01*
%TO.C,R4*%
X124765000Y-91227064D02*
X124765000Y-90772936D01*
X126235000Y-91227064D02*
X126235000Y-90772936D01*
%TO.C,C1*%
X94765000Y-85011252D02*
X94765000Y-84488748D01*
X96235000Y-85011252D02*
X96235000Y-84488748D01*
%TO.C,R1*%
X131265000Y-79022936D02*
X131265000Y-79477064D01*
X132735000Y-79022936D02*
X132735000Y-79477064D01*
%TO.C,J3*%
X156900000Y-81830000D02*
X155200000Y-81830000D01*
X156900000Y-91170000D02*
X155200000Y-91170000D01*
%TO.C,R9*%
X140127500Y-93289564D02*
X140127500Y-92835436D01*
X141597500Y-93289564D02*
X141597500Y-92835436D01*
%TO.C,R15*%
X134765000Y-92227064D02*
X134765000Y-91772936D01*
X136235000Y-92227064D02*
X136235000Y-91772936D01*
%TO.C,D2*%
X134540000Y-86315000D02*
X134540000Y-89000000D01*
X136460000Y-86315000D02*
X134540000Y-86315000D01*
X136460000Y-89000000D02*
X136460000Y-86315000D01*
%TO.C,U1*%
D12*
X113937500Y-86812500D02*
X114537500Y-86812500D01*
X117237500Y-86812500D02*
X116637500Y-86812500D01*
X117237500Y-91237500D02*
X113937500Y-91237500D01*
D14*
X113237500Y-87712500D02*
G75*
G02*
X112937500Y-87712500I-150000J0D01*
G01*
X112937500Y-87712500D02*
G75*
G02*
X113237500Y-87712500I150000J0D01*
G01*
%TO.C,C8*%
D13*
X124265000Y-96988748D02*
X124265000Y-97511252D01*
X125735000Y-96988748D02*
X125735000Y-97511252D01*
%TO.C,J5*%
X121140000Y-82690000D02*
X121140000Y-76760000D01*
X124010000Y-75490000D02*
X125610000Y-75490000D01*
X124010000Y-83960000D02*
X125610000Y-83960000D01*
X125610000Y-75490000D02*
X125610000Y-77290000D01*
X125610000Y-82160000D02*
X126550000Y-82160000D01*
X125610000Y-83960000D02*
X125610000Y-82160000D01*
%TO.C,R10*%
X148522936Y-87765000D02*
X148977064Y-87765000D01*
X148522936Y-89235000D02*
X148977064Y-89235000D01*
%TO.C,U3*%
X138700000Y-63850000D02*
X154300000Y-63850000D01*
X138700000Y-79450000D02*
X138700000Y-63850000D01*
X154300000Y-63850000D02*
X154300000Y-79450000D01*
X154300000Y-79450000D02*
X138700000Y-79450000D01*
X138525000Y-65700000D02*
X138189000Y-65940000D01*
X138189000Y-65460000D01*
X138525000Y-65700000D01*
G36*
X138525000Y-65700000D02*
G01*
X138189000Y-65940000D01*
X138189000Y-65460000D01*
X138525000Y-65700000D01*
G37*
%TO.C,R5*%
X124765000Y-86727064D02*
X124765000Y-86272936D01*
X126235000Y-86727064D02*
X126235000Y-86272936D01*
%TO.C,C9*%
X135265000Y-97286252D02*
X135265000Y-96763748D01*
X136735000Y-97286252D02*
X136735000Y-96763748D01*
%TO.C,D1*%
X104790000Y-98475000D02*
X104790000Y-101160000D01*
X104790000Y-101160000D02*
X106710000Y-101160000D01*
X106710000Y-101160000D02*
X106710000Y-98475000D01*
%TO.C,ENABLE1*%
X126350000Y-68500000D02*
X126350000Y-66500000D01*
X127400000Y-65200000D02*
X127850000Y-64750000D01*
X127400000Y-69800000D02*
X127850000Y-70250000D01*
X130350000Y-64750000D02*
X127850000Y-64750000D01*
X130350000Y-70250000D02*
X127850000Y-70250000D01*
X130800000Y-65200000D02*
X130350000Y-64750000D01*
X130800000Y-69800000D02*
X130350000Y-70250000D01*
X131850000Y-68500000D02*
X131850000Y-66500000D01*
%TO.C,R17*%
X144015000Y-86227064D02*
X144015000Y-85772936D01*
X145485000Y-86227064D02*
X145485000Y-85772936D01*
D15*
%TO.C,G\u002A\u002A\u002A*%
G36*
X99589494Y-65604259D02*
G01*
X99968932Y-65607418D01*
X100675245Y-66458532D01*
X101381558Y-67309646D01*
X101384628Y-66455541D01*
X101387699Y-65601436D01*
X101836277Y-65601436D01*
X102284855Y-65601436D01*
X102284855Y-67216603D01*
X102284855Y-68831770D01*
X101910646Y-68831770D01*
X101536437Y-68831770D01*
X100824895Y-67974624D01*
X100113353Y-67117478D01*
X100110283Y-67974624D01*
X100107212Y-68831770D01*
X99658634Y-68831770D01*
X99210056Y-68831770D01*
X99210056Y-67216435D01*
X99210056Y-65601100D01*
X99589494Y-65604259D01*
G37*
G36*
X107338486Y-65309863D02*
G01*
X107381901Y-65330064D01*
X107429864Y-65359344D01*
X107475872Y-65394111D01*
X107482160Y-65399539D01*
X107506738Y-65423442D01*
X107538595Y-65457639D01*
X107574778Y-65498555D01*
X107612334Y-65542618D01*
X107648309Y-65586253D01*
X107679750Y-65625885D01*
X107703704Y-65657942D01*
X107717218Y-65678848D01*
X107718191Y-65685185D01*
X107704343Y-65679375D01*
X107675077Y-65663757D01*
X107635358Y-65641051D01*
X107609337Y-65625612D01*
X107528978Y-65575469D01*
X107468440Y-65533279D01*
X107425631Y-65497385D01*
X107398459Y-65466128D01*
X107390162Y-65451883D01*
X107373032Y-65422065D01*
X107347596Y-65383958D01*
X107329449Y-65359161D01*
X107306260Y-65326847D01*
X107297875Y-65309040D01*
X107302988Y-65302556D01*
X107306122Y-65302331D01*
X107338486Y-65309863D01*
G37*
G36*
X107611178Y-66365713D02*
G01*
X107628517Y-66378266D01*
X107667109Y-66401328D01*
X107719590Y-66419721D01*
X107788653Y-66434052D01*
X107876988Y-66444927D01*
X107949905Y-66450687D01*
X108045149Y-66458543D01*
X108120504Y-66468766D01*
X108179970Y-66482387D01*
X108227549Y-66500433D01*
X108267243Y-66523933D01*
X108283457Y-66536445D01*
X108325121Y-66581175D01*
X108356490Y-66634761D01*
X108372970Y-66688635D01*
X108374371Y-66706051D01*
X108374634Y-66739871D01*
X108342291Y-66701434D01*
X108310734Y-66671755D01*
X108275104Y-66648646D01*
X108269628Y-66646149D01*
X108233244Y-66636090D01*
X108204625Y-66637296D01*
X108189040Y-66648569D01*
X108189621Y-66664340D01*
X108210474Y-66734967D01*
X108213848Y-66799301D01*
X108200390Y-66854023D01*
X108170748Y-66895816D01*
X108140601Y-66915654D01*
X108101346Y-66929810D01*
X108077584Y-66927289D01*
X108066093Y-66906325D01*
X108063565Y-66873419D01*
X108053060Y-66804100D01*
X108021090Y-66738022D01*
X107966975Y-66674306D01*
X107890032Y-66612077D01*
X107830994Y-66574112D01*
X107748705Y-66521791D01*
X107683835Y-66473664D01*
X107638298Y-66431241D01*
X107620075Y-66407607D01*
X107602010Y-66375675D01*
X107598988Y-66361904D01*
X107611178Y-66365713D01*
G37*
G36*
X115230207Y-67135677D02*
G01*
X115230276Y-67326927D01*
X115230458Y-67512557D01*
X115230746Y-67691049D01*
X115231133Y-67860890D01*
X115231610Y-68020563D01*
X115232171Y-68168554D01*
X115232809Y-68303348D01*
X115233516Y-68423428D01*
X115234286Y-68527280D01*
X115235110Y-68613388D01*
X115235982Y-68680238D01*
X115236894Y-68726313D01*
X115237840Y-68750100D01*
X115237919Y-68751012D01*
X115245546Y-68831770D01*
X114819087Y-68831770D01*
X114392627Y-68831770D01*
X114392627Y-67979919D01*
X114392532Y-67807495D01*
X114392232Y-67657842D01*
X114391709Y-67529806D01*
X114390943Y-67422232D01*
X114389917Y-67333964D01*
X114388610Y-67263846D01*
X114387004Y-67210723D01*
X114385080Y-67173440D01*
X114382819Y-67150841D01*
X114380201Y-67141771D01*
X114378847Y-67141849D01*
X114370478Y-67154260D01*
X114350924Y-67185484D01*
X114321242Y-67233772D01*
X114282489Y-67297380D01*
X114235723Y-67374558D01*
X114182001Y-67463562D01*
X114122382Y-67562644D01*
X114057923Y-67670056D01*
X113989681Y-67784054D01*
X113962704Y-67829192D01*
X113560342Y-68502755D01*
X113351355Y-68505539D01*
X113142368Y-68508323D01*
X112735585Y-67843894D01*
X112328803Y-67179465D01*
X112325730Y-68005618D01*
X112322657Y-68831770D01*
X111898009Y-68831770D01*
X111473362Y-68831770D01*
X111473362Y-67216435D01*
X111473362Y-65601100D01*
X111852167Y-65604259D01*
X112230973Y-65607418D01*
X112794348Y-66531540D01*
X112877042Y-66667005D01*
X112956263Y-66796429D01*
X113031122Y-66918379D01*
X113100727Y-67031420D01*
X113164189Y-67134118D01*
X113220617Y-67225039D01*
X113269121Y-67302748D01*
X113308811Y-67365811D01*
X113338796Y-67412794D01*
X113358187Y-67442261D01*
X113366092Y-67452780D01*
X113366168Y-67452784D01*
X113373395Y-67442306D01*
X113391953Y-67412713D01*
X113420963Y-67365466D01*
X113459542Y-67302027D01*
X113506812Y-67223857D01*
X113561891Y-67132419D01*
X113623898Y-67029174D01*
X113691954Y-66915584D01*
X113765178Y-66793111D01*
X113842688Y-66663216D01*
X113922832Y-66528662D01*
X114471052Y-65607418D01*
X114850587Y-65604259D01*
X115230122Y-65601100D01*
X115230207Y-67135677D01*
G37*
G36*
X106924983Y-66580594D02*
G01*
X106875683Y-66637502D01*
X106848866Y-66700524D01*
X106844535Y-66767571D01*
X106862695Y-66836554D01*
X106903349Y-66905384D01*
X106924302Y-66930626D01*
X106979530Y-66981311D01*
X107048643Y-67024829D01*
X107134181Y-67062316D01*
X107238682Y-67094904D01*
X107350171Y-67120804D01*
X107510455Y-67158093D01*
X107650863Y-67200921D01*
X107775115Y-67250874D01*
X107886934Y-67309537D01*
X107990042Y-67378494D01*
X108031987Y-67411186D01*
X108066213Y-67438997D01*
X107984131Y-67439256D01*
X107934205Y-67441660D01*
X107886955Y-67447648D01*
X107857331Y-67454563D01*
X107812614Y-67469609D01*
X107894451Y-67510550D01*
X107990588Y-67571436D01*
X108070271Y-67648855D01*
X108131816Y-67740742D01*
X108173541Y-67845032D01*
X108176831Y-67857106D01*
X108186629Y-67904298D01*
X108192486Y-67952402D01*
X108194652Y-67997730D01*
X108193378Y-68036594D01*
X108188915Y-68065305D01*
X108181513Y-68080173D01*
X108171424Y-68077512D01*
X108162825Y-68063086D01*
X108133496Y-68016501D01*
X108090335Y-67969117D01*
X108041446Y-67929694D01*
X108036507Y-67926498D01*
X108008051Y-67909747D01*
X107989304Y-67900989D01*
X107985713Y-67900690D01*
X107987442Y-67913004D01*
X107995508Y-67941986D01*
X108008248Y-67981751D01*
X108010463Y-67988294D01*
X108033974Y-68090471D01*
X108036660Y-68193594D01*
X108019419Y-68293672D01*
X107983153Y-68386717D01*
X107928761Y-68468739D01*
X107893780Y-68505553D01*
X107865023Y-68532280D01*
X107869962Y-68489978D01*
X107868372Y-68436950D01*
X107854848Y-68379361D01*
X107832600Y-68329494D01*
X107825164Y-68318481D01*
X107803594Y-68289884D01*
X107795288Y-68345269D01*
X107778305Y-68408364D01*
X107747214Y-68478921D01*
X107706280Y-68549072D01*
X107659767Y-68610946D01*
X107639661Y-68632506D01*
X107576479Y-68685055D01*
X107502652Y-68730666D01*
X107428763Y-68762939D01*
X107418655Y-68766137D01*
X107389902Y-68774726D01*
X107417144Y-68730648D01*
X107477792Y-68615001D01*
X107520568Y-68495004D01*
X107544587Y-68374737D01*
X107548963Y-68258279D01*
X107538223Y-68172962D01*
X107503950Y-68064943D01*
X107448657Y-67963719D01*
X107375120Y-67873573D01*
X107303838Y-67811429D01*
X107255981Y-67775924D01*
X107353157Y-67782168D01*
X107422831Y-67790305D01*
X107482462Y-67804283D01*
X107505701Y-67812904D01*
X107536928Y-67824932D01*
X107557007Y-67829235D01*
X107561068Y-67827213D01*
X107551712Y-67810880D01*
X107526759Y-67785553D01*
X107490882Y-67754958D01*
X107448755Y-67722816D01*
X107405051Y-67692851D01*
X107364442Y-67668786D01*
X107358107Y-67665511D01*
X107318437Y-67647362D01*
X107262461Y-67624177D01*
X107196568Y-67598488D01*
X107127152Y-67572831D01*
X107100447Y-67563360D01*
X107004408Y-67528829D01*
X106927096Y-67498611D01*
X106864189Y-67470598D01*
X106811364Y-67442684D01*
X106764297Y-67412759D01*
X106718665Y-67378717D01*
X106713832Y-67374859D01*
X106622445Y-67290325D01*
X106550769Y-67200050D01*
X106499585Y-67105888D01*
X106469677Y-67009698D01*
X106461825Y-66913335D01*
X106476813Y-66818656D01*
X106477928Y-66814831D01*
X106513628Y-66734844D01*
X106568621Y-66667793D01*
X106641487Y-66614635D01*
X106730807Y-66576323D01*
X106835161Y-66553815D01*
X106871213Y-66550128D01*
X106968199Y-66542649D01*
X106924983Y-66580594D01*
G37*
G36*
X106913530Y-67733283D02*
G01*
X106950892Y-67752710D01*
X106996657Y-67780046D01*
X107023948Y-67797710D01*
X107126628Y-67879639D01*
X107211135Y-67976412D01*
X107270551Y-68074956D01*
X107290427Y-68116210D01*
X107303422Y-68148458D01*
X107310996Y-68178925D01*
X107314610Y-68214834D01*
X107315725Y-68263411D01*
X107315802Y-68298743D01*
X107315254Y-68359271D01*
X107312878Y-68402575D01*
X107307575Y-68435349D01*
X107298247Y-68464286D01*
X107283795Y-68496079D01*
X107283230Y-68497230D01*
X107228251Y-68583255D01*
X107156846Y-68653061D01*
X107070885Y-68705851D01*
X106972238Y-68740829D01*
X106862774Y-68757196D01*
X106744364Y-68754158D01*
X106695954Y-68747505D01*
X106659464Y-68739842D01*
X106608266Y-68727121D01*
X106550491Y-68711422D01*
X106516491Y-68701570D01*
X106420266Y-68674531D01*
X106340737Y-68656113D01*
X106272621Y-68645469D01*
X106210634Y-68641756D01*
X106154649Y-68643723D01*
X106111998Y-68646187D01*
X106080474Y-68646556D01*
X106065913Y-68644795D01*
X106065543Y-68644258D01*
X106074866Y-68619459D01*
X106098931Y-68588914D01*
X106131886Y-68559054D01*
X106160142Y-68540297D01*
X106214728Y-68510279D01*
X106179019Y-68495600D01*
X106121988Y-68480672D01*
X106052409Y-68475028D01*
X105979800Y-68478698D01*
X105913679Y-68491714D01*
X105904138Y-68494733D01*
X105866585Y-68506745D01*
X105839392Y-68514186D01*
X105829027Y-68515493D01*
X105829456Y-68500754D01*
X105841399Y-68473798D01*
X105861390Y-68441069D01*
X105885962Y-68409008D01*
X105886871Y-68407968D01*
X105908161Y-68381945D01*
X105919821Y-68364140D01*
X105920574Y-68360008D01*
X105904129Y-68357755D01*
X105871629Y-68361819D01*
X105829622Y-68370663D01*
X105784654Y-68382749D01*
X105743274Y-68396539D01*
X105717101Y-68407791D01*
X105643669Y-68454163D01*
X105582609Y-68513877D01*
X105531289Y-68590205D01*
X105487079Y-68686416D01*
X105481862Y-68700164D01*
X105475095Y-68715153D01*
X105469679Y-68714451D01*
X105463510Y-68695220D01*
X105457071Y-68666674D01*
X105442538Y-68550669D01*
X105448720Y-68438886D01*
X105474474Y-68333934D01*
X105518654Y-68238421D01*
X105580115Y-68154955D01*
X105657714Y-68086146D01*
X105730545Y-68043450D01*
X105771903Y-68026236D01*
X105811334Y-68016658D01*
X105858914Y-68012780D01*
X105892262Y-68012375D01*
X105946130Y-68013820D01*
X105986245Y-68019399D01*
X106022702Y-68031287D01*
X106058932Y-68048268D01*
X106129688Y-68084008D01*
X106051726Y-68091802D01*
X105957503Y-68110500D01*
X105875753Y-68145692D01*
X105810161Y-68195781D01*
X105809102Y-68196860D01*
X105764604Y-68242430D01*
X105834315Y-68218747D01*
X105907872Y-68202576D01*
X105997258Y-68198987D01*
X106103659Y-68208058D01*
X106228262Y-68229868D01*
X106321072Y-68251287D01*
X106394821Y-68269136D01*
X106451806Y-68281280D01*
X106498269Y-68288591D01*
X106540451Y-68291943D01*
X106584596Y-68292211D01*
X106608304Y-68291501D01*
X106669109Y-68287776D01*
X106714440Y-68280809D01*
X106752700Y-68268889D01*
X106780009Y-68256567D01*
X106816425Y-68239855D01*
X106837200Y-68234493D01*
X106847194Y-68239494D01*
X106848713Y-68242591D01*
X106855020Y-68280983D01*
X106851914Y-68329591D01*
X106840310Y-68377046D01*
X106837283Y-68384841D01*
X106819386Y-68427675D01*
X106852238Y-68406836D01*
X106916562Y-68355799D01*
X106965387Y-68292021D01*
X106983670Y-68257908D01*
X107000423Y-68219380D01*
X107010129Y-68183769D01*
X107014519Y-68141911D01*
X107015347Y-68089990D01*
X107007455Y-67992945D01*
X106982951Y-67905744D01*
X106939347Y-67820575D01*
X106920200Y-67791377D01*
X106898474Y-67758883D01*
X106883580Y-67734869D01*
X106879109Y-67725666D01*
X106888343Y-67723642D01*
X106913530Y-67733283D01*
G37*
G36*
X104414483Y-65534596D02*
G01*
X104523466Y-65540867D01*
X104611652Y-65549086D01*
X104682152Y-65560157D01*
X104738073Y-65574981D01*
X104782525Y-65594461D01*
X104818617Y-65619499D01*
X104849459Y-65650998D01*
X104859667Y-65663818D01*
X104921045Y-65764135D01*
X104962725Y-65877840D01*
X104984556Y-66004518D01*
X104984619Y-66005228D01*
X104989240Y-66047227D01*
X104994363Y-66077941D01*
X104998972Y-66091473D01*
X104999494Y-66091662D01*
X105012567Y-66085538D01*
X105039638Y-66069841D01*
X105072246Y-66049607D01*
X105153499Y-66005380D01*
X105246024Y-65967199D01*
X105339390Y-65938950D01*
X105401945Y-65926850D01*
X105446146Y-65921418D01*
X105474714Y-65920931D01*
X105495699Y-65926899D01*
X105517146Y-65940836D01*
X105530145Y-65950939D01*
X105556505Y-65973528D01*
X105572639Y-65990848D01*
X105575011Y-65995739D01*
X105570516Y-66011317D01*
X105559040Y-66040675D01*
X105550358Y-66060910D01*
X105537567Y-66095923D01*
X105525370Y-66139457D01*
X105515094Y-66185014D01*
X105508065Y-66226099D01*
X105505611Y-66256215D01*
X105508017Y-66268247D01*
X105520601Y-66266095D01*
X105543789Y-66253204D01*
X105547403Y-66250755D01*
X105578156Y-66231789D01*
X105604921Y-66218893D01*
X105613212Y-66215860D01*
X105618802Y-66214341D01*
X105620036Y-66215935D01*
X105615262Y-66222238D01*
X105602823Y-66234850D01*
X105581065Y-66255367D01*
X105548335Y-66285388D01*
X105502976Y-66326511D01*
X105443335Y-66380333D01*
X105367756Y-66448452D01*
X105359655Y-66455754D01*
X105126353Y-66666049D01*
X105086910Y-66618813D01*
X105015079Y-66545780D01*
X104925880Y-66475392D01*
X104825836Y-66411665D01*
X104721467Y-66358612D01*
X104619295Y-66320249D01*
X104587964Y-66311690D01*
X104509232Y-66298290D01*
X104416155Y-66291677D01*
X104317305Y-66291749D01*
X104221252Y-66298401D01*
X104136566Y-66311530D01*
X104111838Y-66317463D01*
X103974758Y-66365829D01*
X103851844Y-66432664D01*
X103744030Y-66516498D01*
X103652248Y-66615865D01*
X103577431Y-66729295D01*
X103520513Y-66855322D01*
X103482426Y-66992477D01*
X103464103Y-67139292D01*
X103466478Y-67294300D01*
X103469700Y-67327816D01*
X103496915Y-67480567D01*
X103543059Y-67619487D01*
X103607507Y-67743819D01*
X103689633Y-67852809D01*
X103788812Y-67945701D01*
X103904419Y-68021738D01*
X104035828Y-68080165D01*
X104111838Y-68103779D01*
X104190695Y-68119090D01*
X104283838Y-68127960D01*
X104382698Y-68130286D01*
X104478704Y-68125962D01*
X104563285Y-68114886D01*
X104587964Y-68109552D01*
X104688364Y-68076640D01*
X104793076Y-68027652D01*
X104895540Y-67966624D01*
X104989194Y-67897594D01*
X105067476Y-67824598D01*
X105086910Y-67802614D01*
X105126353Y-67755565D01*
X105301583Y-67913702D01*
X105476813Y-68071839D01*
X105455689Y-68101852D01*
X105397974Y-68203310D01*
X105355919Y-68320051D01*
X105330743Y-68448280D01*
X105325253Y-68508571D01*
X105317780Y-68634028D01*
X105196996Y-68695152D01*
X105039564Y-68765390D01*
X104876843Y-68818737D01*
X104704975Y-68856084D01*
X104520103Y-68878320D01*
X104372609Y-68885573D01*
X104297060Y-68886491D01*
X104222236Y-68885982D01*
X104154665Y-68884187D01*
X104100876Y-68881249D01*
X104079486Y-68879191D01*
X103871261Y-68843173D01*
X103673566Y-68787929D01*
X103487715Y-68714217D01*
X103315026Y-68622797D01*
X103156814Y-68514426D01*
X103014396Y-68389862D01*
X102889087Y-68249863D01*
X102818716Y-68152875D01*
X102724091Y-67994474D01*
X102650426Y-67833779D01*
X102596744Y-67667450D01*
X102562071Y-67492144D01*
X102545429Y-67304520D01*
X102543560Y-67210621D01*
X102552020Y-67016014D01*
X102578051Y-66835304D01*
X102622630Y-66665149D01*
X102686731Y-66502209D01*
X102771330Y-66343141D01*
X102818716Y-66268367D01*
X102932526Y-66118682D01*
X103063736Y-65984355D01*
X103210834Y-65866081D01*
X103372311Y-65764555D01*
X103546659Y-65680470D01*
X103732368Y-65614520D01*
X103927928Y-65567400D01*
X104131831Y-65539803D01*
X104342566Y-65532424D01*
X104414483Y-65534596D01*
G37*
G36*
X110073395Y-65536673D02*
G01*
X110181228Y-65539634D01*
X110248696Y-65544962D01*
X110332173Y-65555384D01*
X110424572Y-65569733D01*
X110518807Y-65586842D01*
X110607793Y-65605544D01*
X110663858Y-65619138D01*
X110733661Y-65639018D01*
X110807326Y-65662965D01*
X110881350Y-65689512D01*
X110952225Y-65717191D01*
X111016446Y-65744536D01*
X111070507Y-65770079D01*
X111110902Y-65792353D01*
X111134127Y-65809891D01*
X111138365Y-65817731D01*
X111134022Y-65830774D01*
X111121907Y-65862561D01*
X111103388Y-65909720D01*
X111079836Y-65968882D01*
X111052618Y-66036677D01*
X111023104Y-66109735D01*
X110992664Y-66184685D01*
X110962666Y-66258158D01*
X110934479Y-66326782D01*
X110909473Y-66387189D01*
X110889017Y-66436008D01*
X110874480Y-66469868D01*
X110867231Y-66485400D01*
X110866942Y-66485839D01*
X110855284Y-66483087D01*
X110826689Y-66471747D01*
X110785721Y-66453726D01*
X110746488Y-66435489D01*
X110662913Y-66396714D01*
X110592551Y-66366608D01*
X110527647Y-66342310D01*
X110460446Y-66320960D01*
X110383193Y-66299698D01*
X110366855Y-66295462D01*
X110226288Y-66265494D01*
X110087385Y-66247725D01*
X109953675Y-66242074D01*
X109828692Y-66248458D01*
X109715967Y-66266796D01*
X109619031Y-66297005D01*
X109583018Y-66313658D01*
X109531345Y-66351863D01*
X109487739Y-66405044D01*
X109459283Y-66464272D01*
X109456847Y-66472782D01*
X109448024Y-66542768D01*
X109460826Y-66603423D01*
X109495634Y-66656424D01*
X109499405Y-66660409D01*
X109528090Y-66687101D01*
X109560867Y-66711109D01*
X109600183Y-66733306D01*
X109648481Y-66754561D01*
X109708208Y-66775744D01*
X109781807Y-66797728D01*
X109871725Y-66821382D01*
X109980405Y-66847578D01*
X110104303Y-66875845D01*
X110263814Y-66913011D01*
X110402328Y-66948598D01*
X110522640Y-66983594D01*
X110627543Y-67018985D01*
X110719832Y-67055759D01*
X110802299Y-67094904D01*
X110877739Y-67137405D01*
X110918968Y-67163712D01*
X111030353Y-67251094D01*
X111122151Y-67351736D01*
X111193841Y-67464923D01*
X111244901Y-67589941D01*
X111254494Y-67623386D01*
X111268485Y-67699988D01*
X111275420Y-67791048D01*
X111275415Y-67888197D01*
X111268584Y-67983065D01*
X111255042Y-68067283D01*
X111248006Y-68095295D01*
X111196710Y-68232285D01*
X111124309Y-68359860D01*
X111032361Y-68476275D01*
X110922428Y-68579782D01*
X110796070Y-68668637D01*
X110681426Y-68729280D01*
X110542460Y-68785265D01*
X110396413Y-68828158D01*
X110239572Y-68858695D01*
X110068224Y-68877612D01*
X109894088Y-68885395D01*
X109820633Y-68886439D01*
X109752725Y-68886847D01*
X109695085Y-68886636D01*
X109652433Y-68885819D01*
X109630875Y-68884590D01*
X109600252Y-68881061D01*
X109553860Y-68875739D01*
X109499705Y-68869541D01*
X109475341Y-68866757D01*
X109338744Y-68846944D01*
X109198368Y-68818838D01*
X109058404Y-68783766D01*
X108923049Y-68743056D01*
X108796495Y-68698036D01*
X108682939Y-68650035D01*
X108586573Y-68600380D01*
X108538372Y-68570086D01*
X108484920Y-68533310D01*
X108628456Y-68212945D01*
X108665171Y-68131290D01*
X108698940Y-68056742D01*
X108728475Y-67992100D01*
X108752489Y-67940162D01*
X108769694Y-67903726D01*
X108778803Y-67885590D01*
X108779712Y-67884189D01*
X108792528Y-67886318D01*
X108822724Y-67897749D01*
X108866411Y-67916825D01*
X108919697Y-67941891D01*
X108948932Y-67956255D01*
X109129308Y-68036231D01*
X109314320Y-68099440D01*
X109500321Y-68145109D01*
X109683665Y-68172464D01*
X109860705Y-68180732D01*
X109978851Y-68174756D01*
X110097208Y-68158537D01*
X110193655Y-68134122D01*
X110268926Y-68101045D01*
X110323756Y-68058841D01*
X110358879Y-68007044D01*
X110375031Y-67945190D01*
X110376315Y-67923004D01*
X110371886Y-67875180D01*
X110356053Y-67832124D01*
X110327285Y-67792976D01*
X110284051Y-67756875D01*
X110224819Y-67722960D01*
X110148058Y-67690369D01*
X110052236Y-67658243D01*
X109935822Y-67625721D01*
X109797284Y-67591941D01*
X109780428Y-67588066D01*
X109627432Y-67552250D01*
X109495364Y-67519417D01*
X109381534Y-67488715D01*
X109283251Y-67459296D01*
X109197823Y-67430307D01*
X109122561Y-67400899D01*
X109054773Y-67370221D01*
X108997612Y-67340648D01*
X108870027Y-67259410D01*
X108763715Y-67167247D01*
X108678524Y-67063885D01*
X108614300Y-66949053D01*
X108570891Y-66822479D01*
X108548145Y-66683890D01*
X108545792Y-66535343D01*
X108553834Y-66433414D01*
X108568290Y-66346704D01*
X108591111Y-66266923D01*
X108624251Y-66185782D01*
X108631982Y-66169303D01*
X108659133Y-66117374D01*
X108690152Y-66065785D01*
X108721971Y-66018824D01*
X108751523Y-65980779D01*
X108775739Y-65955936D01*
X108790064Y-65948398D01*
X108814251Y-65953878D01*
X108853839Y-65968671D01*
X108903406Y-65990306D01*
X108957527Y-66016313D01*
X109010778Y-66044220D01*
X109050106Y-66066859D01*
X109088533Y-66089530D01*
X109118233Y-66105782D01*
X109134128Y-66112878D01*
X109135411Y-66112852D01*
X109138973Y-66100113D01*
X109144853Y-66070146D01*
X109151793Y-66029385D01*
X109151930Y-66028524D01*
X109179378Y-65914705D01*
X109222827Y-65810633D01*
X109280210Y-65720115D01*
X109349457Y-65646958D01*
X109366710Y-65633091D01*
X109396305Y-65612060D01*
X109424378Y-65596813D01*
X109457250Y-65585091D01*
X109501243Y-65574633D01*
X109562028Y-65563296D01*
X109638128Y-65552937D01*
X109732690Y-65544890D01*
X109840337Y-65539360D01*
X109955697Y-65536552D01*
X110073395Y-65536673D01*
G37*
G36*
X104510214Y-63885078D02*
G01*
X104787227Y-63904432D01*
X105045580Y-63936706D01*
X105284977Y-63981834D01*
X105505126Y-64039753D01*
X105705733Y-64110398D01*
X105886505Y-64193706D01*
X106023668Y-64273982D01*
X106099491Y-64329283D01*
X106174350Y-64394498D01*
X106244989Y-64465841D01*
X106308148Y-64539526D01*
X106360571Y-64611768D01*
X106398999Y-64678780D01*
X106419549Y-64734031D01*
X106424382Y-64757957D01*
X106420334Y-64761899D01*
X106405108Y-64749644D01*
X106374903Y-64728905D01*
X106333916Y-64707825D01*
X106291433Y-64690523D01*
X106256741Y-64681121D01*
X106249134Y-64680455D01*
X106228759Y-64690999D01*
X106202782Y-64720538D01*
X106173313Y-64765414D01*
X106142462Y-64821970D01*
X106112340Y-64886550D01*
X106085057Y-64955496D01*
X106076939Y-64978873D01*
X106041954Y-65116085D01*
X106030181Y-65250454D01*
X106041733Y-65383734D01*
X106076725Y-65517675D01*
X106118307Y-65619382D01*
X106139728Y-65666257D01*
X106156527Y-65705412D01*
X106166503Y-65731585D01*
X106168296Y-65739024D01*
X106157376Y-65747906D01*
X106129096Y-65760260D01*
X106089270Y-65773599D01*
X106083731Y-65775222D01*
X106029259Y-65793591D01*
X105967428Y-65818379D01*
X105912047Y-65844017D01*
X105871529Y-65864384D01*
X105840390Y-65879618D01*
X105823749Y-65887230D01*
X105822315Y-65887646D01*
X105812080Y-65881150D01*
X105787919Y-65865428D01*
X105766438Y-65851353D01*
X105678017Y-65807343D01*
X105580215Y-65784690D01*
X105474467Y-65783404D01*
X105362209Y-65803498D01*
X105244875Y-65844983D01*
X105240013Y-65847124D01*
X105174210Y-65876329D01*
X105222067Y-65833302D01*
X105309652Y-65763394D01*
X105414119Y-65694656D01*
X105528613Y-65631261D01*
X105634832Y-65582109D01*
X105668828Y-65566456D01*
X105680538Y-65557477D01*
X105670671Y-65555217D01*
X105639931Y-65559721D01*
X105589027Y-65571033D01*
X105562919Y-65577540D01*
X105403752Y-65630027D01*
X105251124Y-65703773D01*
X105166862Y-65755953D01*
X105119514Y-65787350D01*
X105088379Y-65806130D01*
X105070296Y-65813719D01*
X105062105Y-65811546D01*
X105060550Y-65803965D01*
X105054925Y-65768058D01*
X105040115Y-65719562D01*
X105019215Y-65666424D01*
X104995324Y-65616591D01*
X104973580Y-65580794D01*
X104912778Y-65516116D01*
X104833621Y-65464153D01*
X104738461Y-65425629D01*
X104629649Y-65401267D01*
X104509538Y-65391792D01*
X104380479Y-65397926D01*
X104379593Y-65398021D01*
X104316491Y-65405609D01*
X104252437Y-65414643D01*
X104197264Y-65423683D01*
X104175334Y-65427912D01*
X104135440Y-65435609D01*
X104106077Y-65440029D01*
X104093764Y-65440240D01*
X104101227Y-65433775D01*
X104127138Y-65421917D01*
X104167056Y-65406245D01*
X104216537Y-65388341D01*
X104271141Y-65369784D01*
X104326427Y-65352153D01*
X104377951Y-65337030D01*
X104401670Y-65330709D01*
X104503855Y-65307200D01*
X104604121Y-65289698D01*
X104707655Y-65277742D01*
X104819642Y-65270868D01*
X104945270Y-65268612D01*
X105078496Y-65270244D01*
X105158944Y-65272440D01*
X105232767Y-65275091D01*
X105296127Y-65278010D01*
X105345181Y-65281007D01*
X105376090Y-65283894D01*
X105383584Y-65285249D01*
X105402805Y-65288860D01*
X105405762Y-65285398D01*
X105387576Y-65277139D01*
X105349245Y-65267768D01*
X105294504Y-65257735D01*
X105227084Y-65247491D01*
X105150719Y-65237486D01*
X105069142Y-65228170D01*
X104986086Y-65219994D01*
X104905284Y-65213408D01*
X104830470Y-65208861D01*
X104765375Y-65206805D01*
X104753570Y-65206732D01*
X104659090Y-65209509D01*
X104554694Y-65217368D01*
X104448325Y-65229372D01*
X104347928Y-65244590D01*
X104261449Y-65262086D01*
X104242438Y-65266837D01*
X104200889Y-65277082D01*
X104169459Y-65283585D01*
X104154229Y-65285108D01*
X104153759Y-65284879D01*
X104153728Y-65271932D01*
X104157763Y-65242294D01*
X104164123Y-65206955D01*
X104170704Y-65118030D01*
X104155040Y-65036158D01*
X104118234Y-64963144D01*
X104061388Y-64900794D01*
X103985605Y-64850915D01*
X103933056Y-64828283D01*
X103885069Y-64814368D01*
X103821839Y-64800705D01*
X103752021Y-64788745D01*
X103684268Y-64779940D01*
X103627237Y-64775742D01*
X103618864Y-64775588D01*
X103588744Y-64774282D01*
X103575658Y-64770321D01*
X103580830Y-64762850D01*
X103605482Y-64751018D01*
X103650835Y-64733972D01*
X103705608Y-64715073D01*
X103878418Y-64667743D01*
X104066045Y-64637026D01*
X104266096Y-64622909D01*
X104476176Y-64625383D01*
X104693892Y-64644436D01*
X104916848Y-64680058D01*
X105101272Y-64721463D01*
X105154011Y-64734833D01*
X105200169Y-64746511D01*
X105233419Y-64754896D01*
X105244842Y-64757756D01*
X105255011Y-64758896D01*
X105246123Y-64752939D01*
X105221482Y-64741304D01*
X105184393Y-64725410D01*
X105138161Y-64706674D01*
X105086090Y-64686516D01*
X105034236Y-64667344D01*
X104816248Y-64598954D01*
X104598888Y-64550826D01*
X104384784Y-64523343D01*
X104176564Y-64516887D01*
X104048253Y-64523907D01*
X103933349Y-64537594D01*
X103817666Y-64557422D01*
X103709021Y-64581819D01*
X103615233Y-64609210D01*
X103602404Y-64613667D01*
X103570483Y-64624737D01*
X103549490Y-64631430D01*
X103545574Y-64632336D01*
X103542868Y-64621651D01*
X103541275Y-64594709D01*
X103541097Y-64580130D01*
X103529833Y-64466717D01*
X103496637Y-64361522D01*
X103442402Y-64265582D01*
X103368023Y-64179934D01*
X103274394Y-64105615D01*
X103162407Y-64043664D01*
X103038600Y-63996832D01*
X102948869Y-63969305D01*
X103062528Y-63954661D01*
X103336941Y-63923773D01*
X103619039Y-63900435D01*
X103899493Y-63885265D01*
X104168970Y-63878876D01*
X104214832Y-63878707D01*
X104510214Y-63885078D01*
G37*
G36*
X110011761Y-63879246D02*
G01*
X110122517Y-63881305D01*
X110232359Y-63885024D01*
X110344704Y-63890633D01*
X110462969Y-63898359D01*
X110590569Y-63908430D01*
X110730920Y-63921075D01*
X110887439Y-63936521D01*
X111063543Y-63954999D01*
X111102291Y-63959173D01*
X111167913Y-63966268D01*
X111072381Y-63998437D01*
X110964314Y-64039639D01*
X110874462Y-64085169D01*
X110797136Y-64138201D01*
X110751945Y-64177216D01*
X110674490Y-64264300D01*
X110619423Y-64359788D01*
X110586644Y-64463904D01*
X110576047Y-64574384D01*
X110575022Y-64609802D01*
X110570636Y-64626252D01*
X110560923Y-64628655D01*
X110555110Y-64626786D01*
X110534480Y-64619873D01*
X110497550Y-64608443D01*
X110451030Y-64594556D01*
X110432619Y-64589175D01*
X110235540Y-64544157D01*
X110029995Y-64520785D01*
X109817535Y-64518975D01*
X109599712Y-64538644D01*
X109378077Y-64579709D01*
X109154183Y-64642084D01*
X109097076Y-64661333D01*
X109056226Y-64676190D01*
X109011500Y-64693409D01*
X108966546Y-64711438D01*
X108925011Y-64728723D01*
X108890540Y-64743709D01*
X108866781Y-64754843D01*
X108857380Y-64760570D01*
X108865984Y-64759337D01*
X108869439Y-64758341D01*
X109066138Y-64707094D01*
X109270669Y-64667097D01*
X109476408Y-64639243D01*
X109676733Y-64624426D01*
X109865021Y-64623539D01*
X109868038Y-64623648D01*
X110002780Y-64631628D01*
X110122764Y-64645837D01*
X110236675Y-64667715D01*
X110353200Y-64698699D01*
X110390602Y-64710185D01*
X110460441Y-64732766D01*
X110508345Y-64749750D01*
X110535465Y-64761837D01*
X110542951Y-64769729D01*
X110531954Y-64774125D01*
X110503624Y-64775727D01*
X110498280Y-64775768D01*
X110433800Y-64779626D01*
X110357809Y-64789642D01*
X110279819Y-64804120D01*
X110209343Y-64821362D01*
X110168315Y-64834640D01*
X110097341Y-64870347D01*
X110035087Y-64918617D01*
X109988030Y-64974068D01*
X109976402Y-64994074D01*
X109953665Y-65059384D01*
X109944190Y-65134312D01*
X109949099Y-65207855D01*
X109952847Y-65225305D01*
X109960310Y-65258644D01*
X109963499Y-65280734D01*
X109962990Y-65285274D01*
X109950384Y-65284406D01*
X109920566Y-65278534D01*
X109879434Y-65268850D01*
X109869728Y-65266397D01*
X109704708Y-65233273D01*
X109525249Y-65213888D01*
X109336697Y-65208526D01*
X109144399Y-65217468D01*
X109074540Y-65224327D01*
X108997029Y-65233667D01*
X108920992Y-65243961D01*
X108850284Y-65254573D01*
X108788757Y-65264866D01*
X108740263Y-65274205D01*
X108708655Y-65281952D01*
X108698169Y-65286516D01*
X108703487Y-65289174D01*
X108725161Y-65286039D01*
X108727578Y-65285505D01*
X108749667Y-65282871D01*
X108791736Y-65279985D01*
X108849840Y-65277034D01*
X108920033Y-65274207D01*
X108998370Y-65271693D01*
X109038647Y-65270630D01*
X109180976Y-65268820D01*
X109304878Y-65271206D01*
X109415564Y-65278252D01*
X109518243Y-65290420D01*
X109618124Y-65308172D01*
X109715473Y-65330709D01*
X109763308Y-65343915D01*
X109817201Y-65360446D01*
X109872712Y-65378721D01*
X109925399Y-65397160D01*
X109970820Y-65414184D01*
X110004532Y-65428213D01*
X110022095Y-65437665D01*
X110023379Y-65440240D01*
X110010602Y-65439976D01*
X109980951Y-65435477D01*
X109941810Y-65427912D01*
X109830428Y-65408398D01*
X109720437Y-65396219D01*
X109618310Y-65391833D01*
X109530518Y-65395695D01*
X109513579Y-65397723D01*
X109393701Y-65421382D01*
X109293709Y-65457350D01*
X109212412Y-65506603D01*
X109148622Y-65570118D01*
X109101150Y-65648869D01*
X109068805Y-65743832D01*
X109063613Y-65766941D01*
X109050430Y-65830751D01*
X109002664Y-65792731D01*
X108902151Y-65723657D01*
X108785093Y-65661768D01*
X108658570Y-65610436D01*
X108553664Y-65578826D01*
X108492664Y-65564055D01*
X108454250Y-65556424D01*
X108438137Y-65556035D01*
X108444040Y-65562992D01*
X108471676Y-65577398D01*
X108509963Y-65594671D01*
X108567511Y-65621507D01*
X108629552Y-65653088D01*
X108682917Y-65682703D01*
X108684191Y-65683458D01*
X108720816Y-65706596D01*
X108764290Y-65736141D01*
X108810377Y-65768938D01*
X108854840Y-65801836D01*
X108893444Y-65831682D01*
X108921951Y-65855323D01*
X108936126Y-65869607D01*
X108936951Y-65871557D01*
X108927524Y-65870211D01*
X108903822Y-65860268D01*
X108892086Y-65854567D01*
X108812488Y-65819844D01*
X108735301Y-65798619D01*
X108650769Y-65788673D01*
X108595972Y-65787201D01*
X108537649Y-65787793D01*
X108495480Y-65790835D01*
X108461719Y-65797676D01*
X108428616Y-65809661D01*
X108404580Y-65820474D01*
X108362564Y-65842074D01*
X108325925Y-65864240D01*
X108305922Y-65879345D01*
X108285922Y-65895488D01*
X108274576Y-65899748D01*
X108274403Y-65899591D01*
X108267148Y-65887167D01*
X108252316Y-65859102D01*
X108232963Y-65821195D01*
X108230749Y-65816792D01*
X108210251Y-65777569D01*
X108196962Y-65757416D01*
X108188357Y-65753543D01*
X108181994Y-65762953D01*
X108172565Y-65786662D01*
X108158014Y-65823755D01*
X108144843Y-65857572D01*
X108115269Y-65916248D01*
X108078297Y-65955132D01*
X108030201Y-65978077D01*
X108027672Y-65978808D01*
X107997762Y-65987263D01*
X108022886Y-65958857D01*
X108041400Y-65935859D01*
X108064744Y-65904170D01*
X108088685Y-65869923D01*
X108108991Y-65839252D01*
X108121430Y-65818293D01*
X108123386Y-65813191D01*
X108112461Y-65809537D01*
X108083670Y-65804821D01*
X108042991Y-65800005D01*
X108038388Y-65799544D01*
X107980324Y-65793465D01*
X107943565Y-65786871D01*
X107925625Y-65776666D01*
X107924019Y-65759756D01*
X107936264Y-65733047D01*
X107957005Y-65698181D01*
X108022844Y-65568427D01*
X108065165Y-65435543D01*
X108083838Y-65300025D01*
X108083347Y-65212599D01*
X108074635Y-65121656D01*
X108058897Y-65041016D01*
X108033737Y-64962093D01*
X107996762Y-64876301D01*
X107979911Y-64841709D01*
X107948031Y-64778171D01*
X107924112Y-64733242D01*
X107905380Y-64704145D01*
X107889060Y-64688103D01*
X107872377Y-64682340D01*
X107852558Y-64684081D01*
X107828415Y-64690124D01*
X107786262Y-64704790D01*
X107747783Y-64723568D01*
X107738113Y-64729771D01*
X107713371Y-64744279D01*
X107697315Y-64748055D01*
X107695949Y-64747276D01*
X107695158Y-64730709D01*
X107707076Y-64699535D01*
X107729270Y-64657673D01*
X107759307Y-64609046D01*
X107794755Y-64557573D01*
X107833180Y-64507175D01*
X107872149Y-64461774D01*
X107875024Y-64458682D01*
X107994966Y-64347402D01*
X108135559Y-64247707D01*
X108296463Y-64159695D01*
X108477338Y-64083463D01*
X108677844Y-64019109D01*
X108897642Y-63966730D01*
X109136392Y-63926423D01*
X109393754Y-63898287D01*
X109669388Y-63882419D01*
X109896676Y-63878620D01*
X110011761Y-63879246D01*
G37*
G36*
X106732308Y-65235303D02*
G01*
X106853819Y-65263237D01*
X106981067Y-65313488D01*
X107114689Y-65386272D01*
X107157147Y-65413209D01*
X107203649Y-65444264D01*
X107262854Y-65484706D01*
X107328064Y-65529913D01*
X107392582Y-65575266D01*
X107410844Y-65588239D01*
X107526178Y-65667628D01*
X107627998Y-65731414D01*
X107719420Y-65781197D01*
X107803560Y-65818581D01*
X107883533Y-65845165D01*
X107934354Y-65857331D01*
X108002553Y-65871266D01*
X107972013Y-65910290D01*
X107943510Y-65938978D01*
X107904546Y-65969034D01*
X107881720Y-65983439D01*
X107821969Y-66017564D01*
X107862009Y-66030487D01*
X107947658Y-66050327D01*
X108022024Y-66050115D01*
X108087515Y-66029426D01*
X108146537Y-65987833D01*
X108156356Y-65978397D01*
X108184876Y-65950591D01*
X108201665Y-65937920D01*
X108211691Y-65938376D01*
X108219922Y-65949954D01*
X108221153Y-65952235D01*
X108228910Y-65976863D01*
X108235956Y-66016504D01*
X108240474Y-66059201D01*
X108246327Y-66141002D01*
X108280570Y-66133481D01*
X108305231Y-66132709D01*
X108314506Y-66145563D01*
X108308377Y-66173478D01*
X108286826Y-66217890D01*
X108279376Y-66231129D01*
X108223630Y-66305793D01*
X108152314Y-66365533D01*
X108079021Y-66402942D01*
X108034431Y-66418840D01*
X108008851Y-66424968D01*
X107999233Y-66420831D01*
X108002529Y-66405936D01*
X108009419Y-66391667D01*
X108023648Y-66362124D01*
X108024001Y-66350292D01*
X108008202Y-66352953D01*
X107987805Y-66361095D01*
X107955596Y-66371683D01*
X107916674Y-66380562D01*
X107877738Y-66386770D01*
X107845487Y-66389343D01*
X107826620Y-66387320D01*
X107824281Y-66384583D01*
X107831524Y-66369298D01*
X107844821Y-66352314D01*
X107858046Y-66333692D01*
X107856552Y-66315704D01*
X107847505Y-66297802D01*
X107808021Y-66251488D01*
X107747090Y-66215125D01*
X107664607Y-66188674D01*
X107560463Y-66172096D01*
X107495265Y-66167239D01*
X107363659Y-66160639D01*
X107389083Y-66189116D01*
X107411846Y-66217703D01*
X107428007Y-66247691D01*
X107440451Y-66286232D01*
X107452067Y-66340480D01*
X107453693Y-66349199D01*
X107476256Y-66441105D01*
X107507741Y-66512616D01*
X107550825Y-66566436D01*
X107608188Y-66605271D01*
X107682509Y-66631825D01*
X107746276Y-66644589D01*
X107789074Y-66652486D01*
X107820832Y-66660717D01*
X107835780Y-66667725D01*
X107836245Y-66668841D01*
X107828269Y-66681937D01*
X107807487Y-66705848D01*
X107782059Y-66731770D01*
X107709152Y-66787370D01*
X107627785Y-66820599D01*
X107537764Y-66831527D01*
X107509793Y-66830520D01*
X107468140Y-66826891D01*
X107436857Y-66822755D01*
X107422693Y-66819003D01*
X107422679Y-66818990D01*
X107423970Y-66805783D01*
X107434983Y-66781366D01*
X107436865Y-66778014D01*
X107451972Y-66736877D01*
X107448948Y-66694675D01*
X107426791Y-66648619D01*
X107384495Y-66595923D01*
X107363360Y-66574004D01*
X107277720Y-66503465D01*
X107177030Y-66445790D01*
X107068286Y-66404548D01*
X107000241Y-66388855D01*
X106956860Y-66381038D01*
X106933928Y-66375196D01*
X106928249Y-66369623D01*
X106936629Y-66362611D01*
X106943818Y-66358697D01*
X106969813Y-66349228D01*
X107011132Y-66338532D01*
X107059410Y-66328738D01*
X107065603Y-66327669D01*
X107157934Y-66312074D01*
X107111675Y-66273943D01*
X107063746Y-66239812D01*
X107001394Y-66202925D01*
X106933002Y-66167760D01*
X106866954Y-66138799D01*
X106840723Y-66129151D01*
X106779230Y-66108249D01*
X106863750Y-66076920D01*
X106919255Y-66058425D01*
X106979285Y-66041584D01*
X107024358Y-66031372D01*
X107077308Y-66021074D01*
X107108548Y-66013352D01*
X107119971Y-66006844D01*
X107113469Y-66000185D01*
X107090933Y-65992013D01*
X107082560Y-65989436D01*
X107012480Y-65973030D01*
X106927925Y-65960843D01*
X106834820Y-65953027D01*
X106739094Y-65949729D01*
X106646671Y-65951100D01*
X106563480Y-65957290D01*
X106495446Y-65968447D01*
X106474585Y-65974088D01*
X106454623Y-65980709D01*
X106446037Y-65985299D01*
X106451333Y-65988311D01*
X106473015Y-65990193D01*
X106513589Y-65991397D01*
X106575560Y-65992374D01*
X106576280Y-65992384D01*
X106651083Y-65994909D01*
X106717356Y-65999996D01*
X106769088Y-66007099D01*
X106789377Y-66011728D01*
X106823564Y-66021929D01*
X106837047Y-66028131D01*
X106832136Y-66032890D01*
X106813306Y-66038204D01*
X106784013Y-66047925D01*
X106742391Y-66064339D01*
X106699646Y-66082912D01*
X106621878Y-66118377D01*
X106724855Y-66151054D01*
X106780557Y-66170607D01*
X106835902Y-66193146D01*
X106880744Y-66214470D01*
X106888711Y-66218880D01*
X106949590Y-66254029D01*
X106839573Y-66254422D01*
X106743611Y-66258718D01*
X106659730Y-66272426D01*
X106577261Y-66297902D01*
X106505227Y-66328296D01*
X106457467Y-66351898D01*
X106426363Y-66370693D01*
X106413178Y-66383425D01*
X106419179Y-66388842D01*
X106445628Y-66385691D01*
X106447809Y-66385220D01*
X106481935Y-66382208D01*
X106524618Y-66384048D01*
X106538431Y-66385762D01*
X106593749Y-66394057D01*
X106526602Y-66431449D01*
X106434408Y-66495317D01*
X106361346Y-66572539D01*
X106308210Y-66661097D01*
X106275793Y-66758974D01*
X106264891Y-66864150D01*
X106276297Y-66974609D01*
X106290604Y-67031158D01*
X106304657Y-67067890D01*
X106327640Y-67117990D01*
X106355958Y-67174435D01*
X106386020Y-67230202D01*
X106414234Y-67278267D01*
X106427199Y-67298202D01*
X106446270Y-67327969D01*
X106457078Y-67348789D01*
X106458019Y-67354540D01*
X106445595Y-67352466D01*
X106418287Y-67342284D01*
X106391548Y-67330546D01*
X106285896Y-67270807D01*
X106184850Y-67193364D01*
X106094429Y-67103618D01*
X106020654Y-67006967D01*
X106007866Y-66986344D01*
X105959289Y-66887584D01*
X105921111Y-66775536D01*
X105895894Y-66659521D01*
X105886202Y-66548862D01*
X105886170Y-66543617D01*
X105884361Y-66510479D01*
X105879859Y-66489999D01*
X105876778Y-66486787D01*
X105856178Y-66494981D01*
X105823547Y-66517436D01*
X105783226Y-66550963D01*
X105758802Y-66573484D01*
X105709291Y-66620751D01*
X105715347Y-66562742D01*
X105738040Y-66452794D01*
X105781199Y-66346440D01*
X105841936Y-66248533D01*
X105917365Y-66163927D01*
X105984533Y-66110294D01*
X106018937Y-66084308D01*
X106031689Y-66067329D01*
X106028949Y-66061624D01*
X106003775Y-66053919D01*
X105962074Y-66048847D01*
X105911127Y-66046614D01*
X105858213Y-66047426D01*
X105810610Y-66051490D01*
X105790775Y-66054870D01*
X105754601Y-66061525D01*
X105729122Y-66064150D01*
X105721655Y-66063137D01*
X105727106Y-66053386D01*
X105748839Y-66034328D01*
X105782591Y-66008930D01*
X105824102Y-65980155D01*
X105869112Y-65950971D01*
X105913359Y-65924343D01*
X105948396Y-65905322D01*
X106000701Y-65881752D01*
X107486151Y-65881752D01*
X107509238Y-65915193D01*
X107536516Y-65947050D01*
X107562475Y-65971602D01*
X107581605Y-65983126D01*
X107584008Y-65983371D01*
X107607323Y-65979411D01*
X107641062Y-65970775D01*
X107649034Y-65968416D01*
X107695126Y-65954380D01*
X107586844Y-65911662D01*
X107541991Y-65894884D01*
X107507796Y-65883865D01*
X107488555Y-65879880D01*
X107486151Y-65881752D01*
X106000701Y-65881752D01*
X106038254Y-65864830D01*
X106125127Y-65836898D01*
X106216486Y-65819876D01*
X106319801Y-65812114D01*
X106374497Y-65811196D01*
X106533898Y-65810809D01*
X106488157Y-65771374D01*
X106418051Y-65721310D01*
X106333411Y-65677412D01*
X106258508Y-65649131D01*
X106194243Y-65629013D01*
X106246544Y-65614376D01*
X106277033Y-65608797D01*
X106325700Y-65603305D01*
X106386799Y-65598405D01*
X106454583Y-65594604D01*
X106484290Y-65593435D01*
X106613594Y-65592887D01*
X106727811Y-65601509D01*
X106834413Y-65620490D01*
X106940870Y-65651018D01*
X107013707Y-65677687D01*
X107057634Y-65693908D01*
X107090739Y-65704144D01*
X107108696Y-65707173D01*
X107110375Y-65704981D01*
X107044702Y-65608330D01*
X106961352Y-65511378D01*
X106865892Y-65419498D01*
X106763891Y-65338063D01*
X106663753Y-65274015D01*
X106625452Y-65251908D01*
X106606556Y-65238393D01*
X106604981Y-65231530D01*
X106615896Y-65229470D01*
X106732308Y-65235303D01*
G37*
%TD*%
%LPC*%
D16*
%TO.C,J6*%
X113500000Y-80242500D03*
D17*
X113500000Y-77742500D03*
%TD*%
%TO.C,J1*%
X98800000Y-93992500D03*
D16*
X98800000Y-96492500D03*
%TD*%
D18*
%TO.C,J2*%
X153950000Y-98507500D03*
D16*
X153950000Y-96007500D03*
%TD*%
D19*
%TO.C,C14*%
X135050000Y-71250000D03*
X136950000Y-71250000D03*
%TD*%
D20*
%TO.C,C7*%
X116000000Y-95950000D03*
X116000000Y-94050000D03*
%TD*%
D21*
%TO.C,R6*%
X121137500Y-95600000D03*
X121137500Y-93775000D03*
%TD*%
D22*
%TO.C,Q1*%
X141187500Y-86950000D03*
X141187500Y-85050000D03*
X139312500Y-86000000D03*
%TD*%
D23*
%TO.C,C4*%
X120500000Y-89700000D03*
X120500000Y-87800000D03*
%TD*%
D24*
%TO.C,D3*%
X146000000Y-90562500D03*
X146000000Y-92437500D03*
%TD*%
D25*
%TO.C,R16*%
X146000000Y-96662500D03*
X146000000Y-94837500D03*
%TD*%
D23*
%TO.C,C2*%
X100500000Y-85700000D03*
X100500000Y-83800000D03*
%TD*%
D26*
%TO.C,R11*%
X147837500Y-83500000D03*
X149662500Y-83500000D03*
%TD*%
D20*
%TO.C,C3*%
X110500000Y-88050000D03*
X110500000Y-89950000D03*
%TD*%
D21*
%TO.C,R7*%
X121137500Y-98775000D03*
X121137500Y-100600000D03*
%TD*%
D23*
%TO.C,C5*%
X130500000Y-89450000D03*
X130500000Y-87550000D03*
%TD*%
D27*
%TO.C,U2*%
X129887500Y-96262500D03*
D28*
X130100000Y-98250000D03*
D29*
X132000000Y-98250000D03*
D30*
X132212500Y-96262500D03*
D31*
X131550000Y-95675000D03*
X131050000Y-95675000D03*
X130550000Y-95675000D03*
%TD*%
D32*
%TO.C,J8*%
X157795000Y-76560000D03*
D33*
X157795000Y-74020000D03*
X157795000Y-71480000D03*
X157795000Y-68940000D03*
%TD*%
D19*
%TO.C,C13*%
X135050000Y-66750000D03*
X136950000Y-66750000D03*
%TD*%
D20*
%TO.C,C12*%
X132250000Y-73300000D03*
X132250000Y-75200000D03*
%TD*%
D25*
%TO.C,R3*%
X105250000Y-83412500D03*
X105250000Y-81587500D03*
%TD*%
%TO.C,R8*%
X141000000Y-97912500D03*
X141000000Y-96087500D03*
%TD*%
D34*
%TO.C,BOOT1*%
X122750000Y-69300000D03*
X116450000Y-69300000D03*
X122750000Y-65500000D03*
X116450000Y-65500000D03*
%TD*%
D20*
%TO.C,C6*%
X111000000Y-96000000D03*
X111000000Y-97900000D03*
%TD*%
D26*
%TO.C,R12*%
X127587500Y-74500000D03*
X129412500Y-74500000D03*
%TD*%
D21*
%TO.C,R13*%
X132000000Y-82587500D03*
X132000000Y-84412500D03*
%TD*%
D25*
%TO.C,R2*%
X105250000Y-88162500D03*
X105250000Y-86337500D03*
%TD*%
D35*
%TO.C,J7*%
X97500000Y-72500000D03*
D36*
X97500000Y-77500000D03*
%TD*%
D20*
%TO.C,C10*%
X141000000Y-99800000D03*
X141000000Y-101700000D03*
%TD*%
D25*
%TO.C,R14*%
X105862500Y-93925000D03*
X105862500Y-92100000D03*
%TD*%
%TO.C,R4*%
X125500000Y-91912500D03*
X125500000Y-90087500D03*
%TD*%
D23*
%TO.C,C1*%
X95500000Y-85700000D03*
X95500000Y-83800000D03*
%TD*%
D21*
%TO.C,R1*%
X132000000Y-78337500D03*
X132000000Y-80162500D03*
%TD*%
D37*
%TO.C,J3*%
X154395000Y-89390000D03*
X154395000Y-83610000D03*
D38*
X153197538Y-89699968D03*
D39*
X153197524Y-88900394D03*
D40*
X153320000Y-87750000D03*
X153320000Y-86750000D03*
X153320000Y-86250000D03*
X153320000Y-85250000D03*
D41*
X153197500Y-84100000D03*
D42*
X153197503Y-83300000D03*
D43*
X153197502Y-83300000D03*
D39*
X153197501Y-84100000D03*
D40*
X153320000Y-84750000D03*
X153320000Y-85750000D03*
X153320000Y-87250000D03*
X153320000Y-88250000D03*
D41*
X153197500Y-88900000D03*
D43*
X153197502Y-89699999D03*
D44*
X153895000Y-90820000D03*
D45*
X158075000Y-90820000D03*
D44*
X153895000Y-82180000D03*
D45*
X158075000Y-82180000D03*
%TD*%
D25*
%TO.C,R9*%
X140862500Y-93975000D03*
X140862500Y-92150000D03*
%TD*%
%TO.C,R15*%
X135500000Y-92912500D03*
X135500000Y-91087500D03*
%TD*%
D24*
%TO.C,D2*%
X135500000Y-87062500D03*
X135500000Y-88937500D03*
%TD*%
D27*
%TO.C,U1*%
X114425000Y-87750000D03*
D28*
X114637500Y-89737500D03*
D29*
X116537500Y-89737500D03*
D30*
X116750000Y-87750000D03*
D31*
X116087500Y-87162500D03*
X115587500Y-87162500D03*
X115087500Y-87162500D03*
%TD*%
D20*
%TO.C,C8*%
X125000000Y-96300000D03*
X125000000Y-98200000D03*
%TD*%
D46*
%TO.C,J5*%
X125700000Y-81600000D03*
X125700000Y-80350000D03*
X125700000Y-79100000D03*
X125700000Y-77850000D03*
D47*
X122350000Y-83450000D03*
X122350000Y-76000000D03*
%TD*%
D26*
%TO.C,R10*%
X147837500Y-88500000D03*
X149662500Y-88500000D03*
%TD*%
D48*
%TO.C,U3*%
X139500000Y-65700000D03*
X139500000Y-66550000D03*
X139500000Y-67400000D03*
X139500000Y-68250000D03*
X139500000Y-69100000D03*
X139500000Y-69950000D03*
X139500000Y-70800000D03*
X139500000Y-71650000D03*
X139500000Y-72500000D03*
X139500000Y-73350000D03*
X139500000Y-74200000D03*
X139500000Y-75050000D03*
X139500000Y-75900000D03*
X139500000Y-76750000D03*
X139500000Y-77600000D03*
D49*
X140550000Y-78650000D03*
X141400000Y-78650000D03*
X142250000Y-78650000D03*
X143100000Y-78650000D03*
X143950000Y-78650000D03*
X144800000Y-78650000D03*
X145650000Y-78650000D03*
X146500000Y-78650000D03*
X147350000Y-78650000D03*
X148200000Y-78650000D03*
X149050000Y-78650000D03*
X149900000Y-78650000D03*
X150750000Y-78650000D03*
X151600000Y-78650000D03*
X152450000Y-78650000D03*
D48*
X153500000Y-77600000D03*
X153500000Y-76750000D03*
X153500000Y-75900000D03*
X153500000Y-75050000D03*
X153500000Y-74200000D03*
X153500000Y-73350000D03*
X153500000Y-72500000D03*
X153500000Y-71650000D03*
X153500000Y-70800000D03*
X153500000Y-69950000D03*
X153500000Y-69100000D03*
X153500000Y-68250000D03*
X153500000Y-67400000D03*
X153500000Y-66550000D03*
X153500000Y-65700000D03*
D49*
X152450000Y-64650000D03*
X151600000Y-64650000D03*
X150750000Y-64650000D03*
X149900000Y-64650000D03*
X149050000Y-64650000D03*
X148200000Y-64650000D03*
X147350000Y-64650000D03*
X146500000Y-64650000D03*
X145650000Y-64650000D03*
X144800000Y-64650000D03*
X143950000Y-64650000D03*
X143100000Y-64650000D03*
X142250000Y-64650000D03*
X141400000Y-64650000D03*
X140550000Y-64650000D03*
D50*
X144850000Y-70000000D03*
D51*
X144850000Y-71650000D03*
X144850000Y-73300000D03*
X146500000Y-70000000D03*
X146500000Y-71650000D03*
X146500000Y-73300000D03*
X148150000Y-70000000D03*
X148150000Y-71650000D03*
X148150000Y-73300000D03*
D52*
X139500000Y-64650000D03*
X139500000Y-78650000D03*
X153500000Y-78650000D03*
X153500000Y-64650000D03*
%TD*%
D25*
%TO.C,R5*%
X125500000Y-87412500D03*
X125500000Y-85587500D03*
%TD*%
D23*
%TO.C,C9*%
X136000000Y-97975000D03*
X136000000Y-96075000D03*
%TD*%
D53*
%TO.C,D1*%
X105750000Y-100412500D03*
X105750000Y-98537500D03*
%TD*%
D34*
%TO.C,ENABLE1*%
X132250000Y-69400000D03*
X125950000Y-69400000D03*
X132250000Y-65600000D03*
X125950000Y-65600000D03*
%TD*%
D25*
%TO.C,R17*%
X144750000Y-86912500D03*
X144750000Y-85087500D03*
%TD*%
D54*
%TO.C,H4*%
X146500000Y-100500000D03*
%TD*%
%TO.C,H3*%
X158000000Y-64500000D03*
%TD*%
%TO.C,H2*%
X115750000Y-100250000D03*
%TD*%
%TO.C,H1*%
X95500000Y-65500000D03*
%TD*%
%LPD*%
M02*
