M48
; DRILL file KiCad 10.0.2 date 2026-06-03T12:08:33
; FORMAT={-:-/ absolute / inch / decimal}
; #@! TF.CreationDate,2026-06-03T12:08:33-04:00
; #@! TF.GenerationSoftware,Kicad,Pcbnew,10.0.2
; #@! TF.FileFunction,Plated,1,4,PTH
FMAT,2
INCH
; #@! TA.AperFunction,Plated,PTH,ViaDrill
T1C0.0118
; #@! TA.AperFunction,Plated,PTH,ComponentDrill
T2C0.0118
; #@! TA.AperFunction,Plated,PTH,ComponentDrill
T3C0.0236
; #@! TA.AperFunction,Plated,PTH,ComponentDrill
T4C0.0354
; #@! TA.AperFunction,Plated,PTH,ComponentDrill
T5C0.0374
; #@! TA.AperFunction,Plated,PTH,ComponentDrill
T6C0.0394
; #@! TA.AperFunction,Plated,PTH,ComponentDrill
T7C0.1063
%
G90
G05
T1
X4.685Y-3.7992
X4.685Y-4.4685
X4.8228Y-3.6417
X4.9409Y-4.0453
X4.9409Y-4.2224
X4.9803Y-3.376
X4.9902Y-4.1339
X5.0197Y-4.2815
X5.0197Y-4.5374
X5.0295Y-3.4744
X5.0295Y-3.937
X5.1378Y-4.0256
X5.1673Y-3.3563
X5.1673Y-3.6417
X5.187Y-4.1437
X5.2264Y-3.8484
X5.2756Y-3.75
X5.2756Y-4.5374
X5.315Y-3.435
X5.3346Y-4.0256
X5.3642Y-4.6358
X5.3937Y-3.75
X5.4134Y-3.4941
X5.4724Y-4.8819
X5.5118Y-3.3858
X5.5315Y-3.5138
X5.6102Y-4.7835
X5.6299Y-4.8819
X5.7303Y-4.8937
X5.748Y-4.8622
X5.7677Y-3.3858
X5.9055Y-3.6122
X5.9055Y-3.7106
X5.9252Y-3.6614
X5.9448Y-4.8619
X5.9547Y-4.8917
X6.0335Y-3.3563
X6.0335Y-3.6417
X6.063Y-4.8819
X6.0827Y-4.7835
X6.1909Y-4.6752
X6.2008Y-3.0118
X6.2008Y-3.435
X6.2205Y-4.8819
X6.2894Y-3.4941
X6.3091Y-4.6752
X6.3287Y-3.248
X6.3484Y-3.3465
X6.378Y-4.1142
X6.378Y-4.3307
X6.3976Y-3.2776
X6.4075Y-3.5138
X6.4961Y-3.9961
X6.4961Y-4.065
X6.4961Y-4.3799
X6.4961Y-4.4488
X6.5157Y-4.124
X6.5157Y-4.3209
X6.5551Y-4.124
X6.5551Y-4.3209
X6.5748Y-3.2776
X6.6831Y-3.3465
X6.6929Y-4.5177
X6.7421Y-3.7795
X6.7421Y-3.8976
X6.7913Y-4.0748
X6.7913Y-4.3504
X6.8012Y-3.8386
X7.0472Y-4.0748
T2
X5.7323Y-4.0791
X5.7323Y-4.1343
X5.7598Y-4.0516
X5.7598Y-4.1067
X5.7598Y-4.1618
X5.7874Y-4.0791
X5.7874Y-4.1343
X5.815Y-4.0516
X5.815Y-4.1067
X5.815Y-4.1618
X5.8425Y-4.0791
X5.8425Y-4.1343
T4
X6.4665Y-4.8228
X6.624Y-4.8228
T5
X5.3543Y-5.1378
X5.4528Y-5.1378
X5.5512Y-5.1378
X5.6496Y-5.1378
X6.0039Y-5.1388
X6.1024Y-5.1388
X6.2008Y-5.1388
X6.2992Y-5.1388
X6.5453Y-3.8386
X6.6437Y-3.8386
X6.7421Y-3.8386
T6
X5.0Y-4.8327
X5.0984Y-4.8327
X5.8858Y-3.1398
X5.9843Y-3.1398
X6.6732Y-4.0701
X6.6732Y-4.1701
X6.6732Y-4.2701
X6.6732Y-4.3701
T7
X5.3839Y-3.1299
X5.5807Y-3.1299
T3
G00X4.7077Y-3.9638
M15
G01X4.6762Y-3.9638
M16
G05
G00X4.7077Y-4.3039
M15
G01X4.6762Y-4.3039
M16
G05
G00X4.8781Y-3.9638
M15
G01X4.8348Y-3.9638
M16
G05
G00X4.8781Y-4.3039
M15
G01X4.8348Y-4.3039
M16
G05
M30
