%TF.GenerationSoftware,KiCad,Pcbnew,10.0.3*%
%TF.CreationDate,2026-05-30T16:42:28-04:00*%
%TF.ProjectId,float_pcb,666c6f61-745f-4706-9362-2e6b69636164,rev?*%
%TF.SameCoordinates,Original*%
%TF.FileFunction,Copper,L2,Bot*%
%TF.FilePolarity,Positive*%
%FSLAX46Y46*%
G04 Gerber Fmt 4.6, Leading zero omitted, Abs format (unit mm)*
G04 Created by KiCad (PCBNEW 10.0.3) date 2026-05-30 16:42:28*
%MOMM*%
%LPD*%
G01*
G04 APERTURE LIST*
G04 Aperture macros list*
%AMRoundRect*
0 Rectangle with rounded corners*
0 $1 Rounding radius*
0 $2 $3 $4 $5 $6 $7 $8 $9 X,Y pos of 4 corners*
0 Add a 4 corners polygon primitive as box body*
4,1,4,$2,$3,$4,$5,$6,$7,$8,$9,$2,$3,0*
0 Add four circle primitives for the rounded corners*
1,1,$1+$1,$2,$3*
1,1,$1+$1,$4,$5*
1,1,$1+$1,$6,$7*
1,1,$1+$1,$8,$9*
0 Add four rect primitives between the rounded corners*
20,1,$1+$1,$2,$3,$4,$5,0*
20,1,$1+$1,$4,$5,$6,$7,0*
20,1,$1+$1,$6,$7,$8,$9,0*
20,1,$1+$1,$8,$9,$2,$3,0*%
G04 Aperture macros list end*
%TA.AperFunction,HeatsinkPad*%
%ADD10C,0.600000*%
%TD*%
%TA.AperFunction,ComponentPad*%
%ADD11RoundRect,0.760000X-1.140000X-1.140000X1.140000X-1.140000X1.140000X1.140000X-1.140000X1.140000X0*%
%TD*%
%TA.AperFunction,ComponentPad*%
%ADD12C,3.800000*%
%TD*%
%TA.AperFunction,ComponentPad*%
%ADD13RoundRect,0.250000X0.600000X0.750000X-0.600000X0.750000X-0.600000X-0.750000X0.600000X-0.750000X0*%
%TD*%
%TA.AperFunction,ComponentPad*%
%ADD14O,1.700000X2.000000*%
%TD*%
%TA.AperFunction,ComponentPad*%
%ADD15O,2.100000X1.000000*%
%TD*%
%TA.AperFunction,ComponentPad*%
%ADD16O,1.800000X1.000000*%
%TD*%
%TA.AperFunction,ComponentPad*%
%ADD17R,1.700000X1.700000*%
%TD*%
%TA.AperFunction,ComponentPad*%
%ADD18C,1.700000*%
%TD*%
%TA.AperFunction,ComponentPad*%
%ADD19RoundRect,0.250000X0.600000X0.725000X-0.600000X0.725000X-0.600000X-0.725000X0.600000X-0.725000X0*%
%TD*%
%TA.AperFunction,ComponentPad*%
%ADD20O,1.700000X1.950000*%
%TD*%
%TA.AperFunction,ComponentPad*%
%ADD21C,1.408000*%
%TD*%
%TA.AperFunction,ViaPad*%
%ADD22C,0.600000*%
%TD*%
%TA.AperFunction,Conductor*%
%ADD23C,0.200000*%
%TD*%
G04 APERTURE END LIST*
D10*
%TO.P,U4,41,GND_41*%
%TO.N,GND*%
X224100000Y-96135000D03*
X224100000Y-97535000D03*
X224800000Y-95435000D03*
X224800000Y-96835000D03*
X224800000Y-98235000D03*
X225500000Y-96135000D03*
X225500000Y-97535000D03*
X226200000Y-95435000D03*
X226200000Y-96835000D03*
X226200000Y-98235000D03*
X226900000Y-96135000D03*
X226900000Y-97535000D03*
%TD*%
D11*
%TO.P,J7,1,Pin_1_1*%
%TO.N,GND*%
X212500000Y-76000000D03*
D12*
%TO.P,J7,2,Pin_2_2*%
%TO.N,Net-(J1-Pin_2)*%
X217500000Y-76000000D03*
%TD*%
D13*
%TO.P,J1,1,Pin_1_1*%
%TO.N,+BATT*%
X226250000Y-76250000D03*
D14*
%TO.P,J1,2,Pin_2_2*%
%TO.N,Net-(J1-Pin_2)*%
X223750000Y-76250000D03*
%TD*%
D15*
%TO.P,J3,SH,SHIELD_SH*%
%TO.N,GND*%
X203855000Y-93430000D03*
D16*
X199675000Y-93430000D03*
D15*
X203855000Y-102070000D03*
D16*
X199675000Y-102070000D03*
%TD*%
D17*
%TO.P,J2,1,Pin_1_1*%
%TO.N,Net-(J2-Pin_1)*%
X240000000Y-104500000D03*
D18*
%TO.P,J2,2,Pin_2_2*%
%TO.N,Net-(J2-Pin_2)*%
X240000000Y-101960000D03*
%TO.P,J2,3,Pin_3_3*%
%TO.N,Net-(J2-Pin_3)*%
X240000000Y-99420000D03*
%TO.P,J2,4,Pin_4_4*%
%TO.N,Net-(J2-Pin_4)*%
X240000000Y-96880000D03*
%TD*%
D19*
%TO.P,J4,1,Pin_1_1*%
%TO.N,GND*%
X251000000Y-92250000D03*
D20*
%TO.P,J4,2,Pin_2_2*%
%TO.N,Net-(J4-Pin_2)*%
X248500000Y-92250000D03*
%TO.P,J4,3,Pin_3_3*%
%TO.N,SERVO*%
X246000000Y-92250000D03*
%TD*%
D19*
%TO.P,J9,1,Pin_1_1*%
%TO.N,GND*%
X238750000Y-120500000D03*
D20*
%TO.P,J9,2,Pin_2_2*%
%TO.N,SDA2*%
X236250000Y-120500000D03*
%TO.P,J9,3,Pin_3_3*%
%TO.N,SCL2*%
X233750000Y-120500000D03*
%TO.P,J9,4,Pin_4_4*%
%TO.N,+3V3*%
X231250000Y-120500000D03*
%TD*%
D21*
%TO.P,LS1,N*%
%TO.N,Net-(Q2-D)*%
X248201500Y-113625000D03*
%TO.P,LS1,P*%
%TO.N,+3V3*%
X244201500Y-113625000D03*
%TD*%
D19*
%TO.P,J5,1,Pin_1_1*%
%TO.N,GND*%
X222000000Y-120500000D03*
D20*
%TO.P,J5,2,Pin_2_2*%
%TO.N,SDA1*%
X219500000Y-120500000D03*
%TO.P,J5,3,Pin_3_3*%
%TO.N,SCL1*%
X217000000Y-120500000D03*
%TO.P,J5,4,Pin_4_4*%
%TO.N,+3V3*%
X214500000Y-120500000D03*
%TD*%
D13*
%TO.P,J6,1,Pin_1_1*%
%TO.N,Net-(J6-Pin_1)*%
X208250000Y-111500000D03*
D14*
%TO.P,J6,2,Pin_2_2*%
%TO.N,+3V3*%
X205750000Y-111500000D03*
%TD*%
D22*
%TO.N,Net-(U2-EN)*%
X237230552Y-80981427D03*
%TO.N,GND*%
X234500000Y-72250000D03*
X244250000Y-77000000D03*
X240250000Y-77000000D03*
X212000000Y-88750000D03*
X228750000Y-80000000D03*
X234000000Y-80000000D03*
X242250000Y-83250000D03*
X242000000Y-80000000D03*
X204000000Y-85250000D03*
X218750000Y-83250000D03*
X218750000Y-80000000D03*
%TO.N,Net-(U1-EN)*%
X209750000Y-82000000D03*
X215437499Y-81019295D03*
%TO.N,GND*%
X217750000Y-82250000D03*
X204552498Y-100950000D03*
X212750000Y-72500000D03*
X254750000Y-89500000D03*
X239250000Y-82250000D03*
X247250000Y-77250000D03*
X215750000Y-105250000D03*
X213500000Y-93000000D03*
X215000000Y-91250000D03*
X223250000Y-120500000D03*
X203750000Y-115250000D03*
X217250000Y-109500000D03*
X198000000Y-98000000D03*
X242750000Y-122000000D03*
X199250000Y-89250000D03*
X235250000Y-70000000D03*
X254000000Y-107750000D03*
X252000000Y-83250000D03*
X209000000Y-75500000D03*
X256000000Y-96250000D03*
X211250000Y-102000000D03*
X204552462Y-94550032D03*
X249750000Y-98000000D03*
X251000000Y-94250000D03*
X237750000Y-113000000D03*
X220000000Y-69750000D03*
X214250000Y-102000000D03*
X216000000Y-109250000D03*
X242500000Y-73250000D03*
X210250000Y-121500000D03*
X203250000Y-81000000D03*
X231500000Y-126500000D03*
X216500000Y-88750000D03*
X238750000Y-93500000D03*
X222000000Y-126500000D03*
X240000000Y-120500000D03*
X210250000Y-91250000D03*
X200000000Y-106750000D03*
X248750000Y-116750000D03*
%TO.N,Net-(J3-CC2)*%
X203250000Y-99250000D03*
X202200735Y-100049265D03*
%TO.N,Net-(U2-EN)*%
X237750000Y-79750000D03*
%TO.N,Net-(J3-D+-PadA6)*%
X205750000Y-99250000D03*
X211000000Y-106250000D03*
%TO.N,Net-(J3-D--PadA7)*%
X206750000Y-98500000D03*
X211250000Y-104250000D03*
%TO.N,/VBUS*%
X211000000Y-105250000D03*
X206555231Y-99456701D03*
%TD*%
%TO.N,Net-(U2-EN)*%
D23*
X237230552Y-80269448D02*
X237750000Y-79750000D01*
X237230552Y-80981427D02*
X237230552Y-80269448D01*
%TO.N,Net-(U1-EN)*%
X210730705Y-81019295D02*
X215437499Y-81019295D01*
X209750000Y-82000000D02*
X210730705Y-81019295D01*
%TO.N,Net-(J3-CC2)*%
X203250000Y-99250000D02*
X203000000Y-99250000D01*
X203000000Y-99250000D02*
X202200735Y-100049265D01*
%TO.N,Net-(J3-D+-PadA6)*%
X205750000Y-101000000D02*
X211000000Y-106250000D01*
X205750000Y-99250000D02*
X205750000Y-101000000D01*
%TO.N,Net-(J3-D--PadA7)*%
X206750000Y-98500000D02*
X207500000Y-99250000D01*
X207500000Y-99250000D02*
X207500000Y-100500000D01*
X207500000Y-100500000D02*
X211250000Y-104250000D01*
%TO.N,/VBUS*%
X206555231Y-99456701D02*
X206555231Y-100805231D01*
X206555231Y-100805231D02*
X211000000Y-105250000D01*
%TD*%
%TA.AperFunction,Conductor*%
%TO.N,GND*%
G36*
X227528748Y-68255277D02*
G01*
X228576733Y-68292707D01*
X228581146Y-68292943D01*
X229627158Y-68367756D01*
X229631464Y-68368141D01*
X230674196Y-68480246D01*
X230678552Y-68480793D01*
X231716543Y-68630034D01*
X231720886Y-68630737D01*
X232752922Y-68816938D01*
X232757223Y-68817794D01*
X233781924Y-69040704D01*
X233786207Y-69041716D01*
X234802314Y-69301062D01*
X234806531Y-69302219D01*
X235773841Y-69586246D01*
X235812739Y-69597668D01*
X235816965Y-69598991D01*
X236811953Y-69930155D01*
X236816055Y-69931601D01*
X237798688Y-70298105D01*
X237802730Y-70299695D01*
X238528149Y-70600173D01*
X238771597Y-70701013D01*
X238775655Y-70702780D01*
X239729503Y-71138388D01*
X239733497Y-71140298D01*
X240671253Y-71609705D01*
X240675175Y-71611757D01*
X241595544Y-72114316D01*
X241599357Y-72116487D01*
X242053124Y-72385720D01*
X242501264Y-72651614D01*
X242505029Y-72653941D01*
X243387170Y-73220858D01*
X243390851Y-73223317D01*
X243754261Y-73475636D01*
X244252266Y-73821407D01*
X244255818Y-73823969D01*
X244543282Y-74039162D01*
X245095304Y-74452401D01*
X245098800Y-74455116D01*
X245915333Y-75113120D01*
X245918730Y-75115959D01*
X246711244Y-75802676D01*
X246714537Y-75805634D01*
X247482046Y-76520210D01*
X247485231Y-76523284D01*
X248226715Y-77264768D01*
X248229789Y-77267953D01*
X248944365Y-78035462D01*
X248947323Y-78038755D01*
X249634040Y-78831269D01*
X249636879Y-78834666D01*
X250294883Y-79651199D01*
X250297598Y-79654695D01*
X250427966Y-79828846D01*
X250900231Y-80459718D01*
X250926016Y-80494162D01*
X250928599Y-80497744D01*
X251034716Y-80650581D01*
X251526682Y-81359148D01*
X251529141Y-81362829D01*
X252096058Y-82244970D01*
X252098385Y-82248735D01*
X252633502Y-83150625D01*
X252635692Y-83154472D01*
X253138242Y-84074824D01*
X253140294Y-84078746D01*
X253609701Y-85016502D01*
X253611611Y-85020496D01*
X254047219Y-85974344D01*
X254048986Y-85978402D01*
X254450288Y-86947230D01*
X254451909Y-86951349D01*
X254818385Y-87933908D01*
X254819857Y-87938083D01*
X255151008Y-88933036D01*
X255152331Y-88937260D01*
X255447773Y-89943442D01*
X255448944Y-89947711D01*
X255708280Y-90963780D01*
X255709298Y-90968088D01*
X255932201Y-91992756D01*
X255933065Y-91997097D01*
X256119259Y-93029100D01*
X256119967Y-93033470D01*
X256269203Y-94071429D01*
X256269755Y-94075821D01*
X256381853Y-95118484D01*
X256382247Y-95122893D01*
X256457055Y-96168849D01*
X256457292Y-96173269D01*
X256494722Y-97221251D01*
X256494801Y-97225677D01*
X256494801Y-98274322D01*
X256494722Y-98278748D01*
X256457292Y-99326730D01*
X256457055Y-99331150D01*
X256382247Y-100377106D01*
X256381853Y-100381515D01*
X256269755Y-101424178D01*
X256269203Y-101428570D01*
X256119967Y-102466529D01*
X256119259Y-102470899D01*
X255933065Y-103502902D01*
X255932201Y-103507243D01*
X255709298Y-104531911D01*
X255708280Y-104536219D01*
X255448944Y-105552288D01*
X255447773Y-105556557D01*
X255152331Y-106562739D01*
X255151008Y-106566963D01*
X254819857Y-107561916D01*
X254818385Y-107566091D01*
X254451909Y-108548650D01*
X254450288Y-108552769D01*
X254048986Y-109521597D01*
X254047219Y-109525655D01*
X253611611Y-110479503D01*
X253609701Y-110483497D01*
X253140294Y-111421253D01*
X253138242Y-111425175D01*
X252635692Y-112345527D01*
X252633502Y-112349374D01*
X252098385Y-113251264D01*
X252096058Y-113255029D01*
X251529141Y-114137170D01*
X251526682Y-114140851D01*
X250928605Y-115002247D01*
X250926016Y-115005837D01*
X250297598Y-115845304D01*
X250294883Y-115848800D01*
X249636879Y-116665333D01*
X249634040Y-116668730D01*
X248947323Y-117461244D01*
X248944365Y-117464537D01*
X248229789Y-118232046D01*
X248226715Y-118235231D01*
X247485231Y-118976715D01*
X247482046Y-118979789D01*
X246714537Y-119694365D01*
X246711244Y-119697323D01*
X245918730Y-120384040D01*
X245915333Y-120386879D01*
X245098800Y-121044883D01*
X245095304Y-121047598D01*
X244255837Y-121676016D01*
X244252247Y-121678605D01*
X243390851Y-122276682D01*
X243387170Y-122279141D01*
X242505029Y-122846058D01*
X242501264Y-122848385D01*
X241599374Y-123383502D01*
X241595527Y-123385692D01*
X240675175Y-123888242D01*
X240671253Y-123890294D01*
X239733497Y-124359701D01*
X239729503Y-124361611D01*
X238775655Y-124797219D01*
X238771597Y-124798986D01*
X237802769Y-125200288D01*
X237798650Y-125201909D01*
X236816091Y-125568385D01*
X236811916Y-125569857D01*
X235816963Y-125901008D01*
X235812739Y-125902331D01*
X234806557Y-126197773D01*
X234802288Y-126198944D01*
X233786219Y-126458280D01*
X233781911Y-126459298D01*
X232757243Y-126682201D01*
X232752902Y-126683065D01*
X231720899Y-126869259D01*
X231716529Y-126869967D01*
X230678570Y-127019203D01*
X230674178Y-127019755D01*
X229631515Y-127131853D01*
X229627106Y-127132247D01*
X228581150Y-127207055D01*
X228576730Y-127207292D01*
X227528749Y-127244722D01*
X227524323Y-127244801D01*
X226475677Y-127244801D01*
X226471251Y-127244722D01*
X225423269Y-127207292D01*
X225418849Y-127207055D01*
X224372893Y-127132247D01*
X224368484Y-127131853D01*
X223325821Y-127019755D01*
X223321429Y-127019203D01*
X222283470Y-126869967D01*
X222279100Y-126869259D01*
X221247097Y-126683065D01*
X221242756Y-126682201D01*
X220218088Y-126459298D01*
X220213780Y-126458280D01*
X219197711Y-126198944D01*
X219193442Y-126197773D01*
X218187260Y-125902331D01*
X218183036Y-125901008D01*
X217188083Y-125569857D01*
X217183908Y-125568385D01*
X216201349Y-125201909D01*
X216197240Y-125200291D01*
X216007650Y-125121761D01*
X215228402Y-124798986D01*
X215224344Y-124797219D01*
X214270496Y-124361611D01*
X214266502Y-124359701D01*
X213328746Y-123890294D01*
X213324824Y-123888242D01*
X212404472Y-123385692D01*
X212400625Y-123383502D01*
X211498735Y-122848385D01*
X211494970Y-122846058D01*
X210612829Y-122279141D01*
X210609148Y-122276682D01*
X209747752Y-121678605D01*
X209744162Y-121676016D01*
X209567968Y-121544119D01*
X209208432Y-121274973D01*
X208904695Y-121047598D01*
X208901199Y-121044883D01*
X208084666Y-120386879D01*
X208081269Y-120384039D01*
X208050711Y-120357560D01*
X208050703Y-120357554D01*
X207948175Y-120268713D01*
X213149500Y-120268713D01*
X213149500Y-120731287D01*
X213182754Y-120941243D01*
X213193722Y-120975000D01*
X213248444Y-121143414D01*
X213344951Y-121332820D01*
X213469890Y-121504786D01*
X213620213Y-121655109D01*
X213792179Y-121780048D01*
X213792181Y-121780049D01*
X213792184Y-121780051D01*
X213981588Y-121876557D01*
X214183757Y-121942246D01*
X214393713Y-121975500D01*
X214393714Y-121975500D01*
X214606286Y-121975500D01*
X214606287Y-121975500D01*
X214816243Y-121942246D01*
X215018412Y-121876557D01*
X215207816Y-121780051D01*
X215229789Y-121764086D01*
X215379786Y-121655109D01*
X215379788Y-121655106D01*
X215379792Y-121655104D01*
X215530104Y-121504792D01*
X215649683Y-121340204D01*
X215705011Y-121297540D01*
X215774624Y-121291561D01*
X215836420Y-121324166D01*
X215850313Y-121340199D01*
X215877552Y-121377690D01*
X215969896Y-121504792D01*
X216120213Y-121655109D01*
X216292179Y-121780048D01*
X216292181Y-121780049D01*
X216292184Y-121780051D01*
X216481588Y-121876557D01*
X216683757Y-121942246D01*
X216893713Y-121975500D01*
X216893714Y-121975500D01*
X217106286Y-121975500D01*
X217106287Y-121975500D01*
X217316243Y-121942246D01*
X217518412Y-121876557D01*
X217707816Y-121780051D01*
X217729789Y-121764086D01*
X217879786Y-121655109D01*
X217879788Y-121655106D01*
X217879792Y-121655104D01*
X218030104Y-121504792D01*
X218149683Y-121340204D01*
X218205011Y-121297540D01*
X218274624Y-121291561D01*
X218336420Y-121324166D01*
X218350313Y-121340199D01*
X218377552Y-121377690D01*
X218469896Y-121504792D01*
X218620213Y-121655109D01*
X218792179Y-121780048D01*
X218792181Y-121780049D01*
X218792184Y-121780051D01*
X218981588Y-121876557D01*
X219183757Y-121942246D01*
X219393713Y-121975500D01*
X219393714Y-121975500D01*
X219606286Y-121975500D01*
X219606287Y-121975500D01*
X219816243Y-121942246D01*
X220018412Y-121876557D01*
X220207816Y-121780051D01*
X220265141Y-121738402D01*
X220379784Y-121655110D01*
X220379784Y-121655109D01*
X220379792Y-121655104D01*
X220518967Y-121515928D01*
X220580286Y-121482446D01*
X220649978Y-121487430D01*
X220705912Y-121529301D01*
X220712184Y-121538515D01*
X220807684Y-121693345D01*
X220931654Y-121817315D01*
X221080875Y-121909356D01*
X221080880Y-121909358D01*
X221247302Y-121964505D01*
X221247309Y-121964506D01*
X221350019Y-121974999D01*
X221749999Y-121974999D01*
X221750000Y-121974998D01*
X221750000Y-120904145D01*
X221816657Y-120942630D01*
X221937465Y-120975000D01*
X222062535Y-120975000D01*
X222183343Y-120942630D01*
X222250000Y-120904145D01*
X222250000Y-121974999D01*
X222649972Y-121974999D01*
X222649986Y-121974998D01*
X222752697Y-121964505D01*
X222919119Y-121909358D01*
X222919124Y-121909356D01*
X223068345Y-121817315D01*
X223192315Y-121693345D01*
X223284356Y-121544124D01*
X223284358Y-121544119D01*
X223339505Y-121377697D01*
X223339506Y-121377690D01*
X223349999Y-121274986D01*
X223350000Y-121274973D01*
X223350000Y-120750000D01*
X222404146Y-120750000D01*
X222442630Y-120683343D01*
X222475000Y-120562535D01*
X222475000Y-120437465D01*
X222442630Y-120316657D01*
X222414950Y-120268713D01*
X229899500Y-120268713D01*
X229899500Y-120731287D01*
X229932754Y-120941243D01*
X229943722Y-120975000D01*
X229998444Y-121143414D01*
X230094951Y-121332820D01*
X230219890Y-121504786D01*
X230370213Y-121655109D01*
X230542179Y-121780048D01*
X230542181Y-121780049D01*
X230542184Y-121780051D01*
X230731588Y-121876557D01*
X230933757Y-121942246D01*
X231143713Y-121975500D01*
X231143714Y-121975500D01*
X231356286Y-121975500D01*
X231356287Y-121975500D01*
X231566243Y-121942246D01*
X231768412Y-121876557D01*
X231957816Y-121780051D01*
X231979789Y-121764086D01*
X232129786Y-121655109D01*
X232129788Y-121655106D01*
X232129792Y-121655104D01*
X232280104Y-121504792D01*
X232399683Y-121340204D01*
X232455011Y-121297540D01*
X232524624Y-121291561D01*
X232586420Y-121324166D01*
X232600313Y-121340199D01*
X232627552Y-121377690D01*
X232719896Y-121504792D01*
X232870213Y-121655109D01*
X233042179Y-121780048D01*
X233042181Y-121780049D01*
X233042184Y-121780051D01*
X233231588Y-121876557D01*
X233433757Y-121942246D01*
X233643713Y-121975500D01*
X233643714Y-121975500D01*
X233856286Y-121975500D01*
X233856287Y-121975500D01*
X234066243Y-121942246D01*
X234268412Y-121876557D01*
X234457816Y-121780051D01*
X234479789Y-121764086D01*
X234629786Y-121655109D01*
X234629788Y-121655106D01*
X234629792Y-121655104D01*
X234780104Y-121504792D01*
X234899683Y-121340204D01*
X234955011Y-121297540D01*
X235024624Y-121291561D01*
X235086420Y-121324166D01*
X235100313Y-121340199D01*
X235127552Y-121377690D01*
X235219896Y-121504792D01*
X235370213Y-121655109D01*
X235542179Y-121780048D01*
X235542181Y-121780049D01*
X235542184Y-121780051D01*
X235731588Y-121876557D01*
X235933757Y-121942246D01*
X236143713Y-121975500D01*
X236143714Y-121975500D01*
X236356286Y-121975500D01*
X236356287Y-121975500D01*
X236566243Y-121942246D01*
X236768412Y-121876557D01*
X236957816Y-121780051D01*
X237015141Y-121738402D01*
X237129784Y-121655110D01*
X237129784Y-121655109D01*
X237129792Y-121655104D01*
X237268967Y-121515928D01*
X237330286Y-121482446D01*
X237399978Y-121487430D01*
X237455912Y-121529301D01*
X237462184Y-121538515D01*
X237557684Y-121693345D01*
X237681654Y-121817315D01*
X237830875Y-121909356D01*
X237830880Y-121909358D01*
X237997302Y-121964505D01*
X237997309Y-121964506D01*
X238100019Y-121974999D01*
X238499999Y-121974999D01*
X238500000Y-121974998D01*
X238500000Y-120904145D01*
X238566657Y-120942630D01*
X238687465Y-120975000D01*
X238812535Y-120975000D01*
X238933343Y-120942630D01*
X239000000Y-120904145D01*
X239000000Y-121974999D01*
X239399972Y-121974999D01*
X239399986Y-121974998D01*
X239502697Y-121964505D01*
X239669119Y-121909358D01*
X239669124Y-121909356D01*
X239818345Y-121817315D01*
X239942315Y-121693345D01*
X240034356Y-121544124D01*
X240034358Y-121544119D01*
X240089505Y-121377697D01*
X240089506Y-121377690D01*
X240099999Y-121274986D01*
X240100000Y-121274973D01*
X240100000Y-120750000D01*
X239154146Y-120750000D01*
X239192630Y-120683343D01*
X239225000Y-120562535D01*
X239225000Y-120437465D01*
X239192630Y-120316657D01*
X239154146Y-120250000D01*
X240099999Y-120250000D01*
X240099999Y-119725028D01*
X240099998Y-119725013D01*
X240089505Y-119622302D01*
X240034358Y-119455880D01*
X240034356Y-119455875D01*
X239942315Y-119306654D01*
X239818345Y-119182684D01*
X239669124Y-119090643D01*
X239669119Y-119090641D01*
X239502697Y-119035494D01*
X239502690Y-119035493D01*
X239399986Y-119025000D01*
X239000000Y-119025000D01*
X239000000Y-120095854D01*
X238933343Y-120057370D01*
X238812535Y-120025000D01*
X238687465Y-120025000D01*
X238566657Y-120057370D01*
X238500000Y-120095854D01*
X238500000Y-119025000D01*
X238100028Y-119025000D01*
X238100012Y-119025001D01*
X237997302Y-119035494D01*
X237830880Y-119090641D01*
X237830875Y-119090643D01*
X237681654Y-119182684D01*
X237557683Y-119306655D01*
X237557680Y-119306659D01*
X237462183Y-119461484D01*
X237410235Y-119508209D01*
X237341273Y-119519430D01*
X237277191Y-119491587D01*
X237268964Y-119484068D01*
X237129786Y-119344890D01*
X236957820Y-119219951D01*
X236768414Y-119123444D01*
X236768413Y-119123443D01*
X236768412Y-119123443D01*
X236566243Y-119057754D01*
X236566241Y-119057753D01*
X236566240Y-119057753D01*
X236404957Y-119032208D01*
X236356287Y-119024500D01*
X236143713Y-119024500D01*
X236095042Y-119032208D01*
X235933760Y-119057753D01*
X235731585Y-119123444D01*
X235542179Y-119219951D01*
X235370213Y-119344890D01*
X235219894Y-119495209D01*
X235219890Y-119495214D01*
X235100318Y-119659793D01*
X235044989Y-119702459D01*
X234975375Y-119708438D01*
X234913580Y-119675833D01*
X234899682Y-119659793D01*
X234780109Y-119495214D01*
X234780105Y-119495209D01*
X234629786Y-119344890D01*
X234457820Y-119219951D01*
X234268414Y-119123444D01*
X234268413Y-119123443D01*
X234268412Y-119123443D01*
X234066243Y-119057754D01*
X234066241Y-119057753D01*
X234066240Y-119057753D01*
X233904957Y-119032208D01*
X233856287Y-119024500D01*
X233643713Y-119024500D01*
X233595042Y-119032208D01*
X233433760Y-119057753D01*
X233231585Y-119123444D01*
X233042179Y-119219951D01*
X232870213Y-119344890D01*
X232719894Y-119495209D01*
X232719890Y-119495214D01*
X232600318Y-119659793D01*
X232544989Y-119702459D01*
X232475375Y-119708438D01*
X232413580Y-119675833D01*
X232399682Y-119659793D01*
X232280109Y-119495214D01*
X232280105Y-119495209D01*
X232129786Y-119344890D01*
X231957820Y-119219951D01*
X231768414Y-119123444D01*
X231768413Y-119123443D01*
X231768412Y-119123443D01*
X231566243Y-119057754D01*
X231566241Y-119057753D01*
X231566240Y-119057753D01*
X231404957Y-119032208D01*
X231356287Y-119024500D01*
X231143713Y-119024500D01*
X231095042Y-119032208D01*
X230933760Y-119057753D01*
X230731585Y-119123444D01*
X230542179Y-119219951D01*
X230370213Y-119344890D01*
X230219890Y-119495213D01*
X230094951Y-119667179D01*
X229998444Y-119856585D01*
X229932753Y-120058760D01*
X229923069Y-120119905D01*
X229899500Y-120268713D01*
X222414950Y-120268713D01*
X222404146Y-120250000D01*
X223349999Y-120250000D01*
X223349999Y-119725028D01*
X223349998Y-119725013D01*
X223339505Y-119622302D01*
X223284358Y-119455880D01*
X223284356Y-119455875D01*
X223192315Y-119306654D01*
X223068345Y-119182684D01*
X222919124Y-119090643D01*
X222919119Y-119090641D01*
X222752697Y-119035494D01*
X222752690Y-119035493D01*
X222649986Y-119025000D01*
X222250000Y-119025000D01*
X222250000Y-120095854D01*
X222183343Y-120057370D01*
X222062535Y-120025000D01*
X221937465Y-120025000D01*
X221816657Y-120057370D01*
X221750000Y-120095854D01*
X221750000Y-119025000D01*
X221350028Y-119025000D01*
X221350012Y-119025001D01*
X221247302Y-119035494D01*
X221080880Y-119090641D01*
X221080875Y-119090643D01*
X220931654Y-119182684D01*
X220807683Y-119306655D01*
X220807680Y-119306659D01*
X220712183Y-119461484D01*
X220660235Y-119508209D01*
X220591273Y-119519430D01*
X220527191Y-119491587D01*
X220518964Y-119484068D01*
X220379786Y-119344890D01*
X220207820Y-119219951D01*
X220018414Y-119123444D01*
X220018413Y-119123443D01*
X220018412Y-119123443D01*
X219816243Y-119057754D01*
X219816241Y-119057753D01*
X219816240Y-119057753D01*
X219654957Y-119032208D01*
X219606287Y-119024500D01*
X219393713Y-119024500D01*
X219345042Y-119032208D01*
X219183760Y-119057753D01*
X218981585Y-119123444D01*
X218792179Y-119219951D01*
X218620213Y-119344890D01*
X218469894Y-119495209D01*
X218469890Y-119495214D01*
X218350318Y-119659793D01*
X218294989Y-119702459D01*
X218225375Y-119708438D01*
X218163580Y-119675833D01*
X218149682Y-119659793D01*
X218030109Y-119495214D01*
X218030105Y-119495209D01*
X217879786Y-119344890D01*
X217707820Y-119219951D01*
X217518414Y-119123444D01*
X217518413Y-119123443D01*
X217518412Y-119123443D01*
X217316243Y-119057754D01*
X217316241Y-119057753D01*
X217316240Y-119057753D01*
X217154957Y-119032208D01*
X217106287Y-119024500D01*
X216893713Y-119024500D01*
X216845042Y-119032208D01*
X216683760Y-119057753D01*
X216481585Y-119123444D01*
X216292179Y-119219951D01*
X216120213Y-119344890D01*
X215969894Y-119495209D01*
X215969890Y-119495214D01*
X215850318Y-119659793D01*
X215794989Y-119702459D01*
X215725375Y-119708438D01*
X215663580Y-119675833D01*
X215649682Y-119659793D01*
X215530109Y-119495214D01*
X215530105Y-119495209D01*
X215379786Y-119344890D01*
X215207820Y-119219951D01*
X215018414Y-119123444D01*
X215018413Y-119123443D01*
X215018412Y-119123443D01*
X214816243Y-119057754D01*
X214816241Y-119057753D01*
X214816240Y-119057753D01*
X214654957Y-119032208D01*
X214606287Y-119024500D01*
X214393713Y-119024500D01*
X214345042Y-119032208D01*
X214183760Y-119057753D01*
X213981585Y-119123444D01*
X213792179Y-119219951D01*
X213620213Y-119344890D01*
X213469890Y-119495213D01*
X213344951Y-119667179D01*
X213248444Y-119856585D01*
X213182753Y-120058760D01*
X213173069Y-120119905D01*
X213149500Y-120268713D01*
X207948175Y-120268713D01*
X207288755Y-119697323D01*
X207285462Y-119694365D01*
X206517953Y-118979789D01*
X206514768Y-118976715D01*
X205773284Y-118235231D01*
X205770210Y-118232046D01*
X205055634Y-117464537D01*
X205052676Y-117461244D01*
X204365959Y-116668730D01*
X204363120Y-116665333D01*
X203705116Y-115848800D01*
X203702401Y-115845304D01*
X203073983Y-115005837D01*
X203071407Y-115002266D01*
X202659967Y-114409679D01*
X202473317Y-114140851D01*
X202470858Y-114137170D01*
X202035549Y-113459815D01*
X201995597Y-113397648D01*
X225699500Y-113397648D01*
X225699500Y-113602351D01*
X225731522Y-113804534D01*
X225794781Y-113999223D01*
X225887715Y-114181613D01*
X226008028Y-114347213D01*
X226152786Y-114491971D01*
X226307749Y-114604556D01*
X226318390Y-114612287D01*
X226434607Y-114671503D01*
X226500776Y-114705218D01*
X226500778Y-114705218D01*
X226500781Y-114705220D01*
X226605137Y-114739127D01*
X226695465Y-114768477D01*
X226796557Y-114784488D01*
X226897648Y-114800500D01*
X226897649Y-114800500D01*
X227102351Y-114800500D01*
X227102352Y-114800500D01*
X227304534Y-114768477D01*
X227499219Y-114705220D01*
X227681610Y-114612287D01*
X227775959Y-114543739D01*
X227847213Y-114491971D01*
X227847215Y-114491968D01*
X227847219Y-114491966D01*
X227991966Y-114347219D01*
X227991968Y-114347215D01*
X227991971Y-114347213D01*
X228058025Y-114256296D01*
X228112287Y-114181610D01*
X228205220Y-113999219D01*
X228268477Y-113804534D01*
X228300500Y-113602352D01*
X228300500Y-113530199D01*
X242997000Y-113530199D01*
X242997000Y-113719800D01*
X243026657Y-113907050D01*
X243026658Y-113907055D01*
X243056604Y-113999219D01*
X243085247Y-114087372D01*
X243133266Y-114181613D01*
X243171319Y-114256296D01*
X243282759Y-114409679D01*
X243416821Y-114543741D01*
X243570204Y-114655181D01*
X243650015Y-114695846D01*
X243739127Y-114741252D01*
X243739129Y-114741252D01*
X243739132Y-114741254D01*
X243919445Y-114799842D01*
X244013074Y-114814671D01*
X244106700Y-114829500D01*
X244106704Y-114829500D01*
X244296300Y-114829500D01*
X244379522Y-114816318D01*
X244483555Y-114799842D01*
X244663868Y-114741254D01*
X244832796Y-114655181D01*
X244986179Y-114543741D01*
X245120241Y-114409679D01*
X245231681Y-114256296D01*
X245317754Y-114087368D01*
X245376342Y-113907055D01*
X245396186Y-113781761D01*
X245406000Y-113719800D01*
X245406000Y-113530199D01*
X246997000Y-113530199D01*
X246997000Y-113719800D01*
X247026657Y-113907050D01*
X247026658Y-113907055D01*
X247056604Y-113999219D01*
X247085247Y-114087372D01*
X247133266Y-114181613D01*
X247171319Y-114256296D01*
X247282759Y-114409679D01*
X247416821Y-114543741D01*
X247570204Y-114655181D01*
X247650015Y-114695846D01*
X247739127Y-114741252D01*
X247739129Y-114741252D01*
X247739132Y-114741254D01*
X247919445Y-114799842D01*
X248013074Y-114814671D01*
X248106700Y-114829500D01*
X248106704Y-114829500D01*
X248296300Y-114829500D01*
X248379522Y-114816318D01*
X248483555Y-114799842D01*
X248663868Y-114741254D01*
X248832796Y-114655181D01*
X248986179Y-114543741D01*
X249120241Y-114409679D01*
X249231681Y-114256296D01*
X249317754Y-114087368D01*
X249376342Y-113907055D01*
X249396186Y-113781761D01*
X249406000Y-113719800D01*
X249406000Y-113530199D01*
X249385006Y-113397648D01*
X249376342Y-113342945D01*
X249317754Y-113162632D01*
X249317752Y-113162629D01*
X249317752Y-113162627D01*
X249272346Y-113073515D01*
X249231681Y-112993704D01*
X249120241Y-112840321D01*
X248986179Y-112706259D01*
X248832796Y-112594819D01*
X248782779Y-112569334D01*
X248663872Y-112508747D01*
X248605405Y-112489750D01*
X248483555Y-112450158D01*
X248483551Y-112450157D01*
X248483550Y-112450157D01*
X248296300Y-112420500D01*
X248296296Y-112420500D01*
X248106704Y-112420500D01*
X248106700Y-112420500D01*
X247919449Y-112450157D01*
X247919446Y-112450157D01*
X247919445Y-112450158D01*
X247860982Y-112469153D01*
X247739127Y-112508747D01*
X247570203Y-112594819D01*
X247416819Y-112706260D01*
X247282760Y-112840319D01*
X247171319Y-112993703D01*
X247085247Y-113162627D01*
X247026657Y-113342949D01*
X246997000Y-113530199D01*
X245406000Y-113530199D01*
X245385006Y-113397648D01*
X245376342Y-113342945D01*
X245317754Y-113162632D01*
X245317752Y-113162629D01*
X245317752Y-113162627D01*
X245272346Y-113073515D01*
X245231681Y-112993704D01*
X245120241Y-112840321D01*
X244986179Y-112706259D01*
X244832796Y-112594819D01*
X244782779Y-112569334D01*
X244663872Y-112508747D01*
X244605405Y-112489750D01*
X244483555Y-112450158D01*
X244483551Y-112450157D01*
X244483550Y-112450157D01*
X244296300Y-112420500D01*
X244296296Y-112420500D01*
X244106704Y-112420500D01*
X244106700Y-112420500D01*
X243919449Y-112450157D01*
X243919446Y-112450157D01*
X243919445Y-112450158D01*
X243860982Y-112469153D01*
X243739127Y-112508747D01*
X243570203Y-112594819D01*
X243416819Y-112706260D01*
X243282760Y-112840319D01*
X243171319Y-112993703D01*
X243085247Y-113162627D01*
X243026657Y-113342949D01*
X242997000Y-113530199D01*
X228300500Y-113530199D01*
X228300500Y-113397648D01*
X228268477Y-113195466D01*
X228205220Y-113000781D01*
X228205218Y-113000778D01*
X228205218Y-113000776D01*
X228171503Y-112934607D01*
X228112287Y-112818390D01*
X228102594Y-112805048D01*
X227991971Y-112652786D01*
X227847213Y-112508028D01*
X227681613Y-112387715D01*
X227681612Y-112387714D01*
X227681610Y-112387713D01*
X227606366Y-112349374D01*
X227499223Y-112294781D01*
X227304534Y-112231522D01*
X227129995Y-112203878D01*
X227102352Y-112199500D01*
X226897648Y-112199500D01*
X226873329Y-112203351D01*
X226695465Y-112231522D01*
X226500776Y-112294781D01*
X226318386Y-112387715D01*
X226152786Y-112508028D01*
X226008028Y-112652786D01*
X225887715Y-112818386D01*
X225794781Y-113000776D01*
X225731522Y-113195465D01*
X225699500Y-113397648D01*
X201995597Y-113397648D01*
X201903941Y-113255029D01*
X201901614Y-113251264D01*
X201660698Y-112845222D01*
X201366487Y-112349357D01*
X201364307Y-112345527D01*
X201339452Y-112300009D01*
X200861757Y-111425175D01*
X200859705Y-111421252D01*
X200796181Y-111294347D01*
X200796180Y-111294346D01*
X200770835Y-111243713D01*
X204399500Y-111243713D01*
X204399500Y-111756286D01*
X204432753Y-111966239D01*
X204498444Y-112168414D01*
X204594951Y-112357820D01*
X204719890Y-112529786D01*
X204870213Y-112680109D01*
X205042179Y-112805048D01*
X205042181Y-112805049D01*
X205042184Y-112805051D01*
X205231588Y-112901557D01*
X205433757Y-112967246D01*
X205643713Y-113000500D01*
X205643714Y-113000500D01*
X205856286Y-113000500D01*
X205856287Y-113000500D01*
X206066243Y-112967246D01*
X206268412Y-112901557D01*
X206457816Y-112805051D01*
X206593791Y-112706260D01*
X206629784Y-112680110D01*
X206629784Y-112680109D01*
X206629792Y-112680104D01*
X206768604Y-112541291D01*
X206829923Y-112507809D01*
X206899615Y-112512793D01*
X206955549Y-112554664D01*
X206961821Y-112563878D01*
X206965185Y-112569333D01*
X206965186Y-112569334D01*
X207057288Y-112718656D01*
X207181344Y-112842712D01*
X207330666Y-112934814D01*
X207497203Y-112989999D01*
X207599991Y-113000500D01*
X208900008Y-113000499D01*
X209002797Y-112989999D01*
X209169334Y-112934814D01*
X209318656Y-112842712D01*
X209442712Y-112718656D01*
X209534814Y-112569334D01*
X209589999Y-112402797D01*
X209600500Y-112300009D01*
X209600499Y-110699992D01*
X209589999Y-110597203D01*
X209534814Y-110430666D01*
X209442712Y-110281344D01*
X209318656Y-110157288D01*
X209169334Y-110065186D01*
X209002797Y-110010001D01*
X209002795Y-110010000D01*
X208900010Y-109999500D01*
X207599998Y-109999500D01*
X207599981Y-109999501D01*
X207497203Y-110010000D01*
X207497200Y-110010001D01*
X207330668Y-110065185D01*
X207330663Y-110065187D01*
X207181342Y-110157289D01*
X207057289Y-110281342D01*
X206961821Y-110436121D01*
X206909873Y-110482845D01*
X206840910Y-110494068D01*
X206776828Y-110466224D01*
X206768601Y-110458705D01*
X206629786Y-110319890D01*
X206457820Y-110194951D01*
X206268414Y-110098444D01*
X206268413Y-110098443D01*
X206268412Y-110098443D01*
X206066243Y-110032754D01*
X206066241Y-110032753D01*
X206066240Y-110032753D01*
X205904957Y-110007208D01*
X205856287Y-109999500D01*
X205643713Y-109999500D01*
X205595042Y-110007208D01*
X205433760Y-110032753D01*
X205231585Y-110098444D01*
X205042179Y-110194951D01*
X204870213Y-110319890D01*
X204719890Y-110470213D01*
X204594951Y-110642179D01*
X204498444Y-110831585D01*
X204432753Y-111033760D01*
X204399500Y-111243713D01*
X200770835Y-111243713D01*
X200390298Y-110483497D01*
X200388388Y-110479503D01*
X199952780Y-109525655D01*
X199951013Y-109521597D01*
X199701406Y-108918993D01*
X199549695Y-108552730D01*
X199548105Y-108548688D01*
X199181601Y-107566055D01*
X199180155Y-107561953D01*
X198848991Y-106566963D01*
X198847668Y-106562739D01*
X198760144Y-106264660D01*
X198552219Y-105556531D01*
X198551062Y-105552314D01*
X198291716Y-104536207D01*
X198290701Y-104531911D01*
X198280169Y-104483497D01*
X198067794Y-103507223D01*
X198066934Y-103502902D01*
X198062849Y-103480263D01*
X197880737Y-102470886D01*
X197880032Y-102466529D01*
X197864959Y-102361692D01*
X197787075Y-101820000D01*
X198305138Y-101820000D01*
X199108012Y-101820000D01*
X199090795Y-101829940D01*
X199034940Y-101885795D01*
X198995444Y-101954204D01*
X198975000Y-102030504D01*
X198975000Y-102109496D01*
X198995444Y-102185796D01*
X199034940Y-102254205D01*
X199090795Y-102310060D01*
X199108012Y-102320000D01*
X198305138Y-102320000D01*
X198313430Y-102361690D01*
X198313430Y-102361692D01*
X198388807Y-102543671D01*
X198388814Y-102543684D01*
X198498248Y-102707462D01*
X198498251Y-102707466D01*
X198637533Y-102846748D01*
X198637537Y-102846751D01*
X198801315Y-102956185D01*
X198801328Y-102956192D01*
X198983306Y-103031569D01*
X198983318Y-103031572D01*
X199176504Y-103069999D01*
X199176508Y-103070000D01*
X199425000Y-103070000D01*
X199425000Y-102370000D01*
X199925000Y-102370000D01*
X199925000Y-103070000D01*
X200173492Y-103070000D01*
X200173495Y-103069999D01*
X200366681Y-103031572D01*
X200366693Y-103031569D01*
X200548671Y-102956192D01*
X200548684Y-102956185D01*
X200712462Y-102846751D01*
X200712466Y-102846748D01*
X200851748Y-102707466D01*
X200851751Y-102707462D01*
X200961185Y-102543684D01*
X200961192Y-102543671D01*
X201036569Y-102361692D01*
X201036569Y-102361690D01*
X201044862Y-102320000D01*
X200241988Y-102320000D01*
X200259205Y-102310060D01*
X200315060Y-102254205D01*
X200354556Y-102185796D01*
X200375000Y-102109496D01*
X200375000Y-102030504D01*
X200354556Y-101954204D01*
X200315060Y-101885795D01*
X200259205Y-101829940D01*
X200241988Y-101820000D01*
X201044862Y-101820000D01*
X201036569Y-101778309D01*
X201036569Y-101778307D01*
X200961192Y-101596328D01*
X200961185Y-101596315D01*
X200851751Y-101432537D01*
X200851748Y-101432533D01*
X200712466Y-101293251D01*
X200712462Y-101293248D01*
X200548684Y-101183814D01*
X200548671Y-101183807D01*
X200366693Y-101108430D01*
X200366681Y-101108427D01*
X200173495Y-101070000D01*
X199925000Y-101070000D01*
X199925000Y-101770000D01*
X199425000Y-101770000D01*
X199425000Y-101070000D01*
X199176504Y-101070000D01*
X198983318Y-101108427D01*
X198983306Y-101108430D01*
X198801328Y-101183807D01*
X198801315Y-101183814D01*
X198637537Y-101293248D01*
X198637533Y-101293251D01*
X198498251Y-101432533D01*
X198498248Y-101432537D01*
X198388814Y-101596315D01*
X198388807Y-101596328D01*
X198313430Y-101778307D01*
X198313430Y-101778309D01*
X198305138Y-101820000D01*
X197787075Y-101820000D01*
X197730793Y-101428552D01*
X197730244Y-101424178D01*
X197618141Y-100381464D01*
X197617756Y-100377158D01*
X197588665Y-99970418D01*
X201400235Y-99970418D01*
X201400235Y-100128111D01*
X201430996Y-100282754D01*
X201430999Y-100282766D01*
X201491337Y-100428437D01*
X201491344Y-100428450D01*
X201578945Y-100559553D01*
X201578948Y-100559557D01*
X201690442Y-100671051D01*
X201690446Y-100671054D01*
X201821549Y-100758655D01*
X201821562Y-100758662D01*
X201967233Y-100819000D01*
X201967238Y-100819002D01*
X202087054Y-100842835D01*
X202121888Y-100849764D01*
X202121891Y-100849765D01*
X202121893Y-100849765D01*
X202279579Y-100849765D01*
X202279580Y-100849764D01*
X202434232Y-100819002D01*
X202579914Y-100758659D01*
X202653960Y-100709183D01*
X202658965Y-100705839D01*
X202725642Y-100684961D01*
X202793022Y-100703445D01*
X202839713Y-100755424D01*
X202847629Y-100776844D01*
X202855161Y-100804951D01*
X202865312Y-100842835D01*
X202865313Y-100842838D01*
X202934492Y-100962661D01*
X202939441Y-100969110D01*
X202936813Y-100971125D01*
X202962911Y-101018919D01*
X202957927Y-101088611D01*
X202916055Y-101144544D01*
X202889197Y-101159838D01*
X202831328Y-101183807D01*
X202831315Y-101183814D01*
X202667537Y-101293248D01*
X202667533Y-101293251D01*
X202528251Y-101432533D01*
X202528248Y-101432537D01*
X202418814Y-101596315D01*
X202418807Y-101596328D01*
X202343430Y-101778307D01*
X202343430Y-101778309D01*
X202335138Y-101820000D01*
X203138012Y-101820000D01*
X203120795Y-101829940D01*
X203064940Y-101885795D01*
X203025444Y-101954204D01*
X203005000Y-102030504D01*
X203005000Y-102109496D01*
X203025444Y-102185796D01*
X203064940Y-102254205D01*
X203120795Y-102310060D01*
X203138012Y-102320000D01*
X202335138Y-102320000D01*
X202343430Y-102361690D01*
X202343430Y-102361692D01*
X202418807Y-102543671D01*
X202418814Y-102543684D01*
X202528248Y-102707462D01*
X202528251Y-102707466D01*
X202667533Y-102846748D01*
X202667537Y-102846751D01*
X202831315Y-102956185D01*
X202831328Y-102956192D01*
X203013306Y-103031569D01*
X203013318Y-103031572D01*
X203206504Y-103069999D01*
X203206508Y-103070000D01*
X203605000Y-103070000D01*
X203605000Y-102370000D01*
X204105000Y-102370000D01*
X204105000Y-103070000D01*
X204503492Y-103070000D01*
X204503495Y-103069999D01*
X204696681Y-103031572D01*
X204696693Y-103031569D01*
X204878671Y-102956192D01*
X204878684Y-102956185D01*
X205042462Y-102846751D01*
X205042466Y-102846748D01*
X205181748Y-102707466D01*
X205181751Y-102707462D01*
X205291185Y-102543684D01*
X205291192Y-102543671D01*
X205366569Y-102361692D01*
X205366569Y-102361690D01*
X205374862Y-102320000D01*
X204571988Y-102320000D01*
X204589205Y-102310060D01*
X204645060Y-102254205D01*
X204684556Y-102185796D01*
X204705000Y-102109496D01*
X204705000Y-102030504D01*
X204684556Y-101954204D01*
X204645060Y-101885795D01*
X204589205Y-101829940D01*
X204571988Y-101820000D01*
X205374863Y-101820000D01*
X205368722Y-101789127D01*
X205374949Y-101719536D01*
X205417812Y-101664358D01*
X205483702Y-101641114D01*
X205551699Y-101657182D01*
X205578020Y-101677255D01*
X210165425Y-106264660D01*
X210198910Y-106325983D01*
X210199361Y-106328149D01*
X210230261Y-106483491D01*
X210230264Y-106483501D01*
X210290602Y-106629172D01*
X210290609Y-106629185D01*
X210378210Y-106760288D01*
X210378213Y-106760292D01*
X210489707Y-106871786D01*
X210489711Y-106871789D01*
X210620814Y-106959390D01*
X210620827Y-106959397D01*
X210766498Y-107019735D01*
X210766503Y-107019737D01*
X210921153Y-107050499D01*
X210921156Y-107050500D01*
X210921158Y-107050500D01*
X211078844Y-107050500D01*
X211078845Y-107050499D01*
X211233497Y-107019737D01*
X211379179Y-106959394D01*
X211510289Y-106871789D01*
X211621789Y-106760289D01*
X211709394Y-106629179D01*
X211769737Y-106483497D01*
X211800500Y-106328842D01*
X211800500Y-106171158D01*
X211800500Y-106171155D01*
X211800499Y-106171153D01*
X211769738Y-106016510D01*
X211769737Y-106016503D01*
X211709394Y-105870821D01*
X211674694Y-105818889D01*
X211653816Y-105752215D01*
X211672300Y-105684835D01*
X211674676Y-105681136D01*
X211709394Y-105629179D01*
X211769737Y-105483497D01*
X211800500Y-105328842D01*
X211800500Y-105171158D01*
X211800500Y-105171155D01*
X211800499Y-105171153D01*
X211769738Y-105016510D01*
X211769737Y-105016503D01*
X211756290Y-104984041D01*
X211748821Y-104914573D01*
X211780095Y-104852093D01*
X211783143Y-104848934D01*
X211871789Y-104760289D01*
X211959394Y-104629179D01*
X212019737Y-104483497D01*
X212050500Y-104328842D01*
X212050500Y-104171158D01*
X212050500Y-104171155D01*
X212050499Y-104171153D01*
X212019738Y-104016510D01*
X212019737Y-104016503D01*
X212019735Y-104016498D01*
X211959397Y-103870827D01*
X211959390Y-103870814D01*
X211871789Y-103739711D01*
X211871786Y-103739707D01*
X211760292Y-103628213D01*
X211760288Y-103628210D01*
X211629185Y-103540609D01*
X211629172Y-103540602D01*
X211483501Y-103480264D01*
X211483491Y-103480261D01*
X211328149Y-103449361D01*
X211266238Y-103416976D01*
X211264660Y-103415425D01*
X208136819Y-100287584D01*
X208103334Y-100226261D01*
X208100500Y-100199903D01*
X208100500Y-99170945D01*
X208100499Y-99170941D01*
X208082498Y-99103760D01*
X208070842Y-99060256D01*
X208059577Y-99018215D01*
X208030639Y-98968095D01*
X207980520Y-98881284D01*
X207868716Y-98769480D01*
X207868715Y-98769479D01*
X207864385Y-98765149D01*
X207864374Y-98765139D01*
X207584574Y-98485339D01*
X207551089Y-98424016D01*
X207550638Y-98421849D01*
X207525362Y-98294781D01*
X207519737Y-98266503D01*
X207505248Y-98231522D01*
X207459397Y-98120827D01*
X207459390Y-98120814D01*
X207371789Y-97989711D01*
X207371786Y-97989707D01*
X207260292Y-97878213D01*
X207260288Y-97878210D01*
X207129185Y-97790609D01*
X207129172Y-97790602D01*
X206983501Y-97730264D01*
X206983489Y-97730261D01*
X206828845Y-97699500D01*
X206828842Y-97699500D01*
X206671158Y-97699500D01*
X206671155Y-97699500D01*
X206516510Y-97730261D01*
X206516498Y-97730264D01*
X206370827Y-97790602D01*
X206370814Y-97790609D01*
X206239711Y-97878210D01*
X206239707Y-97878213D01*
X206128213Y-97989707D01*
X206128210Y-97989711D01*
X206040609Y-98120814D01*
X206040602Y-98120827D01*
X205980264Y-98266498D01*
X205980261Y-98266508D01*
X205963577Y-98350383D01*
X205931191Y-98412294D01*
X205870475Y-98446868D01*
X205834934Y-98449253D01*
X205834934Y-98449500D01*
X205831254Y-98449500D01*
X205829823Y-98449596D01*
X205828847Y-98449500D01*
X205828842Y-98449500D01*
X205671158Y-98449500D01*
X205671155Y-98449500D01*
X205516510Y-98480261D01*
X205516498Y-98480264D01*
X205370827Y-98540602D01*
X205370814Y-98540609D01*
X205239711Y-98628210D01*
X205239707Y-98628213D01*
X205128213Y-98739707D01*
X205128210Y-98739711D01*
X205040609Y-98870814D01*
X205040602Y-98870827D01*
X204980264Y-99016498D01*
X204980261Y-99016510D01*
X204949500Y-99171153D01*
X204949500Y-99328846D01*
X204980261Y-99483489D01*
X204980264Y-99483501D01*
X205040602Y-99629172D01*
X205040609Y-99629185D01*
X205128602Y-99760874D01*
X205149480Y-99827551D01*
X205149500Y-99829765D01*
X205149500Y-100920939D01*
X205149499Y-100920943D01*
X205149499Y-101079057D01*
X205160833Y-101121355D01*
X205161527Y-101134296D01*
X205156352Y-101156196D01*
X205155817Y-101178694D01*
X205148473Y-101189543D01*
X205145461Y-101202294D01*
X205129266Y-101217921D01*
X205116653Y-101236556D01*
X205104609Y-101241713D01*
X205095182Y-101250810D01*
X205073111Y-101255200D01*
X205052425Y-101264059D01*
X205039505Y-101261886D01*
X205026655Y-101264443D01*
X205005712Y-101256203D01*
X204983522Y-101252472D01*
X204968814Y-101244038D01*
X204878683Y-101183814D01*
X204878671Y-101183807D01*
X204696693Y-101108430D01*
X204696681Y-101108427D01*
X204503495Y-101070000D01*
X204105000Y-101070000D01*
X204105000Y-101770000D01*
X203605000Y-101770000D01*
X203605000Y-101174049D01*
X203624685Y-101107010D01*
X203641870Y-101085820D01*
X203653203Y-101074627D01*
X203677665Y-101060505D01*
X203775505Y-100962665D01*
X203844688Y-100842836D01*
X203880500Y-100709183D01*
X203880500Y-100570817D01*
X203844688Y-100437164D01*
X203810014Y-100377106D01*
X203775507Y-100317338D01*
X203775503Y-100317333D01*
X203677666Y-100219496D01*
X203677661Y-100219492D01*
X203612856Y-100182077D01*
X203564640Y-100131510D01*
X203551417Y-100062903D01*
X203577386Y-99998038D01*
X203624034Y-99962685D01*
X203623809Y-99962264D01*
X203626459Y-99960847D01*
X203627410Y-99960126D01*
X203629179Y-99959394D01*
X203760289Y-99871789D01*
X203871789Y-99760289D01*
X203959394Y-99629179D01*
X204019737Y-99483497D01*
X204050500Y-99328842D01*
X204050500Y-99171158D01*
X204050500Y-99171155D01*
X204050499Y-99171153D01*
X204050457Y-99170941D01*
X204019737Y-99016503D01*
X203963729Y-98881286D01*
X203959397Y-98870827D01*
X203959390Y-98870814D01*
X203871789Y-98739711D01*
X203871786Y-98739707D01*
X203760292Y-98628213D01*
X203760288Y-98628210D01*
X203629185Y-98540609D01*
X203629172Y-98540602D01*
X203483501Y-98480264D01*
X203483489Y-98480261D01*
X203328845Y-98449500D01*
X203328842Y-98449500D01*
X203171158Y-98449500D01*
X203171155Y-98449500D01*
X203016510Y-98480261D01*
X203016498Y-98480264D01*
X202870827Y-98540602D01*
X202870814Y-98540609D01*
X202739711Y-98628210D01*
X202739707Y-98628213D01*
X202628217Y-98739704D01*
X202628211Y-98739711D01*
X202568860Y-98828534D01*
X202553445Y-98847317D01*
X202519480Y-98881284D01*
X202186074Y-99214690D01*
X202124751Y-99248175D01*
X202122585Y-99248626D01*
X201967243Y-99279526D01*
X201967233Y-99279529D01*
X201821562Y-99339867D01*
X201821549Y-99339874D01*
X201690446Y-99427475D01*
X201690442Y-99427478D01*
X201578948Y-99538972D01*
X201578945Y-99538976D01*
X201491344Y-99670079D01*
X201491337Y-99670092D01*
X201430999Y-99815763D01*
X201430996Y-99815775D01*
X201400235Y-99970418D01*
X197588665Y-99970418D01*
X197542943Y-99331146D01*
X197542707Y-99326730D01*
X197539922Y-99248765D01*
X197505278Y-98278748D01*
X197505199Y-98274322D01*
X197505199Y-97225677D01*
X197505278Y-97221251D01*
X197521262Y-96773713D01*
X238649500Y-96773713D01*
X238649500Y-96986287D01*
X238682754Y-97196243D01*
X238691598Y-97223463D01*
X238748444Y-97398414D01*
X238844951Y-97587820D01*
X238969890Y-97759786D01*
X239120213Y-97910109D01*
X239292182Y-98035050D01*
X239300946Y-98039516D01*
X239351742Y-98087491D01*
X239368536Y-98155312D01*
X239345998Y-98221447D01*
X239300946Y-98260484D01*
X239292182Y-98264949D01*
X239120213Y-98389890D01*
X238969890Y-98540213D01*
X238844951Y-98712179D01*
X238748444Y-98901585D01*
X238682753Y-99103760D01*
X238649500Y-99313713D01*
X238649500Y-99526286D01*
X238672276Y-99670092D01*
X238682754Y-99736243D01*
X238713141Y-99829765D01*
X238748444Y-99938414D01*
X238844951Y-100127820D01*
X238969890Y-100299786D01*
X239120213Y-100450109D01*
X239292182Y-100575050D01*
X239300946Y-100579516D01*
X239351742Y-100627491D01*
X239368536Y-100695312D01*
X239345998Y-100761447D01*
X239300946Y-100800484D01*
X239292182Y-100804949D01*
X239120213Y-100929890D01*
X238969890Y-101080213D01*
X238844951Y-101252179D01*
X238748444Y-101441585D01*
X238682753Y-101643760D01*
X238649500Y-101853713D01*
X238649500Y-102066286D01*
X238668428Y-102185796D01*
X238682754Y-102276243D01*
X238745295Y-102468725D01*
X238748444Y-102478414D01*
X238844951Y-102667820D01*
X238969890Y-102839786D01*
X239083430Y-102953326D01*
X239116915Y-103014649D01*
X239111931Y-103084341D01*
X239070059Y-103140274D01*
X239039083Y-103157189D01*
X238907669Y-103206203D01*
X238907664Y-103206206D01*
X238792455Y-103292452D01*
X238792452Y-103292455D01*
X238706206Y-103407664D01*
X238706202Y-103407671D01*
X238655908Y-103542517D01*
X238649501Y-103602116D01*
X238649501Y-103602123D01*
X238649500Y-103602135D01*
X238649500Y-105397870D01*
X238649501Y-105397876D01*
X238655908Y-105457483D01*
X238706202Y-105592328D01*
X238706206Y-105592335D01*
X238792452Y-105707544D01*
X238792455Y-105707547D01*
X238907664Y-105793793D01*
X238907671Y-105793797D01*
X239042517Y-105844091D01*
X239042516Y-105844091D01*
X239049444Y-105844835D01*
X239102127Y-105850500D01*
X240897872Y-105850499D01*
X240957483Y-105844091D01*
X241092331Y-105793796D01*
X241207546Y-105707546D01*
X241293796Y-105592331D01*
X241344091Y-105457483D01*
X241350500Y-105397873D01*
X241350499Y-103602128D01*
X241344091Y-103542517D01*
X241343379Y-103540609D01*
X241293797Y-103407671D01*
X241293793Y-103407664D01*
X241207547Y-103292455D01*
X241207544Y-103292452D01*
X241092335Y-103206206D01*
X241092328Y-103206202D01*
X240960917Y-103157189D01*
X240904983Y-103115318D01*
X240880566Y-103049853D01*
X240895418Y-102981580D01*
X240916563Y-102953332D01*
X241030104Y-102839792D01*
X241155051Y-102667816D01*
X241251557Y-102478412D01*
X241317246Y-102276243D01*
X241350500Y-102066287D01*
X241350500Y-101853713D01*
X241317246Y-101643757D01*
X241251557Y-101441588D01*
X241155051Y-101252184D01*
X241155049Y-101252181D01*
X241155048Y-101252179D01*
X241030109Y-101080213D01*
X240879786Y-100929890D01*
X240707820Y-100804951D01*
X240707115Y-100804591D01*
X240699054Y-100800485D01*
X240648259Y-100752512D01*
X240631463Y-100684692D01*
X240653999Y-100618556D01*
X240699054Y-100579515D01*
X240707816Y-100575051D01*
X240822167Y-100491971D01*
X240879786Y-100450109D01*
X240879788Y-100450106D01*
X240879792Y-100450104D01*
X241030104Y-100299792D01*
X241030106Y-100299788D01*
X241030109Y-100299786D01*
X241154837Y-100128111D01*
X241155051Y-100127816D01*
X241251557Y-99938412D01*
X241317246Y-99736243D01*
X241350500Y-99526287D01*
X241350500Y-99397648D01*
X243199500Y-99397648D01*
X243199500Y-99602351D01*
X243231522Y-99804534D01*
X243294781Y-99999223D01*
X243387715Y-100181613D01*
X243508028Y-100347213D01*
X243652786Y-100491971D01*
X243773281Y-100579514D01*
X243818390Y-100612287D01*
X243933721Y-100671051D01*
X244000776Y-100705218D01*
X244000778Y-100705218D01*
X244000781Y-100705220D01*
X244105137Y-100739127D01*
X244195465Y-100768477D01*
X244296557Y-100784488D01*
X244397648Y-100800500D01*
X244397649Y-100800500D01*
X244602351Y-100800500D01*
X244602352Y-100800500D01*
X244804534Y-100768477D01*
X244999219Y-100705220D01*
X245181610Y-100612287D01*
X245288561Y-100534583D01*
X245347213Y-100491971D01*
X245347215Y-100491968D01*
X245347219Y-100491966D01*
X245491966Y-100347219D01*
X245491968Y-100347215D01*
X245491971Y-100347213D01*
X245598996Y-100199903D01*
X245612287Y-100181610D01*
X245705220Y-99999219D01*
X245768477Y-99804534D01*
X245800500Y-99602352D01*
X245800500Y-99397648D01*
X245787206Y-99313713D01*
X245768477Y-99195465D01*
X245724545Y-99060257D01*
X245705220Y-99000781D01*
X245705218Y-99000778D01*
X245705218Y-99000776D01*
X245671503Y-98934607D01*
X245612287Y-98818390D01*
X245576751Y-98769478D01*
X245491971Y-98652786D01*
X245347213Y-98508028D01*
X245181613Y-98387715D01*
X245181612Y-98387714D01*
X245181610Y-98387713D01*
X245108346Y-98350383D01*
X244999223Y-98294781D01*
X244804534Y-98231522D01*
X244629995Y-98203878D01*
X244602352Y-98199500D01*
X244397648Y-98199500D01*
X244373329Y-98203351D01*
X244195465Y-98231522D01*
X244000776Y-98294781D01*
X243818386Y-98387715D01*
X243652786Y-98508028D01*
X243508028Y-98652786D01*
X243387715Y-98818386D01*
X243294781Y-99000776D01*
X243231522Y-99195465D01*
X243199500Y-99397648D01*
X241350500Y-99397648D01*
X241350500Y-99313713D01*
X241317246Y-99103757D01*
X241251557Y-98901588D01*
X241155051Y-98712184D01*
X241155049Y-98712181D01*
X241155048Y-98712179D01*
X241030109Y-98540213D01*
X240879786Y-98389890D01*
X240707820Y-98264951D01*
X240707115Y-98264591D01*
X240699054Y-98260485D01*
X240648259Y-98212512D01*
X240631463Y-98144692D01*
X240653999Y-98078556D01*
X240699054Y-98039515D01*
X240707816Y-98035051D01*
X240770227Y-97989707D01*
X240879786Y-97910109D01*
X240879788Y-97910106D01*
X240879792Y-97910104D01*
X241030104Y-97759792D01*
X241030106Y-97759788D01*
X241030109Y-97759786D01*
X241155048Y-97587820D01*
X241155047Y-97587820D01*
X241155051Y-97587816D01*
X241251557Y-97398412D01*
X241317246Y-97196243D01*
X241350500Y-96986287D01*
X241350500Y-96773713D01*
X241317246Y-96563757D01*
X241251557Y-96361588D01*
X241155051Y-96172184D01*
X241155049Y-96172181D01*
X241155048Y-96172179D01*
X241030109Y-96000213D01*
X240879786Y-95849890D01*
X240707820Y-95724951D01*
X240518414Y-95628444D01*
X240518413Y-95628443D01*
X240518412Y-95628443D01*
X240316243Y-95562754D01*
X240316241Y-95562753D01*
X240316240Y-95562753D01*
X240154957Y-95537208D01*
X240106287Y-95529500D01*
X239893713Y-95529500D01*
X239845042Y-95537208D01*
X239683760Y-95562753D01*
X239481585Y-95628444D01*
X239292179Y-95724951D01*
X239120213Y-95849890D01*
X238969890Y-96000213D01*
X238844951Y-96172179D01*
X238748444Y-96361585D01*
X238682753Y-96563760D01*
X238650973Y-96764415D01*
X238649500Y-96773713D01*
X197521262Y-96773713D01*
X197521594Y-96764415D01*
X197542707Y-96173263D01*
X197542944Y-96168849D01*
X197617757Y-95122836D01*
X197618140Y-95118540D01*
X197730247Y-94075796D01*
X197730796Y-94071429D01*
X197731366Y-94067466D01*
X197858964Y-93180000D01*
X198305138Y-93180000D01*
X199108012Y-93180000D01*
X199090795Y-93189940D01*
X199034940Y-93245795D01*
X198995444Y-93314204D01*
X198975000Y-93390504D01*
X198975000Y-93469496D01*
X198995444Y-93545796D01*
X199034940Y-93614205D01*
X199090795Y-93670060D01*
X199108012Y-93680000D01*
X198305138Y-93680000D01*
X198313430Y-93721690D01*
X198313430Y-93721692D01*
X198388807Y-93903671D01*
X198388814Y-93903684D01*
X198498248Y-94067462D01*
X198498251Y-94067466D01*
X198637533Y-94206748D01*
X198637537Y-94206751D01*
X198801315Y-94316185D01*
X198801328Y-94316192D01*
X198983306Y-94391569D01*
X198983318Y-94391572D01*
X199176504Y-94429999D01*
X199176508Y-94430000D01*
X199425000Y-94430000D01*
X199425000Y-93730000D01*
X199925000Y-93730000D01*
X199925000Y-94430000D01*
X200173492Y-94430000D01*
X200173495Y-94429999D01*
X200366681Y-94391572D01*
X200366693Y-94391569D01*
X200548671Y-94316192D01*
X200548684Y-94316185D01*
X200712462Y-94206751D01*
X200712466Y-94206748D01*
X200851748Y-94067466D01*
X200851751Y-94067462D01*
X200961185Y-93903684D01*
X200961192Y-93903671D01*
X201036569Y-93721692D01*
X201036569Y-93721690D01*
X201044862Y-93680000D01*
X200241988Y-93680000D01*
X200259205Y-93670060D01*
X200315060Y-93614205D01*
X200354556Y-93545796D01*
X200375000Y-93469496D01*
X200375000Y-93390504D01*
X200354556Y-93314204D01*
X200315060Y-93245795D01*
X200259205Y-93189940D01*
X200241988Y-93180000D01*
X201044862Y-93180000D01*
X202335138Y-93180000D01*
X203138012Y-93180000D01*
X203120795Y-93189940D01*
X203064940Y-93245795D01*
X203025444Y-93314204D01*
X203005000Y-93390504D01*
X203005000Y-93469496D01*
X203025444Y-93545796D01*
X203064940Y-93614205D01*
X203120795Y-93670060D01*
X203138012Y-93680000D01*
X202335138Y-93680000D01*
X202343430Y-93721690D01*
X202343430Y-93721692D01*
X202418807Y-93903671D01*
X202418814Y-93903684D01*
X202528248Y-94067462D01*
X202528251Y-94067466D01*
X202667533Y-94206748D01*
X202667537Y-94206751D01*
X202831315Y-94316185D01*
X202831322Y-94316189D01*
X202889196Y-94340160D01*
X202943600Y-94384000D01*
X202965666Y-94450294D01*
X202948388Y-94517994D01*
X202938774Y-94530378D01*
X202939441Y-94530890D01*
X202934492Y-94537338D01*
X202865313Y-94657161D01*
X202865312Y-94657164D01*
X202829500Y-94790817D01*
X202829500Y-94929182D01*
X202865312Y-95062835D01*
X202865313Y-95062838D01*
X202934492Y-95182661D01*
X202934494Y-95182664D01*
X202934495Y-95182665D01*
X203032335Y-95280505D01*
X203152164Y-95349688D01*
X203285817Y-95385500D01*
X203285819Y-95385500D01*
X203424181Y-95385500D01*
X203424183Y-95385500D01*
X203557836Y-95349688D01*
X203677665Y-95280505D01*
X203775505Y-95182665D01*
X203844688Y-95062836D01*
X203880500Y-94929183D01*
X203880500Y-94790817D01*
X203844688Y-94657164D01*
X203775505Y-94537335D01*
X203677665Y-94439495D01*
X203677664Y-94439494D01*
X203666999Y-94433337D01*
X203618784Y-94382769D01*
X203605000Y-94325950D01*
X203605000Y-93730000D01*
X204105000Y-93730000D01*
X204105000Y-94430000D01*
X204503492Y-94430000D01*
X204503495Y-94429999D01*
X204696681Y-94391572D01*
X204696693Y-94391569D01*
X204878671Y-94316192D01*
X204878684Y-94316185D01*
X205042462Y-94206751D01*
X205042466Y-94206748D01*
X205181748Y-94067466D01*
X205181751Y-94067462D01*
X205291185Y-93903684D01*
X205291192Y-93903671D01*
X205366569Y-93721692D01*
X205366569Y-93721690D01*
X205374862Y-93680000D01*
X204571988Y-93680000D01*
X204589205Y-93670060D01*
X204645060Y-93614205D01*
X204684556Y-93545796D01*
X204705000Y-93469496D01*
X204705000Y-93390504D01*
X204684556Y-93314204D01*
X204645060Y-93245795D01*
X204589205Y-93189940D01*
X204571988Y-93180000D01*
X205374862Y-93180000D01*
X205366569Y-93138309D01*
X205366569Y-93138307D01*
X205291192Y-92956328D01*
X205291185Y-92956315D01*
X205181751Y-92792537D01*
X205181748Y-92792533D01*
X205042466Y-92653251D01*
X205042462Y-92653248D01*
X204878684Y-92543814D01*
X204878671Y-92543807D01*
X204696693Y-92468430D01*
X204696681Y-92468427D01*
X204503495Y-92430000D01*
X204105000Y-92430000D01*
X204105000Y-93130000D01*
X203605000Y-93130000D01*
X203605000Y-92430000D01*
X203206504Y-92430000D01*
X203013318Y-92468427D01*
X203013306Y-92468430D01*
X202831328Y-92543807D01*
X202831315Y-92543814D01*
X202667537Y-92653248D01*
X202667533Y-92653251D01*
X202528251Y-92792533D01*
X202528248Y-92792537D01*
X202418814Y-92956315D01*
X202418807Y-92956328D01*
X202343430Y-93138307D01*
X202343430Y-93138309D01*
X202335138Y-93180000D01*
X201044862Y-93180000D01*
X201036569Y-93138309D01*
X201036569Y-93138307D01*
X200961192Y-92956328D01*
X200961185Y-92956315D01*
X200851751Y-92792537D01*
X200851748Y-92792533D01*
X200712466Y-92653251D01*
X200712462Y-92653248D01*
X200548684Y-92543814D01*
X200548671Y-92543807D01*
X200366693Y-92468430D01*
X200366681Y-92468427D01*
X200173495Y-92430000D01*
X199925000Y-92430000D01*
X199925000Y-93130000D01*
X199425000Y-93130000D01*
X199425000Y-92430000D01*
X199176504Y-92430000D01*
X198983318Y-92468427D01*
X198983306Y-92468430D01*
X198801328Y-92543807D01*
X198801315Y-92543814D01*
X198637537Y-92653248D01*
X198637533Y-92653251D01*
X198498251Y-92792533D01*
X198498248Y-92792537D01*
X198388814Y-92956315D01*
X198388807Y-92956328D01*
X198313430Y-93138307D01*
X198313430Y-93138309D01*
X198305138Y-93180000D01*
X197858964Y-93180000D01*
X197880035Y-93033447D01*
X197880740Y-93029100D01*
X198063034Y-92018713D01*
X244649500Y-92018713D01*
X244649500Y-92481286D01*
X244676736Y-92653251D01*
X244682754Y-92691243D01*
X244715665Y-92792533D01*
X244748444Y-92893414D01*
X244844951Y-93082820D01*
X244969890Y-93254786D01*
X245120213Y-93405109D01*
X245292179Y-93530048D01*
X245292181Y-93530049D01*
X245292184Y-93530051D01*
X245481588Y-93626557D01*
X245683757Y-93692246D01*
X245893713Y-93725500D01*
X245893714Y-93725500D01*
X246106286Y-93725500D01*
X246106287Y-93725500D01*
X246316243Y-93692246D01*
X246518412Y-93626557D01*
X246707816Y-93530051D01*
X246729789Y-93514086D01*
X246879786Y-93405109D01*
X246879788Y-93405106D01*
X246879792Y-93405104D01*
X247030104Y-93254792D01*
X247149683Y-93090204D01*
X247205011Y-93047540D01*
X247274624Y-93041561D01*
X247336420Y-93074166D01*
X247350313Y-93090199D01*
X247415557Y-93180000D01*
X247469896Y-93254792D01*
X247620213Y-93405109D01*
X247792179Y-93530048D01*
X247792181Y-93530049D01*
X247792184Y-93530051D01*
X247981588Y-93626557D01*
X248183757Y-93692246D01*
X248393713Y-93725500D01*
X248393714Y-93725500D01*
X248606286Y-93725500D01*
X248606287Y-93725500D01*
X248816243Y-93692246D01*
X249018412Y-93626557D01*
X249207816Y-93530051D01*
X249291163Y-93469496D01*
X249379784Y-93405110D01*
X249379784Y-93405109D01*
X249379792Y-93405104D01*
X249518967Y-93265928D01*
X249580286Y-93232446D01*
X249649978Y-93237430D01*
X249705912Y-93279301D01*
X249712184Y-93288515D01*
X249807684Y-93443345D01*
X249931654Y-93567315D01*
X250080875Y-93659356D01*
X250080880Y-93659358D01*
X250247302Y-93714505D01*
X250247309Y-93714506D01*
X250350019Y-93724999D01*
X250749999Y-93724999D01*
X250750000Y-93724998D01*
X250750000Y-92654145D01*
X250816657Y-92692630D01*
X250937465Y-92725000D01*
X251062535Y-92725000D01*
X251183343Y-92692630D01*
X251250000Y-92654145D01*
X251250000Y-93724999D01*
X251649972Y-93724999D01*
X251649986Y-93724998D01*
X251752697Y-93714505D01*
X251919119Y-93659358D01*
X251919124Y-93659356D01*
X252068345Y-93567315D01*
X252192315Y-93443345D01*
X252284356Y-93294124D01*
X252284358Y-93294119D01*
X252339505Y-93127697D01*
X252339506Y-93127690D01*
X252349999Y-93024986D01*
X252350000Y-93024973D01*
X252350000Y-92500000D01*
X251404146Y-92500000D01*
X251442630Y-92433343D01*
X251475000Y-92312535D01*
X251475000Y-92187465D01*
X251442630Y-92066657D01*
X251404146Y-92000000D01*
X252349999Y-92000000D01*
X252349999Y-91475028D01*
X252349998Y-91475013D01*
X252339505Y-91372302D01*
X252284358Y-91205880D01*
X252284356Y-91205875D01*
X252192315Y-91056654D01*
X252068345Y-90932684D01*
X251919124Y-90840643D01*
X251919119Y-90840641D01*
X251752697Y-90785494D01*
X251752690Y-90785493D01*
X251649986Y-90775000D01*
X251250000Y-90775000D01*
X251250000Y-91845854D01*
X251183343Y-91807370D01*
X251062535Y-91775000D01*
X250937465Y-91775000D01*
X250816657Y-91807370D01*
X250750000Y-91845854D01*
X250750000Y-90775000D01*
X250350028Y-90775000D01*
X250350012Y-90775001D01*
X250247302Y-90785494D01*
X250080880Y-90840641D01*
X250080875Y-90840643D01*
X249931654Y-90932684D01*
X249807683Y-91056655D01*
X249807680Y-91056659D01*
X249712183Y-91211484D01*
X249660235Y-91258209D01*
X249591273Y-91269430D01*
X249527191Y-91241587D01*
X249518964Y-91234068D01*
X249379786Y-91094890D01*
X249207820Y-90969951D01*
X249018414Y-90873444D01*
X249018413Y-90873443D01*
X249018412Y-90873443D01*
X248816243Y-90807754D01*
X248816241Y-90807753D01*
X248816240Y-90807753D01*
X248654957Y-90782208D01*
X248606287Y-90774500D01*
X248393713Y-90774500D01*
X248345042Y-90782208D01*
X248183760Y-90807753D01*
X247981585Y-90873444D01*
X247792179Y-90969951D01*
X247620213Y-91094890D01*
X247469894Y-91245209D01*
X247469890Y-91245214D01*
X247350318Y-91409793D01*
X247294989Y-91452459D01*
X247225375Y-91458438D01*
X247163580Y-91425833D01*
X247149682Y-91409793D01*
X247030109Y-91245214D01*
X247030105Y-91245209D01*
X246879786Y-91094890D01*
X246707820Y-90969951D01*
X246518414Y-90873444D01*
X246518413Y-90873443D01*
X246518412Y-90873443D01*
X246316243Y-90807754D01*
X246316241Y-90807753D01*
X246316240Y-90807753D01*
X246154957Y-90782208D01*
X246106287Y-90774500D01*
X245893713Y-90774500D01*
X245845042Y-90782208D01*
X245683760Y-90807753D01*
X245481585Y-90873444D01*
X245292179Y-90969951D01*
X245120213Y-91094890D01*
X244969890Y-91245213D01*
X244844951Y-91417179D01*
X244748444Y-91606585D01*
X244682753Y-91808760D01*
X244649500Y-92018713D01*
X198063034Y-92018713D01*
X198066940Y-91997066D01*
X198067782Y-91992829D01*
X198290706Y-90968063D01*
X198291719Y-90963780D01*
X198314777Y-90873443D01*
X198506405Y-90122648D01*
X205424500Y-90122648D01*
X205424500Y-90327351D01*
X205456522Y-90529534D01*
X205519781Y-90724223D01*
X205612715Y-90906613D01*
X205733028Y-91072213D01*
X205877786Y-91216971D01*
X206032749Y-91329556D01*
X206043390Y-91337287D01*
X206112111Y-91372302D01*
X206225776Y-91430218D01*
X206225778Y-91430218D01*
X206225781Y-91430220D01*
X206294226Y-91452459D01*
X206420465Y-91493477D01*
X206521557Y-91509488D01*
X206622648Y-91525500D01*
X206622649Y-91525500D01*
X206827351Y-91525500D01*
X206827352Y-91525500D01*
X207029534Y-91493477D01*
X207224219Y-91430220D01*
X207406610Y-91337287D01*
X207500008Y-91269430D01*
X207572213Y-91216971D01*
X207572215Y-91216968D01*
X207572219Y-91216966D01*
X207716966Y-91072219D01*
X207716968Y-91072215D01*
X207716971Y-91072213D01*
X207818343Y-90932684D01*
X207837287Y-90906610D01*
X207930220Y-90724219D01*
X207993477Y-90529534D01*
X208025500Y-90327352D01*
X208025500Y-90122648D01*
X207993477Y-89920466D01*
X207930220Y-89725781D01*
X207930218Y-89725778D01*
X207930218Y-89725776D01*
X207896503Y-89659607D01*
X207837287Y-89543390D01*
X207829556Y-89532749D01*
X207716971Y-89377786D01*
X207572213Y-89233028D01*
X207406613Y-89112715D01*
X207406612Y-89112714D01*
X207406610Y-89112713D01*
X207349653Y-89083691D01*
X207224223Y-89019781D01*
X207029534Y-88956522D01*
X206854995Y-88928878D01*
X206827352Y-88924500D01*
X206622648Y-88924500D01*
X206598329Y-88928351D01*
X206420465Y-88956522D01*
X206225776Y-89019781D01*
X206043386Y-89112715D01*
X205877786Y-89233028D01*
X205733028Y-89377786D01*
X205612715Y-89543386D01*
X205519781Y-89725776D01*
X205456522Y-89920465D01*
X205424500Y-90122648D01*
X198506405Y-90122648D01*
X198551065Y-89947671D01*
X198552214Y-89943482D01*
X198847672Y-88937246D01*
X198848991Y-88933036D01*
X198851832Y-88924500D01*
X199180161Y-87938029D01*
X199181594Y-87933962D01*
X199548112Y-86951292D01*
X199549688Y-86947288D01*
X199951016Y-85978395D01*
X199952780Y-85974344D01*
X200388388Y-85020496D01*
X200390298Y-85016502D01*
X200859705Y-84078746D01*
X200861757Y-84074824D01*
X201364330Y-83154431D01*
X201366473Y-83150665D01*
X201901622Y-82248721D01*
X201903916Y-82245008D01*
X202112045Y-81921153D01*
X208949500Y-81921153D01*
X208949500Y-82078846D01*
X208980261Y-82233489D01*
X208980264Y-82233501D01*
X209040602Y-82379172D01*
X209040609Y-82379185D01*
X209128210Y-82510288D01*
X209128213Y-82510292D01*
X209239707Y-82621786D01*
X209239711Y-82621789D01*
X209370814Y-82709390D01*
X209370827Y-82709397D01*
X209516498Y-82769735D01*
X209516503Y-82769737D01*
X209671153Y-82800499D01*
X209671156Y-82800500D01*
X209671158Y-82800500D01*
X209828844Y-82800500D01*
X209828845Y-82800499D01*
X209983497Y-82769737D01*
X210129179Y-82709394D01*
X210260289Y-82621789D01*
X210371789Y-82510289D01*
X210459394Y-82379179D01*
X210519737Y-82233497D01*
X210539113Y-82136085D01*
X210550638Y-82078150D01*
X210583023Y-82016239D01*
X210584518Y-82014716D01*
X210943121Y-81656114D01*
X211004444Y-81622629D01*
X211030802Y-81619795D01*
X214857733Y-81619795D01*
X214924772Y-81639480D01*
X214926624Y-81640693D01*
X215058313Y-81728685D01*
X215058326Y-81728692D01*
X215186846Y-81781926D01*
X215204002Y-81789032D01*
X215358652Y-81819794D01*
X215358655Y-81819795D01*
X215358657Y-81819795D01*
X215516343Y-81819795D01*
X215516344Y-81819794D01*
X215670996Y-81789032D01*
X215816678Y-81728689D01*
X215947788Y-81641084D01*
X216059288Y-81529584D01*
X216146893Y-81398474D01*
X216207236Y-81252792D01*
X216237999Y-81098137D01*
X216237999Y-80940453D01*
X216230466Y-80902580D01*
X236430052Y-80902580D01*
X236430052Y-81060273D01*
X236460813Y-81214916D01*
X236460816Y-81214928D01*
X236521154Y-81360599D01*
X236521161Y-81360612D01*
X236608762Y-81491715D01*
X236608765Y-81491719D01*
X236720259Y-81603213D01*
X236720263Y-81603216D01*
X236851366Y-81690817D01*
X236851379Y-81690824D01*
X236917566Y-81718239D01*
X236997055Y-81751164D01*
X237151705Y-81781926D01*
X237151708Y-81781927D01*
X237151710Y-81781927D01*
X237309396Y-81781927D01*
X237309397Y-81781926D01*
X237464049Y-81751164D01*
X237609731Y-81690821D01*
X237740841Y-81603216D01*
X237852341Y-81491716D01*
X237939946Y-81360606D01*
X238000289Y-81214924D01*
X238031052Y-81060269D01*
X238031052Y-80902585D01*
X238031052Y-80902582D01*
X238031051Y-80902580D01*
X238000290Y-80747937D01*
X238000289Y-80747930D01*
X237964603Y-80661777D01*
X237957135Y-80592309D01*
X237988410Y-80529830D01*
X238031710Y-80499766D01*
X238129179Y-80459394D01*
X238260289Y-80371789D01*
X238371789Y-80260289D01*
X238459394Y-80129179D01*
X238519737Y-79983497D01*
X238550500Y-79828842D01*
X238550500Y-79671158D01*
X238550500Y-79671155D01*
X238550499Y-79671153D01*
X238519738Y-79516510D01*
X238519738Y-79516508D01*
X238519737Y-79516503D01*
X238519735Y-79516498D01*
X238459397Y-79370827D01*
X238459390Y-79370814D01*
X238371789Y-79239711D01*
X238371786Y-79239707D01*
X238260292Y-79128213D01*
X238260288Y-79128210D01*
X238129185Y-79040609D01*
X238129172Y-79040602D01*
X237983501Y-78980264D01*
X237983489Y-78980261D01*
X237828845Y-78949500D01*
X237828842Y-78949500D01*
X237671158Y-78949500D01*
X237671155Y-78949500D01*
X237516510Y-78980261D01*
X237516498Y-78980264D01*
X237370827Y-79040602D01*
X237370814Y-79040609D01*
X237239711Y-79128210D01*
X237239707Y-79128213D01*
X237128213Y-79239707D01*
X237128210Y-79239711D01*
X237040609Y-79370814D01*
X237040602Y-79370827D01*
X236980264Y-79516498D01*
X236980261Y-79516508D01*
X236949362Y-79671848D01*
X236940597Y-79688603D01*
X236936578Y-79707082D01*
X236917833Y-79732120D01*
X236916977Y-79733759D01*
X236915427Y-79735336D01*
X236861839Y-79788925D01*
X236861838Y-79788926D01*
X236750033Y-79900730D01*
X236750032Y-79900732D01*
X236702248Y-79983497D01*
X236670975Y-80037663D01*
X236630051Y-80190391D01*
X236630051Y-80190393D01*
X236630051Y-80358494D01*
X236630052Y-80358507D01*
X236630052Y-80401661D01*
X236610367Y-80468700D01*
X236609154Y-80470552D01*
X236521161Y-80602241D01*
X236521154Y-80602254D01*
X236460816Y-80747925D01*
X236460813Y-80747937D01*
X236430052Y-80902580D01*
X216230466Y-80902580D01*
X216207236Y-80785798D01*
X216151227Y-80650579D01*
X216146896Y-80640122D01*
X216146889Y-80640109D01*
X216059288Y-80509006D01*
X216059285Y-80509002D01*
X215947791Y-80397508D01*
X215947787Y-80397505D01*
X215816684Y-80309904D01*
X215816671Y-80309897D01*
X215671000Y-80249559D01*
X215670988Y-80249556D01*
X215516344Y-80218795D01*
X215516341Y-80218795D01*
X215358657Y-80218795D01*
X215358654Y-80218795D01*
X215204009Y-80249556D01*
X215203997Y-80249559D01*
X215058326Y-80309897D01*
X215058313Y-80309904D01*
X214926624Y-80397897D01*
X214859946Y-80418775D01*
X214857733Y-80418795D01*
X210809762Y-80418795D01*
X210651647Y-80418795D01*
X210498920Y-80459718D01*
X210470458Y-80476151D01*
X210439262Y-80494162D01*
X210361990Y-80538774D01*
X210361987Y-80538776D01*
X209735339Y-81165425D01*
X209674016Y-81198910D01*
X209671850Y-81199361D01*
X209516508Y-81230261D01*
X209516498Y-81230264D01*
X209370827Y-81290602D01*
X209370814Y-81290609D01*
X209239711Y-81378210D01*
X209239707Y-81378213D01*
X209128213Y-81489707D01*
X209128210Y-81489711D01*
X209040609Y-81620814D01*
X209040602Y-81620827D01*
X208980264Y-81766498D01*
X208980261Y-81766510D01*
X208949500Y-81921153D01*
X202112045Y-81921153D01*
X202470890Y-81362778D01*
X202473317Y-81359148D01*
X203071426Y-80497706D01*
X203073950Y-80494207D01*
X203702422Y-79654667D01*
X203705094Y-79651226D01*
X204363134Y-78834648D01*
X204365944Y-78831286D01*
X205052681Y-78038748D01*
X205055634Y-78035462D01*
X205770237Y-77267924D01*
X205773256Y-77264796D01*
X206514796Y-76523256D01*
X206517924Y-76520237D01*
X207285468Y-75805628D01*
X207288755Y-75802676D01*
X208081286Y-75115944D01*
X208084648Y-75113134D01*
X208479081Y-74795280D01*
X210100000Y-74795280D01*
X210100000Y-75750000D01*
X211172769Y-75750000D01*
X211150000Y-75893753D01*
X211150000Y-76106247D01*
X211172769Y-76250000D01*
X210100000Y-76250000D01*
X210100000Y-77204719D01*
X210110482Y-77337906D01*
X210110483Y-77337912D01*
X210165898Y-77557829D01*
X210165899Y-77557832D01*
X210259695Y-77764330D01*
X210259698Y-77764336D01*
X210388851Y-77950758D01*
X210388861Y-77950770D01*
X210549229Y-78111138D01*
X210549241Y-78111148D01*
X210735663Y-78240301D01*
X210735669Y-78240304D01*
X210942167Y-78334100D01*
X210942170Y-78334101D01*
X211162087Y-78389516D01*
X211162093Y-78389517D01*
X211295280Y-78399999D01*
X211295294Y-78400000D01*
X212250000Y-78400000D01*
X212250000Y-77327231D01*
X212393753Y-77350000D01*
X212606247Y-77350000D01*
X212750000Y-77327231D01*
X212750000Y-78400000D01*
X213704706Y-78400000D01*
X213704719Y-78399999D01*
X213837906Y-78389517D01*
X213837912Y-78389516D01*
X214057829Y-78334101D01*
X214057832Y-78334100D01*
X214264330Y-78240304D01*
X214264336Y-78240301D01*
X214450758Y-78111148D01*
X214450770Y-78111138D01*
X214611138Y-77950770D01*
X214611148Y-77950758D01*
X214740301Y-77764336D01*
X214740304Y-77764330D01*
X214834100Y-77557832D01*
X214834101Y-77557829D01*
X214889516Y-77337912D01*
X214889517Y-77337906D01*
X214899999Y-77204719D01*
X214900000Y-77204706D01*
X214900000Y-76496932D01*
X214919685Y-76429893D01*
X214972489Y-76384138D01*
X215041647Y-76374194D01*
X215105203Y-76403219D01*
X215142977Y-76461997D01*
X215144891Y-76469340D01*
X215189683Y-76665590D01*
X215189687Y-76665602D01*
X215278734Y-76920082D01*
X215395714Y-77162994D01*
X215395716Y-77162997D01*
X215539162Y-77391289D01*
X215707266Y-77602085D01*
X215897915Y-77792734D01*
X216108711Y-77960838D01*
X216337003Y-78104284D01*
X216579921Y-78221267D01*
X216771049Y-78288145D01*
X216834397Y-78310312D01*
X216834405Y-78310315D01*
X216834408Y-78310315D01*
X216834409Y-78310316D01*
X217097268Y-78370312D01*
X217365187Y-78400499D01*
X217365188Y-78400500D01*
X217365191Y-78400500D01*
X217634812Y-78400500D01*
X217634812Y-78400499D01*
X217902732Y-78370312D01*
X218165591Y-78310316D01*
X218420079Y-78221267D01*
X218662997Y-78104284D01*
X218891289Y-77960838D01*
X219102085Y-77792734D01*
X219292734Y-77602085D01*
X219460838Y-77391289D01*
X219604284Y-77162997D01*
X219721267Y-76920079D01*
X219810316Y-76665591D01*
X219870312Y-76402732D01*
X219900500Y-76134809D01*
X219900500Y-75993713D01*
X222399500Y-75993713D01*
X222399500Y-76506286D01*
X222432753Y-76716239D01*
X222498444Y-76918414D01*
X222594951Y-77107820D01*
X222719890Y-77279786D01*
X222870213Y-77430109D01*
X223042179Y-77555048D01*
X223042181Y-77555049D01*
X223042184Y-77555051D01*
X223231588Y-77651557D01*
X223433757Y-77717246D01*
X223643713Y-77750500D01*
X223643714Y-77750500D01*
X223856286Y-77750500D01*
X223856287Y-77750500D01*
X224066243Y-77717246D01*
X224268412Y-77651557D01*
X224457816Y-77555051D01*
X224629792Y-77430104D01*
X224768604Y-77291291D01*
X224829923Y-77257809D01*
X224899615Y-77262793D01*
X224955549Y-77304664D01*
X224961821Y-77313878D01*
X224965185Y-77319333D01*
X224965186Y-77319334D01*
X225057288Y-77468656D01*
X225181344Y-77592712D01*
X225330666Y-77684814D01*
X225497203Y-77739999D01*
X225599991Y-77750500D01*
X226900008Y-77750499D01*
X227002797Y-77739999D01*
X227169334Y-77684814D01*
X227318656Y-77592712D01*
X227442712Y-77468656D01*
X227534814Y-77319334D01*
X227589999Y-77152797D01*
X227600500Y-77050009D01*
X227600499Y-75449992D01*
X227589999Y-75347203D01*
X227534814Y-75180666D01*
X227442712Y-75031344D01*
X227318656Y-74907288D01*
X227218282Y-74845377D01*
X227169336Y-74815187D01*
X227169331Y-74815185D01*
X227167862Y-74814698D01*
X227002797Y-74760001D01*
X227002795Y-74760000D01*
X226900010Y-74749500D01*
X225599998Y-74749500D01*
X225599981Y-74749501D01*
X225497203Y-74760000D01*
X225497200Y-74760001D01*
X225330668Y-74815185D01*
X225330663Y-74815187D01*
X225181342Y-74907289D01*
X225057289Y-75031342D01*
X224961821Y-75186121D01*
X224909873Y-75232845D01*
X224840910Y-75244068D01*
X224776828Y-75216224D01*
X224768601Y-75208705D01*
X224629786Y-75069890D01*
X224457820Y-74944951D01*
X224268414Y-74848444D01*
X224268413Y-74848443D01*
X224268412Y-74848443D01*
X224066243Y-74782754D01*
X224066241Y-74782753D01*
X224066240Y-74782753D01*
X223904957Y-74757208D01*
X223856287Y-74749500D01*
X223643713Y-74749500D01*
X223595042Y-74757208D01*
X223433760Y-74782753D01*
X223231585Y-74848444D01*
X223042179Y-74944951D01*
X222870213Y-75069890D01*
X222719890Y-75220213D01*
X222594951Y-75392179D01*
X222498444Y-75581585D01*
X222432753Y-75783760D01*
X222399500Y-75993713D01*
X219900500Y-75993713D01*
X219900500Y-75865191D01*
X219870312Y-75597268D01*
X219810316Y-75334409D01*
X219721267Y-75079921D01*
X219604284Y-74837003D01*
X219460838Y-74608711D01*
X219292734Y-74397915D01*
X219102085Y-74207266D01*
X218891289Y-74039162D01*
X218662997Y-73895716D01*
X218662994Y-73895714D01*
X218420082Y-73778734D01*
X218165602Y-73689687D01*
X218165594Y-73689684D01*
X217968446Y-73644687D01*
X217902732Y-73629688D01*
X217902728Y-73629687D01*
X217902719Y-73629686D01*
X217634813Y-73599500D01*
X217634809Y-73599500D01*
X217365191Y-73599500D01*
X217365186Y-73599500D01*
X217097280Y-73629686D01*
X217097268Y-73629688D01*
X216834405Y-73689684D01*
X216834397Y-73689687D01*
X216579917Y-73778734D01*
X216337005Y-73895714D01*
X216108712Y-74039161D01*
X215897915Y-74207265D01*
X215707265Y-74397915D01*
X215539161Y-74608712D01*
X215395714Y-74837005D01*
X215278734Y-75079917D01*
X215189687Y-75334397D01*
X215189684Y-75334405D01*
X215144891Y-75530660D01*
X215110782Y-75591638D01*
X215049121Y-75624496D01*
X214979484Y-75618801D01*
X214923980Y-75576361D01*
X214900232Y-75510651D01*
X214900000Y-75503067D01*
X214900000Y-74795293D01*
X214899999Y-74795280D01*
X214889517Y-74662093D01*
X214889516Y-74662087D01*
X214834101Y-74442170D01*
X214834100Y-74442167D01*
X214740304Y-74235669D01*
X214740301Y-74235663D01*
X214611148Y-74049241D01*
X214611138Y-74049229D01*
X214450770Y-73888861D01*
X214450758Y-73888851D01*
X214264336Y-73759698D01*
X214264330Y-73759695D01*
X214057832Y-73665899D01*
X214057829Y-73665898D01*
X213837912Y-73610483D01*
X213837906Y-73610482D01*
X213704719Y-73600000D01*
X212750000Y-73600000D01*
X212750000Y-74672768D01*
X212606247Y-74650000D01*
X212393753Y-74650000D01*
X212250000Y-74672768D01*
X212250000Y-73600000D01*
X211295280Y-73600000D01*
X211162093Y-73610482D01*
X211162087Y-73610483D01*
X210942170Y-73665898D01*
X210942167Y-73665899D01*
X210735669Y-73759695D01*
X210735663Y-73759698D01*
X210549241Y-73888851D01*
X210549229Y-73888861D01*
X210388861Y-74049229D01*
X210388851Y-74049241D01*
X210259698Y-74235663D01*
X210259695Y-74235669D01*
X210165899Y-74442167D01*
X210165898Y-74442170D01*
X210110483Y-74662087D01*
X210110482Y-74662093D01*
X210100000Y-74795280D01*
X208479081Y-74795280D01*
X208901226Y-74455094D01*
X208904667Y-74452422D01*
X209744207Y-73823950D01*
X209747706Y-73821426D01*
X210609160Y-73223308D01*
X210612829Y-73220858D01*
X211494983Y-72653932D01*
X211498721Y-72651622D01*
X212400665Y-72116473D01*
X212404431Y-72114330D01*
X213324842Y-71611747D01*
X213328728Y-71609713D01*
X214266506Y-71140295D01*
X214270496Y-71138388D01*
X215224351Y-70702776D01*
X215228402Y-70701013D01*
X216197288Y-70299688D01*
X216201292Y-70298112D01*
X217183962Y-69931594D01*
X217188029Y-69930161D01*
X218183049Y-69598986D01*
X218187246Y-69597672D01*
X219193482Y-69302214D01*
X219197671Y-69301065D01*
X220213805Y-69041713D01*
X220218063Y-69040706D01*
X221242787Y-68817791D01*
X221247066Y-68816940D01*
X222279122Y-68630736D01*
X222283447Y-68630035D01*
X223321454Y-68480792D01*
X223325796Y-68480247D01*
X224368540Y-68368140D01*
X224372836Y-68367757D01*
X225418856Y-68292943D01*
X225423263Y-68292707D01*
X226471251Y-68255277D01*
X226475677Y-68255199D01*
X227524323Y-68255199D01*
X227528748Y-68255277D01*
G37*
%TD.AperFunction*%
%TD*%
M02*
