%TF.GenerationSoftware,KiCad,Pcbnew,10.0.3*%
%TF.CreationDate,2026-05-29T12:35:44-04:00*%
%TF.ProjectId,float_pcb,666c6f61-745f-4706-9362-2e6b69636164,rev?*%
%TF.SameCoordinates,Original*%
%TF.FileFunction,Copper,L2,Bot*%
%TF.FilePolarity,Positive*%
%FSLAX46Y46*%
G04 Gerber Fmt 4.6, Leading zero omitted, Abs format (unit mm)*
G04 Created by KiCad (PCBNEW 10.0.3) date 2026-05-29 12:35:44*
%MOMM*%
%LPD*%
G01*
G04 APERTURE LIST*
G04 Aperture macros list*
%AMRoundRect*
0 Rectangle with rounded corners*
0 $1 Rounding radius*
0 $2 $3 $4 $5 $6 $7 $8 $9 X,Y pos of 4 corners*
0 Add a 4 corners polygon primitive as box body*
4,1,4,$2,$3,$4,$5,$6,$7,$8,$9,$2,$3,0*
0 Add four circle primitives for the rounded corners*
1,1,$1+$1,$2,$3*
1,1,$1+$1,$4,$5*
1,1,$1+$1,$6,$7*
1,1,$1+$1,$8,$9*
0 Add four rect primitives between the rounded corners*
20,1,$1+$1,$2,$3,$4,$5,0*
20,1,$1+$1,$4,$5,$6,$7,0*
20,1,$1+$1,$6,$7,$8,$9,0*
20,1,$1+$1,$8,$9,$2,$3,0*%
G04 Aperture macros list end*
%TA.AperFunction,HeatsinkPad*%
%ADD10C,0.600000*%
%TD*%
%TA.AperFunction,ComponentPad*%
%ADD11RoundRect,0.760000X-1.140000X-1.140000X1.140000X-1.140000X1.140000X1.140000X-1.140000X1.140000X0*%
%TD*%
%TA.AperFunction,ComponentPad*%
%ADD12C,3.800000*%
%TD*%
%TA.AperFunction,ComponentPad*%
%ADD13RoundRect,0.250000X0.600000X0.750000X-0.600000X0.750000X-0.600000X-0.750000X0.600000X-0.750000X0*%
%TD*%
%TA.AperFunction,ComponentPad*%
%ADD14O,1.700000X2.000000*%
%TD*%
%TA.AperFunction,ComponentPad*%
%ADD15O,2.100000X1.000000*%
%TD*%
%TA.AperFunction,ComponentPad*%
%ADD16O,1.800000X1.000000*%
%TD*%
%TA.AperFunction,ComponentPad*%
%ADD17R,1.700000X1.700000*%
%TD*%
%TA.AperFunction,ComponentPad*%
%ADD18C,1.700000*%
%TD*%
%TA.AperFunction,ComponentPad*%
%ADD19RoundRect,0.250000X0.600000X0.725000X-0.600000X0.725000X-0.600000X-0.725000X0.600000X-0.725000X0*%
%TD*%
%TA.AperFunction,ComponentPad*%
%ADD20O,1.700000X1.950000*%
%TD*%
%TA.AperFunction,ComponentPad*%
%ADD21C,1.408000*%
%TD*%
%TA.AperFunction,ViaPad*%
%ADD22C,0.600000*%
%TD*%
%TA.AperFunction,Conductor*%
%ADD23C,0.200000*%
%TD*%
G04 APERTURE END LIST*
D10*
%TO.P,U4,41,GND_41*%
%TO.N,GND*%
X227000000Y-98450000D03*
X227000000Y-97050000D03*
X226300000Y-99150000D03*
X226300000Y-97750000D03*
X226300000Y-96350000D03*
X225600000Y-98450000D03*
X225600000Y-97050000D03*
X224900000Y-99150000D03*
X224900000Y-97750000D03*
X224900000Y-96350000D03*
X224200000Y-98450000D03*
X224200000Y-97050000D03*
%TD*%
D11*
%TO.P,J7,1,Pin_1_1*%
%TO.N,GND*%
X212500000Y-76000000D03*
D12*
%TO.P,J7,2,Pin_2_2*%
%TO.N,Net-(J1-Pin_2)*%
X217500000Y-76000000D03*
%TD*%
D13*
%TO.P,J1,1,Pin_1_1*%
%TO.N,+BATT*%
X226250000Y-76250000D03*
D14*
%TO.P,J1,2,Pin_2_2*%
%TO.N,Net-(J1-Pin_2)*%
X223750000Y-76250000D03*
%TD*%
D15*
%TO.P,J3,SH,SHIELD_SH*%
%TO.N,GND*%
X203855000Y-93430000D03*
D16*
X199675000Y-93430000D03*
D15*
X203855000Y-102070000D03*
D16*
X199675000Y-102070000D03*
%TD*%
D17*
%TO.P,J2,1,Pin_1_1*%
%TO.N,Net-(J2-Pin_1)*%
X240000000Y-104500000D03*
D18*
%TO.P,J2,2,Pin_2_2*%
%TO.N,Net-(J2-Pin_2)*%
X240000000Y-101960000D03*
%TO.P,J2,3,Pin_3_3*%
%TO.N,Net-(J2-Pin_3)*%
X240000000Y-99420000D03*
%TO.P,J2,4,Pin_4_4*%
%TO.N,Net-(J2-Pin_4)*%
X240000000Y-96880000D03*
%TD*%
D19*
%TO.P,J4,1,Pin_1_1*%
%TO.N,GND*%
X251000000Y-92250000D03*
D20*
%TO.P,J4,2,Pin_2_2*%
%TO.N,Net-(J4-Pin_2)*%
X248500000Y-92250000D03*
%TO.P,J4,3,Pin_3_3*%
%TO.N,SERVO*%
X246000000Y-92250000D03*
%TD*%
D19*
%TO.P,J9,1,Pin_1_1*%
%TO.N,GND*%
X237500000Y-120500000D03*
D20*
%TO.P,J9,2,Pin_2_2*%
%TO.N,SDA2*%
X235000000Y-120500000D03*
%TO.P,J9,3,Pin_3_3*%
%TO.N,SCL2*%
X232500000Y-120500000D03*
%TO.P,J9,4,Pin_4_4*%
%TO.N,+3V3*%
X230000000Y-120500000D03*
%TD*%
D21*
%TO.P,LS1,N*%
%TO.N,Net-(Q2-D)*%
X248201500Y-113625000D03*
%TO.P,LS1,P*%
%TO.N,+3V3*%
X244201500Y-113625000D03*
%TD*%
D19*
%TO.P,J5,1,Pin_1_1*%
%TO.N,GND*%
X221750000Y-120500000D03*
D20*
%TO.P,J5,2,Pin_2_2*%
%TO.N,SDA1*%
X219250000Y-120500000D03*
%TO.P,J5,3,Pin_3_3*%
%TO.N,SCL1*%
X216750000Y-120500000D03*
%TO.P,J5,4,Pin_4_4*%
%TO.N,+3V3*%
X214250000Y-120500000D03*
%TD*%
D13*
%TO.P,J6,1,Pin_1_1*%
%TO.N,Net-(J6-Pin_1)*%
X208250000Y-111500000D03*
D14*
%TO.P,J6,2,Pin_2_2*%
%TO.N,+3V3*%
X205750000Y-111500000D03*
%TD*%
D22*
%TO.N,GND*%
X237000000Y-77000000D03*
X213500000Y-93000000D03*
X215000000Y-91250000D03*
X219500000Y-83250000D03*
X210500000Y-86250000D03*
X224000000Y-81750000D03*
X227000000Y-84000000D03*
X231500000Y-78250000D03*
X241750000Y-82500000D03*
X231500000Y-80500000D03*
X238750000Y-93500000D03*
X251000000Y-94250000D03*
X249750000Y-98000000D03*
X237750000Y-113000000D03*
X216000000Y-109250000D03*
X214250000Y-102000000D03*
X211250000Y-102000000D03*
X210250000Y-91250000D03*
X220000000Y-69750000D03*
X235250000Y-70000000D03*
X242500000Y-73250000D03*
X247250000Y-77250000D03*
X252000000Y-83250000D03*
X254750000Y-89500000D03*
X256000000Y-96250000D03*
X254000000Y-107750000D03*
X248750000Y-116750000D03*
X242750000Y-122000000D03*
X231500000Y-126500000D03*
X222000000Y-126500000D03*
X210250000Y-121500000D03*
X203750000Y-115250000D03*
X200000000Y-106750000D03*
X199250000Y-89250000D03*
X203250000Y-81000000D03*
X209000000Y-75500000D03*
X212750000Y-72500000D03*
%TO.N,Net-(U1-EN)*%
X215250000Y-80850000D03*
X210500000Y-82500000D03*
%TO.N,GND*%
X217250000Y-112250000D03*
X216500000Y-82250000D03*
X204552498Y-100950000D03*
X204552498Y-94549606D03*
X239250000Y-82250000D03*
%TO.N,Net-(U2-FB)*%
X236500000Y-80750000D03*
X238500000Y-80750000D03*
%TO.N,Net-(U4-USB_D-)*%
X206750000Y-98500000D03*
X212000000Y-103750000D03*
%TO.N,Net-(U4-USB_D+)*%
X206000000Y-99250000D03*
X211250000Y-104750000D03*
%TD*%
%TO.N,Net-(U1-EN)*%
D23*
X212150000Y-80850000D02*
X215250000Y-80850000D01*
X210500000Y-82500000D02*
X212150000Y-80850000D01*
%TO.N,Net-(U2-FB)*%
X238250000Y-80500000D02*
X236750000Y-80500000D01*
X238500000Y-80750000D02*
X238250000Y-80500000D01*
X236750000Y-80500000D02*
X236500000Y-80750000D01*
%TO.N,Net-(U4-USB_D-)*%
X210699998Y-102500000D02*
X206750000Y-98550002D01*
X212000000Y-103750000D02*
X210750000Y-102500000D01*
X206750000Y-98550002D02*
X206750000Y-98500000D01*
X210750000Y-102500000D02*
X210699998Y-102500000D01*
%TO.N,Net-(U4-USB_D+)*%
X211250000Y-104500000D02*
X206000000Y-99250000D01*
X211250000Y-104750000D02*
X211250000Y-104500000D01*
%TD*%
%TA.AperFunction,Conductor*%
%TO.N,GND*%
G36*
X227528748Y-68255277D02*
G01*
X228576733Y-68292707D01*
X228581146Y-68292943D01*
X229627158Y-68367756D01*
X229631464Y-68368141D01*
X230674196Y-68480246D01*
X230678552Y-68480793D01*
X231716543Y-68630034D01*
X231720886Y-68630737D01*
X232752922Y-68816938D01*
X232757223Y-68817794D01*
X233781924Y-69040704D01*
X233786207Y-69041716D01*
X234802314Y-69301062D01*
X234806531Y-69302219D01*
X235773841Y-69586246D01*
X235812739Y-69597668D01*
X235816965Y-69598991D01*
X236811953Y-69930155D01*
X236816055Y-69931601D01*
X237798688Y-70298105D01*
X237802730Y-70299695D01*
X238528149Y-70600173D01*
X238771597Y-70701013D01*
X238775655Y-70702780D01*
X239729503Y-71138388D01*
X239733497Y-71140298D01*
X240671253Y-71609705D01*
X240675175Y-71611757D01*
X241595544Y-72114316D01*
X241599357Y-72116487D01*
X242053124Y-72385720D01*
X242501264Y-72651614D01*
X242505029Y-72653941D01*
X243387170Y-73220858D01*
X243390851Y-73223317D01*
X243754261Y-73475636D01*
X244252266Y-73821407D01*
X244255818Y-73823969D01*
X244543282Y-74039162D01*
X245095304Y-74452401D01*
X245098800Y-74455116D01*
X245915333Y-75113120D01*
X245918730Y-75115959D01*
X246711244Y-75802676D01*
X246714537Y-75805634D01*
X247482046Y-76520210D01*
X247485231Y-76523284D01*
X248226715Y-77264768D01*
X248229789Y-77267953D01*
X248944365Y-78035462D01*
X248947323Y-78038755D01*
X249634040Y-78831269D01*
X249636879Y-78834666D01*
X250294883Y-79651199D01*
X250297598Y-79654695D01*
X250541316Y-79980264D01*
X250916375Y-80481284D01*
X250926016Y-80494162D01*
X250928599Y-80497744D01*
X250941624Y-80516503D01*
X251526682Y-81359148D01*
X251529141Y-81362829D01*
X252096058Y-82244970D01*
X252098385Y-82248735D01*
X252633502Y-83150625D01*
X252635692Y-83154472D01*
X253138242Y-84074824D01*
X253140294Y-84078746D01*
X253609701Y-85016502D01*
X253611611Y-85020496D01*
X254047219Y-85974344D01*
X254048986Y-85978402D01*
X254450288Y-86947230D01*
X254451909Y-86951349D01*
X254818385Y-87933908D01*
X254819857Y-87938083D01*
X255151008Y-88933036D01*
X255152331Y-88937260D01*
X255447773Y-89943442D01*
X255448944Y-89947711D01*
X255708280Y-90963780D01*
X255709298Y-90968088D01*
X255932201Y-91992756D01*
X255933065Y-91997097D01*
X256119259Y-93029100D01*
X256119967Y-93033470D01*
X256269203Y-94071429D01*
X256269755Y-94075821D01*
X256381853Y-95118484D01*
X256382247Y-95122893D01*
X256457055Y-96168849D01*
X256457292Y-96173269D01*
X256494722Y-97221251D01*
X256494801Y-97225677D01*
X256494801Y-98274322D01*
X256494722Y-98278748D01*
X256457292Y-99326730D01*
X256457055Y-99331150D01*
X256382247Y-100377106D01*
X256381853Y-100381515D01*
X256269755Y-101424178D01*
X256269203Y-101428570D01*
X256119967Y-102466529D01*
X256119259Y-102470899D01*
X255933065Y-103502902D01*
X255932201Y-103507243D01*
X255709298Y-104531911D01*
X255708280Y-104536219D01*
X255448944Y-105552288D01*
X255447773Y-105556557D01*
X255152331Y-106562739D01*
X255151008Y-106566963D01*
X254819857Y-107561916D01*
X254818385Y-107566091D01*
X254451909Y-108548650D01*
X254450288Y-108552769D01*
X254048986Y-109521597D01*
X254047219Y-109525655D01*
X253611611Y-110479503D01*
X253609701Y-110483497D01*
X253140294Y-111421253D01*
X253138242Y-111425175D01*
X252635692Y-112345527D01*
X252633502Y-112349374D01*
X252098385Y-113251264D01*
X252096058Y-113255029D01*
X251529141Y-114137170D01*
X251526682Y-114140851D01*
X250928605Y-115002247D01*
X250926016Y-115005837D01*
X250297598Y-115845304D01*
X250294883Y-115848800D01*
X249636879Y-116665333D01*
X249634040Y-116668730D01*
X248947323Y-117461244D01*
X248944365Y-117464537D01*
X248229789Y-118232046D01*
X248226715Y-118235231D01*
X247485231Y-118976715D01*
X247482046Y-118979789D01*
X246714537Y-119694365D01*
X246711244Y-119697323D01*
X245918730Y-120384040D01*
X245915333Y-120386879D01*
X245098800Y-121044883D01*
X245095304Y-121047598D01*
X244255837Y-121676016D01*
X244252247Y-121678605D01*
X243390851Y-122276682D01*
X243387170Y-122279141D01*
X242505029Y-122846058D01*
X242501264Y-122848385D01*
X241599374Y-123383502D01*
X241595527Y-123385692D01*
X240675175Y-123888242D01*
X240671253Y-123890294D01*
X239733497Y-124359701D01*
X239729503Y-124361611D01*
X238775655Y-124797219D01*
X238771597Y-124798986D01*
X237802769Y-125200288D01*
X237798650Y-125201909D01*
X236816091Y-125568385D01*
X236811916Y-125569857D01*
X235816963Y-125901008D01*
X235812739Y-125902331D01*
X234806557Y-126197773D01*
X234802288Y-126198944D01*
X233786219Y-126458280D01*
X233781911Y-126459298D01*
X232757243Y-126682201D01*
X232752902Y-126683065D01*
X231720899Y-126869259D01*
X231716529Y-126869967D01*
X230678570Y-127019203D01*
X230674178Y-127019755D01*
X229631515Y-127131853D01*
X229627106Y-127132247D01*
X228581150Y-127207055D01*
X228576730Y-127207292D01*
X227528749Y-127244722D01*
X227524323Y-127244801D01*
X226475677Y-127244801D01*
X226471251Y-127244722D01*
X225423269Y-127207292D01*
X225418849Y-127207055D01*
X224372893Y-127132247D01*
X224368484Y-127131853D01*
X223325821Y-127019755D01*
X223321429Y-127019203D01*
X222283470Y-126869967D01*
X222279100Y-126869259D01*
X221247097Y-126683065D01*
X221242756Y-126682201D01*
X220218088Y-126459298D01*
X220213780Y-126458280D01*
X219197711Y-126198944D01*
X219193442Y-126197773D01*
X218187260Y-125902331D01*
X218183036Y-125901008D01*
X217188083Y-125569857D01*
X217183908Y-125568385D01*
X216201349Y-125201909D01*
X216197240Y-125200291D01*
X216007650Y-125121761D01*
X215228402Y-124798986D01*
X215224344Y-124797219D01*
X214270496Y-124361611D01*
X214266502Y-124359701D01*
X213328746Y-123890294D01*
X213324824Y-123888242D01*
X212404472Y-123385692D01*
X212400625Y-123383502D01*
X211498735Y-122848385D01*
X211494970Y-122846058D01*
X210612829Y-122279141D01*
X210609148Y-122276682D01*
X209747752Y-121678605D01*
X209744162Y-121676016D01*
X209567968Y-121544119D01*
X209208432Y-121274973D01*
X208904695Y-121047598D01*
X208901199Y-121044883D01*
X208084666Y-120386879D01*
X208081269Y-120384039D01*
X208050711Y-120357560D01*
X208050703Y-120357554D01*
X207948175Y-120268713D01*
X212899500Y-120268713D01*
X212899500Y-120731287D01*
X212932754Y-120941243D01*
X212943722Y-120975000D01*
X212998444Y-121143414D01*
X213094951Y-121332820D01*
X213219890Y-121504786D01*
X213370213Y-121655109D01*
X213542179Y-121780048D01*
X213542181Y-121780049D01*
X213542184Y-121780051D01*
X213731588Y-121876557D01*
X213933757Y-121942246D01*
X214143713Y-121975500D01*
X214143714Y-121975500D01*
X214356286Y-121975500D01*
X214356287Y-121975500D01*
X214566243Y-121942246D01*
X214768412Y-121876557D01*
X214957816Y-121780051D01*
X214979789Y-121764086D01*
X215129786Y-121655109D01*
X215129788Y-121655106D01*
X215129792Y-121655104D01*
X215280104Y-121504792D01*
X215399683Y-121340204D01*
X215455011Y-121297540D01*
X215524624Y-121291561D01*
X215586420Y-121324166D01*
X215600313Y-121340199D01*
X215627552Y-121377690D01*
X215719896Y-121504792D01*
X215870213Y-121655109D01*
X216042179Y-121780048D01*
X216042181Y-121780049D01*
X216042184Y-121780051D01*
X216231588Y-121876557D01*
X216433757Y-121942246D01*
X216643713Y-121975500D01*
X216643714Y-121975500D01*
X216856286Y-121975500D01*
X216856287Y-121975500D01*
X217066243Y-121942246D01*
X217268412Y-121876557D01*
X217457816Y-121780051D01*
X217479789Y-121764086D01*
X217629786Y-121655109D01*
X217629788Y-121655106D01*
X217629792Y-121655104D01*
X217780104Y-121504792D01*
X217899683Y-121340204D01*
X217955011Y-121297540D01*
X218024624Y-121291561D01*
X218086420Y-121324166D01*
X218100313Y-121340199D01*
X218127552Y-121377690D01*
X218219896Y-121504792D01*
X218370213Y-121655109D01*
X218542179Y-121780048D01*
X218542181Y-121780049D01*
X218542184Y-121780051D01*
X218731588Y-121876557D01*
X218933757Y-121942246D01*
X219143713Y-121975500D01*
X219143714Y-121975500D01*
X219356286Y-121975500D01*
X219356287Y-121975500D01*
X219566243Y-121942246D01*
X219768412Y-121876557D01*
X219957816Y-121780051D01*
X220015141Y-121738402D01*
X220129784Y-121655110D01*
X220129784Y-121655109D01*
X220129792Y-121655104D01*
X220268967Y-121515928D01*
X220330286Y-121482446D01*
X220399978Y-121487430D01*
X220455912Y-121529301D01*
X220462184Y-121538515D01*
X220557684Y-121693345D01*
X220681654Y-121817315D01*
X220830875Y-121909356D01*
X220830880Y-121909358D01*
X220997302Y-121964505D01*
X220997309Y-121964506D01*
X221100019Y-121974999D01*
X221499999Y-121974999D01*
X221500000Y-121974998D01*
X221500000Y-120904145D01*
X221566657Y-120942630D01*
X221687465Y-120975000D01*
X221812535Y-120975000D01*
X221933343Y-120942630D01*
X222000000Y-120904145D01*
X222000000Y-121974999D01*
X222399972Y-121974999D01*
X222399986Y-121974998D01*
X222502697Y-121964505D01*
X222669119Y-121909358D01*
X222669124Y-121909356D01*
X222818345Y-121817315D01*
X222942315Y-121693345D01*
X223034356Y-121544124D01*
X223034358Y-121544119D01*
X223089505Y-121377697D01*
X223089506Y-121377690D01*
X223099999Y-121274986D01*
X223100000Y-121274973D01*
X223100000Y-120750000D01*
X222154146Y-120750000D01*
X222192630Y-120683343D01*
X222225000Y-120562535D01*
X222225000Y-120437465D01*
X222192630Y-120316657D01*
X222164950Y-120268713D01*
X228649500Y-120268713D01*
X228649500Y-120731287D01*
X228682754Y-120941243D01*
X228693722Y-120975000D01*
X228748444Y-121143414D01*
X228844951Y-121332820D01*
X228969890Y-121504786D01*
X229120213Y-121655109D01*
X229292179Y-121780048D01*
X229292181Y-121780049D01*
X229292184Y-121780051D01*
X229481588Y-121876557D01*
X229683757Y-121942246D01*
X229893713Y-121975500D01*
X229893714Y-121975500D01*
X230106286Y-121975500D01*
X230106287Y-121975500D01*
X230316243Y-121942246D01*
X230518412Y-121876557D01*
X230707816Y-121780051D01*
X230729789Y-121764086D01*
X230879786Y-121655109D01*
X230879788Y-121655106D01*
X230879792Y-121655104D01*
X231030104Y-121504792D01*
X231149683Y-121340204D01*
X231205011Y-121297540D01*
X231274624Y-121291561D01*
X231336420Y-121324166D01*
X231350313Y-121340199D01*
X231377552Y-121377690D01*
X231469896Y-121504792D01*
X231620213Y-121655109D01*
X231792179Y-121780048D01*
X231792181Y-121780049D01*
X231792184Y-121780051D01*
X231981588Y-121876557D01*
X232183757Y-121942246D01*
X232393713Y-121975500D01*
X232393714Y-121975500D01*
X232606286Y-121975500D01*
X232606287Y-121975500D01*
X232816243Y-121942246D01*
X233018412Y-121876557D01*
X233207816Y-121780051D01*
X233229789Y-121764086D01*
X233379786Y-121655109D01*
X233379788Y-121655106D01*
X233379792Y-121655104D01*
X233530104Y-121504792D01*
X233649683Y-121340204D01*
X233705011Y-121297540D01*
X233774624Y-121291561D01*
X233836420Y-121324166D01*
X233850313Y-121340199D01*
X233877552Y-121377690D01*
X233969896Y-121504792D01*
X234120213Y-121655109D01*
X234292179Y-121780048D01*
X234292181Y-121780049D01*
X234292184Y-121780051D01*
X234481588Y-121876557D01*
X234683757Y-121942246D01*
X234893713Y-121975500D01*
X234893714Y-121975500D01*
X235106286Y-121975500D01*
X235106287Y-121975500D01*
X235316243Y-121942246D01*
X235518412Y-121876557D01*
X235707816Y-121780051D01*
X235765141Y-121738402D01*
X235879784Y-121655110D01*
X235879784Y-121655109D01*
X235879792Y-121655104D01*
X236018967Y-121515928D01*
X236080286Y-121482446D01*
X236149978Y-121487430D01*
X236205912Y-121529301D01*
X236212184Y-121538515D01*
X236307684Y-121693345D01*
X236431654Y-121817315D01*
X236580875Y-121909356D01*
X236580880Y-121909358D01*
X236747302Y-121964505D01*
X236747309Y-121964506D01*
X236850019Y-121974999D01*
X237249999Y-121974999D01*
X237250000Y-121974998D01*
X237250000Y-120904145D01*
X237316657Y-120942630D01*
X237437465Y-120975000D01*
X237562535Y-120975000D01*
X237683343Y-120942630D01*
X237750000Y-120904145D01*
X237750000Y-121974999D01*
X238149972Y-121974999D01*
X238149986Y-121974998D01*
X238252697Y-121964505D01*
X238419119Y-121909358D01*
X238419124Y-121909356D01*
X238568345Y-121817315D01*
X238692315Y-121693345D01*
X238784356Y-121544124D01*
X238784358Y-121544119D01*
X238839505Y-121377697D01*
X238839506Y-121377690D01*
X238849999Y-121274986D01*
X238850000Y-121274973D01*
X238850000Y-120750000D01*
X237904146Y-120750000D01*
X237942630Y-120683343D01*
X237975000Y-120562535D01*
X237975000Y-120437465D01*
X237942630Y-120316657D01*
X237904146Y-120250000D01*
X238849999Y-120250000D01*
X238849999Y-119725028D01*
X238849998Y-119725013D01*
X238839505Y-119622302D01*
X238784358Y-119455880D01*
X238784356Y-119455875D01*
X238692315Y-119306654D01*
X238568345Y-119182684D01*
X238419124Y-119090643D01*
X238419119Y-119090641D01*
X238252697Y-119035494D01*
X238252690Y-119035493D01*
X238149986Y-119025000D01*
X237750000Y-119025000D01*
X237750000Y-120095854D01*
X237683343Y-120057370D01*
X237562535Y-120025000D01*
X237437465Y-120025000D01*
X237316657Y-120057370D01*
X237250000Y-120095854D01*
X237250000Y-119025000D01*
X236850028Y-119025000D01*
X236850012Y-119025001D01*
X236747302Y-119035494D01*
X236580880Y-119090641D01*
X236580875Y-119090643D01*
X236431654Y-119182684D01*
X236307683Y-119306655D01*
X236307680Y-119306659D01*
X236212183Y-119461484D01*
X236160235Y-119508209D01*
X236091273Y-119519430D01*
X236027191Y-119491587D01*
X236018964Y-119484068D01*
X235879786Y-119344890D01*
X235707820Y-119219951D01*
X235518414Y-119123444D01*
X235518413Y-119123443D01*
X235518412Y-119123443D01*
X235316243Y-119057754D01*
X235316241Y-119057753D01*
X235316240Y-119057753D01*
X235154957Y-119032208D01*
X235106287Y-119024500D01*
X234893713Y-119024500D01*
X234845042Y-119032208D01*
X234683760Y-119057753D01*
X234481585Y-119123444D01*
X234292179Y-119219951D01*
X234120213Y-119344890D01*
X233969894Y-119495209D01*
X233969890Y-119495214D01*
X233850318Y-119659793D01*
X233794989Y-119702459D01*
X233725375Y-119708438D01*
X233663580Y-119675833D01*
X233649682Y-119659793D01*
X233530109Y-119495214D01*
X233530105Y-119495209D01*
X233379786Y-119344890D01*
X233207820Y-119219951D01*
X233018414Y-119123444D01*
X233018413Y-119123443D01*
X233018412Y-119123443D01*
X232816243Y-119057754D01*
X232816241Y-119057753D01*
X232816240Y-119057753D01*
X232654957Y-119032208D01*
X232606287Y-119024500D01*
X232393713Y-119024500D01*
X232345042Y-119032208D01*
X232183760Y-119057753D01*
X231981585Y-119123444D01*
X231792179Y-119219951D01*
X231620213Y-119344890D01*
X231469894Y-119495209D01*
X231469890Y-119495214D01*
X231350318Y-119659793D01*
X231294989Y-119702459D01*
X231225375Y-119708438D01*
X231163580Y-119675833D01*
X231149682Y-119659793D01*
X231030109Y-119495214D01*
X231030105Y-119495209D01*
X230879786Y-119344890D01*
X230707820Y-119219951D01*
X230518414Y-119123444D01*
X230518413Y-119123443D01*
X230518412Y-119123443D01*
X230316243Y-119057754D01*
X230316241Y-119057753D01*
X230316240Y-119057753D01*
X230154957Y-119032208D01*
X230106287Y-119024500D01*
X229893713Y-119024500D01*
X229845042Y-119032208D01*
X229683760Y-119057753D01*
X229481585Y-119123444D01*
X229292179Y-119219951D01*
X229120213Y-119344890D01*
X228969890Y-119495213D01*
X228844951Y-119667179D01*
X228748444Y-119856585D01*
X228682753Y-120058760D01*
X228673069Y-120119905D01*
X228649500Y-120268713D01*
X222164950Y-120268713D01*
X222154146Y-120250000D01*
X223099999Y-120250000D01*
X223099999Y-119725028D01*
X223099998Y-119725013D01*
X223089505Y-119622302D01*
X223034358Y-119455880D01*
X223034356Y-119455875D01*
X222942315Y-119306654D01*
X222818345Y-119182684D01*
X222669124Y-119090643D01*
X222669119Y-119090641D01*
X222502697Y-119035494D01*
X222502690Y-119035493D01*
X222399986Y-119025000D01*
X222000000Y-119025000D01*
X222000000Y-120095854D01*
X221933343Y-120057370D01*
X221812535Y-120025000D01*
X221687465Y-120025000D01*
X221566657Y-120057370D01*
X221500000Y-120095854D01*
X221500000Y-119025000D01*
X221100028Y-119025000D01*
X221100012Y-119025001D01*
X220997302Y-119035494D01*
X220830880Y-119090641D01*
X220830875Y-119090643D01*
X220681654Y-119182684D01*
X220557683Y-119306655D01*
X220557680Y-119306659D01*
X220462183Y-119461484D01*
X220410235Y-119508209D01*
X220341273Y-119519430D01*
X220277191Y-119491587D01*
X220268964Y-119484068D01*
X220129786Y-119344890D01*
X219957820Y-119219951D01*
X219768414Y-119123444D01*
X219768413Y-119123443D01*
X219768412Y-119123443D01*
X219566243Y-119057754D01*
X219566241Y-119057753D01*
X219566240Y-119057753D01*
X219404957Y-119032208D01*
X219356287Y-119024500D01*
X219143713Y-119024500D01*
X219095042Y-119032208D01*
X218933760Y-119057753D01*
X218731585Y-119123444D01*
X218542179Y-119219951D01*
X218370213Y-119344890D01*
X218219894Y-119495209D01*
X218219890Y-119495214D01*
X218100318Y-119659793D01*
X218044989Y-119702459D01*
X217975375Y-119708438D01*
X217913580Y-119675833D01*
X217899682Y-119659793D01*
X217780109Y-119495214D01*
X217780105Y-119495209D01*
X217629786Y-119344890D01*
X217457820Y-119219951D01*
X217268414Y-119123444D01*
X217268413Y-119123443D01*
X217268412Y-119123443D01*
X217066243Y-119057754D01*
X217066241Y-119057753D01*
X217066240Y-119057753D01*
X216904957Y-119032208D01*
X216856287Y-119024500D01*
X216643713Y-119024500D01*
X216595042Y-119032208D01*
X216433760Y-119057753D01*
X216231585Y-119123444D01*
X216042179Y-119219951D01*
X215870213Y-119344890D01*
X215719894Y-119495209D01*
X215719890Y-119495214D01*
X215600318Y-119659793D01*
X215544989Y-119702459D01*
X215475375Y-119708438D01*
X215413580Y-119675833D01*
X215399682Y-119659793D01*
X215280109Y-119495214D01*
X215280105Y-119495209D01*
X215129786Y-119344890D01*
X214957820Y-119219951D01*
X214768414Y-119123444D01*
X214768413Y-119123443D01*
X214768412Y-119123443D01*
X214566243Y-119057754D01*
X214566241Y-119057753D01*
X214566240Y-119057753D01*
X214404957Y-119032208D01*
X214356287Y-119024500D01*
X214143713Y-119024500D01*
X214095042Y-119032208D01*
X213933760Y-119057753D01*
X213731585Y-119123444D01*
X213542179Y-119219951D01*
X213370213Y-119344890D01*
X213219890Y-119495213D01*
X213094951Y-119667179D01*
X212998444Y-119856585D01*
X212932753Y-120058760D01*
X212923069Y-120119905D01*
X212899500Y-120268713D01*
X207948175Y-120268713D01*
X207288755Y-119697323D01*
X207285462Y-119694365D01*
X206517953Y-118979789D01*
X206514768Y-118976715D01*
X205773284Y-118235231D01*
X205770210Y-118232046D01*
X205055634Y-117464537D01*
X205052676Y-117461244D01*
X204365959Y-116668730D01*
X204363120Y-116665333D01*
X203705116Y-115848800D01*
X203702401Y-115845304D01*
X203073983Y-115005837D01*
X203071407Y-115002266D01*
X202473317Y-114140851D01*
X202470858Y-114137170D01*
X202242450Y-113781761D01*
X202080781Y-113530199D01*
X242997000Y-113530199D01*
X242997000Y-113719800D01*
X243026657Y-113907050D01*
X243026658Y-113907055D01*
X243066250Y-114028905D01*
X243085247Y-114087372D01*
X243171319Y-114256296D01*
X243282759Y-114409679D01*
X243416821Y-114543741D01*
X243570204Y-114655181D01*
X243650015Y-114695846D01*
X243739127Y-114741252D01*
X243739129Y-114741252D01*
X243739132Y-114741254D01*
X243919445Y-114799842D01*
X244013074Y-114814671D01*
X244106700Y-114829500D01*
X244106704Y-114829500D01*
X244296300Y-114829500D01*
X244379522Y-114816318D01*
X244483555Y-114799842D01*
X244663868Y-114741254D01*
X244832796Y-114655181D01*
X244986179Y-114543741D01*
X245120241Y-114409679D01*
X245231681Y-114256296D01*
X245317754Y-114087368D01*
X245376342Y-113907055D01*
X245396186Y-113781761D01*
X245406000Y-113719800D01*
X245406000Y-113530199D01*
X246997000Y-113530199D01*
X246997000Y-113719800D01*
X247026657Y-113907050D01*
X247026658Y-113907055D01*
X247066250Y-114028905D01*
X247085247Y-114087372D01*
X247171319Y-114256296D01*
X247282759Y-114409679D01*
X247416821Y-114543741D01*
X247570204Y-114655181D01*
X247650015Y-114695846D01*
X247739127Y-114741252D01*
X247739129Y-114741252D01*
X247739132Y-114741254D01*
X247919445Y-114799842D01*
X248013074Y-114814671D01*
X248106700Y-114829500D01*
X248106704Y-114829500D01*
X248296300Y-114829500D01*
X248379522Y-114816318D01*
X248483555Y-114799842D01*
X248663868Y-114741254D01*
X248832796Y-114655181D01*
X248986179Y-114543741D01*
X249120241Y-114409679D01*
X249231681Y-114256296D01*
X249317754Y-114087368D01*
X249376342Y-113907055D01*
X249396186Y-113781761D01*
X249406000Y-113719800D01*
X249406000Y-113530199D01*
X249389523Y-113426171D01*
X249376342Y-113342945D01*
X249317754Y-113162632D01*
X249317752Y-113162629D01*
X249317752Y-113162627D01*
X249272346Y-113073515D01*
X249231681Y-112993704D01*
X249120241Y-112840321D01*
X248986179Y-112706259D01*
X248832796Y-112594819D01*
X248782779Y-112569334D01*
X248663872Y-112508747D01*
X248605405Y-112489750D01*
X248483555Y-112450158D01*
X248483551Y-112450157D01*
X248483550Y-112450157D01*
X248296300Y-112420500D01*
X248296296Y-112420500D01*
X248106704Y-112420500D01*
X248106700Y-112420500D01*
X247919449Y-112450157D01*
X247919446Y-112450157D01*
X247919445Y-112450158D01*
X247860982Y-112469153D01*
X247739127Y-112508747D01*
X247570203Y-112594819D01*
X247416819Y-112706260D01*
X247282760Y-112840319D01*
X247171319Y-112993703D01*
X247085247Y-113162627D01*
X247026657Y-113342949D01*
X246997000Y-113530199D01*
X245406000Y-113530199D01*
X245389523Y-113426171D01*
X245376342Y-113342945D01*
X245317754Y-113162632D01*
X245317752Y-113162629D01*
X245317752Y-113162627D01*
X245272346Y-113073515D01*
X245231681Y-112993704D01*
X245120241Y-112840321D01*
X244986179Y-112706259D01*
X244832796Y-112594819D01*
X244782779Y-112569334D01*
X244663872Y-112508747D01*
X244605405Y-112489750D01*
X244483555Y-112450158D01*
X244483551Y-112450157D01*
X244483550Y-112450157D01*
X244296300Y-112420500D01*
X244296296Y-112420500D01*
X244106704Y-112420500D01*
X244106700Y-112420500D01*
X243919449Y-112450157D01*
X243919446Y-112450157D01*
X243919445Y-112450158D01*
X243860982Y-112469153D01*
X243739127Y-112508747D01*
X243570203Y-112594819D01*
X243416819Y-112706260D01*
X243282760Y-112840319D01*
X243171319Y-112993703D01*
X243085247Y-113162627D01*
X243026657Y-113342949D01*
X242997000Y-113530199D01*
X202080781Y-113530199D01*
X201903922Y-113255000D01*
X201901614Y-113251264D01*
X201660698Y-112845222D01*
X201366487Y-112349357D01*
X201364307Y-112345527D01*
X201341923Y-112304534D01*
X200861757Y-111425175D01*
X200859705Y-111421252D01*
X200796181Y-111294347D01*
X200796180Y-111294346D01*
X200770835Y-111243713D01*
X204399500Y-111243713D01*
X204399500Y-111756286D01*
X204421889Y-111897648D01*
X204432754Y-111966243D01*
X204476978Y-112102351D01*
X204498444Y-112168414D01*
X204594951Y-112357820D01*
X204719890Y-112529786D01*
X204870213Y-112680109D01*
X205042179Y-112805048D01*
X205042181Y-112805049D01*
X205042184Y-112805051D01*
X205231588Y-112901557D01*
X205433757Y-112967246D01*
X205643713Y-113000500D01*
X205643714Y-113000500D01*
X205856286Y-113000500D01*
X205856287Y-113000500D01*
X206066243Y-112967246D01*
X206268412Y-112901557D01*
X206457816Y-112805051D01*
X206593791Y-112706260D01*
X206629784Y-112680110D01*
X206629784Y-112680109D01*
X206629792Y-112680104D01*
X206768604Y-112541291D01*
X206829923Y-112507809D01*
X206899615Y-112512793D01*
X206955549Y-112554664D01*
X206961821Y-112563878D01*
X206965185Y-112569333D01*
X206965186Y-112569334D01*
X207057288Y-112718656D01*
X207181344Y-112842712D01*
X207330666Y-112934814D01*
X207497203Y-112989999D01*
X207599991Y-113000500D01*
X208900008Y-113000499D01*
X209002797Y-112989999D01*
X209169334Y-112934814D01*
X209318656Y-112842712D01*
X209442712Y-112718656D01*
X209534814Y-112569334D01*
X209589999Y-112402797D01*
X209600500Y-112300009D01*
X209600500Y-111897648D01*
X224949500Y-111897648D01*
X224949500Y-112102351D01*
X224981522Y-112304534D01*
X225044781Y-112499223D01*
X225108691Y-112624653D01*
X225136948Y-112680109D01*
X225137715Y-112681613D01*
X225258028Y-112847213D01*
X225402786Y-112991971D01*
X225557749Y-113104556D01*
X225568390Y-113112287D01*
X225684607Y-113171503D01*
X225750776Y-113205218D01*
X225750778Y-113205218D01*
X225750781Y-113205220D01*
X225855137Y-113239127D01*
X225945465Y-113268477D01*
X226046557Y-113284488D01*
X226147648Y-113300500D01*
X226147649Y-113300500D01*
X226352351Y-113300500D01*
X226352352Y-113300500D01*
X226554534Y-113268477D01*
X226749219Y-113205220D01*
X226931610Y-113112287D01*
X227024590Y-113044732D01*
X227097213Y-112991971D01*
X227097215Y-112991968D01*
X227097219Y-112991966D01*
X227241966Y-112847219D01*
X227241968Y-112847215D01*
X227241971Y-112847213D01*
X227335371Y-112718657D01*
X227362287Y-112681610D01*
X227455220Y-112499219D01*
X227518477Y-112304534D01*
X227550500Y-112102352D01*
X227550500Y-111897648D01*
X227518477Y-111695466D01*
X227455220Y-111500781D01*
X227455218Y-111500778D01*
X227455218Y-111500776D01*
X227414698Y-111421252D01*
X227362287Y-111318390D01*
X227344818Y-111294346D01*
X227241971Y-111152786D01*
X227097213Y-111008028D01*
X226931613Y-110887715D01*
X226931612Y-110887714D01*
X226931610Y-110887713D01*
X226874653Y-110858691D01*
X226749223Y-110794781D01*
X226554534Y-110731522D01*
X226379995Y-110703878D01*
X226352352Y-110699500D01*
X226147648Y-110699500D01*
X226123329Y-110703351D01*
X225945465Y-110731522D01*
X225750776Y-110794781D01*
X225568386Y-110887715D01*
X225402786Y-111008028D01*
X225258028Y-111152786D01*
X225137715Y-111318386D01*
X225044781Y-111500776D01*
X224981522Y-111695465D01*
X224949500Y-111897648D01*
X209600500Y-111897648D01*
X209600499Y-111425175D01*
X209600499Y-110699998D01*
X209600498Y-110699981D01*
X209589999Y-110597203D01*
X209589998Y-110597200D01*
X209550997Y-110479503D01*
X209534814Y-110430666D01*
X209442712Y-110281344D01*
X209318656Y-110157288D01*
X209169334Y-110065186D01*
X209002797Y-110010001D01*
X209002795Y-110010000D01*
X208900010Y-109999500D01*
X207599998Y-109999500D01*
X207599981Y-109999501D01*
X207497203Y-110010000D01*
X207497200Y-110010001D01*
X207330668Y-110065185D01*
X207330663Y-110065187D01*
X207181342Y-110157289D01*
X207057289Y-110281342D01*
X206961821Y-110436121D01*
X206909873Y-110482845D01*
X206840910Y-110494068D01*
X206776828Y-110466224D01*
X206768601Y-110458705D01*
X206629786Y-110319890D01*
X206457820Y-110194951D01*
X206268414Y-110098444D01*
X206268413Y-110098443D01*
X206268412Y-110098443D01*
X206066243Y-110032754D01*
X206066241Y-110032753D01*
X206066240Y-110032753D01*
X205904957Y-110007208D01*
X205856287Y-109999500D01*
X205643713Y-109999500D01*
X205595042Y-110007208D01*
X205433760Y-110032753D01*
X205231585Y-110098444D01*
X205042179Y-110194951D01*
X204870213Y-110319890D01*
X204719890Y-110470213D01*
X204594951Y-110642179D01*
X204498444Y-110831585D01*
X204432753Y-111033760D01*
X204399500Y-111243713D01*
X200770835Y-111243713D01*
X200390298Y-110483497D01*
X200388388Y-110479503D01*
X199952780Y-109525655D01*
X199951013Y-109521597D01*
X199701406Y-108918993D01*
X199549695Y-108552730D01*
X199548105Y-108548688D01*
X199181601Y-107566055D01*
X199180155Y-107561953D01*
X198848991Y-106566963D01*
X198847668Y-106562739D01*
X198638536Y-105850500D01*
X198552219Y-105556531D01*
X198551062Y-105552314D01*
X198291716Y-104536207D01*
X198290701Y-104531911D01*
X198288053Y-104519737D01*
X198067794Y-103507223D01*
X198066934Y-103502902D01*
X198049752Y-103407671D01*
X197880737Y-102470886D01*
X197880032Y-102466529D01*
X197864959Y-102361692D01*
X197787075Y-101820000D01*
X198305138Y-101820000D01*
X199108012Y-101820000D01*
X199090795Y-101829940D01*
X199034940Y-101885795D01*
X198995444Y-101954204D01*
X198975000Y-102030504D01*
X198975000Y-102109496D01*
X198995444Y-102185796D01*
X199034940Y-102254205D01*
X199090795Y-102310060D01*
X199108012Y-102320000D01*
X198305138Y-102320000D01*
X198313430Y-102361690D01*
X198313430Y-102361692D01*
X198388807Y-102543671D01*
X198388814Y-102543684D01*
X198498248Y-102707462D01*
X198498251Y-102707466D01*
X198637533Y-102846748D01*
X198637537Y-102846751D01*
X198801315Y-102956185D01*
X198801328Y-102956192D01*
X198983306Y-103031569D01*
X198983318Y-103031572D01*
X199176504Y-103069999D01*
X199176508Y-103070000D01*
X199425000Y-103070000D01*
X199425000Y-102370000D01*
X199925000Y-102370000D01*
X199925000Y-103070000D01*
X200173492Y-103070000D01*
X200173495Y-103069999D01*
X200366681Y-103031572D01*
X200366693Y-103031569D01*
X200548671Y-102956192D01*
X200548684Y-102956185D01*
X200712462Y-102846751D01*
X200712466Y-102846748D01*
X200851748Y-102707466D01*
X200851751Y-102707462D01*
X200961185Y-102543684D01*
X200961192Y-102543671D01*
X201036569Y-102361692D01*
X201036569Y-102361690D01*
X201044862Y-102320000D01*
X200241988Y-102320000D01*
X200259205Y-102310060D01*
X200315060Y-102254205D01*
X200354556Y-102185796D01*
X200375000Y-102109496D01*
X200375000Y-102030504D01*
X200354556Y-101954204D01*
X200315060Y-101885795D01*
X200259205Y-101829940D01*
X200241988Y-101820000D01*
X201044862Y-101820000D01*
X202335138Y-101820000D01*
X203138012Y-101820000D01*
X203120795Y-101829940D01*
X203064940Y-101885795D01*
X203025444Y-101954204D01*
X203005000Y-102030504D01*
X203005000Y-102109496D01*
X203025444Y-102185796D01*
X203064940Y-102254205D01*
X203120795Y-102310060D01*
X203138012Y-102320000D01*
X202335138Y-102320000D01*
X202343430Y-102361690D01*
X202343430Y-102361692D01*
X202418807Y-102543671D01*
X202418814Y-102543684D01*
X202528248Y-102707462D01*
X202528251Y-102707466D01*
X202667533Y-102846748D01*
X202667537Y-102846751D01*
X202831315Y-102956185D01*
X202831328Y-102956192D01*
X203013306Y-103031569D01*
X203013318Y-103031572D01*
X203206504Y-103069999D01*
X203206508Y-103070000D01*
X203605000Y-103070000D01*
X203605000Y-102370000D01*
X204105000Y-102370000D01*
X204105000Y-103070000D01*
X204503492Y-103070000D01*
X204503495Y-103069999D01*
X204696681Y-103031572D01*
X204696693Y-103031569D01*
X204878671Y-102956192D01*
X204878684Y-102956185D01*
X205042462Y-102846751D01*
X205042466Y-102846748D01*
X205181748Y-102707466D01*
X205181751Y-102707462D01*
X205291185Y-102543684D01*
X205291192Y-102543671D01*
X205366569Y-102361692D01*
X205366569Y-102361690D01*
X205374862Y-102320000D01*
X204571988Y-102320000D01*
X204589205Y-102310060D01*
X204645060Y-102254205D01*
X204684556Y-102185796D01*
X204705000Y-102109496D01*
X204705000Y-102030504D01*
X204684556Y-101954204D01*
X204645060Y-101885795D01*
X204589205Y-101829940D01*
X204571988Y-101820000D01*
X205374862Y-101820000D01*
X205366569Y-101778309D01*
X205366569Y-101778307D01*
X205291192Y-101596328D01*
X205291185Y-101596315D01*
X205181751Y-101432537D01*
X205181748Y-101432533D01*
X205042466Y-101293251D01*
X205042462Y-101293248D01*
X204878684Y-101183814D01*
X204878671Y-101183807D01*
X204696693Y-101108430D01*
X204696681Y-101108427D01*
X204503495Y-101070000D01*
X204105000Y-101070000D01*
X204105000Y-101770000D01*
X203605000Y-101770000D01*
X203605000Y-101174049D01*
X203624685Y-101107010D01*
X203641870Y-101085820D01*
X203653203Y-101074627D01*
X203677665Y-101060505D01*
X203775505Y-100962665D01*
X203844688Y-100842836D01*
X203880500Y-100709183D01*
X203880500Y-100570817D01*
X203844688Y-100437164D01*
X203810014Y-100377106D01*
X203775507Y-100317338D01*
X203775503Y-100317333D01*
X203677666Y-100219496D01*
X203677661Y-100219492D01*
X203557838Y-100150313D01*
X203557837Y-100150312D01*
X203557836Y-100150312D01*
X203424183Y-100114500D01*
X203285817Y-100114500D01*
X203152164Y-100150312D01*
X203152161Y-100150313D01*
X203032338Y-100219492D01*
X203032333Y-100219496D01*
X202934496Y-100317333D01*
X202934492Y-100317338D01*
X202865313Y-100437161D01*
X202865312Y-100437164D01*
X202829500Y-100570817D01*
X202829500Y-100709183D01*
X202855161Y-100804949D01*
X202865312Y-100842835D01*
X202865313Y-100842838D01*
X202934492Y-100962661D01*
X202939441Y-100969110D01*
X202936813Y-100971125D01*
X202962911Y-101018919D01*
X202957927Y-101088611D01*
X202916055Y-101144544D01*
X202889197Y-101159838D01*
X202831328Y-101183807D01*
X202831315Y-101183814D01*
X202667537Y-101293248D01*
X202667533Y-101293251D01*
X202528251Y-101432533D01*
X202528248Y-101432537D01*
X202418814Y-101596315D01*
X202418807Y-101596328D01*
X202343430Y-101778307D01*
X202343430Y-101778309D01*
X202335138Y-101820000D01*
X201044862Y-101820000D01*
X201036569Y-101778309D01*
X201036569Y-101778307D01*
X200961192Y-101596328D01*
X200961185Y-101596315D01*
X200851751Y-101432537D01*
X200851748Y-101432533D01*
X200712466Y-101293251D01*
X200712462Y-101293248D01*
X200548684Y-101183814D01*
X200548671Y-101183807D01*
X200366693Y-101108430D01*
X200366681Y-101108427D01*
X200173495Y-101070000D01*
X199925000Y-101070000D01*
X199925000Y-101770000D01*
X199425000Y-101770000D01*
X199425000Y-101070000D01*
X199176504Y-101070000D01*
X198983318Y-101108427D01*
X198983306Y-101108430D01*
X198801328Y-101183807D01*
X198801315Y-101183814D01*
X198637537Y-101293248D01*
X198637533Y-101293251D01*
X198498251Y-101432533D01*
X198498248Y-101432537D01*
X198388814Y-101596315D01*
X198388807Y-101596328D01*
X198313430Y-101778307D01*
X198313430Y-101778309D01*
X198305138Y-101820000D01*
X197787075Y-101820000D01*
X197730793Y-101428552D01*
X197730244Y-101424178D01*
X197711753Y-101252184D01*
X197618141Y-100381464D01*
X197617756Y-100377158D01*
X197542943Y-99331146D01*
X197542707Y-99326730D01*
X197537151Y-99171158D01*
X197537151Y-99171153D01*
X205199500Y-99171153D01*
X205199500Y-99328846D01*
X205230261Y-99483489D01*
X205230264Y-99483501D01*
X205290602Y-99629172D01*
X205290609Y-99629185D01*
X205378210Y-99760288D01*
X205378213Y-99760292D01*
X205489707Y-99871786D01*
X205489711Y-99871789D01*
X205620814Y-99959390D01*
X205620827Y-99959397D01*
X205716977Y-99999223D01*
X205766503Y-100019737D01*
X205831147Y-100032595D01*
X205921849Y-100050638D01*
X205983760Y-100083023D01*
X205985339Y-100084574D01*
X210422944Y-104522179D01*
X210456429Y-104583502D01*
X210456881Y-104634050D01*
X210449693Y-104670191D01*
X210449500Y-104671159D01*
X210449500Y-104828846D01*
X210480261Y-104983489D01*
X210480264Y-104983501D01*
X210540602Y-105129172D01*
X210540609Y-105129185D01*
X210628210Y-105260288D01*
X210628213Y-105260292D01*
X210739707Y-105371786D01*
X210739711Y-105371789D01*
X210870814Y-105459390D01*
X210870827Y-105459397D01*
X211016498Y-105519735D01*
X211016503Y-105519737D01*
X211171153Y-105550499D01*
X211171156Y-105550500D01*
X211171158Y-105550500D01*
X211328844Y-105550500D01*
X211328845Y-105550499D01*
X211483497Y-105519737D01*
X211629179Y-105459394D01*
X211760289Y-105371789D01*
X211871789Y-105260289D01*
X211959394Y-105129179D01*
X212019737Y-104983497D01*
X212050500Y-104828842D01*
X212050500Y-104671158D01*
X212050500Y-104671155D01*
X212050405Y-104670191D01*
X212050500Y-104669690D01*
X212050500Y-104665066D01*
X212051377Y-104665066D01*
X212063425Y-104601546D01*
X212111490Y-104550836D01*
X212149617Y-104536422D01*
X212163560Y-104533648D01*
X212233497Y-104519737D01*
X212379179Y-104459394D01*
X212510289Y-104371789D01*
X212621789Y-104260289D01*
X212709394Y-104129179D01*
X212769737Y-103983497D01*
X212800500Y-103828842D01*
X212800500Y-103671158D01*
X212800500Y-103671155D01*
X212800499Y-103671153D01*
X212786768Y-103602123D01*
X212769737Y-103516503D01*
X212769735Y-103516498D01*
X212709397Y-103370827D01*
X212709390Y-103370814D01*
X212621789Y-103239711D01*
X212621786Y-103239707D01*
X212510292Y-103128213D01*
X212510288Y-103128210D01*
X212379185Y-103040609D01*
X212379172Y-103040602D01*
X212233501Y-102980264D01*
X212233491Y-102980261D01*
X212078149Y-102949361D01*
X212016238Y-102916976D01*
X212014660Y-102915425D01*
X211237590Y-102138355D01*
X211237588Y-102138352D01*
X211118717Y-102019481D01*
X211118716Y-102019480D01*
X211031904Y-101969360D01*
X211014545Y-101959337D01*
X210988866Y-101939632D01*
X207586819Y-98537585D01*
X207553334Y-98476262D01*
X207550500Y-98449904D01*
X207550500Y-98421155D01*
X207550499Y-98421153D01*
X207519737Y-98266503D01*
X207505248Y-98231522D01*
X207459397Y-98120827D01*
X207459390Y-98120814D01*
X207371789Y-97989711D01*
X207371786Y-97989707D01*
X207260292Y-97878213D01*
X207260288Y-97878210D01*
X207129185Y-97790609D01*
X207129172Y-97790602D01*
X206983501Y-97730264D01*
X206983489Y-97730261D01*
X206828845Y-97699500D01*
X206828842Y-97699500D01*
X206671158Y-97699500D01*
X206671155Y-97699500D01*
X206516510Y-97730261D01*
X206516498Y-97730264D01*
X206370827Y-97790602D01*
X206370814Y-97790609D01*
X206239711Y-97878210D01*
X206239707Y-97878213D01*
X206128213Y-97989707D01*
X206128210Y-97989711D01*
X206040609Y-98120814D01*
X206040602Y-98120827D01*
X205980264Y-98266498D01*
X205980261Y-98266508D01*
X205960961Y-98363536D01*
X205928576Y-98425447D01*
X205867860Y-98460021D01*
X205863536Y-98460961D01*
X205766508Y-98480261D01*
X205766498Y-98480264D01*
X205620827Y-98540602D01*
X205620814Y-98540609D01*
X205489711Y-98628210D01*
X205489707Y-98628213D01*
X205378213Y-98739707D01*
X205378210Y-98739711D01*
X205290609Y-98870814D01*
X205290602Y-98870827D01*
X205230264Y-99016498D01*
X205230261Y-99016510D01*
X205199500Y-99171153D01*
X197537151Y-99171153D01*
X197505278Y-98278748D01*
X197505199Y-98274322D01*
X197505199Y-97225677D01*
X197505278Y-97221251D01*
X197521262Y-96773713D01*
X238649500Y-96773713D01*
X238649500Y-96986287D01*
X238682754Y-97196243D01*
X238691598Y-97223463D01*
X238748444Y-97398414D01*
X238844951Y-97587820D01*
X238969890Y-97759786D01*
X239120213Y-97910109D01*
X239292182Y-98035050D01*
X239300946Y-98039516D01*
X239351742Y-98087491D01*
X239368536Y-98155312D01*
X239345998Y-98221447D01*
X239300946Y-98260484D01*
X239292182Y-98264949D01*
X239120213Y-98389890D01*
X238969890Y-98540213D01*
X238844951Y-98712179D01*
X238748444Y-98901585D01*
X238682753Y-99103760D01*
X238649500Y-99313713D01*
X238649500Y-99526286D01*
X238665797Y-99629185D01*
X238682754Y-99736243D01*
X238704943Y-99804534D01*
X238748444Y-99938414D01*
X238844951Y-100127820D01*
X238969890Y-100299786D01*
X239120213Y-100450109D01*
X239292182Y-100575050D01*
X239300946Y-100579516D01*
X239351742Y-100627491D01*
X239368536Y-100695312D01*
X239345998Y-100761447D01*
X239300946Y-100800484D01*
X239292182Y-100804949D01*
X239120213Y-100929890D01*
X238969890Y-101080213D01*
X238844951Y-101252179D01*
X238748444Y-101441585D01*
X238682753Y-101643760D01*
X238649500Y-101853713D01*
X238649500Y-102066286D01*
X238668428Y-102185796D01*
X238682754Y-102276243D01*
X238745295Y-102468725D01*
X238748444Y-102478414D01*
X238844951Y-102667820D01*
X238969890Y-102839786D01*
X239083430Y-102953326D01*
X239116915Y-103014649D01*
X239111931Y-103084341D01*
X239070059Y-103140274D01*
X239039083Y-103157189D01*
X238907669Y-103206203D01*
X238907664Y-103206206D01*
X238792455Y-103292452D01*
X238792452Y-103292455D01*
X238706206Y-103407664D01*
X238706202Y-103407671D01*
X238655908Y-103542517D01*
X238649501Y-103602116D01*
X238649501Y-103602123D01*
X238649500Y-103602135D01*
X238649500Y-105397870D01*
X238649501Y-105397876D01*
X238655908Y-105457483D01*
X238706202Y-105592328D01*
X238706206Y-105592335D01*
X238792452Y-105707544D01*
X238792455Y-105707547D01*
X238907664Y-105793793D01*
X238907671Y-105793797D01*
X239042517Y-105844091D01*
X239042516Y-105844091D01*
X239049444Y-105844835D01*
X239102127Y-105850500D01*
X240897872Y-105850499D01*
X240957483Y-105844091D01*
X241092331Y-105793796D01*
X241207546Y-105707546D01*
X241293796Y-105592331D01*
X241344091Y-105457483D01*
X241350500Y-105397873D01*
X241350499Y-103602128D01*
X241344091Y-103542517D01*
X241334388Y-103516503D01*
X241293797Y-103407671D01*
X241293793Y-103407664D01*
X241207547Y-103292455D01*
X241207544Y-103292452D01*
X241092335Y-103206206D01*
X241092328Y-103206202D01*
X240960917Y-103157189D01*
X240904983Y-103115318D01*
X240880566Y-103049853D01*
X240895418Y-102981580D01*
X240916563Y-102953332D01*
X241030104Y-102839792D01*
X241155051Y-102667816D01*
X241251557Y-102478412D01*
X241317246Y-102276243D01*
X241350500Y-102066287D01*
X241350500Y-101853713D01*
X241317246Y-101643757D01*
X241251557Y-101441588D01*
X241155051Y-101252184D01*
X241155049Y-101252181D01*
X241155048Y-101252179D01*
X241030109Y-101080213D01*
X240879786Y-100929890D01*
X240707820Y-100804951D01*
X240707115Y-100804591D01*
X240699054Y-100800485D01*
X240648259Y-100752512D01*
X240631463Y-100684692D01*
X240653999Y-100618556D01*
X240699054Y-100579515D01*
X240707816Y-100575051D01*
X240822167Y-100491971D01*
X240879786Y-100450109D01*
X240879788Y-100450106D01*
X240879792Y-100450104D01*
X241030104Y-100299792D01*
X241030106Y-100299788D01*
X241030109Y-100299786D01*
X241155048Y-100127820D01*
X241155047Y-100127820D01*
X241155051Y-100127816D01*
X241251557Y-99938412D01*
X241317246Y-99736243D01*
X241350500Y-99526287D01*
X241350500Y-99397648D01*
X243199500Y-99397648D01*
X243199500Y-99602351D01*
X243231522Y-99804534D01*
X243294781Y-99999223D01*
X243353519Y-100114500D01*
X243371766Y-100150313D01*
X243387715Y-100181613D01*
X243508028Y-100347213D01*
X243652786Y-100491971D01*
X243773281Y-100579514D01*
X243818390Y-100612287D01*
X243934607Y-100671503D01*
X244000776Y-100705218D01*
X244000778Y-100705218D01*
X244000781Y-100705220D01*
X244105137Y-100739127D01*
X244195465Y-100768477D01*
X244296557Y-100784488D01*
X244397648Y-100800500D01*
X244397649Y-100800500D01*
X244602351Y-100800500D01*
X244602352Y-100800500D01*
X244804534Y-100768477D01*
X244999219Y-100705220D01*
X245181610Y-100612287D01*
X245274590Y-100544732D01*
X245347213Y-100491971D01*
X245347215Y-100491968D01*
X245347219Y-100491966D01*
X245491966Y-100347219D01*
X245491968Y-100347215D01*
X245491971Y-100347213D01*
X245584764Y-100219492D01*
X245612287Y-100181610D01*
X245705220Y-99999219D01*
X245768477Y-99804534D01*
X245800500Y-99602352D01*
X245800500Y-99397648D01*
X245768477Y-99195466D01*
X245705220Y-99000781D01*
X245705218Y-99000778D01*
X245705218Y-99000776D01*
X245671503Y-98934607D01*
X245612287Y-98818390D01*
X245555124Y-98739711D01*
X245491971Y-98652786D01*
X245347213Y-98508028D01*
X245181613Y-98387715D01*
X245181612Y-98387714D01*
X245181610Y-98387713D01*
X245124653Y-98358691D01*
X244999223Y-98294781D01*
X244804534Y-98231522D01*
X244629995Y-98203878D01*
X244602352Y-98199500D01*
X244397648Y-98199500D01*
X244373329Y-98203351D01*
X244195465Y-98231522D01*
X244000776Y-98294781D01*
X243818386Y-98387715D01*
X243652786Y-98508028D01*
X243508028Y-98652786D01*
X243387715Y-98818386D01*
X243294781Y-99000776D01*
X243231522Y-99195465D01*
X243199500Y-99397648D01*
X241350500Y-99397648D01*
X241350500Y-99313713D01*
X241317246Y-99103757D01*
X241251557Y-98901588D01*
X241155051Y-98712184D01*
X241155049Y-98712181D01*
X241155048Y-98712179D01*
X241030109Y-98540213D01*
X240879786Y-98389890D01*
X240707820Y-98264951D01*
X240707115Y-98264591D01*
X240699054Y-98260485D01*
X240648259Y-98212512D01*
X240631463Y-98144692D01*
X240653999Y-98078556D01*
X240699054Y-98039515D01*
X240707816Y-98035051D01*
X240770227Y-97989707D01*
X240879786Y-97910109D01*
X240879788Y-97910106D01*
X240879792Y-97910104D01*
X241030104Y-97759792D01*
X241030106Y-97759788D01*
X241030109Y-97759786D01*
X241155048Y-97587820D01*
X241155047Y-97587820D01*
X241155051Y-97587816D01*
X241251557Y-97398412D01*
X241317246Y-97196243D01*
X241350500Y-96986287D01*
X241350500Y-96773713D01*
X241317246Y-96563757D01*
X241251557Y-96361588D01*
X241155051Y-96172184D01*
X241155049Y-96172181D01*
X241155048Y-96172179D01*
X241030109Y-96000213D01*
X240879786Y-95849890D01*
X240707820Y-95724951D01*
X240518414Y-95628444D01*
X240518413Y-95628443D01*
X240518412Y-95628443D01*
X240316243Y-95562754D01*
X240316241Y-95562753D01*
X240316240Y-95562753D01*
X240154957Y-95537208D01*
X240106287Y-95529500D01*
X239893713Y-95529500D01*
X239845042Y-95537208D01*
X239683760Y-95562753D01*
X239481585Y-95628444D01*
X239292179Y-95724951D01*
X239120213Y-95849890D01*
X238969890Y-96000213D01*
X238844951Y-96172179D01*
X238748444Y-96361585D01*
X238682753Y-96563760D01*
X238650973Y-96764415D01*
X238649500Y-96773713D01*
X197521262Y-96773713D01*
X197521594Y-96764415D01*
X197542707Y-96173263D01*
X197542944Y-96168849D01*
X197617757Y-95122836D01*
X197618140Y-95118540D01*
X197730247Y-94075796D01*
X197730796Y-94071429D01*
X197731366Y-94067466D01*
X197858964Y-93180000D01*
X198305138Y-93180000D01*
X199108012Y-93180000D01*
X199090795Y-93189940D01*
X199034940Y-93245795D01*
X198995444Y-93314204D01*
X198975000Y-93390504D01*
X198975000Y-93469496D01*
X198995444Y-93545796D01*
X199034940Y-93614205D01*
X199090795Y-93670060D01*
X199108012Y-93680000D01*
X198305138Y-93680000D01*
X198313430Y-93721690D01*
X198313430Y-93721692D01*
X198388807Y-93903671D01*
X198388814Y-93903684D01*
X198498248Y-94067462D01*
X198498251Y-94067466D01*
X198637533Y-94206748D01*
X198637537Y-94206751D01*
X198801315Y-94316185D01*
X198801328Y-94316192D01*
X198983306Y-94391569D01*
X198983318Y-94391572D01*
X199176504Y-94429999D01*
X199176508Y-94430000D01*
X199425000Y-94430000D01*
X199425000Y-93730000D01*
X199925000Y-93730000D01*
X199925000Y-94430000D01*
X200173492Y-94430000D01*
X200173495Y-94429999D01*
X200366681Y-94391572D01*
X200366693Y-94391569D01*
X200548671Y-94316192D01*
X200548684Y-94316185D01*
X200712462Y-94206751D01*
X200712466Y-94206748D01*
X200851748Y-94067466D01*
X200851751Y-94067462D01*
X200961185Y-93903684D01*
X200961192Y-93903671D01*
X201036569Y-93721692D01*
X201036569Y-93721690D01*
X201044862Y-93680000D01*
X200241988Y-93680000D01*
X200259205Y-93670060D01*
X200315060Y-93614205D01*
X200354556Y-93545796D01*
X200375000Y-93469496D01*
X200375000Y-93390504D01*
X200354556Y-93314204D01*
X200315060Y-93245795D01*
X200259205Y-93189940D01*
X200241988Y-93180000D01*
X201044862Y-93180000D01*
X202335138Y-93180000D01*
X203138012Y-93180000D01*
X203120795Y-93189940D01*
X203064940Y-93245795D01*
X203025444Y-93314204D01*
X203005000Y-93390504D01*
X203005000Y-93469496D01*
X203025444Y-93545796D01*
X203064940Y-93614205D01*
X203120795Y-93670060D01*
X203138012Y-93680000D01*
X202335138Y-93680000D01*
X202343430Y-93721690D01*
X202343430Y-93721692D01*
X202418807Y-93903671D01*
X202418814Y-93903684D01*
X202528248Y-94067462D01*
X202528251Y-94067466D01*
X202667533Y-94206748D01*
X202667537Y-94206751D01*
X202831315Y-94316185D01*
X202831322Y-94316189D01*
X202889196Y-94340160D01*
X202943600Y-94384000D01*
X202965666Y-94450294D01*
X202948388Y-94517994D01*
X202938774Y-94530378D01*
X202939441Y-94530890D01*
X202934492Y-94537338D01*
X202865313Y-94657161D01*
X202865312Y-94657164D01*
X202829500Y-94790817D01*
X202829500Y-94929182D01*
X202865312Y-95062835D01*
X202865313Y-95062838D01*
X202934492Y-95182661D01*
X202934494Y-95182664D01*
X202934495Y-95182665D01*
X203032335Y-95280505D01*
X203152164Y-95349688D01*
X203285817Y-95385500D01*
X203285819Y-95385500D01*
X203424181Y-95385500D01*
X203424183Y-95385500D01*
X203557836Y-95349688D01*
X203677665Y-95280505D01*
X203775505Y-95182665D01*
X203844688Y-95062836D01*
X203880500Y-94929183D01*
X203880500Y-94790817D01*
X203844688Y-94657164D01*
X203775505Y-94537335D01*
X203677665Y-94439495D01*
X203677664Y-94439494D01*
X203666999Y-94433337D01*
X203618784Y-94382769D01*
X203605000Y-94325950D01*
X203605000Y-93730000D01*
X204105000Y-93730000D01*
X204105000Y-94430000D01*
X204503492Y-94430000D01*
X204503495Y-94429999D01*
X204696681Y-94391572D01*
X204696693Y-94391569D01*
X204878671Y-94316192D01*
X204878684Y-94316185D01*
X205042462Y-94206751D01*
X205042466Y-94206748D01*
X205181748Y-94067466D01*
X205181751Y-94067462D01*
X205291185Y-93903684D01*
X205291192Y-93903671D01*
X205366569Y-93721692D01*
X205366569Y-93721690D01*
X205374862Y-93680000D01*
X204571988Y-93680000D01*
X204589205Y-93670060D01*
X204645060Y-93614205D01*
X204684556Y-93545796D01*
X204705000Y-93469496D01*
X204705000Y-93390504D01*
X204684556Y-93314204D01*
X204645060Y-93245795D01*
X204589205Y-93189940D01*
X204571988Y-93180000D01*
X205374862Y-93180000D01*
X205366569Y-93138309D01*
X205366569Y-93138307D01*
X205291192Y-92956328D01*
X205291185Y-92956315D01*
X205181751Y-92792537D01*
X205181748Y-92792533D01*
X205042466Y-92653251D01*
X205042462Y-92653248D01*
X204878684Y-92543814D01*
X204878671Y-92543807D01*
X204696693Y-92468430D01*
X204696681Y-92468427D01*
X204503495Y-92430000D01*
X204105000Y-92430000D01*
X204105000Y-93130000D01*
X203605000Y-93130000D01*
X203605000Y-92430000D01*
X203206504Y-92430000D01*
X203013318Y-92468427D01*
X203013306Y-92468430D01*
X202831328Y-92543807D01*
X202831315Y-92543814D01*
X202667537Y-92653248D01*
X202667533Y-92653251D01*
X202528251Y-92792533D01*
X202528248Y-92792537D01*
X202418814Y-92956315D01*
X202418807Y-92956328D01*
X202343430Y-93138307D01*
X202343430Y-93138309D01*
X202335138Y-93180000D01*
X201044862Y-93180000D01*
X201036569Y-93138309D01*
X201036569Y-93138307D01*
X200961192Y-92956328D01*
X200961185Y-92956315D01*
X200851751Y-92792537D01*
X200851748Y-92792533D01*
X200712466Y-92653251D01*
X200712462Y-92653248D01*
X200548684Y-92543814D01*
X200548671Y-92543807D01*
X200366693Y-92468430D01*
X200366681Y-92468427D01*
X200173495Y-92430000D01*
X199925000Y-92430000D01*
X199925000Y-93130000D01*
X199425000Y-93130000D01*
X199425000Y-92430000D01*
X199176504Y-92430000D01*
X198983318Y-92468427D01*
X198983306Y-92468430D01*
X198801328Y-92543807D01*
X198801315Y-92543814D01*
X198637537Y-92653248D01*
X198637533Y-92653251D01*
X198498251Y-92792533D01*
X198498248Y-92792537D01*
X198388814Y-92956315D01*
X198388807Y-92956328D01*
X198313430Y-93138307D01*
X198313430Y-93138309D01*
X198305138Y-93180000D01*
X197858964Y-93180000D01*
X197880035Y-93033447D01*
X197880740Y-93029100D01*
X198063034Y-92018713D01*
X244649500Y-92018713D01*
X244649500Y-92481286D01*
X244676736Y-92653251D01*
X244682754Y-92691243D01*
X244715665Y-92792533D01*
X244748444Y-92893414D01*
X244844951Y-93082820D01*
X244969890Y-93254786D01*
X245120213Y-93405109D01*
X245292179Y-93530048D01*
X245292181Y-93530049D01*
X245292184Y-93530051D01*
X245481588Y-93626557D01*
X245683757Y-93692246D01*
X245893713Y-93725500D01*
X245893714Y-93725500D01*
X246106286Y-93725500D01*
X246106287Y-93725500D01*
X246316243Y-93692246D01*
X246518412Y-93626557D01*
X246707816Y-93530051D01*
X246729789Y-93514086D01*
X246879786Y-93405109D01*
X246879788Y-93405106D01*
X246879792Y-93405104D01*
X247030104Y-93254792D01*
X247149683Y-93090204D01*
X247205011Y-93047540D01*
X247274624Y-93041561D01*
X247336420Y-93074166D01*
X247350313Y-93090199D01*
X247415557Y-93180000D01*
X247469896Y-93254792D01*
X247620213Y-93405109D01*
X247792179Y-93530048D01*
X247792181Y-93530049D01*
X247792184Y-93530051D01*
X247981588Y-93626557D01*
X248183757Y-93692246D01*
X248393713Y-93725500D01*
X248393714Y-93725500D01*
X248606286Y-93725500D01*
X248606287Y-93725500D01*
X248816243Y-93692246D01*
X249018412Y-93626557D01*
X249207816Y-93530051D01*
X249291163Y-93469496D01*
X249379784Y-93405110D01*
X249379784Y-93405109D01*
X249379792Y-93405104D01*
X249518967Y-93265928D01*
X249580286Y-93232446D01*
X249649978Y-93237430D01*
X249705912Y-93279301D01*
X249712184Y-93288515D01*
X249807684Y-93443345D01*
X249931654Y-93567315D01*
X250080875Y-93659356D01*
X250080880Y-93659358D01*
X250247302Y-93714505D01*
X250247309Y-93714506D01*
X250350019Y-93724999D01*
X250749999Y-93724999D01*
X250750000Y-93724998D01*
X250750000Y-92654145D01*
X250816657Y-92692630D01*
X250937465Y-92725000D01*
X251062535Y-92725000D01*
X251183343Y-92692630D01*
X251250000Y-92654145D01*
X251250000Y-93724999D01*
X251649972Y-93724999D01*
X251649986Y-93724998D01*
X251752697Y-93714505D01*
X251919119Y-93659358D01*
X251919124Y-93659356D01*
X252068345Y-93567315D01*
X252192315Y-93443345D01*
X252284356Y-93294124D01*
X252284358Y-93294119D01*
X252339505Y-93127697D01*
X252339506Y-93127690D01*
X252349999Y-93024986D01*
X252350000Y-93024973D01*
X252350000Y-92500000D01*
X251404146Y-92500000D01*
X251442630Y-92433343D01*
X251475000Y-92312535D01*
X251475000Y-92187465D01*
X251442630Y-92066657D01*
X251404146Y-92000000D01*
X252349999Y-92000000D01*
X252349999Y-91475028D01*
X252349998Y-91475013D01*
X252339505Y-91372302D01*
X252284358Y-91205880D01*
X252284356Y-91205875D01*
X252192315Y-91056654D01*
X252068345Y-90932684D01*
X251919124Y-90840643D01*
X251919119Y-90840641D01*
X251752697Y-90785494D01*
X251752690Y-90785493D01*
X251649986Y-90775000D01*
X251250000Y-90775000D01*
X251250000Y-91845854D01*
X251183343Y-91807370D01*
X251062535Y-91775000D01*
X250937465Y-91775000D01*
X250816657Y-91807370D01*
X250750000Y-91845854D01*
X250750000Y-90775000D01*
X250350028Y-90775000D01*
X250350012Y-90775001D01*
X250247302Y-90785494D01*
X250080880Y-90840641D01*
X250080875Y-90840643D01*
X249931654Y-90932684D01*
X249807683Y-91056655D01*
X249807680Y-91056659D01*
X249712183Y-91211484D01*
X249660235Y-91258209D01*
X249591273Y-91269430D01*
X249527191Y-91241587D01*
X249518964Y-91234068D01*
X249379786Y-91094890D01*
X249207820Y-90969951D01*
X249018414Y-90873444D01*
X249018413Y-90873443D01*
X249018412Y-90873443D01*
X248816243Y-90807754D01*
X248816241Y-90807753D01*
X248816240Y-90807753D01*
X248654957Y-90782208D01*
X248606287Y-90774500D01*
X248393713Y-90774500D01*
X248345042Y-90782208D01*
X248183760Y-90807753D01*
X247981585Y-90873444D01*
X247792179Y-90969951D01*
X247620213Y-91094890D01*
X247469894Y-91245209D01*
X247469890Y-91245214D01*
X247350318Y-91409793D01*
X247294989Y-91452459D01*
X247225375Y-91458438D01*
X247163580Y-91425833D01*
X247149682Y-91409793D01*
X247030109Y-91245214D01*
X247030105Y-91245209D01*
X246879786Y-91094890D01*
X246707820Y-90969951D01*
X246518414Y-90873444D01*
X246518413Y-90873443D01*
X246518412Y-90873443D01*
X246316243Y-90807754D01*
X246316241Y-90807753D01*
X246316240Y-90807753D01*
X246154957Y-90782208D01*
X246106287Y-90774500D01*
X245893713Y-90774500D01*
X245845042Y-90782208D01*
X245683760Y-90807753D01*
X245481585Y-90873444D01*
X245292179Y-90969951D01*
X245120213Y-91094890D01*
X244969890Y-91245213D01*
X244844951Y-91417179D01*
X244748444Y-91606585D01*
X244682753Y-91808760D01*
X244649500Y-92018713D01*
X198063034Y-92018713D01*
X198066940Y-91997066D01*
X198067782Y-91992829D01*
X198290706Y-90968063D01*
X198291719Y-90963780D01*
X198314777Y-90873443D01*
X198506405Y-90122648D01*
X205424500Y-90122648D01*
X205424500Y-90327351D01*
X205456522Y-90529534D01*
X205519781Y-90724223D01*
X205612715Y-90906613D01*
X205733028Y-91072213D01*
X205877786Y-91216971D01*
X206032749Y-91329556D01*
X206043390Y-91337287D01*
X206112111Y-91372302D01*
X206225776Y-91430218D01*
X206225778Y-91430218D01*
X206225781Y-91430220D01*
X206294226Y-91452459D01*
X206420465Y-91493477D01*
X206521557Y-91509488D01*
X206622648Y-91525500D01*
X206622649Y-91525500D01*
X206827351Y-91525500D01*
X206827352Y-91525500D01*
X207029534Y-91493477D01*
X207224219Y-91430220D01*
X207406610Y-91337287D01*
X207500008Y-91269430D01*
X207572213Y-91216971D01*
X207572215Y-91216968D01*
X207572219Y-91216966D01*
X207716966Y-91072219D01*
X207716968Y-91072215D01*
X207716971Y-91072213D01*
X207818343Y-90932684D01*
X207837287Y-90906610D01*
X207930220Y-90724219D01*
X207993477Y-90529534D01*
X208025500Y-90327352D01*
X208025500Y-90122648D01*
X207993477Y-89920466D01*
X207930220Y-89725781D01*
X207930218Y-89725778D01*
X207930218Y-89725776D01*
X207896503Y-89659607D01*
X207837287Y-89543390D01*
X207829556Y-89532749D01*
X207716971Y-89377786D01*
X207572213Y-89233028D01*
X207406613Y-89112715D01*
X207406612Y-89112714D01*
X207406610Y-89112713D01*
X207349653Y-89083691D01*
X207224223Y-89019781D01*
X207029534Y-88956522D01*
X206854995Y-88928878D01*
X206827352Y-88924500D01*
X206622648Y-88924500D01*
X206598329Y-88928351D01*
X206420465Y-88956522D01*
X206225776Y-89019781D01*
X206043386Y-89112715D01*
X205877786Y-89233028D01*
X205733028Y-89377786D01*
X205612715Y-89543386D01*
X205519781Y-89725776D01*
X205456522Y-89920465D01*
X205424500Y-90122648D01*
X198506405Y-90122648D01*
X198551065Y-89947671D01*
X198552214Y-89943482D01*
X198847672Y-88937246D01*
X198848991Y-88933036D01*
X198851832Y-88924500D01*
X199180161Y-87938029D01*
X199181594Y-87933962D01*
X199548112Y-86951292D01*
X199549688Y-86947288D01*
X199951016Y-85978395D01*
X199952780Y-85974344D01*
X200388388Y-85020496D01*
X200390298Y-85016502D01*
X200859705Y-84078746D01*
X200861757Y-84074824D01*
X201364330Y-83154431D01*
X201366473Y-83150665D01*
X201799313Y-82421153D01*
X209699500Y-82421153D01*
X209699500Y-82578846D01*
X209730261Y-82733489D01*
X209730264Y-82733501D01*
X209790602Y-82879172D01*
X209790609Y-82879185D01*
X209878210Y-83010288D01*
X209878213Y-83010292D01*
X209989707Y-83121786D01*
X209989711Y-83121789D01*
X210120814Y-83209390D01*
X210120827Y-83209397D01*
X210266498Y-83269735D01*
X210266503Y-83269737D01*
X210421153Y-83300499D01*
X210421156Y-83300500D01*
X210421158Y-83300500D01*
X210578844Y-83300500D01*
X210578845Y-83300499D01*
X210733497Y-83269737D01*
X210879179Y-83209394D01*
X211010289Y-83121789D01*
X211121789Y-83010289D01*
X211209394Y-82879179D01*
X211269737Y-82733497D01*
X211289113Y-82636085D01*
X211300638Y-82578150D01*
X211333023Y-82516239D01*
X211334518Y-82514716D01*
X212362416Y-81486819D01*
X212423739Y-81453334D01*
X212450097Y-81450500D01*
X214670234Y-81450500D01*
X214737273Y-81470185D01*
X214739125Y-81471398D01*
X214870814Y-81559390D01*
X214870827Y-81559397D01*
X215016498Y-81619735D01*
X215016503Y-81619737D01*
X215171153Y-81650499D01*
X215171156Y-81650500D01*
X215171158Y-81650500D01*
X215328844Y-81650500D01*
X215328845Y-81650499D01*
X215483497Y-81619737D01*
X215629179Y-81559394D01*
X215760289Y-81471789D01*
X215871789Y-81360289D01*
X215959394Y-81229179D01*
X216019737Y-81083497D01*
X216050500Y-80928842D01*
X216050500Y-80771158D01*
X216050500Y-80771155D01*
X216034209Y-80689258D01*
X216034209Y-80689257D01*
X216030608Y-80671153D01*
X235699500Y-80671153D01*
X235699500Y-80828846D01*
X235730261Y-80983489D01*
X235730264Y-80983501D01*
X235790602Y-81129172D01*
X235790609Y-81129185D01*
X235878210Y-81260288D01*
X235878213Y-81260292D01*
X235989707Y-81371786D01*
X235989711Y-81371789D01*
X236120814Y-81459390D01*
X236120827Y-81459397D01*
X236187031Y-81486819D01*
X236266503Y-81519737D01*
X236421153Y-81550499D01*
X236421156Y-81550500D01*
X236421158Y-81550500D01*
X236578844Y-81550500D01*
X236578845Y-81550499D01*
X236733497Y-81519737D01*
X236879179Y-81459394D01*
X237010289Y-81371789D01*
X237121789Y-81260289D01*
X237191734Y-81155608D01*
X237245346Y-81110804D01*
X237294836Y-81100500D01*
X237705164Y-81100500D01*
X237772203Y-81120185D01*
X237808266Y-81155609D01*
X237878210Y-81260289D01*
X237989707Y-81371786D01*
X237989711Y-81371789D01*
X238120814Y-81459390D01*
X238120827Y-81459397D01*
X238187031Y-81486819D01*
X238266503Y-81519737D01*
X238421153Y-81550499D01*
X238421156Y-81550500D01*
X238421158Y-81550500D01*
X238578844Y-81550500D01*
X238578845Y-81550499D01*
X238733497Y-81519737D01*
X238879179Y-81459394D01*
X239010289Y-81371789D01*
X239121789Y-81260289D01*
X239209394Y-81129179D01*
X239269737Y-80983497D01*
X239300500Y-80828842D01*
X239300500Y-80671158D01*
X239300500Y-80671155D01*
X239300499Y-80671153D01*
X239269738Y-80516510D01*
X239269737Y-80516503D01*
X239250812Y-80470814D01*
X239209397Y-80370827D01*
X239209390Y-80370814D01*
X239121789Y-80239711D01*
X239121786Y-80239707D01*
X239010292Y-80128213D01*
X239010288Y-80128210D01*
X238879185Y-80040609D01*
X238879172Y-80040602D01*
X238733501Y-79980264D01*
X238733489Y-79980261D01*
X238578845Y-79949500D01*
X238578842Y-79949500D01*
X238528364Y-79949500D01*
X238489820Y-79941834D01*
X238489635Y-79942527D01*
X238481786Y-79940424D01*
X238481785Y-79940423D01*
X238329057Y-79899499D01*
X238170943Y-79899499D01*
X238163347Y-79899499D01*
X238163331Y-79899500D01*
X236670941Y-79899500D01*
X236640645Y-79907617D01*
X236640646Y-79907618D01*
X236518216Y-79940423D01*
X236518214Y-79940424D01*
X236510366Y-79942527D01*
X236510180Y-79941834D01*
X236471637Y-79949500D01*
X236421155Y-79949500D01*
X236266510Y-79980261D01*
X236266498Y-79980264D01*
X236120827Y-80040602D01*
X236120814Y-80040609D01*
X235989711Y-80128210D01*
X235989707Y-80128213D01*
X235878213Y-80239707D01*
X235878210Y-80239711D01*
X235790609Y-80370814D01*
X235790602Y-80370827D01*
X235730264Y-80516498D01*
X235730261Y-80516510D01*
X235699500Y-80671153D01*
X216030608Y-80671153D01*
X216019738Y-80616510D01*
X216019737Y-80616503D01*
X215978314Y-80516498D01*
X215959397Y-80470827D01*
X215959390Y-80470814D01*
X215871789Y-80339711D01*
X215871786Y-80339707D01*
X215760292Y-80228213D01*
X215760288Y-80228210D01*
X215629185Y-80140609D01*
X215629172Y-80140602D01*
X215483501Y-80080264D01*
X215483489Y-80080261D01*
X215328845Y-80049500D01*
X215328842Y-80049500D01*
X215171158Y-80049500D01*
X215171155Y-80049500D01*
X215016510Y-80080261D01*
X215016498Y-80080264D01*
X214870827Y-80140602D01*
X214870814Y-80140609D01*
X214739125Y-80228602D01*
X214672447Y-80249480D01*
X214670234Y-80249500D01*
X212070940Y-80249500D01*
X212030019Y-80260464D01*
X212030019Y-80260465D01*
X211992751Y-80270451D01*
X211918214Y-80290423D01*
X211918209Y-80290426D01*
X211781290Y-80369475D01*
X211781282Y-80369481D01*
X210485339Y-81665425D01*
X210424016Y-81698910D01*
X210421850Y-81699361D01*
X210266508Y-81730261D01*
X210266498Y-81730264D01*
X210120827Y-81790602D01*
X210120814Y-81790609D01*
X209989711Y-81878210D01*
X209989707Y-81878213D01*
X209878213Y-81989707D01*
X209878210Y-81989711D01*
X209790609Y-82120814D01*
X209790602Y-82120827D01*
X209730264Y-82266498D01*
X209730261Y-82266510D01*
X209699500Y-82421153D01*
X201799313Y-82421153D01*
X201901622Y-82248721D01*
X201903941Y-82244970D01*
X202067989Y-81989707D01*
X202470865Y-81362817D01*
X202473317Y-81359148D01*
X202563561Y-81229172D01*
X203071426Y-80497706D01*
X203073950Y-80494207D01*
X203702422Y-79654667D01*
X203705094Y-79651226D01*
X204363134Y-78834648D01*
X204365944Y-78831286D01*
X205052681Y-78038748D01*
X205055634Y-78035462D01*
X205770237Y-77267924D01*
X205773256Y-77264796D01*
X206514796Y-76523256D01*
X206517924Y-76520237D01*
X207285468Y-75805628D01*
X207288755Y-75802676D01*
X208081286Y-75115944D01*
X208084648Y-75113134D01*
X208479081Y-74795280D01*
X210100000Y-74795280D01*
X210100000Y-75750000D01*
X211172769Y-75750000D01*
X211150000Y-75893753D01*
X211150000Y-76106247D01*
X211172769Y-76250000D01*
X210100000Y-76250000D01*
X210100000Y-77204719D01*
X210110482Y-77337906D01*
X210110483Y-77337912D01*
X210165898Y-77557829D01*
X210165899Y-77557832D01*
X210259695Y-77764330D01*
X210259698Y-77764336D01*
X210388851Y-77950758D01*
X210388861Y-77950770D01*
X210549229Y-78111138D01*
X210549241Y-78111148D01*
X210735663Y-78240301D01*
X210735669Y-78240304D01*
X210942167Y-78334100D01*
X210942170Y-78334101D01*
X211162087Y-78389516D01*
X211162093Y-78389517D01*
X211295280Y-78399999D01*
X211295294Y-78400000D01*
X212250000Y-78400000D01*
X212250000Y-77327231D01*
X212393753Y-77350000D01*
X212606247Y-77350000D01*
X212750000Y-77327231D01*
X212750000Y-78400000D01*
X213704706Y-78400000D01*
X213704719Y-78399999D01*
X213837906Y-78389517D01*
X213837912Y-78389516D01*
X214057829Y-78334101D01*
X214057832Y-78334100D01*
X214264330Y-78240304D01*
X214264336Y-78240301D01*
X214450758Y-78111148D01*
X214450770Y-78111138D01*
X214611138Y-77950770D01*
X214611148Y-77950758D01*
X214740301Y-77764336D01*
X214740304Y-77764330D01*
X214834100Y-77557832D01*
X214834101Y-77557829D01*
X214889516Y-77337912D01*
X214889517Y-77337906D01*
X214899999Y-77204719D01*
X214900000Y-77204706D01*
X214900000Y-76496932D01*
X214919685Y-76429893D01*
X214972489Y-76384138D01*
X215041647Y-76374194D01*
X215105203Y-76403219D01*
X215142977Y-76461997D01*
X215144891Y-76469340D01*
X215189683Y-76665590D01*
X215189687Y-76665602D01*
X215278734Y-76920082D01*
X215395714Y-77162994D01*
X215395716Y-77162997D01*
X215539162Y-77391289D01*
X215707266Y-77602085D01*
X215897915Y-77792734D01*
X216108711Y-77960838D01*
X216337003Y-78104284D01*
X216579921Y-78221267D01*
X216771049Y-78288145D01*
X216834397Y-78310312D01*
X216834405Y-78310315D01*
X216834408Y-78310315D01*
X216834409Y-78310316D01*
X217097268Y-78370312D01*
X217365187Y-78400499D01*
X217365188Y-78400500D01*
X217365191Y-78400500D01*
X217634812Y-78400500D01*
X217634812Y-78400499D01*
X217902732Y-78370312D01*
X218165591Y-78310316D01*
X218420079Y-78221267D01*
X218662997Y-78104284D01*
X218891289Y-77960838D01*
X219102085Y-77792734D01*
X219292734Y-77602085D01*
X219460838Y-77391289D01*
X219604284Y-77162997D01*
X219721267Y-76920079D01*
X219810316Y-76665591D01*
X219870312Y-76402732D01*
X219900500Y-76134809D01*
X219900500Y-75993713D01*
X222399500Y-75993713D01*
X222399500Y-76506286D01*
X222432753Y-76716239D01*
X222498444Y-76918414D01*
X222594951Y-77107820D01*
X222719890Y-77279786D01*
X222870213Y-77430109D01*
X223042179Y-77555048D01*
X223042181Y-77555049D01*
X223042184Y-77555051D01*
X223231588Y-77651557D01*
X223433757Y-77717246D01*
X223643713Y-77750500D01*
X223643714Y-77750500D01*
X223856286Y-77750500D01*
X223856287Y-77750500D01*
X224066243Y-77717246D01*
X224268412Y-77651557D01*
X224457816Y-77555051D01*
X224629792Y-77430104D01*
X224768604Y-77291291D01*
X224829923Y-77257809D01*
X224899615Y-77262793D01*
X224955549Y-77304664D01*
X224961821Y-77313878D01*
X224965185Y-77319333D01*
X224965186Y-77319334D01*
X225057288Y-77468656D01*
X225181344Y-77592712D01*
X225330666Y-77684814D01*
X225497203Y-77739999D01*
X225599991Y-77750500D01*
X226900008Y-77750499D01*
X227002797Y-77739999D01*
X227169334Y-77684814D01*
X227318656Y-77592712D01*
X227442712Y-77468656D01*
X227534814Y-77319334D01*
X227589999Y-77152797D01*
X227600500Y-77050009D01*
X227600499Y-75449992D01*
X227589999Y-75347203D01*
X227534814Y-75180666D01*
X227442712Y-75031344D01*
X227318656Y-74907288D01*
X227218282Y-74845377D01*
X227169336Y-74815187D01*
X227169331Y-74815185D01*
X227167862Y-74814698D01*
X227002797Y-74760001D01*
X227002795Y-74760000D01*
X226900010Y-74749500D01*
X225599998Y-74749500D01*
X225599981Y-74749501D01*
X225497203Y-74760000D01*
X225497200Y-74760001D01*
X225330668Y-74815185D01*
X225330663Y-74815187D01*
X225181342Y-74907289D01*
X225057289Y-75031342D01*
X224961821Y-75186121D01*
X224909873Y-75232845D01*
X224840910Y-75244068D01*
X224776828Y-75216224D01*
X224768601Y-75208705D01*
X224629786Y-75069890D01*
X224457820Y-74944951D01*
X224268414Y-74848444D01*
X224268413Y-74848443D01*
X224268412Y-74848443D01*
X224066243Y-74782754D01*
X224066241Y-74782753D01*
X224066240Y-74782753D01*
X223904957Y-74757208D01*
X223856287Y-74749500D01*
X223643713Y-74749500D01*
X223595042Y-74757208D01*
X223433760Y-74782753D01*
X223231585Y-74848444D01*
X223042179Y-74944951D01*
X222870213Y-75069890D01*
X222719890Y-75220213D01*
X222594951Y-75392179D01*
X222498444Y-75581585D01*
X222432753Y-75783760D01*
X222399500Y-75993713D01*
X219900500Y-75993713D01*
X219900500Y-75865191D01*
X219870312Y-75597268D01*
X219810316Y-75334409D01*
X219721267Y-75079921D01*
X219604284Y-74837003D01*
X219460838Y-74608711D01*
X219292734Y-74397915D01*
X219102085Y-74207266D01*
X218891289Y-74039162D01*
X218662997Y-73895716D01*
X218662994Y-73895714D01*
X218420082Y-73778734D01*
X218165602Y-73689687D01*
X218165594Y-73689684D01*
X217968446Y-73644687D01*
X217902732Y-73629688D01*
X217902728Y-73629687D01*
X217902719Y-73629686D01*
X217634813Y-73599500D01*
X217634809Y-73599500D01*
X217365191Y-73599500D01*
X217365186Y-73599500D01*
X217097280Y-73629686D01*
X217097268Y-73629688D01*
X216834405Y-73689684D01*
X216834397Y-73689687D01*
X216579917Y-73778734D01*
X216337005Y-73895714D01*
X216108712Y-74039161D01*
X215897915Y-74207265D01*
X215707265Y-74397915D01*
X215539161Y-74608712D01*
X215395714Y-74837005D01*
X215278734Y-75079917D01*
X215189687Y-75334397D01*
X215189684Y-75334405D01*
X215144891Y-75530660D01*
X215110782Y-75591638D01*
X215049121Y-75624496D01*
X214979484Y-75618801D01*
X214923980Y-75576361D01*
X214900232Y-75510651D01*
X214900000Y-75503067D01*
X214900000Y-74795293D01*
X214899999Y-74795280D01*
X214889517Y-74662093D01*
X214889516Y-74662087D01*
X214834101Y-74442170D01*
X214834100Y-74442167D01*
X214740304Y-74235669D01*
X214740301Y-74235663D01*
X214611148Y-74049241D01*
X214611138Y-74049229D01*
X214450770Y-73888861D01*
X214450758Y-73888851D01*
X214264336Y-73759698D01*
X214264330Y-73759695D01*
X214057832Y-73665899D01*
X214057829Y-73665898D01*
X213837912Y-73610483D01*
X213837906Y-73610482D01*
X213704719Y-73600000D01*
X212750000Y-73600000D01*
X212750000Y-74672768D01*
X212606247Y-74650000D01*
X212393753Y-74650000D01*
X212250000Y-74672768D01*
X212250000Y-73600000D01*
X211295280Y-73600000D01*
X211162093Y-73610482D01*
X211162087Y-73610483D01*
X210942170Y-73665898D01*
X210942167Y-73665899D01*
X210735669Y-73759695D01*
X210735663Y-73759698D01*
X210549241Y-73888851D01*
X210549229Y-73888861D01*
X210388861Y-74049229D01*
X210388851Y-74049241D01*
X210259698Y-74235663D01*
X210259695Y-74235669D01*
X210165899Y-74442167D01*
X210165898Y-74442170D01*
X210110483Y-74662087D01*
X210110482Y-74662093D01*
X210100000Y-74795280D01*
X208479081Y-74795280D01*
X208901226Y-74455094D01*
X208904667Y-74452422D01*
X209744207Y-73823950D01*
X209747706Y-73821426D01*
X210609160Y-73223308D01*
X210612829Y-73220858D01*
X211494983Y-72653932D01*
X211498721Y-72651622D01*
X212400665Y-72116473D01*
X212404431Y-72114330D01*
X213324842Y-71611747D01*
X213328728Y-71609713D01*
X214266506Y-71140295D01*
X214270496Y-71138388D01*
X215224351Y-70702776D01*
X215228402Y-70701013D01*
X216197288Y-70299688D01*
X216201292Y-70298112D01*
X217183962Y-69931594D01*
X217188029Y-69930161D01*
X218183049Y-69598986D01*
X218187246Y-69597672D01*
X219193482Y-69302214D01*
X219197671Y-69301065D01*
X220213805Y-69041713D01*
X220218063Y-69040706D01*
X221242787Y-68817791D01*
X221247066Y-68816940D01*
X222279122Y-68630736D01*
X222283447Y-68630035D01*
X223321454Y-68480792D01*
X223325796Y-68480247D01*
X224368540Y-68368140D01*
X224372836Y-68367757D01*
X225418856Y-68292943D01*
X225423263Y-68292707D01*
X226471251Y-68255277D01*
X226475677Y-68255199D01*
X227524323Y-68255199D01*
X227528748Y-68255277D01*
G37*
%TD.AperFunction*%
%TD*%
M02*
