%TF.GenerationSoftware,KiCad,Pcbnew,10.0.3*%
%TF.CreationDate,2026-05-29T12:35:44-04:00*%
%TF.ProjectId,float_pcb,666c6f61-745f-4706-9362-2e6b69636164,rev?*%
%TF.SameCoordinates,Original*%
%TF.FileFunction,Legend,Bot*%
%TF.FilePolarity,Positive*%
%FSLAX46Y46*%
G04 Gerber Fmt 4.6, Leading zero omitted, Abs format (unit mm)*
G04 Created by KiCad (PCBNEW 10.0.3) date 2026-05-29 12:35:44*
%MOMM*%
%LPD*%
G01*
G04 APERTURE LIST*
G04 Aperture macros list*
%AMRoundRect*
0 Rectangle with rounded corners*
0 $1 Rounding radius*
0 $2 $3 $4 $5 $6 $7 $8 $9 X,Y pos of 4 corners*
0 Add a 4 corners polygon primitive as box body*
4,1,4,$2,$3,$4,$5,$6,$7,$8,$9,$2,$3,0*
0 Add four circle primitives for the rounded corners*
1,1,$1+$1,$2,$3*
1,1,$1+$1,$4,$5*
1,1,$1+$1,$6,$7*
1,1,$1+$1,$8,$9*
0 Add four rect primitives between the rounded corners*
20,1,$1+$1,$2,$3,$4,$5,0*
20,1,$1+$1,$4,$5,$6,$7,0*
20,1,$1+$1,$6,$7,$8,$9,0*
20,1,$1+$1,$8,$9,$2,$3,0*%
G04 Aperture macros list end*
%ADD10C,0.000000*%
%ADD11C,2.200000*%
%ADD12RoundRect,0.760000X-1.140000X-1.140000X1.140000X-1.140000X1.140000X1.140000X-1.140000X1.140000X0*%
%ADD13C,3.800000*%
%ADD14RoundRect,0.250000X0.600000X0.750000X-0.600000X0.750000X-0.600000X-0.750000X0.600000X-0.750000X0*%
%ADD15O,1.700000X2.000000*%
%ADD16C,0.650000*%
%ADD17O,2.100000X1.000000*%
%ADD18O,1.800000X1.000000*%
%ADD19R,1.700000X1.700000*%
%ADD20C,1.700000*%
%ADD21RoundRect,0.250000X0.600000X0.725000X-0.600000X0.725000X-0.600000X-0.725000X0.600000X-0.725000X0*%
%ADD22O,1.700000X1.950000*%
%ADD23C,1.612000*%
G04 APERTURE END LIST*
D10*
%TO.C,G\u002A\u002A\u002A*%
G36*
X243566467Y-93971530D02*
G01*
X243571655Y-94238759D01*
X243575838Y-94454223D01*
X243575178Y-94939361D01*
X243564284Y-95409215D01*
X243559930Y-95498375D01*
X243542951Y-95846055D01*
X243510976Y-96232154D01*
X243454716Y-96729289D01*
X243389285Y-97227410D01*
X243320914Y-97670733D01*
X243250810Y-98051473D01*
X243180183Y-98361846D01*
X243160257Y-98440073D01*
X243119013Y-98605346D01*
X243070831Y-98801178D01*
X243022508Y-99000057D01*
X243015442Y-99028926D01*
X242945335Y-99288710D01*
X242853003Y-99597190D01*
X242745277Y-99933556D01*
X242634276Y-100261391D01*
X242628993Y-100276995D01*
X242510982Y-100606695D01*
X242398078Y-100901846D01*
X242059580Y-101697063D01*
X241565820Y-102698810D01*
X241014484Y-103652606D01*
X240401116Y-104565464D01*
X239721257Y-105444400D01*
X238970453Y-106296427D01*
X238959949Y-106307633D01*
X238789884Y-106487765D01*
X238631415Y-106653294D01*
X238494928Y-106793545D01*
X238390807Y-106897840D01*
X238329438Y-106955501D01*
X238275151Y-107002179D01*
X238166781Y-107097083D01*
X238031040Y-107217116D01*
X237885231Y-107347026D01*
X237680729Y-107527177D01*
X237107602Y-108002142D01*
X236515669Y-108447518D01*
X235890288Y-108873458D01*
X235216818Y-109290112D01*
X234480616Y-109707634D01*
X234422083Y-109739243D01*
X233963254Y-109969298D01*
X233448013Y-110200894D01*
X232894929Y-110427052D01*
X232322570Y-110640794D01*
X231749506Y-110835139D01*
X231194306Y-111003110D01*
X230675539Y-111137726D01*
X230610266Y-111153053D01*
X230437516Y-111194147D01*
X230287562Y-111230520D01*
X230187077Y-111255728D01*
X230010219Y-111296835D01*
X229730710Y-111350150D01*
X229402906Y-111403396D01*
X229043388Y-111454519D01*
X228668737Y-111501472D01*
X228295536Y-111542201D01*
X227940365Y-111574657D01*
X227619807Y-111596789D01*
X227350442Y-111606547D01*
X227321173Y-111606929D01*
X227135076Y-111610739D01*
X226981362Y-111616190D01*
X226875286Y-111622610D01*
X226832106Y-111629330D01*
X226806428Y-111635747D01*
X226710682Y-111639563D01*
X226555665Y-111637427D01*
X226352395Y-111630077D01*
X226111887Y-111618251D01*
X225845157Y-111602686D01*
X225563223Y-111584121D01*
X225277100Y-111563293D01*
X224997805Y-111540939D01*
X224736354Y-111517798D01*
X224503764Y-111494606D01*
X224311051Y-111472102D01*
X224169231Y-111451023D01*
X223779918Y-111379633D01*
X223093061Y-111242359D01*
X222464601Y-111099561D01*
X221881595Y-110947206D01*
X221331100Y-110781259D01*
X220800173Y-110597687D01*
X220275872Y-110392456D01*
X219745254Y-110161532D01*
X219195375Y-109900881D01*
X218877661Y-109743194D01*
X218599501Y-109600475D01*
X218350566Y-109466283D01*
X218109468Y-109328749D01*
X217854819Y-109176002D01*
X217565231Y-108996171D01*
X217514755Y-108964339D01*
X216585828Y-108330224D01*
X215701628Y-107633805D01*
X214865450Y-106878949D01*
X214080589Y-106069522D01*
X213350339Y-105209391D01*
X212677995Y-104302424D01*
X212066851Y-103352486D01*
X211520202Y-102363444D01*
X211041342Y-101339166D01*
X210767298Y-100655664D01*
X210731639Y-100550192D01*
X211137088Y-100550192D01*
X211141955Y-100607430D01*
X211179158Y-100724342D01*
X211244418Y-100891893D01*
X211333452Y-101101049D01*
X211441978Y-101342773D01*
X211565715Y-101608032D01*
X211700382Y-101887791D01*
X211841695Y-102173013D01*
X211985375Y-102454665D01*
X212127139Y-102723711D01*
X212262705Y-102971116D01*
X212387791Y-103187846D01*
X212915499Y-104010834D01*
X213521399Y-104839419D01*
X214177401Y-105632077D01*
X214869284Y-106370570D01*
X215304446Y-106791650D01*
X216093339Y-107487428D01*
X216906117Y-108121429D01*
X217735602Y-108688206D01*
X218574617Y-109182312D01*
X219077291Y-109446420D01*
X219937775Y-109857104D01*
X220789627Y-110208176D01*
X221650091Y-110505929D01*
X222536416Y-110756653D01*
X223465847Y-110966641D01*
X223483961Y-110970272D01*
X223635385Y-111000715D01*
X223761674Y-111026251D01*
X223837077Y-111041673D01*
X223858831Y-111045621D01*
X223956911Y-111060237D01*
X224100533Y-111079434D01*
X224266924Y-111100116D01*
X224309303Y-111105255D01*
X224506775Y-111130470D01*
X224699289Y-111156757D01*
X224850496Y-111179191D01*
X224852910Y-111179570D01*
X224967404Y-111192277D01*
X225142763Y-111205436D01*
X225362233Y-111218079D01*
X225609062Y-111229237D01*
X225866496Y-111237942D01*
X225889117Y-111238573D01*
X226139025Y-111245851D01*
X226370744Y-111253108D01*
X226569290Y-111259840D01*
X226719678Y-111265540D01*
X226806924Y-111269702D01*
X226968830Y-111272524D01*
X227195859Y-111265559D01*
X227474196Y-111249739D01*
X227790755Y-111226045D01*
X228132453Y-111195457D01*
X228486204Y-111158955D01*
X228838924Y-111117518D01*
X228933787Y-111104799D01*
X229161446Y-111069945D01*
X229424805Y-111025324D01*
X229707734Y-110974061D01*
X229994103Y-110919282D01*
X230267783Y-110864113D01*
X230512643Y-110811680D01*
X230712554Y-110765108D01*
X230851385Y-110727524D01*
X230866563Y-110722811D01*
X230982234Y-110687235D01*
X231148796Y-110636348D01*
X231346293Y-110576236D01*
X231554770Y-110512986D01*
X232200300Y-110301144D01*
X233197258Y-109909898D01*
X234193742Y-109441112D01*
X235188924Y-108895157D01*
X235391230Y-108771575D01*
X235631809Y-108616644D01*
X235891267Y-108443333D01*
X236155386Y-108261567D01*
X236409951Y-108081276D01*
X236640744Y-107912386D01*
X236833548Y-107764825D01*
X236974147Y-107648522D01*
X236998337Y-107627253D01*
X237130656Y-107514495D01*
X237288815Y-107383738D01*
X237443688Y-107259138D01*
X237551599Y-107169440D01*
X237739720Y-107000913D01*
X237959931Y-106793319D01*
X238200836Y-106558144D01*
X238451042Y-106306876D01*
X238699156Y-106051001D01*
X238933781Y-105802006D01*
X239143525Y-105571377D01*
X239316993Y-105370602D01*
X239360302Y-105318175D01*
X239501804Y-105142673D01*
X239657517Y-104944520D01*
X239818441Y-104735675D01*
X239975578Y-104528095D01*
X240119930Y-104333741D01*
X240242496Y-104164570D01*
X240334278Y-104032542D01*
X240386278Y-103949616D01*
X240394886Y-103925875D01*
X240382605Y-103879254D01*
X240323753Y-103819857D01*
X240207618Y-103734806D01*
X240019924Y-103586727D01*
X239820763Y-103394953D01*
X239642633Y-103190512D01*
X239509309Y-102998477D01*
X239459263Y-102901223D01*
X239390343Y-102743361D01*
X239330239Y-102582154D01*
X239307237Y-102503763D01*
X239261359Y-102242414D01*
X239254225Y-102110459D01*
X239454628Y-102110459D01*
X239524905Y-102470427D01*
X239621293Y-102737159D01*
X239779501Y-103029231D01*
X239989708Y-103285735D01*
X240264982Y-103525296D01*
X240299043Y-103551016D01*
X240413273Y-103634584D01*
X240498560Y-103692857D01*
X240538520Y-103714503D01*
X240547053Y-103710323D01*
X240593766Y-103654854D01*
X240668446Y-103542489D01*
X240765770Y-103382897D01*
X240880418Y-103185746D01*
X241007069Y-102960704D01*
X241140400Y-102717438D01*
X241275090Y-102465618D01*
X241405817Y-102214912D01*
X241527261Y-101974987D01*
X241634099Y-101755511D01*
X241721010Y-101566154D01*
X241800422Y-101385626D01*
X241879336Y-101206600D01*
X241944992Y-101058026D01*
X241988316Y-100960461D01*
X242029111Y-100867668D01*
X242101651Y-100695776D01*
X242166655Y-100533767D01*
X242218189Y-100397077D01*
X242250317Y-100301140D01*
X242257105Y-100261391D01*
X242219799Y-100241829D01*
X242130108Y-100199296D01*
X242008631Y-100143693D01*
X241989842Y-100134945D01*
X241849616Y-100060374D01*
X241669098Y-99953656D01*
X241467450Y-99827071D01*
X241263837Y-99692895D01*
X241077420Y-99563409D01*
X240927363Y-99450890D01*
X240918372Y-99443960D01*
X240836773Y-99399351D01*
X240778648Y-99396319D01*
X240736050Y-99434765D01*
X240652167Y-99529204D01*
X240541745Y-99664247D01*
X240414613Y-99827040D01*
X240280602Y-100004730D01*
X240149542Y-100184463D01*
X240031264Y-100353386D01*
X239935599Y-100498644D01*
X239915760Y-100530515D01*
X239688306Y-100950520D01*
X239535911Y-101352509D01*
X239458158Y-101738488D01*
X239454628Y-102110459D01*
X239254225Y-102110459D01*
X239245612Y-101951134D01*
X239260618Y-101661442D01*
X239307001Y-101404859D01*
X239372925Y-101198736D01*
X239540656Y-100816643D01*
X239765305Y-100422542D01*
X240037181Y-100028056D01*
X240346590Y-99644806D01*
X240683841Y-99284415D01*
X241039240Y-98958505D01*
X241403096Y-98678698D01*
X241765716Y-98456616D01*
X241819736Y-98427739D01*
X241937637Y-98356602D01*
X241988142Y-98300396D01*
X241969861Y-98248380D01*
X241881404Y-98189814D01*
X241721383Y-98113959D01*
X241414546Y-97996953D01*
X241033510Y-97911378D01*
X240621887Y-97884300D01*
X240485734Y-97887138D01*
X240212471Y-97910347D01*
X239934256Y-97959111D01*
X239885816Y-97972027D01*
X239645724Y-98036045D01*
X239341509Y-98143762D01*
X239016246Y-98284878D01*
X238664568Y-98462006D01*
X238281110Y-98677763D01*
X237860505Y-98934761D01*
X237397388Y-99235616D01*
X236886393Y-99582942D01*
X236322154Y-99979354D01*
X235919595Y-100268465D01*
X235468020Y-100600516D01*
X235038829Y-100925953D01*
X234616397Y-101257058D01*
X234185101Y-101606109D01*
X233729317Y-101985388D01*
X233233423Y-102407175D01*
X233147411Y-102480362D01*
X233071856Y-102544651D01*
X232668179Y-102875035D01*
X232601630Y-102929501D01*
X232168789Y-103257837D01*
X231765803Y-103533936D01*
X231385144Y-103762073D01*
X231019282Y-103946526D01*
X230660689Y-104091570D01*
X230301835Y-104201482D01*
X229935191Y-104280539D01*
X229805008Y-104300385D01*
X229527243Y-104327709D01*
X229240894Y-104339116D01*
X228967244Y-104334641D01*
X228727575Y-104314320D01*
X228543170Y-104278189D01*
X228342231Y-104208404D01*
X228004168Y-104044462D01*
X227685107Y-103834140D01*
X227399836Y-103589201D01*
X227163141Y-103321410D01*
X226989811Y-103042528D01*
X226914210Y-102872931D01*
X226803759Y-102515167D01*
X226763793Y-102162806D01*
X226987712Y-102162806D01*
X226997743Y-102365612D01*
X227025180Y-102543077D01*
X227082564Y-102736439D01*
X227238139Y-103059763D01*
X227455768Y-103356820D01*
X227725860Y-103618928D01*
X228038826Y-103837409D01*
X228385076Y-104003583D01*
X228755020Y-104108769D01*
X229071347Y-104144787D01*
X229479252Y-104136331D01*
X229914369Y-104075965D01*
X230362615Y-103966505D01*
X230809905Y-103810766D01*
X231242154Y-103611564D01*
X231370435Y-103540357D01*
X231537829Y-103439694D01*
X231716562Y-103326099D01*
X231893591Y-103208455D01*
X232055871Y-103095645D01*
X232190359Y-102996550D01*
X232284010Y-102920052D01*
X232323781Y-102875035D01*
X232300599Y-102852793D01*
X232210862Y-102808151D01*
X232061249Y-102745588D01*
X231859681Y-102667766D01*
X231614083Y-102577348D01*
X231332375Y-102476997D01*
X231022482Y-102369377D01*
X230692326Y-102257151D01*
X230349828Y-102142983D01*
X230002913Y-102029534D01*
X229659502Y-101919470D01*
X229327518Y-101815452D01*
X229014885Y-101720145D01*
X228729523Y-101636210D01*
X228479357Y-101566312D01*
X228272308Y-101513115D01*
X228246855Y-101507015D01*
X227985831Y-101446739D01*
X227741157Y-101394102D01*
X227524734Y-101351340D01*
X227348463Y-101320692D01*
X227224244Y-101304396D01*
X227163976Y-101304689D01*
X227136311Y-101324939D01*
X227086029Y-101416047D01*
X227044247Y-101561281D01*
X227012745Y-101744747D01*
X226993307Y-101950554D01*
X226987712Y-102162806D01*
X226763793Y-102162806D01*
X226763137Y-102157023D01*
X226792634Y-101790423D01*
X226892540Y-101407287D01*
X227063144Y-100999538D01*
X227074781Y-100977817D01*
X227318276Y-100977817D01*
X227352384Y-100993391D01*
X227451224Y-101022608D01*
X227595746Y-101057983D01*
X227768436Y-101094958D01*
X227872526Y-101116219D01*
X228170335Y-101182029D01*
X228473091Y-101257141D01*
X228797829Y-101346151D01*
X229161582Y-101453658D01*
X229581385Y-101584259D01*
X229697770Y-101621111D01*
X229979165Y-101710074D01*
X230271103Y-101802215D01*
X230545240Y-101888591D01*
X230773231Y-101960261D01*
X230873333Y-101992286D01*
X231124467Y-102076043D01*
X231407450Y-102173956D01*
X231694517Y-102276341D01*
X231957909Y-102373513D01*
X232150875Y-102445754D01*
X232341211Y-102515906D01*
X232495254Y-102571478D01*
X232600755Y-102608057D01*
X232645468Y-102621231D01*
X232683445Y-102601581D01*
X232745973Y-102543787D01*
X232747487Y-102542112D01*
X232773079Y-102509290D01*
X232776202Y-102480362D01*
X232747208Y-102447892D01*
X232676447Y-102404446D01*
X232554270Y-102342588D01*
X232371029Y-102254885D01*
X232237082Y-102191631D01*
X231930043Y-102048770D01*
X231592687Y-101894101D01*
X231245178Y-101736728D01*
X230907681Y-101585756D01*
X230600362Y-101450288D01*
X230343385Y-101339430D01*
X230270570Y-101308320D01*
X230061234Y-101217189D01*
X229852069Y-101124136D01*
X229679077Y-101045113D01*
X229383690Y-100907324D01*
X229010250Y-100733410D01*
X228698774Y-100588789D01*
X228444076Y-100471103D01*
X228240970Y-100377993D01*
X228084269Y-100307099D01*
X227968788Y-100256063D01*
X227889338Y-100222525D01*
X227840735Y-100204128D01*
X227817792Y-100198510D01*
X227815207Y-100198681D01*
X227763204Y-100233554D01*
X227687930Y-100318087D01*
X227599577Y-100436379D01*
X227508334Y-100572534D01*
X227424393Y-100710654D01*
X227357942Y-100834840D01*
X227319173Y-100929193D01*
X227318276Y-100977817D01*
X227074781Y-100977817D01*
X227229996Y-100688104D01*
X227544943Y-100208537D01*
X227914368Y-99750551D01*
X228325312Y-99328277D01*
X228764817Y-98955847D01*
X229219924Y-98647395D01*
X229286830Y-98607417D01*
X229407847Y-98533143D01*
X229491524Y-98479010D01*
X229522770Y-98454624D01*
X229507960Y-98441949D01*
X229440576Y-98402073D01*
X229337154Y-98347562D01*
X229240604Y-98301029D01*
X228879494Y-98166154D01*
X228506508Y-98089249D01*
X228117689Y-98071181D01*
X227709079Y-98112819D01*
X227276720Y-98215027D01*
X226816656Y-98378673D01*
X226324928Y-98604624D01*
X225817770Y-98882677D01*
X225797579Y-98893747D01*
X225230651Y-99246907D01*
X223862064Y-100183766D01*
X223824012Y-100209814D01*
X222418966Y-101259993D01*
X221062616Y-102367292D01*
X220928365Y-102481380D01*
X220500002Y-102839327D01*
X220117557Y-103147838D01*
X219795715Y-103394923D01*
X219773977Y-103411612D01*
X219462208Y-103635345D01*
X219175193Y-103823737D01*
X218905881Y-103981484D01*
X218647215Y-104113285D01*
X218392142Y-104223836D01*
X218133608Y-104317837D01*
X217992753Y-104361151D01*
X217656825Y-104441557D01*
X217303734Y-104499057D01*
X216951376Y-104532301D01*
X216617643Y-104539938D01*
X216320430Y-104520618D01*
X216077632Y-104472991D01*
X215915996Y-104418833D01*
X215536112Y-104240469D01*
X215189368Y-104005206D01*
X214886389Y-103722349D01*
X214637798Y-103401205D01*
X214454220Y-103051077D01*
X214430681Y-102988444D01*
X214360599Y-102709534D01*
X214326703Y-102399179D01*
X214329010Y-102231059D01*
X214525892Y-102231059D01*
X214551473Y-102593982D01*
X214648038Y-102945012D01*
X214809701Y-103275775D01*
X215030578Y-103577898D01*
X215304783Y-103843007D01*
X215626430Y-104062729D01*
X215989635Y-104228689D01*
X216120650Y-104266102D01*
X216373509Y-104307730D01*
X216665807Y-104328466D01*
X216975553Y-104327859D01*
X217280755Y-104305459D01*
X217559421Y-104260816D01*
X217771950Y-104207438D01*
X218079685Y-104110886D01*
X218392684Y-103994324D01*
X218683416Y-103868199D01*
X218924350Y-103742955D01*
X219129511Y-103620283D01*
X219301311Y-103511150D01*
X219405285Y-103435806D01*
X219440440Y-103394923D01*
X219440412Y-103394530D01*
X219409135Y-103360699D01*
X219327172Y-103291234D01*
X219206708Y-103196053D01*
X219059924Y-103085078D01*
X218936613Y-102992812D01*
X218620989Y-102750934D01*
X218267842Y-102473758D01*
X217891572Y-102172946D01*
X217506580Y-101860156D01*
X217127270Y-101547050D01*
X216768041Y-101245288D01*
X216443295Y-100966529D01*
X216303207Y-100844757D01*
X216104257Y-100672216D01*
X215925791Y-100517898D01*
X215777414Y-100390091D01*
X215668732Y-100297078D01*
X215609348Y-100247145D01*
X215500978Y-100159060D01*
X215386705Y-100305761D01*
X215194579Y-100565832D01*
X214928077Y-100988014D01*
X214726921Y-101396599D01*
X214593506Y-101786419D01*
X214530230Y-102152307D01*
X214525892Y-102231059D01*
X214329010Y-102231059D01*
X214330967Y-102088480D01*
X214375365Y-101808537D01*
X214431765Y-101618296D01*
X214601616Y-101205626D01*
X214833129Y-100786101D01*
X215117331Y-100370238D01*
X215445252Y-99968557D01*
X215807920Y-99591577D01*
X216196363Y-99249815D01*
X216601611Y-98953792D01*
X217014691Y-98714024D01*
X217187074Y-98627362D01*
X216994764Y-98516333D01*
X216953213Y-98494149D01*
X216805377Y-98428424D01*
X216623463Y-98360035D01*
X216437607Y-98300648D01*
X216283167Y-98258336D01*
X216137977Y-98226942D01*
X216001002Y-98211385D01*
X215843547Y-98208616D01*
X215636918Y-98215588D01*
X215449733Y-98227537D01*
X215140726Y-98268329D01*
X214849385Y-98338288D01*
X214652679Y-98403697D01*
X214511789Y-98461504D01*
X214317086Y-98541390D01*
X213941306Y-98721936D01*
X213536112Y-98939737D01*
X213112281Y-99189199D01*
X212680588Y-99464722D01*
X212642368Y-99490110D01*
X212365022Y-99675785D01*
X212097296Y-99857406D01*
X211847128Y-100029392D01*
X211622456Y-100186164D01*
X211431217Y-100322141D01*
X211281350Y-100431743D01*
X211180792Y-100509389D01*
X211137481Y-100549501D01*
X211137088Y-100550192D01*
X210731639Y-100550192D01*
X210403394Y-99579305D01*
X210112399Y-98482953D01*
X209894880Y-97371480D01*
X209751401Y-96249759D01*
X209682529Y-95122662D01*
X209683979Y-94863144D01*
X210052753Y-94863144D01*
X210057019Y-95232670D01*
X210065849Y-95575989D01*
X210079248Y-95875830D01*
X210097222Y-96114923D01*
X210104850Y-96189734D01*
X210201612Y-96962451D01*
X210329331Y-97730198D01*
X210484326Y-98475104D01*
X210662917Y-99179300D01*
X210861422Y-99824917D01*
X210868127Y-99844572D01*
X210930829Y-100019819D01*
X210987526Y-100164128D01*
X211032222Y-100263018D01*
X211058924Y-100302007D01*
X211070749Y-100300572D01*
X211137708Y-100268372D01*
X211243609Y-100203119D01*
X211371539Y-100114935D01*
X211486207Y-100033279D01*
X211666535Y-99907271D01*
X211864934Y-99770586D01*
X212055385Y-99641243D01*
X212072653Y-99629610D01*
X212227694Y-99524139D01*
X212356836Y-99434510D01*
X212447031Y-99369886D01*
X212485231Y-99339428D01*
X212503030Y-99324681D01*
X212578755Y-99273302D01*
X212700775Y-99195207D01*
X212855940Y-99098392D01*
X213031101Y-98990854D01*
X213213110Y-98880592D01*
X213388819Y-98775601D01*
X213545077Y-98683879D01*
X213668737Y-98613423D01*
X213746649Y-98572231D01*
X213783121Y-98553476D01*
X213856705Y-98501671D01*
X213878463Y-98461504D01*
X213875030Y-98454865D01*
X213835352Y-98395204D01*
X213759972Y-98289499D01*
X213658029Y-98150415D01*
X213538662Y-97990615D01*
X213435394Y-97851662D01*
X213108619Y-97381532D01*
X212818773Y-96910515D01*
X212562110Y-96428993D01*
X212334883Y-95927346D01*
X212133343Y-95395953D01*
X211953743Y-94825195D01*
X211792337Y-94205453D01*
X211645377Y-93527105D01*
X211509116Y-92780534D01*
X211494534Y-92691526D01*
X211429345Y-92209887D01*
X211386238Y-91731655D01*
X211366880Y-91280131D01*
X211371770Y-90956106D01*
X211680259Y-90956106D01*
X211688371Y-91414123D01*
X211707459Y-91845109D01*
X211737634Y-92232298D01*
X211779007Y-92558923D01*
X211850530Y-92981099D01*
X211962705Y-93573135D01*
X212080987Y-94120584D01*
X212203396Y-94615058D01*
X212327950Y-95048171D01*
X212452670Y-95411538D01*
X212720446Y-96052382D01*
X213071878Y-96743940D01*
X213475154Y-97393810D01*
X213938740Y-98016839D01*
X214212523Y-98355679D01*
X214391861Y-98278806D01*
X214411571Y-98270463D01*
X214777871Y-98146690D01*
X215180540Y-98061407D01*
X215595287Y-98017273D01*
X215997825Y-98016944D01*
X216363864Y-98063077D01*
X216474856Y-98089254D01*
X216695722Y-98158940D01*
X216905028Y-98245896D01*
X217089904Y-98342954D01*
X217237478Y-98442944D01*
X217334881Y-98538698D01*
X217369239Y-98623046D01*
X217349575Y-98646015D01*
X217275930Y-98694677D01*
X217166514Y-98752615D01*
X217049548Y-98816354D01*
X216886408Y-98919254D01*
X216702403Y-99045957D01*
X216508228Y-99188009D01*
X216314581Y-99336955D01*
X216132157Y-99484341D01*
X215971652Y-99621712D01*
X215843763Y-99740614D01*
X215759185Y-99832591D01*
X215728616Y-99889189D01*
X215740020Y-99911611D01*
X215800644Y-99982681D01*
X215904814Y-100089060D01*
X216042689Y-100221384D01*
X216204425Y-100370288D01*
X216380181Y-100526406D01*
X216560114Y-100680374D01*
X216590132Y-100705567D01*
X216766539Y-100854712D01*
X216954719Y-101015230D01*
X217118717Y-101156475D01*
X217225156Y-101247095D01*
X217417286Y-101406258D01*
X217658759Y-101602690D01*
X217942272Y-101830531D01*
X218260519Y-102083917D01*
X218606197Y-102356986D01*
X218972001Y-102643876D01*
X219019323Y-102680740D01*
X219194341Y-102815160D01*
X219357506Y-102937759D01*
X219492362Y-103036281D01*
X219582454Y-103098474D01*
X219743524Y-103201865D01*
X220155778Y-102862702D01*
X220210354Y-102817701D01*
X220383141Y-102674464D01*
X220594214Y-102498689D01*
X220828236Y-102303181D01*
X221069872Y-102100744D01*
X221303786Y-101904184D01*
X221332415Y-101880132D01*
X221600498Y-101658434D01*
X221901488Y-101414687D01*
X222212399Y-101167205D01*
X222510243Y-100934303D01*
X222772036Y-100734298D01*
X223504534Y-100183766D01*
X222908806Y-99886800D01*
X222751018Y-99807523D01*
X222490093Y-99672149D01*
X222259364Y-99544730D01*
X222040445Y-99414090D01*
X221814950Y-99269053D01*
X221564491Y-99098443D01*
X221270684Y-98891084D01*
X221238646Y-98868201D01*
X220724632Y-98493229D01*
X220273806Y-98147098D01*
X219880142Y-97823402D01*
X219537615Y-97515739D01*
X219240196Y-97217703D01*
X218981862Y-96922891D01*
X218756584Y-96624898D01*
X218558338Y-96317320D01*
X218381096Y-95993752D01*
X218218834Y-95647792D01*
X218145061Y-95473231D01*
X218039485Y-95194807D01*
X217952602Y-94918851D01*
X217881689Y-94631931D01*
X217824021Y-94320617D01*
X217776874Y-93971478D01*
X217737523Y-93571083D01*
X217703244Y-93106000D01*
X217699954Y-92887668D01*
X217703406Y-92821313D01*
X218002628Y-92821313D01*
X218011479Y-93242769D01*
X218029199Y-93509178D01*
X218113926Y-94197257D01*
X218253529Y-94833283D01*
X218449994Y-95421753D01*
X218705311Y-95967165D01*
X219021467Y-96474020D01*
X219400449Y-96946814D01*
X219844247Y-97390046D01*
X220055029Y-97575684D01*
X220463657Y-97914825D01*
X220898172Y-98252049D01*
X221347116Y-98579601D01*
X221799031Y-98889730D01*
X222242458Y-99174682D01*
X222665939Y-99426703D01*
X223058016Y-99638041D01*
X223407231Y-99800942D01*
X223444206Y-99816509D01*
X223609393Y-99884744D01*
X223727091Y-99922711D01*
X223818868Y-99928426D01*
X223906294Y-99899904D01*
X224010937Y-99835162D01*
X224154368Y-99732215D01*
X224193187Y-99704312D01*
X224356410Y-99588820D01*
X224540006Y-99461170D01*
X224731916Y-99329498D01*
X224920080Y-99201942D01*
X225092442Y-99086639D01*
X225236941Y-98991727D01*
X225341520Y-98925342D01*
X225394119Y-98895621D01*
X225396414Y-98882677D01*
X225359092Y-98827299D01*
X225278716Y-98740247D01*
X225165693Y-98633464D01*
X225005667Y-98486835D01*
X224783202Y-98274426D01*
X224552594Y-98046284D01*
X224327103Y-97815997D01*
X224119988Y-97597154D01*
X223944509Y-97403343D01*
X223813927Y-97248154D01*
X223698184Y-97097294D01*
X223387157Y-96643644D01*
X223097484Y-96144066D01*
X222823275Y-95587847D01*
X222558643Y-94964275D01*
X222474832Y-94746768D01*
X222811619Y-94746768D01*
X222813152Y-94765521D01*
X222839202Y-94843749D01*
X222888526Y-94969866D01*
X222955239Y-95130121D01*
X223033457Y-95310761D01*
X223117296Y-95498032D01*
X223200871Y-95678183D01*
X223278297Y-95837459D01*
X223307805Y-95895709D01*
X223540704Y-96318226D01*
X223796640Y-96715565D01*
X224085081Y-97099561D01*
X224415493Y-97482048D01*
X224797343Y-97874862D01*
X225240100Y-98289836D01*
X225307168Y-98349869D01*
X225453990Y-98477596D01*
X225577471Y-98579991D01*
X225666264Y-98647813D01*
X225709023Y-98671817D01*
X225758517Y-98659585D01*
X225844472Y-98624670D01*
X225892687Y-98596035D01*
X225919470Y-98553159D01*
X225925686Y-98476443D01*
X225916988Y-98344007D01*
X225892509Y-98159564D01*
X225830309Y-97923939D01*
X225726896Y-97679632D01*
X225574177Y-97404461D01*
X225420096Y-97166286D01*
X225156393Y-96816270D01*
X224867929Y-96491693D01*
X224566854Y-96204802D01*
X224265319Y-95967844D01*
X223975475Y-95793067D01*
X223873669Y-95742124D01*
X223783651Y-95696680D01*
X223742881Y-95675547D01*
X223748726Y-95657933D01*
X223983794Y-95657933D01*
X224003102Y-95690771D01*
X224087032Y-95732441D01*
X224251436Y-95835192D01*
X224443146Y-95973202D01*
X224645702Y-96133794D01*
X224842647Y-96304293D01*
X225017519Y-96472022D01*
X225209266Y-96678505D01*
X225483319Y-97015833D01*
X225712525Y-97353638D01*
X225891127Y-97682113D01*
X226013372Y-97991448D01*
X226073505Y-98271834D01*
X226094503Y-98474900D01*
X226313944Y-98364610D01*
X226399856Y-98322866D01*
X226707558Y-98191010D01*
X227038936Y-98071276D01*
X227364233Y-97973790D01*
X227653697Y-97908678D01*
X227794566Y-97887816D01*
X228208885Y-97866294D01*
X228618484Y-97900697D01*
X229008397Y-97988047D01*
X229363660Y-98125368D01*
X229669308Y-98309683D01*
X229733032Y-98364928D01*
X229787406Y-98441484D01*
X229786272Y-98496844D01*
X229726127Y-98518154D01*
X229697691Y-98521209D01*
X229588098Y-98560985D01*
X229443131Y-98640738D01*
X229271848Y-98752790D01*
X229083306Y-98889460D01*
X228886560Y-99043069D01*
X228690668Y-99205938D01*
X228504686Y-99370387D01*
X228337671Y-99528736D01*
X228198679Y-99673307D01*
X228096767Y-99796419D01*
X228040992Y-99890393D01*
X228040409Y-99947549D01*
X228069170Y-99976509D01*
X228118472Y-100003077D01*
X228130725Y-100005198D01*
X228165366Y-100017200D01*
X228226739Y-100042746D01*
X228322159Y-100085158D01*
X228458942Y-100147757D01*
X228644402Y-100233864D01*
X228885855Y-100346802D01*
X229190616Y-100489891D01*
X229287767Y-100535175D01*
X229522740Y-100642702D01*
X229770647Y-100754055D01*
X229991693Y-100851281D01*
X230140309Y-100916376D01*
X230285601Y-100981637D01*
X230391224Y-101030945D01*
X230441077Y-101056928D01*
X230457016Y-101066451D01*
X230535706Y-101103739D01*
X230644312Y-101148576D01*
X230696785Y-101169334D01*
X230895015Y-101251809D01*
X231143535Y-101359562D01*
X231427427Y-101485794D01*
X231731769Y-101623705D01*
X232041643Y-101766496D01*
X232342127Y-101907367D01*
X232618301Y-102039518D01*
X232855246Y-102156151D01*
X232966392Y-102211194D01*
X233053260Y-102252669D01*
X233089708Y-102267938D01*
X233093638Y-102265251D01*
X233141120Y-102226486D01*
X233233406Y-102148867D01*
X233359553Y-102041639D01*
X233508616Y-101914048D01*
X233792822Y-101673302D01*
X234256025Y-101293029D01*
X234740686Y-100908323D01*
X235238844Y-100524851D01*
X235742539Y-100148276D01*
X236243809Y-99784264D01*
X236734693Y-99438478D01*
X237207231Y-99116584D01*
X237653460Y-98824247D01*
X238065421Y-98567130D01*
X238435153Y-98350898D01*
X238754693Y-98181217D01*
X238883519Y-98116158D01*
X239013752Y-98047212D01*
X239102106Y-97996551D01*
X239134333Y-97972027D01*
X239128020Y-97962336D01*
X239070916Y-97910899D01*
X238961084Y-97823659D01*
X238806692Y-97706496D01*
X238615906Y-97565290D01*
X238396893Y-97405921D01*
X238157819Y-97234267D01*
X237906852Y-97056210D01*
X237652159Y-96877628D01*
X237401905Y-96704401D01*
X237164258Y-96542409D01*
X236947385Y-96397532D01*
X236862360Y-96341947D01*
X236376420Y-96045105D01*
X235929261Y-95810906D01*
X235515734Y-95638142D01*
X235184183Y-95541241D01*
X235824262Y-95541241D01*
X235834274Y-95554667D01*
X235898694Y-95598579D01*
X236009970Y-95662175D01*
X236153435Y-95736743D01*
X236225333Y-95773785D01*
X236464160Y-95908241D01*
X236751098Y-96083122D01*
X237076747Y-96292091D01*
X237431710Y-96528815D01*
X237806590Y-96786956D01*
X238191988Y-97060182D01*
X238578508Y-97342155D01*
X238956751Y-97626541D01*
X239080558Y-97718192D01*
X239212282Y-97808698D01*
X239313308Y-97870225D01*
X239368413Y-97892923D01*
X239412635Y-97886417D01*
X239517163Y-97859243D01*
X239645047Y-97818109D01*
X239740131Y-97787302D01*
X240125072Y-97703771D01*
X240538244Y-97670437D01*
X240953926Y-97688210D01*
X241346395Y-97757998D01*
X241465410Y-97793889D01*
X241650626Y-97864906D01*
X241836118Y-97950355D01*
X242003201Y-98040694D01*
X242133192Y-98126376D01*
X242207408Y-98197858D01*
X242245861Y-98264825D01*
X242255200Y-98300256D01*
X242254977Y-98300396D01*
X242241098Y-98309116D01*
X242172188Y-98350497D01*
X242060114Y-98417010D01*
X241920263Y-98499501D01*
X241838839Y-98549298D01*
X241645364Y-98677303D01*
X241441341Y-98822355D01*
X241259357Y-98961667D01*
X240920496Y-99234371D01*
X241034325Y-99328264D01*
X241114976Y-99392034D01*
X241318971Y-99539201D01*
X241550912Y-99692805D01*
X241782265Y-99834319D01*
X241984494Y-99945215D01*
X242012199Y-99959028D01*
X242141722Y-100021103D01*
X242241076Y-100064745D01*
X242290631Y-100081231D01*
X242308097Y-100064537D01*
X242346974Y-99982959D01*
X242398590Y-99842882D01*
X242459902Y-99654823D01*
X242527871Y-99429300D01*
X242599456Y-99176831D01*
X242671616Y-98907934D01*
X242741311Y-98633125D01*
X242805499Y-98362923D01*
X242861141Y-98107846D01*
X242919402Y-97812588D01*
X242997049Y-97374288D01*
X243064906Y-96937153D01*
X243121038Y-96516089D01*
X243163512Y-96126001D01*
X243190394Y-95781795D01*
X243199749Y-95498375D01*
X243199693Y-95233520D01*
X242799154Y-95571221D01*
X242474887Y-95833657D01*
X242110758Y-96095809D01*
X241771909Y-96298748D01*
X241449538Y-96446389D01*
X241134845Y-96542646D01*
X240819028Y-96591433D01*
X240493285Y-96596664D01*
X240373358Y-96587456D01*
X240078288Y-96523608D01*
X239817096Y-96397093D01*
X239572019Y-96200269D01*
X239432038Y-96049657D01*
X239294877Y-95837427D01*
X239218881Y-95605558D01*
X239195064Y-95333384D01*
X239195069Y-95298917D01*
X239200322Y-95139099D01*
X239220176Y-95013335D01*
X239262514Y-94887556D01*
X239335218Y-94727692D01*
X239341923Y-94713857D01*
X239526689Y-94391500D01*
X239757604Y-94076779D01*
X240019189Y-93786920D01*
X240295965Y-93539154D01*
X240572451Y-93350706D01*
X240792417Y-93226564D01*
X240579517Y-93128159D01*
X240445770Y-93075578D01*
X240267315Y-93034858D01*
X240044822Y-93015045D01*
X240035922Y-93014656D01*
X239839552Y-93016103D01*
X239642727Y-93039121D01*
X239438890Y-93086950D01*
X239221485Y-93162829D01*
X238983958Y-93269997D01*
X238719753Y-93411693D01*
X238422313Y-93591156D01*
X238085084Y-93811626D01*
X237701509Y-94076341D01*
X237692307Y-94082923D01*
X237265033Y-94388541D01*
X237195063Y-94439692D01*
X237017766Y-94572295D01*
X236823675Y-94720779D01*
X236622665Y-94877244D01*
X236424610Y-95033791D01*
X236239385Y-95182518D01*
X236076863Y-95315527D01*
X235946919Y-95424917D01*
X235859427Y-95502788D01*
X235824262Y-95541241D01*
X235184183Y-95541241D01*
X235130691Y-95525607D01*
X234768983Y-95472095D01*
X234425461Y-95476400D01*
X234094978Y-95537316D01*
X233772385Y-95653635D01*
X233759263Y-95659546D01*
X233625491Y-95725783D01*
X233561336Y-95774298D01*
X233562313Y-95810746D01*
X233623939Y-95840779D01*
X233647110Y-95850441D01*
X233736062Y-95897942D01*
X233861789Y-95972432D01*
X234004939Y-96062642D01*
X234076967Y-96111165D01*
X234375825Y-96347211D01*
X234675742Y-96634169D01*
X234962415Y-96955094D01*
X235221540Y-97293040D01*
X235438813Y-97631061D01*
X235599930Y-97952213D01*
X235638522Y-98048361D01*
X235678164Y-98169871D01*
X235701203Y-98290710D01*
X235712068Y-98437131D01*
X235713757Y-98544425D01*
X235715188Y-98635384D01*
X235715243Y-98656316D01*
X235713639Y-98840810D01*
X235704843Y-98974129D01*
X235684299Y-99080893D01*
X235647450Y-99185729D01*
X235589739Y-99313257D01*
X235563732Y-99365346D01*
X235377349Y-99644074D01*
X235132042Y-99894057D01*
X234842798Y-100104072D01*
X234524609Y-100262899D01*
X234192462Y-100359315D01*
X234100376Y-100372916D01*
X233798735Y-100383351D01*
X233459740Y-100353546D01*
X233103222Y-100286883D01*
X232749009Y-100186742D01*
X232416930Y-100056507D01*
X232337224Y-100018478D01*
X232013201Y-99837766D01*
X231648800Y-99596298D01*
X231242497Y-99293014D01*
X230792770Y-98926856D01*
X230297005Y-98513579D01*
X229641689Y-97982870D01*
X229018716Y-97496814D01*
X228430559Y-97057107D01*
X227879695Y-96665442D01*
X227443113Y-96373368D01*
X227791939Y-96373368D01*
X227829309Y-96416127D01*
X227917360Y-96491085D01*
X228045398Y-96589516D01*
X228202726Y-96702694D01*
X228684718Y-97046338D01*
X229607870Y-97744370D01*
X230480154Y-98457606D01*
X230664446Y-98613790D01*
X231055250Y-98937754D01*
X231401605Y-99212596D01*
X231710818Y-99442848D01*
X231990197Y-99633044D01*
X232247050Y-99787716D01*
X232488685Y-99911397D01*
X232722409Y-100008621D01*
X232955530Y-100083920D01*
X233195355Y-100141827D01*
X233308470Y-100163034D01*
X233563993Y-100197674D01*
X233814761Y-100215835D01*
X234037208Y-100216219D01*
X234207767Y-100197530D01*
X234391566Y-100146143D01*
X234683877Y-100015077D01*
X234957230Y-99835796D01*
X235192003Y-99621996D01*
X235368571Y-99387372D01*
X235479444Y-99159453D01*
X235559859Y-98858799D01*
X235571462Y-98544425D01*
X235513553Y-98213962D01*
X235385438Y-97865045D01*
X235186418Y-97495304D01*
X234915797Y-97102374D01*
X234572878Y-96683885D01*
X234420565Y-96510387D01*
X234208821Y-96575501D01*
X233814762Y-96669637D01*
X233446896Y-96698631D01*
X233115333Y-96659128D01*
X232819377Y-96551117D01*
X232703509Y-96486038D01*
X232448154Y-96289461D01*
X232253840Y-96055899D01*
X232123963Y-95793691D01*
X232061915Y-95511175D01*
X232067188Y-95341976D01*
X232190777Y-95341976D01*
X232209579Y-95622312D01*
X232302297Y-95883098D01*
X232469032Y-96121708D01*
X232554122Y-96206674D01*
X232705040Y-96331559D01*
X232850234Y-96427350D01*
X232876686Y-96441596D01*
X232988112Y-96493994D01*
X233096195Y-96525636D01*
X233228083Y-96542483D01*
X233410924Y-96550499D01*
X233478924Y-96551877D01*
X233639350Y-96552193D01*
X233767622Y-96548439D01*
X233840770Y-96541114D01*
X233988843Y-96504887D01*
X234139167Y-96462668D01*
X234224260Y-96429434D01*
X234251077Y-96402840D01*
X234246277Y-96391213D01*
X234194241Y-96337255D01*
X234097585Y-96257982D01*
X233972061Y-96164811D01*
X233833417Y-96069163D01*
X233697402Y-95982456D01*
X233579766Y-95916108D01*
X233542832Y-95897174D01*
X233430660Y-95832896D01*
X233381302Y-95783121D01*
X233387361Y-95734986D01*
X233441436Y-95675628D01*
X233513328Y-95616725D01*
X233745425Y-95485117D01*
X234027344Y-95389350D01*
X234343806Y-95331574D01*
X234679531Y-95313934D01*
X235019241Y-95338580D01*
X235347656Y-95407659D01*
X235671551Y-95501472D01*
X235987083Y-95228358D01*
X236075115Y-95153882D01*
X236246779Y-95013628D01*
X236450521Y-94851334D01*
X236667932Y-94681615D01*
X236880603Y-94519084D01*
X237458589Y-94082923D01*
X237352644Y-94004769D01*
X237328762Y-93986998D01*
X237286093Y-93954444D01*
X237231088Y-93911352D01*
X237156861Y-93852166D01*
X237056526Y-93771331D01*
X236923196Y-93663293D01*
X236749985Y-93522494D01*
X236530007Y-93343381D01*
X236256374Y-93120398D01*
X236141253Y-93027333D01*
X235767830Y-92735570D01*
X235398767Y-92461812D01*
X235042874Y-92211931D01*
X234708963Y-91991796D01*
X234405844Y-91807279D01*
X234142328Y-91664249D01*
X233927227Y-91568578D01*
X233820939Y-91535404D01*
X233590697Y-91494398D01*
X233349699Y-91483772D01*
X233125372Y-91503900D01*
X232945141Y-91555159D01*
X232791973Y-91623960D01*
X232987473Y-91749412D01*
X233015327Y-91768013D01*
X233172792Y-91891735D01*
X233350084Y-92054303D01*
X233526508Y-92234770D01*
X233681366Y-92412191D01*
X233793960Y-92565616D01*
X233898117Y-92751621D01*
X234005325Y-93040255D01*
X234035905Y-93300401D01*
X234037373Y-93312888D01*
X233994397Y-93567704D01*
X233876536Y-93802884D01*
X233683928Y-94016614D01*
X233683920Y-94016621D01*
X233453682Y-94175789D01*
X233195753Y-94268065D01*
X232897840Y-94297846D01*
X232652678Y-94297846D01*
X232530842Y-94474928D01*
X232374531Y-94733157D01*
X232245794Y-95044716D01*
X232190777Y-95341976D01*
X232067188Y-95341976D01*
X232071092Y-95216691D01*
X232154886Y-94918577D01*
X232229989Y-94758166D01*
X232408013Y-94462945D01*
X232630869Y-94166646D01*
X232882164Y-93888378D01*
X233145501Y-93647245D01*
X233404485Y-93462355D01*
X233632507Y-93325909D01*
X233463100Y-93235493D01*
X233380873Y-93196094D01*
X233296063Y-93169617D01*
X233191285Y-93154329D01*
X233047159Y-93147432D01*
X232844308Y-93146127D01*
X232774057Y-93146401D01*
X232592386Y-93149805D01*
X232457758Y-93160185D01*
X232346490Y-93181601D01*
X232234899Y-93218109D01*
X232099300Y-93273767D01*
X231934280Y-93350879D01*
X231648758Y-93505068D01*
X231548580Y-93565240D01*
X231320415Y-93702288D01*
X230957920Y-93936560D01*
X230569944Y-94201906D01*
X230165155Y-94492348D01*
X229752225Y-94801909D01*
X229339822Y-95124610D01*
X228936616Y-95454475D01*
X228859626Y-95518820D01*
X228649268Y-95693272D01*
X228449687Y-95856958D01*
X228273106Y-95999954D01*
X228131751Y-96112334D01*
X228037847Y-96184173D01*
X227926774Y-96265874D01*
X227837696Y-96332551D01*
X227792419Y-96367922D01*
X227791939Y-96373368D01*
X227443113Y-96373368D01*
X227368598Y-96323517D01*
X226899744Y-96033027D01*
X226475607Y-95795666D01*
X226098662Y-95613131D01*
X225771385Y-95487117D01*
X225676133Y-95458859D01*
X225335668Y-95391752D01*
X224987111Y-95369566D01*
X224654172Y-95392730D01*
X224360557Y-95461670D01*
X224304107Y-95481798D01*
X224141671Y-95548720D01*
X224032442Y-95609008D01*
X223983794Y-95657933D01*
X223748726Y-95657933D01*
X223753159Y-95644574D01*
X223801497Y-95581721D01*
X223891671Y-95507337D01*
X224050850Y-95419361D01*
X224248878Y-95337544D01*
X224464970Y-95270315D01*
X224678338Y-95226105D01*
X224985039Y-95181403D01*
X225049232Y-95013314D01*
X225057621Y-94991952D01*
X225183229Y-94743273D01*
X225361314Y-94476659D01*
X225576820Y-94209436D01*
X225814689Y-93958929D01*
X226059863Y-93742460D01*
X226297284Y-93577356D01*
X226322169Y-93562594D01*
X226435406Y-93489222D01*
X226510400Y-93430084D01*
X226531998Y-93396833D01*
X226516159Y-93378755D01*
X226426999Y-93326693D01*
X226287573Y-93276440D01*
X226118249Y-93233494D01*
X225939397Y-93203354D01*
X225771385Y-93191518D01*
X225708328Y-93192454D01*
X225479828Y-93216739D01*
X225235513Y-93275880D01*
X224969690Y-93372735D01*
X224676665Y-93510162D01*
X224350747Y-93691017D01*
X223986240Y-93918156D01*
X223577453Y-94194438D01*
X223118692Y-94522720D01*
X223044097Y-94577265D01*
X222927421Y-94662498D01*
X222845152Y-94722485D01*
X222811619Y-94746768D01*
X222474832Y-94746768D01*
X222455938Y-94697735D01*
X222279830Y-94195366D01*
X222144340Y-93739236D01*
X222051094Y-93335114D01*
X222001718Y-92988769D01*
X221998667Y-92952835D01*
X221977588Y-92690064D01*
X221964387Y-92481884D01*
X221958766Y-92307629D01*
X221959603Y-92226638D01*
X222261306Y-92226638D01*
X222284131Y-92733621D01*
X222352289Y-93255987D01*
X222463099Y-93772635D01*
X222613879Y-94262466D01*
X222646532Y-94350708D01*
X222699220Y-94484288D01*
X222739904Y-94576236D01*
X222761745Y-94610461D01*
X222770846Y-94606822D01*
X222830760Y-94569426D01*
X222931183Y-94500179D01*
X223056376Y-94409798D01*
X223125904Y-94359003D01*
X223398819Y-94165859D01*
X223680545Y-93975238D01*
X223962053Y-93792535D01*
X224234314Y-93623143D01*
X224488300Y-93472456D01*
X224714981Y-93345865D01*
X224905328Y-93248766D01*
X225050313Y-93186552D01*
X225140906Y-93164615D01*
X225170656Y-93160211D01*
X225179474Y-93136229D01*
X225144310Y-93086894D01*
X225060280Y-93007164D01*
X224922498Y-92891994D01*
X224726077Y-92736339D01*
X224684106Y-92703735D01*
X224452069Y-92528598D01*
X224199297Y-92345015D01*
X223937628Y-92160965D01*
X223678904Y-91984424D01*
X223434964Y-91823369D01*
X223217647Y-91685778D01*
X223038793Y-91579627D01*
X222910242Y-91512895D01*
X222805414Y-91467962D01*
X222644622Y-91405651D01*
X222504473Y-91358722D01*
X222407109Y-91333975D01*
X222795164Y-91333975D01*
X223073059Y-91477526D01*
X223174821Y-91533549D01*
X223373807Y-91654172D01*
X223611989Y-91808155D01*
X223876002Y-91986268D01*
X224152483Y-92179281D01*
X224428068Y-92377961D01*
X224689393Y-92573079D01*
X224923094Y-92755404D01*
X225344802Y-93093756D01*
X225570513Y-93067560D01*
X225676226Y-93060024D01*
X225954320Y-93075002D01*
X226233589Y-93131939D01*
X226244885Y-93136229D01*
X226477201Y-93224462D01*
X226604923Y-93296357D01*
X226670431Y-93359235D01*
X226667924Y-93396833D01*
X226666360Y-93420294D01*
X226591784Y-93489986D01*
X226445776Y-93578760D01*
X226304990Y-93668029D01*
X226075245Y-93850431D01*
X225842718Y-94072883D01*
X225621403Y-94319387D01*
X225425291Y-94573948D01*
X225268376Y-94820571D01*
X225164652Y-95043258D01*
X225146980Y-95094183D01*
X225129015Y-95164870D01*
X225144830Y-95192124D01*
X225199063Y-95196615D01*
X225266036Y-95200042D01*
X225474916Y-95237582D01*
X225730029Y-95312209D01*
X226018509Y-95418546D01*
X226327488Y-95551214D01*
X226644101Y-95704835D01*
X226955480Y-95874030D01*
X227248760Y-96053421D01*
X227376081Y-96135097D01*
X227507088Y-96215731D01*
X227602586Y-96270547D01*
X227647821Y-96290769D01*
X227675589Y-96278915D01*
X227760212Y-96223823D01*
X227889745Y-96129959D01*
X228055412Y-96004126D01*
X228248440Y-95853123D01*
X228460055Y-95683752D01*
X228681484Y-95502814D01*
X228903950Y-95317110D01*
X228967895Y-95263419D01*
X229397586Y-94915475D01*
X229868631Y-94553409D01*
X230356669Y-94195579D01*
X230837338Y-93860339D01*
X231272676Y-93565240D01*
X231052261Y-93373387D01*
X231046370Y-93368263D01*
X231007351Y-93335364D01*
X231176431Y-93335364D01*
X231274689Y-93419881D01*
X231372946Y-93504399D01*
X231597238Y-93377622D01*
X231940130Y-93205130D01*
X232337398Y-93062600D01*
X232714431Y-92992227D01*
X233068956Y-92994398D01*
X233398699Y-93069503D01*
X233434336Y-93083028D01*
X233554673Y-93139793D01*
X233666903Y-93206207D01*
X233749804Y-93268745D01*
X233782154Y-93313882D01*
X233769828Y-93330193D01*
X233705733Y-93376377D01*
X233605248Y-93434444D01*
X233535865Y-93475699D01*
X233403256Y-93567890D01*
X233253297Y-93683095D01*
X233102251Y-93807732D01*
X232966385Y-93928221D01*
X232861962Y-94030980D01*
X232805249Y-94102428D01*
X232788268Y-94139650D01*
X232796142Y-94166820D01*
X232851616Y-94176996D01*
X232969933Y-94177091D01*
X233155127Y-94165015D01*
X233331075Y-94121336D01*
X233485257Y-94034167D01*
X233646824Y-93891197D01*
X233785362Y-93729554D01*
X233896536Y-93520638D01*
X233937291Y-93300401D01*
X233907586Y-93063287D01*
X233807379Y-92803734D01*
X233636629Y-92516186D01*
X233561140Y-92406229D01*
X233472927Y-92288781D01*
X233405881Y-92226881D01*
X233347044Y-92214505D01*
X233283461Y-92245631D01*
X233202174Y-92314235D01*
X233080684Y-92417508D01*
X232752592Y-92651635D01*
X232375322Y-92870022D01*
X231969108Y-93061605D01*
X231554183Y-93215322D01*
X231176431Y-93335364D01*
X231007351Y-93335364D01*
X230744621Y-93113840D01*
X230417695Y-92852075D01*
X230077470Y-92591506D01*
X229735824Y-92340669D01*
X229404635Y-92108104D01*
X229095779Y-91902346D01*
X228821135Y-91731933D01*
X228592581Y-91605404D01*
X228501615Y-91561638D01*
X228197262Y-91446387D01*
X227911458Y-91385478D01*
X227659075Y-91382463D01*
X227568993Y-91397217D01*
X227429434Y-91433086D01*
X227303804Y-91478301D01*
X227213059Y-91524909D01*
X227178154Y-91564958D01*
X227179073Y-91568588D01*
X227220704Y-91602508D01*
X227305154Y-91643854D01*
X227375170Y-91686219D01*
X227488268Y-91774354D01*
X227624327Y-91893291D01*
X227767254Y-92029595D01*
X227843814Y-92107859D01*
X228089932Y-92397634D01*
X228263177Y-92675046D01*
X228366035Y-92944728D01*
X228400988Y-93211310D01*
X228399097Y-93292151D01*
X228358442Y-93519309D01*
X228258334Y-93720216D01*
X228090004Y-93914708D01*
X228010667Y-93985775D01*
X227803935Y-94119765D01*
X227572108Y-94194774D01*
X227295385Y-94218370D01*
X227209709Y-94217173D01*
X226922146Y-94188200D01*
X226650593Y-94114510D01*
X226362488Y-93988064D01*
X226348584Y-93980970D01*
X226213086Y-93903238D01*
X226147388Y-93849003D01*
X226146255Y-93821145D01*
X226204457Y-93822538D01*
X226316761Y-93856061D01*
X226477934Y-93924589D01*
X226686723Y-94009895D01*
X226986028Y-94090207D01*
X227273320Y-94121180D01*
X227527529Y-94099308D01*
X227550384Y-94094127D01*
X227796483Y-94000201D01*
X228005881Y-93851073D01*
X228168308Y-93658644D01*
X228273494Y-93434811D01*
X228311167Y-93191472D01*
X228311158Y-93187448D01*
X228302419Y-93127259D01*
X228266926Y-93079139D01*
X228189342Y-93029562D01*
X228054326Y-92965004D01*
X228012487Y-92945533D01*
X227736137Y-92797056D01*
X227440201Y-92609250D01*
X227150967Y-92399773D01*
X226894727Y-92186278D01*
X226593346Y-91887436D01*
X226209728Y-91415885D01*
X225887412Y-90900502D01*
X225629830Y-90347896D01*
X225440411Y-89764674D01*
X225322585Y-89157447D01*
X225307480Y-89026284D01*
X225289040Y-88800892D01*
X225279542Y-88587120D01*
X225280572Y-88452142D01*
X225623228Y-88452142D01*
X225628201Y-88663104D01*
X225640028Y-88886136D01*
X225658153Y-89105658D01*
X225682020Y-89306088D01*
X225711074Y-89471846D01*
X225758097Y-89667227D01*
X225947102Y-90241640D01*
X226202292Y-90778803D01*
X226520853Y-91274129D01*
X226899969Y-91723031D01*
X227336826Y-92120920D01*
X227408988Y-92177392D01*
X227558845Y-92288624D01*
X227693497Y-92381330D01*
X227790525Y-92439757D01*
X227820052Y-92455196D01*
X227930049Y-92518791D01*
X228008779Y-92573030D01*
X228054647Y-92607259D01*
X228091981Y-92616854D01*
X228084076Y-92573713D01*
X228032661Y-92483372D01*
X227939467Y-92351363D01*
X227863281Y-92254786D01*
X227646611Y-92018328D01*
X227414364Y-91810684D01*
X227189671Y-91653386D01*
X227111541Y-91603250D01*
X227059050Y-91547107D01*
X227070433Y-91495578D01*
X227149269Y-91439369D01*
X227299137Y-91369189D01*
X227450123Y-91317435D01*
X227744105Y-91279783D01*
X228065381Y-91312339D01*
X228410501Y-91414598D01*
X228776014Y-91586054D01*
X228885314Y-91649155D01*
X229096651Y-91781150D01*
X229345041Y-91945229D01*
X229615829Y-92131262D01*
X229894359Y-92329118D01*
X230165977Y-92528666D01*
X230416028Y-92719775D01*
X230455468Y-92750503D01*
X230607118Y-92865729D01*
X230735232Y-92958583D01*
X230827327Y-93020230D01*
X230870924Y-93041832D01*
X230951798Y-93029859D01*
X231128154Y-92988476D01*
X231342442Y-92925713D01*
X231574053Y-92848215D01*
X231802378Y-92762627D01*
X232006807Y-92675595D01*
X232109051Y-92626180D01*
X232358322Y-92490981D01*
X232613788Y-92335481D01*
X232849199Y-92176126D01*
X233038304Y-92029364D01*
X233134607Y-91946670D01*
X233038304Y-91871964D01*
X233026008Y-91862730D01*
X232918041Y-91793458D01*
X232796563Y-91728706D01*
X232762512Y-91711408D01*
X232686781Y-91660311D01*
X232661548Y-91621077D01*
X232665966Y-91609823D01*
X232729890Y-91549152D01*
X232849194Y-91488438D01*
X233005171Y-91434394D01*
X233179111Y-91393736D01*
X233352308Y-91373176D01*
X233370559Y-91372192D01*
X233517971Y-91358605D01*
X233635172Y-91338446D01*
X233698196Y-91315697D01*
X233707610Y-91307530D01*
X233786831Y-91213616D01*
X233885570Y-91064685D01*
X233995617Y-90876089D01*
X234108760Y-90663181D01*
X234216788Y-90441315D01*
X234311492Y-90225842D01*
X234384661Y-90032116D01*
X234479739Y-89711881D01*
X234590533Y-89139539D01*
X234629353Y-88567331D01*
X234598691Y-88001482D01*
X234501039Y-87448219D01*
X234338889Y-86913769D01*
X234114734Y-86404360D01*
X233831064Y-85926218D01*
X233490372Y-85485569D01*
X233095150Y-85088641D01*
X232647889Y-84741661D01*
X232151082Y-84450855D01*
X231955837Y-84357882D01*
X231411658Y-84149885D01*
X230867184Y-84018292D01*
X230317034Y-83962045D01*
X229755827Y-83980087D01*
X229583221Y-83998720D01*
X229392782Y-84023713D01*
X229234728Y-84049134D01*
X229131817Y-84071643D01*
X228973259Y-84118307D01*
X229201253Y-84352769D01*
X229381610Y-84540777D01*
X229642070Y-84825029D01*
X229876192Y-85100385D01*
X230099634Y-85386374D01*
X230328058Y-85702521D01*
X230577124Y-86068354D01*
X230635869Y-86155549D01*
X230753311Y-86320192D01*
X230848447Y-86434864D01*
X230932573Y-86512331D01*
X231016985Y-86565356D01*
X231335403Y-86763147D01*
X231640225Y-87035037D01*
X231891656Y-87355228D01*
X232082262Y-87714098D01*
X232204605Y-88102027D01*
X232243256Y-88352932D01*
X232244017Y-88571127D01*
X232244633Y-88747798D01*
X232177126Y-89131647D01*
X232045933Y-89495898D01*
X231856252Y-89831971D01*
X231613282Y-90131286D01*
X231322223Y-90385263D01*
X230988272Y-90585321D01*
X230616628Y-90722881D01*
X230600516Y-90726946D01*
X230447004Y-90753826D01*
X230257708Y-90772805D01*
X230069847Y-90779995D01*
X230045667Y-90779851D01*
X229855418Y-90770824D01*
X229668812Y-90750538D01*
X229523065Y-90722881D01*
X229249673Y-90628539D01*
X228907046Y-90445910D01*
X228599058Y-90207474D01*
X228338995Y-89923960D01*
X228140145Y-89606100D01*
X228081219Y-89480355D01*
X227957583Y-89138903D01*
X227893932Y-88801049D01*
X227890915Y-88555097D01*
X228233449Y-88555097D01*
X228233838Y-88602857D01*
X228272531Y-88987097D01*
X228376530Y-89331691D01*
X228548635Y-89643535D01*
X228791649Y-89929525D01*
X228889218Y-90020652D01*
X229112703Y-90188073D01*
X229360132Y-90312267D01*
X229657980Y-90407850D01*
X229681721Y-90413852D01*
X230039237Y-90464231D01*
X230386154Y-90437484D01*
X230720841Y-90334101D01*
X231041667Y-90154574D01*
X231347001Y-89899393D01*
X231494989Y-89742736D01*
X231653527Y-89529334D01*
X231771186Y-89296081D01*
X231864926Y-89013981D01*
X231867567Y-89004116D01*
X231897266Y-88809369D01*
X231902787Y-88571127D01*
X231885946Y-88317820D01*
X231848559Y-88077879D01*
X231792445Y-87879734D01*
X231791693Y-87877797D01*
X231713353Y-87712984D01*
X231605868Y-87534442D01*
X231484379Y-87363495D01*
X231364024Y-87221464D01*
X231259940Y-87129675D01*
X231160234Y-87064345D01*
X231245338Y-87231163D01*
X231275626Y-87292267D01*
X231341213Y-87432271D01*
X231410955Y-87588355D01*
X231411907Y-87590486D01*
X231480113Y-87749091D01*
X231538235Y-87890261D01*
X231578678Y-87996172D01*
X231593847Y-88049001D01*
X231589616Y-88064862D01*
X231533285Y-88082626D01*
X231410766Y-88061692D01*
X231221262Y-88001959D01*
X230985977Y-87924073D01*
X230369183Y-87765135D01*
X229706751Y-87653797D01*
X229012099Y-87592544D01*
X228481890Y-87565984D01*
X228400497Y-87756915D01*
X228355562Y-87867023D01*
X228282507Y-88091273D01*
X228244478Y-88307848D01*
X228233449Y-88555097D01*
X227890915Y-88555097D01*
X227889658Y-88452677D01*
X227944156Y-88079670D01*
X228056817Y-87667910D01*
X228060966Y-87654790D01*
X228066562Y-87615063D01*
X228041479Y-87596176D01*
X227969990Y-87593438D01*
X227836369Y-87602157D01*
X227660551Y-87618003D01*
X227389687Y-87650031D01*
X227104025Y-87691173D01*
X226815111Y-87739108D01*
X226534494Y-87791517D01*
X226273720Y-87846079D01*
X226044337Y-87900473D01*
X225857892Y-87952381D01*
X225725933Y-87999481D01*
X225660008Y-88039453D01*
X225654986Y-88047484D01*
X225636065Y-88128752D01*
X225625664Y-88268831D01*
X225623228Y-88452142D01*
X225280572Y-88452142D01*
X225280835Y-88417720D01*
X225296858Y-88118713D01*
X225180185Y-88144339D01*
X225101269Y-88167906D01*
X224960445Y-88217967D01*
X224776364Y-88287803D01*
X224563795Y-88371508D01*
X224337503Y-88463175D01*
X224112257Y-88556896D01*
X223902823Y-88646764D01*
X223723969Y-88726871D01*
X223415476Y-88869327D01*
X223438805Y-89229202D01*
X223468976Y-89504139D01*
X223535802Y-89868865D01*
X223633070Y-90267178D01*
X223756712Y-90680509D01*
X223792319Y-90794598D01*
X223797655Y-90817296D01*
X223823066Y-90925395D01*
X223820514Y-91004113D01*
X223783124Y-91042890D01*
X223709355Y-91053863D01*
X223661279Y-91063774D01*
X223552957Y-91093710D01*
X223402737Y-91138828D01*
X223227475Y-91194218D01*
X222795164Y-91333975D01*
X222407109Y-91333975D01*
X222401884Y-91332647D01*
X222353771Y-91332896D01*
X222347844Y-91349422D01*
X222332093Y-91429426D01*
X222312081Y-91558998D01*
X222290726Y-91720214D01*
X222286496Y-91756136D01*
X222261306Y-92226638D01*
X221959603Y-92226638D01*
X221960429Y-92146631D01*
X221969081Y-91978224D01*
X221984426Y-91781741D01*
X221998453Y-91641501D01*
X222081331Y-91145496D01*
X222380693Y-91145496D01*
X222383840Y-91182226D01*
X222410786Y-91198204D01*
X222471596Y-91192625D01*
X222576333Y-91164680D01*
X222735062Y-91113565D01*
X222957847Y-91038474D01*
X223009651Y-91020817D01*
X223209866Y-90948787D01*
X223342521Y-90892915D01*
X223414228Y-90850114D01*
X223431600Y-90817296D01*
X223426053Y-90796686D01*
X223401549Y-90707333D01*
X223364321Y-90572570D01*
X223319964Y-90412688D01*
X223295992Y-90321231D01*
X223245006Y-90099917D01*
X223196317Y-89858216D01*
X223157851Y-89634190D01*
X223092665Y-89204388D01*
X222929059Y-89556517D01*
X222906197Y-89607161D01*
X222829454Y-89791573D01*
X222742853Y-90016044D01*
X222652976Y-90261847D01*
X222566406Y-90510250D01*
X222489724Y-90742524D01*
X222429512Y-90939941D01*
X222392352Y-91083769D01*
X222391281Y-91088819D01*
X222380693Y-91145496D01*
X222081331Y-91145496D01*
X222088065Y-91105197D01*
X222238126Y-90540980D01*
X222450682Y-89940769D01*
X222535307Y-89726467D01*
X222604806Y-89548148D01*
X222647856Y-89427909D01*
X222664976Y-89357766D01*
X222656680Y-89329730D01*
X222623487Y-89335816D01*
X222565913Y-89368036D01*
X222484473Y-89418405D01*
X222174263Y-89619362D01*
X221773011Y-89908484D01*
X221367585Y-90229248D01*
X220980308Y-90563851D01*
X220633503Y-90894491D01*
X220485777Y-91040358D01*
X220332355Y-91179892D01*
X220222908Y-91262026D01*
X220154811Y-91288923D01*
X220122722Y-91287489D01*
X220078586Y-91269652D01*
X220079276Y-91223482D01*
X220127262Y-91139046D01*
X220225011Y-91006408D01*
X220239120Y-90987475D01*
X220321437Y-90862171D01*
X220422699Y-90690463D01*
X220531381Y-90492487D01*
X220635959Y-90288378D01*
X220643666Y-90272677D01*
X220793148Y-89941928D01*
X220893582Y-89655878D01*
X220947797Y-89401458D01*
X220958624Y-89165595D01*
X220928892Y-88935220D01*
X220905144Y-88836903D01*
X220873003Y-88736914D01*
X220846682Y-88689683D01*
X220831749Y-88687407D01*
X220755266Y-88708445D01*
X220632904Y-88761059D01*
X220478853Y-88837952D01*
X220307303Y-88931827D01*
X220132443Y-89035385D01*
X219968462Y-89141330D01*
X219678856Y-89354866D01*
X219335509Y-89665180D01*
X219035211Y-90013902D01*
X218767117Y-90414043D01*
X218520379Y-90878615D01*
X218517449Y-90884745D01*
X218326388Y-91312260D01*
X218183442Y-91700786D01*
X218084543Y-92069210D01*
X218025627Y-92436423D01*
X218002628Y-92821313D01*
X217703406Y-92821313D01*
X217714422Y-92609542D01*
X217744464Y-92313457D01*
X217787043Y-92028922D01*
X217839125Y-91785444D01*
X217862000Y-91705136D01*
X217934081Y-91489872D01*
X218028752Y-91239230D01*
X218136644Y-90976444D01*
X218248385Y-90724751D01*
X218354603Y-90507384D01*
X218584596Y-90123091D01*
X218912253Y-89694201D01*
X219298240Y-89288105D01*
X219731987Y-88915779D01*
X220202924Y-88588196D01*
X220351971Y-88495341D01*
X220482447Y-88413304D01*
X220574155Y-88354788D01*
X220613231Y-88328564D01*
X220597454Y-88296820D01*
X220536123Y-88228457D01*
X220442549Y-88138642D01*
X220365051Y-88072584D01*
X220061003Y-87874001D01*
X219701917Y-87717202D01*
X219297301Y-87603824D01*
X218856660Y-87535504D01*
X218389504Y-87513878D01*
X217905338Y-87540582D01*
X217413670Y-87617254D01*
X217253702Y-87653375D01*
X216821928Y-87774365D01*
X216366582Y-87930933D01*
X215913070Y-88113166D01*
X215486796Y-88311148D01*
X215113164Y-88514968D01*
X215039285Y-88558228D01*
X214953752Y-88600357D01*
X214907469Y-88605108D01*
X214884481Y-88576794D01*
X214883489Y-88558415D01*
X214921441Y-88480411D01*
X215017762Y-88355202D01*
X215173393Y-88181503D01*
X215273973Y-88070101D01*
X215456331Y-87853244D01*
X215645368Y-87613251D01*
X215825982Y-87370095D01*
X215983069Y-87143747D01*
X216101527Y-86954180D01*
X216104850Y-86948326D01*
X216184736Y-86787446D01*
X216271815Y-86581875D01*
X216355314Y-86360143D01*
X216424461Y-86150778D01*
X216468485Y-85982307D01*
X216471185Y-85968626D01*
X216507274Y-85646272D01*
X216496662Y-85318423D01*
X216441773Y-85009404D01*
X216345032Y-84743538D01*
X216305289Y-84673570D01*
X216178640Y-84504435D01*
X216016769Y-84332833D01*
X215842942Y-84182141D01*
X215680426Y-84075739D01*
X215603588Y-84039116D01*
X215284191Y-83932203D01*
X214927982Y-83873280D01*
X214556334Y-83864740D01*
X214190618Y-83908975D01*
X214185045Y-83910099D01*
X214063024Y-83940379D01*
X213972401Y-83983071D01*
X213887161Y-84054938D01*
X213781287Y-84172744D01*
X213670835Y-84305604D01*
X213491265Y-84533372D01*
X213311782Y-84773272D01*
X213145219Y-85007559D01*
X213004411Y-85218486D01*
X212902192Y-85388307D01*
X212839436Y-85509131D01*
X212757393Y-85685271D01*
X212666114Y-85901007D01*
X212562061Y-86165083D01*
X212441698Y-86486242D01*
X212301487Y-86873231D01*
X212215913Y-87114617D01*
X212132847Y-87358183D01*
X212065383Y-87572513D01*
X212008998Y-87775364D01*
X211959171Y-87984490D01*
X211911378Y-88217647D01*
X211861096Y-88492590D01*
X211803804Y-88827077D01*
X211800430Y-88847423D01*
X211755336Y-89189083D01*
X211720660Y-89587549D01*
X211696515Y-90026052D01*
X211683010Y-90487827D01*
X211680259Y-90956106D01*
X211371770Y-90956106D01*
X211372940Y-90878615D01*
X211398756Y-90414342D01*
X211429549Y-89939819D01*
X211462717Y-89521758D01*
X211499732Y-89148519D01*
X211542065Y-88808464D01*
X211591187Y-88489954D01*
X211648569Y-88181350D01*
X211715681Y-87871014D01*
X211793996Y-87547307D01*
X211808680Y-87488757D01*
X211852549Y-87308381D01*
X211885934Y-87162594D01*
X211905792Y-87065083D01*
X211909082Y-87029538D01*
X211902966Y-87034688D01*
X211867875Y-87093157D01*
X211809328Y-87207614D01*
X211732581Y-87366580D01*
X211642891Y-87558575D01*
X211545517Y-87772117D01*
X211445716Y-87995726D01*
X211348745Y-88217922D01*
X211259861Y-88427225D01*
X211184323Y-88612154D01*
X210953557Y-89235300D01*
X210659158Y-90186831D01*
X210416529Y-91180122D01*
X210228557Y-92202869D01*
X210098126Y-93242769D01*
X210081220Y-93468383D01*
X210067284Y-93770030D01*
X210057891Y-94114553D01*
X210053045Y-94484681D01*
X210052753Y-94863144D01*
X209683979Y-94863144D01*
X209688828Y-93995063D01*
X209770865Y-92871833D01*
X209929205Y-91757846D01*
X210113040Y-90861759D01*
X210408789Y-89759363D01*
X210775426Y-88682783D01*
X211210877Y-87635821D01*
X211713067Y-86622275D01*
X212279923Y-85645945D01*
X212909370Y-84710630D01*
X213599335Y-83820131D01*
X213903190Y-83478325D01*
X214740986Y-83478325D01*
X214756030Y-83486876D01*
X214834192Y-83505293D01*
X214947077Y-83516233D01*
X215174075Y-83542534D01*
X215486629Y-83623103D01*
X215792105Y-83746769D01*
X216067203Y-83903672D01*
X216288625Y-84083952D01*
X216503225Y-84345988D01*
X216683236Y-84662557D01*
X216804662Y-84997538D01*
X216806652Y-85005347D01*
X216842728Y-85232134D01*
X216854151Y-85504906D01*
X216841992Y-85796944D01*
X216807322Y-86081528D01*
X216751210Y-86331938D01*
X216736380Y-86379072D01*
X216654805Y-86592336D01*
X216544835Y-86834405D01*
X216419489Y-87079456D01*
X216291785Y-87301670D01*
X216174744Y-87475224D01*
X216119381Y-87549587D01*
X216063055Y-87630799D01*
X216041231Y-87670574D01*
X216055483Y-87672295D01*
X216122838Y-87652401D01*
X216226847Y-87611178D01*
X216591241Y-87472090D01*
X217061858Y-87335164D01*
X217548708Y-87234667D01*
X218032464Y-87173682D01*
X218493799Y-87155293D01*
X218913385Y-87182584D01*
X218915021Y-87182798D01*
X219392578Y-87264542D01*
X219806057Y-87378281D01*
X220164186Y-87527653D01*
X220475692Y-87716295D01*
X220749303Y-87947846D01*
X220799660Y-87999154D01*
X221037358Y-88299753D01*
X221204162Y-88623966D01*
X221298258Y-88965663D01*
X221317833Y-89318717D01*
X221261074Y-89677000D01*
X221239370Y-89760279D01*
X221218313Y-89846663D01*
X221212691Y-89878807D01*
X221222581Y-89873173D01*
X221299762Y-89822064D01*
X221402905Y-89747839D01*
X221502895Y-89671904D01*
X221570616Y-89615665D01*
X221613032Y-89578109D01*
X221771711Y-89456218D01*
X221985602Y-89310005D01*
X222243449Y-89146144D01*
X222533994Y-88971306D01*
X222845979Y-88792161D01*
X223168147Y-88615383D01*
X223489240Y-88447643D01*
X223798001Y-88295612D01*
X223931764Y-88234322D01*
X224307367Y-88079586D01*
X224733318Y-87924294D01*
X225190234Y-87774602D01*
X225658730Y-87636666D01*
X226119422Y-87516641D01*
X226552924Y-87420686D01*
X227161270Y-87321284D01*
X227837604Y-87255337D01*
X228519930Y-87231931D01*
X229193665Y-87250626D01*
X229844222Y-87310985D01*
X230457016Y-87412569D01*
X231017462Y-87554939D01*
X231084430Y-87573912D01*
X231169722Y-87591565D01*
X231203077Y-87588355D01*
X231202487Y-87584212D01*
X231176322Y-87524830D01*
X231117418Y-87416183D01*
X231034147Y-87272246D01*
X230934878Y-87106991D01*
X230827984Y-86934392D01*
X230721836Y-86768425D01*
X230624805Y-86623061D01*
X230507724Y-86456181D01*
X230108570Y-85927308D01*
X229665505Y-85392539D01*
X229193060Y-84867587D01*
X228705768Y-84368168D01*
X228218160Y-83909994D01*
X227744770Y-83508780D01*
X227587071Y-83386065D01*
X227152554Y-83071886D01*
X226682262Y-82761531D01*
X226194105Y-82465580D01*
X225705989Y-82194613D01*
X225235823Y-81959209D01*
X224847756Y-81790099D01*
X225863212Y-81790099D01*
X225865788Y-81835341D01*
X225918515Y-81889611D01*
X226025247Y-81961282D01*
X226189842Y-82058729D01*
X226416154Y-82190324D01*
X226596692Y-82297366D01*
X227113154Y-82620316D01*
X227575911Y-82938246D01*
X228001393Y-83262843D01*
X228406027Y-83605792D01*
X228664176Y-83835739D01*
X229064165Y-83747854D01*
X229675142Y-83651983D01*
X230281606Y-83632339D01*
X230877317Y-83687637D01*
X231457063Y-83816367D01*
X232015628Y-84017020D01*
X232547799Y-84288087D01*
X233048361Y-84628058D01*
X233512100Y-85035423D01*
X233762282Y-85301085D01*
X234116312Y-85750310D01*
X234406498Y-86219299D01*
X234625695Y-86697384D01*
X234757979Y-87094252D01*
X234893989Y-87695904D01*
X234957311Y-88303108D01*
X234953516Y-88567331D01*
X234948613Y-88908720D01*
X234868564Y-89505600D01*
X234717832Y-90086605D01*
X234497084Y-90644594D01*
X234206990Y-91172425D01*
X234139754Y-91278462D01*
X234077262Y-91377667D01*
X234042465Y-91433731D01*
X234042058Y-91457014D01*
X234100154Y-91512229D01*
X234232876Y-91584325D01*
X234260824Y-91598172D01*
X234389354Y-91669393D01*
X234557817Y-91770356D01*
X234747534Y-91889660D01*
X234939828Y-92015901D01*
X235027296Y-92074540D01*
X235187414Y-92181077D01*
X235317483Y-92266544D01*
X235405936Y-92323374D01*
X235441209Y-92344000D01*
X235443536Y-92342691D01*
X235476009Y-92299831D01*
X235536215Y-92207829D01*
X235614774Y-92082217D01*
X235702312Y-91938525D01*
X235789449Y-91792284D01*
X235866810Y-91659022D01*
X235925017Y-91554272D01*
X235954693Y-91493564D01*
X235964819Y-91493699D01*
X236024178Y-91514691D01*
X236114246Y-91553513D01*
X236209165Y-91598723D01*
X236283077Y-91638879D01*
X236343241Y-91669806D01*
X236453835Y-91721179D01*
X236599472Y-91786345D01*
X236764957Y-91858770D01*
X236935093Y-91931923D01*
X237094684Y-91999268D01*
X237228534Y-92054273D01*
X237321447Y-92090405D01*
X237358228Y-92101129D01*
X237399599Y-92036808D01*
X237464242Y-91910074D01*
X237542913Y-91739095D01*
X237629060Y-91539118D01*
X237716128Y-91325392D01*
X237797564Y-91113168D01*
X237866817Y-90917692D01*
X237875398Y-90891660D01*
X237937161Y-90682953D01*
X238000046Y-90438438D01*
X238060220Y-90176589D01*
X238113851Y-89915878D01*
X238157107Y-89674779D01*
X238186156Y-89471764D01*
X238197164Y-89325307D01*
X238197847Y-89217846D01*
X237445616Y-89217248D01*
X237428907Y-89217227D01*
X237194264Y-89215421D01*
X236986720Y-89211117D01*
X236819036Y-89204787D01*
X236703978Y-89196903D01*
X236654308Y-89187940D01*
X236649118Y-89179773D01*
X236635097Y-89107276D01*
X236623958Y-88971375D01*
X236616418Y-88783114D01*
X236613192Y-88553538D01*
X236607484Y-88226728D01*
X236584630Y-87850088D01*
X236540910Y-87501165D01*
X236472627Y-87152226D01*
X236376082Y-86775538D01*
X236372770Y-86763691D01*
X236322927Y-86582041D01*
X236282170Y-86427408D01*
X236254624Y-86315837D01*
X236244414Y-86263371D01*
X236245733Y-86260316D01*
X236293903Y-86231306D01*
X236403222Y-86183636D01*
X236562548Y-86121675D01*
X236760738Y-86049791D01*
X236986649Y-85972355D01*
X237002971Y-85966908D01*
X237252039Y-85883088D01*
X237436362Y-85818787D01*
X237565079Y-85769842D01*
X237647328Y-85732091D01*
X237692248Y-85701370D01*
X237708978Y-85673517D01*
X237706656Y-85644368D01*
X237683888Y-85579259D01*
X237621812Y-85435342D01*
X237533564Y-85250211D01*
X237427291Y-85039544D01*
X237311138Y-84819019D01*
X237193251Y-84604314D01*
X237081774Y-84411107D01*
X236984855Y-84255077D01*
X236919917Y-84157723D01*
X236746717Y-83909445D01*
X236568010Y-83667292D01*
X236395444Y-83446353D01*
X236240665Y-83261719D01*
X236115321Y-83128481D01*
X235979812Y-82998346D01*
X235613676Y-83362595D01*
X235600050Y-83376140D01*
X235372599Y-83598980D01*
X235182954Y-83778287D01*
X235034953Y-83910621D01*
X234932435Y-83992543D01*
X234879237Y-84020615D01*
X234872497Y-84018420D01*
X234818317Y-83979899D01*
X234728278Y-83903283D01*
X234617845Y-83801535D01*
X234580193Y-83765956D01*
X234037874Y-83308517D01*
X233443994Y-82902383D01*
X232812516Y-82557176D01*
X232740989Y-82521787D01*
X232613568Y-82453650D01*
X232525495Y-82399383D01*
X232492616Y-82368341D01*
X232493331Y-82361549D01*
X232515615Y-82290301D01*
X232564460Y-82166269D01*
X232633556Y-82003971D01*
X232716594Y-81817924D01*
X232807266Y-81622644D01*
X232899262Y-81432650D01*
X233068472Y-81091608D01*
X232848929Y-81008409D01*
X232631627Y-80933759D01*
X232265773Y-80831563D01*
X231856198Y-80739387D01*
X231423195Y-80661199D01*
X230987058Y-80600964D01*
X230568077Y-80562649D01*
X230226154Y-80540595D01*
X230220693Y-81020374D01*
X230218505Y-81202086D01*
X230215756Y-81408570D01*
X230213111Y-81587271D01*
X230210924Y-81713007D01*
X230206616Y-81925860D01*
X229991693Y-81935978D01*
X229709343Y-81950780D01*
X229350349Y-81976261D01*
X229040288Y-82008764D01*
X228761822Y-82051071D01*
X228497612Y-82105962D01*
X228230320Y-82176219D01*
X227942608Y-82264622D01*
X227855203Y-82292582D01*
X227719034Y-82334463D01*
X227623773Y-82361494D01*
X227586063Y-82368812D01*
X227580158Y-82357769D01*
X227550666Y-82288370D01*
X227504645Y-82172699D01*
X227449262Y-82029571D01*
X227391686Y-81877799D01*
X227339084Y-81736199D01*
X227298622Y-81623584D01*
X227277469Y-81558769D01*
X227232675Y-81418949D01*
X227177811Y-81292633D01*
X227123585Y-81202433D01*
X227079932Y-81168000D01*
X227018210Y-81183270D01*
X226898391Y-81230532D01*
X226737392Y-81303270D01*
X226549281Y-81394844D01*
X226348125Y-81498613D01*
X226147992Y-81607937D01*
X226117832Y-81624804D01*
X225993090Y-81693204D01*
X225906932Y-81745511D01*
X225863212Y-81790099D01*
X224847756Y-81790099D01*
X224801514Y-81769948D01*
X224762235Y-81754596D01*
X224478400Y-81652635D01*
X224144205Y-81544740D01*
X223782582Y-81437487D01*
X223416462Y-81337450D01*
X223068779Y-81251204D01*
X222762462Y-81185325D01*
X222519319Y-81148326D01*
X222128546Y-81117537D01*
X221692705Y-81110328D01*
X221228720Y-81126015D01*
X220753511Y-81163914D01*
X220284000Y-81223342D01*
X219837111Y-81303613D01*
X219622859Y-81352954D01*
X219297433Y-81438344D01*
X218931312Y-81543416D01*
X218542242Y-81662548D01*
X218147971Y-81790116D01*
X217766246Y-81920498D01*
X217414816Y-82048070D01*
X217111428Y-82167209D01*
X217071718Y-82183824D01*
X216859972Y-82277655D01*
X216622302Y-82390141D01*
X216367439Y-82516450D01*
X216104119Y-82651753D01*
X215841072Y-82791220D01*
X215587032Y-82930020D01*
X215350733Y-83063323D01*
X215140906Y-83186299D01*
X214966285Y-83294118D01*
X214835603Y-83381948D01*
X214757592Y-83444961D01*
X214740986Y-83478325D01*
X213903190Y-83478325D01*
X214347743Y-82978247D01*
X214480202Y-82848307D01*
X214994866Y-82848307D01*
X215013301Y-82841154D01*
X215087865Y-82801541D01*
X215203670Y-82735015D01*
X215344995Y-82650460D01*
X215421544Y-82604982D01*
X215663905Y-82470223D01*
X215950793Y-82320671D01*
X216261795Y-82166314D01*
X216576502Y-82017140D01*
X216874503Y-81883138D01*
X217135385Y-81774296D01*
X217173196Y-81759450D01*
X217593016Y-81603031D01*
X218044959Y-81448194D01*
X218511793Y-81300020D01*
X218976285Y-81163588D01*
X219421203Y-81043982D01*
X219829314Y-80946282D01*
X220183385Y-80875568D01*
X220556538Y-80820144D01*
X221038710Y-80771827D01*
X221518232Y-80747492D01*
X221971568Y-80748217D01*
X222375179Y-80775082D01*
X222405551Y-80778526D01*
X222701351Y-80823301D01*
X223046389Y-80891754D01*
X223422572Y-80978974D01*
X223811804Y-81080051D01*
X224195994Y-81190074D01*
X224557046Y-81304132D01*
X224876867Y-81417317D01*
X225137364Y-81524715D01*
X225140525Y-81526161D01*
X225266096Y-81582013D01*
X225361930Y-81621775D01*
X225407505Y-81636923D01*
X225433748Y-81626047D01*
X225516203Y-81582394D01*
X225639155Y-81513080D01*
X225787526Y-81426456D01*
X225883732Y-81369918D01*
X226054745Y-81271467D01*
X226207820Y-81185694D01*
X226318462Y-81126438D01*
X226431085Y-81071351D01*
X226599500Y-80994832D01*
X226773773Y-80920819D01*
X226938538Y-80855358D01*
X227078432Y-80804497D01*
X227178089Y-80774283D01*
X227222146Y-80770762D01*
X227223022Y-80771752D01*
X227242295Y-80804374D01*
X227277935Y-80877785D01*
X227332737Y-80998233D01*
X227409499Y-81171964D01*
X227511017Y-81405223D01*
X227640088Y-81704257D01*
X227669945Y-81772219D01*
X227727089Y-81881808D01*
X227780815Y-81933810D01*
X227847467Y-81939270D01*
X227943386Y-81909232D01*
X228112992Y-81852113D01*
X228427134Y-81771248D01*
X228788710Y-81702120D01*
X229179233Y-81648083D01*
X229580217Y-81612486D01*
X229658062Y-81607215D01*
X229802413Y-81595299D01*
X229905620Y-81583800D01*
X229949235Y-81574612D01*
X229953541Y-81547764D01*
X229958766Y-81453699D01*
X229963297Y-81304757D01*
X229966758Y-81114025D01*
X229968773Y-80894590D01*
X229972154Y-80230162D01*
X230382462Y-80230769D01*
X230502830Y-80233445D01*
X230718958Y-80246008D01*
X230961326Y-80266945D01*
X231212553Y-80294136D01*
X231455262Y-80325460D01*
X231672074Y-80358798D01*
X231845610Y-80392029D01*
X231958491Y-80423034D01*
X232052436Y-80450619D01*
X232153237Y-80464829D01*
X232200688Y-80472205D01*
X232314762Y-80500757D01*
X232472471Y-80545816D01*
X232656831Y-80602046D01*
X232850855Y-80664106D01*
X233037559Y-80726659D01*
X233199958Y-80784366D01*
X233321067Y-80831888D01*
X233363933Y-80850608D01*
X233430947Y-80890032D01*
X233445384Y-80937590D01*
X233421632Y-81020226D01*
X233386411Y-81109921D01*
X233316885Y-81265491D01*
X233229598Y-81447292D01*
X233134458Y-81635798D01*
X233041372Y-81811483D01*
X232960250Y-81954819D01*
X232900999Y-82046281D01*
X232804767Y-82172447D01*
X233145393Y-82344300D01*
X233194069Y-82369276D01*
X233448964Y-82510780D01*
X233721634Y-82676888D01*
X233989941Y-82853168D01*
X234231744Y-83025184D01*
X234424904Y-83178501D01*
X234519552Y-83260125D01*
X234661287Y-83382484D01*
X234781009Y-83485974D01*
X234939709Y-83623308D01*
X235216664Y-83362808D01*
X235221844Y-83357936D01*
X235494434Y-83105214D01*
X235715577Y-82907945D01*
X235884789Y-82766537D01*
X236001585Y-82681394D01*
X236065478Y-82652923D01*
X236106764Y-82671300D01*
X236195183Y-82741898D01*
X236315276Y-82856456D01*
X236457566Y-83005368D01*
X236612580Y-83179034D01*
X236770841Y-83367847D01*
X236908410Y-83545266D01*
X237173309Y-83926693D01*
X237433872Y-84349363D01*
X237676984Y-84790189D01*
X237889528Y-85226086D01*
X238058386Y-85633967D01*
X238156343Y-85899165D01*
X238050095Y-85937859D01*
X237961372Y-85970578D01*
X237846154Y-86013945D01*
X237830583Y-86019526D01*
X237737993Y-86049229D01*
X237592129Y-86093489D01*
X237409659Y-86147305D01*
X237207251Y-86205674D01*
X237129415Y-86228015D01*
X236944557Y-86282315D01*
X236793172Y-86328541D01*
X236689194Y-86362375D01*
X236646555Y-86379497D01*
X236646222Y-86379923D01*
X236648635Y-86426078D01*
X236667920Y-86531795D01*
X236700962Y-86681795D01*
X236744648Y-86860798D01*
X236840674Y-87276101D01*
X236905624Y-87656416D01*
X236943099Y-88030760D01*
X236957406Y-88430916D01*
X236961871Y-88885692D01*
X237394244Y-88887977D01*
X237500199Y-88888733D01*
X237742140Y-88891500D01*
X237984534Y-88895414D01*
X238188077Y-88899885D01*
X238549539Y-88909508D01*
X238549539Y-89103011D01*
X238545827Y-89203239D01*
X238544476Y-89217846D01*
X238526958Y-89407261D01*
X238494908Y-89652784D01*
X238452807Y-89918895D01*
X238403785Y-90184682D01*
X238350975Y-90429231D01*
X238340280Y-90473938D01*
X238215137Y-90929103D01*
X238060749Y-91371478D01*
X237865047Y-91836000D01*
X237813344Y-91950277D01*
X237721090Y-92153319D01*
X237653595Y-92299006D01*
X237605756Y-92396859D01*
X237572469Y-92456397D01*
X237548631Y-92487138D01*
X237529138Y-92498601D01*
X237508886Y-92500307D01*
X237507642Y-92500290D01*
X237443422Y-92484294D01*
X237323408Y-92437342D01*
X237144309Y-92357979D01*
X236902834Y-92244747D01*
X236595693Y-92096190D01*
X236440715Y-92020449D01*
X236301906Y-91952624D01*
X236203548Y-91904579D01*
X236160524Y-91883587D01*
X236149183Y-91892100D01*
X236104378Y-91950200D01*
X236036828Y-92048627D01*
X235957337Y-92170394D01*
X235876706Y-92298514D01*
X235805738Y-92416001D01*
X235755235Y-92505869D01*
X235736001Y-92551131D01*
X235761583Y-92576494D01*
X235838990Y-92643448D01*
X235958734Y-92743737D01*
X236111218Y-92869326D01*
X236286844Y-93012184D01*
X236415520Y-93116333D01*
X236624414Y-93285699D01*
X236826184Y-93449598D01*
X237002933Y-93593490D01*
X237136767Y-93702831D01*
X237216096Y-93766346D01*
X237346520Y-93864305D01*
X237452442Y-93935930D01*
X237516416Y-93968991D01*
X237532257Y-93970527D01*
X237603982Y-93950925D01*
X237718888Y-93892973D01*
X237883057Y-93793349D01*
X238102570Y-93648729D01*
X238158638Y-93611343D01*
X238361276Y-93482419D01*
X238575041Y-93354384D01*
X238787129Y-93234143D01*
X238984734Y-93128602D01*
X239155051Y-93044666D01*
X239285275Y-92989240D01*
X239362600Y-92969231D01*
X239381765Y-92967887D01*
X239417503Y-92942561D01*
X239410232Y-92879395D01*
X239357763Y-92770862D01*
X239257907Y-92609439D01*
X239086704Y-92381478D01*
X238879401Y-92159159D01*
X238658906Y-91965132D01*
X238447480Y-91821050D01*
X238352082Y-91758141D01*
X238312027Y-91701482D01*
X238392150Y-91701482D01*
X238642362Y-91865987D01*
X238672298Y-91886082D01*
X238951962Y-92112355D01*
X239209079Y-92386237D01*
X239417583Y-92680344D01*
X239546001Y-92896260D01*
X239790747Y-92875552D01*
X239880336Y-92870887D01*
X240121931Y-92882715D01*
X240362931Y-92924739D01*
X240584072Y-92991643D01*
X240766095Y-93078113D01*
X240889738Y-93178832D01*
X240893358Y-93183309D01*
X240909784Y-93224595D01*
X240877057Y-93264255D01*
X240783460Y-93317588D01*
X240545697Y-93463434D01*
X240282418Y-93675727D01*
X240028052Y-93928579D01*
X239794924Y-94207146D01*
X239595357Y-94496583D01*
X239441675Y-94782047D01*
X239346203Y-95048695D01*
X239332176Y-95112088D01*
X239312407Y-95399434D01*
X239369048Y-95670976D01*
X239502496Y-95928954D01*
X239633444Y-96083600D01*
X239824868Y-96243992D01*
X240036431Y-96370714D01*
X240241539Y-96445189D01*
X240528988Y-96479740D01*
X240876651Y-96461788D01*
X241232675Y-96386947D01*
X241576594Y-96258087D01*
X241663709Y-96215603D01*
X241905971Y-96079532D01*
X242165943Y-95906848D01*
X242454615Y-95689926D01*
X242782981Y-95421139D01*
X243225691Y-95047144D01*
X243234125Y-94642951D01*
X243242559Y-94238759D01*
X242996433Y-94076470D01*
X242924280Y-94026261D01*
X242779256Y-93918185D01*
X242601835Y-93780279D01*
X242408026Y-93625051D01*
X242213837Y-93465009D01*
X241919674Y-93222665D01*
X241509393Y-92897456D01*
X241109892Y-92595170D01*
X240730139Y-92322203D01*
X240379103Y-92084950D01*
X240065753Y-91889806D01*
X239799059Y-91743166D01*
X239657486Y-91678106D01*
X239343892Y-91574743D01*
X239045105Y-91531414D01*
X238771656Y-91549073D01*
X238534072Y-91628673D01*
X238392150Y-91701482D01*
X238312027Y-91701482D01*
X238303923Y-91690018D01*
X238331540Y-91625232D01*
X238434582Y-91556582D01*
X238506688Y-91522384D01*
X238791927Y-91441273D01*
X239103854Y-91430888D01*
X239437787Y-91491006D01*
X239789044Y-91621402D01*
X239921278Y-91687462D01*
X240176851Y-91833957D01*
X240475094Y-92023433D01*
X240807018Y-92249528D01*
X241163633Y-92505879D01*
X241535949Y-92786122D01*
X241914978Y-93083895D01*
X242291730Y-93392835D01*
X242404357Y-93486646D01*
X242585648Y-93635250D01*
X242751427Y-93768386D01*
X242887027Y-93874326D01*
X242977777Y-93941342D01*
X243050994Y-93990416D01*
X243135474Y-94042976D01*
X243177426Y-94063384D01*
X243186958Y-94050150D01*
X243196668Y-93972611D01*
X243198562Y-93835711D01*
X243192874Y-93650980D01*
X243179835Y-93429950D01*
X243159678Y-93184154D01*
X243096235Y-92607262D01*
X242914086Y-91480292D01*
X242657176Y-90375396D01*
X242325858Y-89293797D01*
X241920483Y-88236719D01*
X241441402Y-87205384D01*
X241205049Y-86754734D01*
X240877525Y-86174822D01*
X240536526Y-85616954D01*
X240190606Y-85094458D01*
X239848317Y-84620660D01*
X239518213Y-84208888D01*
X239467863Y-84149441D01*
X239373005Y-84036432D01*
X239272462Y-83915811D01*
X239116850Y-83733416D01*
X238779948Y-83363772D01*
X238403227Y-82977695D01*
X238000974Y-82588467D01*
X237587472Y-82209370D01*
X237177006Y-81853687D01*
X236783863Y-81534700D01*
X236422326Y-81265692D01*
X236173672Y-81092892D01*
X235566483Y-80689285D01*
X234987034Y-80332922D01*
X234419275Y-80014630D01*
X233847152Y-79725238D01*
X233254616Y-79455572D01*
X233137066Y-79405323D01*
X232774905Y-79256699D01*
X232403423Y-79112503D01*
X232038630Y-78978501D01*
X231696533Y-78860461D01*
X231393141Y-78764150D01*
X231144462Y-78695335D01*
X231137956Y-78693718D01*
X231054762Y-78672252D01*
X230924797Y-78638046D01*
X230773231Y-78597717D01*
X230763943Y-78595239D01*
X230371235Y-78499100D01*
X229926105Y-78404486D01*
X229453565Y-78316084D01*
X228978629Y-78238580D01*
X228526308Y-78176663D01*
X228338821Y-78157109D01*
X228015356Y-78132843D01*
X227643913Y-78113384D01*
X227242214Y-78099073D01*
X226827981Y-78090250D01*
X226418937Y-78087255D01*
X226032804Y-78090428D01*
X225687302Y-78100110D01*
X225400154Y-78116641D01*
X224806971Y-78175226D01*
X223905502Y-78305188D01*
X223003924Y-78482119D01*
X222120275Y-78701852D01*
X221272590Y-78960222D01*
X220478906Y-79253066D01*
X219895020Y-79504301D01*
X219174007Y-79851445D01*
X218460207Y-80233760D01*
X217771316Y-80641193D01*
X217125028Y-81063693D01*
X216539038Y-81491208D01*
X216411396Y-81592471D01*
X216244171Y-81729507D01*
X216059800Y-81884062D01*
X215866842Y-82048611D01*
X215673860Y-82215632D01*
X215489414Y-82377600D01*
X215322065Y-82526991D01*
X215180375Y-82656281D01*
X215072905Y-82757946D01*
X215008215Y-82824463D01*
X214994866Y-82848307D01*
X214480202Y-82848307D01*
X215152520Y-82188777D01*
X215688183Y-81720162D01*
X216345627Y-81195590D01*
X217030383Y-80698555D01*
X217726977Y-80239695D01*
X218419937Y-79829648D01*
X219093790Y-79479051D01*
X219498853Y-79288199D01*
X220103893Y-79021641D01*
X220687365Y-78790154D01*
X221273186Y-78585010D01*
X221885272Y-78397483D01*
X222547539Y-78218848D01*
X222749184Y-78168986D01*
X223785206Y-77957548D01*
X224847354Y-77812466D01*
X225924701Y-77733926D01*
X227006321Y-77722116D01*
X228081285Y-77777221D01*
X229138667Y-77899428D01*
X230167539Y-78088923D01*
X230228934Y-78102467D01*
X230406769Y-78141598D01*
X230565106Y-78176304D01*
X230675539Y-78200355D01*
X230708436Y-78207791D01*
X230871755Y-78249589D01*
X231085454Y-78309379D01*
X231330918Y-78381513D01*
X231589534Y-78460343D01*
X231842688Y-78540222D01*
X232071766Y-78615503D01*
X232258154Y-78680537D01*
X232346987Y-78712965D01*
X232528301Y-78779019D01*
X232690014Y-78837772D01*
X232805231Y-78879445D01*
X232855426Y-78897835D01*
X232975128Y-78944040D01*
X233059231Y-78979672D01*
X233098176Y-78997028D01*
X233205560Y-79041610D01*
X233332770Y-79091871D01*
X233343184Y-79095916D01*
X233520599Y-79171348D01*
X233749803Y-79277788D01*
X234016006Y-79407656D01*
X234304416Y-79553373D01*
X234600243Y-79707359D01*
X234888695Y-79862035D01*
X235154980Y-80009821D01*
X235384308Y-80143138D01*
X236104468Y-80601991D01*
X237006449Y-81256739D01*
X237866397Y-81973372D01*
X238680091Y-82747248D01*
X239443309Y-83573728D01*
X240151830Y-84448170D01*
X240801431Y-85365935D01*
X241387891Y-86322381D01*
X241906988Y-87312868D01*
X242034547Y-87583418D01*
X242373839Y-88368095D01*
X242667646Y-89157273D01*
X242920050Y-89964856D01*
X243135131Y-90804749D01*
X243316970Y-91690855D01*
X243469649Y-92637077D01*
X243480207Y-92715401D01*
X243518448Y-93084390D01*
X243547269Y-93509009D01*
X243560830Y-93835711D01*
X243566467Y-93971530D01*
G37*
G36*
X243942154Y-91777384D02*
G01*
X243922616Y-91796923D01*
X243903077Y-91777384D01*
X243922616Y-91757846D01*
X243942154Y-91777384D01*
G37*
G36*
X221855747Y-84222934D02*
G01*
X222229308Y-84241980D01*
X222562521Y-84277848D01*
X222837332Y-84330222D01*
X222993189Y-84377619D01*
X223229928Y-84467614D01*
X223491638Y-84581864D01*
X223755906Y-84709933D01*
X224000316Y-84841386D01*
X224202453Y-84965785D01*
X224250006Y-84999329D01*
X224365182Y-85086179D01*
X224503779Y-85195380D01*
X224651608Y-85315217D01*
X224794477Y-85433975D01*
X224918195Y-85539938D01*
X225008571Y-85621392D01*
X225051414Y-85666622D01*
X225058298Y-85681428D01*
X225051175Y-85692750D01*
X225018029Y-85697535D01*
X224948523Y-85695412D01*
X224832323Y-85686008D01*
X224659092Y-85668953D01*
X224418496Y-85643875D01*
X224328722Y-85635036D01*
X224068349Y-85613714D01*
X223772163Y-85594109D01*
X223470153Y-85578087D01*
X223192308Y-85567517D01*
X222969614Y-85559270D01*
X222424005Y-85518783D01*
X221937247Y-85449027D01*
X221498364Y-85347104D01*
X221096384Y-85210116D01*
X220720331Y-85035165D01*
X220359231Y-84819352D01*
X220340928Y-84806958D01*
X220232241Y-84725682D01*
X220119762Y-84631449D01*
X220016444Y-84536627D01*
X219935243Y-84453584D01*
X219889112Y-84394688D01*
X219891006Y-84372307D01*
X219906799Y-84370993D01*
X219989364Y-84361061D01*
X220127756Y-84342974D01*
X220307569Y-84318637D01*
X220514398Y-84289953D01*
X220673538Y-84269848D01*
X221059807Y-84236554D01*
X221459896Y-84221021D01*
X221855747Y-84222934D01*
G37*
%TD*%
%LPC*%
D11*
%TO.C,H3*%
X206725000Y-90225000D03*
%TD*%
D12*
%TO.C,J7*%
X212500000Y-76000000D03*
D13*
X217500000Y-76000000D03*
%TD*%
D14*
%TO.C,J1*%
X226250000Y-76250000D03*
D15*
X223750000Y-76250000D03*
%TD*%
D11*
%TO.C,H2*%
X244500000Y-99500000D03*
%TD*%
%TO.C,H1*%
X226250000Y-112000000D03*
%TD*%
D16*
%TO.C,J3*%
X203355000Y-94860000D03*
X203355000Y-100640000D03*
D17*
X203855000Y-93430000D03*
D18*
X199675000Y-93430000D03*
D17*
X203855000Y-102070000D03*
D18*
X199675000Y-102070000D03*
%TD*%
D19*
%TO.C,J2*%
X240000000Y-104500000D03*
D20*
X240000000Y-101960000D03*
X240000000Y-99420000D03*
X240000000Y-96880000D03*
%TD*%
D21*
%TO.C,J4*%
X251000000Y-92250000D03*
D22*
X248500000Y-92250000D03*
X246000000Y-92250000D03*
%TD*%
D21*
%TO.C,J9*%
X237500000Y-120500000D03*
D22*
X235000000Y-120500000D03*
X232500000Y-120500000D03*
X230000000Y-120500000D03*
%TD*%
D23*
%TO.C,LS1*%
X248201500Y-113625000D03*
X244201500Y-113625000D03*
%TD*%
D21*
%TO.C,J5*%
X221750000Y-120500000D03*
D22*
X219250000Y-120500000D03*
X216750000Y-120500000D03*
X214250000Y-120500000D03*
%TD*%
D14*
%TO.C,J6*%
X208250000Y-111500000D03*
D15*
X205750000Y-111500000D03*
%TD*%
%LPD*%
M02*
