%TF.GenerationSoftware,KiCad,Pcbnew,10.0.3*%
%TF.CreationDate,2026-05-29T12:35:44-04:00*%
%TF.ProjectId,float_pcb,666c6f61-745f-4706-9362-2e6b69636164,rev?*%
%TF.SameCoordinates,Original*%
%TF.FileFunction,Copper,L1,Top*%
%TF.FilePolarity,Positive*%
%FSLAX46Y46*%
G04 Gerber Fmt 4.6, Leading zero omitted, Abs format (unit mm)*
G04 Created by KiCad (PCBNEW 10.0.3) date 2026-05-29 12:35:44*
%MOMM*%
%LPD*%
G01*
G04 APERTURE LIST*
G04 Aperture macros list*
%AMRoundRect*
0 Rectangle with rounded corners*
0 $1 Rounding radius*
0 $2 $3 $4 $5 $6 $7 $8 $9 X,Y pos of 4 corners*
0 Add a 4 corners polygon primitive as box body*
4,1,4,$2,$3,$4,$5,$6,$7,$8,$9,$2,$3,0*
0 Add four circle primitives for the rounded corners*
1,1,$1+$1,$2,$3*
1,1,$1+$1,$4,$5*
1,1,$1+$1,$6,$7*
1,1,$1+$1,$8,$9*
0 Add four rect primitives between the rounded corners*
20,1,$1+$1,$2,$3,$4,$5,0*
20,1,$1+$1,$4,$5,$6,$7,0*
20,1,$1+$1,$6,$7,$8,$9,0*
20,1,$1+$1,$8,$9,$2,$3,0*%
%AMFreePoly0*
4,1,52,-0.218366,0.683694,-0.202145,0.672855,-0.191306,0.656634,-0.187500,0.637500,-0.187500,0.287500,0.062500,0.287500,0.062500,0.637500,0.066306,0.656634,0.077145,0.672855,0.093366,0.683694,0.112500,0.687500,0.262500,0.687500,0.281634,0.683694,0.297855,0.672855,0.308694,0.656634,0.312500,0.637500,0.312500,0.287500,0.487500,0.287500,0.506634,0.283694,0.522855,0.272855,
0.533694,0.256634,0.537500,0.237500,0.537500,-0.237500,0.533694,-0.256634,0.522855,-0.272855,0.506634,-0.283694,0.487500,-0.287500,0.259500,-0.287500,-0.117500,-0.664500,-0.117500,-0.807500,-0.121306,-0.826634,-0.132145,-0.842855,-0.148366,-0.853694,-0.167500,-0.857500,-0.487500,-0.857500,-0.506634,-0.853694,-0.522855,-0.842855,-0.533694,-0.826634,-0.537500,-0.807500,-0.537500,0.237500,
-0.533694,0.256634,-0.522855,0.272855,-0.506634,0.283694,-0.487500,0.287500,-0.437500,0.287500,-0.437500,0.637500,-0.433694,0.656634,-0.422855,0.672855,-0.406634,0.683694,-0.387500,0.687500,-0.237500,0.687500,-0.218366,0.683694,-0.218366,0.683694,$1*%
%AMFreePoly1*
4,1,69,0.446320,1.093381,0.474531,1.074531,0.493381,1.046320,0.499999,1.013042,0.500000,-1.013043,0.493381,-1.046320,0.474531,-1.074531,0.446320,-1.093381,0.413042,-1.099999,-0.413043,-1.100000,-0.446320,-1.093381,-0.474531,-1.074531,-0.493381,-1.046320,-0.499999,-1.013042,-0.499999,-0.865000,-0.850001,-0.865000,-0.869135,-0.861194,-0.885356,-0.850355,-0.896195,-0.834134,-0.900001,-0.815000,
-0.900001,-0.665000,-0.896195,-0.645866,-0.885356,-0.629645,-0.869135,-0.618806,-0.850001,-0.615000,-0.499999,-0.615000,-0.499999,-0.365000,-0.850001,-0.365000,-0.869135,-0.361194,-0.885356,-0.350355,-0.896195,-0.334134,-0.900001,-0.315000,-0.900001,-0.165000,-0.896195,-0.145866,-0.885356,-0.129645,-0.869135,-0.118806,-0.850001,-0.115000,-0.499999,-0.115000,-0.500000,0.135000,-0.850000,0.135000,
-0.869134,0.138806,-0.885355,0.149645,-0.896194,0.165866,-0.900000,0.185000,-0.900000,0.335000,-0.896194,0.354134,-0.885355,0.370355,-0.869134,0.381194,-0.850000,0.385000,-0.500000,0.385000,-0.500000,0.635000,-0.850000,0.635000,-0.869134,0.638806,-0.885355,0.649645,-0.896194,0.665866,-0.900000,0.685000,-0.900000,0.835000,-0.896194,0.854134,-0.885355,0.870355,-0.869134,0.881194,
-0.850000,0.885000,-0.500000,0.885000,-0.500000,1.013043,-0.493381,1.046320,-0.474531,1.074531,-0.446320,1.093381,-0.413042,1.099999,0.413043,1.100000,0.446320,1.093381,0.446320,1.093381,$1*%
%AMFreePoly2*
4,1,69,0.413042,1.099999,0.446320,1.093381,0.474531,1.074531,0.493381,1.046320,0.500000,1.013043,0.500000,0.885000,0.850000,0.885000,0.869134,0.881194,0.885355,0.870355,0.896194,0.854134,0.900000,0.835000,0.900000,0.685000,0.896194,0.665866,0.885355,0.649645,0.869134,0.638806,0.850000,0.635000,0.500000,0.635000,0.500000,0.385000,0.850000,0.385000,0.869134,0.381194,
0.885355,0.370355,0.896194,0.354134,0.900000,0.335000,0.900000,0.185000,0.896194,0.165866,0.885355,0.149645,0.869134,0.138806,0.850000,0.135000,0.500000,0.135000,0.499999,-0.115000,0.850000,-0.115000,0.869134,-0.118806,0.885355,-0.129645,0.896194,-0.145866,0.900000,-0.165000,0.900000,-0.315000,0.896194,-0.334134,0.885355,-0.350355,0.869134,-0.361194,0.850000,-0.365000,
0.499999,-0.365000,0.499999,-0.615000,0.850000,-0.615000,0.869134,-0.618806,0.885355,-0.629645,0.896194,-0.645866,0.900000,-0.665000,0.900000,-0.815000,0.896194,-0.834134,0.885355,-0.850355,0.869134,-0.861194,0.850000,-0.865000,0.499999,-0.865000,0.499999,-1.013042,0.493381,-1.046320,0.474531,-1.074531,0.446320,-1.093381,0.413043,-1.100000,-0.413042,-1.099999,-0.446320,-1.093381,
-0.474531,-1.074531,-0.493381,-1.046320,-0.500000,-1.013043,-0.499999,1.013042,-0.493381,1.046320,-0.474531,1.074531,-0.446320,1.093381,-0.413043,1.100000,0.413042,1.099999,0.413042,1.099999,$1*%
%AMFreePoly3*
4,1,52,-0.093366,0.683694,-0.077145,0.672855,-0.066306,0.656634,-0.062500,0.637500,-0.062500,0.287500,0.187500,0.287500,0.187500,0.637500,0.191306,0.656634,0.202145,0.672855,0.218366,0.683694,0.237500,0.687500,0.387500,0.687500,0.406634,0.683694,0.422855,0.672855,0.433694,0.656634,0.437500,0.637500,0.437500,0.287500,0.487500,0.287500,0.506634,0.283694,0.522855,0.272855,
0.533694,0.256634,0.537500,0.237500,0.537500,-0.807500,0.533694,-0.826634,0.522855,-0.842855,0.506634,-0.853694,0.487500,-0.857500,0.167500,-0.857500,0.148366,-0.853694,0.132145,-0.842855,0.121306,-0.826634,0.117500,-0.807500,0.117500,-0.664500,-0.259500,-0.287500,-0.487500,-0.287500,-0.506634,-0.283694,-0.522855,-0.272855,-0.533694,-0.256634,-0.537500,-0.237500,-0.537500,0.237500,
-0.533694,0.256634,-0.522855,0.272855,-0.506634,0.283694,-0.487500,0.287500,-0.312500,0.287500,-0.312500,0.637500,-0.308694,0.656634,-0.297855,0.672855,-0.281634,0.683694,-0.262500,0.687500,-0.112500,0.687500,-0.093366,0.683694,-0.093366,0.683694,$1*%
G04 Aperture macros list end*
%TA.AperFunction,HeatsinkPad*%
%ADD10C,0.600000*%
%TD*%
%TA.AperFunction,HeatsinkPad*%
%ADD11R,3.900000X3.900000*%
%TD*%
%TA.AperFunction,SMDPad,CuDef*%
%ADD12R,1.500000X0.900000*%
%TD*%
%TA.AperFunction,SMDPad,CuDef*%
%ADD13R,0.900000X1.500000*%
%TD*%
%TA.AperFunction,SMDPad,CuDef*%
%ADD14FreePoly0,90.000000*%
%TD*%
%TA.AperFunction,SMDPad,CuDef*%
%ADD15FreePoly1,0.000000*%
%TD*%
%TA.AperFunction,SMDPad,CuDef*%
%ADD16FreePoly2,0.000000*%
%TD*%
%TA.AperFunction,SMDPad,CuDef*%
%ADD17FreePoly3,270.000000*%
%TD*%
%TA.AperFunction,SMDPad,CuDef*%
%ADD18RoundRect,0.050000X-0.060000X-0.250000X0.060000X-0.250000X0.060000X0.250000X-0.060000X0.250000X0*%
%TD*%
%TA.AperFunction,SMDPad,CuDef*%
%ADD19RoundRect,0.218750X0.256250X-0.218750X0.256250X0.218750X-0.256250X0.218750X-0.256250X-0.218750X0*%
%TD*%
%TA.AperFunction,SMDPad,CuDef*%
%ADD20RoundRect,0.150000X0.587500X0.150000X-0.587500X0.150000X-0.587500X-0.150000X0.587500X-0.150000X0*%
%TD*%
%TA.AperFunction,SMDPad,CuDef*%
%ADD21RoundRect,0.225000X-0.250000X0.225000X-0.250000X-0.225000X0.250000X-0.225000X0.250000X0.225000X0*%
%TD*%
%TA.AperFunction,SMDPad,CuDef*%
%ADD22RoundRect,0.200000X-0.275000X0.200000X-0.275000X-0.200000X0.275000X-0.200000X0.275000X0.200000X0*%
%TD*%
%TA.AperFunction,SMDPad,CuDef*%
%ADD23RoundRect,0.200000X-0.200000X-0.275000X0.200000X-0.275000X0.200000X0.275000X-0.200000X0.275000X0*%
%TD*%
%TA.AperFunction,SMDPad,CuDef*%
%ADD24R,1.700000X1.000000*%
%TD*%
%TA.AperFunction,SMDPad,CuDef*%
%ADD25RoundRect,0.150000X-0.587500X-0.150000X0.587500X-0.150000X0.587500X0.150000X-0.587500X0.150000X0*%
%TD*%
%TA.AperFunction,ComponentPad*%
%ADD26RoundRect,0.760000X-1.140000X-1.140000X1.140000X-1.140000X1.140000X1.140000X-1.140000X1.140000X0*%
%TD*%
%TA.AperFunction,ComponentPad*%
%ADD27C,3.800000*%
%TD*%
%TA.AperFunction,ComponentPad*%
%ADD28RoundRect,0.250000X0.600000X0.750000X-0.600000X0.750000X-0.600000X-0.750000X0.600000X-0.750000X0*%
%TD*%
%TA.AperFunction,ComponentPad*%
%ADD29O,1.700000X2.000000*%
%TD*%
%TA.AperFunction,SMDPad,CuDef*%
%ADD30RoundRect,0.150000X-0.302462X0.150000X-0.302462X-0.150000X0.302462X-0.150000X0.302462X0.150000X0*%
%TD*%
%TA.AperFunction,SMDPad,CuDef*%
%ADD31RoundRect,0.150000X-0.302499X0.150000X-0.302499X-0.150000X0.302499X-0.150000X0.302499X0.150000X0*%
%TD*%
%TA.AperFunction,SMDPad,CuDef*%
%ADD32RoundRect,0.075000X-0.500000X0.075000X-0.500000X-0.075000X0.500000X-0.075000X0.500000X0.075000X0*%
%TD*%
%TA.AperFunction,SMDPad,CuDef*%
%ADD33RoundRect,0.150000X-0.302500X0.150000X-0.302500X-0.150000X0.302500X-0.150000X0.302500X0.150000X0*%
%TD*%
%TA.AperFunction,SMDPad,CuDef*%
%ADD34RoundRect,0.150000X-0.302497X0.150000X-0.302497X-0.150000X0.302497X-0.150000X0.302497X0.150000X0*%
%TD*%
%TA.AperFunction,SMDPad,CuDef*%
%ADD35RoundRect,0.150000X-0.302498X0.150000X-0.302498X-0.150000X0.302498X-0.150000X0.302498X0.150000X0*%
%TD*%
%TA.AperFunction,ComponentPad*%
%ADD36O,2.100000X1.000000*%
%TD*%
%TA.AperFunction,ComponentPad*%
%ADD37O,1.800000X1.000000*%
%TD*%
%TA.AperFunction,SMDPad,CuDef*%
%ADD38RoundRect,0.218750X-0.256250X0.218750X-0.256250X-0.218750X0.256250X-0.218750X0.256250X0.218750X0*%
%TD*%
%TA.AperFunction,ComponentPad*%
%ADD39R,1.700000X1.700000*%
%TD*%
%TA.AperFunction,ComponentPad*%
%ADD40C,1.700000*%
%TD*%
%TA.AperFunction,ComponentPad*%
%ADD41RoundRect,0.250000X0.600000X0.725000X-0.600000X0.725000X-0.600000X-0.725000X0.600000X-0.725000X0*%
%TD*%
%TA.AperFunction,ComponentPad*%
%ADD42O,1.700000X1.950000*%
%TD*%
%TA.AperFunction,ComponentPad*%
%ADD43C,1.408000*%
%TD*%
%TA.AperFunction,ViaPad*%
%ADD44C,0.600000*%
%TD*%
%TA.AperFunction,Conductor*%
%ADD45C,0.200000*%
%TD*%
%TA.AperFunction,Conductor*%
%ADD46C,0.500000*%
%TD*%
%TA.AperFunction,Conductor*%
%ADD47C,1.000000*%
%TD*%
G04 APERTURE END LIST*
D10*
%TO.P,U4,41,GND_41*%
%TO.N,GND*%
X227000000Y-98450000D03*
X227000000Y-97050000D03*
X226300000Y-99150000D03*
X226300000Y-97750000D03*
X226300000Y-96350000D03*
X225600000Y-98450000D03*
D11*
X225600000Y-97750000D03*
D10*
X225600000Y-97050000D03*
X224900000Y-99150000D03*
X224900000Y-97750000D03*
X224900000Y-96350000D03*
X224200000Y-98450000D03*
X224200000Y-97050000D03*
D12*
%TO.P,U4,40,GND_40*%
X235850000Y-90030000D03*
%TO.P,U4,39,IO1_39*%
%TO.N,unconnected-(U4-IO1-Pad39)*%
X235850000Y-91300000D03*
%TO.P,U4,38,IO2_38*%
%TO.N,unconnected-(U4-IO2-Pad38)*%
X235850000Y-92570000D03*
%TO.P,U4,37,TXD0_37*%
%TO.N,unconnected-(U4-TXD0-Pad37)*%
X235850000Y-93840000D03*
%TO.P,U4,36,RXD0_36*%
%TO.N,unconnected-(U4-RXD0-Pad36)*%
X235850000Y-95110000D03*
%TO.P,U4,35,IO42_35*%
%TO.N,SERVO*%
X235850000Y-96380000D03*
%TO.P,U4,34,IO41_34*%
%TO.N,Net-(J2-Pin_4)*%
X235850000Y-97650000D03*
%TO.P,U4,33,IO40_33*%
%TO.N,Net-(J2-Pin_3)*%
X235850000Y-98920000D03*
%TO.P,U4,32,IO39_32*%
%TO.N,Net-(J2-Pin_2)*%
X235850000Y-100190000D03*
%TO.P,U4,31,IO38_31*%
%TO.N,Net-(J2-Pin_1)*%
X235850000Y-101460000D03*
%TO.P,U4,30,IO37_30*%
%TO.N,unconnected-(U4-IO37-Pad30)*%
X235850000Y-102730000D03*
%TO.P,U4,29,IO36_29*%
%TO.N,unconnected-(U4-IO36-Pad29)*%
X235850000Y-104000000D03*
%TO.P,U4,28,IO35_28*%
%TO.N,unconnected-(U4-IO35-Pad28)*%
X235850000Y-105270000D03*
%TO.P,U4,27,IO0_27*%
%TO.N,Net-(U4-IO0)*%
X235850000Y-106540000D03*
D13*
%TO.P,U4,26,IO45_26*%
%TO.N,BUZZER*%
X234085000Y-107790000D03*
%TO.P,U4,25,IO48_25*%
%TO.N,SDA2*%
X232815000Y-107790000D03*
%TO.P,U4,24,IO47_24*%
%TO.N,SCL2*%
X231545000Y-107790000D03*
%TO.P,U4,23,IO21_23*%
%TO.N,unconnected-(U4-IO21-Pad23)*%
X230275000Y-107790000D03*
%TO.P,U4,22,IO14_22*%
%TO.N,unconnected-(U4-IO14-Pad22)*%
X229005000Y-107790000D03*
%TO.P,U4,21,IO13_21*%
%TO.N,unconnected-(U4-IO13-Pad21)*%
X227735000Y-107790000D03*
%TO.P,U4,20,IO12_20*%
%TO.N,unconnected-(U4-IO12-Pad20)*%
X226465000Y-107790000D03*
%TO.P,U4,19,IO11_19*%
%TO.N,unconnected-(U4-IO11-Pad19)*%
X225195000Y-107790000D03*
%TO.P,U4,18,IO10_18*%
%TO.N,unconnected-(U4-IO10-Pad18)*%
X223925000Y-107790000D03*
%TO.P,U4,17,IO9_17*%
%TO.N,SDA1*%
X222655000Y-107790000D03*
%TO.P,U4,16,IO46_16*%
%TO.N,SCL1*%
X221385000Y-107790000D03*
%TO.P,U4,15,IO3_15*%
%TO.N,LIGHT*%
X220115000Y-107790000D03*
D12*
%TO.P,U4,14,USB_D+_14*%
%TO.N,Net-(U4-USB_D+)*%
X218350000Y-106540000D03*
%TO.P,U4,13,USB_D-_13*%
%TO.N,Net-(U4-USB_D-)*%
X218350000Y-105270000D03*
%TO.P,U4,12,IO8_12*%
%TO.N,unconnected-(U4-IO8-Pad12)*%
X218350000Y-104000000D03*
%TO.P,U4,11,IO18_11*%
%TO.N,unconnected-(U4-IO18-Pad11)*%
X218350000Y-102730000D03*
%TO.P,U4,10,IO17_10*%
%TO.N,unconnected-(U4-IO17-Pad10)*%
X218350000Y-101460000D03*
%TO.P,U4,9,IO16_9*%
%TO.N,unconnected-(U4-IO16-Pad9)*%
X218350000Y-100190000D03*
%TO.P,U4,8,IO15_8*%
%TO.N,unconnected-(U4-IO15-Pad8)*%
X218350000Y-98920000D03*
%TO.P,U4,7,IO7_7*%
%TO.N,unconnected-(U4-IO7-Pad7)*%
X218350000Y-97650000D03*
%TO.P,U4,6,IO6_6*%
%TO.N,unconnected-(U4-IO6-Pad6)*%
X218350000Y-96380000D03*
%TO.P,U4,5,IO5_5*%
%TO.N,unconnected-(U4-IO5-Pad5)*%
X218350000Y-95110000D03*
%TO.P,U4,4,IO4_4*%
%TO.N,unconnected-(U4-IO4-Pad4)*%
X218350000Y-93840000D03*
%TO.P,U4,3,EN_3*%
%TO.N,Net-(U4-EN)*%
X218350000Y-92570000D03*
%TO.P,U4,2,3V3_2*%
%TO.N,+3V3*%
X218350000Y-91300000D03*
%TO.P,U4,1,GND_1*%
%TO.N,GND*%
X218350000Y-90030000D03*
%TD*%
D14*
%TO.P,U2,1,VIN_1*%
%TO.N,+BATT*%
X236037500Y-82187500D03*
D15*
%TO.P,U2,2,SW_2*%
%TO.N,unconnected-(U2-SW-Pad2)*%
X236250000Y-84175000D03*
D16*
%TO.P,U2,3,VOUT_3*%
%TO.N,Net-(J4-Pin_2)*%
X238150000Y-84175000D03*
D17*
%TO.P,U2,4,PGND_4*%
%TO.N,GND*%
X238362500Y-82187500D03*
D18*
%TO.P,U2,5,PG_5*%
%TO.N,unconnected-(U2-PG-Pad5)*%
X237700000Y-81600000D03*
%TO.P,U2,6,EN_6*%
%TO.N,Net-(U2-EN)*%
X237200000Y-81600000D03*
%TO.P,U2,7,FB_7*%
%TO.N,Net-(U2-FB)*%
X236700000Y-81600000D03*
%TD*%
D14*
%TO.P,U1,1,VIN_1*%
%TO.N,+BATT*%
X213025000Y-82187500D03*
D15*
%TO.P,U1,2,SW_2*%
%TO.N,unconnected-(U1-SW-Pad2)*%
X213237500Y-84175000D03*
D16*
%TO.P,U1,3,VOUT_3*%
%TO.N,+3V3*%
X215137500Y-84175000D03*
D17*
%TO.P,U1,4,PGND_4*%
%TO.N,GND*%
X215350000Y-82187500D03*
D18*
%TO.P,U1,5,PG_5*%
%TO.N,unconnected-(U1-PG-Pad5)*%
X214687500Y-81600000D03*
%TO.P,U1,6,EN_6*%
%TO.N,Net-(U1-EN)*%
X214187500Y-81600000D03*
%TO.P,U1,7,FB_7*%
%TO.N,Net-(U1-FB)*%
X213687500Y-81600000D03*
%TD*%
D19*
%TO.P,D1,1,K_1*%
%TO.N,GND*%
X231500000Y-76962500D03*
%TO.P,D1,2,A_2*%
%TO.N,Net-(D1-A)*%
X231500000Y-75387500D03*
%TD*%
%TO.P,D3,2,A_2*%
%TO.N,Net-(D3-A)*%
X240000000Y-92002500D03*
%TO.P,D3,1,K_1*%
%TO.N,GND*%
X240000000Y-93577500D03*
%TD*%
D20*
%TO.P,Q1,1,G_1*%
%TO.N,LIGHT*%
X214437500Y-111200000D03*
%TO.P,Q1,2,S_2*%
%TO.N,GND*%
X214437500Y-109300000D03*
%TO.P,Q1,3,D_3*%
%TO.N,Net-(J6-Pin_1)*%
X212562500Y-110250000D03*
%TD*%
D21*
%TO.P,C14,1*%
%TO.N,+3V3*%
X211000000Y-88475000D03*
%TO.P,C14,2*%
%TO.N,GND*%
X211000000Y-90025000D03*
%TD*%
%TO.P,C4,1*%
%TO.N,Net-(U1-FB)*%
X218500000Y-85000000D03*
%TO.P,C4,2*%
%TO.N,+3V3*%
X218500000Y-86550000D03*
%TD*%
D22*
%TO.P,R16,1*%
%TO.N,Net-(J4-Pin_2)*%
X240000000Y-88715000D03*
%TO.P,R16,2*%
%TO.N,Net-(D3-A)*%
X240000000Y-90365000D03*
%TD*%
D21*
%TO.P,C2,1*%
%TO.N,+BATT*%
X204887500Y-84662500D03*
%TO.P,C2,2*%
%TO.N,GND*%
X204887500Y-86212500D03*
%TD*%
D22*
%TO.P,R11,1*%
%TO.N,Net-(J3-CC2)*%
X202000000Y-104925000D03*
%TO.P,R11,2*%
%TO.N,GND*%
X202000000Y-106575000D03*
%TD*%
D21*
%TO.P,C3,1*%
%TO.N,Net-(U1-EN)*%
X218500000Y-81725000D03*
%TO.P,C3,2*%
%TO.N,GND*%
X218500000Y-83275000D03*
%TD*%
D22*
%TO.P,R7,1*%
%TO.N,Net-(U2-EN)*%
X240250000Y-75425000D03*
%TO.P,R7,2*%
%TO.N,GND*%
X240250000Y-77075000D03*
%TD*%
D21*
%TO.P,C5,1*%
%TO.N,GND*%
X227137500Y-84975000D03*
%TO.P,C5,2*%
%TO.N,+3V3*%
X227137500Y-86525000D03*
%TD*%
%TO.P,C13,1*%
%TO.N,+3V3*%
X215000000Y-88475000D03*
%TO.P,C13,2*%
%TO.N,GND*%
X215000000Y-90025000D03*
%TD*%
%TO.P,C12,1*%
%TO.N,GND*%
X215000000Y-92975000D03*
%TO.P,C12,2*%
%TO.N,Net-(U4-EN)*%
X215000000Y-94525000D03*
%TD*%
D22*
%TO.P,R3,1*%
%TO.N,Net-(U1-EN)*%
X209387500Y-84612500D03*
%TO.P,R3,2*%
%TO.N,GND*%
X209387500Y-86262500D03*
%TD*%
D23*
%TO.P,R1,1*%
%TO.N,+3V3*%
X214925000Y-114500000D03*
%TO.P,R1,2*%
%TO.N,SCL1*%
X216575000Y-114500000D03*
%TD*%
D22*
%TO.P,R8,1*%
%TO.N,Net-(U2-FB)*%
X250500000Y-83425000D03*
%TO.P,R8,2*%
%TO.N,Net-(J4-Pin_2)*%
X250500000Y-85075000D03*
%TD*%
%TO.P,R20,1*%
%TO.N,BUZZER*%
X237750000Y-109925000D03*
%TO.P,R20,2*%
%TO.N,GND*%
X237750000Y-111575000D03*
%TD*%
%TO.P,R6,1*%
%TO.N,+BATT*%
X240250000Y-72100000D03*
%TO.P,R6,2*%
%TO.N,Net-(U2-EN)*%
X240250000Y-73750000D03*
%TD*%
D24*
%TO.P,BOOT1,1,1_1*%
%TO.N,Net-(U4-IO0)*%
X254500000Y-101750000D03*
X248200000Y-101750000D03*
%TO.P,BOOT1,2,2_2*%
%TO.N,GND*%
X254500000Y-97950000D03*
X248200000Y-97950000D03*
%TD*%
D21*
%TO.P,C6,1*%
%TO.N,+BATT*%
X235750000Y-75400000D03*
%TO.P,C6,2*%
%TO.N,GND*%
X235750000Y-76950000D03*
%TD*%
D25*
%TO.P,Q2,1,G_1*%
%TO.N,BUZZER*%
X247312500Y-105050000D03*
%TO.P,Q2,2,S_2*%
%TO.N,GND*%
X247312500Y-106950000D03*
%TO.P,Q2,3,D_3*%
%TO.N,Net-(Q2-D)*%
X249187500Y-106000000D03*
%TD*%
D22*
%TO.P,R12,1*%
%TO.N,+3V3*%
X211000000Y-92925000D03*
%TO.P,R12,2*%
%TO.N,Net-(U4-EN)*%
X211000000Y-94575000D03*
%TD*%
%TO.P,R2,1*%
%TO.N,+BATT*%
X209387500Y-81112500D03*
%TO.P,R2,2*%
%TO.N,Net-(U1-EN)*%
X209387500Y-82762500D03*
%TD*%
D26*
%TO.P,J7,1,Pin_1_1*%
%TO.N,GND*%
X212500000Y-76000000D03*
D27*
%TO.P,J7,2,Pin_2_2*%
%TO.N,Net-(J1-Pin_2)*%
X217500000Y-76000000D03*
%TD*%
D28*
%TO.P,J1,1,Pin_1_1*%
%TO.N,+BATT*%
X226250000Y-76250000D03*
D29*
%TO.P,J1,2,Pin_2_2*%
%TO.N,Net-(J1-Pin_2)*%
X223750000Y-76250000D03*
%TD*%
D21*
%TO.P,C10,1*%
%TO.N,GND*%
X241750000Y-83475000D03*
%TO.P,C10,2*%
%TO.N,Net-(J4-Pin_2)*%
X241750000Y-85025000D03*
%TD*%
D22*
%TO.P,R14,1*%
%TO.N,+BATT*%
X231500000Y-72100000D03*
%TO.P,R14,2*%
%TO.N,Net-(D1-A)*%
X231500000Y-73750000D03*
%TD*%
%TO.P,R4,1*%
%TO.N,Net-(U1-FB)*%
X222887500Y-84925000D03*
%TO.P,R4,2*%
%TO.N,+3V3*%
X222887500Y-86575000D03*
%TD*%
D21*
%TO.P,C1,1*%
%TO.N,GND*%
X204887500Y-81162500D03*
%TO.P,C1,2*%
%TO.N,+BATT*%
X204887500Y-82712500D03*
%TD*%
D30*
%TO.P,J3,A1,GND_A1*%
%TO.N,GND*%
X204552462Y-94550032D03*
D31*
%TO.P,J3,A4,VBUS_A4*%
%TO.N,/USB_VBUS_UNUSED*%
X204552476Y-95349606D03*
D32*
%TO.P,J3,A5,CC1_A5*%
%TO.N,Net-(J3-CC1)*%
X204430000Y-96500000D03*
%TO.P,J3,A6,D+_A6*%
%TO.N,Net-(U4-USB_D+)*%
X204430000Y-97500000D03*
%TO.P,J3,A7,D-_A7*%
%TO.N,Net-(U4-USB_D-)*%
X204430000Y-98000000D03*
%TO.P,J3,A8,SBU1_A8*%
%TO.N,unconnected-(J3-SBU1-PadA8)*%
X204430000Y-99000000D03*
D33*
%TO.P,J3,A9,VBUS_A9*%
%TO.N,/USB_VBUS_UNUSED*%
X204552500Y-100150000D03*
D34*
%TO.P,J3,A12,GND_A12*%
%TO.N,GND*%
X204552497Y-100950000D03*
D35*
%TO.P,J3,B1,GND_B1*%
X204552498Y-100950000D03*
D31*
%TO.P,J3,B4,VBUS_B4*%
%TO.N,/USB_VBUS_UNUSED*%
X204552499Y-100150000D03*
D32*
%TO.P,J3,B5,CC2_B5*%
%TO.N,Net-(J3-CC2)*%
X204430000Y-99500000D03*
%TO.P,J3,B6,D+_B6*%
%TO.N,Net-(U4-USB_D+)*%
X204430000Y-98500000D03*
%TO.P,J3,B7,D-_B7*%
%TO.N,Net-(U4-USB_D-)*%
X204430000Y-97000000D03*
%TO.P,J3,B8,SBU2_B8*%
%TO.N,unconnected-(J3-SBU2-PadB8)*%
X204430000Y-96000000D03*
D33*
%TO.P,J3,B9,VBUS_B9*%
%TO.N,/USB_VBUS_UNUSED*%
X204552500Y-95350000D03*
D35*
%TO.P,J3,B12,GND_B12*%
%TO.N,GND*%
X204552498Y-94550001D03*
D36*
%TO.P,J3,SH,SHIELD_SH*%
X203855000Y-93430000D03*
D37*
X199675000Y-93430000D03*
D36*
X203855000Y-102070000D03*
D37*
X199675000Y-102070000D03*
%TD*%
D22*
%TO.P,R9,1*%
%TO.N,GND*%
X244750000Y-79675000D03*
%TO.P,R9,2*%
%TO.N,Net-(U2-FB)*%
X244750000Y-81325000D03*
%TD*%
%TO.P,R15,1*%
%TO.N,Net-(D2-A)*%
X231387500Y-84925000D03*
%TO.P,R15,2*%
%TO.N,+3V3*%
X231387500Y-86575000D03*
%TD*%
D38*
%TO.P,D2,1,K_1*%
%TO.N,GND*%
X231387500Y-81712500D03*
%TO.P,D2,2,A_2*%
%TO.N,Net-(D2-A)*%
X231387500Y-83287500D03*
%TD*%
D39*
%TO.P,J2,1,Pin_1_1*%
%TO.N,Net-(J2-Pin_1)*%
X240000000Y-104500000D03*
D40*
%TO.P,J2,2,Pin_2_2*%
%TO.N,Net-(J2-Pin_2)*%
X240000000Y-101960000D03*
%TO.P,J2,3,Pin_3_3*%
%TO.N,Net-(J2-Pin_3)*%
X240000000Y-99420000D03*
%TO.P,J2,4,Pin_4_4*%
%TO.N,Net-(J2-Pin_4)*%
X240000000Y-96880000D03*
%TD*%
D41*
%TO.P,J4,1,Pin_1_1*%
%TO.N,GND*%
X251000000Y-92250000D03*
D42*
%TO.P,J4,2,Pin_2_2*%
%TO.N,Net-(J4-Pin_2)*%
X248500000Y-92250000D03*
%TO.P,J4,3,Pin_3_3*%
%TO.N,SERVO*%
X246000000Y-92250000D03*
%TD*%
D41*
%TO.P,J9,1,Pin_1_1*%
%TO.N,GND*%
X237500000Y-120500000D03*
D42*
%TO.P,J9,2,Pin_2_2*%
%TO.N,SDA2*%
X235000000Y-120500000D03*
%TO.P,J9,3,Pin_3_3*%
%TO.N,SCL2*%
X232500000Y-120500000D03*
%TO.P,J9,4,Pin_4_4*%
%TO.N,+3V3*%
X230000000Y-120500000D03*
%TD*%
D43*
%TO.P,LS1,N*%
%TO.N,Net-(Q2-D)*%
X248201500Y-113625000D03*
%TO.P,LS1,P*%
%TO.N,+3V3*%
X244201500Y-113625000D03*
%TD*%
D21*
%TO.P,C7,1*%
%TO.N,GND*%
X235750000Y-72150000D03*
%TO.P,C7,2*%
%TO.N,+BATT*%
X235750000Y-73700000D03*
%TD*%
%TO.P,C8,1*%
%TO.N,Net-(U2-EN)*%
X244250000Y-75475000D03*
%TO.P,C8,2*%
%TO.N,GND*%
X244250000Y-77025000D03*
%TD*%
D23*
%TO.P,R18,1*%
%TO.N,SDA2*%
X235175000Y-114500000D03*
%TO.P,R18,2*%
%TO.N,+3V3*%
X236825000Y-114500000D03*
%TD*%
%TO.P,R19,1*%
%TO.N,+3V3*%
X230425000Y-114500000D03*
%TO.P,R19,2*%
%TO.N,SCL2*%
X232075000Y-114500000D03*
%TD*%
D41*
%TO.P,J5,1,Pin_1_1*%
%TO.N,GND*%
X221750000Y-120500000D03*
D42*
%TO.P,J5,2,Pin_2_2*%
%TO.N,SDA1*%
X219250000Y-120500000D03*
%TO.P,J5,3,Pin_3_3*%
%TO.N,SCL1*%
X216750000Y-120500000D03*
%TO.P,J5,4,Pin_4_4*%
%TO.N,+3V3*%
X214250000Y-120500000D03*
%TD*%
D22*
%TO.P,R10,1*%
%TO.N,GND*%
X202000000Y-89425000D03*
%TO.P,R10,2*%
%TO.N,Net-(J3-CC1)*%
X202000000Y-91075000D03*
%TD*%
%TO.P,R5,1*%
%TO.N,GND*%
X222887500Y-81675000D03*
%TO.P,R5,2*%
%TO.N,Net-(U1-FB)*%
X222887500Y-83325000D03*
%TD*%
D21*
%TO.P,C9,1*%
%TO.N,Net-(U2-FB)*%
X246000000Y-83475000D03*
%TO.P,C9,2*%
%TO.N,Net-(J4-Pin_2)*%
X246000000Y-85025000D03*
%TD*%
D24*
%TO.P,ENABLE1,1,1_1*%
%TO.N,GND*%
X215750000Y-102000000D03*
X209450000Y-102000000D03*
%TO.P,ENABLE1,2,2_2*%
%TO.N,Net-(U4-EN)*%
X215750000Y-98200000D03*
X209450000Y-98200000D03*
%TD*%
D28*
%TO.P,J6,1,Pin_1_1*%
%TO.N,Net-(J6-Pin_1)*%
X208250000Y-111500000D03*
D29*
%TO.P,J6,2,Pin_2_2*%
%TO.N,+3V3*%
X205750000Y-111500000D03*
%TD*%
D22*
%TO.P,R17,1*%
%TO.N,LIGHT*%
X218000000Y-109925000D03*
%TO.P,R17,2*%
%TO.N,GND*%
X218000000Y-111575000D03*
%TD*%
D23*
%TO.P,R13,1*%
%TO.N,SDA1*%
X219675000Y-114500000D03*
%TO.P,R13,2*%
%TO.N,+3V3*%
X221325000Y-114500000D03*
%TD*%
D44*
%TO.N,GND*%
X237000000Y-77000000D03*
X213500000Y-93000000D03*
X215000000Y-91250000D03*
X219500000Y-83250000D03*
X210500000Y-86250000D03*
X224000000Y-81750000D03*
X227000000Y-84000000D03*
X231500000Y-78250000D03*
X241750000Y-82500000D03*
X231500000Y-80500000D03*
X238750000Y-93500000D03*
X251000000Y-94250000D03*
X249750000Y-98000000D03*
X237750000Y-113000000D03*
X216000000Y-109250000D03*
X214250000Y-102000000D03*
X211250000Y-102000000D03*
X210250000Y-91250000D03*
X220000000Y-69750000D03*
X235250000Y-70000000D03*
X242500000Y-73250000D03*
X247250000Y-77250000D03*
X252000000Y-83250000D03*
X254750000Y-89500000D03*
X256000000Y-96250000D03*
X254000000Y-107750000D03*
X248750000Y-116750000D03*
X242750000Y-122000000D03*
X231500000Y-126500000D03*
X222000000Y-126500000D03*
X210250000Y-121500000D03*
X203750000Y-115250000D03*
X200000000Y-106750000D03*
X199250000Y-89250000D03*
X203250000Y-81000000D03*
X209000000Y-75500000D03*
X212750000Y-72500000D03*
%TO.N,Net-(U1-EN)*%
X215250000Y-80850000D03*
X210500000Y-82500000D03*
%TO.N,GND*%
X217250000Y-112250000D03*
X216500000Y-82250000D03*
X204552498Y-100950000D03*
X204552498Y-94549606D03*
X239250000Y-82250000D03*
%TO.N,Net-(U2-FB)*%
X236500000Y-80750000D03*
X238500000Y-80750000D03*
%TO.N,Net-(U4-USB_D-)*%
X206750000Y-98500000D03*
X212000000Y-103750000D03*
%TO.N,Net-(U4-USB_D+)*%
X206000000Y-99250000D03*
X211250000Y-104750000D03*
%TD*%
%TO.N,Net-(U1-EN)*%
D45*
X214187500Y-81293640D02*
X214187500Y-81600000D01*
X214631140Y-80850000D02*
X214187500Y-81293640D01*
X215250000Y-80850000D02*
X214631140Y-80850000D01*
X217625000Y-80850000D02*
X215250000Y-80850000D01*
X218500000Y-81725000D02*
X217625000Y-80850000D01*
X210237500Y-82762500D02*
X210500000Y-82500000D01*
X209387500Y-82762500D02*
X210237500Y-82762500D01*
%TO.N,GND*%
X217925000Y-111575000D02*
X217250000Y-112250000D01*
X218000000Y-111575000D02*
X217925000Y-111575000D01*
%TO.N,SCL1*%
X221385000Y-109690000D02*
X221385000Y-107790000D01*
X216575000Y-114500000D02*
X221385000Y-109690000D01*
%TO.N,SDA1*%
X222655000Y-111520000D02*
X222655000Y-107790000D01*
X219675000Y-114500000D02*
X222655000Y-111520000D01*
%TO.N,Net-(U4-IO0)*%
X254500000Y-101750000D02*
X248200000Y-101750000D01*
%TO.N,GND*%
D46*
X216437500Y-82187500D02*
X216500000Y-82250000D01*
X215350000Y-82187500D02*
X216437500Y-82187500D01*
%TO.N,Net-(J3-CC1)*%
D45*
X203575000Y-91075000D02*
X206500000Y-94000000D01*
X206500000Y-94000000D02*
X206500000Y-95037410D01*
X205037410Y-96500000D02*
X204430000Y-96500000D01*
X202000000Y-91075000D02*
X203575000Y-91075000D01*
X206500000Y-95037410D02*
X205037410Y-96500000D01*
%TO.N,GND*%
X204552497Y-100950000D02*
X204552498Y-100950000D01*
X204552462Y-94550032D02*
X204552462Y-94549642D01*
X204552462Y-94549642D02*
X204552498Y-94549606D01*
D46*
X239187500Y-82187500D02*
X239250000Y-82250000D01*
X238362500Y-82187500D02*
X239187500Y-82187500D01*
%TO.N,Net-(U1-FB)*%
D45*
X214500000Y-80250000D02*
X213687500Y-81062500D01*
X213687500Y-81062500D02*
X213687500Y-81612500D01*
X219812500Y-80250000D02*
X214500000Y-80250000D01*
X222887500Y-83325000D02*
X219812500Y-80250000D01*
%TO.N,+BATT*%
D47*
X230900000Y-72100000D02*
X231500000Y-72100000D01*
X226750000Y-76250000D02*
X230900000Y-72100000D01*
X226250000Y-76250000D02*
X226750000Y-76250000D01*
%TO.N,Net-(J4-Pin_2)*%
X248500000Y-86525000D02*
X248500000Y-92250000D01*
X250000000Y-85025000D02*
X250450000Y-85025000D01*
X250000000Y-85025000D02*
X248500000Y-86525000D01*
%TO.N,Net-(U4-EN)*%
D45*
X216955000Y-92570000D02*
X218350000Y-92570000D01*
X215000000Y-94525000D02*
X216955000Y-92570000D01*
X211675000Y-94575000D02*
X211725000Y-94525000D01*
X211725000Y-94525000D02*
X215000000Y-94525000D01*
X211000000Y-94575000D02*
X211675000Y-94575000D01*
X209450000Y-98200000D02*
X209450000Y-96125000D01*
X209450000Y-96125000D02*
X211000000Y-94575000D01*
X215750000Y-98200000D02*
X209450000Y-98200000D01*
%TO.N,Net-(U2-FB)*%
X250450000Y-83475000D02*
X250500000Y-83425000D01*
X246000000Y-83475000D02*
X250450000Y-83475000D01*
%TO.N,BUZZER*%
X242437500Y-109925000D02*
X247312500Y-105050000D01*
X237750000Y-109925000D02*
X242437500Y-109925000D01*
X235615000Y-107790000D02*
X237750000Y-109925000D01*
X234085000Y-107790000D02*
X235615000Y-107790000D01*
%TO.N,LIGHT*%
X218000000Y-109905000D02*
X220115000Y-107790000D01*
X218000000Y-109925000D02*
X218000000Y-109905000D01*
X216725000Y-111200000D02*
X218000000Y-109925000D01*
X214437500Y-111200000D02*
X216725000Y-111200000D01*
%TO.N,+BATT*%
D47*
X234575000Y-76100000D02*
X234575000Y-80847046D01*
X235750000Y-75400000D02*
X235275000Y-75400000D01*
X235275000Y-75400000D02*
X234575000Y-76100000D01*
X234575000Y-80847046D02*
X235976477Y-82248523D01*
X231500000Y-72100000D02*
X233700000Y-72100000D01*
X235300000Y-73700000D02*
X235750000Y-73700000D01*
X233700000Y-72100000D02*
X235300000Y-73700000D01*
%TO.N,+3V3*%
D46*
X207500000Y-109750000D02*
X205750000Y-111500000D01*
X207500000Y-96425000D02*
X207500000Y-109750000D01*
X211337500Y-92587500D02*
X207500000Y-96425000D01*
X211337500Y-92587500D02*
X211000000Y-92925000D01*
X215137500Y-84637500D02*
X215137500Y-84175000D01*
X217050000Y-86550000D02*
X215137500Y-84637500D01*
X217250000Y-86550000D02*
X217050000Y-86550000D01*
X217250000Y-86550000D02*
X216925000Y-86550000D01*
X212750000Y-91175000D02*
X211337500Y-92587500D01*
X212750000Y-88475000D02*
X212750000Y-91175000D01*
X212750000Y-88475000D02*
X211000000Y-88475000D01*
X217520000Y-91300000D02*
X218350000Y-91300000D01*
X217150000Y-90625000D02*
X217150000Y-90930000D01*
X215000000Y-88475000D02*
X217150000Y-90625000D01*
X217150000Y-90930000D02*
X217520000Y-91300000D01*
X215000000Y-88475000D02*
X212750000Y-88475000D01*
X216925000Y-86550000D02*
X215000000Y-88475000D01*
X217500000Y-86550000D02*
X217250000Y-86550000D01*
X227137500Y-86525000D02*
X231337500Y-86525000D01*
X231337500Y-86525000D02*
X231387500Y-86575000D01*
X227087500Y-86575000D02*
X227137500Y-86525000D01*
X222887500Y-86575000D02*
X227087500Y-86575000D01*
X222862500Y-86550000D02*
X222887500Y-86575000D01*
X218500000Y-86550000D02*
X222862500Y-86550000D01*
X217500000Y-86550000D02*
X218500000Y-86550000D01*
%TO.N,Net-(U2-EN)*%
D45*
X237200000Y-78475000D02*
X237200000Y-81600000D01*
X240250000Y-75425000D02*
X237200000Y-78475000D01*
%TO.N,Net-(U2-FB)*%
X236500000Y-81400000D02*
X236700000Y-81600000D01*
X236500000Y-80750000D02*
X236500000Y-81400000D01*
%TO.N,Net-(J4-Pin_2)*%
D47*
X238150000Y-86865000D02*
X240000000Y-88715000D01*
X238150000Y-84175000D02*
X238150000Y-86865000D01*
X239000000Y-85025000D02*
X238150000Y-84175000D01*
X241750000Y-85025000D02*
X239000000Y-85025000D01*
%TO.N,Net-(J6-Pin_1)*%
D45*
X208250000Y-111500000D02*
X211312500Y-111500000D01*
X211312500Y-111500000D02*
X212562500Y-110250000D01*
%TO.N,+3V3*%
D46*
X243326500Y-114500000D02*
X244201500Y-113625000D01*
X239250000Y-123000000D02*
X241250000Y-121000000D01*
X214925000Y-119825000D02*
X214250000Y-120500000D01*
X230000000Y-120500000D02*
X227325000Y-120500000D01*
X239750000Y-114500000D02*
X243326500Y-114500000D01*
X214250000Y-120500000D02*
X215675000Y-121925000D01*
X230000000Y-114925000D02*
X230425000Y-114500000D01*
X228575000Y-121925000D02*
X230000000Y-120500000D01*
X241250000Y-121000000D02*
X241250000Y-116000000D01*
X205750000Y-111500000D02*
X208750000Y-114500000D01*
X232500000Y-123000000D02*
X239250000Y-123000000D01*
X215675000Y-121925000D02*
X228575000Y-121925000D01*
X227325000Y-120500000D02*
X221325000Y-114500000D01*
X230000000Y-120500000D02*
X232500000Y-123000000D01*
X214925000Y-114500000D02*
X214925000Y-119825000D01*
X241250000Y-116000000D02*
X239750000Y-114500000D01*
X230000000Y-120500000D02*
X230000000Y-114925000D01*
X239750000Y-114500000D02*
X236825000Y-114500000D01*
X208750000Y-114500000D02*
X214925000Y-114500000D01*
%TO.N,Net-(U1-FB)*%
D45*
X222887500Y-84925000D02*
X222887500Y-83325000D01*
X222812500Y-85000000D02*
X222887500Y-84925000D01*
X218500000Y-85000000D02*
X222812500Y-85000000D01*
%TO.N,Net-(D3-A)*%
X240000000Y-90365000D02*
X240000000Y-92002500D01*
%TO.N,Net-(J4-Pin_2)*%
D47*
X241750000Y-85025000D02*
X246000000Y-85025000D01*
X246000000Y-85025000D02*
X250000000Y-85025000D01*
D45*
X250450000Y-85025000D02*
X250500000Y-85075000D01*
%TO.N,+BATT*%
D47*
X235750000Y-75400000D02*
X239050000Y-72100000D01*
X206726882Y-81112500D02*
X205126882Y-82712500D01*
X223250000Y-79250000D02*
X211250000Y-79250000D01*
X209387500Y-81112500D02*
X211815454Y-81112500D01*
X239050000Y-72100000D02*
X240250000Y-72100000D01*
X211815454Y-81112500D02*
X212963977Y-82261023D01*
X235750000Y-73700000D02*
X235750000Y-75400000D01*
X204887500Y-82712500D02*
X204887500Y-84662500D01*
X211250000Y-79250000D02*
X209387500Y-81112500D01*
X205126882Y-82712500D02*
X204887500Y-82712500D01*
X226250000Y-76250000D02*
X223250000Y-79250000D01*
X209387500Y-81112500D02*
X206726882Y-81112500D01*
%TO.N,Net-(J3-CC2)*%
D45*
X205305000Y-99800001D02*
X205305000Y-102695000D01*
X205305000Y-102695000D02*
X203075000Y-104925000D01*
X204430000Y-99500000D02*
X205004999Y-99500000D01*
X203075000Y-104925000D02*
X202000000Y-104925000D01*
X205004999Y-99500000D02*
X205305000Y-99800001D01*
%TO.N,Net-(U1-EN)*%
X209387500Y-82762500D02*
X209387500Y-84612500D01*
%TO.N,Net-(U2-EN)*%
X240250000Y-73750000D02*
X240250000Y-75425000D01*
X244200000Y-75425000D02*
X244250000Y-75475000D01*
X240250000Y-75425000D02*
X244200000Y-75425000D01*
%TO.N,Net-(U2-FB)*%
X246000000Y-83475000D02*
X246000000Y-82575000D01*
X246000000Y-82575000D02*
X244750000Y-81325000D01*
X244750000Y-81325000D02*
X239075000Y-81325000D01*
X239075000Y-81325000D02*
X238500000Y-80750000D01*
%TO.N,SCL1*%
X216750000Y-114675000D02*
X216575000Y-114500000D01*
X216750000Y-120500000D02*
X216750000Y-114675000D01*
%TO.N,Net-(U4-IO0)*%
X235850000Y-106540000D02*
X243410000Y-106540000D01*
X243410000Y-106540000D02*
X248200000Y-101750000D01*
%TO.N,SDA1*%
X219250000Y-120500000D02*
X219250000Y-114925000D01*
X219250000Y-114925000D02*
X219675000Y-114500000D01*
%TO.N,SCL2*%
X232075000Y-114500000D02*
X231545000Y-113970000D01*
X232500000Y-114925000D02*
X232075000Y-114500000D01*
X232500000Y-120500000D02*
X232500000Y-114925000D01*
X231545000Y-113970000D02*
X231545000Y-107790000D01*
%TO.N,SDA2*%
X232815000Y-112140000D02*
X232815000Y-107790000D01*
X235000000Y-120500000D02*
X235000000Y-114675000D01*
X235000000Y-114675000D02*
X235175000Y-114500000D01*
X235175000Y-114500000D02*
X232815000Y-112140000D01*
%TO.N,Net-(U4-USB_D-)*%
X204430000Y-97000000D02*
X205037410Y-97000000D01*
X212000000Y-103750000D02*
X213520000Y-105270000D01*
X205982410Y-97732410D02*
X206750000Y-98500000D01*
X213520000Y-105270000D02*
X218350000Y-105270000D01*
X205305000Y-97267590D02*
X205305000Y-97500000D01*
X205305000Y-97732410D02*
X205982410Y-97732410D01*
X205037410Y-98000000D02*
X204430000Y-98000000D01*
X205305000Y-97732410D02*
X205037410Y-98000000D01*
X205037410Y-97000000D02*
X205305000Y-97267590D01*
X205305000Y-97500000D02*
X205305000Y-97732410D01*
%TO.N,Net-(U4-USB_D+)*%
X203555000Y-98232410D02*
X203822590Y-98500000D01*
X211250000Y-104750000D02*
X213040000Y-106540000D01*
X204430000Y-97500000D02*
X203822590Y-97500000D01*
X205250000Y-98500000D02*
X206000000Y-99250000D01*
X203555000Y-97767590D02*
X203555000Y-98232410D01*
X204430000Y-98500000D02*
X205250000Y-98500000D01*
X203822590Y-98500000D02*
X204430000Y-98500000D01*
X203822590Y-97500000D02*
X203555000Y-97767590D01*
X213040000Y-106540000D02*
X218350000Y-106540000D01*
%TO.N,SERVO*%
X238250000Y-95000000D02*
X243250000Y-95000000D01*
X236870000Y-96380000D02*
X238250000Y-95000000D01*
X235850000Y-96380000D02*
X236870000Y-96380000D01*
X243250000Y-95000000D02*
X246000000Y-92250000D01*
%TO.N,Net-(J1-Pin_2)*%
X223500000Y-76000000D02*
X223750000Y-76250000D01*
D47*
X217500000Y-76000000D02*
X223500000Y-76000000D01*
%TO.N,Net-(D1-A)*%
D45*
X231500000Y-73750000D02*
X231500000Y-75387500D01*
%TO.N,/USB_VBUS_UNUSED*%
X203900000Y-100150000D02*
X203155000Y-99405000D01*
X203972590Y-95350000D02*
X204552500Y-95350000D01*
X203155000Y-96167590D02*
X203972590Y-95350000D01*
X204552499Y-100150000D02*
X203900000Y-100150000D01*
X203155000Y-99405000D02*
X203155000Y-96167590D01*
%TO.N,Net-(D2-A)*%
X231387500Y-84925000D02*
X231387500Y-83287500D01*
%TO.N,Net-(Q2-D)*%
X249187500Y-112639000D02*
X249187500Y-106000000D01*
X248201500Y-113625000D02*
X249187500Y-112639000D01*
%TO.N,Net-(J2-Pin_3)*%
X235850000Y-98920000D02*
X239500000Y-98920000D01*
X239500000Y-98920000D02*
X240000000Y-99420000D01*
%TO.N,Net-(J2-Pin_1)*%
X235850000Y-101460000D02*
X236960000Y-101460000D01*
X236960000Y-101460000D02*
X240000000Y-104500000D01*
%TO.N,Net-(J2-Pin_4)*%
X235850000Y-97650000D02*
X239230000Y-97650000D01*
X239230000Y-97650000D02*
X240000000Y-96880000D01*
%TO.N,Net-(J2-Pin_2)*%
X238230000Y-100190000D02*
X240000000Y-101960000D01*
X235850000Y-100190000D02*
X238230000Y-100190000D01*
%TD*%
%TA.AperFunction,Conductor*%
%TO.N,GND*%
G36*
X227528748Y-68255277D02*
G01*
X228576733Y-68292707D01*
X228581146Y-68292943D01*
X229627158Y-68367756D01*
X229631464Y-68368141D01*
X230674196Y-68480246D01*
X230678552Y-68480793D01*
X231716543Y-68630034D01*
X231720886Y-68630737D01*
X232752922Y-68816938D01*
X232757223Y-68817794D01*
X233781924Y-69040704D01*
X233786207Y-69041716D01*
X234802314Y-69301062D01*
X234806531Y-69302219D01*
X235773841Y-69586246D01*
X235812739Y-69597668D01*
X235816965Y-69598991D01*
X236811953Y-69930155D01*
X236816055Y-69931601D01*
X237798688Y-70298105D01*
X237802730Y-70299695D01*
X238528149Y-70600173D01*
X238771597Y-70701013D01*
X238772587Y-70701810D01*
X238775655Y-70702780D01*
X239125845Y-70862706D01*
X239178649Y-70908460D01*
X239198334Y-70975500D01*
X239178650Y-71042539D01*
X239125846Y-71088294D01*
X239074334Y-71099500D01*
X238951455Y-71099500D01*
X238854812Y-71118724D01*
X238758167Y-71137947D01*
X238758161Y-71137949D01*
X238704834Y-71160037D01*
X238704834Y-71160038D01*
X238661918Y-71177814D01*
X238576084Y-71213368D01*
X238576083Y-71213368D01*
X238453045Y-71295579D01*
X238453046Y-71295580D01*
X238412218Y-71322859D01*
X238412217Y-71322861D01*
X236783859Y-72951219D01*
X236722536Y-72984704D01*
X236652844Y-72979720D01*
X236596911Y-72937848D01*
X236572494Y-72872384D01*
X236587346Y-72804111D01*
X236590640Y-72798440D01*
X236661544Y-72683488D01*
X236661547Y-72683481D01*
X236714855Y-72522606D01*
X236724999Y-72423322D01*
X236725000Y-72423309D01*
X236725000Y-72400000D01*
X235874000Y-72400000D01*
X235806961Y-72380315D01*
X235761206Y-72327511D01*
X235750000Y-72276000D01*
X235750000Y-72150000D01*
X235624000Y-72150000D01*
X235556961Y-72130315D01*
X235511206Y-72077511D01*
X235500000Y-72026000D01*
X235500000Y-71900000D01*
X236000000Y-71900000D01*
X236724999Y-71900000D01*
X236724999Y-71876692D01*
X236724998Y-71876677D01*
X236714855Y-71777392D01*
X236661547Y-71616518D01*
X236661542Y-71616507D01*
X236572575Y-71472271D01*
X236572572Y-71472267D01*
X236452732Y-71352427D01*
X236452728Y-71352424D01*
X236308492Y-71263457D01*
X236308481Y-71263452D01*
X236147606Y-71210144D01*
X236048322Y-71200000D01*
X236000000Y-71200000D01*
X236000000Y-71900000D01*
X235500000Y-71900000D01*
X235500000Y-71200000D01*
X235499999Y-71199999D01*
X235451693Y-71200000D01*
X235451675Y-71200001D01*
X235352392Y-71210144D01*
X235191518Y-71263452D01*
X235191507Y-71263457D01*
X235047271Y-71352424D01*
X235047267Y-71352427D01*
X234927426Y-71472268D01*
X234841804Y-71611082D01*
X234824512Y-71626634D01*
X234810576Y-71645251D01*
X234799024Y-71649559D01*
X234789856Y-71657806D01*
X234766901Y-71661540D01*
X234745112Y-71669668D01*
X234733062Y-71667046D01*
X234720893Y-71669027D01*
X234699564Y-71659759D01*
X234676839Y-71654816D01*
X234661140Y-71643064D01*
X234656811Y-71641183D01*
X234648585Y-71633665D01*
X234484209Y-71469289D01*
X234484207Y-71469286D01*
X234484206Y-71469285D01*
X234484206Y-71469286D01*
X234477139Y-71462219D01*
X234477139Y-71462218D01*
X234337782Y-71322861D01*
X234337781Y-71322860D01*
X234337780Y-71322859D01*
X234173920Y-71213371D01*
X234173911Y-71213366D01*
X234101315Y-71183296D01*
X234045165Y-71160038D01*
X233991836Y-71137949D01*
X233991832Y-71137948D01*
X233991828Y-71137946D01*
X233895188Y-71118724D01*
X233798544Y-71099500D01*
X233798541Y-71099500D01*
X231598541Y-71099500D01*
X230801459Y-71099500D01*
X230801455Y-71099500D01*
X230704812Y-71118724D01*
X230608167Y-71137947D01*
X230608161Y-71137949D01*
X230554834Y-71160037D01*
X230554834Y-71160038D01*
X230509315Y-71178892D01*
X230426089Y-71213366D01*
X230426079Y-71213371D01*
X230262219Y-71322859D01*
X230262218Y-71322861D01*
X226871897Y-74713181D01*
X226810574Y-74746666D01*
X226784216Y-74749500D01*
X225599998Y-74749500D01*
X225599981Y-74749501D01*
X225497203Y-74760000D01*
X225497200Y-74760001D01*
X225330668Y-74815185D01*
X225330663Y-74815187D01*
X225181342Y-74907289D01*
X225057289Y-75031342D01*
X224961821Y-75186121D01*
X224909873Y-75232845D01*
X224840910Y-75244068D01*
X224776828Y-75216224D01*
X224768601Y-75208705D01*
X224629786Y-75069890D01*
X224457820Y-74944951D01*
X224268414Y-74848444D01*
X224268413Y-74848443D01*
X224268412Y-74848443D01*
X224066243Y-74782754D01*
X224066241Y-74782753D01*
X224066240Y-74782753D01*
X223904957Y-74757208D01*
X223856287Y-74749500D01*
X223643713Y-74749500D01*
X223595042Y-74757208D01*
X223433760Y-74782753D01*
X223231585Y-74848444D01*
X223042185Y-74944948D01*
X223042183Y-74944949D01*
X222999694Y-74975819D01*
X222933887Y-74999298D01*
X222926810Y-74999500D01*
X219760452Y-74999500D01*
X219693413Y-74979815D01*
X219648733Y-74929303D01*
X219604284Y-74837003D01*
X219590575Y-74815186D01*
X219530520Y-74719609D01*
X219460838Y-74608711D01*
X219292734Y-74397915D01*
X219102085Y-74207266D01*
X218891289Y-74039162D01*
X218662997Y-73895716D01*
X218662994Y-73895714D01*
X218420082Y-73778734D01*
X218165602Y-73689687D01*
X218165594Y-73689684D01*
X217968446Y-73644687D01*
X217902732Y-73629688D01*
X217902728Y-73629687D01*
X217902719Y-73629686D01*
X217634813Y-73599500D01*
X217634809Y-73599500D01*
X217365191Y-73599500D01*
X217365186Y-73599500D01*
X217097280Y-73629686D01*
X217097268Y-73629688D01*
X216834405Y-73689684D01*
X216834397Y-73689687D01*
X216579917Y-73778734D01*
X216337005Y-73895714D01*
X216108712Y-74039161D01*
X215897915Y-74207265D01*
X215707265Y-74397915D01*
X215539161Y-74608712D01*
X215395714Y-74837005D01*
X215278734Y-75079917D01*
X215189687Y-75334397D01*
X215189684Y-75334405D01*
X215144891Y-75530660D01*
X215110782Y-75591638D01*
X215049121Y-75624496D01*
X214979484Y-75618801D01*
X214923980Y-75576361D01*
X214900232Y-75510651D01*
X214900000Y-75503067D01*
X214900000Y-74795293D01*
X214899999Y-74795280D01*
X214889517Y-74662093D01*
X214889516Y-74662087D01*
X214834101Y-74442170D01*
X214834100Y-74442167D01*
X214740304Y-74235669D01*
X214740301Y-74235663D01*
X214611148Y-74049241D01*
X214611138Y-74049229D01*
X214450770Y-73888861D01*
X214450758Y-73888851D01*
X214264336Y-73759698D01*
X214264330Y-73759695D01*
X214057832Y-73665899D01*
X214057829Y-73665898D01*
X213837912Y-73610483D01*
X213837906Y-73610482D01*
X213704719Y-73600000D01*
X212750000Y-73600000D01*
X212750000Y-74672768D01*
X212606247Y-74650000D01*
X212393753Y-74650000D01*
X212250000Y-74672768D01*
X212250000Y-73600000D01*
X211295280Y-73600000D01*
X211162093Y-73610482D01*
X211162087Y-73610483D01*
X210942170Y-73665898D01*
X210942167Y-73665899D01*
X210735669Y-73759695D01*
X210735663Y-73759698D01*
X210549241Y-73888851D01*
X210549229Y-73888861D01*
X210388861Y-74049229D01*
X210388851Y-74049241D01*
X210259698Y-74235663D01*
X210259695Y-74235669D01*
X210165899Y-74442167D01*
X210165898Y-74442170D01*
X210110483Y-74662087D01*
X210110482Y-74662093D01*
X210100000Y-74795280D01*
X210100000Y-75750000D01*
X211172769Y-75750000D01*
X211150000Y-75893753D01*
X211150000Y-76106247D01*
X211172769Y-76250000D01*
X210100000Y-76250000D01*
X210100000Y-77204719D01*
X210110482Y-77337906D01*
X210110483Y-77337912D01*
X210165898Y-77557829D01*
X210165899Y-77557832D01*
X210259695Y-77764330D01*
X210259698Y-77764336D01*
X210388851Y-77950758D01*
X210388861Y-77950770D01*
X210549229Y-78111138D01*
X210549234Y-78111142D01*
X210696131Y-78212912D01*
X210716112Y-78237656D01*
X210737371Y-78261322D01*
X210737910Y-78264649D01*
X210740027Y-78267271D01*
X210743458Y-78298881D01*
X210748549Y-78330292D01*
X210747203Y-78333383D01*
X210747567Y-78336733D01*
X210733360Y-78365185D01*
X210720664Y-78394356D01*
X210717277Y-78397397D01*
X210716356Y-78399244D01*
X210694408Y-78417942D01*
X210663226Y-78438777D01*
X210653046Y-78445580D01*
X210612218Y-78472859D01*
X210612215Y-78472862D01*
X209009399Y-80075681D01*
X208948076Y-80109166D01*
X208921718Y-80112000D01*
X206628336Y-80112000D01*
X206596273Y-80118376D01*
X206596274Y-80118377D01*
X206435052Y-80150446D01*
X206435046Y-80150448D01*
X206252970Y-80225866D01*
X206252961Y-80225871D01*
X206089101Y-80335359D01*
X206089097Y-80335362D01*
X205908563Y-80515896D01*
X205847240Y-80549381D01*
X205777548Y-80544397D01*
X205721615Y-80502525D01*
X205715345Y-80493314D01*
X205710075Y-80484771D01*
X205710072Y-80484767D01*
X205590232Y-80364927D01*
X205590228Y-80364924D01*
X205445992Y-80275957D01*
X205445981Y-80275952D01*
X205285106Y-80222644D01*
X205185822Y-80212500D01*
X205137500Y-80212500D01*
X205137500Y-81038500D01*
X205117815Y-81105539D01*
X205065011Y-81151294D01*
X205013500Y-81162500D01*
X204887500Y-81162500D01*
X204887500Y-81288500D01*
X204867815Y-81355539D01*
X204815011Y-81401294D01*
X204763500Y-81412500D01*
X203912501Y-81412500D01*
X203912501Y-81435822D01*
X203922644Y-81535107D01*
X203975952Y-81695981D01*
X203975957Y-81695992D01*
X204064924Y-81840228D01*
X204064927Y-81840232D01*
X204074160Y-81849465D01*
X204107645Y-81910788D01*
X204102661Y-81980480D01*
X204074163Y-82024824D01*
X204064533Y-82034453D01*
X204064529Y-82034459D01*
X203975501Y-82178794D01*
X203975496Y-82178805D01*
X203922151Y-82339790D01*
X203912000Y-82439147D01*
X203912000Y-82476064D01*
X203909617Y-82500256D01*
X203887000Y-82613956D01*
X203887000Y-84761045D01*
X203909617Y-84874748D01*
X203912000Y-84898936D01*
X203912000Y-84935836D01*
X203912001Y-84935856D01*
X203922150Y-85035207D01*
X203922151Y-85035210D01*
X203975496Y-85196194D01*
X203975501Y-85196205D01*
X204064529Y-85340540D01*
X204064532Y-85340544D01*
X204074160Y-85350172D01*
X204107645Y-85411495D01*
X204102661Y-85481187D01*
X204074163Y-85525531D01*
X204064928Y-85534765D01*
X204064924Y-85534771D01*
X203975957Y-85679007D01*
X203975952Y-85679018D01*
X203922644Y-85839893D01*
X203912500Y-85939177D01*
X203912500Y-85962500D01*
X205862499Y-85962500D01*
X205862499Y-85939192D01*
X205862498Y-85939177D01*
X205852355Y-85839892D01*
X205799047Y-85679018D01*
X205799042Y-85679007D01*
X205710075Y-85534771D01*
X205710072Y-85534767D01*
X205700839Y-85525534D01*
X205667354Y-85464211D01*
X205672338Y-85394519D01*
X205700843Y-85350168D01*
X205710468Y-85340544D01*
X205799503Y-85196197D01*
X205852849Y-85035208D01*
X205863000Y-84935845D01*
X205862999Y-84898934D01*
X205865382Y-84874741D01*
X205888000Y-84761042D01*
X205888000Y-83417663D01*
X205907685Y-83350624D01*
X205924319Y-83329982D01*
X206214649Y-83039653D01*
X206797991Y-82456311D01*
X207104984Y-82149319D01*
X207166307Y-82115834D01*
X207192665Y-82113000D01*
X208350326Y-82113000D01*
X208417365Y-82132685D01*
X208463120Y-82185489D01*
X208473064Y-82254647D01*
X208468712Y-82273888D01*
X208418414Y-82435304D01*
X208412000Y-82505884D01*
X208412000Y-83019116D01*
X208412363Y-83023111D01*
X208418413Y-83089692D01*
X208418413Y-83089694D01*
X208418414Y-83089696D01*
X208469022Y-83252106D01*
X208528578Y-83350624D01*
X208557030Y-83397688D01*
X208677311Y-83517969D01*
X208677313Y-83517970D01*
X208677315Y-83517972D01*
X208727150Y-83548098D01*
X208734416Y-83556032D01*
X208744203Y-83560502D01*
X208757600Y-83581349D01*
X208774338Y-83599626D01*
X208777157Y-83611780D01*
X208781977Y-83619280D01*
X208787000Y-83654215D01*
X208787000Y-83720784D01*
X208767315Y-83787823D01*
X208727152Y-83826900D01*
X208677311Y-83857030D01*
X208557030Y-83977311D01*
X208469022Y-84122893D01*
X208418413Y-84285307D01*
X208412000Y-84355886D01*
X208412000Y-84869113D01*
X208418413Y-84939692D01*
X208418413Y-84939694D01*
X208418414Y-84939696D01*
X208469022Y-85102106D01*
X208543314Y-85225000D01*
X208557030Y-85247688D01*
X208659515Y-85350173D01*
X208693000Y-85411496D01*
X208688016Y-85481188D01*
X208659515Y-85525535D01*
X208557428Y-85627621D01*
X208557427Y-85627622D01*
X208469480Y-85773104D01*
X208418909Y-85935393D01*
X208412500Y-86005927D01*
X208412500Y-86012500D01*
X210362499Y-86012500D01*
X210362499Y-86005917D01*
X210356091Y-85935397D01*
X210356090Y-85935392D01*
X210305518Y-85773103D01*
X210217572Y-85627622D01*
X210115484Y-85525534D01*
X210081999Y-85464211D01*
X210086983Y-85394519D01*
X210115483Y-85350173D01*
X210217972Y-85247685D01*
X210305978Y-85102106D01*
X210356586Y-84939696D01*
X210363000Y-84869116D01*
X210363000Y-84355884D01*
X210356586Y-84285304D01*
X210305978Y-84122894D01*
X210217972Y-83977315D01*
X210217970Y-83977313D01*
X210217969Y-83977311D01*
X210097688Y-83857030D01*
X210082274Y-83847712D01*
X210047847Y-83826899D01*
X210040582Y-83818965D01*
X210030797Y-83814497D01*
X210017397Y-83793646D01*
X210000662Y-83775371D01*
X209997843Y-83763219D01*
X209993023Y-83755719D01*
X209988000Y-83720784D01*
X209988000Y-83654215D01*
X210007685Y-83587176D01*
X210047849Y-83548098D01*
X210097685Y-83517972D01*
X210216338Y-83399318D01*
X210272256Y-83367138D01*
X210287868Y-83363001D01*
X210316557Y-83363001D01*
X210469285Y-83322077D01*
X210492170Y-83308863D01*
X210508122Y-83304637D01*
X210522971Y-83305031D01*
X210539884Y-83300500D01*
X210578844Y-83300500D01*
X210578845Y-83300499D01*
X210733497Y-83269737D01*
X210879179Y-83209394D01*
X211010289Y-83121789D01*
X211121789Y-83010289D01*
X211209394Y-82879179D01*
X211269737Y-82733497D01*
X211300500Y-82578842D01*
X211300500Y-82421158D01*
X211300500Y-82421155D01*
X211278768Y-82311905D01*
X211284995Y-82242313D01*
X211327858Y-82187136D01*
X211393747Y-82163891D01*
X211461744Y-82179958D01*
X211488066Y-82200032D01*
X211796698Y-82508664D01*
X211830183Y-82569987D01*
X211832419Y-82584187D01*
X211833900Y-82599215D01*
X211841715Y-82678556D01*
X211843455Y-82687302D01*
X211844597Y-82693042D01*
X211844616Y-82693134D01*
X211844617Y-82693139D01*
X211857997Y-82745558D01*
X211857998Y-82745562D01*
X211920092Y-82875348D01*
X211920093Y-82875351D01*
X211928951Y-82888607D01*
X211949830Y-82955284D01*
X211931346Y-83022664D01*
X211928955Y-83026386D01*
X211920090Y-83039653D01*
X211892486Y-83086178D01*
X211844617Y-83221859D01*
X211844614Y-83221872D01*
X211841716Y-83236440D01*
X211841715Y-83236447D01*
X211832000Y-83335074D01*
X211832000Y-83494926D01*
X211837836Y-83554174D01*
X211841715Y-83593556D01*
X211841716Y-83593559D01*
X211844616Y-83608136D01*
X211847461Y-83619280D01*
X211852156Y-83637677D01*
X211849661Y-83707502D01*
X211848946Y-83709589D01*
X211844616Y-83721862D01*
X211843992Y-83725000D01*
X211841715Y-83736447D01*
X211832000Y-83835074D01*
X211832000Y-83994926D01*
X211835635Y-84031826D01*
X211841715Y-84093556D01*
X211843455Y-84102302D01*
X211844614Y-84108127D01*
X211844616Y-84108134D01*
X211844619Y-84108149D01*
X211852155Y-84137673D01*
X211849661Y-84207498D01*
X211848944Y-84209591D01*
X211844615Y-84221860D01*
X211841715Y-84236440D01*
X211841714Y-84236447D01*
X211833292Y-84321956D01*
X211831999Y-84335078D01*
X211831999Y-84494921D01*
X211841714Y-84593556D01*
X211842560Y-84597807D01*
X211844615Y-84608136D01*
X211847745Y-84620397D01*
X211852155Y-84637677D01*
X211849660Y-84707502D01*
X211848945Y-84709589D01*
X211844615Y-84721862D01*
X211843662Y-84726655D01*
X211841714Y-84736447D01*
X211831999Y-84835074D01*
X211831999Y-84994926D01*
X211834518Y-85020496D01*
X211841714Y-85093556D01*
X211844615Y-85108134D01*
X211844616Y-85108139D01*
X211857996Y-85160558D01*
X211857997Y-85160562D01*
X211901836Y-85252192D01*
X211920092Y-85290350D01*
X211931143Y-85306889D01*
X211963572Y-85350209D01*
X212070610Y-85446356D01*
X212070612Y-85446357D01*
X212070614Y-85446359D01*
X212085010Y-85455978D01*
X212087149Y-85457407D01*
X212133680Y-85485015D01*
X212269363Y-85532884D01*
X212278819Y-85534765D01*
X212283950Y-85535786D01*
X212298726Y-85537241D01*
X212363514Y-85563400D01*
X212370392Y-85569804D01*
X212370558Y-85569621D01*
X212482127Y-85669839D01*
X212510340Y-85688690D01*
X212510353Y-85688698D01*
X212556876Y-85716301D01*
X212556877Y-85716301D01*
X212556880Y-85716303D01*
X212692565Y-85764169D01*
X212725842Y-85770788D01*
X212824458Y-85780500D01*
X213650543Y-85780499D01*
X213749140Y-85770790D01*
X213782418Y-85764172D01*
X213834870Y-85750785D01*
X213964661Y-85688689D01*
X213992872Y-85669839D01*
X214036191Y-85637410D01*
X214092020Y-85575257D01*
X214151462Y-85538538D01*
X214221321Y-85539785D01*
X214269701Y-85570575D01*
X214270559Y-85569621D01*
X214382128Y-85669839D01*
X214410331Y-85688684D01*
X214410335Y-85688686D01*
X214410339Y-85688689D01*
X214414514Y-85691166D01*
X214456881Y-85716303D01*
X214456895Y-85716311D01*
X214529225Y-85741824D01*
X214592578Y-85764171D01*
X214592580Y-85764171D01*
X214592582Y-85764172D01*
X214625860Y-85770790D01*
X214724457Y-85780499D01*
X215167769Y-85780499D01*
X215234808Y-85800184D01*
X215255450Y-85816818D01*
X215838450Y-86399818D01*
X215871935Y-86461141D01*
X215866951Y-86530833D01*
X215838450Y-86575180D01*
X214925449Y-87488181D01*
X214864126Y-87521666D01*
X214837769Y-87524500D01*
X214701663Y-87524500D01*
X214701644Y-87524501D01*
X214602292Y-87534650D01*
X214602289Y-87534651D01*
X214441305Y-87587996D01*
X214441294Y-87588001D01*
X214296959Y-87677029D01*
X214296955Y-87677032D01*
X214285807Y-87688181D01*
X214224484Y-87721666D01*
X214198126Y-87724500D01*
X211801874Y-87724500D01*
X211734835Y-87704815D01*
X211714193Y-87688181D01*
X211703044Y-87677032D01*
X211703040Y-87677029D01*
X211558705Y-87588001D01*
X211558699Y-87587998D01*
X211558697Y-87587997D01*
X211558694Y-87587996D01*
X211397709Y-87534651D01*
X211298346Y-87524500D01*
X210701662Y-87524500D01*
X210701644Y-87524501D01*
X210602292Y-87534650D01*
X210602289Y-87534651D01*
X210441305Y-87587996D01*
X210441294Y-87588001D01*
X210296959Y-87677029D01*
X210296955Y-87677032D01*
X210177032Y-87796955D01*
X210177029Y-87796959D01*
X210088001Y-87941294D01*
X210087996Y-87941305D01*
X210034651Y-88102290D01*
X210024500Y-88201647D01*
X210024500Y-88748337D01*
X210024501Y-88748355D01*
X210034650Y-88847707D01*
X210034651Y-88847710D01*
X210087996Y-89008694D01*
X210088001Y-89008705D01*
X210177029Y-89153040D01*
X210177032Y-89153044D01*
X210186660Y-89162672D01*
X210220145Y-89223995D01*
X210215161Y-89293687D01*
X210186663Y-89338031D01*
X210177428Y-89347265D01*
X210177424Y-89347271D01*
X210088457Y-89491507D01*
X210088452Y-89491518D01*
X210035144Y-89652393D01*
X210025000Y-89751677D01*
X210025000Y-89775000D01*
X210876000Y-89775000D01*
X210943039Y-89794685D01*
X210988794Y-89847489D01*
X211000000Y-89899000D01*
X211000000Y-90025000D01*
X211126000Y-90025000D01*
X211193039Y-90044685D01*
X211238794Y-90097489D01*
X211250000Y-90149000D01*
X211250000Y-90974999D01*
X211298308Y-90974999D01*
X211298322Y-90974998D01*
X211397607Y-90964855D01*
X211558481Y-90911547D01*
X211558488Y-90911544D01*
X211682712Y-90834920D01*
X211750104Y-90816479D01*
X211816768Y-90837401D01*
X211861538Y-90891042D01*
X211870200Y-90960373D01*
X211840005Y-91023380D01*
X211835491Y-91028139D01*
X210875450Y-91988181D01*
X210814127Y-92021666D01*
X210787769Y-92024500D01*
X210668384Y-92024500D01*
X210649145Y-92026248D01*
X210597807Y-92030913D01*
X210435393Y-92081522D01*
X210289811Y-92169530D01*
X210169530Y-92289811D01*
X210081522Y-92435393D01*
X210030913Y-92597807D01*
X210024500Y-92668386D01*
X210024500Y-92787769D01*
X210004815Y-92854808D01*
X209988181Y-92875450D01*
X206917052Y-95946578D01*
X206917049Y-95946581D01*
X206878820Y-96003795D01*
X206878821Y-96003796D01*
X206834913Y-96069508D01*
X206778343Y-96206082D01*
X206778340Y-96206092D01*
X206749500Y-96351079D01*
X206749500Y-97350903D01*
X206743261Y-97372148D01*
X206741682Y-97394237D01*
X206733609Y-97405020D01*
X206729815Y-97417942D01*
X206713081Y-97432441D01*
X206699810Y-97450170D01*
X206687189Y-97454877D01*
X206677011Y-97463697D01*
X206655093Y-97466848D01*
X206634346Y-97474587D01*
X206621185Y-97471724D01*
X206607853Y-97473641D01*
X206587709Y-97464441D01*
X206566073Y-97459735D01*
X206548347Y-97446466D01*
X206544297Y-97444616D01*
X206537819Y-97438584D01*
X206470000Y-97370765D01*
X206469998Y-97370762D01*
X206351127Y-97251891D01*
X206351119Y-97251885D01*
X206254743Y-97196243D01*
X206254741Y-97196242D01*
X206214200Y-97172835D01*
X206214199Y-97172834D01*
X206201673Y-97169477D01*
X206061467Y-97131909D01*
X205985476Y-97131909D01*
X205918437Y-97112224D01*
X205872682Y-97059420D01*
X205865703Y-97040009D01*
X205864577Y-97035806D01*
X205837347Y-96988642D01*
X205785524Y-96898880D01*
X205785518Y-96898872D01*
X205724326Y-96837680D01*
X205690841Y-96776357D01*
X205695825Y-96706665D01*
X205724324Y-96662320D01*
X206980520Y-95406126D01*
X207059577Y-95269194D01*
X207100501Y-95116467D01*
X207100501Y-94958352D01*
X207100501Y-94950757D01*
X207100500Y-94950739D01*
X207100500Y-94089060D01*
X207100501Y-94089047D01*
X207100501Y-93920944D01*
X207100501Y-93920943D01*
X207059577Y-93768216D01*
X207034626Y-93724999D01*
X206980524Y-93631290D01*
X206980518Y-93631282D01*
X205526660Y-92177424D01*
X204062589Y-90713354D01*
X204062588Y-90713352D01*
X203943717Y-90594481D01*
X203943716Y-90594480D01*
X203856904Y-90544360D01*
X203856904Y-90544359D01*
X203856900Y-90544358D01*
X203806785Y-90515423D01*
X203654057Y-90474499D01*
X203495943Y-90474499D01*
X203488347Y-90474499D01*
X203488331Y-90474500D01*
X202916520Y-90474500D01*
X202887079Y-90465855D01*
X202857093Y-90459332D01*
X202852077Y-90455577D01*
X202849481Y-90454815D01*
X202828839Y-90438181D01*
X202727984Y-90337326D01*
X202694499Y-90276003D01*
X202699483Y-90206311D01*
X202727985Y-90161963D01*
X202767300Y-90122648D01*
X205424500Y-90122648D01*
X205424500Y-90327351D01*
X205456522Y-90529534D01*
X205519781Y-90724223D01*
X205612715Y-90906613D01*
X205733028Y-91072213D01*
X205877786Y-91216971D01*
X206008570Y-91311989D01*
X206043390Y-91337287D01*
X206112111Y-91372302D01*
X206225776Y-91430218D01*
X206225778Y-91430218D01*
X206225781Y-91430220D01*
X206312464Y-91458385D01*
X206420465Y-91493477D01*
X206521557Y-91509488D01*
X206622648Y-91525500D01*
X206622649Y-91525500D01*
X206827351Y-91525500D01*
X206827352Y-91525500D01*
X207029534Y-91493477D01*
X207224219Y-91430220D01*
X207406610Y-91337287D01*
X207515502Y-91258173D01*
X207572213Y-91216971D01*
X207572215Y-91216968D01*
X207572219Y-91216966D01*
X207716966Y-91072219D01*
X207716968Y-91072215D01*
X207716971Y-91072213D01*
X207787600Y-90974999D01*
X207837287Y-90906610D01*
X207930220Y-90724219D01*
X207993477Y-90529534D01*
X208025500Y-90327352D01*
X208025500Y-90298322D01*
X210025001Y-90298322D01*
X210035144Y-90397607D01*
X210088452Y-90558481D01*
X210088457Y-90558492D01*
X210177424Y-90702728D01*
X210177427Y-90702732D01*
X210297267Y-90822572D01*
X210297271Y-90822575D01*
X210441507Y-90911542D01*
X210441518Y-90911547D01*
X210602393Y-90964855D01*
X210701683Y-90974999D01*
X210749999Y-90974998D01*
X210750000Y-90974998D01*
X210750000Y-90275000D01*
X210025001Y-90275000D01*
X210025001Y-90298322D01*
X208025500Y-90298322D01*
X208025500Y-90122648D01*
X208007708Y-90010315D01*
X207993477Y-89920465D01*
X207938774Y-89752107D01*
X207930220Y-89725781D01*
X207930218Y-89725778D01*
X207930218Y-89725776D01*
X207870986Y-89609528D01*
X207837287Y-89543390D01*
X207815674Y-89513642D01*
X207716971Y-89377786D01*
X207572213Y-89233028D01*
X207406613Y-89112715D01*
X207406612Y-89112714D01*
X207406610Y-89112713D01*
X207342407Y-89080000D01*
X207224223Y-89019781D01*
X207029534Y-88956522D01*
X206844664Y-88927242D01*
X206827352Y-88924500D01*
X206622648Y-88924500D01*
X206605336Y-88927242D01*
X206420465Y-88956522D01*
X206225776Y-89019781D01*
X206043386Y-89112715D01*
X205877786Y-89233028D01*
X205733028Y-89377786D01*
X205612715Y-89543386D01*
X205519781Y-89725776D01*
X205456522Y-89920465D01*
X205424500Y-90122648D01*
X202767300Y-90122648D01*
X202830071Y-90059878D01*
X202830074Y-90059874D01*
X202833854Y-90053623D01*
X202918019Y-89914396D01*
X202968590Y-89752106D01*
X202975000Y-89681572D01*
X202975000Y-89675000D01*
X201025001Y-89675000D01*
X201025001Y-89681582D01*
X201031408Y-89752102D01*
X201031409Y-89752107D01*
X201081981Y-89914396D01*
X201169927Y-90059877D01*
X201272015Y-90161965D01*
X201305500Y-90223288D01*
X201300516Y-90292980D01*
X201272015Y-90337327D01*
X201169531Y-90439810D01*
X201169530Y-90439811D01*
X201081522Y-90585393D01*
X201030913Y-90747807D01*
X201028442Y-90775001D01*
X201024500Y-90818384D01*
X201024500Y-91331616D01*
X201026423Y-91352778D01*
X201030913Y-91402192D01*
X201030913Y-91402194D01*
X201030914Y-91402196D01*
X201053604Y-91475013D01*
X201081522Y-91564606D01*
X201169530Y-91710188D01*
X201289811Y-91830469D01*
X201289813Y-91830470D01*
X201289815Y-91830472D01*
X201435394Y-91918478D01*
X201597804Y-91969086D01*
X201668384Y-91975500D01*
X201668387Y-91975500D01*
X202331613Y-91975500D01*
X202331616Y-91975500D01*
X202402196Y-91969086D01*
X202564606Y-91918478D01*
X202710185Y-91830472D01*
X202765657Y-91775000D01*
X202828839Y-91711819D01*
X202890162Y-91678334D01*
X202916520Y-91675500D01*
X203274903Y-91675500D01*
X203341942Y-91695185D01*
X203362584Y-91711819D01*
X204068681Y-92417916D01*
X204102166Y-92479239D01*
X204105000Y-92505597D01*
X204105000Y-93130000D01*
X203605000Y-93130000D01*
X203605000Y-92430000D01*
X203206504Y-92430000D01*
X203013318Y-92468427D01*
X203013306Y-92468430D01*
X202831328Y-92543807D01*
X202831315Y-92543814D01*
X202667537Y-92653248D01*
X202667533Y-92653251D01*
X202528251Y-92792533D01*
X202528248Y-92792537D01*
X202418814Y-92956315D01*
X202418807Y-92956328D01*
X202343430Y-93138307D01*
X202343430Y-93138309D01*
X202335138Y-93180000D01*
X203138012Y-93180000D01*
X203120795Y-93189940D01*
X203064940Y-93245795D01*
X203025444Y-93314204D01*
X203005000Y-93390504D01*
X203005000Y-93469496D01*
X203025444Y-93545796D01*
X203064940Y-93614205D01*
X203120795Y-93670060D01*
X203138012Y-93680000D01*
X202335138Y-93680000D01*
X202343430Y-93721690D01*
X202343430Y-93721692D01*
X202418807Y-93903671D01*
X202418814Y-93903684D01*
X202528248Y-94067462D01*
X202528251Y-94067466D01*
X202667533Y-94206748D01*
X202667537Y-94206751D01*
X202831315Y-94316185D01*
X202831322Y-94316189D01*
X202889196Y-94340160D01*
X202943600Y-94384000D01*
X202965666Y-94450294D01*
X202948388Y-94517994D01*
X202938774Y-94530378D01*
X202939441Y-94530890D01*
X202934492Y-94537338D01*
X202865313Y-94657161D01*
X202865312Y-94657164D01*
X202829500Y-94790817D01*
X202829500Y-94929183D01*
X202857893Y-95035145D01*
X202865312Y-95062835D01*
X202865313Y-95062838D01*
X202934492Y-95182661D01*
X202934496Y-95182666D01*
X203024911Y-95273081D01*
X203058396Y-95334404D01*
X203053412Y-95404096D01*
X203024911Y-95448443D01*
X202674481Y-95798872D01*
X202674479Y-95798874D01*
X202671706Y-95803678D01*
X202645023Y-95849896D01*
X202595423Y-95935805D01*
X202554499Y-96088533D01*
X202554499Y-96088535D01*
X202554499Y-96256636D01*
X202554500Y-96256649D01*
X202554500Y-99318330D01*
X202554499Y-99318348D01*
X202554499Y-99484054D01*
X202554498Y-99484054D01*
X202595423Y-99636786D01*
X202611521Y-99664667D01*
X202611522Y-99664669D01*
X202674477Y-99773712D01*
X202674481Y-99773717D01*
X202793349Y-99892585D01*
X202793355Y-99892590D01*
X202988616Y-100087851D01*
X203022101Y-100149174D01*
X203017117Y-100218866D01*
X202988617Y-100263213D01*
X202934492Y-100317338D01*
X202865313Y-100437161D01*
X202865312Y-100437164D01*
X202829500Y-100570817D01*
X202829500Y-100709183D01*
X202861021Y-100826819D01*
X202865312Y-100842835D01*
X202865313Y-100842838D01*
X202934492Y-100962661D01*
X202939441Y-100969110D01*
X202936813Y-100971125D01*
X202962911Y-101018919D01*
X202957927Y-101088611D01*
X202916055Y-101144544D01*
X202889197Y-101159838D01*
X202831328Y-101183807D01*
X202831315Y-101183814D01*
X202667537Y-101293248D01*
X202667533Y-101293251D01*
X202528251Y-101432533D01*
X202528248Y-101432537D01*
X202418814Y-101596315D01*
X202418807Y-101596328D01*
X202343430Y-101778307D01*
X202343430Y-101778309D01*
X202335138Y-101820000D01*
X203138012Y-101820000D01*
X203120795Y-101829940D01*
X203064940Y-101885795D01*
X203025444Y-101954204D01*
X203005000Y-102030504D01*
X203005000Y-102109496D01*
X203025444Y-102185796D01*
X203064940Y-102254205D01*
X203120795Y-102310060D01*
X203138012Y-102320000D01*
X202335138Y-102320000D01*
X202343430Y-102361690D01*
X202343430Y-102361692D01*
X202418807Y-102543671D01*
X202418814Y-102543684D01*
X202528248Y-102707462D01*
X202528251Y-102707466D01*
X202667533Y-102846748D01*
X202667537Y-102846751D01*
X202831315Y-102956185D01*
X202831328Y-102956192D01*
X203013306Y-103031569D01*
X203013318Y-103031572D01*
X203206504Y-103069999D01*
X203206508Y-103070000D01*
X203605000Y-103070000D01*
X203605000Y-102370000D01*
X204105000Y-102370000D01*
X204105000Y-102994402D01*
X204085315Y-103061441D01*
X204068681Y-103082083D01*
X202933392Y-104217372D01*
X202872069Y-104250857D01*
X202802377Y-104245873D01*
X202758030Y-104217372D01*
X202710188Y-104169530D01*
X202608162Y-104107853D01*
X202564606Y-104081522D01*
X202402196Y-104030914D01*
X202402194Y-104030913D01*
X202402192Y-104030913D01*
X202352778Y-104026423D01*
X202331616Y-104024500D01*
X201668384Y-104024500D01*
X201649145Y-104026248D01*
X201597807Y-104030913D01*
X201435393Y-104081522D01*
X201289811Y-104169530D01*
X201169530Y-104289811D01*
X201081522Y-104435393D01*
X201030913Y-104597807D01*
X201024500Y-104668386D01*
X201024500Y-105181613D01*
X201030913Y-105252192D01*
X201030913Y-105252194D01*
X201030914Y-105252196D01*
X201081522Y-105414606D01*
X201101790Y-105448134D01*
X201169530Y-105560188D01*
X201272015Y-105662673D01*
X201305500Y-105723996D01*
X201300516Y-105793688D01*
X201272015Y-105838035D01*
X201169928Y-105940121D01*
X201169927Y-105940122D01*
X201081980Y-106085604D01*
X201031409Y-106247893D01*
X201025000Y-106318427D01*
X201025000Y-106325000D01*
X202974999Y-106325000D01*
X202974999Y-106318417D01*
X202968591Y-106247897D01*
X202968590Y-106247892D01*
X202918018Y-106085603D01*
X202830072Y-105940122D01*
X202727984Y-105838034D01*
X202723645Y-105830088D01*
X202716397Y-105824662D01*
X202707162Y-105799902D01*
X202694499Y-105776711D01*
X202695144Y-105767680D01*
X202691981Y-105759198D01*
X202697597Y-105733377D01*
X202699483Y-105707019D01*
X202705301Y-105697965D01*
X202706833Y-105690925D01*
X202727984Y-105662673D01*
X202801055Y-105589602D01*
X202828840Y-105561818D01*
X202890163Y-105528334D01*
X202916520Y-105525500D01*
X202988331Y-105525500D01*
X202988347Y-105525501D01*
X202995943Y-105525501D01*
X203154054Y-105525501D01*
X203154057Y-105525501D01*
X203306785Y-105484577D01*
X203369904Y-105448135D01*
X203443716Y-105405520D01*
X203555520Y-105293716D01*
X203555520Y-105293714D01*
X203565724Y-105283511D01*
X203565728Y-105283506D01*
X205663506Y-103185728D01*
X205663511Y-103185724D01*
X205673714Y-103175520D01*
X205673716Y-103175520D01*
X205785520Y-103063716D01*
X205798861Y-103040609D01*
X205851461Y-102949503D01*
X205851462Y-102949501D01*
X205857555Y-102938947D01*
X205864577Y-102926785D01*
X205905500Y-102774058D01*
X205905500Y-102615943D01*
X205905500Y-100174500D01*
X205925185Y-100107461D01*
X205977989Y-100061706D01*
X206029500Y-100050500D01*
X206078844Y-100050500D01*
X206078845Y-100050499D01*
X206233497Y-100019737D01*
X206379179Y-99959394D01*
X206510289Y-99871789D01*
X206510292Y-99871786D01*
X206537819Y-99844260D01*
X206599142Y-99810775D01*
X206668834Y-99815759D01*
X206724767Y-99857631D01*
X206749184Y-99923095D01*
X206749500Y-99931941D01*
X206749500Y-109387769D01*
X206729815Y-109454808D01*
X206713181Y-109475450D01*
X206187626Y-110001004D01*
X206126303Y-110034489D01*
X206071550Y-110031542D01*
X206070986Y-110033892D01*
X206066246Y-110032754D01*
X205908776Y-110007813D01*
X205856287Y-109999500D01*
X205643713Y-109999500D01*
X205595042Y-110007208D01*
X205433760Y-110032753D01*
X205231585Y-110098444D01*
X205042179Y-110194951D01*
X204870213Y-110319890D01*
X204719890Y-110470213D01*
X204594951Y-110642179D01*
X204498444Y-110831585D01*
X204432753Y-111033760D01*
X204399500Y-111243713D01*
X204399500Y-111756286D01*
X204430457Y-111951745D01*
X204432754Y-111966243D01*
X204476978Y-112102351D01*
X204498444Y-112168414D01*
X204594951Y-112357820D01*
X204719890Y-112529786D01*
X204870213Y-112680109D01*
X205042179Y-112805048D01*
X205042181Y-112805049D01*
X205042184Y-112805051D01*
X205231588Y-112901557D01*
X205433757Y-112967246D01*
X205643713Y-113000500D01*
X205643714Y-113000500D01*
X205856286Y-113000500D01*
X205856287Y-113000500D01*
X206066243Y-112967246D01*
X206066251Y-112967243D01*
X206070978Y-112966109D01*
X206071587Y-112968646D01*
X206130558Y-112966514D01*
X206187627Y-112998995D01*
X208167049Y-114978416D01*
X208271584Y-115082951D01*
X208271587Y-115082953D01*
X208271588Y-115082954D01*
X208394503Y-115165083D01*
X208394506Y-115165085D01*
X208444665Y-115185861D01*
X208451080Y-115188518D01*
X208531088Y-115221659D01*
X208647241Y-115244763D01*
X208670380Y-115249365D01*
X208676081Y-115250500D01*
X208676082Y-115250500D01*
X208676083Y-115250500D01*
X208823918Y-115250500D01*
X214050500Y-115250500D01*
X214117539Y-115270185D01*
X214163294Y-115322989D01*
X214174500Y-115374500D01*
X214174500Y-118913718D01*
X214154815Y-118980757D01*
X214102011Y-119026512D01*
X214069898Y-119036191D01*
X213933760Y-119057753D01*
X213731585Y-119123444D01*
X213542179Y-119219951D01*
X213370213Y-119344890D01*
X213219890Y-119495213D01*
X213094951Y-119667179D01*
X212998444Y-119856585D01*
X212932753Y-120058760D01*
X212923069Y-120119905D01*
X212899500Y-120268713D01*
X212899500Y-120731287D01*
X212932754Y-120941243D01*
X212943722Y-120975000D01*
X212998444Y-121143414D01*
X213094951Y-121332820D01*
X213219890Y-121504786D01*
X213370213Y-121655109D01*
X213542179Y-121780048D01*
X213542181Y-121780049D01*
X213542184Y-121780051D01*
X213731588Y-121876557D01*
X213933757Y-121942246D01*
X214143713Y-121975500D01*
X214143714Y-121975500D01*
X214356286Y-121975500D01*
X214356287Y-121975500D01*
X214559638Y-121943292D01*
X214628931Y-121952247D01*
X214666717Y-121978084D01*
X215092048Y-122403415D01*
X215092049Y-122403416D01*
X215181842Y-122493209D01*
X215196585Y-122507952D01*
X215319498Y-122590080D01*
X215319511Y-122590087D01*
X215456082Y-122646656D01*
X215456087Y-122646658D01*
X215456091Y-122646658D01*
X215456092Y-122646659D01*
X215601079Y-122675500D01*
X215601082Y-122675500D01*
X228648920Y-122675500D01*
X228746462Y-122656096D01*
X228793913Y-122646658D01*
X228930495Y-122590084D01*
X228979729Y-122557186D01*
X229053416Y-122507952D01*
X229583282Y-121978083D01*
X229644605Y-121944599D01*
X229690361Y-121943292D01*
X229893713Y-121975500D01*
X229893714Y-121975500D01*
X230106286Y-121975500D01*
X230106287Y-121975500D01*
X230309638Y-121943292D01*
X230378930Y-121952246D01*
X230416716Y-121978084D01*
X232021586Y-123582954D01*
X232051058Y-123602645D01*
X232095270Y-123632186D01*
X232144505Y-123665084D01*
X232144506Y-123665084D01*
X232144507Y-123665085D01*
X232144509Y-123665086D01*
X232281082Y-123721656D01*
X232281087Y-123721658D01*
X232281091Y-123721658D01*
X232281092Y-123721659D01*
X232426079Y-123750500D01*
X232426082Y-123750500D01*
X239323920Y-123750500D01*
X239421462Y-123731096D01*
X239468913Y-123721658D01*
X239605495Y-123665084D01*
X239654729Y-123632186D01*
X239654734Y-123632183D01*
X239679071Y-123615921D01*
X239728416Y-123582952D01*
X241832951Y-121478416D01*
X241909082Y-121364477D01*
X241915084Y-121355495D01*
X241915085Y-121355491D01*
X241915087Y-121355489D01*
X241971656Y-121218917D01*
X241971658Y-121218913D01*
X241986676Y-121143414D01*
X242000500Y-121073920D01*
X242000500Y-115926079D01*
X241971659Y-115781092D01*
X241971658Y-115781091D01*
X241971658Y-115781087D01*
X241971656Y-115781082D01*
X241915087Y-115644511D01*
X241915080Y-115644498D01*
X241832952Y-115521585D01*
X241805183Y-115493816D01*
X241773546Y-115462179D01*
X241740063Y-115400859D01*
X241745047Y-115331167D01*
X241786918Y-115275233D01*
X241852382Y-115250816D01*
X241861229Y-115250500D01*
X243400420Y-115250500D01*
X243511826Y-115228339D01*
X243545413Y-115221658D01*
X243681995Y-115165084D01*
X243778651Y-115100501D01*
X243804916Y-115082952D01*
X244022048Y-114865818D01*
X244083371Y-114832334D01*
X244109729Y-114829500D01*
X244296300Y-114829500D01*
X244379522Y-114816318D01*
X244483555Y-114799842D01*
X244663868Y-114741254D01*
X244832796Y-114655181D01*
X244986179Y-114543741D01*
X245120241Y-114409679D01*
X245231681Y-114256296D01*
X245317754Y-114087368D01*
X245376342Y-113907055D01*
X245393272Y-113800162D01*
X245406000Y-113719800D01*
X245406000Y-113530199D01*
X245388913Y-113422317D01*
X245376342Y-113342945D01*
X245317754Y-113162632D01*
X245317752Y-113162629D01*
X245317752Y-113162627D01*
X245238820Y-113007716D01*
X245231681Y-112993704D01*
X245120241Y-112840321D01*
X244986179Y-112706259D01*
X244832796Y-112594819D01*
X244782779Y-112569334D01*
X244663872Y-112508747D01*
X244588155Y-112484145D01*
X244483555Y-112450158D01*
X244483551Y-112450157D01*
X244483550Y-112450157D01*
X244296300Y-112420500D01*
X244296296Y-112420500D01*
X244106704Y-112420500D01*
X244106700Y-112420500D01*
X243919449Y-112450157D01*
X243919446Y-112450157D01*
X243919445Y-112450158D01*
X243886576Y-112460838D01*
X243739127Y-112508747D01*
X243570203Y-112594819D01*
X243416819Y-112706260D01*
X243282760Y-112840319D01*
X243171319Y-112993703D01*
X243085247Y-113162627D01*
X243026657Y-113342949D01*
X242997000Y-113530199D01*
X242997000Y-113625500D01*
X242977315Y-113692539D01*
X242924511Y-113738294D01*
X242873000Y-113749500D01*
X237591519Y-113749500D01*
X237524480Y-113729815D01*
X237503837Y-113713180D01*
X237460188Y-113669531D01*
X237460188Y-113669530D01*
X237314606Y-113581522D01*
X237226896Y-113554191D01*
X237152196Y-113530914D01*
X237152194Y-113530913D01*
X237152192Y-113530913D01*
X237102778Y-113526423D01*
X237081616Y-113524500D01*
X236568384Y-113524500D01*
X236549145Y-113526248D01*
X236497807Y-113530913D01*
X236335393Y-113581522D01*
X236189811Y-113669530D01*
X236189810Y-113669531D01*
X236087681Y-113771661D01*
X236026358Y-113805146D01*
X235956666Y-113800162D01*
X235912319Y-113771661D01*
X235810188Y-113669530D01*
X235664606Y-113581522D01*
X235576896Y-113554191D01*
X235502196Y-113530914D01*
X235502194Y-113530913D01*
X235502192Y-113530913D01*
X235452778Y-113526423D01*
X235431616Y-113524500D01*
X235431613Y-113524500D01*
X235100097Y-113524500D01*
X235033058Y-113504815D01*
X235012416Y-113488181D01*
X233451819Y-111927584D01*
X233437115Y-111900656D01*
X233420523Y-111874838D01*
X233419631Y-111868637D01*
X233418334Y-111866261D01*
X233415500Y-111839903D01*
X233415500Y-111831582D01*
X236775001Y-111831582D01*
X236781408Y-111902102D01*
X236781409Y-111902107D01*
X236831981Y-112064396D01*
X236919927Y-112209877D01*
X237040122Y-112330072D01*
X237185604Y-112418019D01*
X237185603Y-112418019D01*
X237347894Y-112468590D01*
X237347892Y-112468590D01*
X237418418Y-112474999D01*
X238000000Y-112474999D01*
X238081581Y-112474999D01*
X238152102Y-112468591D01*
X238152107Y-112468590D01*
X238314396Y-112418018D01*
X238459877Y-112330072D01*
X238580072Y-112209877D01*
X238668019Y-112064395D01*
X238718590Y-111902106D01*
X238725000Y-111831572D01*
X238725000Y-111825000D01*
X238000000Y-111825000D01*
X238000000Y-112474999D01*
X237418418Y-112474999D01*
X237499999Y-112474998D01*
X237500000Y-112474998D01*
X237500000Y-111825000D01*
X236775001Y-111825000D01*
X236775001Y-111831582D01*
X233415500Y-111831582D01*
X233415500Y-109160093D01*
X233435185Y-109093054D01*
X233487989Y-109047299D01*
X233552754Y-109036804D01*
X233587127Y-109040500D01*
X234582872Y-109040499D01*
X234642483Y-109034091D01*
X234777331Y-108983796D01*
X234892546Y-108897546D01*
X234978796Y-108782331D01*
X235029091Y-108647483D01*
X235035500Y-108587873D01*
X235035500Y-108514500D01*
X235038050Y-108505814D01*
X235036762Y-108496853D01*
X235047740Y-108472812D01*
X235055185Y-108447461D01*
X235062025Y-108441533D01*
X235065787Y-108433297D01*
X235088021Y-108419007D01*
X235107989Y-108401706D01*
X235118503Y-108399418D01*
X235124565Y-108395523D01*
X235159500Y-108390500D01*
X235314903Y-108390500D01*
X235381942Y-108410185D01*
X235402584Y-108426819D01*
X236738181Y-109762416D01*
X236771666Y-109823739D01*
X236774500Y-109850097D01*
X236774500Y-110181613D01*
X236780913Y-110252192D01*
X236780913Y-110252194D01*
X236780914Y-110252196D01*
X236826020Y-110396949D01*
X236831522Y-110414606D01*
X236919530Y-110560188D01*
X237022015Y-110662673D01*
X237055500Y-110723996D01*
X237050516Y-110793688D01*
X237022015Y-110838035D01*
X236919928Y-110940121D01*
X236919927Y-110940122D01*
X236831980Y-111085604D01*
X236781409Y-111247893D01*
X236775000Y-111318427D01*
X236775000Y-111325000D01*
X238724999Y-111325000D01*
X238724999Y-111318417D01*
X238718591Y-111247897D01*
X238718590Y-111247892D01*
X238668018Y-111085603D01*
X238580072Y-110940122D01*
X238477984Y-110838034D01*
X238473645Y-110830088D01*
X238466397Y-110824662D01*
X238457162Y-110799902D01*
X238444499Y-110776711D01*
X238445144Y-110767680D01*
X238441981Y-110759198D01*
X238447597Y-110733377D01*
X238449483Y-110707019D01*
X238455301Y-110697965D01*
X238456833Y-110690925D01*
X238477984Y-110662673D01*
X238543991Y-110596666D01*
X238578840Y-110561818D01*
X238640163Y-110528334D01*
X238666520Y-110525500D01*
X242350831Y-110525500D01*
X242350847Y-110525501D01*
X242358443Y-110525501D01*
X242516554Y-110525501D01*
X242516557Y-110525501D01*
X242669285Y-110484577D01*
X242762661Y-110430666D01*
X242806216Y-110405520D01*
X242918020Y-110293716D01*
X242918020Y-110293714D01*
X242928224Y-110283511D01*
X242928227Y-110283506D01*
X245914185Y-107297548D01*
X245975505Y-107264066D01*
X246045197Y-107269050D01*
X246101130Y-107310922D01*
X246120938Y-107350633D01*
X246123715Y-107360192D01*
X246123717Y-107360196D01*
X246207314Y-107501552D01*
X246207321Y-107501561D01*
X246323438Y-107617678D01*
X246323447Y-107617685D01*
X246464803Y-107701282D01*
X246464806Y-107701283D01*
X246622504Y-107747099D01*
X246622510Y-107747100D01*
X246659350Y-107749999D01*
X246659366Y-107750000D01*
X247062500Y-107750000D01*
X247062500Y-106200597D01*
X247082185Y-106133558D01*
X247098819Y-106112916D01*
X247324916Y-105886819D01*
X247386239Y-105853334D01*
X247412597Y-105850500D01*
X247825500Y-105850500D01*
X247834185Y-105853050D01*
X247843147Y-105851762D01*
X247867187Y-105862740D01*
X247892539Y-105870185D01*
X247898466Y-105877025D01*
X247906703Y-105880787D01*
X247920992Y-105903021D01*
X247938294Y-105922989D01*
X247940581Y-105933503D01*
X247944477Y-105939565D01*
X247949500Y-105974500D01*
X247949500Y-106026000D01*
X247929815Y-106093039D01*
X247877011Y-106138794D01*
X247825500Y-106150000D01*
X247562500Y-106150000D01*
X247562500Y-107750000D01*
X247965634Y-107750000D01*
X247965649Y-107749999D01*
X248002489Y-107747100D01*
X248002495Y-107747099D01*
X248160193Y-107701283D01*
X248160196Y-107701282D01*
X248301552Y-107617685D01*
X248301561Y-107617678D01*
X248375319Y-107543921D01*
X248436642Y-107510436D01*
X248506334Y-107515420D01*
X248562267Y-107557292D01*
X248586684Y-107622756D01*
X248587000Y-107631602D01*
X248587000Y-112321357D01*
X248567315Y-112388396D01*
X248514511Y-112434151D01*
X248445353Y-112444095D01*
X248443602Y-112443830D01*
X248296300Y-112420500D01*
X248296296Y-112420500D01*
X248106704Y-112420500D01*
X248106700Y-112420500D01*
X247919449Y-112450157D01*
X247919446Y-112450157D01*
X247919445Y-112450158D01*
X247886576Y-112460838D01*
X247739127Y-112508747D01*
X247570203Y-112594819D01*
X247416819Y-112706260D01*
X247282760Y-112840319D01*
X247171319Y-112993703D01*
X247085247Y-113162627D01*
X247026657Y-113342949D01*
X246997000Y-113530199D01*
X246997000Y-113719800D01*
X247026305Y-113904827D01*
X247026658Y-113907055D01*
X247035866Y-113935393D01*
X247085247Y-114087372D01*
X247171319Y-114256296D01*
X247282759Y-114409679D01*
X247416821Y-114543741D01*
X247570204Y-114655181D01*
X247644838Y-114693209D01*
X247739127Y-114741252D01*
X247739129Y-114741252D01*
X247739132Y-114741254D01*
X247919445Y-114799842D01*
X248013074Y-114814671D01*
X248106700Y-114829500D01*
X248106704Y-114829500D01*
X248296300Y-114829500D01*
X248379522Y-114816318D01*
X248483555Y-114799842D01*
X248663868Y-114741254D01*
X248832796Y-114655181D01*
X248986179Y-114543741D01*
X249120241Y-114409679D01*
X249231681Y-114256296D01*
X249317754Y-114087368D01*
X249376342Y-113907055D01*
X249393272Y-113800162D01*
X249406000Y-113719800D01*
X249406000Y-113530199D01*
X249380271Y-113367751D01*
X249389226Y-113298457D01*
X249415063Y-113260672D01*
X249513108Y-113162627D01*
X249668020Y-113007716D01*
X249747077Y-112870784D01*
X249788001Y-112718057D01*
X249788001Y-112559942D01*
X249788001Y-112552347D01*
X249788000Y-112552329D01*
X249788000Y-106916722D01*
X249807685Y-106849683D01*
X249860489Y-106803928D01*
X249877405Y-106797646D01*
X249946644Y-106777529D01*
X250035398Y-106751744D01*
X250176865Y-106668081D01*
X250293081Y-106551865D01*
X250376744Y-106410398D01*
X250422598Y-106252569D01*
X250425500Y-106215694D01*
X250425500Y-105784306D01*
X250422598Y-105747431D01*
X250418782Y-105734297D01*
X250376745Y-105589606D01*
X250376744Y-105589603D01*
X250376744Y-105589602D01*
X250293081Y-105448135D01*
X250293080Y-105448134D01*
X250293076Y-105448129D01*
X250176870Y-105331923D01*
X250176862Y-105331917D01*
X250035396Y-105248255D01*
X250035393Y-105248254D01*
X249877573Y-105202402D01*
X249877567Y-105202401D01*
X249840701Y-105199500D01*
X249840694Y-105199500D01*
X248674500Y-105199500D01*
X248607461Y-105179815D01*
X248561706Y-105127011D01*
X248550500Y-105075500D01*
X248550500Y-104834313D01*
X248550499Y-104834298D01*
X248547598Y-104797432D01*
X248547597Y-104797426D01*
X248510912Y-104671158D01*
X248501744Y-104639602D01*
X248418081Y-104498135D01*
X248418079Y-104498133D01*
X248418076Y-104498129D01*
X248301870Y-104381923D01*
X248301862Y-104381917D01*
X248160396Y-104298255D01*
X248160393Y-104298254D01*
X248002573Y-104252402D01*
X248002567Y-104252401D01*
X247965701Y-104249500D01*
X247965694Y-104249500D01*
X246849096Y-104249500D01*
X246782057Y-104229815D01*
X246736302Y-104177011D01*
X246726358Y-104107853D01*
X246755383Y-104044297D01*
X246761415Y-104037819D01*
X248012416Y-102786818D01*
X248073739Y-102753333D01*
X248100097Y-102750499D01*
X249097871Y-102750499D01*
X249097872Y-102750499D01*
X249157483Y-102744091D01*
X249292331Y-102693796D01*
X249407546Y-102607546D01*
X249493796Y-102492331D01*
X249501790Y-102470899D01*
X249516609Y-102431167D01*
X249558480Y-102375233D01*
X249623944Y-102350816D01*
X249632791Y-102350500D01*
X253067209Y-102350500D01*
X253134248Y-102370185D01*
X253180003Y-102422989D01*
X253183391Y-102431167D01*
X253206202Y-102492328D01*
X253206206Y-102492335D01*
X253292452Y-102607544D01*
X253292455Y-102607547D01*
X253407664Y-102693793D01*
X253407671Y-102693797D01*
X253542517Y-102744091D01*
X253542516Y-102744091D01*
X253549444Y-102744835D01*
X253602127Y-102750500D01*
X255397872Y-102750499D01*
X255457483Y-102744091D01*
X255592331Y-102693796D01*
X255707546Y-102607546D01*
X255793796Y-102492331D01*
X255844091Y-102357483D01*
X255850500Y-102297873D01*
X255850499Y-101202128D01*
X255844091Y-101142517D01*
X255839353Y-101129815D01*
X255793797Y-101007671D01*
X255793793Y-101007664D01*
X255707547Y-100892455D01*
X255707544Y-100892452D01*
X255592335Y-100806206D01*
X255592328Y-100806202D01*
X255457482Y-100755908D01*
X255457483Y-100755908D01*
X255397883Y-100749501D01*
X255397881Y-100749500D01*
X255397873Y-100749500D01*
X255397864Y-100749500D01*
X253602129Y-100749500D01*
X253602123Y-100749501D01*
X253542516Y-100755908D01*
X253407671Y-100806202D01*
X253407664Y-100806206D01*
X253292455Y-100892452D01*
X253292452Y-100892455D01*
X253206206Y-101007664D01*
X253206202Y-101007671D01*
X253183391Y-101068833D01*
X253141520Y-101124767D01*
X253076056Y-101149184D01*
X253067209Y-101149500D01*
X249632791Y-101149500D01*
X249565752Y-101129815D01*
X249519997Y-101077011D01*
X249516609Y-101068833D01*
X249493797Y-101007671D01*
X249493793Y-101007664D01*
X249407547Y-100892455D01*
X249407544Y-100892452D01*
X249292335Y-100806206D01*
X249292328Y-100806202D01*
X249157482Y-100755908D01*
X249157483Y-100755908D01*
X249097883Y-100749501D01*
X249097881Y-100749500D01*
X249097873Y-100749500D01*
X249097864Y-100749500D01*
X247302129Y-100749500D01*
X247302123Y-100749501D01*
X247242516Y-100755908D01*
X247107671Y-100806202D01*
X247107664Y-100806206D01*
X246992455Y-100892452D01*
X246992452Y-100892455D01*
X246906206Y-101007664D01*
X246906202Y-101007671D01*
X246855908Y-101142517D01*
X246849501Y-101202116D01*
X246849501Y-101202123D01*
X246849500Y-101202135D01*
X246849500Y-102199902D01*
X246829815Y-102266941D01*
X246813181Y-102287583D01*
X243197584Y-105903181D01*
X243136261Y-105936666D01*
X243109903Y-105939500D01*
X241270252Y-105939500D01*
X241203213Y-105919815D01*
X241157458Y-105867011D01*
X241147514Y-105797853D01*
X241176539Y-105734297D01*
X241195940Y-105716234D01*
X241207546Y-105707546D01*
X241293796Y-105592331D01*
X241344091Y-105457483D01*
X241350500Y-105397873D01*
X241350499Y-103602128D01*
X241344091Y-103542517D01*
X241334388Y-103516503D01*
X241293797Y-103407671D01*
X241293793Y-103407664D01*
X241207547Y-103292455D01*
X241207544Y-103292452D01*
X241092335Y-103206206D01*
X241092328Y-103206202D01*
X240960917Y-103157189D01*
X240904983Y-103115318D01*
X240880566Y-103049853D01*
X240895418Y-102981580D01*
X240916563Y-102953332D01*
X241030104Y-102839792D01*
X241155051Y-102667816D01*
X241251557Y-102478412D01*
X241317246Y-102276243D01*
X241350500Y-102066287D01*
X241350500Y-101853713D01*
X241317246Y-101643757D01*
X241251557Y-101441588D01*
X241155051Y-101252184D01*
X241155049Y-101252181D01*
X241155048Y-101252179D01*
X241030109Y-101080213D01*
X240879786Y-100929890D01*
X240707820Y-100804951D01*
X240707115Y-100804591D01*
X240699054Y-100800485D01*
X240648259Y-100752512D01*
X240631463Y-100684692D01*
X240653999Y-100618556D01*
X240699054Y-100579515D01*
X240707816Y-100575051D01*
X240822167Y-100491971D01*
X240879786Y-100450109D01*
X240879788Y-100450106D01*
X240879792Y-100450104D01*
X241030104Y-100299792D01*
X241030106Y-100299788D01*
X241030109Y-100299786D01*
X241155048Y-100127820D01*
X241155047Y-100127820D01*
X241155051Y-100127816D01*
X241251557Y-99938412D01*
X241317246Y-99736243D01*
X241350500Y-99526287D01*
X241350500Y-99397648D01*
X243199500Y-99397648D01*
X243199500Y-99602351D01*
X243231522Y-99804534D01*
X243294781Y-99999223D01*
X243339940Y-100087851D01*
X243384090Y-100174500D01*
X243387715Y-100181613D01*
X243508028Y-100347213D01*
X243652786Y-100491971D01*
X243773281Y-100579514D01*
X243818390Y-100612287D01*
X243934607Y-100671503D01*
X244000776Y-100705218D01*
X244000778Y-100705218D01*
X244000781Y-100705220D01*
X244105137Y-100739127D01*
X244195465Y-100768477D01*
X244296557Y-100784488D01*
X244397648Y-100800500D01*
X244397649Y-100800500D01*
X244602351Y-100800500D01*
X244602352Y-100800500D01*
X244804534Y-100768477D01*
X244999219Y-100705220D01*
X245181610Y-100612287D01*
X245274590Y-100544732D01*
X245347213Y-100491971D01*
X245347215Y-100491968D01*
X245347219Y-100491966D01*
X245491966Y-100347219D01*
X245491968Y-100347215D01*
X245491971Y-100347213D01*
X245608144Y-100187312D01*
X245612287Y-100181610D01*
X245705220Y-99999219D01*
X245768477Y-99804534D01*
X245800500Y-99602352D01*
X245800500Y-99397648D01*
X245768477Y-99195466D01*
X245768030Y-99194091D01*
X245705218Y-99000776D01*
X245671503Y-98934607D01*
X245612287Y-98818390D01*
X245599289Y-98800500D01*
X245491971Y-98652786D01*
X245347213Y-98508028D01*
X245333196Y-98497844D01*
X246850000Y-98497844D01*
X246856401Y-98557372D01*
X246856403Y-98557379D01*
X246906645Y-98692086D01*
X246906649Y-98692093D01*
X246992809Y-98807187D01*
X246992812Y-98807190D01*
X247107906Y-98893350D01*
X247107913Y-98893354D01*
X247242620Y-98943596D01*
X247242627Y-98943598D01*
X247302155Y-98949999D01*
X247302172Y-98950000D01*
X247950000Y-98950000D01*
X248450000Y-98950000D01*
X249097828Y-98950000D01*
X249097844Y-98949999D01*
X249157372Y-98943598D01*
X249157379Y-98943596D01*
X249292086Y-98893354D01*
X249292093Y-98893350D01*
X249407187Y-98807190D01*
X249407190Y-98807187D01*
X249493350Y-98692093D01*
X249493354Y-98692086D01*
X249543596Y-98557379D01*
X249543598Y-98557372D01*
X249549999Y-98497844D01*
X253150000Y-98497844D01*
X253156401Y-98557372D01*
X253156403Y-98557379D01*
X253206645Y-98692086D01*
X253206649Y-98692093D01*
X253292809Y-98807187D01*
X253292812Y-98807190D01*
X253407906Y-98893350D01*
X253407913Y-98893354D01*
X253542620Y-98943596D01*
X253542627Y-98943598D01*
X253602155Y-98949999D01*
X253602172Y-98950000D01*
X254250000Y-98950000D01*
X254750000Y-98950000D01*
X255397828Y-98950000D01*
X255397844Y-98949999D01*
X255457372Y-98943598D01*
X255457379Y-98943596D01*
X255592086Y-98893354D01*
X255592093Y-98893350D01*
X255707187Y-98807190D01*
X255707190Y-98807187D01*
X255793350Y-98692093D01*
X255793354Y-98692086D01*
X255843596Y-98557379D01*
X255843598Y-98557372D01*
X255849999Y-98497844D01*
X255850000Y-98497827D01*
X255850000Y-98200000D01*
X254750000Y-98200000D01*
X254750000Y-98950000D01*
X254250000Y-98950000D01*
X254250000Y-98200000D01*
X253150000Y-98200000D01*
X253150000Y-98497844D01*
X249549999Y-98497844D01*
X249550000Y-98497827D01*
X249550000Y-98200000D01*
X248450000Y-98200000D01*
X248450000Y-98950000D01*
X247950000Y-98950000D01*
X247950000Y-98200000D01*
X246850000Y-98200000D01*
X246850000Y-98497844D01*
X245333196Y-98497844D01*
X245181613Y-98387715D01*
X245181612Y-98387714D01*
X245181610Y-98387713D01*
X245124653Y-98358691D01*
X244999223Y-98294781D01*
X244912394Y-98266569D01*
X244907414Y-98264951D01*
X244887998Y-98258642D01*
X244804534Y-98231522D01*
X244629995Y-98203878D01*
X244602352Y-98199500D01*
X244397648Y-98199500D01*
X244373329Y-98203351D01*
X244195465Y-98231522D01*
X244000776Y-98294781D01*
X243818386Y-98387715D01*
X243652786Y-98508028D01*
X243508028Y-98652786D01*
X243387715Y-98818386D01*
X243294781Y-99000776D01*
X243231522Y-99195465D01*
X243199500Y-99397648D01*
X241350500Y-99397648D01*
X241350500Y-99313713D01*
X241317246Y-99103757D01*
X241251557Y-98901588D01*
X241155051Y-98712184D01*
X241155049Y-98712181D01*
X241155048Y-98712179D01*
X241030109Y-98540213D01*
X240879786Y-98389890D01*
X240707820Y-98264951D01*
X240707115Y-98264591D01*
X240699054Y-98260485D01*
X240648259Y-98212512D01*
X240631463Y-98144692D01*
X240653999Y-98078556D01*
X240699054Y-98039515D01*
X240707816Y-98035051D01*
X240729789Y-98019086D01*
X240879786Y-97910109D01*
X240879788Y-97910106D01*
X240879792Y-97910104D01*
X241030104Y-97759792D01*
X241030106Y-97759788D01*
X241030109Y-97759786D01*
X241146792Y-97599184D01*
X241155051Y-97587816D01*
X241249650Y-97402155D01*
X246850000Y-97402155D01*
X246850000Y-97700000D01*
X247950000Y-97700000D01*
X248450000Y-97700000D01*
X249550000Y-97700000D01*
X249550000Y-97402172D01*
X249549999Y-97402155D01*
X253150000Y-97402155D01*
X253150000Y-97700000D01*
X254250000Y-97700000D01*
X254750000Y-97700000D01*
X255850000Y-97700000D01*
X255850000Y-97402172D01*
X255849999Y-97402155D01*
X255843598Y-97342627D01*
X255843596Y-97342620D01*
X255793354Y-97207913D01*
X255793350Y-97207906D01*
X255707190Y-97092812D01*
X255707187Y-97092809D01*
X255592093Y-97006649D01*
X255592086Y-97006645D01*
X255457379Y-96956403D01*
X255457372Y-96956401D01*
X255397844Y-96950000D01*
X254750000Y-96950000D01*
X254750000Y-97700000D01*
X254250000Y-97700000D01*
X254250000Y-96950000D01*
X253602155Y-96950000D01*
X253542627Y-96956401D01*
X253542620Y-96956403D01*
X253407913Y-97006645D01*
X253407906Y-97006649D01*
X253292812Y-97092809D01*
X253292809Y-97092812D01*
X253206649Y-97207906D01*
X253206645Y-97207913D01*
X253156403Y-97342620D01*
X253156401Y-97342627D01*
X253150000Y-97402155D01*
X249549999Y-97402155D01*
X249543598Y-97342627D01*
X249543596Y-97342620D01*
X249493354Y-97207913D01*
X249493350Y-97207906D01*
X249407190Y-97092812D01*
X249407187Y-97092809D01*
X249292093Y-97006649D01*
X249292086Y-97006645D01*
X249157379Y-96956403D01*
X249157372Y-96956401D01*
X249097844Y-96950000D01*
X248450000Y-96950000D01*
X248450000Y-97700000D01*
X247950000Y-97700000D01*
X247950000Y-96950000D01*
X247302155Y-96950000D01*
X247242627Y-96956401D01*
X247242620Y-96956403D01*
X247107913Y-97006645D01*
X247107906Y-97006649D01*
X246992812Y-97092809D01*
X246992809Y-97092812D01*
X246906649Y-97207906D01*
X246906645Y-97207913D01*
X246856403Y-97342620D01*
X246856401Y-97342627D01*
X246850000Y-97402155D01*
X241249650Y-97402155D01*
X241251557Y-97398412D01*
X241317246Y-97196243D01*
X241350500Y-96986287D01*
X241350500Y-96773713D01*
X241317246Y-96563757D01*
X241251557Y-96361588D01*
X241155051Y-96172184D01*
X241155049Y-96172181D01*
X241155048Y-96172179D01*
X241030109Y-96000213D01*
X240879791Y-95849895D01*
X240845276Y-95824819D01*
X240802610Y-95769489D01*
X240796631Y-95699876D01*
X240829236Y-95638080D01*
X240890075Y-95603723D01*
X240918161Y-95600500D01*
X243163331Y-95600500D01*
X243163347Y-95600501D01*
X243170943Y-95600501D01*
X243329054Y-95600501D01*
X243329057Y-95600501D01*
X243481785Y-95559577D01*
X243533879Y-95529500D01*
X243618716Y-95480520D01*
X243730520Y-95368716D01*
X243730520Y-95368714D01*
X243740724Y-95358511D01*
X243740728Y-95358506D01*
X245421133Y-93678100D01*
X245482454Y-93644617D01*
X245547126Y-93647851D01*
X245683757Y-93692246D01*
X245893713Y-93725500D01*
X245893714Y-93725500D01*
X246106286Y-93725500D01*
X246106287Y-93725500D01*
X246316243Y-93692246D01*
X246518412Y-93626557D01*
X246707816Y-93530051D01*
X246737505Y-93508481D01*
X246879786Y-93405109D01*
X246879788Y-93405106D01*
X246879792Y-93405104D01*
X247030104Y-93254792D01*
X247149683Y-93090204D01*
X247205011Y-93047540D01*
X247274624Y-93041561D01*
X247336420Y-93074166D01*
X247350313Y-93090199D01*
X247448251Y-93225000D01*
X247469896Y-93254792D01*
X247620213Y-93405109D01*
X247792179Y-93530048D01*
X247792181Y-93530049D01*
X247792184Y-93530051D01*
X247981588Y-93626557D01*
X248183757Y-93692246D01*
X248393713Y-93725500D01*
X248393714Y-93725500D01*
X248606286Y-93725500D01*
X248606287Y-93725500D01*
X248816243Y-93692246D01*
X249018412Y-93626557D01*
X249207816Y-93530051D01*
X249313965Y-93452930D01*
X249379784Y-93405110D01*
X249379784Y-93405109D01*
X249379792Y-93405104D01*
X249518967Y-93265928D01*
X249580286Y-93232446D01*
X249649978Y-93237430D01*
X249705912Y-93279301D01*
X249712184Y-93288515D01*
X249807684Y-93443345D01*
X249931654Y-93567315D01*
X250080875Y-93659356D01*
X250080880Y-93659358D01*
X250247302Y-93714505D01*
X250247309Y-93714506D01*
X250350019Y-93724999D01*
X250749999Y-93724999D01*
X250750000Y-93724998D01*
X250750000Y-92654145D01*
X250816657Y-92692630D01*
X250937465Y-92725000D01*
X251062535Y-92725000D01*
X251183343Y-92692630D01*
X251250000Y-92654145D01*
X251250000Y-93724999D01*
X251649972Y-93724999D01*
X251649986Y-93724998D01*
X251752697Y-93714505D01*
X251919119Y-93659358D01*
X251919124Y-93659356D01*
X252068345Y-93567315D01*
X252192315Y-93443345D01*
X252284356Y-93294124D01*
X252284358Y-93294119D01*
X252339505Y-93127697D01*
X252339506Y-93127690D01*
X252349999Y-93024986D01*
X252350000Y-93024973D01*
X252350000Y-92500000D01*
X251404146Y-92500000D01*
X251442630Y-92433343D01*
X251475000Y-92312535D01*
X251475000Y-92187465D01*
X251442630Y-92066657D01*
X251404146Y-92000000D01*
X252349999Y-92000000D01*
X252349999Y-91475028D01*
X252349998Y-91475013D01*
X252339505Y-91372302D01*
X252284358Y-91205880D01*
X252284356Y-91205875D01*
X252192315Y-91056654D01*
X252068345Y-90932684D01*
X251919124Y-90840643D01*
X251919119Y-90840641D01*
X251752697Y-90785494D01*
X251752690Y-90785493D01*
X251649986Y-90775000D01*
X251250000Y-90775000D01*
X251250000Y-91845854D01*
X251183343Y-91807370D01*
X251062535Y-91775000D01*
X250937465Y-91775000D01*
X250816657Y-91807370D01*
X250750000Y-91845854D01*
X250750000Y-90775000D01*
X250350028Y-90775000D01*
X250350012Y-90775001D01*
X250247302Y-90785494D01*
X250080880Y-90840641D01*
X250080875Y-90840643D01*
X249931654Y-90932684D01*
X249807683Y-91056655D01*
X249807680Y-91056659D01*
X249730038Y-91182537D01*
X249678091Y-91229262D01*
X249609128Y-91240483D01*
X249545046Y-91212640D01*
X249506190Y-91154571D01*
X249500500Y-91117440D01*
X249500500Y-86990782D01*
X249520185Y-86923743D01*
X249536819Y-86903101D01*
X250378102Y-86061819D01*
X250439425Y-86028334D01*
X250465783Y-86025500D01*
X250548543Y-86025500D01*
X250646990Y-86005917D01*
X250741835Y-85987051D01*
X250746936Y-85984937D01*
X250794386Y-85975500D01*
X250831613Y-85975500D01*
X250831616Y-85975500D01*
X250902196Y-85969086D01*
X251064606Y-85918478D01*
X251210185Y-85830472D01*
X251330472Y-85710185D01*
X251418478Y-85564606D01*
X251469086Y-85402196D01*
X251475500Y-85331616D01*
X251475500Y-84818384D01*
X251469086Y-84747804D01*
X251418478Y-84585394D01*
X251330472Y-84439815D01*
X251330470Y-84439813D01*
X251330469Y-84439811D01*
X251228339Y-84337681D01*
X251194854Y-84276358D01*
X251199838Y-84206666D01*
X251228339Y-84162319D01*
X251330468Y-84060189D01*
X251330469Y-84060188D01*
X251330472Y-84060185D01*
X251418478Y-83914606D01*
X251469086Y-83752196D01*
X251475500Y-83681616D01*
X251475500Y-83168384D01*
X251469086Y-83097804D01*
X251418478Y-82935394D01*
X251330472Y-82789815D01*
X251330470Y-82789813D01*
X251330469Y-82789811D01*
X251210188Y-82669530D01*
X251185785Y-82654778D01*
X251064606Y-82581522D01*
X250902196Y-82530914D01*
X250902194Y-82530913D01*
X250902192Y-82530913D01*
X250852778Y-82526423D01*
X250831616Y-82524500D01*
X250168384Y-82524500D01*
X250151845Y-82526003D01*
X250097807Y-82530913D01*
X249935393Y-82581522D01*
X249789811Y-82669530D01*
X249669531Y-82789810D01*
X249669528Y-82789814D01*
X249654514Y-82814651D01*
X249602986Y-82861838D01*
X249548398Y-82874500D01*
X246940004Y-82874500D01*
X246872965Y-82854815D01*
X246834465Y-82815596D01*
X246822968Y-82796956D01*
X246703045Y-82677033D01*
X246703044Y-82677032D01*
X246659401Y-82650112D01*
X246612679Y-82598164D01*
X246600501Y-82544575D01*
X246600501Y-82495945D01*
X246600501Y-82495943D01*
X246559577Y-82343215D01*
X246518977Y-82272894D01*
X246480520Y-82206284D01*
X246368716Y-82094480D01*
X246368715Y-82094479D01*
X246364385Y-82090149D01*
X246364374Y-82090139D01*
X245761819Y-81487584D01*
X245728334Y-81426261D01*
X245725500Y-81399903D01*
X245725500Y-81068386D01*
X245723553Y-81046956D01*
X245719086Y-80997804D01*
X245668478Y-80835394D01*
X245580472Y-80689815D01*
X245580470Y-80689813D01*
X245580469Y-80689811D01*
X245477984Y-80587326D01*
X245444499Y-80526003D01*
X245449483Y-80456311D01*
X245477985Y-80411963D01*
X245580071Y-80309878D01*
X245580072Y-80309877D01*
X245668019Y-80164395D01*
X245718590Y-80002106D01*
X245725000Y-79931572D01*
X245725000Y-79925000D01*
X243775001Y-79925000D01*
X243775001Y-79931582D01*
X243781408Y-80002102D01*
X243781409Y-80002107D01*
X243831981Y-80164396D01*
X243919927Y-80309877D01*
X244022015Y-80411965D01*
X244026353Y-80419910D01*
X244033601Y-80425336D01*
X244042835Y-80450095D01*
X244055500Y-80473288D01*
X244054854Y-80482317D01*
X244058018Y-80490800D01*
X244052401Y-80516620D01*
X244050516Y-80542980D01*
X244044697Y-80552033D01*
X244043166Y-80559073D01*
X244022015Y-80587327D01*
X243921161Y-80688181D01*
X243859838Y-80721666D01*
X243833480Y-80724500D01*
X239412875Y-80724500D01*
X239345836Y-80704815D01*
X239300081Y-80652011D01*
X239291258Y-80624692D01*
X239269738Y-80516508D01*
X239269737Y-80516507D01*
X239269737Y-80516503D01*
X239254218Y-80479037D01*
X239209397Y-80370827D01*
X239209390Y-80370814D01*
X239121789Y-80239711D01*
X239121786Y-80239707D01*
X239010292Y-80128213D01*
X239010288Y-80128210D01*
X238879185Y-80040609D01*
X238879172Y-80040602D01*
X238733501Y-79980264D01*
X238733489Y-79980261D01*
X238578845Y-79949500D01*
X238578842Y-79949500D01*
X238421158Y-79949500D01*
X238421155Y-79949500D01*
X238266510Y-79980261D01*
X238266498Y-79980264D01*
X238120827Y-80040602D01*
X238120814Y-80040609D01*
X237993391Y-80125751D01*
X237926713Y-80146629D01*
X237859333Y-80128144D01*
X237812643Y-80076165D01*
X237800500Y-80022649D01*
X237800500Y-79418427D01*
X243775000Y-79418427D01*
X243775000Y-79425000D01*
X244500000Y-79425000D01*
X245000000Y-79425000D01*
X245724999Y-79425000D01*
X245724999Y-79418417D01*
X245718591Y-79347897D01*
X245718590Y-79347892D01*
X245668018Y-79185603D01*
X245580072Y-79040122D01*
X245459877Y-78919927D01*
X245314395Y-78831980D01*
X245314396Y-78831980D01*
X245152105Y-78781409D01*
X245152106Y-78781409D01*
X245081572Y-78775000D01*
X245000000Y-78775000D01*
X245000000Y-79425000D01*
X244500000Y-79425000D01*
X244500000Y-78775000D01*
X244499999Y-78774999D01*
X244418417Y-78775000D01*
X244347897Y-78781408D01*
X244347892Y-78781409D01*
X244185603Y-78831981D01*
X244040122Y-78919927D01*
X243919927Y-79040122D01*
X243831980Y-79185604D01*
X243781409Y-79347893D01*
X243775000Y-79418427D01*
X237800500Y-79418427D01*
X237800500Y-78775096D01*
X237820185Y-78708057D01*
X237836814Y-78687420D01*
X239098528Y-77425706D01*
X239159847Y-77392224D01*
X239229539Y-77397208D01*
X239285472Y-77439080D01*
X239304590Y-77476498D01*
X239331981Y-77564397D01*
X239419927Y-77709877D01*
X239540122Y-77830072D01*
X239685604Y-77918019D01*
X239685603Y-77918019D01*
X239847894Y-77968590D01*
X239847892Y-77968590D01*
X239918418Y-77974999D01*
X240500000Y-77974999D01*
X240581581Y-77974999D01*
X240652102Y-77968591D01*
X240652107Y-77968590D01*
X240814396Y-77918018D01*
X240959877Y-77830072D01*
X241080072Y-77709877D01*
X241168019Y-77564395D01*
X241218590Y-77402106D01*
X241225000Y-77331572D01*
X241225000Y-77325000D01*
X240500000Y-77325000D01*
X240500000Y-77974999D01*
X239918418Y-77974999D01*
X239999999Y-77974998D01*
X240000000Y-77974998D01*
X240000000Y-77298322D01*
X243275001Y-77298322D01*
X243285144Y-77397607D01*
X243338452Y-77558481D01*
X243338457Y-77558492D01*
X243427424Y-77702728D01*
X243427427Y-77702732D01*
X243547267Y-77822572D01*
X243547271Y-77822575D01*
X243691507Y-77911542D01*
X243691518Y-77911547D01*
X243852393Y-77964855D01*
X243951683Y-77974999D01*
X244500000Y-77974999D01*
X244548308Y-77974999D01*
X244548322Y-77974998D01*
X244647607Y-77964855D01*
X244808481Y-77911547D01*
X244808492Y-77911542D01*
X244952728Y-77822575D01*
X244952732Y-77822572D01*
X245072572Y-77702732D01*
X245072575Y-77702728D01*
X245161542Y-77558492D01*
X245161547Y-77558481D01*
X245214855Y-77397606D01*
X245224999Y-77298322D01*
X245225000Y-77298309D01*
X245225000Y-77275000D01*
X244500000Y-77275000D01*
X244500000Y-77974999D01*
X243951683Y-77974999D01*
X243999999Y-77974998D01*
X244000000Y-77974998D01*
X244000000Y-77275000D01*
X243275001Y-77275000D01*
X243275001Y-77298322D01*
X240000000Y-77298322D01*
X240000000Y-77199000D01*
X240019685Y-77131961D01*
X240072489Y-77086206D01*
X240124000Y-77075000D01*
X240250000Y-77075000D01*
X240250000Y-76949000D01*
X240269685Y-76881961D01*
X240322489Y-76836206D01*
X240374000Y-76825000D01*
X241224999Y-76825000D01*
X241224999Y-76818417D01*
X241218591Y-76747897D01*
X241218590Y-76747892D01*
X241168018Y-76585603D01*
X241080072Y-76440122D01*
X240977984Y-76338034D01*
X240973645Y-76330088D01*
X240966397Y-76324662D01*
X240957162Y-76299902D01*
X240944499Y-76276711D01*
X240945144Y-76267680D01*
X240941981Y-76259198D01*
X240947597Y-76233377D01*
X240949483Y-76207019D01*
X240955301Y-76197965D01*
X240956833Y-76190925D01*
X240977982Y-76162674D01*
X241052991Y-76087666D01*
X241078840Y-76061818D01*
X241140163Y-76028334D01*
X241166520Y-76025500D01*
X243279155Y-76025500D01*
X243346194Y-76045185D01*
X243384693Y-76084403D01*
X243427029Y-76153040D01*
X243427032Y-76153044D01*
X243436660Y-76162672D01*
X243470145Y-76223995D01*
X243465161Y-76293687D01*
X243436663Y-76338031D01*
X243427428Y-76347265D01*
X243427424Y-76347271D01*
X243338457Y-76491507D01*
X243338452Y-76491518D01*
X243285144Y-76652393D01*
X243275000Y-76751677D01*
X243275000Y-76775000D01*
X245224999Y-76775000D01*
X245224999Y-76751692D01*
X245224998Y-76751677D01*
X245214855Y-76652392D01*
X245161547Y-76491518D01*
X245161542Y-76491507D01*
X245072575Y-76347271D01*
X245072572Y-76347267D01*
X245063339Y-76338034D01*
X245029854Y-76276711D01*
X245034838Y-76207019D01*
X245063343Y-76162668D01*
X245072968Y-76153044D01*
X245162003Y-76008697D01*
X245215349Y-75847708D01*
X245225500Y-75748345D01*
X245225499Y-75201656D01*
X245222100Y-75168386D01*
X245215349Y-75102292D01*
X245215348Y-75102289D01*
X245191839Y-75031344D01*
X245162003Y-74941303D01*
X245161999Y-74941297D01*
X245161998Y-74941294D01*
X245072970Y-74796959D01*
X245072967Y-74796955D01*
X244953044Y-74677032D01*
X244953040Y-74677029D01*
X244808705Y-74588001D01*
X244808699Y-74587998D01*
X244808697Y-74587997D01*
X244808694Y-74587996D01*
X244647709Y-74534651D01*
X244548346Y-74524500D01*
X243951662Y-74524500D01*
X243951644Y-74524501D01*
X243852292Y-74534650D01*
X243852289Y-74534651D01*
X243691305Y-74587996D01*
X243691294Y-74588001D01*
X243546959Y-74677029D01*
X243546955Y-74677032D01*
X243435807Y-74788181D01*
X243374484Y-74821666D01*
X243348126Y-74824500D01*
X241166520Y-74824500D01*
X241137079Y-74815855D01*
X241107093Y-74809332D01*
X241102077Y-74805577D01*
X241099481Y-74804815D01*
X241078839Y-74788181D01*
X240965839Y-74675181D01*
X240932354Y-74613858D01*
X240937338Y-74544166D01*
X240965839Y-74499819D01*
X241080468Y-74385189D01*
X241080469Y-74385188D01*
X241080472Y-74385185D01*
X241168478Y-74239606D01*
X241219086Y-74077196D01*
X241225500Y-74006616D01*
X241225500Y-73493384D01*
X241219086Y-73422804D01*
X241168478Y-73260394D01*
X241080472Y-73114815D01*
X241080470Y-73114813D01*
X241080469Y-73114811D01*
X240978339Y-73012681D01*
X240944854Y-72951358D01*
X240949838Y-72881666D01*
X240978339Y-72837319D01*
X241080468Y-72735189D01*
X241080469Y-72735188D01*
X241080472Y-72735185D01*
X241168478Y-72589606D01*
X241219086Y-72427196D01*
X241225500Y-72356616D01*
X241225500Y-72336434D01*
X241226443Y-72321169D01*
X241226998Y-72316687D01*
X241250500Y-72198541D01*
X241250500Y-72127235D01*
X241251443Y-72119634D01*
X241262414Y-72094323D01*
X241270185Y-72067860D01*
X241276111Y-72062724D01*
X241279231Y-72055528D01*
X241302145Y-72040165D01*
X241322989Y-72022105D01*
X241330750Y-72020988D01*
X241337266Y-72016621D01*
X241364846Y-72016086D01*
X241392147Y-72012161D01*
X241401789Y-72015370D01*
X241407122Y-72015267D01*
X241413764Y-72019356D01*
X241433926Y-72026066D01*
X241595544Y-72114316D01*
X241599357Y-72116487D01*
X241949477Y-72324223D01*
X242501264Y-72651614D01*
X242505029Y-72653941D01*
X243387170Y-73220858D01*
X243390851Y-73223317D01*
X243678167Y-73422804D01*
X244252266Y-73821407D01*
X244255818Y-73823969D01*
X245095304Y-74452401D01*
X245098800Y-74455116D01*
X245915333Y-75113120D01*
X245918730Y-75115959D01*
X246711244Y-75802676D01*
X246714537Y-75805634D01*
X247482046Y-76520210D01*
X247485231Y-76523284D01*
X248226715Y-77264768D01*
X248229789Y-77267953D01*
X248944365Y-78035462D01*
X248947323Y-78038755D01*
X249634040Y-78831269D01*
X249636879Y-78834666D01*
X250294883Y-79651199D01*
X250297598Y-79654695D01*
X250541316Y-79980264D01*
X250914693Y-80479037D01*
X250926016Y-80494162D01*
X250928599Y-80497744D01*
X250966293Y-80552033D01*
X251526682Y-81359148D01*
X251529141Y-81362829D01*
X252096058Y-82244970D01*
X252098385Y-82248735D01*
X252633502Y-83150625D01*
X252635692Y-83154472D01*
X253138242Y-84074824D01*
X253140294Y-84078746D01*
X253609701Y-85016502D01*
X253611611Y-85020496D01*
X254047219Y-85974344D01*
X254048986Y-85978402D01*
X254300291Y-86585106D01*
X254431632Y-86902192D01*
X254450288Y-86947230D01*
X254451905Y-86951340D01*
X254795042Y-87871323D01*
X254818385Y-87933908D01*
X254819857Y-87938083D01*
X255151008Y-88933036D01*
X255152331Y-88937260D01*
X255447773Y-89943442D01*
X255448944Y-89947711D01*
X255708280Y-90963780D01*
X255709298Y-90968088D01*
X255932201Y-91992756D01*
X255933065Y-91997097D01*
X256119259Y-93029100D01*
X256119967Y-93033470D01*
X256269203Y-94071429D01*
X256269755Y-94075821D01*
X256381853Y-95118484D01*
X256382247Y-95122893D01*
X256457055Y-96168849D01*
X256457292Y-96173269D01*
X256494722Y-97221251D01*
X256494801Y-97225677D01*
X256494801Y-98274322D01*
X256494722Y-98278748D01*
X256457292Y-99326730D01*
X256457055Y-99331150D01*
X256382247Y-100377106D01*
X256381853Y-100381515D01*
X256269755Y-101424178D01*
X256269203Y-101428570D01*
X256119967Y-102466529D01*
X256119259Y-102470899D01*
X255933065Y-103502902D01*
X255932201Y-103507243D01*
X255709298Y-104531911D01*
X255708280Y-104536219D01*
X255448944Y-105552288D01*
X255447773Y-105556557D01*
X255152331Y-106562739D01*
X255151008Y-106566963D01*
X254819857Y-107561916D01*
X254818385Y-107566091D01*
X254451909Y-108548650D01*
X254450288Y-108552769D01*
X254048986Y-109521597D01*
X254047219Y-109525655D01*
X253611611Y-110479503D01*
X253609701Y-110483497D01*
X253140294Y-111421253D01*
X253138242Y-111425175D01*
X252635692Y-112345527D01*
X252633502Y-112349374D01*
X252098385Y-113251264D01*
X252096058Y-113255029D01*
X251529141Y-114137170D01*
X251526682Y-114140851D01*
X250928605Y-115002247D01*
X250926016Y-115005837D01*
X250297598Y-115845304D01*
X250294883Y-115848800D01*
X249636879Y-116665333D01*
X249634040Y-116668730D01*
X248947323Y-117461244D01*
X248944365Y-117464537D01*
X248229789Y-118232046D01*
X248226715Y-118235231D01*
X247485231Y-118976715D01*
X247482046Y-118979789D01*
X246714537Y-119694365D01*
X246711244Y-119697323D01*
X245918730Y-120384040D01*
X245915333Y-120386879D01*
X245098800Y-121044883D01*
X245095304Y-121047598D01*
X244255837Y-121676016D01*
X244252247Y-121678605D01*
X243390851Y-122276682D01*
X243387170Y-122279141D01*
X242505029Y-122846058D01*
X242501264Y-122848385D01*
X241599374Y-123383502D01*
X241595527Y-123385692D01*
X240675175Y-123888242D01*
X240671253Y-123890294D01*
X239733497Y-124359701D01*
X239729503Y-124361611D01*
X238775655Y-124797219D01*
X238771597Y-124798986D01*
X237802769Y-125200288D01*
X237798650Y-125201909D01*
X236816091Y-125568385D01*
X236811916Y-125569857D01*
X235816963Y-125901008D01*
X235812739Y-125902331D01*
X234806557Y-126197773D01*
X234802288Y-126198944D01*
X233786219Y-126458280D01*
X233781911Y-126459298D01*
X232757243Y-126682201D01*
X232752902Y-126683065D01*
X231720899Y-126869259D01*
X231716529Y-126869967D01*
X230678570Y-127019203D01*
X230674178Y-127019755D01*
X229631515Y-127131853D01*
X229627106Y-127132247D01*
X228581150Y-127207055D01*
X228576730Y-127207292D01*
X227528749Y-127244722D01*
X227524323Y-127244801D01*
X226475677Y-127244801D01*
X226471251Y-127244722D01*
X225423269Y-127207292D01*
X225418849Y-127207055D01*
X224372893Y-127132247D01*
X224368484Y-127131853D01*
X223325821Y-127019755D01*
X223321429Y-127019203D01*
X222283470Y-126869967D01*
X222279100Y-126869259D01*
X221247097Y-126683065D01*
X221242756Y-126682201D01*
X220218088Y-126459298D01*
X220213780Y-126458280D01*
X219197711Y-126198944D01*
X219193442Y-126197773D01*
X218187260Y-125902331D01*
X218183036Y-125901008D01*
X217188083Y-125569857D01*
X217183908Y-125568385D01*
X216201349Y-125201909D01*
X216197240Y-125200291D01*
X216007650Y-125121761D01*
X215228402Y-124798986D01*
X215224344Y-124797219D01*
X214270496Y-124361611D01*
X214266502Y-124359701D01*
X213328746Y-123890294D01*
X213324824Y-123888242D01*
X212404472Y-123385692D01*
X212400625Y-123383502D01*
X211498735Y-122848385D01*
X211494970Y-122846058D01*
X210612829Y-122279141D01*
X210609148Y-122276682D01*
X209747752Y-121678605D01*
X209744162Y-121676016D01*
X209567968Y-121544119D01*
X209061638Y-121165084D01*
X208904695Y-121047598D01*
X208901199Y-121044883D01*
X208084666Y-120386879D01*
X208081269Y-120384040D01*
X207288755Y-119697323D01*
X207285462Y-119694365D01*
X206517953Y-118979789D01*
X206514768Y-118976715D01*
X205773284Y-118235231D01*
X205770210Y-118232046D01*
X205055634Y-117464537D01*
X205052676Y-117461244D01*
X204365959Y-116668730D01*
X204363120Y-116665333D01*
X203705116Y-115848800D01*
X203702401Y-115845304D01*
X203425569Y-115475500D01*
X203073969Y-115005818D01*
X203071407Y-115002266D01*
X202704445Y-114473739D01*
X202473317Y-114140851D01*
X202470858Y-114137170D01*
X201903941Y-113255029D01*
X201901614Y-113251264D01*
X201660698Y-112845222D01*
X201366487Y-112349357D01*
X201364307Y-112345527D01*
X201351109Y-112321357D01*
X200861757Y-111425175D01*
X200859705Y-111421253D01*
X200390298Y-110483497D01*
X200388388Y-110479503D01*
X199952780Y-109525655D01*
X199951013Y-109521597D01*
X199768728Y-109081522D01*
X199549695Y-108552730D01*
X199548105Y-108548688D01*
X199181601Y-107566055D01*
X199180155Y-107561953D01*
X198937065Y-106831582D01*
X201025001Y-106831582D01*
X201031408Y-106902102D01*
X201031409Y-106902107D01*
X201081981Y-107064396D01*
X201169927Y-107209877D01*
X201290122Y-107330072D01*
X201435604Y-107418019D01*
X201435603Y-107418019D01*
X201597894Y-107468590D01*
X201597892Y-107468590D01*
X201668418Y-107474999D01*
X202250000Y-107474999D01*
X202331581Y-107474999D01*
X202402102Y-107468591D01*
X202402107Y-107468590D01*
X202564396Y-107418018D01*
X202709877Y-107330072D01*
X202830072Y-107209877D01*
X202918019Y-107064395D01*
X202968590Y-106902106D01*
X202975000Y-106831572D01*
X202975000Y-106825000D01*
X202250000Y-106825000D01*
X202250000Y-107474999D01*
X201668418Y-107474999D01*
X201749999Y-107474998D01*
X201750000Y-107474998D01*
X201750000Y-106825000D01*
X201025001Y-106825000D01*
X201025001Y-106831582D01*
X198937065Y-106831582D01*
X198848991Y-106566963D01*
X198847668Y-106562739D01*
X198802935Y-106410393D01*
X198552219Y-105556531D01*
X198551062Y-105552314D01*
X198291716Y-104536207D01*
X198290701Y-104531911D01*
X198283354Y-104498137D01*
X198067794Y-103507223D01*
X198066934Y-103502902D01*
X198066794Y-103502128D01*
X197880737Y-102470886D01*
X197880032Y-102466529D01*
X197787075Y-101820000D01*
X198305138Y-101820000D01*
X199108012Y-101820000D01*
X199090795Y-101829940D01*
X199034940Y-101885795D01*
X198995444Y-101954204D01*
X198975000Y-102030504D01*
X198975000Y-102109496D01*
X198995444Y-102185796D01*
X199034940Y-102254205D01*
X199090795Y-102310060D01*
X199108012Y-102320000D01*
X198305138Y-102320000D01*
X198313430Y-102361690D01*
X198313430Y-102361692D01*
X198388807Y-102543671D01*
X198388814Y-102543684D01*
X198498248Y-102707462D01*
X198498251Y-102707466D01*
X198637533Y-102846748D01*
X198637537Y-102846751D01*
X198801315Y-102956185D01*
X198801328Y-102956192D01*
X198983306Y-103031569D01*
X198983318Y-103031572D01*
X199176504Y-103069999D01*
X199176508Y-103070000D01*
X199425000Y-103070000D01*
X199425000Y-102370000D01*
X199925000Y-102370000D01*
X199925000Y-103070000D01*
X200173492Y-103070000D01*
X200173495Y-103069999D01*
X200366681Y-103031572D01*
X200366693Y-103031569D01*
X200548671Y-102956192D01*
X200548684Y-102956185D01*
X200712462Y-102846751D01*
X200712466Y-102846748D01*
X200851748Y-102707466D01*
X200851751Y-102707462D01*
X200961185Y-102543684D01*
X200961192Y-102543671D01*
X201036569Y-102361692D01*
X201036569Y-102361690D01*
X201044862Y-102320000D01*
X200241988Y-102320000D01*
X200259205Y-102310060D01*
X200315060Y-102254205D01*
X200354556Y-102185796D01*
X200375000Y-102109496D01*
X200375000Y-102030504D01*
X200354556Y-101954204D01*
X200315060Y-101885795D01*
X200259205Y-101829940D01*
X200241988Y-101820000D01*
X201044862Y-101820000D01*
X201036569Y-101778309D01*
X201036569Y-101778307D01*
X200961192Y-101596328D01*
X200961185Y-101596315D01*
X200851751Y-101432537D01*
X200851748Y-101432533D01*
X200712466Y-101293251D01*
X200712462Y-101293248D01*
X200548684Y-101183814D01*
X200548671Y-101183807D01*
X200366693Y-101108430D01*
X200366681Y-101108427D01*
X200173495Y-101070000D01*
X199925000Y-101070000D01*
X199925000Y-101770000D01*
X199425000Y-101770000D01*
X199425000Y-101070000D01*
X199176504Y-101070000D01*
X198983318Y-101108427D01*
X198983306Y-101108430D01*
X198801328Y-101183807D01*
X198801315Y-101183814D01*
X198637537Y-101293248D01*
X198637533Y-101293251D01*
X198498251Y-101432533D01*
X198498248Y-101432537D01*
X198388814Y-101596315D01*
X198388807Y-101596328D01*
X198313430Y-101778307D01*
X198313430Y-101778309D01*
X198305138Y-101820000D01*
X197787075Y-101820000D01*
X197730793Y-101428552D01*
X197730244Y-101424178D01*
X197726852Y-101392627D01*
X197618141Y-100381464D01*
X197617756Y-100377158D01*
X197542943Y-99331146D01*
X197542707Y-99326730D01*
X197536173Y-99143797D01*
X197505278Y-98278748D01*
X197505199Y-98274322D01*
X197505199Y-97225677D01*
X197505278Y-97221251D01*
X197507007Y-97172833D01*
X197542707Y-96173263D01*
X197542944Y-96168849D01*
X197545231Y-96136868D01*
X197617757Y-95122836D01*
X197618140Y-95118540D01*
X197730247Y-94075796D01*
X197730796Y-94071429D01*
X197731366Y-94067466D01*
X197858964Y-93180000D01*
X198305138Y-93180000D01*
X199108012Y-93180000D01*
X199090795Y-93189940D01*
X199034940Y-93245795D01*
X198995444Y-93314204D01*
X198975000Y-93390504D01*
X198975000Y-93469496D01*
X198995444Y-93545796D01*
X199034940Y-93614205D01*
X199090795Y-93670060D01*
X199108012Y-93680000D01*
X198305138Y-93680000D01*
X198313430Y-93721690D01*
X198313430Y-93721692D01*
X198388807Y-93903671D01*
X198388814Y-93903684D01*
X198498248Y-94067462D01*
X198498251Y-94067466D01*
X198637533Y-94206748D01*
X198637537Y-94206751D01*
X198801315Y-94316185D01*
X198801328Y-94316192D01*
X198983306Y-94391569D01*
X198983318Y-94391572D01*
X199176504Y-94429999D01*
X199176508Y-94430000D01*
X199425000Y-94430000D01*
X199425000Y-93730000D01*
X199925000Y-93730000D01*
X199925000Y-94430000D01*
X200173492Y-94430000D01*
X200173495Y-94429999D01*
X200366681Y-94391572D01*
X200366693Y-94391569D01*
X200548671Y-94316192D01*
X200548684Y-94316185D01*
X200712462Y-94206751D01*
X200712466Y-94206748D01*
X200851748Y-94067466D01*
X200851751Y-94067462D01*
X200961185Y-93903684D01*
X200961192Y-93903671D01*
X201036569Y-93721692D01*
X201036569Y-93721690D01*
X201044862Y-93680000D01*
X200241988Y-93680000D01*
X200259205Y-93670060D01*
X200315060Y-93614205D01*
X200354556Y-93545796D01*
X200375000Y-93469496D01*
X200375000Y-93390504D01*
X200354556Y-93314204D01*
X200315060Y-93245795D01*
X200259205Y-93189940D01*
X200241988Y-93180000D01*
X201044862Y-93180000D01*
X201036569Y-93138309D01*
X201036569Y-93138307D01*
X200961192Y-92956328D01*
X200961185Y-92956315D01*
X200851751Y-92792537D01*
X200851748Y-92792533D01*
X200712466Y-92653251D01*
X200712462Y-92653248D01*
X200548684Y-92543814D01*
X200548671Y-92543807D01*
X200366693Y-92468430D01*
X200366681Y-92468427D01*
X200173495Y-92430000D01*
X199925000Y-92430000D01*
X199925000Y-93130000D01*
X199425000Y-93130000D01*
X199425000Y-92430000D01*
X199176504Y-92430000D01*
X198983318Y-92468427D01*
X198983306Y-92468430D01*
X198801328Y-92543807D01*
X198801315Y-92543814D01*
X198637537Y-92653248D01*
X198637533Y-92653251D01*
X198498251Y-92792533D01*
X198498248Y-92792537D01*
X198388814Y-92956315D01*
X198388807Y-92956328D01*
X198313430Y-93138307D01*
X198313430Y-93138309D01*
X198305138Y-93180000D01*
X197858964Y-93180000D01*
X197880035Y-93033447D01*
X197880740Y-93029100D01*
X198066940Y-91997066D01*
X198067791Y-91992787D01*
X198290706Y-90968063D01*
X198291719Y-90963780D01*
X198551065Y-89947671D01*
X198552214Y-89943482D01*
X198779791Y-89168427D01*
X201025000Y-89168427D01*
X201025000Y-89175000D01*
X201750000Y-89175000D01*
X202250000Y-89175000D01*
X202974999Y-89175000D01*
X202974999Y-89168417D01*
X202968591Y-89097897D01*
X202968590Y-89097892D01*
X202918018Y-88935603D01*
X202830072Y-88790122D01*
X202709877Y-88669927D01*
X202564395Y-88581980D01*
X202564396Y-88581980D01*
X202402105Y-88531409D01*
X202402106Y-88531409D01*
X202331572Y-88525000D01*
X202250000Y-88525000D01*
X202250000Y-89175000D01*
X201750000Y-89175000D01*
X201750000Y-88525000D01*
X201749999Y-88524999D01*
X201668417Y-88525000D01*
X201597897Y-88531408D01*
X201597892Y-88531409D01*
X201435603Y-88581981D01*
X201290122Y-88669927D01*
X201169927Y-88790122D01*
X201081980Y-88935604D01*
X201031409Y-89097893D01*
X201025000Y-89168427D01*
X198779791Y-89168427D01*
X198847672Y-88937246D01*
X198848991Y-88933036D01*
X199180161Y-87938029D01*
X199181594Y-87933962D01*
X199548112Y-86951292D01*
X199549688Y-86947288D01*
X199740833Y-86485822D01*
X203912501Y-86485822D01*
X203922644Y-86585107D01*
X203975952Y-86745981D01*
X203975957Y-86745992D01*
X204064924Y-86890228D01*
X204064927Y-86890232D01*
X204184767Y-87010072D01*
X204184771Y-87010075D01*
X204329007Y-87099042D01*
X204329018Y-87099047D01*
X204489893Y-87152355D01*
X204589183Y-87162499D01*
X205137500Y-87162499D01*
X205185808Y-87162499D01*
X205185822Y-87162498D01*
X205285107Y-87152355D01*
X205445981Y-87099047D01*
X205445992Y-87099042D01*
X205590228Y-87010075D01*
X205590232Y-87010072D01*
X205710072Y-86890232D01*
X205710075Y-86890228D01*
X205799042Y-86745992D01*
X205799047Y-86745981D01*
X205852355Y-86585106D01*
X205859101Y-86519082D01*
X208412501Y-86519082D01*
X208418908Y-86589602D01*
X208418909Y-86589607D01*
X208469481Y-86751896D01*
X208557427Y-86897377D01*
X208677622Y-87017572D01*
X208823104Y-87105519D01*
X208823103Y-87105519D01*
X208985394Y-87156090D01*
X208985392Y-87156090D01*
X209055918Y-87162499D01*
X209637500Y-87162499D01*
X209719081Y-87162499D01*
X209789602Y-87156091D01*
X209789607Y-87156090D01*
X209951896Y-87105518D01*
X210097377Y-87017572D01*
X210217572Y-86897377D01*
X210305519Y-86751895D01*
X210356090Y-86589606D01*
X210362500Y-86519072D01*
X210362500Y-86512500D01*
X209637500Y-86512500D01*
X209637500Y-87162499D01*
X209055918Y-87162499D01*
X209137499Y-87162498D01*
X209137500Y-87162498D01*
X209137500Y-86512500D01*
X208412501Y-86512500D01*
X208412501Y-86519082D01*
X205859101Y-86519082D01*
X205862499Y-86485822D01*
X205862500Y-86485809D01*
X205862500Y-86462500D01*
X205137500Y-86462500D01*
X205137500Y-87162499D01*
X204589183Y-87162499D01*
X204637499Y-87162498D01*
X204637500Y-87162498D01*
X204637500Y-86462500D01*
X203912501Y-86462500D01*
X203912501Y-86485822D01*
X199740833Y-86485822D01*
X199951016Y-85978395D01*
X199952780Y-85974344D01*
X199968834Y-85939192D01*
X200388390Y-85020491D01*
X200390298Y-85016502D01*
X200428746Y-84939692D01*
X200859713Y-84078728D01*
X200861757Y-84074824D01*
X200862054Y-84074281D01*
X201364330Y-83154431D01*
X201366473Y-83150665D01*
X201901622Y-82248721D01*
X201903941Y-82244970D01*
X201905258Y-82242922D01*
X202470865Y-81362817D01*
X202473317Y-81359148D01*
X202475823Y-81355539D01*
X202799623Y-80889177D01*
X203912500Y-80889177D01*
X203912500Y-80912500D01*
X204637500Y-80912500D01*
X204637500Y-80212500D01*
X204637499Y-80212499D01*
X204589193Y-80212500D01*
X204589175Y-80212501D01*
X204489892Y-80222644D01*
X204329018Y-80275952D01*
X204329007Y-80275957D01*
X204184771Y-80364924D01*
X204184767Y-80364927D01*
X204064927Y-80484767D01*
X204064924Y-80484771D01*
X203975957Y-80629007D01*
X203975952Y-80629018D01*
X203922644Y-80789893D01*
X203912500Y-80889177D01*
X202799623Y-80889177D01*
X203071426Y-80497706D01*
X203073950Y-80494207D01*
X203702422Y-79654667D01*
X203705094Y-79651226D01*
X204363134Y-78834648D01*
X204365944Y-78831286D01*
X205052681Y-78038748D01*
X205055634Y-78035462D01*
X205093790Y-77994480D01*
X205770237Y-77267924D01*
X205773256Y-77264796D01*
X206514796Y-76523256D01*
X206517924Y-76520237D01*
X207285468Y-75805628D01*
X207288755Y-75802676D01*
X208081286Y-75115944D01*
X208084648Y-75113134D01*
X208901226Y-74455094D01*
X208904667Y-74452422D01*
X209744207Y-73823950D01*
X209747706Y-73821426D01*
X210609160Y-73223308D01*
X210612829Y-73220858D01*
X211494983Y-72653932D01*
X211498721Y-72651622D01*
X212400665Y-72116473D01*
X212404431Y-72114330D01*
X213324842Y-71611747D01*
X213328728Y-71609713D01*
X214266506Y-71140295D01*
X214270496Y-71138388D01*
X215224351Y-70702776D01*
X215228402Y-70701013D01*
X216197288Y-70299688D01*
X216201292Y-70298112D01*
X217183962Y-69931594D01*
X217188029Y-69930161D01*
X218183049Y-69598986D01*
X218187246Y-69597672D01*
X219193482Y-69302214D01*
X219197671Y-69301065D01*
X220213805Y-69041713D01*
X220218063Y-69040706D01*
X221242787Y-68817791D01*
X221247066Y-68816940D01*
X222279122Y-68630736D01*
X222283447Y-68630035D01*
X223321454Y-68480792D01*
X223325796Y-68480247D01*
X224368540Y-68368140D01*
X224372836Y-68367757D01*
X225418856Y-68292943D01*
X225423263Y-68292707D01*
X226471251Y-68255277D01*
X226475677Y-68255199D01*
X227524323Y-68255199D01*
X227528748Y-68255277D01*
G37*
%TD.AperFunction*%
%TA.AperFunction,Conductor*%
G36*
X236043334Y-115199838D02*
G01*
X236087681Y-115228339D01*
X236189811Y-115330469D01*
X236189813Y-115330470D01*
X236189815Y-115330472D01*
X236335394Y-115418478D01*
X236497804Y-115469086D01*
X236568384Y-115475500D01*
X236568387Y-115475500D01*
X237081613Y-115475500D01*
X237081616Y-115475500D01*
X237152196Y-115469086D01*
X237314606Y-115418478D01*
X237460185Y-115330472D01*
X237503837Y-115286820D01*
X237565160Y-115253334D01*
X237591519Y-115250500D01*
X239387770Y-115250500D01*
X239454809Y-115270185D01*
X239475451Y-115286819D01*
X240463181Y-116274548D01*
X240496666Y-116335871D01*
X240499500Y-116362229D01*
X240499500Y-120637770D01*
X240479815Y-120704809D01*
X240463181Y-120725451D01*
X238975451Y-122213181D01*
X238914128Y-122246666D01*
X238887770Y-122249500D01*
X232862230Y-122249500D01*
X232795191Y-122229815D01*
X232774549Y-122213181D01*
X232718443Y-122157075D01*
X232684958Y-122095752D01*
X232689942Y-122026060D01*
X232731814Y-121970127D01*
X232786727Y-121946921D01*
X232816238Y-121942247D01*
X232816238Y-121942246D01*
X232816243Y-121942246D01*
X233018412Y-121876557D01*
X233207816Y-121780051D01*
X233229789Y-121764086D01*
X233379786Y-121655109D01*
X233379788Y-121655106D01*
X233379792Y-121655104D01*
X233530104Y-121504792D01*
X233649683Y-121340204D01*
X233705011Y-121297540D01*
X233774624Y-121291561D01*
X233836420Y-121324166D01*
X233850313Y-121340199D01*
X233950733Y-121478416D01*
X233969896Y-121504792D01*
X234120213Y-121655109D01*
X234292179Y-121780048D01*
X234292181Y-121780049D01*
X234292184Y-121780051D01*
X234481588Y-121876557D01*
X234683757Y-121942246D01*
X234893713Y-121975500D01*
X234893714Y-121975500D01*
X235106286Y-121975500D01*
X235106287Y-121975500D01*
X235316243Y-121942246D01*
X235518412Y-121876557D01*
X235707816Y-121780051D01*
X235765141Y-121738402D01*
X235879784Y-121655110D01*
X235879784Y-121655109D01*
X235879792Y-121655104D01*
X236018967Y-121515928D01*
X236080286Y-121482446D01*
X236149978Y-121487430D01*
X236205912Y-121529301D01*
X236212184Y-121538515D01*
X236307684Y-121693345D01*
X236431654Y-121817315D01*
X236580875Y-121909356D01*
X236580880Y-121909358D01*
X236747302Y-121964505D01*
X236747309Y-121964506D01*
X236850019Y-121974999D01*
X237249999Y-121974999D01*
X237250000Y-121974998D01*
X237250000Y-120904145D01*
X237316657Y-120942630D01*
X237437465Y-120975000D01*
X237562535Y-120975000D01*
X237683343Y-120942630D01*
X237750000Y-120904145D01*
X237750000Y-121974999D01*
X238149972Y-121974999D01*
X238149986Y-121974998D01*
X238252697Y-121964505D01*
X238419119Y-121909358D01*
X238419124Y-121909356D01*
X238568345Y-121817315D01*
X238692315Y-121693345D01*
X238784356Y-121544124D01*
X238784358Y-121544119D01*
X238839505Y-121377697D01*
X238839506Y-121377690D01*
X238849999Y-121274986D01*
X238850000Y-121274973D01*
X238850000Y-120750000D01*
X237904146Y-120750000D01*
X237942630Y-120683343D01*
X237975000Y-120562535D01*
X237975000Y-120437465D01*
X237942630Y-120316657D01*
X237904146Y-120250000D01*
X238849999Y-120250000D01*
X238849999Y-119725028D01*
X238849998Y-119725013D01*
X238839505Y-119622302D01*
X238784358Y-119455880D01*
X238784356Y-119455875D01*
X238692315Y-119306654D01*
X238568345Y-119182684D01*
X238419124Y-119090643D01*
X238419119Y-119090641D01*
X238252697Y-119035494D01*
X238252690Y-119035493D01*
X238149986Y-119025000D01*
X237750000Y-119025000D01*
X237750000Y-120095854D01*
X237683343Y-120057370D01*
X237562535Y-120025000D01*
X237437465Y-120025000D01*
X237316657Y-120057370D01*
X237250000Y-120095854D01*
X237250000Y-119025000D01*
X236850028Y-119025000D01*
X236850012Y-119025001D01*
X236747302Y-119035494D01*
X236580880Y-119090641D01*
X236580875Y-119090643D01*
X236431654Y-119182684D01*
X236307683Y-119306655D01*
X236307680Y-119306659D01*
X236212183Y-119461484D01*
X236160235Y-119508209D01*
X236091273Y-119519430D01*
X236027191Y-119491587D01*
X236018964Y-119484068D01*
X235879786Y-119344890D01*
X235707815Y-119219948D01*
X235707814Y-119219947D01*
X235668205Y-119199765D01*
X235617409Y-119151791D01*
X235600500Y-119089281D01*
X235600500Y-115527167D01*
X235620185Y-115460128D01*
X235660350Y-115421050D01*
X235664603Y-115418478D01*
X235664606Y-115418478D01*
X235810185Y-115330472D01*
X235853838Y-115286819D01*
X235912319Y-115228339D01*
X235973642Y-115194854D01*
X236043334Y-115199838D01*
G37*
%TD.AperFunction*%
%TA.AperFunction,Conductor*%
G36*
X220543334Y-115199838D02*
G01*
X220587681Y-115228339D01*
X220689811Y-115330469D01*
X220689813Y-115330470D01*
X220689815Y-115330472D01*
X220835394Y-115418478D01*
X220997804Y-115469086D01*
X221068384Y-115475500D01*
X221187770Y-115475500D01*
X221254809Y-115495185D01*
X221275451Y-115511819D01*
X226726451Y-120962819D01*
X226759936Y-121024142D01*
X226754952Y-121093834D01*
X226713080Y-121149767D01*
X226647616Y-121174184D01*
X226638770Y-121174500D01*
X223224000Y-121174500D01*
X223156961Y-121154815D01*
X223111206Y-121102011D01*
X223100000Y-121050500D01*
X223100000Y-120750000D01*
X222154146Y-120750000D01*
X222192630Y-120683343D01*
X222225000Y-120562535D01*
X222225000Y-120437465D01*
X222192630Y-120316657D01*
X222154146Y-120250000D01*
X223099999Y-120250000D01*
X223099999Y-119725028D01*
X223099998Y-119725013D01*
X223089505Y-119622302D01*
X223034358Y-119455880D01*
X223034356Y-119455875D01*
X222942315Y-119306654D01*
X222818345Y-119182684D01*
X222669124Y-119090643D01*
X222669119Y-119090641D01*
X222502697Y-119035494D01*
X222502690Y-119035493D01*
X222399986Y-119025000D01*
X222000000Y-119025000D01*
X222000000Y-120095854D01*
X221933343Y-120057370D01*
X221812535Y-120025000D01*
X221687465Y-120025000D01*
X221566657Y-120057370D01*
X221500000Y-120095854D01*
X221500000Y-119025000D01*
X221100028Y-119025000D01*
X221100012Y-119025001D01*
X220997302Y-119035494D01*
X220830880Y-119090641D01*
X220830875Y-119090643D01*
X220681654Y-119182684D01*
X220557683Y-119306655D01*
X220557680Y-119306659D01*
X220462183Y-119461484D01*
X220410235Y-119508209D01*
X220341273Y-119519430D01*
X220277191Y-119491587D01*
X220268964Y-119484068D01*
X220129786Y-119344890D01*
X219957815Y-119219948D01*
X219957814Y-119219947D01*
X219918205Y-119199765D01*
X219867409Y-119151791D01*
X219850500Y-119089281D01*
X219850500Y-115596113D01*
X219870185Y-115529074D01*
X219922989Y-115483319D01*
X219963275Y-115472622D01*
X220002196Y-115469086D01*
X220164606Y-115418478D01*
X220310185Y-115330472D01*
X220353838Y-115286819D01*
X220412319Y-115228339D01*
X220473642Y-115194854D01*
X220543334Y-115199838D01*
G37*
%TD.AperFunction*%
%TA.AperFunction,Conductor*%
G36*
X213142539Y-111070185D02*
G01*
X213188294Y-111122989D01*
X213199500Y-111174500D01*
X213199500Y-111415701D01*
X213202401Y-111452567D01*
X213202402Y-111452573D01*
X213248254Y-111610393D01*
X213248255Y-111610396D01*
X213331917Y-111751862D01*
X213331923Y-111751870D01*
X213448129Y-111868076D01*
X213448133Y-111868079D01*
X213448135Y-111868081D01*
X213589602Y-111951744D01*
X213631224Y-111963836D01*
X213747426Y-111997597D01*
X213747429Y-111997597D01*
X213747431Y-111997598D01*
X213784306Y-112000500D01*
X213784314Y-112000500D01*
X215090686Y-112000500D01*
X215090694Y-112000500D01*
X215127569Y-111997598D01*
X215127571Y-111997597D01*
X215127573Y-111997597D01*
X215186355Y-111980519D01*
X215285398Y-111951744D01*
X215426865Y-111868081D01*
X215458126Y-111836820D01*
X215519448Y-111803334D01*
X215545808Y-111800500D01*
X216638331Y-111800500D01*
X216638347Y-111800501D01*
X216645943Y-111800501D01*
X216804054Y-111800501D01*
X216804057Y-111800501D01*
X216874736Y-111781562D01*
X216944584Y-111783225D01*
X217002446Y-111822387D01*
X217029951Y-111886615D01*
X217030319Y-111890116D01*
X217031408Y-111902102D01*
X217031409Y-111902107D01*
X217081981Y-112064396D01*
X217169927Y-112209877D01*
X217290122Y-112330072D01*
X217435604Y-112418019D01*
X217435603Y-112418019D01*
X217523498Y-112445408D01*
X217581646Y-112484145D01*
X217609620Y-112548170D01*
X217598538Y-112617156D01*
X217574289Y-112651474D01*
X216737584Y-113488181D01*
X216676261Y-113521666D01*
X216649903Y-113524500D01*
X216318384Y-113524500D01*
X216299145Y-113526248D01*
X216247807Y-113530913D01*
X216085393Y-113581522D01*
X215939811Y-113669530D01*
X215939810Y-113669531D01*
X215837681Y-113771661D01*
X215776358Y-113805146D01*
X215706666Y-113800162D01*
X215662319Y-113771661D01*
X215560188Y-113669530D01*
X215414606Y-113581522D01*
X215326896Y-113554191D01*
X215252196Y-113530914D01*
X215252194Y-113530913D01*
X215252192Y-113530913D01*
X215202778Y-113526423D01*
X215181616Y-113524500D01*
X214668384Y-113524500D01*
X214649145Y-113526248D01*
X214597807Y-113530913D01*
X214435393Y-113581522D01*
X214289811Y-113669530D01*
X214289811Y-113669531D01*
X214246163Y-113713180D01*
X214184840Y-113746666D01*
X214158481Y-113749500D01*
X209112229Y-113749500D01*
X209045190Y-113729815D01*
X209024548Y-113713181D01*
X208523547Y-113212180D01*
X208490062Y-113150857D01*
X208495046Y-113081165D01*
X208536918Y-113025232D01*
X208602382Y-113000815D01*
X208611228Y-113000499D01*
X208900002Y-113000499D01*
X208900008Y-113000499D01*
X209002797Y-112989999D01*
X209169334Y-112934814D01*
X209318656Y-112842712D01*
X209442712Y-112718656D01*
X209534814Y-112569334D01*
X209589999Y-112402797D01*
X209600500Y-112300009D01*
X209600500Y-112224500D01*
X209620185Y-112157461D01*
X209672989Y-112111706D01*
X209724500Y-112100500D01*
X211225831Y-112100500D01*
X211225847Y-112100501D01*
X211233443Y-112100501D01*
X211391554Y-112100501D01*
X211391557Y-112100501D01*
X211544285Y-112059577D01*
X211594404Y-112030639D01*
X211681216Y-111980520D01*
X211793020Y-111868716D01*
X211793020Y-111868714D01*
X211803228Y-111858507D01*
X211803229Y-111858504D01*
X212574916Y-111086819D01*
X212636239Y-111053334D01*
X212662597Y-111050500D01*
X213075500Y-111050500D01*
X213142539Y-111070185D01*
G37*
%TD.AperFunction*%
%TA.AperFunction,Conductor*%
G36*
X214384248Y-98820185D02*
G01*
X214430003Y-98872989D01*
X214433391Y-98881167D01*
X214456202Y-98942328D01*
X214456206Y-98942335D01*
X214542452Y-99057544D01*
X214542455Y-99057547D01*
X214657664Y-99143793D01*
X214657671Y-99143797D01*
X214792517Y-99194091D01*
X214792516Y-99194091D01*
X214799444Y-99194835D01*
X214852127Y-99200500D01*
X216647872Y-99200499D01*
X216707483Y-99194091D01*
X216842331Y-99143796D01*
X216901190Y-99099733D01*
X216966651Y-99075316D01*
X217034924Y-99090166D01*
X217084331Y-99139571D01*
X217099500Y-99198999D01*
X217099500Y-99417869D01*
X217099501Y-99417876D01*
X217105908Y-99477481D01*
X217118659Y-99511669D01*
X217123642Y-99581361D01*
X217118659Y-99598331D01*
X217105908Y-99632518D01*
X217102452Y-99664667D01*
X217099501Y-99692123D01*
X217099500Y-99692135D01*
X217099500Y-100687870D01*
X217099501Y-100687876D01*
X217105908Y-100747481D01*
X217118659Y-100781669D01*
X217125055Y-100843722D01*
X217123125Y-100856355D01*
X217105909Y-100902517D01*
X217099500Y-100962127D01*
X217099500Y-101011039D01*
X217098079Y-101020344D01*
X217087110Y-101043814D01*
X217079815Y-101068661D01*
X217072562Y-101074945D01*
X217068498Y-101083643D01*
X217046581Y-101097458D01*
X217027011Y-101114416D01*
X217017512Y-101115781D01*
X217009391Y-101120901D01*
X216983489Y-101120673D01*
X216957853Y-101124360D01*
X216948206Y-101120364D01*
X216939524Y-101120288D01*
X216924910Y-101110714D01*
X216901189Y-101100889D01*
X216842089Y-101056647D01*
X216842086Y-101056645D01*
X216707379Y-101006403D01*
X216707372Y-101006401D01*
X216647844Y-101000000D01*
X216000000Y-101000000D01*
X216000000Y-103000000D01*
X216647828Y-103000000D01*
X216647844Y-102999999D01*
X216707372Y-102993598D01*
X216707379Y-102993596D01*
X216842086Y-102943354D01*
X216842090Y-102943352D01*
X216901187Y-102899111D01*
X216966651Y-102874692D01*
X217034924Y-102889542D01*
X217084331Y-102938947D01*
X217099500Y-102998375D01*
X217099500Y-103227869D01*
X217099501Y-103227876D01*
X217105908Y-103287481D01*
X217118659Y-103321669D01*
X217123642Y-103391361D01*
X217118659Y-103408331D01*
X217105908Y-103442518D01*
X217099501Y-103502116D01*
X217099501Y-103502123D01*
X217099500Y-103502135D01*
X217099500Y-104497870D01*
X217099501Y-104497876D01*
X217103196Y-104532247D01*
X217090789Y-104601006D01*
X217043178Y-104652143D01*
X216979906Y-104669500D01*
X213820098Y-104669500D01*
X213753059Y-104649815D01*
X213732417Y-104633181D01*
X212834573Y-103735337D01*
X212801088Y-103674014D01*
X212800637Y-103671847D01*
X212786768Y-103602123D01*
X212769737Y-103516503D01*
X212769735Y-103516498D01*
X212709397Y-103370827D01*
X212709390Y-103370814D01*
X212621789Y-103239711D01*
X212621786Y-103239707D01*
X212510292Y-103128213D01*
X212510288Y-103128210D01*
X212379185Y-103040609D01*
X212379172Y-103040602D01*
X212233501Y-102980264D01*
X212233489Y-102980261D01*
X212078845Y-102949500D01*
X212078842Y-102949500D01*
X211921158Y-102949500D01*
X211921155Y-102949500D01*
X211766510Y-102980261D01*
X211766498Y-102980264D01*
X211620827Y-103040602D01*
X211620814Y-103040609D01*
X211489711Y-103128210D01*
X211489707Y-103128213D01*
X211378213Y-103239707D01*
X211378210Y-103239711D01*
X211290609Y-103370814D01*
X211290602Y-103370827D01*
X211230264Y-103516498D01*
X211230261Y-103516510D01*
X211199500Y-103671153D01*
X211199500Y-103828846D01*
X211199596Y-103829823D01*
X211199500Y-103830328D01*
X211199500Y-103834934D01*
X211198626Y-103834934D01*
X211186567Y-103898468D01*
X211138495Y-103949171D01*
X211100383Y-103963577D01*
X211016508Y-103980261D01*
X211016498Y-103980264D01*
X210870827Y-104040602D01*
X210870814Y-104040609D01*
X210739711Y-104128210D01*
X210739707Y-104128213D01*
X210628213Y-104239707D01*
X210628210Y-104239711D01*
X210540609Y-104370814D01*
X210540602Y-104370827D01*
X210480264Y-104516498D01*
X210480261Y-104516510D01*
X210449500Y-104671153D01*
X210449500Y-104828846D01*
X210480261Y-104983489D01*
X210480264Y-104983501D01*
X210540602Y-105129172D01*
X210540609Y-105129185D01*
X210628210Y-105260288D01*
X210628213Y-105260292D01*
X210739707Y-105371786D01*
X210739711Y-105371789D01*
X210870814Y-105459390D01*
X210870827Y-105459397D01*
X211016498Y-105519735D01*
X211016503Y-105519737D01*
X211059723Y-105528334D01*
X211171849Y-105550638D01*
X211233760Y-105583023D01*
X211235339Y-105584574D01*
X212555139Y-106904374D01*
X212555149Y-106904385D01*
X212559479Y-106908715D01*
X212559480Y-106908716D01*
X212671284Y-107020520D01*
X212747280Y-107064395D01*
X212758095Y-107070639D01*
X212758097Y-107070641D01*
X212808213Y-107099576D01*
X212808215Y-107099577D01*
X212960942Y-107140500D01*
X212960943Y-107140500D01*
X217035859Y-107140500D01*
X217102898Y-107160185D01*
X217148653Y-107212989D01*
X217152030Y-107221140D01*
X217156204Y-107232331D01*
X217156205Y-107232332D01*
X217156206Y-107232335D01*
X217242452Y-107347544D01*
X217242455Y-107347547D01*
X217357664Y-107433793D01*
X217357671Y-107433797D01*
X217492517Y-107484091D01*
X217492516Y-107484091D01*
X217499444Y-107484835D01*
X217552127Y-107490500D01*
X219040500Y-107490499D01*
X219049185Y-107493049D01*
X219058147Y-107491761D01*
X219082187Y-107502739D01*
X219107539Y-107510184D01*
X219113466Y-107517024D01*
X219121703Y-107520786D01*
X219135990Y-107543018D01*
X219153294Y-107562987D01*
X219155581Y-107573502D01*
X219159477Y-107579564D01*
X219164500Y-107614499D01*
X219164500Y-107839901D01*
X219144815Y-107906940D01*
X219128181Y-107927582D01*
X218067584Y-108988181D01*
X218006261Y-109021666D01*
X217979903Y-109024500D01*
X217668384Y-109024500D01*
X217649145Y-109026248D01*
X217597807Y-109030913D01*
X217435393Y-109081522D01*
X217289811Y-109169530D01*
X217169530Y-109289811D01*
X217081522Y-109435393D01*
X217030913Y-109597807D01*
X217024500Y-109668386D01*
X217024500Y-109999903D01*
X217004815Y-110066942D01*
X216988181Y-110087584D01*
X216512584Y-110563181D01*
X216451261Y-110596666D01*
X216424903Y-110599500D01*
X215545808Y-110599500D01*
X215478769Y-110579815D01*
X215458126Y-110563180D01*
X215426870Y-110531923D01*
X215426862Y-110531917D01*
X215285396Y-110448255D01*
X215285393Y-110448254D01*
X215127573Y-110402402D01*
X215127567Y-110402401D01*
X215090701Y-110399500D01*
X215090694Y-110399500D01*
X213924500Y-110399500D01*
X213915814Y-110396949D01*
X213906853Y-110398238D01*
X213882812Y-110387259D01*
X213857461Y-110379815D01*
X213851533Y-110372974D01*
X213843297Y-110369213D01*
X213829007Y-110346978D01*
X213811706Y-110327011D01*
X213809418Y-110316496D01*
X213805523Y-110310435D01*
X213800500Y-110275500D01*
X213800500Y-110224000D01*
X213820185Y-110156961D01*
X213872989Y-110111206D01*
X213924500Y-110100000D01*
X214187500Y-110100000D01*
X214687500Y-110100000D01*
X215090634Y-110100000D01*
X215090649Y-110099999D01*
X215127489Y-110097100D01*
X215127495Y-110097099D01*
X215285193Y-110051283D01*
X215285196Y-110051282D01*
X215426552Y-109967685D01*
X215426561Y-109967678D01*
X215542678Y-109851561D01*
X215542685Y-109851552D01*
X215626281Y-109710198D01*
X215672100Y-109552486D01*
X215672295Y-109550001D01*
X215672295Y-109550000D01*
X214687500Y-109550000D01*
X214687500Y-110100000D01*
X214187500Y-110100000D01*
X214187500Y-109550000D01*
X213531815Y-109550000D01*
X213468694Y-109532732D01*
X213410396Y-109498255D01*
X213410393Y-109498254D01*
X213252573Y-109452402D01*
X213252567Y-109452401D01*
X213215701Y-109449500D01*
X213215694Y-109449500D01*
X211909306Y-109449500D01*
X211909298Y-109449500D01*
X211872432Y-109452401D01*
X211872426Y-109452402D01*
X211714606Y-109498254D01*
X211714603Y-109498255D01*
X211573137Y-109581917D01*
X211573129Y-109581923D01*
X211456923Y-109698129D01*
X211456917Y-109698137D01*
X211373255Y-109839603D01*
X211373254Y-109839606D01*
X211327402Y-109997426D01*
X211327401Y-109997432D01*
X211324500Y-110034298D01*
X211324500Y-110465701D01*
X211327401Y-110502563D01*
X211327403Y-110502572D01*
X211336950Y-110535435D01*
X211336749Y-110605305D01*
X211305554Y-110657709D01*
X211100082Y-110863182D01*
X211038762Y-110896666D01*
X211012403Y-110899500D01*
X209724499Y-110899500D01*
X209657460Y-110879815D01*
X209611705Y-110827011D01*
X209600499Y-110775500D01*
X209600499Y-110699998D01*
X209600498Y-110699981D01*
X209589999Y-110597203D01*
X209589998Y-110597200D01*
X209578725Y-110563180D01*
X209534814Y-110430666D01*
X209442712Y-110281344D01*
X209318656Y-110157288D01*
X209169334Y-110065186D01*
X209002797Y-110010001D01*
X209002795Y-110010000D01*
X208900016Y-109999500D01*
X208900009Y-109999500D01*
X208366669Y-109999500D01*
X208299630Y-109979815D01*
X208253875Y-109927011D01*
X208243931Y-109857853D01*
X208245052Y-109851309D01*
X208250499Y-109823921D01*
X208250500Y-109823918D01*
X208250500Y-109049998D01*
X213202704Y-109049998D01*
X213202705Y-109050000D01*
X214187500Y-109050000D01*
X214687500Y-109050000D01*
X215672295Y-109050000D01*
X215672295Y-109049998D01*
X215672100Y-109047513D01*
X215626281Y-108889801D01*
X215542685Y-108748447D01*
X215542678Y-108748438D01*
X215426561Y-108632321D01*
X215426552Y-108632314D01*
X215285196Y-108548717D01*
X215285193Y-108548716D01*
X215127495Y-108502900D01*
X215127489Y-108502899D01*
X215090649Y-108500000D01*
X214687500Y-108500000D01*
X214687500Y-109050000D01*
X214187500Y-109050000D01*
X214187500Y-108500000D01*
X213784350Y-108500000D01*
X213747510Y-108502899D01*
X213747504Y-108502900D01*
X213589806Y-108548716D01*
X213589803Y-108548717D01*
X213448447Y-108632314D01*
X213448438Y-108632321D01*
X213332321Y-108748438D01*
X213332314Y-108748447D01*
X213248718Y-108889801D01*
X213202899Y-109047513D01*
X213202704Y-109049998D01*
X208250500Y-109049998D01*
X208250500Y-103081884D01*
X208270185Y-103014845D01*
X208322989Y-102969090D01*
X208392147Y-102959146D01*
X208417834Y-102965703D01*
X208492616Y-102993595D01*
X208492627Y-102993598D01*
X208552155Y-102999999D01*
X208552172Y-103000000D01*
X209200000Y-103000000D01*
X209700000Y-103000000D01*
X210347828Y-103000000D01*
X210347844Y-102999999D01*
X210407372Y-102993598D01*
X210407379Y-102993596D01*
X210542086Y-102943354D01*
X210542093Y-102943350D01*
X210657187Y-102857190D01*
X210657190Y-102857187D01*
X210743350Y-102742093D01*
X210743354Y-102742086D01*
X210793596Y-102607379D01*
X210793598Y-102607372D01*
X210799999Y-102547844D01*
X214400000Y-102547844D01*
X214406401Y-102607372D01*
X214406403Y-102607379D01*
X214456645Y-102742086D01*
X214456649Y-102742093D01*
X214542809Y-102857187D01*
X214542812Y-102857190D01*
X214657906Y-102943350D01*
X214657913Y-102943354D01*
X214792620Y-102993596D01*
X214792627Y-102993598D01*
X214852155Y-102999999D01*
X214852172Y-103000000D01*
X215500000Y-103000000D01*
X215500000Y-102250000D01*
X214400000Y-102250000D01*
X214400000Y-102547844D01*
X210799999Y-102547844D01*
X210800000Y-102547827D01*
X210800000Y-102250000D01*
X209700000Y-102250000D01*
X209700000Y-103000000D01*
X209200000Y-103000000D01*
X209200000Y-101750000D01*
X209700000Y-101750000D01*
X210800000Y-101750000D01*
X210800000Y-101452172D01*
X210799999Y-101452155D01*
X214400000Y-101452155D01*
X214400000Y-101750000D01*
X215500000Y-101750000D01*
X215500000Y-101000000D01*
X214852155Y-101000000D01*
X214792627Y-101006401D01*
X214792620Y-101006403D01*
X214657913Y-101056645D01*
X214657906Y-101056649D01*
X214542812Y-101142809D01*
X214542809Y-101142812D01*
X214456649Y-101257906D01*
X214456645Y-101257913D01*
X214406403Y-101392620D01*
X214406401Y-101392627D01*
X214400000Y-101452155D01*
X210799999Y-101452155D01*
X210793598Y-101392627D01*
X210793596Y-101392620D01*
X210743354Y-101257913D01*
X210743350Y-101257906D01*
X210657190Y-101142812D01*
X210657187Y-101142809D01*
X210542093Y-101056649D01*
X210542086Y-101056645D01*
X210407379Y-101006403D01*
X210407372Y-101006401D01*
X210347844Y-101000000D01*
X209700000Y-101000000D01*
X209700000Y-101750000D01*
X209200000Y-101750000D01*
X209200000Y-101000000D01*
X208552155Y-101000000D01*
X208492627Y-101006401D01*
X208492620Y-101006403D01*
X208417833Y-101034297D01*
X208348141Y-101039281D01*
X208286818Y-101005796D01*
X208253334Y-100944473D01*
X208250500Y-100918115D01*
X208250500Y-99282418D01*
X208270185Y-99215379D01*
X208322989Y-99169624D01*
X208392147Y-99159680D01*
X208417833Y-99166236D01*
X208492517Y-99194091D01*
X208492516Y-99194091D01*
X208499444Y-99194835D01*
X208552127Y-99200500D01*
X210347872Y-99200499D01*
X210407483Y-99194091D01*
X210542331Y-99143796D01*
X210657546Y-99057546D01*
X210743796Y-98942331D01*
X210766609Y-98881167D01*
X210808480Y-98825233D01*
X210873944Y-98800816D01*
X210882791Y-98800500D01*
X214317209Y-98800500D01*
X214384248Y-98820185D01*
G37*
%TD.AperFunction*%
%TA.AperFunction,Conductor*%
G36*
X233301257Y-73120185D02*
G01*
X233321899Y-73136819D01*
X234634897Y-74449818D01*
X234668382Y-74511141D01*
X234663398Y-74580833D01*
X234634897Y-74625180D01*
X234091695Y-75168384D01*
X233937220Y-75322859D01*
X233937218Y-75322861D01*
X233867895Y-75392184D01*
X233797859Y-75462219D01*
X233688371Y-75626079D01*
X233688364Y-75626092D01*
X233640092Y-75742634D01*
X233640090Y-75742638D01*
X233637727Y-75748345D01*
X233612949Y-75808164D01*
X233599870Y-75873915D01*
X233598700Y-75879793D01*
X233598699Y-75879799D01*
X233574500Y-76001457D01*
X233574500Y-80945590D01*
X233612946Y-81138874D01*
X233612948Y-81138878D01*
X233612949Y-81138882D01*
X233622732Y-81162500D01*
X233625099Y-81168215D01*
X233688366Y-81320957D01*
X233688371Y-81320966D01*
X233797860Y-81484827D01*
X233797863Y-81484831D01*
X233941537Y-81628505D01*
X233941559Y-81628525D01*
X234808181Y-82495147D01*
X234841666Y-82556470D01*
X234843863Y-82576904D01*
X234844350Y-82576881D01*
X234844498Y-82579910D01*
X234854215Y-82678556D01*
X234855955Y-82687302D01*
X234857097Y-82693042D01*
X234857116Y-82693134D01*
X234857117Y-82693139D01*
X234870497Y-82745558D01*
X234870498Y-82745562D01*
X234932592Y-82875348D01*
X234932593Y-82875351D01*
X234941451Y-82888607D01*
X234962330Y-82955284D01*
X234943846Y-83022664D01*
X234941455Y-83026386D01*
X234932590Y-83039653D01*
X234904986Y-83086178D01*
X234857117Y-83221859D01*
X234857114Y-83221872D01*
X234854216Y-83236440D01*
X234854215Y-83236447D01*
X234844500Y-83335074D01*
X234844500Y-83494926D01*
X234850336Y-83554174D01*
X234854215Y-83593556D01*
X234854216Y-83593559D01*
X234857116Y-83608136D01*
X234859961Y-83619280D01*
X234864656Y-83637677D01*
X234862161Y-83707502D01*
X234861446Y-83709589D01*
X234857116Y-83721862D01*
X234856492Y-83725000D01*
X234854215Y-83736447D01*
X234844500Y-83835074D01*
X234844500Y-83994926D01*
X234848135Y-84031826D01*
X234854215Y-84093556D01*
X234855955Y-84102302D01*
X234857114Y-84108127D01*
X234857116Y-84108134D01*
X234857119Y-84108149D01*
X234864655Y-84137673D01*
X234862161Y-84207498D01*
X234861444Y-84209591D01*
X234857115Y-84221860D01*
X234854215Y-84236440D01*
X234854214Y-84236447D01*
X234845792Y-84321956D01*
X234844499Y-84335078D01*
X234844499Y-84494921D01*
X234854214Y-84593556D01*
X234855060Y-84597807D01*
X234857115Y-84608136D01*
X234860245Y-84620397D01*
X234864655Y-84637677D01*
X234862160Y-84707502D01*
X234861445Y-84709589D01*
X234857115Y-84721862D01*
X234856162Y-84726655D01*
X234854214Y-84736447D01*
X234844499Y-84835074D01*
X234844499Y-84994926D01*
X234847018Y-85020496D01*
X234854214Y-85093556D01*
X234857115Y-85108134D01*
X234857116Y-85108139D01*
X234870496Y-85160558D01*
X234870497Y-85160562D01*
X234914336Y-85252192D01*
X234932592Y-85290350D01*
X234943643Y-85306889D01*
X234976072Y-85350209D01*
X235083110Y-85446356D01*
X235083112Y-85446357D01*
X235083114Y-85446359D01*
X235097510Y-85455978D01*
X235099649Y-85457407D01*
X235146180Y-85485015D01*
X235281863Y-85532884D01*
X235291319Y-85534765D01*
X235296450Y-85535786D01*
X235311226Y-85537241D01*
X235376014Y-85563400D01*
X235382892Y-85569804D01*
X235383058Y-85569621D01*
X235494627Y-85669839D01*
X235522840Y-85688690D01*
X235522853Y-85688698D01*
X235569376Y-85716301D01*
X235569377Y-85716301D01*
X235569380Y-85716303D01*
X235705065Y-85764169D01*
X235738342Y-85770788D01*
X235836958Y-85780500D01*
X236663043Y-85780499D01*
X236761640Y-85770790D01*
X236794918Y-85764172D01*
X236847370Y-85750785D01*
X236919422Y-85716313D01*
X236971984Y-85691166D01*
X237040954Y-85679990D01*
X237105018Y-85707876D01*
X237143835Y-85765971D01*
X237149500Y-85803023D01*
X237149500Y-86766460D01*
X237149500Y-86963540D01*
X237149500Y-86963542D01*
X237149499Y-86963542D01*
X237187949Y-87156839D01*
X237190413Y-87162785D01*
X237190412Y-87162785D01*
X237190415Y-87162789D01*
X237263368Y-87338914D01*
X237263369Y-87338917D01*
X237372860Y-87502781D01*
X237372863Y-87502785D01*
X237516537Y-87646459D01*
X237516559Y-87646479D01*
X239081323Y-89211243D01*
X239099758Y-89234773D01*
X239169528Y-89350185D01*
X239169531Y-89350189D01*
X239271661Y-89452319D01*
X239305146Y-89513642D01*
X239300162Y-89583334D01*
X239271661Y-89627681D01*
X239169531Y-89729810D01*
X239169530Y-89729811D01*
X239081522Y-89875393D01*
X239030913Y-90037807D01*
X239024500Y-90108386D01*
X239024500Y-90621613D01*
X239030913Y-90692192D01*
X239030913Y-90692194D01*
X239030914Y-90692196D01*
X239081522Y-90854606D01*
X239154302Y-90974999D01*
X239169530Y-91000188D01*
X239252154Y-91082812D01*
X239285639Y-91144135D01*
X239280655Y-91213827D01*
X239252154Y-91258174D01*
X239175719Y-91334608D01*
X239175716Y-91334612D01*
X239087455Y-91477704D01*
X239087451Y-91477713D01*
X239034564Y-91637315D01*
X239034564Y-91637316D01*
X239034563Y-91637316D01*
X239024500Y-91735818D01*
X239024500Y-92269181D01*
X239034563Y-92367683D01*
X239087450Y-92527284D01*
X239087455Y-92527295D01*
X239175716Y-92670387D01*
X239175719Y-92670392D01*
X239208000Y-92702673D01*
X239241485Y-92763997D01*
X239236499Y-92833688D01*
X239208000Y-92878033D01*
X239176114Y-92909919D01*
X239087908Y-93052922D01*
X239087906Y-93052927D01*
X239035057Y-93212416D01*
X239025000Y-93310849D01*
X239025000Y-93327500D01*
X240974999Y-93327500D01*
X240974999Y-93310864D01*
X240974998Y-93310847D01*
X240964943Y-93212416D01*
X240912093Y-93052927D01*
X240912091Y-93052922D01*
X240823885Y-92909919D01*
X240792000Y-92878034D01*
X240758515Y-92816711D01*
X240763499Y-92747019D01*
X240792000Y-92702672D01*
X240803429Y-92691243D01*
X240824281Y-92670391D01*
X240912549Y-92527287D01*
X240965436Y-92367685D01*
X240975500Y-92269174D01*
X240975500Y-91735826D01*
X240965436Y-91637315D01*
X240912549Y-91477713D01*
X240912545Y-91477707D01*
X240912544Y-91477704D01*
X240824283Y-91334612D01*
X240824280Y-91334608D01*
X240747845Y-91258173D01*
X240714360Y-91196850D01*
X240719344Y-91127158D01*
X240747844Y-91082812D01*
X240830472Y-91000185D01*
X240918478Y-90854606D01*
X240969086Y-90692196D01*
X240975500Y-90621616D01*
X240975500Y-90108384D01*
X240969086Y-90037804D01*
X240918478Y-89875394D01*
X240830472Y-89729815D01*
X240830470Y-89729813D01*
X240830469Y-89729811D01*
X240728339Y-89627681D01*
X240694854Y-89566358D01*
X240699838Y-89496666D01*
X240728339Y-89452319D01*
X240830468Y-89350189D01*
X240830469Y-89350188D01*
X240830472Y-89350185D01*
X240918478Y-89204606D01*
X240969086Y-89042196D01*
X240975500Y-88971616D01*
X240975500Y-88951434D01*
X240977883Y-88927242D01*
X240978429Y-88924500D01*
X241000500Y-88813540D01*
X241000500Y-88616460D01*
X240989803Y-88562680D01*
X240977883Y-88502755D01*
X240975500Y-88478564D01*
X240975500Y-88458386D01*
X240969086Y-88387807D01*
X240969086Y-88387804D01*
X240918478Y-88225394D01*
X240830472Y-88079815D01*
X240830470Y-88079813D01*
X240830469Y-88079811D01*
X240710189Y-87959531D01*
X240710185Y-87959528D01*
X240594773Y-87889758D01*
X240571243Y-87871323D01*
X239186819Y-86486899D01*
X239172115Y-86459971D01*
X239155523Y-86434153D01*
X239154631Y-86427952D01*
X239153334Y-86425576D01*
X239150500Y-86399218D01*
X239150500Y-86149500D01*
X239170185Y-86082461D01*
X239222989Y-86036706D01*
X239274500Y-86025500D01*
X241651459Y-86025500D01*
X245901459Y-86025500D01*
X247438388Y-86025500D01*
X247505427Y-86045185D01*
X247551182Y-86097989D01*
X247561126Y-86167147D01*
X247552949Y-86196953D01*
X247543608Y-86219504D01*
X247543607Y-86219507D01*
X247537948Y-86233167D01*
X247537947Y-86233171D01*
X247499500Y-86426454D01*
X247499500Y-91164800D01*
X247493474Y-91185321D01*
X247492216Y-91206672D01*
X247482069Y-91224162D01*
X247479815Y-91231839D01*
X247475692Y-91237859D01*
X247471510Y-91243593D01*
X247469896Y-91245208D01*
X247350319Y-91409793D01*
X247350192Y-91409967D01*
X247322518Y-91431229D01*
X247294989Y-91452459D01*
X247294876Y-91452468D01*
X247294788Y-91452537D01*
X247260086Y-91455456D01*
X247225375Y-91458438D01*
X247225275Y-91458385D01*
X247225164Y-91458395D01*
X247194611Y-91442206D01*
X247163580Y-91425833D01*
X247163468Y-91425704D01*
X247163426Y-91425682D01*
X247163383Y-91425605D01*
X247149682Y-91409793D01*
X247030109Y-91245214D01*
X247030105Y-91245209D01*
X246879786Y-91094890D01*
X246707820Y-90969951D01*
X246518414Y-90873444D01*
X246518413Y-90873443D01*
X246518412Y-90873443D01*
X246316243Y-90807754D01*
X246316241Y-90807753D01*
X246316240Y-90807753D01*
X246154957Y-90782208D01*
X246106287Y-90774500D01*
X245893713Y-90774500D01*
X245845042Y-90782208D01*
X245683760Y-90807753D01*
X245481585Y-90873444D01*
X245292179Y-90969951D01*
X245120213Y-91094890D01*
X244969890Y-91245213D01*
X244844951Y-91417179D01*
X244748444Y-91606585D01*
X244682753Y-91808760D01*
X244650813Y-92010421D01*
X244649500Y-92018713D01*
X244649500Y-92481287D01*
X244673069Y-92630095D01*
X244676530Y-92651946D01*
X244667575Y-92721239D01*
X244641738Y-92759025D01*
X243037584Y-94363181D01*
X242976261Y-94396666D01*
X242949903Y-94399500D01*
X240950814Y-94399500D01*
X240883775Y-94379815D01*
X240838020Y-94327011D01*
X240828076Y-94257853D01*
X240845275Y-94210403D01*
X240912091Y-94102077D01*
X240912093Y-94102072D01*
X240964942Y-93942583D01*
X240974999Y-93844150D01*
X240975000Y-93844137D01*
X240975000Y-93827500D01*
X239025001Y-93827500D01*
X239025001Y-93844152D01*
X239035056Y-93942583D01*
X239087906Y-94102072D01*
X239087908Y-94102077D01*
X239154725Y-94210403D01*
X239173165Y-94277795D01*
X239152243Y-94344459D01*
X239098601Y-94389229D01*
X239049186Y-94399500D01*
X238336670Y-94399500D01*
X238336654Y-94399499D01*
X238329058Y-94399499D01*
X238170943Y-94399499D01*
X238094579Y-94419961D01*
X238018214Y-94440423D01*
X238018209Y-94440426D01*
X237881290Y-94519475D01*
X237881282Y-94519481D01*
X237312180Y-95088583D01*
X237250857Y-95122068D01*
X237181165Y-95117084D01*
X237125232Y-95075212D01*
X237100815Y-95009748D01*
X237100499Y-95000902D01*
X237100499Y-94612129D01*
X237100498Y-94612123D01*
X237100497Y-94612116D01*
X237094091Y-94552517D01*
X237081340Y-94518332D01*
X237076357Y-94448642D01*
X237081340Y-94431669D01*
X237094091Y-94397483D01*
X237100500Y-94337873D01*
X237100499Y-93342128D01*
X237094091Y-93282517D01*
X237081340Y-93248332D01*
X237076357Y-93178642D01*
X237081340Y-93161669D01*
X237094091Y-93127483D01*
X237100500Y-93067873D01*
X237100499Y-92072128D01*
X237094091Y-92012517D01*
X237081340Y-91978332D01*
X237076357Y-91908642D01*
X237081340Y-91891669D01*
X237094091Y-91857483D01*
X237100500Y-91797873D01*
X237100499Y-90802128D01*
X237094091Y-90742517D01*
X237081073Y-90707616D01*
X237076090Y-90637926D01*
X237081075Y-90620949D01*
X237093597Y-90587375D01*
X237093598Y-90587372D01*
X237099999Y-90527844D01*
X237100000Y-90527827D01*
X237100000Y-90280000D01*
X234600000Y-90280000D01*
X234600000Y-90527844D01*
X234606401Y-90587372D01*
X234606403Y-90587379D01*
X234618925Y-90620952D01*
X234623909Y-90690643D01*
X234618925Y-90707617D01*
X234605909Y-90742514D01*
X234605908Y-90742516D01*
X234602416Y-90775001D01*
X234599501Y-90802123D01*
X234599500Y-90802135D01*
X234599500Y-91797870D01*
X234599501Y-91797876D01*
X234605908Y-91857481D01*
X234618659Y-91891669D01*
X234623642Y-91961361D01*
X234618659Y-91978331D01*
X234605908Y-92012518D01*
X234603476Y-92035144D01*
X234599501Y-92072123D01*
X234599500Y-92072135D01*
X234599500Y-93067870D01*
X234599501Y-93067876D01*
X234605908Y-93127481D01*
X234618659Y-93161669D01*
X234623642Y-93231361D01*
X234618659Y-93248331D01*
X234605908Y-93282518D01*
X234599501Y-93342116D01*
X234599501Y-93342123D01*
X234599500Y-93342135D01*
X234599500Y-94337870D01*
X234599501Y-94337876D01*
X234605908Y-94397481D01*
X234618659Y-94431669D01*
X234623642Y-94501361D01*
X234618659Y-94518331D01*
X234605908Y-94552518D01*
X234599501Y-94612116D01*
X234599501Y-94612123D01*
X234599500Y-94612135D01*
X234599500Y-95607870D01*
X234599501Y-95607876D01*
X234605908Y-95667481D01*
X234618659Y-95701669D01*
X234623642Y-95771361D01*
X234618659Y-95788331D01*
X234605908Y-95822518D01*
X234605661Y-95824819D01*
X234599501Y-95882123D01*
X234599500Y-95882135D01*
X234599500Y-96877870D01*
X234599501Y-96877876D01*
X234605908Y-96937481D01*
X234618659Y-96971669D01*
X234623642Y-97041361D01*
X234618659Y-97058331D01*
X234605908Y-97092518D01*
X234599501Y-97152116D01*
X234599501Y-97152123D01*
X234599500Y-97152135D01*
X234599500Y-98147870D01*
X234599501Y-98147876D01*
X234605908Y-98207481D01*
X234618659Y-98241669D01*
X234623642Y-98311361D01*
X234618659Y-98328331D01*
X234605908Y-98362518D01*
X234599501Y-98422116D01*
X234599501Y-98422123D01*
X234599500Y-98422135D01*
X234599500Y-99417870D01*
X234599501Y-99417876D01*
X234605908Y-99477481D01*
X234618659Y-99511669D01*
X234623642Y-99581361D01*
X234618659Y-99598331D01*
X234605908Y-99632518D01*
X234602452Y-99664667D01*
X234599501Y-99692123D01*
X234599500Y-99692135D01*
X234599500Y-100687870D01*
X234599501Y-100687876D01*
X234605908Y-100747481D01*
X234618659Y-100781669D01*
X234623642Y-100851361D01*
X234618659Y-100868331D01*
X234605908Y-100902518D01*
X234601398Y-100944473D01*
X234599501Y-100962123D01*
X234599500Y-100962135D01*
X234599500Y-101957870D01*
X234599501Y-101957876D01*
X234605908Y-102017481D01*
X234618659Y-102051669D01*
X234623642Y-102121361D01*
X234618659Y-102138331D01*
X234605908Y-102172518D01*
X234599501Y-102232116D01*
X234599501Y-102232123D01*
X234599500Y-102232135D01*
X234599500Y-103227870D01*
X234599501Y-103227876D01*
X234605908Y-103287481D01*
X234618659Y-103321669D01*
X234623642Y-103391361D01*
X234618659Y-103408331D01*
X234605908Y-103442518D01*
X234599501Y-103502116D01*
X234599501Y-103502123D01*
X234599500Y-103502135D01*
X234599500Y-104497870D01*
X234599501Y-104497876D01*
X234605908Y-104557481D01*
X234618659Y-104591669D01*
X234623642Y-104661361D01*
X234618659Y-104678331D01*
X234605908Y-104712518D01*
X234600224Y-104765395D01*
X234599501Y-104772123D01*
X234599500Y-104772135D01*
X234599500Y-105767870D01*
X234599501Y-105767876D01*
X234605908Y-105827481D01*
X234618659Y-105861669D01*
X234623642Y-105931361D01*
X234618659Y-105948331D01*
X234605908Y-105982518D01*
X234601234Y-106026000D01*
X234599501Y-106042123D01*
X234599500Y-106042135D01*
X234599500Y-106415500D01*
X234579815Y-106482539D01*
X234527011Y-106528294D01*
X234475500Y-106539500D01*
X233587129Y-106539500D01*
X233587123Y-106539501D01*
X233527518Y-106545908D01*
X233493331Y-106558659D01*
X233423639Y-106563642D01*
X233406669Y-106558659D01*
X233372480Y-106545908D01*
X233372482Y-106545908D01*
X233312883Y-106539501D01*
X233312881Y-106539500D01*
X233312873Y-106539500D01*
X233312864Y-106539500D01*
X232317129Y-106539500D01*
X232317123Y-106539501D01*
X232257518Y-106545908D01*
X232223331Y-106558659D01*
X232153639Y-106563642D01*
X232136669Y-106558659D01*
X232102480Y-106545908D01*
X232102482Y-106545908D01*
X232042883Y-106539501D01*
X232042881Y-106539500D01*
X232042873Y-106539500D01*
X232042864Y-106539500D01*
X231047129Y-106539500D01*
X231047123Y-106539501D01*
X230987518Y-106545908D01*
X230953331Y-106558659D01*
X230883639Y-106563642D01*
X230866669Y-106558659D01*
X230832480Y-106545908D01*
X230832482Y-106545908D01*
X230772883Y-106539501D01*
X230772881Y-106539500D01*
X230772873Y-106539500D01*
X230772864Y-106539500D01*
X229777129Y-106539500D01*
X229777123Y-106539501D01*
X229717518Y-106545908D01*
X229683331Y-106558659D01*
X229613639Y-106563642D01*
X229596669Y-106558659D01*
X229562480Y-106545908D01*
X229562482Y-106545908D01*
X229502883Y-106539501D01*
X229502881Y-106539500D01*
X229502873Y-106539500D01*
X229502864Y-106539500D01*
X228507129Y-106539500D01*
X228507123Y-106539501D01*
X228447518Y-106545908D01*
X228413331Y-106558659D01*
X228343639Y-106563642D01*
X228326669Y-106558659D01*
X228292480Y-106545908D01*
X228292482Y-106545908D01*
X228232883Y-106539501D01*
X228232881Y-106539500D01*
X228232873Y-106539500D01*
X228232864Y-106539500D01*
X227237129Y-106539500D01*
X227237123Y-106539501D01*
X227177518Y-106545908D01*
X227143331Y-106558659D01*
X227073639Y-106563642D01*
X227056669Y-106558659D01*
X227022480Y-106545908D01*
X227022482Y-106545908D01*
X226962883Y-106539501D01*
X226962881Y-106539500D01*
X226962873Y-106539500D01*
X226962864Y-106539500D01*
X225967129Y-106539500D01*
X225967123Y-106539501D01*
X225907518Y-106545908D01*
X225873331Y-106558659D01*
X225803639Y-106563642D01*
X225786669Y-106558659D01*
X225752480Y-106545908D01*
X225752482Y-106545908D01*
X225692883Y-106539501D01*
X225692881Y-106539500D01*
X225692873Y-106539500D01*
X225692864Y-106539500D01*
X224697129Y-106539500D01*
X224697123Y-106539501D01*
X224637518Y-106545908D01*
X224603331Y-106558659D01*
X224533639Y-106563642D01*
X224516669Y-106558659D01*
X224482480Y-106545908D01*
X224482482Y-106545908D01*
X224422883Y-106539501D01*
X224422881Y-106539500D01*
X224422873Y-106539500D01*
X224422864Y-106539500D01*
X223427129Y-106539500D01*
X223427123Y-106539501D01*
X223367518Y-106545908D01*
X223333331Y-106558659D01*
X223263639Y-106563642D01*
X223246669Y-106558659D01*
X223212480Y-106545908D01*
X223212482Y-106545908D01*
X223152883Y-106539501D01*
X223152881Y-106539500D01*
X223152873Y-106539500D01*
X223152864Y-106539500D01*
X222157129Y-106539500D01*
X222157123Y-106539501D01*
X222097518Y-106545908D01*
X222063331Y-106558659D01*
X221993639Y-106563642D01*
X221976669Y-106558659D01*
X221942480Y-106545908D01*
X221942482Y-106545908D01*
X221882883Y-106539501D01*
X221882881Y-106539500D01*
X221882873Y-106539500D01*
X221882864Y-106539500D01*
X220887129Y-106539500D01*
X220887123Y-106539501D01*
X220827518Y-106545908D01*
X220793331Y-106558659D01*
X220723639Y-106563642D01*
X220706669Y-106558659D01*
X220672480Y-106545908D01*
X220672482Y-106545908D01*
X220612883Y-106539501D01*
X220612881Y-106539500D01*
X220612873Y-106539500D01*
X220612865Y-106539500D01*
X219724499Y-106539500D01*
X219657460Y-106519815D01*
X219611705Y-106467011D01*
X219600499Y-106415500D01*
X219600499Y-106042129D01*
X219600498Y-106042123D01*
X219600497Y-106042116D01*
X219594091Y-105982517D01*
X219581340Y-105948332D01*
X219576357Y-105878642D01*
X219581340Y-105861669D01*
X219594091Y-105827483D01*
X219600500Y-105767873D01*
X219600499Y-104772128D01*
X219594091Y-104712517D01*
X219581340Y-104678332D01*
X219576357Y-104608642D01*
X219581340Y-104591669D01*
X219594091Y-104557483D01*
X219600500Y-104497873D01*
X219600499Y-103502128D01*
X219594091Y-103442517D01*
X219581340Y-103408332D01*
X219576357Y-103338642D01*
X219581340Y-103321669D01*
X219594091Y-103287483D01*
X219600500Y-103227873D01*
X219600499Y-102232128D01*
X219594091Y-102172517D01*
X219581340Y-102138332D01*
X219576357Y-102068642D01*
X219581340Y-102051669D01*
X219594091Y-102017483D01*
X219600500Y-101957873D01*
X219600499Y-100962128D01*
X219594091Y-100902517D01*
X219581340Y-100868332D01*
X219576357Y-100798642D01*
X219581340Y-100781669D01*
X219594091Y-100747483D01*
X219600500Y-100687873D01*
X219600499Y-99692128D01*
X219594091Y-99632517D01*
X219581340Y-99598332D01*
X219576357Y-99528642D01*
X219581340Y-99511669D01*
X219594091Y-99477483D01*
X219600500Y-99417873D01*
X219600499Y-98422128D01*
X219594091Y-98362517D01*
X219581340Y-98328332D01*
X219576357Y-98258642D01*
X219581340Y-98241669D01*
X219594091Y-98207483D01*
X219600500Y-98147873D01*
X219600499Y-97152128D01*
X219594091Y-97092517D01*
X219581340Y-97058332D01*
X219576357Y-96988642D01*
X219581340Y-96971669D01*
X219594091Y-96937483D01*
X219600500Y-96877873D01*
X219600499Y-95882128D01*
X219594091Y-95822517D01*
X219581340Y-95788332D01*
X219576357Y-95718642D01*
X219581340Y-95701669D01*
X219594091Y-95667483D01*
X219600500Y-95607873D01*
X219600499Y-94612128D01*
X219594091Y-94552517D01*
X219581340Y-94518332D01*
X219576357Y-94448642D01*
X219581340Y-94431669D01*
X219594091Y-94397483D01*
X219600500Y-94337873D01*
X219600499Y-93342128D01*
X219594091Y-93282517D01*
X219581340Y-93248332D01*
X219576357Y-93178642D01*
X219581340Y-93161669D01*
X219594091Y-93127483D01*
X219600500Y-93067873D01*
X219600499Y-92072128D01*
X219594091Y-92012517D01*
X219581340Y-91978332D01*
X219576357Y-91908642D01*
X219581340Y-91891669D01*
X219594091Y-91857483D01*
X219600500Y-91797873D01*
X219600499Y-90802128D01*
X219594091Y-90742517D01*
X219581073Y-90707616D01*
X219576090Y-90637926D01*
X219581075Y-90620949D01*
X219593597Y-90587375D01*
X219593598Y-90587372D01*
X219599999Y-90527844D01*
X219600000Y-90527827D01*
X219600000Y-90280000D01*
X218474000Y-90280000D01*
X218406961Y-90260315D01*
X218361206Y-90207511D01*
X218350000Y-90156000D01*
X218350000Y-90030000D01*
X218224000Y-90030000D01*
X218156961Y-90010315D01*
X218111206Y-89957511D01*
X218100000Y-89906000D01*
X218100000Y-89780000D01*
X218600000Y-89780000D01*
X219600000Y-89780000D01*
X219600000Y-89532172D01*
X219599999Y-89532155D01*
X234600000Y-89532155D01*
X234600000Y-89780000D01*
X235600000Y-89780000D01*
X236100000Y-89780000D01*
X237100000Y-89780000D01*
X237100000Y-89532172D01*
X237099999Y-89532155D01*
X237093598Y-89472627D01*
X237093596Y-89472620D01*
X237043354Y-89337913D01*
X237043350Y-89337906D01*
X236957190Y-89222812D01*
X236957187Y-89222809D01*
X236842093Y-89136649D01*
X236842086Y-89136645D01*
X236707379Y-89086403D01*
X236707372Y-89086401D01*
X236647844Y-89080000D01*
X236100000Y-89080000D01*
X236100000Y-89780000D01*
X235600000Y-89780000D01*
X235600000Y-89080000D01*
X235052155Y-89080000D01*
X234992627Y-89086401D01*
X234992620Y-89086403D01*
X234857913Y-89136645D01*
X234857906Y-89136649D01*
X234742812Y-89222809D01*
X234742809Y-89222812D01*
X234656649Y-89337906D01*
X234656645Y-89337913D01*
X234606403Y-89472620D01*
X234606401Y-89472627D01*
X234600000Y-89532155D01*
X219599999Y-89532155D01*
X219593598Y-89472627D01*
X219593596Y-89472620D01*
X219543354Y-89337913D01*
X219543350Y-89337906D01*
X219457190Y-89222812D01*
X219457187Y-89222809D01*
X219342093Y-89136649D01*
X219342086Y-89136645D01*
X219207379Y-89086403D01*
X219207372Y-89086401D01*
X219147844Y-89080000D01*
X218600000Y-89080000D01*
X218600000Y-89780000D01*
X218100000Y-89780000D01*
X218100000Y-89080000D01*
X217552155Y-89080000D01*
X217492627Y-89086401D01*
X217492620Y-89086403D01*
X217357913Y-89136645D01*
X217357906Y-89136649D01*
X217242812Y-89222809D01*
X217242809Y-89222812D01*
X217156646Y-89337910D01*
X217153957Y-89342835D01*
X217104547Y-89392237D01*
X217036273Y-89407083D01*
X216970811Y-89382661D01*
X216957448Y-89371081D01*
X216859335Y-89272968D01*
X216149045Y-88562677D01*
X216115562Y-88501357D01*
X216120546Y-88431665D01*
X216149045Y-88387321D01*
X217199548Y-87336819D01*
X217260871Y-87303334D01*
X217287229Y-87300500D01*
X217426082Y-87300500D01*
X217698126Y-87300500D01*
X217765165Y-87320185D01*
X217785807Y-87336819D01*
X217796955Y-87347967D01*
X217796959Y-87347970D01*
X217941294Y-87436998D01*
X217941297Y-87436999D01*
X217941303Y-87437003D01*
X218102292Y-87490349D01*
X218201655Y-87500500D01*
X218798344Y-87500499D01*
X218798352Y-87500498D01*
X218798355Y-87500498D01*
X218852760Y-87494940D01*
X218897708Y-87490349D01*
X219058697Y-87437003D01*
X219203044Y-87347968D01*
X219214193Y-87336819D01*
X219275516Y-87303334D01*
X219301874Y-87300500D01*
X222096268Y-87300500D01*
X222163307Y-87320185D01*
X222172735Y-87326885D01*
X222177307Y-87330466D01*
X222177312Y-87330469D01*
X222177315Y-87330472D01*
X222322894Y-87418478D01*
X222485304Y-87469086D01*
X222555884Y-87475500D01*
X222555887Y-87475500D01*
X223219113Y-87475500D01*
X223219116Y-87475500D01*
X223289696Y-87469086D01*
X223452106Y-87418478D01*
X223576328Y-87343382D01*
X223640477Y-87325500D01*
X226403395Y-87325500D01*
X226468491Y-87343961D01*
X226578803Y-87412003D01*
X226739792Y-87465349D01*
X226839155Y-87475500D01*
X227435844Y-87475499D01*
X227435852Y-87475498D01*
X227435855Y-87475498D01*
X227498624Y-87469086D01*
X227535208Y-87465349D01*
X227696197Y-87412003D01*
X227840544Y-87322968D01*
X227851693Y-87311819D01*
X227913016Y-87278334D01*
X227939374Y-87275500D01*
X230570980Y-87275500D01*
X230638019Y-87295185D01*
X230658661Y-87311819D01*
X230677311Y-87330469D01*
X230677313Y-87330470D01*
X230677315Y-87330472D01*
X230822894Y-87418478D01*
X230985304Y-87469086D01*
X231055884Y-87475500D01*
X231055887Y-87475500D01*
X231719113Y-87475500D01*
X231719116Y-87475500D01*
X231789696Y-87469086D01*
X231952106Y-87418478D01*
X232097685Y-87330472D01*
X232217972Y-87210185D01*
X232305978Y-87064606D01*
X232356586Y-86902196D01*
X232363000Y-86831616D01*
X232363000Y-86318384D01*
X232356586Y-86247804D01*
X232305978Y-86085394D01*
X232217972Y-85939815D01*
X232217970Y-85939813D01*
X232217969Y-85939811D01*
X232115839Y-85837681D01*
X232082354Y-85776358D01*
X232087338Y-85706666D01*
X232115839Y-85662319D01*
X232217968Y-85560189D01*
X232217969Y-85560188D01*
X232217972Y-85560185D01*
X232305978Y-85414606D01*
X232356586Y-85252196D01*
X232363000Y-85181616D01*
X232363000Y-84668384D01*
X232356586Y-84597804D01*
X232305978Y-84435394D01*
X232217972Y-84289815D01*
X232217970Y-84289813D01*
X232217969Y-84289811D01*
X232135346Y-84207188D01*
X232101861Y-84145865D01*
X232106845Y-84076173D01*
X232135346Y-84031826D01*
X232172251Y-83994921D01*
X232211781Y-83955391D01*
X232300049Y-83812287D01*
X232352936Y-83652685D01*
X232363000Y-83554174D01*
X232363000Y-83020826D01*
X232352936Y-82922315D01*
X232300049Y-82762713D01*
X232300045Y-82762707D01*
X232300044Y-82762704D01*
X232211783Y-82619612D01*
X232211780Y-82619608D01*
X232179500Y-82587328D01*
X232146015Y-82526005D01*
X232150999Y-82456313D01*
X232179500Y-82411966D01*
X232211385Y-82380080D01*
X232299591Y-82237077D01*
X232299593Y-82237072D01*
X232352442Y-82077583D01*
X232362499Y-81979150D01*
X232362500Y-81979137D01*
X232362500Y-81962500D01*
X230412501Y-81962500D01*
X230412501Y-81979152D01*
X230422556Y-82077583D01*
X230475406Y-82237072D01*
X230475408Y-82237077D01*
X230563614Y-82380080D01*
X230595500Y-82411967D01*
X230628985Y-82473291D01*
X230623999Y-82542982D01*
X230595500Y-82587327D01*
X230563219Y-82619607D01*
X230563216Y-82619612D01*
X230474955Y-82762704D01*
X230474950Y-82762715D01*
X230457740Y-82814651D01*
X230422064Y-82922315D01*
X230422064Y-82922316D01*
X230422063Y-82922316D01*
X230412000Y-83020818D01*
X230412000Y-83554181D01*
X230422063Y-83652683D01*
X230474950Y-83812284D01*
X230474955Y-83812295D01*
X230563216Y-83955387D01*
X230563219Y-83955391D01*
X230639654Y-84031826D01*
X230673139Y-84093149D01*
X230668155Y-84162841D01*
X230639654Y-84207188D01*
X230557031Y-84289810D01*
X230557030Y-84289811D01*
X230469022Y-84435393D01*
X230418413Y-84597807D01*
X230412000Y-84668386D01*
X230412000Y-85181613D01*
X230418413Y-85252192D01*
X230418413Y-85252194D01*
X230418414Y-85252196D01*
X230469022Y-85414606D01*
X230550570Y-85549503D01*
X230557030Y-85560188D01*
X230559661Y-85562819D01*
X230560971Y-85565218D01*
X230561657Y-85566094D01*
X230561511Y-85566207D01*
X230593146Y-85624142D01*
X230588162Y-85693834D01*
X230546290Y-85749767D01*
X230480826Y-85774184D01*
X230471980Y-85774500D01*
X228107141Y-85774500D01*
X228040102Y-85754815D01*
X227994347Y-85702011D01*
X227984403Y-85632853D01*
X228001603Y-85585403D01*
X228049042Y-85508492D01*
X228049047Y-85508481D01*
X228102355Y-85347606D01*
X228112499Y-85248322D01*
X228112500Y-85248309D01*
X228112500Y-85225000D01*
X226162501Y-85225000D01*
X226162501Y-85248322D01*
X226172644Y-85347607D01*
X226225952Y-85508481D01*
X226225957Y-85508492D01*
X226304238Y-85635403D01*
X226322679Y-85702795D01*
X226301757Y-85769458D01*
X226248115Y-85814228D01*
X226198700Y-85824500D01*
X223753020Y-85824500D01*
X223685981Y-85804815D01*
X223640226Y-85752011D01*
X223630282Y-85682853D01*
X223659307Y-85619297D01*
X223665339Y-85612819D01*
X223717968Y-85560189D01*
X223717969Y-85560188D01*
X223717972Y-85560185D01*
X223805978Y-85414606D01*
X223856586Y-85252196D01*
X223863000Y-85181616D01*
X223863000Y-84701677D01*
X226162500Y-84701677D01*
X226162500Y-84725000D01*
X226887500Y-84725000D01*
X227387500Y-84725000D01*
X228112499Y-84725000D01*
X228112499Y-84701692D01*
X228112498Y-84701677D01*
X228102355Y-84602392D01*
X228049047Y-84441518D01*
X228049042Y-84441507D01*
X227960075Y-84297271D01*
X227960072Y-84297267D01*
X227840232Y-84177427D01*
X227840228Y-84177424D01*
X227695992Y-84088457D01*
X227695981Y-84088452D01*
X227535106Y-84035144D01*
X227435822Y-84025000D01*
X227387500Y-84025000D01*
X227387500Y-84725000D01*
X226887500Y-84725000D01*
X226887500Y-84025000D01*
X226887499Y-84024999D01*
X226839193Y-84025000D01*
X226839175Y-84025001D01*
X226739892Y-84035144D01*
X226579018Y-84088452D01*
X226579007Y-84088457D01*
X226434771Y-84177424D01*
X226434767Y-84177427D01*
X226314927Y-84297267D01*
X226314924Y-84297271D01*
X226225957Y-84441507D01*
X226225952Y-84441518D01*
X226172644Y-84602393D01*
X226162500Y-84701677D01*
X223863000Y-84701677D01*
X223863000Y-84668384D01*
X223856586Y-84597804D01*
X223805978Y-84435394D01*
X223717972Y-84289815D01*
X223717970Y-84289813D01*
X223717969Y-84289811D01*
X223640839Y-84212681D01*
X223607354Y-84151358D01*
X223612338Y-84081666D01*
X223640839Y-84037319D01*
X223717968Y-83960189D01*
X223717969Y-83960188D01*
X223717972Y-83960185D01*
X223805978Y-83814606D01*
X223856586Y-83652196D01*
X223863000Y-83581616D01*
X223863000Y-83068384D01*
X223856586Y-82997804D01*
X223805978Y-82835394D01*
X223717972Y-82689815D01*
X223717970Y-82689813D01*
X223717969Y-82689811D01*
X223615484Y-82587326D01*
X223581999Y-82526003D01*
X223586983Y-82456311D01*
X223615485Y-82411963D01*
X223717571Y-82309878D01*
X223717572Y-82309877D01*
X223805519Y-82164395D01*
X223856090Y-82002106D01*
X223862500Y-81931572D01*
X223862500Y-81925000D01*
X223011500Y-81925000D01*
X222944461Y-81905315D01*
X222898706Y-81852511D01*
X222887500Y-81801000D01*
X222887500Y-81675000D01*
X222761500Y-81675000D01*
X222694461Y-81655315D01*
X222648706Y-81602511D01*
X222637500Y-81551000D01*
X222637500Y-81445849D01*
X230412500Y-81445849D01*
X230412500Y-81462500D01*
X231137500Y-81462500D01*
X231637500Y-81462500D01*
X232362499Y-81462500D01*
X232362499Y-81445864D01*
X232362498Y-81445847D01*
X232352443Y-81347416D01*
X232299593Y-81187927D01*
X232299591Y-81187922D01*
X232211385Y-81044919D01*
X232092580Y-80926114D01*
X231949577Y-80837908D01*
X231949572Y-80837906D01*
X231790083Y-80785057D01*
X231691650Y-80775000D01*
X231637500Y-80775000D01*
X231637500Y-81462500D01*
X231137500Y-81462500D01*
X231137500Y-80775000D01*
X231137499Y-80774999D01*
X231083364Y-80775000D01*
X231083347Y-80775001D01*
X230984915Y-80785057D01*
X230825427Y-80837906D01*
X230825422Y-80837908D01*
X230682419Y-80926114D01*
X230563614Y-81044919D01*
X230475408Y-81187922D01*
X230475406Y-81187927D01*
X230422557Y-81347416D01*
X230412500Y-81445849D01*
X222637500Y-81445849D01*
X222637500Y-81425000D01*
X223137500Y-81425000D01*
X223862499Y-81425000D01*
X223862499Y-81418417D01*
X223856091Y-81347897D01*
X223856090Y-81347892D01*
X223805518Y-81185603D01*
X223717572Y-81040122D01*
X223597377Y-80919927D01*
X223451895Y-80831980D01*
X223451896Y-80831980D01*
X223289605Y-80781409D01*
X223289606Y-80781409D01*
X223219072Y-80775000D01*
X223137500Y-80775000D01*
X223137500Y-81425000D01*
X222637500Y-81425000D01*
X222637500Y-80775000D01*
X222637499Y-80774999D01*
X222555917Y-80775000D01*
X222485397Y-80781408D01*
X222485392Y-80781409D01*
X222323103Y-80831981D01*
X222177622Y-80919927D01*
X222057427Y-81040122D01*
X221969481Y-81185603D01*
X221942091Y-81273499D01*
X221903353Y-81331647D01*
X221839328Y-81359620D01*
X221770342Y-81348538D01*
X221736025Y-81324289D01*
X220873916Y-80462181D01*
X220840431Y-80400858D01*
X220845415Y-80331167D01*
X220887287Y-80275233D01*
X220952751Y-80250816D01*
X220961597Y-80250500D01*
X223348543Y-80250500D01*
X223403026Y-80239662D01*
X223472373Y-80225868D01*
X223541836Y-80212051D01*
X223595165Y-80189961D01*
X223723914Y-80136632D01*
X223887782Y-80027139D01*
X224027139Y-79887782D01*
X224027139Y-79887780D01*
X224037347Y-79877573D01*
X224037348Y-79877570D01*
X226128102Y-77786818D01*
X226189425Y-77753333D01*
X226215783Y-77750499D01*
X226900002Y-77750499D01*
X226900008Y-77750499D01*
X227002797Y-77739999D01*
X227169334Y-77684814D01*
X227318656Y-77592712D01*
X227442712Y-77468656D01*
X227534814Y-77319334D01*
X227564697Y-77229152D01*
X230525001Y-77229152D01*
X230535056Y-77327583D01*
X230587906Y-77487072D01*
X230587908Y-77487077D01*
X230676114Y-77630080D01*
X230794919Y-77748885D01*
X230937922Y-77837091D01*
X230937927Y-77837093D01*
X231097416Y-77889942D01*
X231195855Y-77899999D01*
X231750000Y-77899999D01*
X231804136Y-77899999D01*
X231804152Y-77899998D01*
X231902583Y-77889943D01*
X232062072Y-77837093D01*
X232062077Y-77837091D01*
X232205080Y-77748885D01*
X232323885Y-77630080D01*
X232412091Y-77487077D01*
X232412093Y-77487072D01*
X232464942Y-77327583D01*
X232474999Y-77229150D01*
X232475000Y-77229137D01*
X232475000Y-77212500D01*
X231750000Y-77212500D01*
X231750000Y-77899999D01*
X231195855Y-77899999D01*
X231249999Y-77899998D01*
X231250000Y-77899998D01*
X231250000Y-77212500D01*
X230525001Y-77212500D01*
X230525001Y-77229152D01*
X227564697Y-77229152D01*
X227589999Y-77152797D01*
X227600500Y-77050009D01*
X227600499Y-76865781D01*
X227620183Y-76798742D01*
X227636813Y-76778105D01*
X230339975Y-74074944D01*
X230401296Y-74041461D01*
X230470988Y-74046445D01*
X230526921Y-74088317D01*
X230546040Y-74125737D01*
X230581522Y-74239606D01*
X230669530Y-74385188D01*
X230752154Y-74467812D01*
X230785639Y-74529135D01*
X230780655Y-74598827D01*
X230752154Y-74643174D01*
X230675719Y-74719608D01*
X230675716Y-74719612D01*
X230587455Y-74862704D01*
X230587451Y-74862713D01*
X230534564Y-75022315D01*
X230534564Y-75022316D01*
X230534563Y-75022316D01*
X230524500Y-75120818D01*
X230524500Y-75654181D01*
X230534563Y-75752683D01*
X230587450Y-75912284D01*
X230587455Y-75912295D01*
X230675716Y-76055387D01*
X230675719Y-76055392D01*
X230708000Y-76087673D01*
X230741485Y-76148997D01*
X230736499Y-76218688D01*
X230708000Y-76263033D01*
X230676114Y-76294919D01*
X230587908Y-76437922D01*
X230587906Y-76437927D01*
X230535057Y-76597416D01*
X230525000Y-76695849D01*
X230525000Y-76712500D01*
X232474999Y-76712500D01*
X232474999Y-76695864D01*
X232474998Y-76695847D01*
X232464943Y-76597416D01*
X232412093Y-76437927D01*
X232412091Y-76437922D01*
X232323885Y-76294919D01*
X232292000Y-76263034D01*
X232258515Y-76201711D01*
X232263499Y-76132019D01*
X232292000Y-76087672D01*
X232301629Y-76078043D01*
X232324281Y-76055391D01*
X232412549Y-75912287D01*
X232465436Y-75752685D01*
X232475500Y-75654174D01*
X232475500Y-75120826D01*
X232465436Y-75022315D01*
X232412549Y-74862713D01*
X232412545Y-74862707D01*
X232412544Y-74862704D01*
X232324283Y-74719612D01*
X232324280Y-74719608D01*
X232247845Y-74643173D01*
X232214360Y-74581850D01*
X232219344Y-74512158D01*
X232247844Y-74467812D01*
X232330472Y-74385185D01*
X232418478Y-74239606D01*
X232469086Y-74077196D01*
X232475500Y-74006616D01*
X232475500Y-73493384D01*
X232469086Y-73422804D01*
X232418787Y-73261388D01*
X232417638Y-73191529D01*
X232454439Y-73132137D01*
X232517508Y-73102069D01*
X232537174Y-73100500D01*
X233234218Y-73100500D01*
X233301257Y-73120185D01*
G37*
%TD.AperFunction*%
%TA.AperFunction,Conductor*%
G36*
X203964073Y-100886646D02*
G01*
X203989602Y-100901744D01*
X204031224Y-100913836D01*
X204147426Y-100947597D01*
X204147429Y-100947597D01*
X204147431Y-100947598D01*
X204184306Y-100950500D01*
X204580500Y-100950500D01*
X204647539Y-100970185D01*
X204693294Y-101022989D01*
X204704500Y-101074500D01*
X204704500Y-101756000D01*
X204701949Y-101764685D01*
X204703238Y-101773647D01*
X204692259Y-101797687D01*
X204684815Y-101823039D01*
X204677974Y-101828966D01*
X204674213Y-101837203D01*
X204651978Y-101851492D01*
X204632011Y-101868794D01*
X204628765Y-101869500D01*
X204589205Y-101829940D01*
X204520796Y-101790444D01*
X204444496Y-101770000D01*
X204305543Y-101770000D01*
X204302497Y-101756000D01*
X204302497Y-101200000D01*
X203837532Y-101200000D01*
X203770493Y-101180315D01*
X203724738Y-101127511D01*
X203714794Y-101058353D01*
X203743819Y-100994797D01*
X203749851Y-100988319D01*
X203758690Y-100979480D01*
X203775505Y-100962665D01*
X203793567Y-100931379D01*
X203844131Y-100883165D01*
X203912738Y-100869940D01*
X203964073Y-100886646D01*
G37*
%TD.AperFunction*%
%TA.AperFunction,Conductor*%
G36*
X205625036Y-93985152D02*
G01*
X205660883Y-94010118D01*
X205863181Y-94212416D01*
X205896666Y-94273739D01*
X205899500Y-94300097D01*
X205899500Y-94737312D01*
X205879815Y-94804351D01*
X205863181Y-94824993D01*
X205686513Y-95001660D01*
X205625190Y-95035145D01*
X205555498Y-95030161D01*
X205499565Y-94988289D01*
X205475148Y-94922825D01*
X205479756Y-94879382D01*
X205502095Y-94802494D01*
X205502290Y-94800032D01*
X205426710Y-94800032D01*
X205359671Y-94780347D01*
X205339029Y-94763713D01*
X205256845Y-94681529D01*
X205256837Y-94681523D01*
X205170103Y-94630229D01*
X205115373Y-94597862D01*
X205115372Y-94597861D01*
X205115371Y-94597861D01*
X205115368Y-94597860D01*
X204957548Y-94552008D01*
X204957542Y-94552007D01*
X204920676Y-94549106D01*
X204920669Y-94549106D01*
X204184283Y-94549106D01*
X204184275Y-94549106D01*
X204147409Y-94552007D01*
X204147403Y-94552008D01*
X203989579Y-94597861D01*
X203963894Y-94613050D01*
X203896170Y-94630229D01*
X203829908Y-94608067D01*
X203793391Y-94568315D01*
X203775505Y-94537335D01*
X203749852Y-94511682D01*
X203716367Y-94450359D01*
X203721351Y-94380667D01*
X203763223Y-94324734D01*
X203828687Y-94300317D01*
X203837533Y-94300001D01*
X205502291Y-94300001D01*
X205502291Y-94299999D01*
X205502096Y-94297514D01*
X205454125Y-94132394D01*
X205454325Y-94062524D01*
X205492267Y-94003854D01*
X205555906Y-93975011D01*
X205625036Y-93985152D01*
G37*
%TD.AperFunction*%
%TA.AperFunction,Conductor*%
G36*
X214037937Y-89227725D02*
G01*
X214045731Y-89226457D01*
X214070982Y-89237428D01*
X214097398Y-89245185D01*
X214102568Y-89251152D01*
X214109813Y-89254300D01*
X214125125Y-89277184D01*
X214143153Y-89297989D01*
X214144276Y-89305805D01*
X214148669Y-89312369D01*
X214149178Y-89339894D01*
X214153097Y-89367147D01*
X214149848Y-89376108D01*
X214149962Y-89382227D01*
X214135897Y-89414597D01*
X214088457Y-89491507D01*
X214088452Y-89491518D01*
X214035144Y-89652393D01*
X214025000Y-89751677D01*
X214025000Y-89775000D01*
X214876000Y-89775000D01*
X214943039Y-89794685D01*
X214988794Y-89847489D01*
X215000000Y-89899000D01*
X215000000Y-90025000D01*
X215126000Y-90025000D01*
X215193039Y-90044685D01*
X215238794Y-90097489D01*
X215250000Y-90149000D01*
X215250000Y-90974999D01*
X215298308Y-90974999D01*
X215298322Y-90974998D01*
X215397607Y-90964855D01*
X215558481Y-90911547D01*
X215558492Y-90911542D01*
X215702728Y-90822575D01*
X215702732Y-90822572D01*
X215822572Y-90702732D01*
X215822575Y-90702728D01*
X215871401Y-90623571D01*
X215923349Y-90576846D01*
X215992311Y-90565625D01*
X216056393Y-90593468D01*
X216064620Y-90600987D01*
X216363181Y-90899548D01*
X216396666Y-90960871D01*
X216399500Y-90987229D01*
X216399500Y-91003918D01*
X216399500Y-91003920D01*
X216399499Y-91003920D01*
X216428340Y-91148907D01*
X216428343Y-91148917D01*
X216484914Y-91285492D01*
X216502617Y-91311986D01*
X216502618Y-91311989D01*
X216567046Y-91408414D01*
X216567052Y-91408421D01*
X216922968Y-91764337D01*
X216956453Y-91825660D01*
X216951469Y-91895352D01*
X216909597Y-91951285D01*
X216867382Y-91971792D01*
X216723220Y-92010421D01*
X216723209Y-92010426D01*
X216586290Y-92089475D01*
X216586282Y-92089481D01*
X216134016Y-92541746D01*
X216072693Y-92575231D01*
X216003001Y-92570247D01*
X215947068Y-92528375D01*
X215928629Y-92493068D01*
X215911548Y-92441520D01*
X215911542Y-92441507D01*
X215822575Y-92297271D01*
X215822572Y-92297267D01*
X215702732Y-92177427D01*
X215702728Y-92177424D01*
X215558492Y-92088457D01*
X215558481Y-92088452D01*
X215397606Y-92035144D01*
X215298322Y-92025000D01*
X215250000Y-92025000D01*
X215250000Y-92851000D01*
X215230315Y-92918039D01*
X215177511Y-92963794D01*
X215126000Y-92975000D01*
X215000000Y-92975000D01*
X215000000Y-93101000D01*
X214980315Y-93168039D01*
X214927511Y-93213794D01*
X214876000Y-93225000D01*
X214025001Y-93225000D01*
X214025001Y-93248322D01*
X214035144Y-93347607D01*
X214088452Y-93508481D01*
X214088457Y-93508492D01*
X214177424Y-93652728D01*
X214177427Y-93652732D01*
X214186660Y-93661965D01*
X214187012Y-93662611D01*
X214187656Y-93662972D01*
X214203738Y-93693241D01*
X214220145Y-93723288D01*
X214220092Y-93724022D01*
X214220438Y-93724673D01*
X214217606Y-93758780D01*
X214215161Y-93792980D01*
X214214698Y-93793815D01*
X214214658Y-93794304D01*
X214213120Y-93796667D01*
X214197391Y-93825085D01*
X214192425Y-93831562D01*
X214177032Y-93846956D01*
X214162231Y-93870951D01*
X214158408Y-93875939D01*
X214135076Y-93892992D01*
X214113588Y-93912321D01*
X214106396Y-93913955D01*
X214102000Y-93917169D01*
X214088755Y-93917964D01*
X214059996Y-93924500D01*
X211866519Y-93924500D01*
X211799480Y-93904815D01*
X211778838Y-93888181D01*
X211728338Y-93837681D01*
X211694853Y-93776358D01*
X211699837Y-93706666D01*
X211728336Y-93662320D01*
X211830472Y-93560185D01*
X211918478Y-93414606D01*
X211969086Y-93252196D01*
X211975500Y-93181616D01*
X211975500Y-93062229D01*
X211995185Y-92995190D01*
X212011819Y-92974548D01*
X212284690Y-92701677D01*
X214025000Y-92701677D01*
X214025000Y-92725000D01*
X214750000Y-92725000D01*
X214750000Y-92025000D01*
X214749999Y-92024999D01*
X214701693Y-92025000D01*
X214701675Y-92025001D01*
X214602392Y-92035144D01*
X214441518Y-92088452D01*
X214441507Y-92088457D01*
X214297271Y-92177424D01*
X214297267Y-92177427D01*
X214177427Y-92297267D01*
X214177424Y-92297271D01*
X214088457Y-92441507D01*
X214088452Y-92441518D01*
X214035144Y-92602393D01*
X214025000Y-92701677D01*
X212284690Y-92701677D01*
X213332950Y-91653417D01*
X213332952Y-91653415D01*
X213371927Y-91595084D01*
X213415084Y-91530495D01*
X213465651Y-91408416D01*
X213471659Y-91393912D01*
X213495411Y-91274500D01*
X213500500Y-91248918D01*
X213500500Y-90298322D01*
X214025001Y-90298322D01*
X214035144Y-90397607D01*
X214088452Y-90558481D01*
X214088457Y-90558492D01*
X214177424Y-90702728D01*
X214177427Y-90702732D01*
X214297267Y-90822572D01*
X214297271Y-90822575D01*
X214441507Y-90911542D01*
X214441518Y-90911547D01*
X214602393Y-90964855D01*
X214701683Y-90974999D01*
X214749999Y-90974998D01*
X214750000Y-90974998D01*
X214750000Y-90275000D01*
X214025001Y-90275000D01*
X214025001Y-90298322D01*
X213500500Y-90298322D01*
X213500500Y-89349500D01*
X213520185Y-89282461D01*
X213572989Y-89236706D01*
X213624500Y-89225500D01*
X214030359Y-89225500D01*
X214037937Y-89227725D01*
G37*
%TD.AperFunction*%
%TA.AperFunction,Conductor*%
G36*
X219579442Y-80870185D02*
G01*
X219600084Y-80886819D01*
X221875681Y-83162416D01*
X221909166Y-83223739D01*
X221912000Y-83250097D01*
X221912000Y-83581613D01*
X221918413Y-83652192D01*
X221918413Y-83652194D01*
X221918414Y-83652196D01*
X221969022Y-83814606D01*
X222054127Y-83955387D01*
X222057030Y-83960188D01*
X222134161Y-84037319D01*
X222135796Y-84040314D01*
X222138702Y-84042108D01*
X222152423Y-84070763D01*
X222167646Y-84098642D01*
X222167402Y-84102046D01*
X222168877Y-84105126D01*
X222164927Y-84136649D01*
X222162662Y-84168334D01*
X222160490Y-84172070D01*
X222160192Y-84174454D01*
X222152782Y-84185335D01*
X222141653Y-84204487D01*
X222138090Y-84208752D01*
X222057028Y-84289815D01*
X222022012Y-84347737D01*
X222015958Y-84354987D01*
X221994452Y-84369366D01*
X221975374Y-84386838D01*
X221964577Y-84389342D01*
X221957876Y-84393823D01*
X221944187Y-84394071D01*
X221920785Y-84399500D01*
X219440004Y-84399500D01*
X219372965Y-84379815D01*
X219334465Y-84340596D01*
X219322968Y-84321956D01*
X219225839Y-84224827D01*
X219192354Y-84163504D01*
X219197338Y-84093812D01*
X219225839Y-84049464D01*
X219322576Y-83952727D01*
X219411542Y-83808492D01*
X219411547Y-83808481D01*
X219464855Y-83647606D01*
X219474999Y-83548322D01*
X219475000Y-83548309D01*
X219475000Y-83525000D01*
X217525001Y-83525000D01*
X217525001Y-83548322D01*
X217535144Y-83647607D01*
X217588452Y-83808481D01*
X217588457Y-83808492D01*
X217677424Y-83952728D01*
X217677427Y-83952732D01*
X217774160Y-84049465D01*
X217807645Y-84110788D01*
X217802661Y-84180480D01*
X217774161Y-84224827D01*
X217677029Y-84321959D01*
X217588001Y-84466294D01*
X217587996Y-84466305D01*
X217534651Y-84627290D01*
X217524500Y-84726647D01*
X217524500Y-85273337D01*
X217524501Y-85273355D01*
X217534650Y-85372707D01*
X217534651Y-85372710D01*
X217587996Y-85533694D01*
X217587999Y-85533701D01*
X217610155Y-85569621D01*
X217635123Y-85610100D01*
X217635310Y-85610402D01*
X217637394Y-85618021D01*
X217642566Y-85623989D01*
X217646483Y-85651237D01*
X217653751Y-85677795D01*
X217651386Y-85685330D01*
X217652510Y-85693147D01*
X217641072Y-85718190D01*
X217632829Y-85744458D01*
X217626766Y-85749517D01*
X217623485Y-85756703D01*
X217600320Y-85771589D01*
X217579187Y-85789228D01*
X217569856Y-85791167D01*
X217564707Y-85794477D01*
X217529772Y-85799500D01*
X217412229Y-85799500D01*
X217345190Y-85779815D01*
X217324548Y-85763181D01*
X216579319Y-85017951D01*
X216545834Y-84956628D01*
X216543000Y-84930270D01*
X216543000Y-84835078D01*
X216541356Y-84818384D01*
X216533285Y-84736447D01*
X216530384Y-84721864D01*
X216522844Y-84692324D01*
X216525335Y-84622503D01*
X216526012Y-84620527D01*
X216530384Y-84608136D01*
X216533285Y-84593553D01*
X216543000Y-84494926D01*
X216543000Y-84335074D01*
X216533285Y-84236447D01*
X216530384Y-84221864D01*
X216522844Y-84192324D01*
X216525335Y-84122503D01*
X216526012Y-84120527D01*
X216530384Y-84108136D01*
X216533285Y-84093553D01*
X216543000Y-83994926D01*
X216543000Y-83835074D01*
X216533285Y-83736447D01*
X216530384Y-83721864D01*
X216522844Y-83692324D01*
X216525335Y-83622503D01*
X216526012Y-83620527D01*
X216530384Y-83608136D01*
X216533285Y-83593553D01*
X216543000Y-83494926D01*
X216543000Y-83335074D01*
X216533285Y-83236447D01*
X216530384Y-83221864D01*
X216517003Y-83169441D01*
X216454907Y-83039650D01*
X216445747Y-83025941D01*
X216424868Y-82959264D01*
X216443352Y-82891884D01*
X216445749Y-82888153D01*
X216454497Y-82875060D01*
X216482071Y-82828589D01*
X216529892Y-82693042D01*
X216529896Y-82693025D01*
X216532792Y-82678468D01*
X216532794Y-82678456D01*
X216542500Y-82579921D01*
X216542500Y-82437500D01*
X215389000Y-82437500D01*
X215321961Y-82417815D01*
X215276206Y-82365011D01*
X215265000Y-82313500D01*
X215265000Y-82061873D01*
X215266323Y-82054904D01*
X215265500Y-82050751D01*
X215273636Y-82016408D01*
X215273783Y-82016035D01*
X215316677Y-81960882D01*
X215382580Y-81937674D01*
X215389147Y-81937500D01*
X216542500Y-81937500D01*
X216542500Y-81920078D01*
X216532794Y-81821543D01*
X216532793Y-81821540D01*
X216529895Y-81806969D01*
X216529892Y-81806958D01*
X216516525Y-81754587D01*
X216516524Y-81754585D01*
X216455969Y-81628016D01*
X216444793Y-81559046D01*
X216472679Y-81494983D01*
X216530773Y-81456165D01*
X216567826Y-81450500D01*
X217324903Y-81450500D01*
X217354343Y-81459144D01*
X217384330Y-81465668D01*
X217389345Y-81469422D01*
X217391942Y-81470185D01*
X217412584Y-81486819D01*
X217488181Y-81562416D01*
X217521666Y-81623739D01*
X217524500Y-81650097D01*
X217524500Y-81998337D01*
X217524501Y-81998355D01*
X217534650Y-82097707D01*
X217534651Y-82097710D01*
X217587996Y-82258694D01*
X217588001Y-82258705D01*
X217677029Y-82403040D01*
X217677032Y-82403044D01*
X217686660Y-82412672D01*
X217720145Y-82473995D01*
X217715161Y-82543687D01*
X217686663Y-82588031D01*
X217677428Y-82597265D01*
X217677424Y-82597271D01*
X217588457Y-82741507D01*
X217588452Y-82741518D01*
X217535144Y-82902393D01*
X217525000Y-83001677D01*
X217525000Y-83025000D01*
X219474999Y-83025000D01*
X219474999Y-83001692D01*
X219474998Y-83001677D01*
X219464855Y-82902392D01*
X219411547Y-82741518D01*
X219411542Y-82741507D01*
X219322575Y-82597271D01*
X219322572Y-82597267D01*
X219313339Y-82588034D01*
X219279854Y-82526711D01*
X219284838Y-82457019D01*
X219313343Y-82412668D01*
X219322968Y-82403044D01*
X219412003Y-82258697D01*
X219465349Y-82097708D01*
X219475500Y-81998345D01*
X219475499Y-81451656D01*
X219474907Y-81445864D01*
X219465349Y-81352292D01*
X219465348Y-81352289D01*
X219454966Y-81320957D01*
X219412003Y-81191303D01*
X219411999Y-81191297D01*
X219411998Y-81191294D01*
X219319177Y-81040809D01*
X219321605Y-81039311D01*
X219320837Y-81037406D01*
X219310963Y-81026011D01*
X219308037Y-81005661D01*
X219300348Y-80986593D01*
X219303165Y-80971778D01*
X219301019Y-80956853D01*
X219309560Y-80938150D01*
X219313401Y-80917953D01*
X219323779Y-80907014D01*
X219330044Y-80893297D01*
X219347340Y-80882181D01*
X219361491Y-80867267D01*
X219377079Y-80863069D01*
X219388822Y-80855523D01*
X219423757Y-80850500D01*
X219512403Y-80850500D01*
X219579442Y-80870185D01*
G37*
%TD.AperFunction*%
%TA.AperFunction,Conductor*%
G36*
X243900519Y-81945185D02*
G01*
X243921161Y-81961819D01*
X244039811Y-82080469D01*
X244039813Y-82080470D01*
X244039815Y-82080472D01*
X244185394Y-82168478D01*
X244347804Y-82219086D01*
X244418384Y-82225500D01*
X244749903Y-82225500D01*
X244816942Y-82245185D01*
X244837584Y-82261819D01*
X245187195Y-82611430D01*
X245220680Y-82672753D01*
X245215696Y-82742445D01*
X245187198Y-82786789D01*
X245177033Y-82796954D01*
X245177029Y-82796959D01*
X245088001Y-82941294D01*
X245087996Y-82941305D01*
X245034651Y-83102290D01*
X245024500Y-83201647D01*
X245024500Y-83748337D01*
X245024501Y-83748355D01*
X245034650Y-83847707D01*
X245034652Y-83847712D01*
X245039219Y-83861494D01*
X245041622Y-83931322D01*
X245005892Y-83991365D01*
X244943372Y-84022558D01*
X244921514Y-84024500D01*
X242827960Y-84024500D01*
X242760921Y-84004815D01*
X242715166Y-83952011D01*
X242705222Y-83882853D01*
X242710253Y-83861498D01*
X242714856Y-83847606D01*
X242724999Y-83748322D01*
X242725000Y-83748309D01*
X242725000Y-83725000D01*
X240775001Y-83725000D01*
X240775001Y-83748322D01*
X240785144Y-83847606D01*
X240789747Y-83861498D01*
X240792147Y-83931327D01*
X240756414Y-83991368D01*
X240693893Y-84022559D01*
X240672040Y-84024500D01*
X239679500Y-84024500D01*
X239676873Y-84023728D01*
X239674218Y-84024387D01*
X239643544Y-84013942D01*
X239612461Y-84004815D01*
X239610669Y-84002747D01*
X239608077Y-84001865D01*
X239587910Y-83976481D01*
X239566706Y-83952011D01*
X239565795Y-83948647D01*
X239564614Y-83947160D01*
X239562592Y-83936812D01*
X239556122Y-83912902D01*
X239555500Y-83906714D01*
X239555500Y-83835074D01*
X239545785Y-83736447D01*
X239542884Y-83721864D01*
X239533042Y-83683308D01*
X239532113Y-83674060D01*
X239536907Y-83648496D01*
X239537835Y-83622503D01*
X239538512Y-83620527D01*
X239542884Y-83608136D01*
X239545785Y-83593553D01*
X239555500Y-83494926D01*
X239555500Y-83335074D01*
X239545785Y-83236447D01*
X239543055Y-83222723D01*
X239543055Y-83222719D01*
X239543051Y-83222705D01*
X239542886Y-83221876D01*
X239542884Y-83221864D01*
X239537731Y-83201677D01*
X240775000Y-83201677D01*
X240775000Y-83225000D01*
X241500000Y-83225000D01*
X242000000Y-83225000D01*
X242724999Y-83225000D01*
X242724999Y-83201692D01*
X242724998Y-83201677D01*
X242714855Y-83102392D01*
X242661547Y-82941518D01*
X242661542Y-82941507D01*
X242572575Y-82797271D01*
X242572572Y-82797267D01*
X242452732Y-82677427D01*
X242452728Y-82677424D01*
X242308492Y-82588457D01*
X242308481Y-82588452D01*
X242147606Y-82535144D01*
X242048322Y-82525000D01*
X242000000Y-82525000D01*
X242000000Y-83225000D01*
X241500000Y-83225000D01*
X241500000Y-82525000D01*
X241499999Y-82524999D01*
X241451693Y-82525000D01*
X241451675Y-82525001D01*
X241352392Y-82535144D01*
X241191518Y-82588452D01*
X241191507Y-82588457D01*
X241047271Y-82677424D01*
X241047267Y-82677427D01*
X240927427Y-82797267D01*
X240927424Y-82797271D01*
X240838457Y-82941507D01*
X240838452Y-82941518D01*
X240785144Y-83102393D01*
X240775000Y-83201677D01*
X239537731Y-83201677D01*
X239529503Y-83169441D01*
X239467407Y-83039650D01*
X239458247Y-83025941D01*
X239437368Y-82959264D01*
X239455852Y-82891884D01*
X239458249Y-82888153D01*
X239466997Y-82875060D01*
X239494571Y-82828589D01*
X239542392Y-82693042D01*
X239542396Y-82693025D01*
X239545292Y-82678468D01*
X239545294Y-82678456D01*
X239555000Y-82579921D01*
X239555000Y-82437500D01*
X238401500Y-82437500D01*
X238334461Y-82417815D01*
X238288706Y-82365011D01*
X238277500Y-82313500D01*
X238277500Y-82061873D01*
X238278823Y-82054904D01*
X238278000Y-82050751D01*
X238286136Y-82016408D01*
X238286283Y-82016035D01*
X238329177Y-81960882D01*
X238395080Y-81937674D01*
X238401647Y-81937500D01*
X239575218Y-81937500D01*
X239592004Y-81928334D01*
X239618362Y-81925500D01*
X243833480Y-81925500D01*
X243900519Y-81945185D01*
G37*
%TD.AperFunction*%
%TA.AperFunction,Conductor*%
G36*
X239193834Y-73473599D02*
G01*
X239249767Y-73515471D01*
X239274184Y-73580935D01*
X239274500Y-73589781D01*
X239274500Y-74006613D01*
X239280913Y-74077192D01*
X239280913Y-74077194D01*
X239280914Y-74077196D01*
X239296040Y-74125737D01*
X239331522Y-74239606D01*
X239419530Y-74385188D01*
X239534161Y-74499819D01*
X239567646Y-74561142D01*
X239562662Y-74630834D01*
X239534161Y-74675181D01*
X239419531Y-74789810D01*
X239419530Y-74789811D01*
X239331522Y-74935393D01*
X239280913Y-75097807D01*
X239274500Y-75168386D01*
X239274500Y-75499902D01*
X239254815Y-75566941D01*
X239238181Y-75587583D01*
X236719481Y-78106282D01*
X236719479Y-78106285D01*
X236716675Y-78111142D01*
X236672349Y-78187918D01*
X236653095Y-78221267D01*
X236643633Y-78237656D01*
X236640423Y-78243215D01*
X236599499Y-78395943D01*
X236599499Y-78395945D01*
X236599499Y-78564046D01*
X236599500Y-78564059D01*
X236599500Y-79825500D01*
X236579815Y-79892539D01*
X236527011Y-79938294D01*
X236475500Y-79949500D01*
X236421155Y-79949500D01*
X236266510Y-79980261D01*
X236266498Y-79980264D01*
X236120827Y-80040602D01*
X236120814Y-80040609D01*
X235989711Y-80128210D01*
X235989707Y-80128213D01*
X235878213Y-80239707D01*
X235878210Y-80239711D01*
X235802602Y-80352866D01*
X235748989Y-80397671D01*
X235679664Y-80406378D01*
X235616637Y-80376223D01*
X235579918Y-80316780D01*
X235575500Y-80283975D01*
X235575500Y-77899999D01*
X236000000Y-77899999D01*
X236048308Y-77899999D01*
X236048322Y-77899998D01*
X236147607Y-77889855D01*
X236308481Y-77836547D01*
X236308492Y-77836542D01*
X236452728Y-77747575D01*
X236452732Y-77747572D01*
X236572572Y-77627732D01*
X236572575Y-77627728D01*
X236661542Y-77483492D01*
X236661547Y-77483481D01*
X236714855Y-77322606D01*
X236724999Y-77223322D01*
X236725000Y-77223309D01*
X236725000Y-77200000D01*
X236000000Y-77200000D01*
X236000000Y-77899999D01*
X235575500Y-77899999D01*
X235575500Y-77074000D01*
X235595185Y-77006961D01*
X235647989Y-76961206D01*
X235699500Y-76950000D01*
X235750000Y-76950000D01*
X235750000Y-76824000D01*
X235769685Y-76756961D01*
X235822489Y-76711206D01*
X235874000Y-76700000D01*
X236724999Y-76700000D01*
X236724999Y-76676692D01*
X236724998Y-76676677D01*
X236714855Y-76577392D01*
X236661547Y-76416518D01*
X236661542Y-76416507D01*
X236572575Y-76272271D01*
X236572572Y-76272267D01*
X236563339Y-76263034D01*
X236529854Y-76201711D01*
X236534838Y-76132019D01*
X236563343Y-76087668D01*
X236572968Y-76078044D01*
X236662003Y-75933697D01*
X236668012Y-75915558D01*
X236698036Y-75866882D01*
X239062820Y-73502098D01*
X239124142Y-73468615D01*
X239193834Y-73473599D01*
G37*
%TD.AperFunction*%
%TD*%
M02*
