%TF.GenerationSoftware,KiCad,Pcbnew,10.0.3*%
%TF.CreationDate,2026-05-30T16:42:28-04:00*%
%TF.ProjectId,float_pcb,666c6f61-745f-4706-9362-2e6b69636164,rev?*%
%TF.SameCoordinates,Original*%
%TF.FileFunction,Legend,Bot*%
%TF.FilePolarity,Positive*%
%FSLAX46Y46*%
G04 Gerber Fmt 4.6, Leading zero omitted, Abs format (unit mm)*
G04 Created by KiCad (PCBNEW 10.0.3) date 2026-05-30 16:42:28*
%MOMM*%
%LPD*%
G01*
G04 APERTURE LIST*
G04 Aperture macros list*
%AMRoundRect*
0 Rectangle with rounded corners*
0 $1 Rounding radius*
0 $2 $3 $4 $5 $6 $7 $8 $9 X,Y pos of 4 corners*
0 Add a 4 corners polygon primitive as box body*
4,1,4,$2,$3,$4,$5,$6,$7,$8,$9,$2,$3,0*
0 Add four circle primitives for the rounded corners*
1,1,$1+$1,$2,$3*
1,1,$1+$1,$4,$5*
1,1,$1+$1,$6,$7*
1,1,$1+$1,$8,$9*
0 Add four rect primitives between the rounded corners*
20,1,$1+$1,$2,$3,$4,$5,0*
20,1,$1+$1,$4,$5,$6,$7,0*
20,1,$1+$1,$6,$7,$8,$9,0*
20,1,$1+$1,$8,$9,$2,$3,0*%
G04 Aperture macros list end*
%ADD10C,0.100000*%
%ADD11C,0.000000*%
%ADD12C,2.200000*%
%ADD13RoundRect,0.760000X-1.140000X-1.140000X1.140000X-1.140000X1.140000X1.140000X-1.140000X1.140000X0*%
%ADD14C,3.800000*%
%ADD15RoundRect,0.250000X0.600000X0.750000X-0.600000X0.750000X-0.600000X-0.750000X0.600000X-0.750000X0*%
%ADD16O,1.700000X2.000000*%
%ADD17C,0.650000*%
%ADD18O,2.100000X1.000000*%
%ADD19O,1.800000X1.000000*%
%ADD20R,1.700000X1.700000*%
%ADD21C,1.700000*%
%ADD22RoundRect,0.250000X0.600000X0.725000X-0.600000X0.725000X-0.600000X-0.725000X0.600000X-0.725000X0*%
%ADD23O,1.700000X1.950000*%
%ADD24C,1.612000*%
G04 APERTURE END LIST*
D10*
X232952381Y-124512475D02*
X232952381Y-123512475D01*
X232952381Y-123512475D02*
X232380953Y-124512475D01*
X232380953Y-124512475D02*
X232380953Y-123512475D01*
X231333334Y-124417236D02*
X231380953Y-124464856D01*
X231380953Y-124464856D02*
X231523810Y-124512475D01*
X231523810Y-124512475D02*
X231619048Y-124512475D01*
X231619048Y-124512475D02*
X231761905Y-124464856D01*
X231761905Y-124464856D02*
X231857143Y-124369617D01*
X231857143Y-124369617D02*
X231904762Y-124274379D01*
X231904762Y-124274379D02*
X231952381Y-124083903D01*
X231952381Y-124083903D02*
X231952381Y-123941046D01*
X231952381Y-123941046D02*
X231904762Y-123750570D01*
X231904762Y-123750570D02*
X231857143Y-123655332D01*
X231857143Y-123655332D02*
X231761905Y-123560094D01*
X231761905Y-123560094D02*
X231619048Y-123512475D01*
X231619048Y-123512475D02*
X231523810Y-123512475D01*
X231523810Y-123512475D02*
X231380953Y-123560094D01*
X231380953Y-123560094D02*
X231333334Y-123607713D01*
X230952381Y-124464856D02*
X230809524Y-124512475D01*
X230809524Y-124512475D02*
X230571429Y-124512475D01*
X230571429Y-124512475D02*
X230476191Y-124464856D01*
X230476191Y-124464856D02*
X230428572Y-124417236D01*
X230428572Y-124417236D02*
X230380953Y-124321998D01*
X230380953Y-124321998D02*
X230380953Y-124226760D01*
X230380953Y-124226760D02*
X230428572Y-124131522D01*
X230428572Y-124131522D02*
X230476191Y-124083903D01*
X230476191Y-124083903D02*
X230571429Y-124036284D01*
X230571429Y-124036284D02*
X230761905Y-123988665D01*
X230761905Y-123988665D02*
X230857143Y-123941046D01*
X230857143Y-123941046D02*
X230904762Y-123893427D01*
X230904762Y-123893427D02*
X230952381Y-123798189D01*
X230952381Y-123798189D02*
X230952381Y-123702951D01*
X230952381Y-123702951D02*
X230904762Y-123607713D01*
X230904762Y-123607713D02*
X230857143Y-123560094D01*
X230857143Y-123560094D02*
X230761905Y-123512475D01*
X230761905Y-123512475D02*
X230523810Y-123512475D01*
X230523810Y-123512475D02*
X230380953Y-123560094D01*
X230000000Y-124464856D02*
X229857143Y-124512475D01*
X229857143Y-124512475D02*
X229619048Y-124512475D01*
X229619048Y-124512475D02*
X229523810Y-124464856D01*
X229523810Y-124464856D02*
X229476191Y-124417236D01*
X229476191Y-124417236D02*
X229428572Y-124321998D01*
X229428572Y-124321998D02*
X229428572Y-124226760D01*
X229428572Y-124226760D02*
X229476191Y-124131522D01*
X229476191Y-124131522D02*
X229523810Y-124083903D01*
X229523810Y-124083903D02*
X229619048Y-124036284D01*
X229619048Y-124036284D02*
X229809524Y-123988665D01*
X229809524Y-123988665D02*
X229904762Y-123941046D01*
X229904762Y-123941046D02*
X229952381Y-123893427D01*
X229952381Y-123893427D02*
X230000000Y-123798189D01*
X230000000Y-123798189D02*
X230000000Y-123702951D01*
X230000000Y-123702951D02*
X229952381Y-123607713D01*
X229952381Y-123607713D02*
X229904762Y-123560094D01*
X229904762Y-123560094D02*
X229809524Y-123512475D01*
X229809524Y-123512475D02*
X229571429Y-123512475D01*
X229571429Y-123512475D02*
X229428572Y-123560094D01*
X229000000Y-124512475D02*
X229000000Y-123512475D01*
X229000000Y-123512475D02*
X228666667Y-124226760D01*
X228666667Y-124226760D02*
X228333334Y-123512475D01*
X228333334Y-123512475D02*
X228333334Y-124512475D01*
X227095238Y-124512475D02*
X227095238Y-123512475D01*
X227095238Y-123512475D02*
X226761905Y-124226760D01*
X226761905Y-124226760D02*
X226428572Y-123512475D01*
X226428572Y-123512475D02*
X226428572Y-124512475D01*
X225809524Y-124512475D02*
X225904762Y-124464856D01*
X225904762Y-124464856D02*
X225952381Y-124417236D01*
X225952381Y-124417236D02*
X226000000Y-124321998D01*
X226000000Y-124321998D02*
X226000000Y-124036284D01*
X226000000Y-124036284D02*
X225952381Y-123941046D01*
X225952381Y-123941046D02*
X225904762Y-123893427D01*
X225904762Y-123893427D02*
X225809524Y-123845808D01*
X225809524Y-123845808D02*
X225666667Y-123845808D01*
X225666667Y-123845808D02*
X225571429Y-123893427D01*
X225571429Y-123893427D02*
X225523810Y-123941046D01*
X225523810Y-123941046D02*
X225476191Y-124036284D01*
X225476191Y-124036284D02*
X225476191Y-124321998D01*
X225476191Y-124321998D02*
X225523810Y-124417236D01*
X225523810Y-124417236D02*
X225571429Y-124464856D01*
X225571429Y-124464856D02*
X225666667Y-124512475D01*
X225666667Y-124512475D02*
X225809524Y-124512475D01*
X225047619Y-124512475D02*
X225047619Y-123845808D01*
X225047619Y-124036284D02*
X225000000Y-123941046D01*
X225000000Y-123941046D02*
X224952381Y-123893427D01*
X224952381Y-123893427D02*
X224857143Y-123845808D01*
X224857143Y-123845808D02*
X224761905Y-123845808D01*
X224000000Y-123845808D02*
X224000000Y-124655332D01*
X224000000Y-124655332D02*
X224047619Y-124750570D01*
X224047619Y-124750570D02*
X224095238Y-124798189D01*
X224095238Y-124798189D02*
X224190476Y-124845808D01*
X224190476Y-124845808D02*
X224333333Y-124845808D01*
X224333333Y-124845808D02*
X224428571Y-124798189D01*
X224000000Y-124464856D02*
X224095238Y-124512475D01*
X224095238Y-124512475D02*
X224285714Y-124512475D01*
X224285714Y-124512475D02*
X224380952Y-124464856D01*
X224380952Y-124464856D02*
X224428571Y-124417236D01*
X224428571Y-124417236D02*
X224476190Y-124321998D01*
X224476190Y-124321998D02*
X224476190Y-124036284D01*
X224476190Y-124036284D02*
X224428571Y-123941046D01*
X224428571Y-123941046D02*
X224380952Y-123893427D01*
X224380952Y-123893427D02*
X224285714Y-123845808D01*
X224285714Y-123845808D02*
X224095238Y-123845808D01*
X224095238Y-123845808D02*
X224000000Y-123893427D01*
X223095238Y-124512475D02*
X223095238Y-123988665D01*
X223095238Y-123988665D02*
X223142857Y-123893427D01*
X223142857Y-123893427D02*
X223238095Y-123845808D01*
X223238095Y-123845808D02*
X223428571Y-123845808D01*
X223428571Y-123845808D02*
X223523809Y-123893427D01*
X223095238Y-124464856D02*
X223190476Y-124512475D01*
X223190476Y-124512475D02*
X223428571Y-124512475D01*
X223428571Y-124512475D02*
X223523809Y-124464856D01*
X223523809Y-124464856D02*
X223571428Y-124369617D01*
X223571428Y-124369617D02*
X223571428Y-124274379D01*
X223571428Y-124274379D02*
X223523809Y-124179141D01*
X223523809Y-124179141D02*
X223428571Y-124131522D01*
X223428571Y-124131522D02*
X223190476Y-124131522D01*
X223190476Y-124131522D02*
X223095238Y-124083903D01*
X222619047Y-123845808D02*
X222619047Y-124512475D01*
X222619047Y-123941046D02*
X222571428Y-123893427D01*
X222571428Y-123893427D02*
X222476190Y-123845808D01*
X222476190Y-123845808D02*
X222333333Y-123845808D01*
X222333333Y-123845808D02*
X222238095Y-123893427D01*
X222238095Y-123893427D02*
X222190476Y-123988665D01*
X222190476Y-123988665D02*
X222190476Y-124512475D01*
X221857142Y-123845808D02*
X221476190Y-123845808D01*
X221714285Y-123512475D02*
X221714285Y-124369617D01*
X221714285Y-124369617D02*
X221666666Y-124464856D01*
X221666666Y-124464856D02*
X221571428Y-124512475D01*
X221571428Y-124512475D02*
X221476190Y-124512475D01*
X220999999Y-124512475D02*
X221095237Y-124464856D01*
X221095237Y-124464856D02*
X221142856Y-124417236D01*
X221142856Y-124417236D02*
X221190475Y-124321998D01*
X221190475Y-124321998D02*
X221190475Y-124036284D01*
X221190475Y-124036284D02*
X221142856Y-123941046D01*
X221142856Y-123941046D02*
X221095237Y-123893427D01*
X221095237Y-123893427D02*
X220999999Y-123845808D01*
X220999999Y-123845808D02*
X220857142Y-123845808D01*
X220857142Y-123845808D02*
X220761904Y-123893427D01*
X220761904Y-123893427D02*
X220714285Y-123941046D01*
X220714285Y-123941046D02*
X220666666Y-124036284D01*
X220666666Y-124036284D02*
X220666666Y-124321998D01*
X220666666Y-124321998D02*
X220714285Y-124417236D01*
X220714285Y-124417236D02*
X220761904Y-124464856D01*
X220761904Y-124464856D02*
X220857142Y-124512475D01*
X220857142Y-124512475D02*
X220999999Y-124512475D01*
X220238094Y-123845808D02*
X220238094Y-124512475D01*
X220238094Y-123941046D02*
X220190475Y-123893427D01*
X220190475Y-123893427D02*
X220095237Y-123845808D01*
X220095237Y-123845808D02*
X219952380Y-123845808D01*
X219952380Y-123845808D02*
X219857142Y-123893427D01*
X219857142Y-123893427D02*
X219809523Y-123988665D01*
X219809523Y-123988665D02*
X219809523Y-124512475D01*
X230857142Y-125598609D02*
X230523809Y-125598609D01*
X230380952Y-126122419D02*
X230857142Y-126122419D01*
X230857142Y-126122419D02*
X230857142Y-125122419D01*
X230857142Y-125122419D02*
X230380952Y-125122419D01*
X230047618Y-125455752D02*
X229809523Y-126122419D01*
X229809523Y-126122419D02*
X229571428Y-125455752D01*
X228761904Y-126122419D02*
X228761904Y-125598609D01*
X228761904Y-125598609D02*
X228809523Y-125503371D01*
X228809523Y-125503371D02*
X228904761Y-125455752D01*
X228904761Y-125455752D02*
X229095237Y-125455752D01*
X229095237Y-125455752D02*
X229190475Y-125503371D01*
X228761904Y-126074800D02*
X228857142Y-126122419D01*
X228857142Y-126122419D02*
X229095237Y-126122419D01*
X229095237Y-126122419D02*
X229190475Y-126074800D01*
X229190475Y-126074800D02*
X229238094Y-125979561D01*
X229238094Y-125979561D02*
X229238094Y-125884323D01*
X229238094Y-125884323D02*
X229190475Y-125789085D01*
X229190475Y-125789085D02*
X229095237Y-125741466D01*
X229095237Y-125741466D02*
X228857142Y-125741466D01*
X228857142Y-125741466D02*
X228761904Y-125693847D01*
X228285713Y-125455752D02*
X228285713Y-126122419D01*
X228285713Y-125550990D02*
X228238094Y-125503371D01*
X228238094Y-125503371D02*
X228142856Y-125455752D01*
X228142856Y-125455752D02*
X227999999Y-125455752D01*
X227999999Y-125455752D02*
X227904761Y-125503371D01*
X227904761Y-125503371D02*
X227857142Y-125598609D01*
X227857142Y-125598609D02*
X227857142Y-126122419D01*
X226619046Y-126122419D02*
X226619046Y-125122419D01*
X226047618Y-126122419D02*
X226476189Y-125550990D01*
X226047618Y-125122419D02*
X226619046Y-125693847D01*
X225619046Y-126122419D02*
X225619046Y-125455752D01*
X225619046Y-125122419D02*
X225666665Y-125170038D01*
X225666665Y-125170038D02*
X225619046Y-125217657D01*
X225619046Y-125217657D02*
X225571427Y-125170038D01*
X225571427Y-125170038D02*
X225619046Y-125122419D01*
X225619046Y-125122419D02*
X225619046Y-125217657D01*
X225142856Y-126122419D02*
X225142856Y-125455752D01*
X225142856Y-125550990D02*
X225095237Y-125503371D01*
X225095237Y-125503371D02*
X224999999Y-125455752D01*
X224999999Y-125455752D02*
X224857142Y-125455752D01*
X224857142Y-125455752D02*
X224761904Y-125503371D01*
X224761904Y-125503371D02*
X224714285Y-125598609D01*
X224714285Y-125598609D02*
X224714285Y-126122419D01*
X224714285Y-125598609D02*
X224666666Y-125503371D01*
X224666666Y-125503371D02*
X224571428Y-125455752D01*
X224571428Y-125455752D02*
X224428571Y-125455752D01*
X224428571Y-125455752D02*
X224333332Y-125503371D01*
X224333332Y-125503371D02*
X224285713Y-125598609D01*
X224285713Y-125598609D02*
X224285713Y-126122419D01*
X222999999Y-125122419D02*
X223095237Y-125312895D01*
X222619047Y-125217657D02*
X222571428Y-125170038D01*
X222571428Y-125170038D02*
X222476190Y-125122419D01*
X222476190Y-125122419D02*
X222238095Y-125122419D01*
X222238095Y-125122419D02*
X222142857Y-125170038D01*
X222142857Y-125170038D02*
X222095238Y-125217657D01*
X222095238Y-125217657D02*
X222047619Y-125312895D01*
X222047619Y-125312895D02*
X222047619Y-125408133D01*
X222047619Y-125408133D02*
X222095238Y-125550990D01*
X222095238Y-125550990D02*
X222666666Y-126122419D01*
X222666666Y-126122419D02*
X222047619Y-126122419D01*
X221714285Y-125122419D02*
X221047619Y-125122419D01*
X221047619Y-125122419D02*
X221476190Y-126122419D01*
D11*
%TO.C,G\u002A\u002A\u002A*%
G36*
X246989907Y-94361767D02*
G01*
X246967107Y-94384568D01*
X246944306Y-94361767D01*
X246967107Y-94338967D01*
X246989907Y-94361767D01*
G37*
G36*
X221215824Y-85545981D02*
G01*
X221651756Y-85568208D01*
X222040605Y-85610064D01*
X222361300Y-85671183D01*
X222543180Y-85726493D01*
X222819445Y-85831515D01*
X223124853Y-85964841D01*
X223433244Y-86114293D01*
X223718462Y-86267693D01*
X223954350Y-86412863D01*
X224009842Y-86452008D01*
X224144248Y-86553359D01*
X224305987Y-86680793D01*
X224478498Y-86820639D01*
X224645221Y-86959225D01*
X224789595Y-87082880D01*
X224895061Y-87177934D01*
X224945057Y-87230716D01*
X224953091Y-87247994D01*
X224944779Y-87261207D01*
X224906098Y-87266791D01*
X224824988Y-87264313D01*
X224689386Y-87253339D01*
X224487232Y-87233436D01*
X224206464Y-87204171D01*
X224101701Y-87193856D01*
X223797855Y-87168974D01*
X223452215Y-87146096D01*
X223099780Y-87127399D01*
X222775545Y-87115064D01*
X222515668Y-87105439D01*
X221878961Y-87058193D01*
X221310931Y-86976790D01*
X220798770Y-86857850D01*
X220329673Y-86697989D01*
X219890832Y-86493827D01*
X219469441Y-86241981D01*
X219448081Y-86227518D01*
X219321247Y-86132672D01*
X219189988Y-86022705D01*
X219069420Y-85912051D01*
X218974661Y-85815142D01*
X218920828Y-85746412D01*
X218923038Y-85720295D01*
X218941468Y-85718762D01*
X219037818Y-85707170D01*
X219199317Y-85686064D01*
X219409152Y-85657664D01*
X219650515Y-85624190D01*
X219836226Y-85600728D01*
X220286989Y-85561876D01*
X220753878Y-85543749D01*
X221215824Y-85545981D01*
G37*
G36*
X246551493Y-96922260D02*
G01*
X246557547Y-97234107D01*
X246562429Y-97485547D01*
X246561659Y-98051686D01*
X246548946Y-98599989D01*
X246543865Y-98704037D01*
X246524051Y-99109767D01*
X246486737Y-99560331D01*
X246421083Y-100140471D01*
X246344728Y-100721762D01*
X246264941Y-101239104D01*
X246183132Y-101683414D01*
X246100713Y-102045609D01*
X246077460Y-102136897D01*
X246029329Y-102329766D01*
X245973103Y-102558295D01*
X245916712Y-102790380D01*
X245908465Y-102824070D01*
X245826653Y-103127228D01*
X245718905Y-103487214D01*
X245593193Y-103879741D01*
X245463657Y-104262314D01*
X245457492Y-104280523D01*
X245319778Y-104665272D01*
X245188023Y-105009703D01*
X244793008Y-105937694D01*
X244216807Y-107106699D01*
X243573416Y-108219745D01*
X242857636Y-109285020D01*
X242064264Y-110310708D01*
X241188101Y-111304995D01*
X241175844Y-111318072D01*
X240977384Y-111528279D01*
X240792456Y-111721447D01*
X240633180Y-111885115D01*
X240511674Y-112006823D01*
X240440058Y-112074112D01*
X240376708Y-112128583D01*
X240250244Y-112239334D01*
X240091839Y-112379408D01*
X239921685Y-112531008D01*
X239683037Y-112741238D01*
X239014218Y-113295506D01*
X238323452Y-113815245D01*
X237593654Y-114312302D01*
X236807737Y-114798524D01*
X235948615Y-115285757D01*
X235880308Y-115322644D01*
X235344871Y-115591110D01*
X234743603Y-115861375D01*
X234098172Y-116125294D01*
X233430249Y-116374722D01*
X232761503Y-116601517D01*
X232113603Y-116797533D01*
X231508220Y-116954626D01*
X231432048Y-116972511D01*
X231230455Y-117020467D01*
X231055464Y-117062913D01*
X230938202Y-117092329D01*
X230731814Y-117140300D01*
X230405637Y-117202518D01*
X230023101Y-117264653D01*
X229603555Y-117324313D01*
X229166351Y-117379104D01*
X228730838Y-117426634D01*
X228316366Y-117464509D01*
X227942285Y-117490337D01*
X227627945Y-117501723D01*
X227593790Y-117502170D01*
X227376621Y-117506616D01*
X227197241Y-117512976D01*
X227073454Y-117520469D01*
X227023065Y-117528311D01*
X226993099Y-117535800D01*
X226881367Y-117540252D01*
X226700468Y-117537759D01*
X226463258Y-117529182D01*
X226182593Y-117515382D01*
X225871329Y-117497219D01*
X225542321Y-117475554D01*
X225208426Y-117451248D01*
X224882498Y-117425162D01*
X224577394Y-117398156D01*
X224305969Y-117371093D01*
X224081080Y-117344831D01*
X223915581Y-117320233D01*
X223461266Y-117236922D01*
X222659727Y-117076729D01*
X221926335Y-116910089D01*
X221245987Y-116732295D01*
X220603578Y-116538641D01*
X219984004Y-116324418D01*
X219372163Y-116084921D01*
X218752950Y-115815440D01*
X218111260Y-115511270D01*
X217740499Y-115327254D01*
X217415895Y-115160706D01*
X217125396Y-115004109D01*
X216844044Y-114843611D01*
X216546877Y-114665360D01*
X216208938Y-114455504D01*
X216150034Y-114418357D01*
X215066008Y-113678367D01*
X214034177Y-112865670D01*
X213058386Y-111984778D01*
X212142479Y-111040205D01*
X211290302Y-110036461D01*
X210505700Y-108978061D01*
X209792516Y-107869516D01*
X209154595Y-106715338D01*
X208595782Y-105520041D01*
X208275982Y-104722417D01*
X208234369Y-104599335D01*
X208707514Y-104599335D01*
X208713193Y-104666129D01*
X208756608Y-104802561D01*
X208832764Y-104998088D01*
X208936664Y-105242165D01*
X209063310Y-105524250D01*
X209207707Y-105833798D01*
X209364858Y-106160267D01*
X209529767Y-106493112D01*
X209697436Y-106821790D01*
X209862869Y-107135757D01*
X210021070Y-107424471D01*
X210167042Y-107677387D01*
X210782859Y-108637786D01*
X211489924Y-109604716D01*
X212255455Y-110529722D01*
X213062859Y-111391518D01*
X213570678Y-111882903D01*
X214491289Y-112694852D01*
X215439774Y-113434710D01*
X216407755Y-114096120D01*
X217386857Y-114672724D01*
X217973460Y-114980929D01*
X218977616Y-115460183D01*
X219971697Y-115869873D01*
X220975830Y-116217340D01*
X222010141Y-116509927D01*
X223094755Y-116754976D01*
X223115894Y-116759213D01*
X223292600Y-116794739D01*
X223439976Y-116824538D01*
X223527969Y-116842535D01*
X223553354Y-116847142D01*
X223667811Y-116864199D01*
X223835412Y-116886601D01*
X224029584Y-116910736D01*
X224079040Y-116916733D01*
X224309482Y-116946158D01*
X224534140Y-116976834D01*
X224710594Y-117003014D01*
X224713410Y-117003456D01*
X224847021Y-117018285D01*
X225051659Y-117033641D01*
X225307773Y-117048395D01*
X225595814Y-117061416D01*
X225896231Y-117071574D01*
X225922628Y-117072311D01*
X226214263Y-117080803D01*
X226484671Y-117089273D01*
X226716368Y-117097129D01*
X226891865Y-117103780D01*
X226993678Y-117108637D01*
X227182617Y-117111931D01*
X227447552Y-117103802D01*
X227772361Y-117085341D01*
X228141776Y-117057691D01*
X228540526Y-117021996D01*
X228953341Y-116979399D01*
X229364952Y-116931044D01*
X229475654Y-116916200D01*
X229741324Y-116875527D01*
X230048655Y-116823456D01*
X230378824Y-116763634D01*
X230713008Y-116699709D01*
X231032383Y-116635329D01*
X231318126Y-116574141D01*
X231551415Y-116519794D01*
X231713426Y-116475934D01*
X231731138Y-116470434D01*
X231866122Y-116428918D01*
X232060494Y-116369535D01*
X232290967Y-116299386D01*
X232534252Y-116225575D01*
X233287563Y-115978363D01*
X234450979Y-115521792D01*
X235613843Y-114974735D01*
X236775186Y-114337624D01*
X237011270Y-114193408D01*
X237292018Y-114012609D01*
X237594796Y-113810360D01*
X237903015Y-113598246D01*
X238200083Y-113387852D01*
X238469410Y-113190764D01*
X238694406Y-113018566D01*
X238858481Y-112882843D01*
X238886709Y-112858023D01*
X239041121Y-112726439D01*
X239225688Y-112573850D01*
X239406419Y-112428445D01*
X239532348Y-112323772D01*
X239751878Y-112127106D01*
X240008856Y-111884851D01*
X240289985Y-111610410D01*
X240581967Y-111317189D01*
X240871507Y-111018591D01*
X241145307Y-110728022D01*
X241390071Y-110458886D01*
X241592502Y-110224589D01*
X241643042Y-110163408D01*
X241808170Y-109958604D01*
X241989881Y-109727366D01*
X242177675Y-109483650D01*
X242361048Y-109241412D01*
X242529501Y-109014607D01*
X242672532Y-108817191D01*
X242779639Y-108663119D01*
X242840320Y-108566346D01*
X242850366Y-108538641D01*
X242836035Y-108484236D01*
X242767357Y-108414922D01*
X242631830Y-108315671D01*
X242412798Y-108142867D01*
X242180385Y-107919073D01*
X241972513Y-107680498D01*
X241816929Y-107456399D01*
X241758526Y-107342908D01*
X241678099Y-107158688D01*
X241607959Y-106970564D01*
X241581117Y-106879085D01*
X241527579Y-106574100D01*
X241519254Y-106420113D01*
X241753117Y-106420113D01*
X241835128Y-106840184D01*
X241947609Y-107151450D01*
X242132232Y-107492289D01*
X242377537Y-107791620D01*
X242698773Y-108071180D01*
X242738520Y-108101194D01*
X242871823Y-108198715D01*
X242971350Y-108266717D01*
X243017983Y-108291978D01*
X243027940Y-108287100D01*
X243082453Y-108222369D01*
X243169601Y-108091244D01*
X243283175Y-107905005D01*
X243416966Y-107674936D01*
X243564763Y-107412320D01*
X243720355Y-107128437D01*
X243877534Y-106834572D01*
X244030089Y-106542006D01*
X244171809Y-106262021D01*
X244296486Y-106005901D01*
X244397908Y-105784927D01*
X244490579Y-105574258D01*
X244582669Y-105365341D01*
X244659287Y-105191960D01*
X244709845Y-105078105D01*
X244757451Y-104969818D01*
X244842103Y-104769226D01*
X244917961Y-104580167D01*
X244978099Y-104420654D01*
X245015591Y-104308699D01*
X245023513Y-104262314D01*
X244979978Y-104239485D01*
X244875312Y-104189851D01*
X244733551Y-104124965D01*
X244711625Y-104114755D01*
X244547987Y-104027734D01*
X244337328Y-103903198D01*
X244102012Y-103755477D01*
X243864402Y-103598899D01*
X243646860Y-103447792D01*
X243471749Y-103316486D01*
X243461256Y-103308400D01*
X243366033Y-103256342D01*
X243298203Y-103252804D01*
X243248493Y-103297669D01*
X243150605Y-103407876D01*
X243021745Y-103565467D01*
X242873386Y-103755441D01*
X242717000Y-103962799D01*
X242564058Y-104172541D01*
X242426032Y-104369668D01*
X242314394Y-104539179D01*
X242291243Y-104576373D01*
X242025812Y-105066503D01*
X241847972Y-105535612D01*
X241757236Y-105986035D01*
X241753117Y-106420113D01*
X241519254Y-106420113D01*
X241509202Y-106234186D01*
X241526715Y-105896126D01*
X241580841Y-105596702D01*
X241657772Y-105356164D01*
X241853509Y-104910274D01*
X242115667Y-104450372D01*
X242432937Y-103990020D01*
X242794007Y-103542780D01*
X243187567Y-103122216D01*
X243602306Y-102741890D01*
X244026913Y-102415365D01*
X244450078Y-102156202D01*
X244513118Y-102122504D01*
X244650705Y-102039490D01*
X244709642Y-101973899D01*
X244688309Y-101913198D01*
X244585083Y-101844854D01*
X244398342Y-101756333D01*
X244040274Y-101619791D01*
X243595618Y-101519928D01*
X243115269Y-101488329D01*
X242956383Y-101491642D01*
X242637494Y-101518726D01*
X242312826Y-101575632D01*
X242256300Y-101590704D01*
X241976120Y-101665410D01*
X241621112Y-101791113D01*
X241241541Y-101955790D01*
X240831144Y-102162493D01*
X240383662Y-102414274D01*
X239892830Y-102714182D01*
X239352389Y-103065270D01*
X238756075Y-103470587D01*
X238097627Y-103933186D01*
X237627854Y-104270569D01*
X237100882Y-104658061D01*
X236600030Y-105037835D01*
X236107066Y-105424223D01*
X235603758Y-105831554D01*
X235071875Y-106274159D01*
X234493183Y-106766370D01*
X234392810Y-106851777D01*
X234304640Y-106926800D01*
X233833563Y-107312347D01*
X233755903Y-107375907D01*
X233250792Y-107759064D01*
X232780521Y-108081262D01*
X232336305Y-108347491D01*
X231909357Y-108562740D01*
X231490890Y-108732002D01*
X231072120Y-108860266D01*
X230644259Y-108952522D01*
X230492340Y-108975682D01*
X230168197Y-109007568D01*
X229834038Y-109020880D01*
X229514698Y-109015657D01*
X229235013Y-108991944D01*
X229019818Y-108949780D01*
X228785329Y-108868344D01*
X228390821Y-108677028D01*
X228018488Y-108431589D01*
X227685586Y-108145755D01*
X227409372Y-107833251D01*
X227207101Y-107507806D01*
X227118877Y-107309892D01*
X226989985Y-106892394D01*
X226943345Y-106481200D01*
X227204652Y-106481200D01*
X227216357Y-106717867D01*
X227248375Y-106924963D01*
X227315340Y-107150610D01*
X227496891Y-107527919D01*
X227750857Y-107874573D01*
X228066045Y-108180445D01*
X228431266Y-108435405D01*
X228835328Y-108629324D01*
X229267040Y-108752072D01*
X229636183Y-108794104D01*
X230112194Y-108784236D01*
X230619961Y-108713792D01*
X231143048Y-108586055D01*
X231665020Y-108404313D01*
X232169441Y-108171851D01*
X232319140Y-108088756D01*
X232514483Y-107971285D01*
X232723058Y-107838724D01*
X232929645Y-107701437D01*
X233119021Y-107569791D01*
X233275963Y-107454151D01*
X233385251Y-107364881D01*
X233431661Y-107312347D01*
X233404609Y-107286391D01*
X233299889Y-107234296D01*
X233125296Y-107161287D01*
X232890073Y-107070471D01*
X232603468Y-106964956D01*
X232274726Y-106847850D01*
X231913091Y-106722262D01*
X231527809Y-106591298D01*
X231128127Y-106458067D01*
X230723288Y-106325677D01*
X230322539Y-106197235D01*
X229935126Y-106075850D01*
X229570293Y-105964629D01*
X229237286Y-105866681D01*
X228945350Y-105785113D01*
X228703732Y-105723032D01*
X228674029Y-105715915D01*
X228369422Y-105645575D01*
X228083896Y-105584148D01*
X227831338Y-105534247D01*
X227625636Y-105498482D01*
X227480676Y-105479465D01*
X227410346Y-105479807D01*
X227378062Y-105503437D01*
X227319384Y-105609757D01*
X227270625Y-105779241D01*
X227233865Y-105993340D01*
X227211181Y-106233509D01*
X227204652Y-106481200D01*
X226943345Y-106481200D01*
X226942580Y-106474452D01*
X226977002Y-106046641D01*
X227093589Y-105599535D01*
X227292678Y-105123706D01*
X227306258Y-105098358D01*
X227590408Y-105098358D01*
X227630211Y-105116532D01*
X227745555Y-105150628D01*
X227914206Y-105191910D01*
X228115730Y-105235058D01*
X228237200Y-105259869D01*
X228584732Y-105336667D01*
X228938038Y-105424319D01*
X229316996Y-105528192D01*
X229741484Y-105653649D01*
X230231380Y-105806056D01*
X230367197Y-105849060D01*
X230695575Y-105952877D01*
X231036257Y-106060402D01*
X231356165Y-106161201D01*
X231622223Y-106244837D01*
X231739038Y-106282209D01*
X232032104Y-106379951D01*
X232362335Y-106494212D01*
X232697333Y-106613692D01*
X233004702Y-106727089D01*
X233229886Y-106811391D01*
X233452002Y-106893256D01*
X233631765Y-106958107D01*
X233754881Y-107000793D01*
X233807060Y-107016166D01*
X233851377Y-106993236D01*
X233924346Y-106925792D01*
X233926112Y-106923837D01*
X233955977Y-106885535D01*
X233959622Y-106851777D01*
X233925786Y-106813885D01*
X233843211Y-106763185D01*
X233700635Y-106691000D01*
X233486799Y-106588654D01*
X233330487Y-106514838D01*
X232972184Y-106348124D01*
X232578500Y-106167631D01*
X232172969Y-105983982D01*
X231779121Y-105807802D01*
X231420490Y-105649716D01*
X231120608Y-105520349D01*
X231035635Y-105484044D01*
X230791346Y-105377697D01*
X230547258Y-105269108D01*
X230345383Y-105176890D01*
X230000677Y-105016096D01*
X229564884Y-104813144D01*
X229201403Y-104644376D01*
X228904179Y-104507040D01*
X228667161Y-104398384D01*
X228484296Y-104315653D01*
X228349533Y-104256096D01*
X228256819Y-104216959D01*
X228200101Y-104195489D01*
X228173327Y-104188934D01*
X228170310Y-104189133D01*
X228109624Y-104229829D01*
X228021782Y-104328475D01*
X227918677Y-104466519D01*
X227812200Y-104625407D01*
X227714243Y-104786588D01*
X227636697Y-104931509D01*
X227591455Y-105041616D01*
X227590408Y-105098358D01*
X227306258Y-105098358D01*
X227487389Y-104760273D01*
X227854921Y-104200635D01*
X228286027Y-103666181D01*
X228765585Y-103173401D01*
X229278472Y-102738789D01*
X229809566Y-102378835D01*
X229887644Y-102332183D01*
X230028866Y-102245507D01*
X230126514Y-102182336D01*
X230162977Y-102153878D01*
X230145695Y-102139087D01*
X230067060Y-102092553D01*
X229946371Y-102028941D01*
X229833700Y-101974639D01*
X229412297Y-101817243D01*
X228977035Y-101727498D01*
X228523296Y-101706414D01*
X228046462Y-101755003D01*
X227541914Y-101874277D01*
X227005035Y-102065247D01*
X226431205Y-102328924D01*
X225839369Y-102653401D01*
X225815807Y-102666319D01*
X225154221Y-103078445D01*
X223557126Y-104171728D01*
X223512721Y-104202125D01*
X221873081Y-105427648D01*
X220290267Y-106719829D01*
X220133601Y-106852965D01*
X219633715Y-107270677D01*
X219187416Y-107630699D01*
X218811838Y-107919038D01*
X218786469Y-107938514D01*
X218422645Y-108199603D01*
X218087709Y-108419450D01*
X217773430Y-108603535D01*
X217471576Y-108757342D01*
X217173915Y-108886352D01*
X216872214Y-108996048D01*
X216707842Y-109046594D01*
X216315824Y-109140425D01*
X215903780Y-109207526D01*
X215492589Y-109246320D01*
X215103135Y-109255233D01*
X214756298Y-109232687D01*
X214472960Y-109177107D01*
X214284337Y-109113907D01*
X213841025Y-108905762D01*
X213436387Y-108631218D01*
X213082820Y-108301134D01*
X212792724Y-107926369D01*
X212578494Y-107517782D01*
X212551025Y-107444692D01*
X212469241Y-107119213D01*
X212429686Y-106757039D01*
X212432379Y-106560850D01*
X212662133Y-106560850D01*
X212691985Y-106984368D01*
X212804672Y-107394007D01*
X212993328Y-107779997D01*
X213251084Y-108132564D01*
X213571072Y-108441937D01*
X213946423Y-108698345D01*
X214370270Y-108892015D01*
X214523161Y-108935675D01*
X214818239Y-108984254D01*
X215159341Y-109008451D01*
X215520803Y-109007743D01*
X215876963Y-108981603D01*
X216202157Y-108929506D01*
X216450172Y-108867216D01*
X216809288Y-108754543D01*
X217174547Y-108618519D01*
X217513821Y-108471335D01*
X217794983Y-108325180D01*
X218034400Y-108182027D01*
X218234884Y-108054671D01*
X218356218Y-107966748D01*
X218397242Y-107919038D01*
X218397210Y-107918580D01*
X218360711Y-107879101D01*
X218265063Y-107798037D01*
X218124485Y-107686964D01*
X217953193Y-107557460D01*
X217809293Y-107449789D01*
X217440972Y-107167525D01*
X217028861Y-106844071D01*
X216589766Y-106493033D01*
X216140494Y-106128018D01*
X215697851Y-105762634D01*
X215278644Y-105410487D01*
X214899677Y-105085185D01*
X214736199Y-104943082D01*
X214504031Y-104741732D01*
X214295767Y-104561649D01*
X214122616Y-104412502D01*
X213995787Y-104303959D01*
X213926488Y-104245690D01*
X213800025Y-104142897D01*
X213666672Y-104314092D01*
X213442467Y-104617587D01*
X213131469Y-105110258D01*
X212896727Y-105587062D01*
X212741036Y-106041969D01*
X212667195Y-106468949D01*
X212662133Y-106560850D01*
X212432379Y-106560850D01*
X212434662Y-106394464D01*
X212486472Y-106067780D01*
X212552289Y-105845776D01*
X212750500Y-105364204D01*
X213020667Y-104874632D01*
X213352322Y-104389335D01*
X213734994Y-103920587D01*
X214158215Y-103480664D01*
X214611516Y-103081839D01*
X215084426Y-102736390D01*
X215566476Y-102456589D01*
X215767641Y-102355458D01*
X215543222Y-102225890D01*
X215494733Y-102200003D01*
X215322214Y-102123303D01*
X215109927Y-102043496D01*
X214893039Y-101974194D01*
X214712813Y-101924817D01*
X214543381Y-101888181D01*
X214383535Y-101870027D01*
X214199791Y-101866796D01*
X213958663Y-101874931D01*
X213740223Y-101888875D01*
X213379622Y-101936478D01*
X213039638Y-102018118D01*
X212810088Y-102094448D01*
X212645674Y-102161907D01*
X212418464Y-102255131D01*
X211979940Y-102465822D01*
X211507093Y-102719989D01*
X211012497Y-103011102D01*
X210508726Y-103332629D01*
X210464124Y-103362255D01*
X210140471Y-103578931D01*
X209828044Y-103790877D01*
X209536107Y-103991579D01*
X209273922Y-104174526D01*
X209050753Y-104333207D01*
X208875863Y-104461108D01*
X208758515Y-104551719D01*
X208707972Y-104598528D01*
X208707514Y-104599335D01*
X208234369Y-104599335D01*
X207851318Y-103466343D01*
X207511737Y-102186937D01*
X207257899Y-100889886D01*
X207090464Y-99580876D01*
X207010093Y-98265592D01*
X207011785Y-97962743D01*
X207442132Y-97962743D01*
X207447110Y-98393968D01*
X207457414Y-98794610D01*
X207473051Y-99144514D01*
X207494026Y-99423527D01*
X207502928Y-99510829D01*
X207615846Y-100412564D01*
X207764889Y-101308498D01*
X207945763Y-102177778D01*
X208154172Y-102999551D01*
X208385821Y-103752963D01*
X208393645Y-103775901D01*
X208466817Y-103980408D01*
X208532980Y-104148811D01*
X208585139Y-104264212D01*
X208616299Y-104309712D01*
X208630099Y-104308036D01*
X208708237Y-104270460D01*
X208831821Y-104194312D01*
X208981110Y-104091405D01*
X209114924Y-103996115D01*
X209325361Y-103849068D01*
X209556885Y-103689561D01*
X209779135Y-103538622D01*
X209799287Y-103525047D01*
X209980214Y-103401966D01*
X210130918Y-103297372D01*
X210236173Y-103221958D01*
X210280751Y-103186415D01*
X210301522Y-103169205D01*
X210389890Y-103109248D01*
X210532283Y-103018113D01*
X210713355Y-102905133D01*
X210917763Y-102779641D01*
X211130161Y-102650968D01*
X211335207Y-102528447D01*
X211517555Y-102421411D01*
X211661861Y-102339192D01*
X211752782Y-102291122D01*
X211795344Y-102269236D01*
X211881215Y-102208780D01*
X211906605Y-102161907D01*
X211902599Y-102154160D01*
X211856296Y-102084537D01*
X211768331Y-101961183D01*
X211649367Y-101798877D01*
X211510069Y-101612396D01*
X211389558Y-101450242D01*
X211008223Y-100901616D01*
X210669983Y-100351956D01*
X210370466Y-99790036D01*
X210105299Y-99204631D01*
X209870109Y-98584514D01*
X209660523Y-97918459D01*
X209472168Y-97195240D01*
X209300670Y-96403632D01*
X209141658Y-95532409D01*
X209124642Y-95428540D01*
X209048568Y-94866483D01*
X208998263Y-94308403D01*
X208975674Y-93781489D01*
X208981381Y-93403364D01*
X209341376Y-93403364D01*
X209350843Y-93937853D01*
X209373118Y-94440799D01*
X209408331Y-94892636D01*
X209456612Y-95273796D01*
X209540076Y-95766461D01*
X209670981Y-96457347D01*
X209809012Y-97096201D01*
X209951859Y-97673235D01*
X210097209Y-98178664D01*
X210242753Y-98602701D01*
X210555238Y-99350544D01*
X210965348Y-100157569D01*
X211435957Y-100915945D01*
X211976946Y-101642999D01*
X212296442Y-102038413D01*
X212505723Y-101948705D01*
X212528724Y-101938968D01*
X212956184Y-101794529D01*
X213426084Y-101695008D01*
X213910081Y-101643505D01*
X214379829Y-101643120D01*
X214806983Y-101696956D01*
X214936508Y-101727504D01*
X215194250Y-101808825D01*
X215438503Y-101910300D01*
X215654247Y-102023563D01*
X215826462Y-102140248D01*
X215940126Y-102251989D01*
X215980222Y-102350421D01*
X215957274Y-102377225D01*
X215871333Y-102434012D01*
X215743649Y-102501624D01*
X215607154Y-102576005D01*
X215416775Y-102696085D01*
X215202046Y-102843943D01*
X214975451Y-103009713D01*
X214749471Y-103183528D01*
X214536589Y-103355523D01*
X214349285Y-103515830D01*
X214200043Y-103654584D01*
X214101344Y-103761919D01*
X214065670Y-103827967D01*
X214078979Y-103854133D01*
X214149725Y-103937068D01*
X214271288Y-104061209D01*
X214432183Y-104215627D01*
X214620923Y-104389392D01*
X214826024Y-104571577D01*
X215036000Y-104751253D01*
X215071031Y-104780652D01*
X215276891Y-104954700D01*
X215496490Y-105142018D01*
X215687871Y-105306847D01*
X215812081Y-105412597D01*
X216036290Y-105598334D01*
X216318082Y-105827564D01*
X216648931Y-106093446D01*
X217020315Y-106389139D01*
X217423709Y-106707802D01*
X217850590Y-107042593D01*
X217905813Y-107085611D01*
X218110054Y-107242476D01*
X218300462Y-107385544D01*
X218457834Y-107500516D01*
X218562969Y-107573093D01*
X218750931Y-107693747D01*
X219232018Y-107297955D01*
X219295706Y-107245440D01*
X219497343Y-107078287D01*
X219743657Y-106873164D01*
X220016753Y-106645013D01*
X220298734Y-106408776D01*
X220571703Y-106179397D01*
X220605113Y-106151330D01*
X220917957Y-105892615D01*
X221269202Y-105608170D01*
X221632024Y-105319367D01*
X221979598Y-105047580D01*
X222285102Y-104814180D01*
X223139901Y-104171728D01*
X222444707Y-103825179D01*
X222260574Y-103732665D01*
X221956084Y-103574688D01*
X221686831Y-103425994D01*
X221431360Y-103273542D01*
X221168214Y-103104289D01*
X220875938Y-102905193D01*
X220533075Y-102663212D01*
X220495687Y-102636509D01*
X219895850Y-102198929D01*
X219369752Y-101795006D01*
X218910360Y-101417264D01*
X218510642Y-101058231D01*
X218163565Y-100710434D01*
X217862097Y-100366398D01*
X217599206Y-100018650D01*
X217367859Y-99659717D01*
X217161025Y-99282125D01*
X216971669Y-98878401D01*
X216885579Y-98674695D01*
X216762375Y-98349783D01*
X216660986Y-98027751D01*
X216578234Y-97692926D01*
X216510937Y-97329633D01*
X216455918Y-96922200D01*
X216409997Y-96454952D01*
X216369995Y-95912216D01*
X216366155Y-95657430D01*
X216370183Y-95579997D01*
X216719365Y-95579997D01*
X216729694Y-96071821D01*
X216750372Y-96382711D01*
X216849246Y-97185676D01*
X217012158Y-97927896D01*
X217241426Y-98614621D01*
X217539372Y-99251099D01*
X217908315Y-99842581D01*
X218350575Y-100394315D01*
X218868472Y-100911552D01*
X219114447Y-101128185D01*
X219591302Y-101523951D01*
X220098366Y-101917480D01*
X220622269Y-102299723D01*
X221149638Y-102661632D01*
X221667102Y-102994161D01*
X222161290Y-103288261D01*
X222618831Y-103534885D01*
X223026353Y-103724985D01*
X223069501Y-103743152D01*
X223262268Y-103822780D01*
X223399618Y-103867086D01*
X223506719Y-103873754D01*
X223608742Y-103840470D01*
X223730857Y-103764918D01*
X223898235Y-103644783D01*
X223943536Y-103612222D01*
X224134012Y-103477447D01*
X224348262Y-103328483D01*
X224572214Y-103174827D01*
X224791796Y-103025973D01*
X224992936Y-102891419D01*
X225161561Y-102780659D01*
X225283601Y-102703190D01*
X225344983Y-102668507D01*
X225347661Y-102653401D01*
X225304107Y-102588777D01*
X225210311Y-102487191D01*
X225078417Y-102362578D01*
X224891672Y-102191467D01*
X224632064Y-101943594D01*
X224362952Y-101677360D01*
X224099812Y-101408622D01*
X223858116Y-101153239D01*
X223653338Y-100927069D01*
X223500952Y-100745968D01*
X223365884Y-100569921D01*
X223002927Y-100040526D01*
X222664888Y-99457536D01*
X222344896Y-98808447D01*
X222036079Y-98080760D01*
X221938274Y-97826937D01*
X222331293Y-97826937D01*
X222333082Y-97848821D01*
X222363482Y-97940110D01*
X222421041Y-98087285D01*
X222498893Y-98274297D01*
X222590171Y-98485097D01*
X222688008Y-98703637D01*
X222785537Y-98913866D01*
X222875891Y-99099736D01*
X222910326Y-99167712D01*
X223182111Y-99660774D01*
X223480779Y-100124455D01*
X223817380Y-100572566D01*
X224202959Y-101018916D01*
X224648566Y-101477315D01*
X225165248Y-101961576D01*
X225243514Y-102031633D01*
X225414850Y-102180686D01*
X225558948Y-102300178D01*
X225662567Y-102379323D01*
X225712465Y-102407335D01*
X225770223Y-102393061D01*
X225870530Y-102352316D01*
X225926795Y-102318900D01*
X225958050Y-102268865D01*
X225965303Y-102179341D01*
X225955153Y-102024792D01*
X225926587Y-101809553D01*
X225854002Y-101534587D01*
X225733322Y-101249489D01*
X225555105Y-100928374D01*
X225375298Y-100650432D01*
X225067565Y-100241975D01*
X224730937Y-99863205D01*
X224379592Y-99528412D01*
X224027711Y-99251890D01*
X223689474Y-99047932D01*
X223570669Y-98988483D01*
X223465622Y-98935452D01*
X223418045Y-98910790D01*
X223424865Y-98890236D01*
X223699182Y-98890236D01*
X223721714Y-98928556D01*
X223819657Y-98977184D01*
X224011510Y-99097090D01*
X224235229Y-99258143D01*
X224471606Y-99445549D01*
X224701433Y-99644516D01*
X224905503Y-99840250D01*
X225129266Y-100081208D01*
X225449077Y-100474858D01*
X225716551Y-100869066D01*
X225924974Y-101252384D01*
X226067631Y-101613367D01*
X226137804Y-101940569D01*
X226162308Y-102177540D01*
X226418388Y-102048836D01*
X226518643Y-102000121D01*
X226877722Y-101846250D01*
X227264428Y-101706524D01*
X227644039Y-101592762D01*
X227981833Y-101516778D01*
X228146223Y-101492433D01*
X228629719Y-101467317D01*
X229107707Y-101507464D01*
X229562722Y-101609399D01*
X229977302Y-101769648D01*
X230333983Y-101984737D01*
X230408346Y-102049206D01*
X230471798Y-102138544D01*
X230470475Y-102203147D01*
X230400288Y-102228015D01*
X230367105Y-102231581D01*
X230239213Y-102277998D01*
X230070042Y-102371067D01*
X229870161Y-102501828D01*
X229650138Y-102661317D01*
X229420543Y-102840574D01*
X229191943Y-103030636D01*
X228974909Y-103222542D01*
X228780008Y-103407331D01*
X228617809Y-103576039D01*
X228498881Y-103719707D01*
X228433793Y-103829371D01*
X228433114Y-103896071D01*
X228466676Y-103929866D01*
X228524210Y-103960870D01*
X228538508Y-103963345D01*
X228578933Y-103977351D01*
X228650554Y-104007162D01*
X228761906Y-104056656D01*
X228921527Y-104129706D01*
X229137953Y-104230191D01*
X229419720Y-104361985D01*
X229775365Y-104528965D01*
X229888737Y-104581811D01*
X230162942Y-104707291D01*
X230452242Y-104837236D01*
X230710195Y-104950695D01*
X230883625Y-105026659D01*
X231053175Y-105102817D01*
X231176434Y-105160357D01*
X231234611Y-105190678D01*
X231253211Y-105201791D01*
X231345039Y-105245305D01*
X231471779Y-105297629D01*
X231533013Y-105321852D01*
X231764340Y-105418098D01*
X232054356Y-105543842D01*
X232385647Y-105691150D01*
X232740805Y-105852088D01*
X233102416Y-106018719D01*
X233453071Y-106183111D01*
X233775357Y-106337328D01*
X234051864Y-106473435D01*
X234181567Y-106537667D01*
X234282939Y-106586068D01*
X234325472Y-106603885D01*
X234330059Y-106600750D01*
X234385468Y-106555513D01*
X234493164Y-106464933D01*
X234640373Y-106339802D01*
X234814324Y-106190908D01*
X235145983Y-105909966D01*
X235686524Y-105466200D01*
X236252107Y-105017262D01*
X236833441Y-104569763D01*
X237421236Y-104130313D01*
X238006201Y-103705523D01*
X238579046Y-103302003D01*
X239130481Y-102926364D01*
X239651216Y-102585215D01*
X240131960Y-102285169D01*
X240563424Y-102032834D01*
X240936317Y-101834821D01*
X241086653Y-101758899D01*
X241238630Y-101678442D01*
X241341736Y-101619323D01*
X241379344Y-101590704D01*
X241371977Y-101579395D01*
X241305338Y-101519370D01*
X241177168Y-101417564D01*
X240996998Y-101280839D01*
X240774357Y-101116056D01*
X240518776Y-100930077D01*
X240239786Y-100729764D01*
X239946916Y-100521977D01*
X239649697Y-100313577D01*
X239357660Y-100111428D01*
X239080334Y-99922389D01*
X238827250Y-99753322D01*
X238728028Y-99688456D01*
X238160954Y-99342052D01*
X237639135Y-99068749D01*
X237156563Y-98867140D01*
X236769650Y-98754059D01*
X237516604Y-98754059D01*
X237528288Y-98769727D01*
X237603463Y-98820971D01*
X237733319Y-98895185D01*
X237900738Y-98982204D01*
X237984640Y-99025431D01*
X238263344Y-99182337D01*
X238598189Y-99386416D01*
X238978211Y-99630276D01*
X239392441Y-99906524D01*
X239829913Y-100207767D01*
X240279660Y-100526612D01*
X240730715Y-100855665D01*
X241172112Y-101187533D01*
X241316591Y-101294487D01*
X241470308Y-101400104D01*
X241588201Y-101471904D01*
X241652508Y-101498392D01*
X241704113Y-101490800D01*
X241826094Y-101459089D01*
X241975330Y-101411087D01*
X242086290Y-101375137D01*
X242535502Y-101277658D01*
X243017660Y-101238758D01*
X243502746Y-101259499D01*
X243960745Y-101340940D01*
X244099631Y-101382824D01*
X244315773Y-101465697D01*
X244532235Y-101565414D01*
X244727215Y-101670836D01*
X244878911Y-101770824D01*
X244965517Y-101854241D01*
X245010390Y-101932389D01*
X245021289Y-101973736D01*
X245021030Y-101973899D01*
X245004833Y-101984075D01*
X244924417Y-102032366D01*
X244793630Y-102109984D01*
X244630429Y-102206248D01*
X244535411Y-102264360D01*
X244309631Y-102413737D01*
X244071543Y-102583008D01*
X243859174Y-102745580D01*
X243463735Y-103063817D01*
X243596570Y-103173387D01*
X243690687Y-103247804D01*
X243928742Y-103419543D01*
X244199410Y-103598794D01*
X244469390Y-103763936D01*
X244705385Y-103893347D01*
X244737715Y-103909466D01*
X244888864Y-103981906D01*
X245004807Y-104032835D01*
X245062636Y-104052073D01*
X245083018Y-104032592D01*
X245128387Y-103937393D01*
X245188620Y-103773927D01*
X245260170Y-103554469D01*
X245339487Y-103291292D01*
X245423024Y-102996670D01*
X245507232Y-102682875D01*
X245588564Y-102362183D01*
X245663470Y-102046867D01*
X245728402Y-101749200D01*
X245796391Y-101404644D01*
X245887002Y-100893163D01*
X245966188Y-100383041D01*
X246031693Y-99891674D01*
X246081259Y-99436455D01*
X246112629Y-99034778D01*
X246123546Y-98704037D01*
X246123480Y-98394960D01*
X245656065Y-98789045D01*
X245277656Y-99095300D01*
X244852730Y-99401222D01*
X244457305Y-99638045D01*
X244081109Y-99810337D01*
X243713873Y-99922665D01*
X243345325Y-99979598D01*
X242965194Y-99985702D01*
X242825243Y-99974957D01*
X242480907Y-99900448D01*
X242176105Y-99752810D01*
X241890108Y-99523123D01*
X241726755Y-99347364D01*
X241566694Y-99099699D01*
X241478009Y-98829115D01*
X241450215Y-98511498D01*
X241450220Y-98471276D01*
X241456351Y-98284774D01*
X241479520Y-98138012D01*
X241528926Y-97991232D01*
X241613769Y-97804676D01*
X241621594Y-97788531D01*
X241837210Y-97412351D01*
X242106680Y-97045082D01*
X242411941Y-96706827D01*
X242734928Y-96417692D01*
X243057579Y-96197780D01*
X243314272Y-96052911D01*
X243065824Y-95938075D01*
X242909746Y-95876715D01*
X242701495Y-95829196D01*
X242441854Y-95806075D01*
X242431468Y-95805621D01*
X242202311Y-95807310D01*
X241972622Y-95834171D01*
X241734751Y-95889986D01*
X241481048Y-95978534D01*
X241203862Y-96103595D01*
X240895543Y-96268949D01*
X240548441Y-96478377D01*
X240154906Y-96735658D01*
X239707287Y-97044571D01*
X239696548Y-97052252D01*
X239197935Y-97408898D01*
X239116282Y-97468590D01*
X238909382Y-97623333D01*
X238682885Y-97796609D01*
X238448313Y-97979198D01*
X238217190Y-98161883D01*
X238001038Y-98335443D01*
X237811380Y-98490659D01*
X237659740Y-98618314D01*
X237557640Y-98709187D01*
X237516604Y-98754059D01*
X236769650Y-98754059D01*
X236707230Y-98735816D01*
X236285129Y-98673369D01*
X235884251Y-98678393D01*
X235498589Y-98749479D01*
X235122134Y-98885220D01*
X235106820Y-98892117D01*
X234950713Y-98969413D01*
X234875846Y-99026030D01*
X234876987Y-99068563D01*
X234948903Y-99103610D01*
X234975941Y-99114886D01*
X235079746Y-99170318D01*
X235226465Y-99257244D01*
X235393517Y-99362517D01*
X235477570Y-99419141D01*
X235826327Y-99694599D01*
X236176320Y-100029470D01*
X236510858Y-100403978D01*
X236813248Y-100798349D01*
X237066798Y-101192809D01*
X237254816Y-101567581D01*
X237299852Y-101679783D01*
X237346113Y-101821581D01*
X237372998Y-101962597D01*
X237385677Y-102133465D01*
X237387647Y-102258673D01*
X237389318Y-102364819D01*
X237389383Y-102389246D01*
X237387511Y-102604545D01*
X237377246Y-102760122D01*
X237353272Y-102884713D01*
X237310270Y-103007052D01*
X237242923Y-103155874D01*
X237212574Y-103216660D01*
X236995072Y-103541926D01*
X236708806Y-103833647D01*
X236371269Y-104078728D01*
X235999953Y-104264073D01*
X235612349Y-104376588D01*
X235504888Y-104392460D01*
X235152883Y-104404637D01*
X234757288Y-104369856D01*
X234341243Y-104292061D01*
X233927889Y-104175201D01*
X233540363Y-104023221D01*
X233447350Y-103978842D01*
X233069226Y-103767957D01*
X232643982Y-103486173D01*
X232169841Y-103132251D01*
X231645024Y-102704956D01*
X231066483Y-102222676D01*
X230301752Y-101603358D01*
X229574764Y-101036147D01*
X228888405Y-100523023D01*
X228245565Y-100065964D01*
X227736091Y-99725124D01*
X228143157Y-99725124D01*
X228186766Y-99775022D01*
X228289519Y-99862495D01*
X228438935Y-99977361D01*
X228622532Y-100109436D01*
X229184999Y-100510456D01*
X230262287Y-101325036D01*
X231280213Y-102157358D01*
X231495275Y-102339619D01*
X231951330Y-102717674D01*
X232355514Y-103038405D01*
X232716355Y-103307102D01*
X233042381Y-103529054D01*
X233342120Y-103709551D01*
X233624099Y-103853883D01*
X233896847Y-103967340D01*
X234168891Y-104055211D01*
X234448759Y-104122786D01*
X234580760Y-104147535D01*
X234878947Y-104187959D01*
X235171585Y-104209151D01*
X235431172Y-104209599D01*
X235630210Y-104187790D01*
X235844697Y-104127823D01*
X236185813Y-103974874D01*
X236504808Y-103765659D01*
X236778779Y-103516161D01*
X236984829Y-103242364D01*
X237114213Y-102976390D01*
X237208055Y-102625537D01*
X237221595Y-102258673D01*
X237154017Y-101873034D01*
X237004511Y-101465859D01*
X236772261Y-101034385D01*
X236456456Y-100575848D01*
X236056282Y-100087487D01*
X235878537Y-99885019D01*
X235631440Y-99961006D01*
X235171586Y-100070859D01*
X234742299Y-100104694D01*
X234355376Y-100058596D01*
X234010006Y-99932551D01*
X233874792Y-99856606D01*
X233576801Y-99627206D01*
X233350044Y-99354647D01*
X233198481Y-99048660D01*
X233126074Y-98718974D01*
X233132226Y-98521524D01*
X233276451Y-98521524D01*
X233298392Y-98848667D01*
X233406591Y-99152995D01*
X233601165Y-99431444D01*
X233700462Y-99530597D01*
X233876579Y-99676334D01*
X234046015Y-99788119D01*
X234076883Y-99804743D01*
X234206913Y-99865890D01*
X234333042Y-99902815D01*
X234486951Y-99922475D01*
X234700320Y-99931829D01*
X234779675Y-99933437D01*
X234966886Y-99933807D01*
X235116575Y-99929425D01*
X235201936Y-99920877D01*
X235374733Y-99878601D01*
X235550156Y-99829333D01*
X235649456Y-99790550D01*
X235680751Y-99759517D01*
X235675150Y-99745948D01*
X235614425Y-99682981D01*
X235501631Y-99590472D01*
X235355149Y-99481745D01*
X235193356Y-99370127D01*
X235034631Y-99268942D01*
X234897354Y-99191517D01*
X234854253Y-99169421D01*
X234723352Y-99094411D01*
X234665753Y-99036325D01*
X234672823Y-98980153D01*
X234735927Y-98910885D01*
X234819822Y-98842146D01*
X235090672Y-98688565D01*
X235419662Y-98576809D01*
X235788962Y-98509385D01*
X236180742Y-98488800D01*
X236577172Y-98517561D01*
X236960421Y-98598174D01*
X237338395Y-98707651D01*
X237706611Y-98388936D01*
X237809340Y-98302025D01*
X238009666Y-98138353D01*
X238247427Y-97948962D01*
X238501139Y-97750905D01*
X238749317Y-97561237D01*
X239423808Y-97052252D01*
X239300174Y-96961049D01*
X239272305Y-96940311D01*
X239222511Y-96902321D01*
X239158322Y-96852034D01*
X239071702Y-96782967D01*
X238954614Y-96688636D01*
X238799023Y-96562558D01*
X238596891Y-96398251D01*
X238340184Y-96189232D01*
X238020864Y-95929018D01*
X237886521Y-95820415D01*
X237450750Y-95479937D01*
X237020066Y-95160471D01*
X236604751Y-94868868D01*
X236215088Y-94611979D01*
X235861358Y-94396654D01*
X235553845Y-94229743D01*
X235302829Y-94118097D01*
X235178794Y-94079384D01*
X234910110Y-94031532D01*
X234628873Y-94019131D01*
X234367091Y-94042621D01*
X234156768Y-94102437D01*
X233978026Y-94182727D01*
X234206168Y-94329125D01*
X234238673Y-94350831D01*
X234422428Y-94495210D01*
X234629323Y-94684922D01*
X234835204Y-94895521D01*
X235015917Y-95102565D01*
X235147310Y-95281607D01*
X235268858Y-95498668D01*
X235393967Y-95835494D01*
X235429652Y-96139076D01*
X235431365Y-96153648D01*
X235381214Y-96451009D01*
X235243675Y-96725457D01*
X235018907Y-96974872D01*
X235018898Y-96974880D01*
X234750218Y-97160624D01*
X234449223Y-97268306D01*
X234101569Y-97303060D01*
X233815474Y-97303060D01*
X233673295Y-97509709D01*
X233490885Y-97811053D01*
X233340654Y-98174632D01*
X233276451Y-98521524D01*
X233132226Y-98521524D01*
X233136782Y-98375321D01*
X233234567Y-98027431D01*
X233322210Y-97840238D01*
X233529958Y-97495725D01*
X233790024Y-97149955D01*
X234083276Y-96825225D01*
X234390581Y-96543831D01*
X234692806Y-96328071D01*
X234958901Y-96168843D01*
X234761208Y-96063330D01*
X234665252Y-96017353D01*
X234566282Y-95986455D01*
X234444009Y-95968615D01*
X234275820Y-95960566D01*
X234039100Y-95959043D01*
X233957118Y-95959363D01*
X233745115Y-95963335D01*
X233588009Y-95975449D01*
X233458163Y-96000440D01*
X233327940Y-96043043D01*
X233169701Y-96107994D01*
X232977128Y-96197982D01*
X232643933Y-96377916D01*
X232527031Y-96448133D01*
X232260768Y-96608064D01*
X231837749Y-96881451D01*
X231384994Y-97191101D01*
X230912620Y-97530037D01*
X230430744Y-97891284D01*
X229949484Y-98267866D01*
X229478956Y-98652806D01*
X229389112Y-98727895D01*
X229143631Y-98931474D01*
X228910726Y-99122491D01*
X228704662Y-99289362D01*
X228539706Y-99420506D01*
X228430123Y-99504339D01*
X228300505Y-99599682D01*
X228196554Y-99677492D01*
X228143717Y-99718769D01*
X228143157Y-99725124D01*
X227736091Y-99725124D01*
X227649133Y-99666949D01*
X227101996Y-99327957D01*
X226607042Y-99050965D01*
X226167161Y-98837953D01*
X225785240Y-98690899D01*
X225674084Y-98657923D01*
X225276772Y-98579611D01*
X224870019Y-98553721D01*
X224481490Y-98580752D01*
X224138852Y-98661203D01*
X224072976Y-98684691D01*
X223883419Y-98762788D01*
X223755953Y-98833141D01*
X223699182Y-98890236D01*
X223424865Y-98890236D01*
X223430038Y-98874645D01*
X223486447Y-98801298D01*
X223591677Y-98714495D01*
X223777433Y-98611830D01*
X224008526Y-98516352D01*
X224260698Y-98437898D01*
X224509691Y-98386307D01*
X224867600Y-98334141D01*
X224942512Y-98137987D01*
X224952301Y-98113059D01*
X225098881Y-97822858D01*
X225306701Y-97511729D01*
X225558189Y-97199889D01*
X225835773Y-96907555D01*
X226121883Y-96654944D01*
X226398946Y-96462273D01*
X226427986Y-96445046D01*
X226560130Y-96359424D01*
X226647645Y-96290411D01*
X226672849Y-96251608D01*
X226654365Y-96230512D01*
X226550319Y-96169758D01*
X226387613Y-96111114D01*
X226190018Y-96060998D01*
X225981303Y-96025825D01*
X225785240Y-96012013D01*
X225711654Y-96013106D01*
X225445002Y-96041445D01*
X225159895Y-96110461D01*
X224849688Y-96223488D01*
X224507739Y-96383860D01*
X224127403Y-96594911D01*
X223702036Y-96859975D01*
X223224996Y-97182387D01*
X222689638Y-97565480D01*
X222602588Y-97629133D01*
X222466431Y-97728597D01*
X222370425Y-97798599D01*
X222331293Y-97826937D01*
X221938274Y-97826937D01*
X221916225Y-97769717D01*
X221710714Y-97183469D01*
X221552601Y-96651181D01*
X221443786Y-96179585D01*
X221386167Y-95775412D01*
X221382606Y-95733478D01*
X221358008Y-95426833D01*
X221342602Y-95183895D01*
X221336043Y-94980545D01*
X221337019Y-94886031D01*
X221689097Y-94886031D01*
X221715733Y-95477663D01*
X221795271Y-96087246D01*
X221924583Y-96690157D01*
X222100537Y-97261773D01*
X222138642Y-97364748D01*
X222200128Y-97520631D01*
X222247604Y-97627932D01*
X222273093Y-97667871D01*
X222283713Y-97663625D01*
X222353631Y-97619985D01*
X222470821Y-97539175D01*
X222616916Y-97433704D01*
X222698053Y-97374428D01*
X223016535Y-97149035D01*
X223345300Y-96926588D01*
X223673810Y-96713380D01*
X223991530Y-96515705D01*
X224287923Y-96339858D01*
X224552452Y-96192131D01*
X224774581Y-96078820D01*
X224943773Y-96006218D01*
X225049492Y-95980618D01*
X225084210Y-95975479D01*
X225094499Y-95947492D01*
X225053464Y-95889921D01*
X224955404Y-95796878D01*
X224794617Y-95662478D01*
X224565401Y-95480835D01*
X224516422Y-95442787D01*
X224245643Y-95238408D01*
X223950666Y-95024173D01*
X223645308Y-94809393D01*
X223343386Y-94603375D01*
X223058716Y-94415430D01*
X222805114Y-94254865D01*
X222596398Y-94130991D01*
X222446383Y-94053117D01*
X222324052Y-94000681D01*
X222136414Y-93927968D01*
X221972865Y-93873203D01*
X221859245Y-93844324D01*
X222312091Y-93844324D01*
X222636385Y-94011843D01*
X222755138Y-94077220D01*
X222987348Y-94217982D01*
X223265298Y-94397676D01*
X223573392Y-94605528D01*
X223896036Y-94830767D01*
X224217634Y-95062620D01*
X224522592Y-95290316D01*
X224795313Y-95503083D01*
X225287432Y-95897928D01*
X225550828Y-95867358D01*
X225674192Y-95858564D01*
X225998718Y-95876043D01*
X226324616Y-95942487D01*
X226337794Y-95947492D01*
X226608902Y-96050458D01*
X226757950Y-96134356D01*
X226834395Y-96207733D01*
X226831470Y-96251608D01*
X226829645Y-96278987D01*
X226742617Y-96360315D01*
X226572231Y-96463911D01*
X226407938Y-96568085D01*
X226139834Y-96780942D01*
X225868483Y-97040535D01*
X225610215Y-97328197D01*
X225381360Y-97625262D01*
X225198245Y-97913062D01*
X225077202Y-98172931D01*
X225056581Y-98232358D01*
X225035616Y-98314847D01*
X225054071Y-98346652D01*
X225117360Y-98351893D01*
X225195514Y-98355892D01*
X225439270Y-98399700D01*
X225736979Y-98486787D01*
X226073625Y-98610879D01*
X226434193Y-98765698D01*
X226803669Y-98944968D01*
X227167038Y-99142413D01*
X227509286Y-99351756D01*
X227657865Y-99447069D01*
X227810746Y-99541167D01*
X227922189Y-99605135D01*
X227974976Y-99628733D01*
X228007380Y-99614900D01*
X228106133Y-99550609D01*
X228257293Y-99441074D01*
X228450621Y-99294230D01*
X228675878Y-99118015D01*
X228922826Y-98920365D01*
X229181225Y-98709217D01*
X229440836Y-98492506D01*
X229515457Y-98429851D01*
X230016892Y-98023812D01*
X230566585Y-97601294D01*
X231136109Y-97183718D01*
X231697034Y-96792504D01*
X232205058Y-96448133D01*
X231947842Y-96224248D01*
X231940967Y-96218268D01*
X231895434Y-96179876D01*
X232092744Y-96179876D01*
X232207407Y-96278505D01*
X232322070Y-96377134D01*
X232583811Y-96229190D01*
X232983954Y-96027898D01*
X233447553Y-95861570D01*
X233887537Y-95779447D01*
X234301255Y-95781981D01*
X234686055Y-95869626D01*
X234727642Y-95885409D01*
X234868071Y-95951652D01*
X234999039Y-96029155D01*
X235095783Y-96102135D01*
X235133534Y-96154807D01*
X235119149Y-96173842D01*
X235044353Y-96227737D01*
X234927090Y-96295499D01*
X234846123Y-96343642D01*
X234691373Y-96451226D01*
X234516375Y-96585666D01*
X234340110Y-96731114D01*
X234181558Y-96871720D01*
X234059701Y-96991636D01*
X233993519Y-97075014D01*
X233973703Y-97118451D01*
X233982892Y-97150157D01*
X234047627Y-97162032D01*
X234185700Y-97162143D01*
X234401814Y-97148050D01*
X234607140Y-97097079D01*
X234787065Y-96995356D01*
X234975608Y-96828514D01*
X235137277Y-96639882D01*
X235267013Y-96396084D01*
X235314573Y-96139076D01*
X235279908Y-95862371D01*
X235162970Y-95559483D01*
X234963711Y-95223923D01*
X234875618Y-95095607D01*
X234772677Y-94958550D01*
X234694436Y-94886315D01*
X234625775Y-94871872D01*
X234551576Y-94908195D01*
X234456717Y-94988254D01*
X234314942Y-95108770D01*
X233932069Y-95381988D01*
X233491809Y-95636838D01*
X233017771Y-95860409D01*
X232533567Y-96039791D01*
X232092744Y-96179876D01*
X231895434Y-96179876D01*
X231588836Y-95921365D01*
X231207324Y-95615894D01*
X230810294Y-95311819D01*
X230411605Y-95019102D01*
X230025118Y-94747705D01*
X229664694Y-94507593D01*
X229344194Y-94308728D01*
X229077479Y-94161072D01*
X228971324Y-94109999D01*
X228616155Y-93975505D01*
X228282631Y-93904426D01*
X227988109Y-93900907D01*
X227882986Y-93918125D01*
X227720126Y-93959983D01*
X227573520Y-94012748D01*
X227467624Y-94067137D01*
X227426891Y-94113873D01*
X227427963Y-94118110D01*
X227476546Y-94157693D01*
X227575096Y-94205942D01*
X227656802Y-94255381D01*
X227788784Y-94358231D01*
X227947559Y-94497026D01*
X228114350Y-94656088D01*
X228203693Y-94747419D01*
X228490904Y-95085577D01*
X228693076Y-95409308D01*
X228813107Y-95724017D01*
X228853896Y-96035109D01*
X228851690Y-96129448D01*
X228804246Y-96394534D01*
X228687424Y-96628986D01*
X228490989Y-96855951D01*
X228398406Y-96938884D01*
X228157156Y-97095245D01*
X227886621Y-97182779D01*
X227563696Y-97210314D01*
X227463715Y-97208917D01*
X227128138Y-97175107D01*
X226811245Y-97089113D01*
X226475037Y-96941555D01*
X226458810Y-96933277D01*
X226300690Y-96842566D01*
X226224022Y-96779276D01*
X226222700Y-96746766D01*
X226290620Y-96748392D01*
X226421674Y-96787512D01*
X226609758Y-96867482D01*
X226853408Y-96967031D01*
X227202686Y-97060752D01*
X227537946Y-97096897D01*
X227834600Y-97071373D01*
X227861271Y-97065328D01*
X228148459Y-96955718D01*
X228392820Y-96781692D01*
X228582367Y-96557133D01*
X228705115Y-96295927D01*
X228749079Y-96011960D01*
X228749068Y-96007263D01*
X228738870Y-95937025D01*
X228697451Y-95880871D01*
X228606912Y-95823016D01*
X228449354Y-95747678D01*
X228400529Y-95724957D01*
X228078038Y-95551689D01*
X227732690Y-95332527D01*
X227395165Y-95088074D01*
X227096142Y-94838933D01*
X226744440Y-94490193D01*
X226296770Y-93939909D01*
X225920639Y-93338475D01*
X225620049Y-92693603D01*
X225399004Y-92013004D01*
X225261505Y-91304389D01*
X225243878Y-91151327D01*
X225222359Y-90888303D01*
X225211276Y-90638838D01*
X225212478Y-90481323D01*
X225612346Y-90481323D01*
X225618149Y-90727509D01*
X225631950Y-90987779D01*
X225653101Y-91243953D01*
X225680953Y-91477848D01*
X225714859Y-91671283D01*
X225769733Y-91899286D01*
X225990295Y-92569606D01*
X226288093Y-93196457D01*
X226659843Y-93774486D01*
X227102259Y-94298339D01*
X227612055Y-94762662D01*
X227696266Y-94828563D01*
X227871144Y-94958366D01*
X228028278Y-95066551D01*
X228141507Y-95134733D01*
X228175964Y-95152750D01*
X228304327Y-95226964D01*
X228396201Y-95290258D01*
X228449728Y-95330203D01*
X228493296Y-95341400D01*
X228484071Y-95291056D01*
X228424071Y-95185631D01*
X228315317Y-95031581D01*
X228226411Y-94918879D01*
X227973564Y-94642940D01*
X227702539Y-94400627D01*
X227440331Y-94217066D01*
X227349156Y-94158558D01*
X227287900Y-94093042D01*
X227301184Y-94032909D01*
X227393183Y-93967315D01*
X227568074Y-93885417D01*
X227744269Y-93825022D01*
X228087337Y-93781083D01*
X228462255Y-93819076D01*
X228864997Y-93938409D01*
X229291539Y-94138491D01*
X229419089Y-94212128D01*
X229665712Y-94366161D01*
X229955574Y-94557636D01*
X230271574Y-94774730D01*
X230596610Y-95005621D01*
X230913579Y-95238487D01*
X231205379Y-95461505D01*
X231251405Y-95497364D01*
X231428375Y-95631828D01*
X231577879Y-95740186D01*
X231685352Y-95812126D01*
X231736227Y-95837335D01*
X231830605Y-95823363D01*
X232036407Y-95775070D01*
X232286473Y-95701827D01*
X232556755Y-95611390D01*
X232823202Y-95511512D01*
X233061764Y-95409948D01*
X233181080Y-95352283D01*
X233471970Y-95194511D01*
X233770091Y-95013047D01*
X234044807Y-94827086D01*
X234265485Y-94655819D01*
X234377868Y-94559318D01*
X234265485Y-94472138D01*
X234251136Y-94461363D01*
X234125143Y-94380525D01*
X233983383Y-94304961D01*
X233943646Y-94284775D01*
X233855271Y-94225147D01*
X233825825Y-94179362D01*
X233830981Y-94166229D01*
X233905578Y-94095428D01*
X234044801Y-94024576D01*
X234226821Y-93961510D01*
X234429803Y-93914062D01*
X234631918Y-93890070D01*
X234653216Y-93888922D01*
X234825241Y-93873066D01*
X234962010Y-93849541D01*
X235035558Y-93822994D01*
X235046543Y-93813463D01*
X235138991Y-93703869D01*
X235254217Y-93530071D01*
X235382637Y-93309986D01*
X235514671Y-93061530D01*
X235640737Y-92802620D01*
X235751254Y-92551171D01*
X235836638Y-92325099D01*
X235947591Y-91951395D01*
X236076884Y-91283492D01*
X236122185Y-90615744D01*
X236086404Y-89955418D01*
X235972448Y-89309779D01*
X235783225Y-88686095D01*
X235521643Y-88091631D01*
X235190610Y-87533656D01*
X234793034Y-87019434D01*
X234331823Y-86556233D01*
X233809885Y-86151318D01*
X233230129Y-85811958D01*
X233002284Y-85703461D01*
X232367245Y-85460736D01*
X231731863Y-85307171D01*
X231089857Y-85241533D01*
X230434948Y-85262587D01*
X230233522Y-85284331D01*
X230011287Y-85313498D01*
X229826842Y-85343163D01*
X229706749Y-85369430D01*
X229521717Y-85423886D01*
X229787779Y-85697494D01*
X229998249Y-85916894D01*
X230302197Y-86248605D01*
X230575409Y-86569937D01*
X230836159Y-86903676D01*
X231102722Y-87272609D01*
X231393373Y-87699523D01*
X231461926Y-87801278D01*
X231598977Y-87993410D01*
X231709998Y-88127229D01*
X231808170Y-88217630D01*
X231906676Y-88279508D01*
X232278258Y-88510323D01*
X232633975Y-88827609D01*
X232927387Y-89201261D01*
X233149818Y-89620051D01*
X233292588Y-90072751D01*
X233337692Y-90365548D01*
X233338580Y-90620174D01*
X233339299Y-90826344D01*
X233260521Y-91274282D01*
X233107423Y-91699351D01*
X232886071Y-92091537D01*
X232602534Y-92440827D01*
X232262878Y-92737209D01*
X231873168Y-92970671D01*
X231439473Y-93131198D01*
X231420670Y-93135942D01*
X231241527Y-93167310D01*
X231020626Y-93189458D01*
X230801398Y-93197848D01*
X230773181Y-93197680D01*
X230551167Y-93187146D01*
X230333404Y-93163473D01*
X230163322Y-93131198D01*
X229844283Y-93021104D01*
X229444449Y-92807982D01*
X229085037Y-92529735D01*
X228781553Y-92198885D01*
X228549501Y-91827953D01*
X228480737Y-91681213D01*
X228336458Y-91282749D01*
X228262179Y-90888486D01*
X228258658Y-90601468D01*
X228658384Y-90601468D01*
X228658838Y-90657202D01*
X228703991Y-91105598D01*
X228825354Y-91507727D01*
X229026196Y-91871638D01*
X229309785Y-92205379D01*
X229423644Y-92311721D01*
X229684443Y-92507095D01*
X229973185Y-92652026D01*
X230320763Y-92763568D01*
X230348468Y-92770571D01*
X230765677Y-92829362D01*
X231170517Y-92798149D01*
X231561086Y-92677505D01*
X231935479Y-92468003D01*
X232291793Y-92170215D01*
X232464489Y-91987402D01*
X232649499Y-91738369D01*
X232786802Y-91466171D01*
X232896194Y-91136970D01*
X232899276Y-91125457D01*
X232933934Y-90898194D01*
X232940376Y-90620174D01*
X232920723Y-90324574D01*
X232877094Y-90044571D01*
X232811611Y-89813342D01*
X232810734Y-89811082D01*
X232719313Y-89618751D01*
X232593883Y-89410399D01*
X232452109Y-89210909D01*
X232311658Y-89045164D01*
X232190196Y-88938049D01*
X232073842Y-88861812D01*
X232173156Y-89056482D01*
X232208501Y-89127788D01*
X232285039Y-89291168D01*
X232366425Y-89473313D01*
X232367536Y-89475800D01*
X232447130Y-89660887D01*
X232514956Y-89825627D01*
X232562152Y-89949221D01*
X232579854Y-90010871D01*
X232574917Y-90029381D01*
X232509180Y-90050110D01*
X232366205Y-90025681D01*
X232145059Y-89955975D01*
X231870491Y-89865084D01*
X231150712Y-89679609D01*
X230377677Y-89549681D01*
X229567042Y-89478202D01*
X228948307Y-89447207D01*
X228853324Y-89670017D01*
X228800885Y-89798509D01*
X228715633Y-90060202D01*
X228671254Y-90312937D01*
X228658384Y-90601468D01*
X228258658Y-90601468D01*
X228257192Y-90481948D01*
X228320789Y-90046661D01*
X228452261Y-89566152D01*
X228457102Y-89550841D01*
X228463633Y-89504481D01*
X228434362Y-89482440D01*
X228350937Y-89479244D01*
X228195005Y-89489420D01*
X227989831Y-89507911D01*
X227673743Y-89545287D01*
X227340385Y-89593298D01*
X227003232Y-89649237D01*
X226675761Y-89710396D01*
X226371447Y-89774068D01*
X226103765Y-89837544D01*
X225886190Y-89898119D01*
X225732199Y-89953083D01*
X225655266Y-89999729D01*
X225649405Y-90009101D01*
X225627326Y-90103937D01*
X225615189Y-90267406D01*
X225612346Y-90481323D01*
X225212478Y-90481323D01*
X225212784Y-90441153D01*
X225231482Y-90092223D01*
X225095330Y-90122127D01*
X225003236Y-90149630D01*
X224838900Y-90208048D01*
X224624084Y-90289545D01*
X224376022Y-90387226D01*
X224111948Y-90494198D01*
X223849093Y-90603567D01*
X223604691Y-90708440D01*
X223395975Y-90801922D01*
X223035974Y-90968164D01*
X223063198Y-91388125D01*
X223098407Y-91708967D01*
X223176390Y-92134591D01*
X223289899Y-92599408D01*
X223434185Y-93081751D01*
X223475737Y-93214889D01*
X223481964Y-93241377D01*
X223511618Y-93367525D01*
X223508640Y-93459386D01*
X223465006Y-93504638D01*
X223378921Y-93517442D01*
X223322818Y-93529009D01*
X223196409Y-93563943D01*
X223021108Y-93616594D01*
X222816584Y-93681232D01*
X222312091Y-93844324D01*
X221859245Y-93844324D01*
X221853147Y-93842774D01*
X221797001Y-93843064D01*
X221790084Y-93862350D01*
X221771703Y-93955711D01*
X221748350Y-94106918D01*
X221723429Y-94295052D01*
X221718493Y-94336972D01*
X221689097Y-94886031D01*
X221337019Y-94886031D01*
X221337984Y-94792666D01*
X221348081Y-94596141D01*
X221365987Y-94366851D01*
X221382356Y-94203196D01*
X221479073Y-93624375D01*
X221828418Y-93624375D01*
X221832090Y-93667238D01*
X221863535Y-93685884D01*
X221934498Y-93679373D01*
X222056722Y-93646763D01*
X222241954Y-93587113D01*
X222501936Y-93499484D01*
X222562390Y-93478880D01*
X222796035Y-93394823D01*
X222950838Y-93329622D01*
X223034517Y-93279674D01*
X223054790Y-93241377D01*
X223048317Y-93217326D01*
X223019722Y-93113053D01*
X222976277Y-92955790D01*
X222924515Y-92769213D01*
X222896540Y-92662486D01*
X222837041Y-92404221D01*
X222780222Y-92122164D01*
X222735334Y-91860733D01*
X222659265Y-91359169D01*
X222468342Y-91770091D01*
X222441662Y-91829191D01*
X222352106Y-92044393D01*
X222251046Y-92306344D01*
X222146163Y-92593187D01*
X222045138Y-92883065D01*
X221955653Y-93154121D01*
X221885387Y-93384499D01*
X221842023Y-93552342D01*
X221840774Y-93558235D01*
X221828418Y-93624375D01*
X221479073Y-93624375D01*
X221486931Y-93577348D01*
X221662047Y-92918926D01*
X221910092Y-92218500D01*
X222008847Y-91968417D01*
X222089949Y-91760324D01*
X222140188Y-91620010D01*
X222160166Y-91538155D01*
X222150485Y-91505438D01*
X222111750Y-91512540D01*
X222044562Y-91550140D01*
X221949526Y-91608919D01*
X221587521Y-91843429D01*
X221119274Y-92180825D01*
X220646155Y-92555145D01*
X220194216Y-92945615D01*
X219789506Y-93331461D01*
X219617115Y-93501682D01*
X219438077Y-93664514D01*
X219310356Y-93760361D01*
X219230889Y-93791749D01*
X219193443Y-93790077D01*
X219141937Y-93769261D01*
X219142742Y-93715383D01*
X219198740Y-93616848D01*
X219312810Y-93462064D01*
X219329275Y-93439970D01*
X219425336Y-93293745D01*
X219543505Y-93093367D01*
X219670333Y-92862335D01*
X219792373Y-92624148D01*
X219801367Y-92605826D01*
X219975806Y-92219852D01*
X220093009Y-91886042D01*
X220156277Y-91589142D01*
X220168912Y-91313898D01*
X220134216Y-91045058D01*
X220106502Y-90930326D01*
X220068994Y-90813642D01*
X220038279Y-90758525D01*
X220020852Y-90755869D01*
X219931599Y-90780420D01*
X219788808Y-90841819D01*
X219609036Y-90931550D01*
X219408842Y-91041099D01*
X219204786Y-91161948D01*
X219013426Y-91285582D01*
X218675466Y-91534771D01*
X218274792Y-91896897D01*
X217924355Y-92303844D01*
X217611497Y-92770794D01*
X217323563Y-93312934D01*
X217320144Y-93320088D01*
X217097182Y-93818983D01*
X216930368Y-94272379D01*
X216814957Y-94702319D01*
X216746204Y-95130844D01*
X216719365Y-95579997D01*
X216370183Y-95579997D01*
X216383039Y-95332867D01*
X216418096Y-94987346D01*
X216467785Y-94655303D01*
X216528562Y-94371172D01*
X216555257Y-94277456D01*
X216639372Y-94026251D01*
X216749851Y-93733759D01*
X216875757Y-93427098D01*
X217006155Y-93133380D01*
X217130108Y-92879721D01*
X217398502Y-92431263D01*
X217780867Y-91930763D01*
X218231300Y-91456864D01*
X218737468Y-91022371D01*
X219287035Y-90640093D01*
X219460968Y-90531735D01*
X219613230Y-90436000D01*
X219720250Y-90367714D01*
X219765850Y-90337112D01*
X219747438Y-90300067D01*
X219675868Y-90220290D01*
X219566670Y-90115479D01*
X219476232Y-90038392D01*
X219121418Y-89806652D01*
X218702378Y-89623673D01*
X218230204Y-89491365D01*
X217715992Y-89411637D01*
X217170836Y-89386400D01*
X216605831Y-89417564D01*
X216032071Y-89507037D01*
X215845393Y-89549189D01*
X215341528Y-89690380D01*
X214810156Y-89873090D01*
X214280922Y-90085749D01*
X213783474Y-90316788D01*
X213347459Y-90554639D01*
X213261245Y-90605121D01*
X213161430Y-90654285D01*
X213107419Y-90659829D01*
X213080594Y-90626788D01*
X213079436Y-90605340D01*
X213123724Y-90514311D01*
X213236128Y-90368198D01*
X213417744Y-90165497D01*
X213535118Y-90035495D01*
X213747923Y-89782429D01*
X213968523Y-89502366D01*
X214179293Y-89218611D01*
X214362609Y-88954471D01*
X214500845Y-88733253D01*
X214504723Y-88726421D01*
X214597948Y-88538679D01*
X214699565Y-88298786D01*
X214797005Y-88040032D01*
X214877698Y-87795709D01*
X214929073Y-87599110D01*
X214932223Y-87583145D01*
X214974338Y-87206969D01*
X214961954Y-86824380D01*
X214897901Y-86463765D01*
X214785007Y-86153509D01*
X214738628Y-86071858D01*
X214590834Y-85874484D01*
X214401936Y-85674230D01*
X214199086Y-85498378D01*
X214009435Y-85374210D01*
X213919767Y-85331472D01*
X213547042Y-85206708D01*
X213131358Y-85137948D01*
X212697657Y-85127982D01*
X212270879Y-85179602D01*
X212264376Y-85180914D01*
X212121981Y-85216250D01*
X212016228Y-85266069D01*
X211916755Y-85349935D01*
X211793204Y-85487412D01*
X211664311Y-85642455D01*
X211454759Y-85908252D01*
X211245307Y-86188207D01*
X211050934Y-86461612D01*
X210886616Y-86707757D01*
X210767330Y-86905933D01*
X210694096Y-87046929D01*
X210598354Y-87252479D01*
X210491835Y-87504236D01*
X210370409Y-87812403D01*
X210229950Y-88187185D01*
X210066328Y-88638787D01*
X209966466Y-88920476D01*
X209869530Y-89204710D01*
X209790802Y-89454826D01*
X209725003Y-89691546D01*
X209666857Y-89935589D01*
X209611084Y-90207675D01*
X209552407Y-90528525D01*
X209485549Y-90918859D01*
X209481611Y-90942603D01*
X209428988Y-91341308D01*
X209388523Y-91806304D01*
X209360346Y-92318023D01*
X209344587Y-92856898D01*
X209341376Y-93403364D01*
X208981381Y-93403364D01*
X208982746Y-93312934D01*
X209012872Y-92771143D01*
X209048806Y-92217392D01*
X209087512Y-91729528D01*
X209130707Y-91293971D01*
X209180108Y-90897138D01*
X209237432Y-90525448D01*
X209304394Y-90165318D01*
X209382713Y-89803167D01*
X209474103Y-89425412D01*
X209491239Y-89357085D01*
X209542433Y-89146593D01*
X209581391Y-88976464D01*
X209604566Y-88862673D01*
X209608405Y-88821193D01*
X209601267Y-88827203D01*
X209560318Y-88895433D01*
X209491995Y-89029002D01*
X209402434Y-89214510D01*
X209297769Y-89438560D01*
X209184137Y-89687757D01*
X209067672Y-89948701D01*
X208954510Y-90207996D01*
X208850786Y-90452245D01*
X208762635Y-90668051D01*
X208493339Y-91395242D01*
X208149786Y-92505646D01*
X207866646Y-93664783D01*
X207647289Y-94858294D01*
X207495081Y-96071821D01*
X207475352Y-96335105D01*
X207459090Y-96687117D01*
X207448128Y-97089163D01*
X207442473Y-97521090D01*
X207442132Y-97962743D01*
X207011785Y-97962743D01*
X207017444Y-96949722D01*
X207113178Y-95638952D01*
X207297956Y-94338967D01*
X207512485Y-93293264D01*
X207857614Y-92006805D01*
X208285467Y-90750474D01*
X208793623Y-89528704D01*
X209379662Y-88345930D01*
X210041163Y-87206586D01*
X210775707Y-86115106D01*
X211580872Y-85075924D01*
X211935460Y-84677048D01*
X212913140Y-84677048D01*
X212930696Y-84687027D01*
X213021908Y-84708518D01*
X213153642Y-84721286D01*
X213418540Y-84751978D01*
X213783280Y-84845999D01*
X214139760Y-84990313D01*
X214460790Y-85173413D01*
X214719181Y-85383794D01*
X214969613Y-85689581D01*
X215179679Y-86059006D01*
X215321380Y-86449918D01*
X215323702Y-86459030D01*
X215365801Y-86723683D01*
X215379131Y-87041999D01*
X215364943Y-87382798D01*
X215324483Y-87714898D01*
X215259003Y-88007117D01*
X215241697Y-88062121D01*
X215146502Y-88310993D01*
X215018170Y-88593479D01*
X214871895Y-88879445D01*
X214722870Y-89138761D01*
X214586287Y-89341293D01*
X214521680Y-89428072D01*
X214455949Y-89522844D01*
X214430482Y-89569260D01*
X214447113Y-89571268D01*
X214525714Y-89548052D01*
X214647089Y-89499946D01*
X215072325Y-89337636D01*
X215621518Y-89177847D01*
X216189655Y-89060571D01*
X216754182Y-88989404D01*
X217292544Y-88967945D01*
X217782188Y-88999792D01*
X217784097Y-89000041D01*
X218341389Y-89095434D01*
X218823905Y-89228163D01*
X219241829Y-89402475D01*
X219605346Y-89622615D01*
X219924641Y-89892827D01*
X219983406Y-89952701D01*
X220260791Y-90303490D01*
X220455445Y-90681835D01*
X220565253Y-91080584D01*
X220588097Y-91492587D01*
X220521860Y-91910690D01*
X220496532Y-92007874D01*
X220471960Y-92108681D01*
X220465399Y-92146192D01*
X220476940Y-92139617D01*
X220567008Y-92079975D01*
X220687373Y-91993358D01*
X220804058Y-91904744D01*
X220883085Y-91839114D01*
X220932583Y-91795289D01*
X221117756Y-91653045D01*
X221367360Y-91482420D01*
X221668259Y-91291200D01*
X222007314Y-91087169D01*
X222371390Y-90878114D01*
X222747349Y-90671820D01*
X223122054Y-90476073D01*
X223482367Y-90298658D01*
X223638465Y-90227134D01*
X224076780Y-90046563D01*
X224573851Y-89865343D01*
X225107056Y-89690657D01*
X225653775Y-89529690D01*
X226191386Y-89389626D01*
X226697268Y-89277649D01*
X227407187Y-89161651D01*
X228196446Y-89084692D01*
X228992698Y-89057378D01*
X229778923Y-89079195D01*
X230538101Y-89149632D01*
X231253211Y-89268177D01*
X231907232Y-89434318D01*
X231985382Y-89456458D01*
X232084915Y-89477059D01*
X232123839Y-89473313D01*
X232123151Y-89468478D01*
X232092617Y-89399182D01*
X232023878Y-89272395D01*
X231926703Y-89104424D01*
X231810860Y-88911577D01*
X231686118Y-88710161D01*
X231562247Y-88516482D01*
X231449015Y-88346848D01*
X231312386Y-88152104D01*
X230846587Y-87534928D01*
X230329544Y-86910871D01*
X229778217Y-86298270D01*
X229209564Y-85715464D01*
X228640543Y-85180791D01*
X228088112Y-84712588D01*
X227904084Y-84569384D01*
X227397016Y-84202747D01*
X226848202Y-83840574D01*
X226278539Y-83495210D01*
X225708925Y-83179000D01*
X225160257Y-82904292D01*
X224707396Y-82706946D01*
X225892399Y-82706946D01*
X225895405Y-82759742D01*
X225956935Y-82823073D01*
X226081488Y-82906711D01*
X226273565Y-83020428D01*
X226537663Y-83173995D01*
X226748344Y-83298909D01*
X227351038Y-83675781D01*
X227891060Y-84046795D01*
X228387583Y-84425588D01*
X228859776Y-84825798D01*
X229161027Y-85094138D01*
X229627801Y-84991579D01*
X230340791Y-84879701D01*
X231048513Y-84856777D01*
X231743688Y-84921308D01*
X232420231Y-85071531D01*
X233072058Y-85305687D01*
X233693083Y-85622012D01*
X234277222Y-86018747D01*
X234818389Y-86494129D01*
X235110344Y-86804147D01*
X235523484Y-87328377D01*
X235862122Y-87875671D01*
X236117917Y-88433581D01*
X236272288Y-88896712D01*
X236431007Y-89598819D01*
X236504901Y-90307405D01*
X236500473Y-90615744D01*
X236494752Y-91014134D01*
X236401337Y-91710672D01*
X236225437Y-92388686D01*
X235967833Y-93039840D01*
X235629303Y-93655801D01*
X235550841Y-93779542D01*
X235477915Y-93895311D01*
X235437307Y-93960736D01*
X235436833Y-93987906D01*
X235504629Y-94052341D01*
X235659511Y-94136474D01*
X235692125Y-94152632D01*
X235842116Y-94235745D01*
X236038706Y-94353566D01*
X236260099Y-94492789D01*
X236484499Y-94640109D01*
X236586572Y-94708538D01*
X236773424Y-94832863D01*
X236925210Y-94932600D01*
X237028432Y-94998919D01*
X237069594Y-95022988D01*
X237072309Y-95021461D01*
X237110205Y-94971444D01*
X237180462Y-94864082D01*
X237272139Y-94717497D01*
X237374292Y-94549813D01*
X237475979Y-94379154D01*
X237566256Y-94223643D01*
X237634182Y-94101403D01*
X237668812Y-94030558D01*
X237680629Y-94030717D01*
X237749899Y-94055213D01*
X237855005Y-94100517D01*
X237965772Y-94153276D01*
X238052026Y-94200136D01*
X238122234Y-94236227D01*
X238251294Y-94296177D01*
X238421248Y-94372224D01*
X238614363Y-94456742D01*
X238812906Y-94542108D01*
X238999143Y-94620698D01*
X239155342Y-94684887D01*
X239263768Y-94727052D01*
X239306690Y-94739567D01*
X239354969Y-94664506D01*
X239430405Y-94516612D01*
X239522211Y-94317084D01*
X239622741Y-94083718D01*
X239724347Y-93834308D01*
X239819381Y-93586649D01*
X239900195Y-93358536D01*
X239910209Y-93328157D01*
X239982285Y-93084603D01*
X240055669Y-92799263D01*
X240125891Y-92493693D01*
X240188477Y-92189453D01*
X240238955Y-91908098D01*
X240272854Y-91671187D01*
X240285700Y-91500277D01*
X240286496Y-91374873D01*
X239408669Y-91374175D01*
X239389170Y-91374151D01*
X239115350Y-91372044D01*
X238873152Y-91367021D01*
X238677472Y-91359634D01*
X238543203Y-91350434D01*
X238485240Y-91339974D01*
X238479183Y-91330444D01*
X238462820Y-91245842D01*
X238449822Y-91087250D01*
X238441023Y-90867556D01*
X238437258Y-90599649D01*
X238430597Y-90218273D01*
X238403927Y-89778747D01*
X238352908Y-89371565D01*
X238273224Y-88964365D01*
X238160559Y-88524784D01*
X238156694Y-88510959D01*
X238098529Y-88298979D01*
X238050967Y-88118527D01*
X238018822Y-87988328D01*
X238006907Y-87927102D01*
X238008447Y-87923537D01*
X238064659Y-87889683D01*
X238192231Y-87834053D01*
X238378159Y-87761747D01*
X238609440Y-87677862D01*
X238873070Y-87587496D01*
X238892118Y-87581140D01*
X239182771Y-87483324D01*
X239397869Y-87408287D01*
X239548078Y-87351171D01*
X239644060Y-87307116D01*
X239696480Y-87271266D01*
X239716003Y-87238762D01*
X239713293Y-87204747D01*
X239686724Y-87128766D01*
X239614283Y-86960821D01*
X239511301Y-86744779D01*
X239387284Y-86498938D01*
X239251738Y-86241593D01*
X239114167Y-85991039D01*
X238984078Y-85765573D01*
X238870976Y-85583491D01*
X238795196Y-85469883D01*
X238593078Y-85180151D01*
X238384533Y-84897566D01*
X238183154Y-84639738D01*
X238002532Y-84424277D01*
X237856260Y-84268792D01*
X237698126Y-84116930D01*
X237270857Y-84541995D01*
X237254956Y-84557802D01*
X236989529Y-84817849D01*
X236768219Y-85027094D01*
X236595507Y-85181523D01*
X236475872Y-85277124D01*
X236413792Y-85309882D01*
X236405927Y-85307320D01*
X236342701Y-85262368D01*
X236237628Y-85172960D01*
X236108756Y-85054223D01*
X236064818Y-85012704D01*
X235431950Y-84478888D01*
X234738913Y-84004943D01*
X234001999Y-83602098D01*
X233918529Y-83560801D01*
X233769834Y-83481287D01*
X233667055Y-83417960D01*
X233628687Y-83381735D01*
X233629521Y-83373809D01*
X233655526Y-83290664D01*
X233712526Y-83145923D01*
X233793158Y-82956527D01*
X233890061Y-82739416D01*
X233995872Y-82511532D01*
X234103228Y-82289815D01*
X234300691Y-81891831D01*
X234044491Y-81794740D01*
X233790908Y-81707626D01*
X233363969Y-81588367D01*
X232886009Y-81480801D01*
X232380709Y-81389559D01*
X231871751Y-81319267D01*
X231382816Y-81274553D01*
X230983803Y-81248817D01*
X230977430Y-81808703D01*
X230974876Y-82020755D01*
X230971669Y-82261714D01*
X230968582Y-82470253D01*
X230966030Y-82616982D01*
X230961003Y-82865375D01*
X230710195Y-82877182D01*
X230380702Y-82894456D01*
X229961768Y-82924190D01*
X229599938Y-82962121D01*
X229274977Y-83011491D01*
X228966654Y-83075548D01*
X228654733Y-83157535D01*
X228318983Y-83260698D01*
X228216984Y-83293326D01*
X228058079Y-83342201D01*
X227946914Y-83373745D01*
X227902906Y-83382285D01*
X227896015Y-83369397D01*
X227861599Y-83288411D01*
X227807894Y-83153427D01*
X227743265Y-82986402D01*
X227676076Y-82809289D01*
X227614690Y-82644047D01*
X227567473Y-82512629D01*
X227542788Y-82436992D01*
X227490514Y-82273827D01*
X227426490Y-82126420D01*
X227363211Y-82021160D01*
X227312269Y-81980977D01*
X227240242Y-81998798D01*
X227100417Y-82053950D01*
X226912536Y-82138833D01*
X226693017Y-82245697D01*
X226458275Y-82366792D01*
X226224727Y-82494369D01*
X226189531Y-82514052D01*
X226043962Y-82593873D01*
X225943418Y-82654914D01*
X225892399Y-82706946D01*
X224707396Y-82706946D01*
X224653433Y-82683430D01*
X224607595Y-82665515D01*
X224276370Y-82546530D01*
X223886376Y-82420621D01*
X223464374Y-82295460D01*
X223037125Y-82178720D01*
X222631390Y-82078074D01*
X222273929Y-82001195D01*
X221990189Y-81958019D01*
X221534170Y-81922089D01*
X221025559Y-81913676D01*
X220484104Y-81931983D01*
X219929551Y-81976210D01*
X219381649Y-82045560D01*
X218860144Y-82139233D01*
X218610119Y-82196813D01*
X218230359Y-82296460D01*
X217803107Y-82419075D01*
X217349076Y-82558098D01*
X216888975Y-82706966D01*
X216443515Y-82859117D01*
X216033408Y-83007989D01*
X215679365Y-83147020D01*
X215633025Y-83166410D01*
X215385925Y-83275908D01*
X215108571Y-83407174D01*
X214811156Y-83554573D01*
X214503869Y-83712467D01*
X214196903Y-83875220D01*
X213900447Y-84037195D01*
X213624694Y-84192755D01*
X213379833Y-84336264D01*
X213176056Y-84462084D01*
X213023554Y-84564580D01*
X212932519Y-84638113D01*
X212913140Y-84677048D01*
X211935460Y-84677048D01*
X212454239Y-84093474D01*
X212608814Y-83941839D01*
X213209410Y-83941839D01*
X213230923Y-83933491D01*
X213317936Y-83887264D01*
X213453077Y-83809631D01*
X213617997Y-83710958D01*
X213707328Y-83657886D01*
X213990155Y-83500628D01*
X214324943Y-83326106D01*
X214687873Y-83145976D01*
X215055125Y-82971895D01*
X215402881Y-82815519D01*
X215707322Y-82688504D01*
X215751446Y-82671179D01*
X216241362Y-82488644D01*
X216768764Y-82307955D01*
X217313543Y-82135040D01*
X217855590Y-81975830D01*
X218374793Y-81836253D01*
X218851045Y-81722240D01*
X219264234Y-81639720D01*
X219699691Y-81575042D01*
X220262369Y-81518657D01*
X220821955Y-81490259D01*
X221350982Y-81491105D01*
X221821983Y-81522455D01*
X221857426Y-81526475D01*
X222202615Y-81578726D01*
X222605263Y-81658608D01*
X223044254Y-81760391D01*
X223498476Y-81878344D01*
X223946812Y-82006737D01*
X224368147Y-82139840D01*
X224741368Y-82271922D01*
X225045358Y-82397252D01*
X225049047Y-82398939D01*
X225195584Y-82464116D01*
X225307419Y-82510517D01*
X225360604Y-82528195D01*
X225391228Y-82515503D01*
X225487450Y-82464562D01*
X225630932Y-82383674D01*
X225804076Y-82282587D01*
X225916344Y-82216609D01*
X226115911Y-82101720D01*
X226294544Y-82001626D01*
X226423660Y-81932477D01*
X226555086Y-81868191D01*
X226751622Y-81778897D01*
X226954992Y-81692526D01*
X227147267Y-81616136D01*
X227310518Y-81556782D01*
X227426815Y-81521523D01*
X227478228Y-81517415D01*
X227479250Y-81518570D01*
X227501741Y-81556638D01*
X227543331Y-81642307D01*
X227607284Y-81782866D01*
X227696863Y-81985604D01*
X227815331Y-82257809D01*
X227965952Y-82606771D01*
X228000794Y-82686080D01*
X228067479Y-82813967D01*
X228130176Y-82874651D01*
X228207956Y-82881023D01*
X228319891Y-82845971D01*
X228517815Y-82779314D01*
X228884408Y-82684947D01*
X229306355Y-82604278D01*
X229762082Y-82541218D01*
X230230016Y-82499678D01*
X230320859Y-82493526D01*
X230489312Y-82479621D01*
X230609751Y-82466203D01*
X230660648Y-82455480D01*
X230665673Y-82424149D01*
X230671770Y-82314379D01*
X230677057Y-82140568D01*
X230681096Y-81917990D01*
X230683448Y-81661918D01*
X230687394Y-80886553D01*
X231166209Y-80887261D01*
X231306674Y-80890384D01*
X231558889Y-80905045D01*
X231841723Y-80929478D01*
X232134897Y-80961208D01*
X232418130Y-80997763D01*
X232671142Y-81036667D01*
X232873652Y-81075446D01*
X233005381Y-81111628D01*
X233115011Y-81143819D01*
X233232643Y-81160401D01*
X233288016Y-81169009D01*
X233421137Y-81202327D01*
X233605179Y-81254911D01*
X233820320Y-81320528D01*
X234046739Y-81392951D01*
X234264616Y-81465948D01*
X234454130Y-81533290D01*
X234595460Y-81588747D01*
X234645483Y-81610592D01*
X234723686Y-81656598D01*
X234740535Y-81712097D01*
X234712816Y-81808531D01*
X234671715Y-81913201D01*
X234590580Y-82094746D01*
X234488719Y-82306902D01*
X234377694Y-82526883D01*
X234269067Y-82731900D01*
X234174400Y-82899169D01*
X234105255Y-83005901D01*
X233992956Y-83153133D01*
X234390455Y-83353680D01*
X234447259Y-83382826D01*
X234744712Y-83547956D01*
X235062909Y-83741799D01*
X235376014Y-83947511D01*
X235658190Y-84148248D01*
X235883601Y-84327164D01*
X235994052Y-84422416D01*
X236159452Y-84565205D01*
X236299163Y-84685974D01*
X236484361Y-84846239D01*
X236807557Y-84542244D01*
X236813603Y-84536559D01*
X237131706Y-84241640D01*
X237389773Y-84011434D01*
X237587237Y-83846415D01*
X237723533Y-83747057D01*
X237798094Y-83713832D01*
X237846274Y-83735277D01*
X237949457Y-83817663D01*
X238089600Y-83951348D01*
X238255648Y-84125124D01*
X238436544Y-84327785D01*
X238621229Y-84548125D01*
X238781768Y-84755166D01*
X239090895Y-85200279D01*
X239394964Y-85693520D01*
X239678668Y-86207949D01*
X239926699Y-86716626D01*
X240123751Y-87192609D01*
X240238063Y-87502085D01*
X240114075Y-87547241D01*
X240010538Y-87585422D01*
X239876083Y-87636031D01*
X239857912Y-87642543D01*
X239749862Y-87677205D01*
X239579644Y-87728855D01*
X239366708Y-87791656D01*
X239130505Y-87859772D01*
X239039673Y-87885842D01*
X238823949Y-87949209D01*
X238647289Y-88003153D01*
X238525950Y-88042636D01*
X238476191Y-88062617D01*
X238475803Y-88063114D01*
X238478619Y-88116975D01*
X238501124Y-88240343D01*
X238539683Y-88415388D01*
X238590663Y-88624279D01*
X238702722Y-89108923D01*
X238778516Y-89552738D01*
X238822248Y-89989585D01*
X238838945Y-90456553D01*
X238844155Y-90987261D01*
X239348719Y-90989928D01*
X239472365Y-90990810D01*
X239754703Y-90994039D01*
X240037568Y-90998607D01*
X240275096Y-91003824D01*
X240696909Y-91015054D01*
X240696909Y-91240865D01*
X240692577Y-91357827D01*
X240691001Y-91374873D01*
X240670559Y-91595915D01*
X240633157Y-91882432D01*
X240584026Y-92192974D01*
X240526819Y-92503138D01*
X240465192Y-92788518D01*
X240452711Y-92840690D01*
X240306674Y-93371852D01*
X240126508Y-93888089D01*
X239898130Y-94430170D01*
X239837795Y-94563527D01*
X239730137Y-94800470D01*
X239651373Y-94970482D01*
X239595546Y-95084673D01*
X239556702Y-95154151D01*
X239528884Y-95190025D01*
X239506136Y-95203403D01*
X239482503Y-95205394D01*
X239481051Y-95205374D01*
X239406108Y-95186707D01*
X239266056Y-95131916D01*
X239057053Y-95039301D01*
X238775261Y-94907164D01*
X238416837Y-94733803D01*
X238235984Y-94645416D01*
X238073998Y-94566266D01*
X237959218Y-94510200D01*
X237909010Y-94485702D01*
X237895776Y-94495636D01*
X237843490Y-94563438D01*
X237764662Y-94678299D01*
X237671898Y-94820396D01*
X237577804Y-94969908D01*
X237494987Y-95107011D01*
X237436052Y-95211884D01*
X237413606Y-95264703D01*
X237443460Y-95294301D01*
X237533791Y-95372435D01*
X237673528Y-95489468D01*
X237851471Y-95636026D01*
X238056422Y-95802736D01*
X238206582Y-95924275D01*
X238450354Y-96121919D01*
X238685813Y-96313184D01*
X238892073Y-96481100D01*
X239048253Y-96608698D01*
X239140827Y-96682817D01*
X239293027Y-96797132D01*
X239416635Y-96880717D01*
X239491290Y-96919298D01*
X239509776Y-96921089D01*
X239593477Y-96898215D01*
X239727568Y-96830587D01*
X239919147Y-96714329D01*
X240175312Y-96545563D01*
X240240741Y-96501934D01*
X240477213Y-96351485D01*
X240726669Y-96202072D01*
X240974169Y-96061755D01*
X241204767Y-95938592D01*
X241403521Y-95840642D01*
X241555488Y-95775962D01*
X241645724Y-95752611D01*
X241668089Y-95751043D01*
X241709793Y-95721489D01*
X241701309Y-95647776D01*
X241640079Y-95521122D01*
X241523551Y-95332746D01*
X241323762Y-95066723D01*
X241081847Y-94807285D01*
X240824537Y-94580862D01*
X240577810Y-94412724D01*
X240466484Y-94339311D01*
X240419742Y-94273192D01*
X240513242Y-94273192D01*
X240805230Y-94465164D01*
X240840165Y-94488614D01*
X241166523Y-94752666D01*
X241466570Y-95072277D01*
X241709887Y-95415490D01*
X241859746Y-95667457D01*
X242145357Y-95643292D01*
X242249904Y-95637847D01*
X242531837Y-95651650D01*
X242813075Y-95700691D01*
X243071140Y-95778766D01*
X243283555Y-95879673D01*
X243427842Y-95997209D01*
X243432067Y-96002434D01*
X243451234Y-96050612D01*
X243413043Y-96096895D01*
X243303819Y-96159132D01*
X243026358Y-96329330D01*
X242719120Y-96577069D01*
X242422284Y-96872138D01*
X242150231Y-97197216D01*
X241917343Y-97534979D01*
X241738001Y-97868107D01*
X241626589Y-98179276D01*
X241610220Y-98253252D01*
X241587150Y-98588576D01*
X241653248Y-98905456D01*
X241808977Y-99206508D01*
X241961790Y-99386974D01*
X242185174Y-99574146D01*
X242432061Y-99722026D01*
X242671416Y-99808937D01*
X243006858Y-99849256D01*
X243412569Y-99828306D01*
X243828037Y-99740970D01*
X244229379Y-99590594D01*
X244331039Y-99541017D01*
X244613751Y-99382227D01*
X244917129Y-99180711D01*
X245254000Y-98927570D01*
X245637192Y-98613905D01*
X246153819Y-98177466D01*
X246163661Y-97705786D01*
X246173503Y-97234107D01*
X245886283Y-97044722D01*
X245802083Y-96986130D01*
X245632845Y-96860009D01*
X245425801Y-96699077D01*
X245199632Y-96517932D01*
X244973020Y-96331168D01*
X244629741Y-96048360D01*
X244150958Y-95668853D01*
X243684754Y-95316096D01*
X243241595Y-94997552D01*
X242831948Y-94720686D01*
X242466280Y-94492959D01*
X242155056Y-94321836D01*
X241989845Y-94245913D01*
X241623892Y-94125292D01*
X241275218Y-94074728D01*
X240956112Y-94095336D01*
X240678859Y-94188226D01*
X240513242Y-94273192D01*
X240419742Y-94273192D01*
X240410284Y-94259814D01*
X240442512Y-94184211D01*
X240562758Y-94104099D01*
X240646903Y-94064191D01*
X240979767Y-93969537D01*
X241343776Y-93957418D01*
X241733465Y-94027574D01*
X242143369Y-94179742D01*
X242297682Y-94256831D01*
X242595927Y-94427786D01*
X242943966Y-94648898D01*
X243331310Y-94912743D01*
X243747467Y-95211896D01*
X244181948Y-95538930D01*
X244624262Y-95886421D01*
X245063919Y-96246943D01*
X245195351Y-96356418D01*
X245406911Y-96529833D01*
X245600370Y-96685198D01*
X245758609Y-96808827D01*
X245864512Y-96887033D01*
X245949953Y-96944300D01*
X246048539Y-97005635D01*
X246097495Y-97029451D01*
X246108619Y-97014007D01*
X246119950Y-96923522D01*
X246122161Y-96763764D01*
X246115522Y-96548190D01*
X246100306Y-96290255D01*
X246076784Y-96003419D01*
X246002749Y-95330207D01*
X245790187Y-94015070D01*
X245490382Y-92725695D01*
X245103745Y-91463506D01*
X244630686Y-90229932D01*
X244071615Y-89026399D01*
X243795799Y-88500506D01*
X243413590Y-87823768D01*
X243015656Y-87172755D01*
X242611978Y-86563020D01*
X242212538Y-86010114D01*
X241827318Y-85529591D01*
X241768562Y-85460217D01*
X241657866Y-85328340D01*
X241540536Y-85187580D01*
X241358942Y-84974730D01*
X240965789Y-84543369D01*
X240526169Y-84092830D01*
X240056752Y-83638614D01*
X239574209Y-83196221D01*
X239095210Y-82781151D01*
X238636425Y-82408904D01*
X238214524Y-82094981D01*
X237924353Y-81893329D01*
X237215784Y-81422334D01*
X236539588Y-81006470D01*
X235877032Y-80635035D01*
X235209384Y-80297323D01*
X234517915Y-79982632D01*
X234380738Y-79923994D01*
X233958108Y-79750555D01*
X233524602Y-79582283D01*
X233098901Y-79425907D01*
X232699685Y-79288158D01*
X232345637Y-79175766D01*
X232055437Y-79095462D01*
X232047845Y-79093575D01*
X231950760Y-79068525D01*
X231799096Y-79028608D01*
X231622223Y-78981546D01*
X231611384Y-78978653D01*
X231153107Y-78866463D01*
X230633656Y-78756051D01*
X230082218Y-78652889D01*
X229527984Y-78562445D01*
X229000141Y-78490190D01*
X228781350Y-78467370D01*
X228403877Y-78439053D01*
X227970415Y-78416345D01*
X227501647Y-78399645D01*
X227018251Y-78389349D01*
X226540911Y-78385853D01*
X226090306Y-78389557D01*
X225687117Y-78400855D01*
X225352026Y-78420146D01*
X224659801Y-78488512D01*
X223607818Y-78640174D01*
X222555707Y-78846646D01*
X221524518Y-79103067D01*
X220535299Y-79404577D01*
X219609097Y-79746315D01*
X218927722Y-80039497D01*
X218086324Y-80444603D01*
X217253344Y-80890751D01*
X216449432Y-81366212D01*
X215695236Y-81859255D01*
X215011405Y-82358150D01*
X214862451Y-82476321D01*
X214667306Y-82636237D01*
X214452150Y-82816597D01*
X214226976Y-83008621D01*
X214001772Y-83203529D01*
X213786530Y-83392540D01*
X213591240Y-83566874D01*
X213425892Y-83717751D01*
X213300478Y-83836391D01*
X213224987Y-83914014D01*
X213209410Y-83941839D01*
X212608814Y-83941839D01*
X213393387Y-83172190D01*
X214018486Y-82625332D01*
X214785702Y-82013174D01*
X215584788Y-81433152D01*
X216397689Y-80897678D01*
X217206350Y-80419167D01*
X217992714Y-80010032D01*
X218465409Y-79787314D01*
X219171469Y-79476250D01*
X219852361Y-79206112D01*
X220535995Y-78966716D01*
X221250278Y-78747879D01*
X222023121Y-78539418D01*
X222258434Y-78481231D01*
X223467436Y-78234489D01*
X224706927Y-78065184D01*
X225964154Y-77973531D01*
X227226367Y-77959749D01*
X228480814Y-78024054D01*
X229714742Y-78166665D01*
X230915401Y-78387799D01*
X230987047Y-78403605D01*
X231194575Y-78449269D01*
X231379348Y-78489770D01*
X231508220Y-78517837D01*
X231546609Y-78526515D01*
X231737198Y-78575292D01*
X231986577Y-78645064D01*
X232273025Y-78729242D01*
X232574821Y-78821234D01*
X232870243Y-78914451D01*
X233137569Y-79002300D01*
X233355078Y-79078193D01*
X233458743Y-79116036D01*
X233670330Y-79193119D01*
X233859044Y-79261681D01*
X233993498Y-79310312D01*
X234052074Y-79331773D01*
X234191762Y-79385693D01*
X234289907Y-79427274D01*
X234335354Y-79447528D01*
X234460668Y-79499553D01*
X234609118Y-79558205D01*
X234621271Y-79562926D01*
X234828307Y-79650953D01*
X235095781Y-79775165D01*
X235406431Y-79926716D01*
X235742996Y-80096763D01*
X236088216Y-80276459D01*
X236424829Y-80456961D01*
X236735575Y-80629422D01*
X237003193Y-80784998D01*
X237843595Y-81320465D01*
X238896175Y-82084533D01*
X239899706Y-82920819D01*
X240849259Y-83823906D01*
X241739909Y-84788380D01*
X242566728Y-85808824D01*
X243324790Y-86879824D01*
X244009169Y-87995964D01*
X244614937Y-89151829D01*
X244763795Y-89467552D01*
X245159736Y-90383243D01*
X245502599Y-91304187D01*
X245797146Y-92246609D01*
X246048139Y-93226735D01*
X246260339Y-94260790D01*
X246438509Y-95364999D01*
X246450831Y-95456400D01*
X246495457Y-95886998D01*
X246529090Y-96382514D01*
X246544914Y-96763764D01*
X246551493Y-96922260D01*
G37*
%TD*%
%LPC*%
D12*
%TO.C,H3*%
X206725000Y-90225000D03*
%TD*%
D13*
%TO.C,J7*%
X212500000Y-76000000D03*
D14*
X217500000Y-76000000D03*
%TD*%
D15*
%TO.C,J1*%
X226250000Y-76250000D03*
D16*
X223750000Y-76250000D03*
%TD*%
D12*
%TO.C,H2*%
X244500000Y-99500000D03*
%TD*%
%TO.C,H1*%
X227000000Y-113500000D03*
%TD*%
D17*
%TO.C,J3*%
X203355000Y-94860000D03*
X203355000Y-100640000D03*
D18*
X203855000Y-93430000D03*
D19*
X199675000Y-93430000D03*
D18*
X203855000Y-102070000D03*
D19*
X199675000Y-102070000D03*
%TD*%
D20*
%TO.C,J2*%
X240000000Y-104500000D03*
D21*
X240000000Y-101960000D03*
X240000000Y-99420000D03*
X240000000Y-96880000D03*
%TD*%
D22*
%TO.C,J4*%
X251000000Y-92250000D03*
D23*
X248500000Y-92250000D03*
X246000000Y-92250000D03*
%TD*%
D22*
%TO.C,J9*%
X238750000Y-120500000D03*
D23*
X236250000Y-120500000D03*
X233750000Y-120500000D03*
X231250000Y-120500000D03*
%TD*%
D24*
%TO.C,LS1*%
X248201500Y-113625000D03*
X244201500Y-113625000D03*
%TD*%
D22*
%TO.C,J5*%
X222000000Y-120500000D03*
D23*
X219500000Y-120500000D03*
X217000000Y-120500000D03*
X214500000Y-120500000D03*
%TD*%
D15*
%TO.C,J6*%
X208250000Y-111500000D03*
D16*
X205750000Y-111500000D03*
%TD*%
%LPD*%
M02*
