%TF.GenerationSoftware,KiCad,Pcbnew,10.0.2*%
%TF.CreationDate,2026-06-05T21:48:06-04:00*%
%TF.ProjectId,float_pcb,666c6f61-745f-4706-9362-2e6b69636164,rev?*%
%TF.SameCoordinates,Original*%
%TF.FileFunction,Soldermask,Bot*%
%TF.FilePolarity,Negative*%
%FSLAX46Y46*%
G04 Gerber Fmt 4.6, Leading zero omitted, Abs format (unit mm)*
G04 Created by KiCad (PCBNEW 10.0.2) date 2026-06-05 21:48:06*
%MOMM*%
%LPD*%
G01*
G04 APERTURE LIST*
G04 Aperture macros list*
%AMRoundRect*
0 Rectangle with rounded corners*
0 $1 Rounding radius*
0 $2 $3 $4 $5 $6 $7 $8 $9 X,Y pos of 4 corners*
0 Add a 4 corners polygon primitive as box body*
4,1,4,$2,$3,$4,$5,$6,$7,$8,$9,$2,$3,0*
0 Add four circle primitives for the rounded corners*
1,1,$1+$1,$2,$3*
1,1,$1+$1,$4,$5*
1,1,$1+$1,$6,$7*
1,1,$1+$1,$8,$9*
0 Add four rect primitives between the rounded corners*
20,1,$1+$1,$2,$3,$4,$5,0*
20,1,$1+$1,$4,$5,$6,$7,0*
20,1,$1+$1,$6,$7,$8,$9,0*
20,1,$1+$1,$8,$9,$2,$3,0*%
G04 Aperture macros list end*
%ADD10C,2.200000*%
%ADD11RoundRect,0.250000X0.600000X0.750000X-0.600000X0.750000X-0.600000X-0.750000X0.600000X-0.750000X0*%
%ADD12O,1.700000X2.000000*%
%ADD13R,1.700000X1.700000*%
%ADD14C,1.700000*%
%ADD15RoundRect,0.760000X-1.140000X-1.140000X1.140000X-1.140000X1.140000X1.140000X-1.140000X1.140000X0*%
%ADD16C,3.800000*%
%ADD17RoundRect,0.250000X0.550000X0.550000X-0.550000X0.550000X-0.550000X-0.550000X0.550000X-0.550000X0*%
%ADD18C,1.600000*%
%ADD19C,0.650000*%
%ADD20O,2.100000X1.000000*%
%ADD21O,1.800000X1.000000*%
%ADD22RoundRect,0.250000X0.600000X0.725000X-0.600000X0.725000X-0.600000X-0.725000X0.600000X-0.725000X0*%
%ADD23O,1.700000X1.950000*%
%ADD24C,1.500000*%
G04 APERTURE END LIST*
D10*
%TO.C,H2*%
X123500000Y-114750000D03*
%TD*%
%TO.C,H1*%
X129250000Y-95250000D03*
%TD*%
D11*
%TO.C,J2*%
X152000000Y-79750000D03*
D12*
X149500000Y-79750000D03*
%TD*%
D13*
%TO.C,J7*%
X169500000Y-103000000D03*
D14*
X169500000Y-105540000D03*
X169500000Y-108080000D03*
X169500000Y-110620000D03*
X169500000Y-113160000D03*
%TD*%
D15*
%TO.C,J1*%
X136750000Y-79500000D03*
D16*
X141750000Y-79500000D03*
%TD*%
D17*
%TO.C,C14*%
X163250000Y-96000000D03*
D18*
X160750000Y-96000000D03*
%TD*%
D19*
%TO.C,J3*%
X122855000Y-102110000D03*
X122855000Y-107890000D03*
D20*
X123355000Y-100680000D03*
D21*
X119175000Y-100680000D03*
D20*
X123355000Y-109320000D03*
D21*
X119175000Y-109320000D03*
%TD*%
D22*
%TO.C,J6*%
X174000000Y-97500000D03*
D23*
X171500000Y-97500000D03*
X169000000Y-97500000D03*
%TD*%
D22*
%TO.C,J5*%
X160000000Y-130525000D03*
D23*
X157500000Y-130525000D03*
X155000000Y-130525000D03*
X152500000Y-130525000D03*
%TD*%
D22*
%TO.C,J4*%
X143500000Y-130500000D03*
D23*
X141000000Y-130500000D03*
X138500000Y-130500000D03*
X136000000Y-130500000D03*
%TD*%
D10*
%TO.C,H3*%
X175250000Y-116500000D03*
%TD*%
D11*
%TO.C,J8*%
X129500000Y-122750000D03*
D12*
X127000000Y-122750000D03*
%TD*%
D24*
%TO.C,TP1*%
X127500000Y-118000000D03*
%TD*%
%TO.C,TP11*%
X148000000Y-130500000D03*
%TD*%
%TO.C,TP5*%
X134750000Y-100000000D03*
%TD*%
%TO.C,TP3*%
X127500000Y-112000000D03*
%TD*%
%TO.C,TP10*%
X157500000Y-128000000D03*
%TD*%
%TO.C,TP2*%
X153500000Y-83500000D03*
%TD*%
%TO.C,TP4*%
X175500000Y-112000000D03*
%TD*%
%TO.C,TP9*%
X152500000Y-134000000D03*
%TD*%
%TO.C,TP7*%
X143500000Y-134000000D03*
%TD*%
%TO.C,TP8*%
X174000000Y-101000000D03*
%TD*%
%TO.C,TP6*%
X138500000Y-128000000D03*
%TD*%
M02*
