%TF.GenerationSoftware,KiCad,Pcbnew,10.0.3*%
%TF.CreationDate,2026-05-23T00:42:29-04:00*%
%TF.ProjectId,float_pcb,666c6f61-745f-4706-9362-2e6b69636164,rev?*%
%TF.SameCoordinates,Original*%
%TF.FileFunction,Copper,L2,Bot*%
%TF.FilePolarity,Positive*%
%FSLAX46Y46*%
G04 Gerber Fmt 4.6, Leading zero omitted, Abs format (unit mm)*
G04 Created by KiCad (PCBNEW 10.0.3) date 2026-05-23 00:42:29*
%MOMM*%
%LPD*%
G01*
G04 APERTURE LIST*
G04 Aperture macros list*
%AMRoundRect*
0 Rectangle with rounded corners*
0 $1 Rounding radius*
0 $2 $3 $4 $5 $6 $7 $8 $9 X,Y pos of 4 corners*
0 Add a 4 corners polygon primitive as box body*
4,1,4,$2,$3,$4,$5,$6,$7,$8,$9,$2,$3,0*
0 Add four circle primitives for the rounded corners*
1,1,$1+$1,$2,$3*
1,1,$1+$1,$4,$5*
1,1,$1+$1,$6,$7*
1,1,$1+$1,$8,$9*
0 Add four rect primitives between the rounded corners*
20,1,$1+$1,$2,$3,$4,$5,0*
20,1,$1+$1,$4,$5,$6,$7,0*
20,1,$1+$1,$6,$7,$8,$9,0*
20,1,$1+$1,$8,$9,$2,$3,0*%
G04 Aperture macros list end*
%TA.AperFunction,ComponentPad*%
%ADD10O,2.000000X1.700000*%
%TD*%
%TA.AperFunction,ComponentPad*%
%ADD11RoundRect,0.250000X-0.750000X0.600000X-0.750000X-0.600000X0.750000X-0.600000X0.750000X0.600000X0*%
%TD*%
%TA.AperFunction,ComponentPad*%
%ADD12RoundRect,0.250000X0.750000X-0.600000X0.750000X0.600000X-0.750000X0.600000X-0.750000X-0.600000X0*%
%TD*%
%TA.AperFunction,ComponentPad*%
%ADD13R,1.700000X1.700000*%
%TD*%
%TA.AperFunction,ComponentPad*%
%ADD14C,1.700000*%
%TD*%
%TA.AperFunction,ComponentPad*%
%ADD15RoundRect,0.760000X-1.140000X1.140000X-1.140000X-1.140000X1.140000X-1.140000X1.140000X1.140000X0*%
%TD*%
%TA.AperFunction,ComponentPad*%
%ADD16C,3.800000*%
%TD*%
%TA.AperFunction,ComponentPad*%
%ADD17O,2.100000X1.000000*%
%TD*%
%TA.AperFunction,ComponentPad*%
%ADD18O,1.800000X1.000000*%
%TD*%
%TA.AperFunction,ViaPad*%
%ADD19C,0.600000*%
%TD*%
%TA.AperFunction,Conductor*%
%ADD20C,0.500000*%
%TD*%
%TA.AperFunction,Conductor*%
%ADD21C,0.200000*%
%TD*%
G04 APERTURE END LIST*
D10*
%TO.P,J6,2,Pin_2_2*%
%TO.N,Net-(J6-Pin_2)*%
X113500000Y-80242500D03*
D11*
%TO.P,J6,1,Pin_1_1*%
%TO.N,+3V3*%
X113500000Y-77742500D03*
%TD*%
%TO.P,J1,1,Pin_1_1*%
%TO.N,Net-(J1-Pin_1)*%
X98800000Y-93992500D03*
D10*
%TO.P,J1,2,Pin_2_2*%
%TO.N,+BATT*%
X98800000Y-96492500D03*
%TD*%
D12*
%TO.P,J2,1,Pin_1_1*%
%TO.N,Net-(J2-Pin_1)*%
X153950000Y-98507500D03*
D10*
%TO.P,J2,2,Pin_2_2*%
%TO.N,GND*%
X153950000Y-96007500D03*
%TD*%
D13*
%TO.P,J8,1,Pin_1_1*%
%TO.N,Net-(J8-Pin_1)*%
X157795000Y-76560000D03*
D14*
%TO.P,J8,2,Pin_2_2*%
%TO.N,Net-(J8-Pin_2)*%
X157795000Y-74020000D03*
%TO.P,J8,3,Pin_3_3*%
%TO.N,Net-(J8-Pin_3)*%
X157795000Y-71480000D03*
%TO.P,J8,4,Pin_4_4*%
%TO.N,Net-(J8-Pin_4)*%
X157795000Y-68940000D03*
%TD*%
D15*
%TO.P,J7,1,Pin_1_1*%
%TO.N,GND*%
X97500000Y-72500000D03*
D16*
%TO.P,J7,2,Pin_2_2*%
%TO.N,Net-(J1-Pin_1)*%
X97500000Y-77500000D03*
%TD*%
D17*
%TO.P,J3,SH,SHIELD_SH*%
%TO.N,GND*%
X153895000Y-90820000D03*
D18*
X158075000Y-90820000D03*
D17*
X153895000Y-82180000D03*
D18*
X158075000Y-82180000D03*
%TD*%
D19*
%TO.N,Net-(J6-Pin_2)*%
X116500000Y-80250000D03*
X136750000Y-84750000D03*
%TO.N,GND*%
X132250000Y-76250000D03*
X138000000Y-78500000D03*
X143500000Y-69500000D03*
X149500000Y-69500000D03*
X149500000Y-74000000D03*
X143500000Y-74000000D03*
%TO.N,Net-(U3-IO0)*%
X131000000Y-71500000D03*
%TO.N,Net-(U2-EN)*%
X127000000Y-95500000D03*
X130500000Y-93500000D03*
%TO.N,GND*%
X93000000Y-78500000D03*
X159500000Y-102500000D03*
X159500000Y-91500000D03*
X110500000Y-91000000D03*
X152000000Y-66000000D03*
X105500000Y-102500000D03*
X121000000Y-102500000D03*
X141000000Y-66000000D03*
X93000000Y-98000000D03*
X155500000Y-63000000D03*
X112500000Y-63000000D03*
X148000000Y-85000000D03*
X93000000Y-91000000D03*
X152000000Y-90000000D03*
X93000000Y-70500000D03*
X133500000Y-96000000D03*
X159500000Y-82000000D03*
X96500000Y-102500000D03*
X159500000Y-87500000D03*
X97000000Y-63000000D03*
X143500000Y-102500000D03*
X152000000Y-83000000D03*
X159500000Y-98000000D03*
X159500000Y-67000000D03*
X130500000Y-102500000D03*
X112000000Y-102500000D03*
X144500000Y-66000000D03*
X135500000Y-63000000D03*
X93000000Y-67000000D03*
X148000000Y-66000000D03*
X124000000Y-63000000D03*
X118000000Y-87500000D03*
X159500000Y-74500000D03*
%TO.N,Net-(U1-FB)*%
X119000000Y-86250000D03*
X114750000Y-86250000D03*
%TO.N,Net-(U2-FB)*%
X134700000Y-94075000D03*
X130450000Y-94750000D03*
%TO.N,Net-(U3-IO0)*%
X138100000Y-70250000D03*
%TO.N,/SDA*%
X140000000Y-81750000D03*
X135000000Y-82250000D03*
%TO.N,/SCL*%
X135000000Y-81000000D03*
X139500000Y-81000000D03*
%TD*%
%TO.N,Net-(J6-Pin_2)*%
D20*
X127000000Y-80500000D02*
X116750000Y-80500000D01*
X131250000Y-84750000D02*
X127000000Y-80500000D01*
X116750000Y-80500000D02*
X116500000Y-80250000D01*
X136750000Y-84750000D02*
X131250000Y-84750000D01*
%TO.N,Net-(U3-IO0)*%
D21*
X136850000Y-71500000D02*
X138100000Y-70250000D01*
X131000000Y-71500000D02*
X136850000Y-71500000D01*
%TO.N,Net-(U2-EN)*%
X129000000Y-93500000D02*
X127000000Y-95500000D01*
X130500000Y-93500000D02*
X129000000Y-93500000D01*
%TO.N,Net-(U1-FB)*%
X114750000Y-86250000D02*
X119000000Y-86250000D01*
%TO.N,Net-(U2-FB)*%
X130450000Y-94750000D02*
X131125000Y-94075000D01*
X131125000Y-94075000D02*
X134700000Y-94075000D01*
%TO.N,/SDA*%
X135000000Y-82250000D02*
X139500000Y-82250000D01*
X139500000Y-82250000D02*
X140000000Y-81750000D01*
%TO.N,/SCL*%
X139500000Y-81000000D02*
X135000000Y-81000000D01*
%TD*%
%TA.AperFunction,Conductor*%
%TO.N,GND*%
G36*
X160192539Y-62520185D02*
G01*
X160238294Y-62572989D01*
X160249500Y-62624500D01*
X160249500Y-102875500D01*
X160229815Y-102942539D01*
X160177011Y-102988294D01*
X160125500Y-102999500D01*
X92624500Y-102999500D01*
X92557461Y-102979815D01*
X92511706Y-102927011D01*
X92500500Y-102875500D01*
X92500500Y-100143713D01*
X114399500Y-100143713D01*
X114399500Y-100356286D01*
X114432753Y-100566239D01*
X114498444Y-100768414D01*
X114594951Y-100957820D01*
X114719890Y-101129786D01*
X114870213Y-101280109D01*
X115042179Y-101405048D01*
X115042181Y-101405049D01*
X115042184Y-101405051D01*
X115231588Y-101501557D01*
X115433757Y-101567246D01*
X115643713Y-101600500D01*
X115643714Y-101600500D01*
X115856286Y-101600500D01*
X115856287Y-101600500D01*
X116066243Y-101567246D01*
X116268412Y-101501557D01*
X116457816Y-101405051D01*
X116492591Y-101379786D01*
X116629786Y-101280109D01*
X116629788Y-101280106D01*
X116629792Y-101280104D01*
X116780104Y-101129792D01*
X116780106Y-101129788D01*
X116780109Y-101129786D01*
X116905048Y-100957820D01*
X116905047Y-100957820D01*
X116905051Y-100957816D01*
X117001557Y-100768412D01*
X117067246Y-100566243D01*
X117094572Y-100393713D01*
X145149500Y-100393713D01*
X145149500Y-100606286D01*
X145175178Y-100768414D01*
X145182754Y-100816243D01*
X145228755Y-100957820D01*
X145248444Y-101018414D01*
X145344951Y-101207820D01*
X145469890Y-101379786D01*
X145620213Y-101530109D01*
X145792179Y-101655048D01*
X145792181Y-101655049D01*
X145792184Y-101655051D01*
X145981588Y-101751557D01*
X146183757Y-101817246D01*
X146393713Y-101850500D01*
X146393714Y-101850500D01*
X146606286Y-101850500D01*
X146606287Y-101850500D01*
X146816243Y-101817246D01*
X147018412Y-101751557D01*
X147207816Y-101655051D01*
X147282900Y-101600500D01*
X147379786Y-101530109D01*
X147379788Y-101530106D01*
X147379792Y-101530104D01*
X147530104Y-101379792D01*
X147530106Y-101379788D01*
X147530109Y-101379786D01*
X147655048Y-101207820D01*
X147655047Y-101207820D01*
X147655051Y-101207816D01*
X147751557Y-101018412D01*
X147817246Y-100816243D01*
X147850500Y-100606287D01*
X147850500Y-100393713D01*
X147817246Y-100183757D01*
X147751557Y-99981588D01*
X147655051Y-99792184D01*
X147655049Y-99792181D01*
X147655048Y-99792179D01*
X147530109Y-99620213D01*
X147379786Y-99469890D01*
X147207820Y-99344951D01*
X147018414Y-99248444D01*
X147018413Y-99248443D01*
X147018412Y-99248443D01*
X146816243Y-99182754D01*
X146816241Y-99182753D01*
X146816240Y-99182753D01*
X146654957Y-99157208D01*
X146606287Y-99149500D01*
X146393713Y-99149500D01*
X146345042Y-99157208D01*
X146183760Y-99182753D01*
X145981585Y-99248444D01*
X145792179Y-99344951D01*
X145620213Y-99469890D01*
X145469890Y-99620213D01*
X145344951Y-99792179D01*
X145248444Y-99981585D01*
X145182753Y-100183760D01*
X145149500Y-100393713D01*
X117094572Y-100393713D01*
X117100500Y-100356287D01*
X117100500Y-100143713D01*
X117067246Y-99933757D01*
X117001557Y-99731588D01*
X116905051Y-99542184D01*
X116905049Y-99542181D01*
X116905048Y-99542179D01*
X116780109Y-99370213D01*
X116629786Y-99219890D01*
X116457820Y-99094951D01*
X116268414Y-98998444D01*
X116268413Y-98998443D01*
X116268412Y-98998443D01*
X116066243Y-98932754D01*
X116066241Y-98932753D01*
X116066240Y-98932753D01*
X115904957Y-98907208D01*
X115856287Y-98899500D01*
X115643713Y-98899500D01*
X115595042Y-98907208D01*
X115433760Y-98932753D01*
X115231585Y-98998444D01*
X115042179Y-99094951D01*
X114870213Y-99219890D01*
X114719890Y-99370213D01*
X114594951Y-99542179D01*
X114498444Y-99731585D01*
X114432753Y-99933760D01*
X114399500Y-100143713D01*
X92500500Y-100143713D01*
X92500500Y-97857483D01*
X152449500Y-97857483D01*
X152449500Y-99157501D01*
X152449501Y-99157518D01*
X152460000Y-99260296D01*
X152460001Y-99260299D01*
X152515185Y-99426831D01*
X152515186Y-99426834D01*
X152607288Y-99576156D01*
X152731344Y-99700212D01*
X152880666Y-99792314D01*
X153047203Y-99847499D01*
X153149991Y-99858000D01*
X154750008Y-99857999D01*
X154852797Y-99847499D01*
X155019334Y-99792314D01*
X155168656Y-99700212D01*
X155292712Y-99576156D01*
X155384814Y-99426834D01*
X155439999Y-99260297D01*
X155450500Y-99157509D01*
X155450499Y-97857492D01*
X155439999Y-97754703D01*
X155384814Y-97588166D01*
X155292712Y-97438844D01*
X155168656Y-97314788D01*
X155019334Y-97222686D01*
X155019332Y-97222685D01*
X155013440Y-97219051D01*
X154966716Y-97167103D01*
X154955493Y-97098141D01*
X154983337Y-97034058D01*
X154990856Y-97025830D01*
X155129728Y-96886958D01*
X155254620Y-96715057D01*
X155351095Y-96525717D01*
X155416757Y-96323629D01*
X155416757Y-96323626D01*
X155427231Y-96257500D01*
X154383012Y-96257500D01*
X154415925Y-96200493D01*
X154450000Y-96073326D01*
X154450000Y-95941674D01*
X154415925Y-95814507D01*
X154383012Y-95757500D01*
X155427231Y-95757500D01*
X155416757Y-95691373D01*
X155416757Y-95691370D01*
X155351095Y-95489282D01*
X155254620Y-95299942D01*
X155129727Y-95128040D01*
X155129723Y-95128035D01*
X154979464Y-94977776D01*
X154979459Y-94977772D01*
X154807557Y-94852879D01*
X154618217Y-94756404D01*
X154416129Y-94690742D01*
X154206246Y-94657500D01*
X154200000Y-94657500D01*
X154200000Y-95574488D01*
X154142993Y-95541575D01*
X154015826Y-95507500D01*
X153884174Y-95507500D01*
X153757007Y-95541575D01*
X153700000Y-95574488D01*
X153700000Y-94657500D01*
X153693754Y-94657500D01*
X153483872Y-94690742D01*
X153483869Y-94690742D01*
X153281782Y-94756404D01*
X153092442Y-94852879D01*
X152920540Y-94977772D01*
X152920535Y-94977776D01*
X152770276Y-95128035D01*
X152770272Y-95128040D01*
X152645379Y-95299942D01*
X152548904Y-95489282D01*
X152483242Y-95691370D01*
X152483242Y-95691373D01*
X152472769Y-95757500D01*
X153516988Y-95757500D01*
X153484075Y-95814507D01*
X153450000Y-95941674D01*
X153450000Y-96073326D01*
X153484075Y-96200493D01*
X153516988Y-96257500D01*
X152472769Y-96257500D01*
X152483242Y-96323626D01*
X152483242Y-96323629D01*
X152548904Y-96525717D01*
X152645379Y-96715057D01*
X152770272Y-96886959D01*
X152770276Y-96886964D01*
X152909143Y-97025831D01*
X152942628Y-97087154D01*
X152937644Y-97156846D01*
X152895772Y-97212779D01*
X152886559Y-97219051D01*
X152731342Y-97314789D01*
X152607289Y-97438842D01*
X152515187Y-97588163D01*
X152515186Y-97588166D01*
X152460001Y-97754703D01*
X152460001Y-97754704D01*
X152460000Y-97754704D01*
X152449500Y-97857483D01*
X92500500Y-97857483D01*
X92500500Y-93342483D01*
X97299500Y-93342483D01*
X97299500Y-94642501D01*
X97299501Y-94642518D01*
X97310000Y-94745296D01*
X97310001Y-94745299D01*
X97345650Y-94852879D01*
X97365186Y-94911834D01*
X97457288Y-95061156D01*
X97581344Y-95185212D01*
X97713138Y-95266503D01*
X97736120Y-95280678D01*
X97782845Y-95332626D01*
X97794068Y-95401588D01*
X97766224Y-95465671D01*
X97758706Y-95473898D01*
X97619889Y-95612715D01*
X97494951Y-95784679D01*
X97398444Y-95974085D01*
X97332753Y-96176260D01*
X97299500Y-96386213D01*
X97299500Y-96598786D01*
X97332753Y-96808739D01*
X97398444Y-97010914D01*
X97494951Y-97200320D01*
X97619890Y-97372286D01*
X97770213Y-97522609D01*
X97942179Y-97647548D01*
X97942181Y-97647549D01*
X97942184Y-97647551D01*
X98131588Y-97744057D01*
X98333757Y-97809746D01*
X98543713Y-97843000D01*
X98543714Y-97843000D01*
X99056286Y-97843000D01*
X99056287Y-97843000D01*
X99266243Y-97809746D01*
X99468412Y-97744057D01*
X99468818Y-97743849D01*
X99468821Y-97743849D01*
X99508864Y-97723445D01*
X99657816Y-97647551D01*
X99754371Y-97577399D01*
X99829786Y-97522609D01*
X99829788Y-97522606D01*
X99829792Y-97522604D01*
X99980104Y-97372292D01*
X99980106Y-97372288D01*
X99980109Y-97372286D01*
X100105048Y-97200320D01*
X100105047Y-97200320D01*
X100105051Y-97200316D01*
X100201557Y-97010912D01*
X100267246Y-96808743D01*
X100300500Y-96598787D01*
X100300500Y-96386213D01*
X100267246Y-96176257D01*
X100201557Y-95974088D01*
X100105051Y-95784684D01*
X100105049Y-95784681D01*
X100105048Y-95784679D01*
X99980109Y-95612713D01*
X99841294Y-95473898D01*
X99812493Y-95421153D01*
X126199500Y-95421153D01*
X126199500Y-95578846D01*
X126230261Y-95733489D01*
X126230264Y-95733501D01*
X126290602Y-95879172D01*
X126290609Y-95879185D01*
X126378210Y-96010288D01*
X126378213Y-96010292D01*
X126489707Y-96121786D01*
X126489711Y-96121789D01*
X126620814Y-96209390D01*
X126620827Y-96209397D01*
X126736960Y-96257500D01*
X126766503Y-96269737D01*
X126921153Y-96300499D01*
X126921156Y-96300500D01*
X126921158Y-96300500D01*
X127078844Y-96300500D01*
X127078845Y-96300499D01*
X127233497Y-96269737D01*
X127379179Y-96209394D01*
X127510289Y-96121789D01*
X127621789Y-96010289D01*
X127709394Y-95879179D01*
X127769737Y-95733497D01*
X127800500Y-95578842D01*
X127800500Y-95578555D01*
X127801326Y-95574914D01*
X127817578Y-95545765D01*
X127833023Y-95516239D01*
X127834518Y-95514716D01*
X129212416Y-94136819D01*
X129273739Y-94103334D01*
X129300097Y-94100500D01*
X129689241Y-94100500D01*
X129756280Y-94120185D01*
X129802035Y-94172989D01*
X129811979Y-94242147D01*
X129792343Y-94293391D01*
X129740609Y-94370815D01*
X129740602Y-94370827D01*
X129680264Y-94516498D01*
X129680261Y-94516510D01*
X129649500Y-94671153D01*
X129649500Y-94828846D01*
X129680261Y-94983489D01*
X129680264Y-94983501D01*
X129740602Y-95129172D01*
X129740609Y-95129185D01*
X129828210Y-95260288D01*
X129828213Y-95260292D01*
X129939707Y-95371786D01*
X129939711Y-95371789D01*
X130070814Y-95459390D01*
X130070827Y-95459397D01*
X130186960Y-95507500D01*
X130216503Y-95519737D01*
X130347354Y-95545765D01*
X130371153Y-95550499D01*
X130371156Y-95550500D01*
X130371158Y-95550500D01*
X130528844Y-95550500D01*
X130528845Y-95550499D01*
X130683497Y-95519737D01*
X130814025Y-95465671D01*
X130829172Y-95459397D01*
X130829172Y-95459396D01*
X130829179Y-95459394D01*
X130960289Y-95371789D01*
X131071789Y-95260289D01*
X131159394Y-95129179D01*
X131162854Y-95120827D01*
X131217163Y-94989711D01*
X131219737Y-94983497D01*
X131247338Y-94844738D01*
X131250638Y-94828150D01*
X131259402Y-94811394D01*
X131263423Y-94792913D01*
X131282166Y-94767875D01*
X131283023Y-94766239D01*
X131284519Y-94764715D01*
X131337417Y-94711818D01*
X131398740Y-94678334D01*
X131425097Y-94675500D01*
X134120234Y-94675500D01*
X134187273Y-94695185D01*
X134189125Y-94696398D01*
X134320814Y-94784390D01*
X134320827Y-94784397D01*
X134428138Y-94828846D01*
X134466503Y-94844737D01*
X134621153Y-94875499D01*
X134621156Y-94875500D01*
X134621158Y-94875500D01*
X134778844Y-94875500D01*
X134778845Y-94875499D01*
X134933497Y-94844737D01*
X135064182Y-94790606D01*
X135079172Y-94784397D01*
X135079172Y-94784396D01*
X135079179Y-94784394D01*
X135210289Y-94696789D01*
X135321789Y-94585289D01*
X135409394Y-94454179D01*
X135469737Y-94308497D01*
X135500500Y-94153842D01*
X135500500Y-93996158D01*
X135500500Y-93996155D01*
X135500499Y-93996153D01*
X135469738Y-93841510D01*
X135469737Y-93841503D01*
X135469735Y-93841498D01*
X135409397Y-93695827D01*
X135409390Y-93695814D01*
X135321789Y-93564711D01*
X135321786Y-93564707D01*
X135210292Y-93453213D01*
X135210288Y-93453210D01*
X135079185Y-93365609D01*
X135079172Y-93365602D01*
X134933501Y-93305264D01*
X134933489Y-93305261D01*
X134778845Y-93274500D01*
X134778842Y-93274500D01*
X134621158Y-93274500D01*
X134621155Y-93274500D01*
X134466510Y-93305261D01*
X134466498Y-93305264D01*
X134320827Y-93365602D01*
X134320814Y-93365609D01*
X134189125Y-93453602D01*
X134122447Y-93474480D01*
X134120234Y-93474500D01*
X131412875Y-93474500D01*
X131345836Y-93454815D01*
X131300081Y-93402011D01*
X131291258Y-93374692D01*
X131269738Y-93266508D01*
X131269737Y-93266507D01*
X131269737Y-93266503D01*
X131213728Y-93131284D01*
X131209397Y-93120827D01*
X131209390Y-93120814D01*
X131121789Y-92989711D01*
X131121786Y-92989707D01*
X131010292Y-92878213D01*
X131010288Y-92878210D01*
X130879185Y-92790609D01*
X130879172Y-92790602D01*
X130733501Y-92730264D01*
X130733489Y-92730261D01*
X130578845Y-92699500D01*
X130578842Y-92699500D01*
X130421158Y-92699500D01*
X130421155Y-92699500D01*
X130266510Y-92730261D01*
X130266498Y-92730264D01*
X130120827Y-92790602D01*
X130120814Y-92790609D01*
X129989125Y-92878602D01*
X129922447Y-92899480D01*
X129920234Y-92899500D01*
X129079057Y-92899500D01*
X128920943Y-92899500D01*
X128768215Y-92940423D01*
X128768214Y-92940423D01*
X128768212Y-92940424D01*
X128768209Y-92940425D01*
X128718096Y-92969359D01*
X128718095Y-92969360D01*
X128682853Y-92989707D01*
X128631285Y-93019479D01*
X128631282Y-93019481D01*
X126985339Y-94665425D01*
X126924016Y-94698910D01*
X126921850Y-94699361D01*
X126766508Y-94730261D01*
X126766498Y-94730264D01*
X126620827Y-94790602D01*
X126620814Y-94790609D01*
X126489711Y-94878210D01*
X126489707Y-94878213D01*
X126378213Y-94989707D01*
X126378210Y-94989711D01*
X126290609Y-95120814D01*
X126290602Y-95120827D01*
X126230264Y-95266498D01*
X126230261Y-95266510D01*
X126199500Y-95421153D01*
X99812493Y-95421153D01*
X99807809Y-95412575D01*
X99812793Y-95342883D01*
X99854665Y-95286950D01*
X99863879Y-95280678D01*
X99869331Y-95277314D01*
X99869334Y-95277314D01*
X100018656Y-95185212D01*
X100142712Y-95061156D01*
X100234814Y-94911834D01*
X100289999Y-94745297D01*
X100300500Y-94642509D01*
X100300499Y-93342492D01*
X100289999Y-93239703D01*
X100234814Y-93073166D01*
X100142712Y-92923844D01*
X100018656Y-92799788D01*
X99869334Y-92707686D01*
X99702797Y-92652501D01*
X99702795Y-92652500D01*
X99600010Y-92642000D01*
X97999998Y-92642000D01*
X97999981Y-92642001D01*
X97897203Y-92652500D01*
X97897200Y-92652501D01*
X97730668Y-92707685D01*
X97730663Y-92707687D01*
X97581342Y-92799789D01*
X97457289Y-92923842D01*
X97365187Y-93073163D01*
X97365185Y-93073168D01*
X97345927Y-93131286D01*
X97310001Y-93239703D01*
X97310001Y-93239704D01*
X97310000Y-93239704D01*
X97299500Y-93342483D01*
X92500500Y-93342483D01*
X92500500Y-90570000D01*
X152375138Y-90570000D01*
X153178012Y-90570000D01*
X153160795Y-90579940D01*
X153104940Y-90635795D01*
X153065444Y-90704204D01*
X153045000Y-90780504D01*
X153045000Y-90859496D01*
X153065444Y-90935796D01*
X153104940Y-91004205D01*
X153160795Y-91060060D01*
X153178012Y-91070000D01*
X152375138Y-91070000D01*
X152383430Y-91111690D01*
X152383430Y-91111692D01*
X152458807Y-91293671D01*
X152458814Y-91293684D01*
X152568248Y-91457462D01*
X152568251Y-91457466D01*
X152707533Y-91596748D01*
X152707537Y-91596751D01*
X152871315Y-91706185D01*
X152871328Y-91706192D01*
X153053306Y-91781569D01*
X153053318Y-91781572D01*
X153246504Y-91819999D01*
X153246508Y-91820000D01*
X153645000Y-91820000D01*
X153645000Y-91120000D01*
X154145000Y-91120000D01*
X154145000Y-91820000D01*
X154543492Y-91820000D01*
X154543495Y-91819999D01*
X154736681Y-91781572D01*
X154736693Y-91781569D01*
X154918671Y-91706192D01*
X154918684Y-91706185D01*
X155082462Y-91596751D01*
X155082466Y-91596748D01*
X155221748Y-91457466D01*
X155221751Y-91457462D01*
X155331185Y-91293684D01*
X155331192Y-91293671D01*
X155406569Y-91111692D01*
X155406569Y-91111690D01*
X155414862Y-91070000D01*
X154611988Y-91070000D01*
X154629205Y-91060060D01*
X154685060Y-91004205D01*
X154724556Y-90935796D01*
X154745000Y-90859496D01*
X154745000Y-90780504D01*
X154724556Y-90704204D01*
X154685060Y-90635795D01*
X154629205Y-90579940D01*
X154611988Y-90570000D01*
X155414862Y-90570000D01*
X156705138Y-90570000D01*
X157508012Y-90570000D01*
X157490795Y-90579940D01*
X157434940Y-90635795D01*
X157395444Y-90704204D01*
X157375000Y-90780504D01*
X157375000Y-90859496D01*
X157395444Y-90935796D01*
X157434940Y-91004205D01*
X157490795Y-91060060D01*
X157508012Y-91070000D01*
X156705138Y-91070000D01*
X156713430Y-91111690D01*
X156713430Y-91111692D01*
X156788807Y-91293671D01*
X156788814Y-91293684D01*
X156898248Y-91457462D01*
X156898251Y-91457466D01*
X157037533Y-91596748D01*
X157037537Y-91596751D01*
X157201315Y-91706185D01*
X157201328Y-91706192D01*
X157383306Y-91781569D01*
X157383318Y-91781572D01*
X157576504Y-91819999D01*
X157576508Y-91820000D01*
X157825000Y-91820000D01*
X157825000Y-91120000D01*
X158325000Y-91120000D01*
X158325000Y-91820000D01*
X158573492Y-91820000D01*
X158573495Y-91819999D01*
X158766681Y-91781572D01*
X158766693Y-91781569D01*
X158948671Y-91706192D01*
X158948684Y-91706185D01*
X159112462Y-91596751D01*
X159112466Y-91596748D01*
X159251748Y-91457466D01*
X159251751Y-91457462D01*
X159361185Y-91293684D01*
X159361192Y-91293671D01*
X159436569Y-91111692D01*
X159436569Y-91111690D01*
X159444862Y-91070000D01*
X158641988Y-91070000D01*
X158659205Y-91060060D01*
X158715060Y-91004205D01*
X158754556Y-90935796D01*
X158775000Y-90859496D01*
X158775000Y-90780504D01*
X158754556Y-90704204D01*
X158715060Y-90635795D01*
X158659205Y-90579940D01*
X158641988Y-90570000D01*
X159444862Y-90570000D01*
X159436569Y-90528309D01*
X159436569Y-90528307D01*
X159361192Y-90346328D01*
X159361185Y-90346315D01*
X159251751Y-90182537D01*
X159251748Y-90182533D01*
X159112466Y-90043251D01*
X159112462Y-90043248D01*
X158948684Y-89933814D01*
X158948671Y-89933807D01*
X158766693Y-89858430D01*
X158766681Y-89858427D01*
X158573495Y-89820000D01*
X158325000Y-89820000D01*
X158325000Y-90520000D01*
X157825000Y-90520000D01*
X157825000Y-89820000D01*
X157576504Y-89820000D01*
X157383318Y-89858427D01*
X157383306Y-89858430D01*
X157201328Y-89933807D01*
X157201315Y-89933814D01*
X157037537Y-90043248D01*
X157037533Y-90043251D01*
X156898251Y-90182533D01*
X156898248Y-90182537D01*
X156788814Y-90346315D01*
X156788807Y-90346328D01*
X156713430Y-90528307D01*
X156713430Y-90528309D01*
X156705138Y-90570000D01*
X155414862Y-90570000D01*
X155406569Y-90528309D01*
X155406569Y-90528307D01*
X155331192Y-90346328D01*
X155331185Y-90346315D01*
X155221751Y-90182537D01*
X155221748Y-90182533D01*
X155082466Y-90043251D01*
X155082462Y-90043248D01*
X154918684Y-89933814D01*
X154918674Y-89933809D01*
X154909157Y-89929867D01*
X154854754Y-89886026D01*
X154832689Y-89819731D01*
X154849969Y-89752032D01*
X154853648Y-89746597D01*
X154855512Y-89743367D01*
X154855515Y-89743365D01*
X154931281Y-89612135D01*
X154970500Y-89465766D01*
X154970500Y-89314234D01*
X154931281Y-89167865D01*
X154855515Y-89036635D01*
X154748365Y-88929485D01*
X154682750Y-88891602D01*
X154617136Y-88853719D01*
X154543950Y-88834109D01*
X154470766Y-88814500D01*
X154319234Y-88814500D01*
X154172863Y-88853719D01*
X154041635Y-88929485D01*
X154041632Y-88929487D01*
X153934487Y-89036632D01*
X153934485Y-89036635D01*
X153858719Y-89167863D01*
X153819500Y-89314234D01*
X153819500Y-89465765D01*
X153858719Y-89612136D01*
X153896602Y-89677750D01*
X153934485Y-89743365D01*
X154041635Y-89850515D01*
X154083000Y-89874397D01*
X154131216Y-89924964D01*
X154145000Y-89981784D01*
X154145000Y-90520000D01*
X153645000Y-90520000D01*
X153645000Y-89820000D01*
X153246504Y-89820000D01*
X153053318Y-89858427D01*
X153053306Y-89858430D01*
X152871328Y-89933807D01*
X152871315Y-89933814D01*
X152707537Y-90043248D01*
X152707533Y-90043251D01*
X152568251Y-90182533D01*
X152568248Y-90182537D01*
X152458814Y-90346315D01*
X152458807Y-90346328D01*
X152383430Y-90528307D01*
X152383430Y-90528309D01*
X152375138Y-90570000D01*
X92500500Y-90570000D01*
X92500500Y-86171153D01*
X113949500Y-86171153D01*
X113949500Y-86328846D01*
X113980261Y-86483489D01*
X113980264Y-86483501D01*
X114040602Y-86629172D01*
X114040609Y-86629185D01*
X114128210Y-86760288D01*
X114128213Y-86760292D01*
X114239707Y-86871786D01*
X114239711Y-86871789D01*
X114370814Y-86959390D01*
X114370827Y-86959397D01*
X114516498Y-87019735D01*
X114516503Y-87019737D01*
X114671153Y-87050499D01*
X114671156Y-87050500D01*
X114671158Y-87050500D01*
X114828844Y-87050500D01*
X114828845Y-87050499D01*
X114983497Y-87019737D01*
X115129179Y-86959394D01*
X115129185Y-86959390D01*
X115260875Y-86871398D01*
X115327553Y-86850520D01*
X115329766Y-86850500D01*
X118420234Y-86850500D01*
X118487273Y-86870185D01*
X118489125Y-86871398D01*
X118620814Y-86959390D01*
X118620827Y-86959397D01*
X118766498Y-87019735D01*
X118766503Y-87019737D01*
X118921153Y-87050499D01*
X118921156Y-87050500D01*
X118921158Y-87050500D01*
X119078844Y-87050500D01*
X119078845Y-87050499D01*
X119233497Y-87019737D01*
X119379179Y-86959394D01*
X119510289Y-86871789D01*
X119621789Y-86760289D01*
X119709394Y-86629179D01*
X119769737Y-86483497D01*
X119800500Y-86328842D01*
X119800500Y-86171158D01*
X119800500Y-86171155D01*
X119800499Y-86171153D01*
X119769738Y-86016510D01*
X119769737Y-86016503D01*
X119769735Y-86016498D01*
X119709397Y-85870827D01*
X119709390Y-85870814D01*
X119621789Y-85739711D01*
X119621786Y-85739707D01*
X119510292Y-85628213D01*
X119510288Y-85628210D01*
X119379185Y-85540609D01*
X119379172Y-85540602D01*
X119233501Y-85480264D01*
X119233489Y-85480261D01*
X119078845Y-85449500D01*
X119078842Y-85449500D01*
X118921158Y-85449500D01*
X118921155Y-85449500D01*
X118766510Y-85480261D01*
X118766498Y-85480264D01*
X118620827Y-85540602D01*
X118620814Y-85540609D01*
X118489125Y-85628602D01*
X118422447Y-85649480D01*
X118420234Y-85649500D01*
X115329766Y-85649500D01*
X115262727Y-85629815D01*
X115260875Y-85628602D01*
X115129185Y-85540609D01*
X115129172Y-85540602D01*
X114983501Y-85480264D01*
X114983489Y-85480261D01*
X114828845Y-85449500D01*
X114828842Y-85449500D01*
X114671158Y-85449500D01*
X114671155Y-85449500D01*
X114516510Y-85480261D01*
X114516498Y-85480264D01*
X114370827Y-85540602D01*
X114370814Y-85540609D01*
X114239711Y-85628210D01*
X114239707Y-85628213D01*
X114128213Y-85739707D01*
X114128210Y-85739711D01*
X114040609Y-85870814D01*
X114040602Y-85870827D01*
X113980264Y-86016498D01*
X113980261Y-86016510D01*
X113949500Y-86171153D01*
X92500500Y-86171153D01*
X92500500Y-77365186D01*
X95099500Y-77365186D01*
X95099500Y-77634813D01*
X95129686Y-77902719D01*
X95129688Y-77902731D01*
X95189684Y-78165594D01*
X95189687Y-78165602D01*
X95278734Y-78420082D01*
X95395714Y-78662994D01*
X95395716Y-78662997D01*
X95539162Y-78891289D01*
X95647638Y-79027314D01*
X95699927Y-79092883D01*
X95707266Y-79102085D01*
X95897915Y-79292734D01*
X96108711Y-79460838D01*
X96337003Y-79604284D01*
X96579921Y-79721267D01*
X96743035Y-79778343D01*
X96834397Y-79810312D01*
X96834405Y-79810315D01*
X96834408Y-79810315D01*
X96834409Y-79810316D01*
X97097268Y-79870312D01*
X97365187Y-79900499D01*
X97365188Y-79900500D01*
X97365191Y-79900500D01*
X97634812Y-79900500D01*
X97634812Y-79900499D01*
X97902732Y-79870312D01*
X98165591Y-79810316D01*
X98420079Y-79721267D01*
X98662997Y-79604284D01*
X98891289Y-79460838D01*
X99102085Y-79292734D01*
X99292734Y-79102085D01*
X99460838Y-78891289D01*
X99604284Y-78662997D01*
X99721267Y-78420079D01*
X99810316Y-78165591D01*
X99870312Y-77902732D01*
X99900500Y-77634809D01*
X99900500Y-77365191D01*
X99887930Y-77253631D01*
X99870983Y-77103218D01*
X99870313Y-77097278D01*
X99870312Y-77097268D01*
X99869220Y-77092483D01*
X111999500Y-77092483D01*
X111999500Y-78392501D01*
X111999501Y-78392518D01*
X112010000Y-78495296D01*
X112010001Y-78495299D01*
X112065185Y-78661831D01*
X112065187Y-78661836D01*
X112157289Y-78811157D01*
X112281344Y-78935212D01*
X112436120Y-79030678D01*
X112482845Y-79082626D01*
X112494068Y-79151588D01*
X112466224Y-79215671D01*
X112458706Y-79223898D01*
X112319889Y-79362715D01*
X112194951Y-79534679D01*
X112098444Y-79724085D01*
X112032753Y-79926260D01*
X112018461Y-80016498D01*
X111999500Y-80136213D01*
X111999500Y-80348787D01*
X112032754Y-80558743D01*
X112098240Y-80760288D01*
X112098444Y-80760914D01*
X112194951Y-80950320D01*
X112319890Y-81122286D01*
X112470213Y-81272609D01*
X112642179Y-81397548D01*
X112642181Y-81397549D01*
X112642184Y-81397551D01*
X112831588Y-81494057D01*
X113033757Y-81559746D01*
X113243713Y-81593000D01*
X113243714Y-81593000D01*
X113756286Y-81593000D01*
X113756287Y-81593000D01*
X113966243Y-81559746D01*
X114168412Y-81494057D01*
X114357816Y-81397551D01*
X114500599Y-81293814D01*
X114529786Y-81272609D01*
X114529788Y-81272606D01*
X114529792Y-81272604D01*
X114680104Y-81122292D01*
X114680106Y-81122288D01*
X114680109Y-81122286D01*
X114805048Y-80950320D01*
X114805047Y-80950320D01*
X114805051Y-80950316D01*
X114901557Y-80760912D01*
X114967246Y-80558743D01*
X115000500Y-80348787D01*
X115000500Y-80171153D01*
X115699500Y-80171153D01*
X115699500Y-80328846D01*
X115730261Y-80483489D01*
X115730264Y-80483501D01*
X115790602Y-80629172D01*
X115790609Y-80629185D01*
X115878210Y-80760288D01*
X115878213Y-80760292D01*
X115989707Y-80871786D01*
X115989711Y-80871789D01*
X116120814Y-80959390D01*
X116120823Y-80959395D01*
X116144475Y-80969192D01*
X116184702Y-80996071D01*
X116267475Y-81078842D01*
X116271584Y-81082951D01*
X116271587Y-81082953D01*
X116394498Y-81165080D01*
X116394511Y-81165087D01*
X116523294Y-81218430D01*
X116531087Y-81221658D01*
X116531091Y-81221658D01*
X116531092Y-81221659D01*
X116676079Y-81250500D01*
X116676082Y-81250500D01*
X116823917Y-81250500D01*
X126637770Y-81250500D01*
X126704809Y-81270185D01*
X126725451Y-81286819D01*
X128826496Y-83387863D01*
X130667049Y-85228416D01*
X130771584Y-85332951D01*
X130771587Y-85332953D01*
X130771588Y-85332954D01*
X130894503Y-85415083D01*
X130894506Y-85415085D01*
X130944665Y-85435861D01*
X130951080Y-85438518D01*
X131031088Y-85471659D01*
X131147241Y-85494763D01*
X131170380Y-85499365D01*
X131176081Y-85500500D01*
X131176082Y-85500500D01*
X131176083Y-85500500D01*
X131323918Y-85500500D01*
X136445396Y-85500500D01*
X136492844Y-85509937D01*
X136516503Y-85519737D01*
X136516508Y-85519738D01*
X136516511Y-85519739D01*
X136671153Y-85550499D01*
X136671156Y-85550500D01*
X136671158Y-85550500D01*
X136828844Y-85550500D01*
X136828845Y-85550499D01*
X136983497Y-85519737D01*
X137129179Y-85459394D01*
X137260289Y-85371789D01*
X137371789Y-85260289D01*
X137459394Y-85129179D01*
X137519737Y-84983497D01*
X137550500Y-84828842D01*
X137550500Y-84671158D01*
X137550500Y-84671155D01*
X137550499Y-84671153D01*
X137519738Y-84516510D01*
X137519737Y-84516503D01*
X137519735Y-84516498D01*
X137459397Y-84370827D01*
X137459390Y-84370814D01*
X137371789Y-84239711D01*
X137371786Y-84239707D01*
X137260292Y-84128213D01*
X137260288Y-84128210D01*
X137129185Y-84040609D01*
X137129172Y-84040602D01*
X136983501Y-83980264D01*
X136983489Y-83980261D01*
X136828845Y-83949500D01*
X136828842Y-83949500D01*
X136671158Y-83949500D01*
X136671155Y-83949500D01*
X136516511Y-83980260D01*
X136516506Y-83980262D01*
X136516504Y-83980262D01*
X136516503Y-83980263D01*
X136492844Y-83990062D01*
X136445396Y-83999500D01*
X131612229Y-83999500D01*
X131545190Y-83979815D01*
X131524548Y-83963181D01*
X131175155Y-83613788D01*
X128564115Y-81002747D01*
X128482521Y-80921153D01*
X134199500Y-80921153D01*
X134199500Y-81078846D01*
X134230261Y-81233489D01*
X134230264Y-81233501D01*
X134290602Y-81379172D01*
X134290609Y-81379185D01*
X134378210Y-81510288D01*
X134378213Y-81510292D01*
X134405240Y-81537319D01*
X134438725Y-81598642D01*
X134433741Y-81668334D01*
X134405240Y-81712681D01*
X134378213Y-81739707D01*
X134378210Y-81739711D01*
X134290609Y-81870814D01*
X134290602Y-81870827D01*
X134230264Y-82016498D01*
X134230261Y-82016510D01*
X134199500Y-82171153D01*
X134199500Y-82328846D01*
X134230261Y-82483489D01*
X134230264Y-82483501D01*
X134290602Y-82629172D01*
X134290609Y-82629185D01*
X134378210Y-82760288D01*
X134378213Y-82760292D01*
X134489707Y-82871786D01*
X134489711Y-82871789D01*
X134620814Y-82959390D01*
X134620827Y-82959397D01*
X134766498Y-83019735D01*
X134766503Y-83019737D01*
X134921153Y-83050499D01*
X134921156Y-83050500D01*
X134921158Y-83050500D01*
X135078844Y-83050500D01*
X135078845Y-83050499D01*
X135233497Y-83019737D01*
X135379179Y-82959394D01*
X135383139Y-82956748D01*
X135510875Y-82871398D01*
X135577553Y-82850520D01*
X135579766Y-82850500D01*
X139413331Y-82850500D01*
X139413347Y-82850501D01*
X139420943Y-82850501D01*
X139579054Y-82850501D01*
X139579057Y-82850501D01*
X139731785Y-82809577D01*
X139781904Y-82780639D01*
X139868716Y-82730520D01*
X139980520Y-82618716D01*
X139980521Y-82618714D01*
X140014662Y-82584572D01*
X140075983Y-82551089D01*
X140078150Y-82550638D01*
X140136085Y-82539113D01*
X140233497Y-82519737D01*
X140379179Y-82459394D01*
X140510289Y-82371789D01*
X140517873Y-82364205D01*
X140573091Y-82308988D01*
X140621786Y-82260292D01*
X140621789Y-82260289D01*
X140709394Y-82129179D01*
X140769737Y-81983497D01*
X140771929Y-81972476D01*
X140778561Y-81939139D01*
X140778561Y-81939138D01*
X140780379Y-81930000D01*
X152375138Y-81930000D01*
X153178012Y-81930000D01*
X153160795Y-81939940D01*
X153104940Y-81995795D01*
X153065444Y-82064204D01*
X153045000Y-82140504D01*
X153045000Y-82219496D01*
X153065444Y-82295796D01*
X153104940Y-82364205D01*
X153160795Y-82420060D01*
X153178012Y-82430000D01*
X152375138Y-82430000D01*
X152383430Y-82471690D01*
X152383430Y-82471692D01*
X152458807Y-82653671D01*
X152458814Y-82653684D01*
X152568248Y-82817462D01*
X152568251Y-82817466D01*
X152707533Y-82956748D01*
X152707537Y-82956751D01*
X152871315Y-83066185D01*
X152871328Y-83066192D01*
X153053306Y-83141569D01*
X153053318Y-83141572D01*
X153246504Y-83179999D01*
X153246508Y-83180000D01*
X153645000Y-83180000D01*
X153645000Y-82480000D01*
X154145000Y-82480000D01*
X154145000Y-83018215D01*
X154125315Y-83085254D01*
X154083002Y-83125601D01*
X154041638Y-83149483D01*
X154041632Y-83149487D01*
X153934487Y-83256632D01*
X153934485Y-83256635D01*
X153858719Y-83387863D01*
X153819500Y-83534234D01*
X153819500Y-83685765D01*
X153858719Y-83832136D01*
X153896602Y-83897750D01*
X153934485Y-83963365D01*
X154041635Y-84070515D01*
X154172865Y-84146281D01*
X154319234Y-84185500D01*
X154319236Y-84185500D01*
X154470764Y-84185500D01*
X154470766Y-84185500D01*
X154617135Y-84146281D01*
X154748365Y-84070515D01*
X154855515Y-83963365D01*
X154931281Y-83832135D01*
X154970500Y-83685766D01*
X154970500Y-83534234D01*
X154931281Y-83387865D01*
X154855515Y-83256635D01*
X154855513Y-83256633D01*
X154851451Y-83249597D01*
X154853654Y-83248325D01*
X154833041Y-83195022D01*
X154847073Y-83126576D01*
X154895882Y-83076582D01*
X154909163Y-83070129D01*
X154918682Y-83066186D01*
X154918684Y-83066185D01*
X155082462Y-82956751D01*
X155082466Y-82956748D01*
X155221748Y-82817466D01*
X155221751Y-82817462D01*
X155331185Y-82653684D01*
X155331192Y-82653671D01*
X155406569Y-82471692D01*
X155406569Y-82471690D01*
X155414862Y-82430000D01*
X154611988Y-82430000D01*
X154629205Y-82420060D01*
X154685060Y-82364205D01*
X154724556Y-82295796D01*
X154745000Y-82219496D01*
X154745000Y-82140504D01*
X154724556Y-82064204D01*
X154685060Y-81995795D01*
X154629205Y-81939940D01*
X154611988Y-81930000D01*
X155414862Y-81930000D01*
X156705138Y-81930000D01*
X157508012Y-81930000D01*
X157490795Y-81939940D01*
X157434940Y-81995795D01*
X157395444Y-82064204D01*
X157375000Y-82140504D01*
X157375000Y-82219496D01*
X157395444Y-82295796D01*
X157434940Y-82364205D01*
X157490795Y-82420060D01*
X157508012Y-82430000D01*
X156705138Y-82430000D01*
X156713430Y-82471690D01*
X156713430Y-82471692D01*
X156788807Y-82653671D01*
X156788814Y-82653684D01*
X156898248Y-82817462D01*
X156898251Y-82817466D01*
X157037533Y-82956748D01*
X157037537Y-82956751D01*
X157201315Y-83066185D01*
X157201328Y-83066192D01*
X157383306Y-83141569D01*
X157383318Y-83141572D01*
X157576504Y-83179999D01*
X157576508Y-83180000D01*
X157825000Y-83180000D01*
X157825000Y-82480000D01*
X158325000Y-82480000D01*
X158325000Y-83180000D01*
X158573492Y-83180000D01*
X158573495Y-83179999D01*
X158766681Y-83141572D01*
X158766693Y-83141569D01*
X158948671Y-83066192D01*
X158948684Y-83066185D01*
X159112462Y-82956751D01*
X159112466Y-82956748D01*
X159251748Y-82817466D01*
X159251751Y-82817462D01*
X159361185Y-82653684D01*
X159361192Y-82653671D01*
X159436569Y-82471692D01*
X159436569Y-82471690D01*
X159444862Y-82430000D01*
X158641988Y-82430000D01*
X158659205Y-82420060D01*
X158715060Y-82364205D01*
X158754556Y-82295796D01*
X158775000Y-82219496D01*
X158775000Y-82140504D01*
X158754556Y-82064204D01*
X158715060Y-81995795D01*
X158659205Y-81939940D01*
X158641988Y-81930000D01*
X159444862Y-81930000D01*
X159436569Y-81888309D01*
X159436569Y-81888307D01*
X159361192Y-81706328D01*
X159361185Y-81706315D01*
X159251751Y-81542537D01*
X159251748Y-81542533D01*
X159112466Y-81403251D01*
X159112462Y-81403248D01*
X158948684Y-81293814D01*
X158948671Y-81293807D01*
X158766693Y-81218430D01*
X158766681Y-81218427D01*
X158573495Y-81180000D01*
X158325000Y-81180000D01*
X158325000Y-81880000D01*
X157825000Y-81880000D01*
X157825000Y-81180000D01*
X157576504Y-81180000D01*
X157383318Y-81218427D01*
X157383306Y-81218430D01*
X157201328Y-81293807D01*
X157201315Y-81293814D01*
X157037537Y-81403248D01*
X157037533Y-81403251D01*
X156898251Y-81542533D01*
X156898248Y-81542537D01*
X156788814Y-81706315D01*
X156788807Y-81706328D01*
X156713430Y-81888307D01*
X156713430Y-81888309D01*
X156705138Y-81930000D01*
X155414862Y-81930000D01*
X155406569Y-81888309D01*
X155406569Y-81888307D01*
X155331192Y-81706328D01*
X155331185Y-81706315D01*
X155221751Y-81542537D01*
X155221748Y-81542533D01*
X155082466Y-81403251D01*
X155082462Y-81403248D01*
X154918684Y-81293814D01*
X154918671Y-81293807D01*
X154736693Y-81218430D01*
X154736681Y-81218427D01*
X154543495Y-81180000D01*
X154145000Y-81180000D01*
X154145000Y-81880000D01*
X153645000Y-81880000D01*
X153645000Y-81180000D01*
X153246504Y-81180000D01*
X153053318Y-81218427D01*
X153053306Y-81218430D01*
X152871328Y-81293807D01*
X152871315Y-81293814D01*
X152707537Y-81403248D01*
X152707533Y-81403251D01*
X152568251Y-81542533D01*
X152568248Y-81542537D01*
X152458814Y-81706315D01*
X152458807Y-81706328D01*
X152383430Y-81888307D01*
X152383430Y-81888309D01*
X152375138Y-81930000D01*
X140780379Y-81930000D01*
X140800499Y-81828846D01*
X140800500Y-81828844D01*
X140800500Y-81671155D01*
X140800499Y-81671153D01*
X140791957Y-81628211D01*
X140769737Y-81516503D01*
X140720465Y-81397548D01*
X140709397Y-81370827D01*
X140709390Y-81370814D01*
X140621789Y-81239711D01*
X140621786Y-81239707D01*
X140510292Y-81128213D01*
X140510288Y-81128210D01*
X140379185Y-81040609D01*
X140379169Y-81040601D01*
X140377038Y-81039718D01*
X140376094Y-81038957D01*
X140373809Y-81037736D01*
X140374040Y-81037302D01*
X140322638Y-80995873D01*
X140300579Y-80929577D01*
X140300500Y-80925161D01*
X140300500Y-80921155D01*
X140300499Y-80921153D01*
X140269738Y-80766510D01*
X140269737Y-80766503D01*
X140267163Y-80760288D01*
X140209397Y-80620827D01*
X140209390Y-80620814D01*
X140121789Y-80489711D01*
X140121786Y-80489707D01*
X140010292Y-80378213D01*
X140010288Y-80378210D01*
X139879185Y-80290609D01*
X139879172Y-80290602D01*
X139733501Y-80230264D01*
X139733489Y-80230261D01*
X139578845Y-80199500D01*
X139578842Y-80199500D01*
X139421158Y-80199500D01*
X139421155Y-80199500D01*
X139266510Y-80230261D01*
X139266498Y-80230264D01*
X139120827Y-80290602D01*
X139120814Y-80290609D01*
X138989125Y-80378602D01*
X138922447Y-80399480D01*
X138920234Y-80399500D01*
X135579766Y-80399500D01*
X135512727Y-80379815D01*
X135510875Y-80378602D01*
X135379185Y-80290609D01*
X135379172Y-80290602D01*
X135233501Y-80230264D01*
X135233489Y-80230261D01*
X135078845Y-80199500D01*
X135078842Y-80199500D01*
X134921158Y-80199500D01*
X134921155Y-80199500D01*
X134766510Y-80230261D01*
X134766498Y-80230264D01*
X134620827Y-80290602D01*
X134620814Y-80290609D01*
X134489711Y-80378210D01*
X134489707Y-80378213D01*
X134378213Y-80489707D01*
X134378210Y-80489711D01*
X134290609Y-80620814D01*
X134290602Y-80620827D01*
X134230264Y-80766498D01*
X134230261Y-80766510D01*
X134199500Y-80921153D01*
X128482521Y-80921153D01*
X127478421Y-79917052D01*
X127478414Y-79917046D01*
X127404729Y-79867812D01*
X127404729Y-79867813D01*
X127355491Y-79834913D01*
X127218917Y-79778343D01*
X127218907Y-79778340D01*
X127073920Y-79749500D01*
X127073918Y-79749500D01*
X117182940Y-79749500D01*
X117115901Y-79729815D01*
X117095263Y-79713185D01*
X117010289Y-79628211D01*
X117010288Y-79628210D01*
X117010287Y-79628209D01*
X116879185Y-79540609D01*
X116879172Y-79540602D01*
X116733501Y-79480264D01*
X116733489Y-79480261D01*
X116578845Y-79449500D01*
X116578842Y-79449500D01*
X116421158Y-79449500D01*
X116421155Y-79449500D01*
X116266510Y-79480261D01*
X116266498Y-79480264D01*
X116120827Y-79540602D01*
X116120814Y-79540609D01*
X115989711Y-79628210D01*
X115989707Y-79628213D01*
X115878213Y-79739707D01*
X115878210Y-79739711D01*
X115790609Y-79870814D01*
X115790602Y-79870827D01*
X115730264Y-80016498D01*
X115730261Y-80016510D01*
X115699500Y-80171153D01*
X115000500Y-80171153D01*
X115000500Y-80136213D01*
X114967246Y-79926257D01*
X114901557Y-79724088D01*
X114805051Y-79534684D01*
X114805049Y-79534681D01*
X114805048Y-79534679D01*
X114680109Y-79362713D01*
X114541294Y-79223898D01*
X114507809Y-79162575D01*
X114512793Y-79092883D01*
X114554665Y-79036950D01*
X114563879Y-79030678D01*
X114569331Y-79027314D01*
X114569334Y-79027314D01*
X114718656Y-78935212D01*
X114842712Y-78811156D01*
X114934814Y-78661834D01*
X114989999Y-78495297D01*
X115000500Y-78392509D01*
X115000499Y-77092492D01*
X114989999Y-76989703D01*
X114934814Y-76823166D01*
X114842712Y-76673844D01*
X114718656Y-76549788D01*
X114569334Y-76457686D01*
X114402797Y-76402501D01*
X114402795Y-76402500D01*
X114300010Y-76392000D01*
X112699998Y-76392000D01*
X112699981Y-76392001D01*
X112597203Y-76402500D01*
X112597200Y-76402501D01*
X112430668Y-76457685D01*
X112430663Y-76457687D01*
X112281342Y-76549789D01*
X112157289Y-76673842D01*
X112065187Y-76823163D01*
X112065185Y-76823168D01*
X112061460Y-76834409D01*
X112010001Y-76989703D01*
X112010001Y-76989704D01*
X112010000Y-76989704D01*
X111999500Y-77092483D01*
X99869220Y-77092483D01*
X99810316Y-76834409D01*
X99721267Y-76579921D01*
X99604284Y-76337003D01*
X99460838Y-76108711D01*
X99292734Y-75897915D01*
X99102085Y-75707266D01*
X98891289Y-75539162D01*
X98662997Y-75395716D01*
X98662994Y-75395714D01*
X98420082Y-75278734D01*
X98165602Y-75189687D01*
X98165594Y-75189684D01*
X97998814Y-75151618D01*
X97969339Y-75144890D01*
X97908362Y-75110782D01*
X97875504Y-75049121D01*
X97881199Y-74979484D01*
X97923639Y-74923980D01*
X97989349Y-74900232D01*
X97996933Y-74900000D01*
X98704706Y-74900000D01*
X98704719Y-74899999D01*
X98837906Y-74889517D01*
X98837912Y-74889516D01*
X99057829Y-74834101D01*
X99057832Y-74834100D01*
X99264330Y-74740304D01*
X99264336Y-74740301D01*
X99450758Y-74611148D01*
X99450770Y-74611138D01*
X99611138Y-74450770D01*
X99611148Y-74450758D01*
X99740301Y-74264336D01*
X99740304Y-74264330D01*
X99834100Y-74057832D01*
X99834101Y-74057829D01*
X99889516Y-73837912D01*
X99889517Y-73837906D01*
X99899999Y-73704719D01*
X99900000Y-73704706D01*
X99900000Y-72750000D01*
X98827231Y-72750000D01*
X98850000Y-72606247D01*
X98850000Y-72393753D01*
X98827231Y-72250000D01*
X99900000Y-72250000D01*
X99900000Y-71421153D01*
X130199500Y-71421153D01*
X130199500Y-71578846D01*
X130230261Y-71733489D01*
X130230264Y-71733501D01*
X130290602Y-71879172D01*
X130290609Y-71879185D01*
X130378210Y-72010288D01*
X130378213Y-72010292D01*
X130489707Y-72121786D01*
X130489711Y-72121789D01*
X130620814Y-72209390D01*
X130620827Y-72209397D01*
X130718853Y-72250000D01*
X130766503Y-72269737D01*
X130921153Y-72300499D01*
X130921156Y-72300500D01*
X130921158Y-72300500D01*
X131078844Y-72300500D01*
X131078845Y-72300499D01*
X131233497Y-72269737D01*
X131379179Y-72209394D01*
X131411473Y-72187816D01*
X131510875Y-72121398D01*
X131577553Y-72100520D01*
X131579766Y-72100500D01*
X136763331Y-72100500D01*
X136763347Y-72100501D01*
X136770943Y-72100501D01*
X136929054Y-72100501D01*
X136929057Y-72100501D01*
X137081785Y-72059577D01*
X137131904Y-72030639D01*
X137218716Y-71980520D01*
X137330520Y-71868716D01*
X137330520Y-71868714D01*
X137340728Y-71858507D01*
X137340729Y-71858504D01*
X138114662Y-71084572D01*
X138175983Y-71051089D01*
X138178150Y-71050638D01*
X138236085Y-71039113D01*
X138333497Y-71019737D01*
X138473882Y-70961588D01*
X138479172Y-70959397D01*
X138479172Y-70959396D01*
X138479179Y-70959394D01*
X138610289Y-70871789D01*
X138721789Y-70760289D01*
X138809394Y-70629179D01*
X138869737Y-70483497D01*
X138900500Y-70328842D01*
X138900500Y-70171158D01*
X138900500Y-70171155D01*
X138900499Y-70171153D01*
X138885361Y-70095050D01*
X138869737Y-70016503D01*
X138850518Y-69970104D01*
X138809397Y-69870827D01*
X138809390Y-69870814D01*
X138721789Y-69739711D01*
X138721786Y-69739707D01*
X138610292Y-69628213D01*
X138610288Y-69628210D01*
X138479185Y-69540609D01*
X138479172Y-69540602D01*
X138333501Y-69480264D01*
X138333489Y-69480261D01*
X138178845Y-69449500D01*
X138178842Y-69449500D01*
X138021158Y-69449500D01*
X138021155Y-69449500D01*
X137866510Y-69480261D01*
X137866498Y-69480264D01*
X137720827Y-69540602D01*
X137720814Y-69540609D01*
X137589711Y-69628210D01*
X137589707Y-69628213D01*
X137478213Y-69739707D01*
X137478210Y-69739711D01*
X137390609Y-69870814D01*
X137390602Y-69870827D01*
X137330264Y-70016498D01*
X137330261Y-70016508D01*
X137299361Y-70171850D01*
X137266976Y-70233761D01*
X137265425Y-70235339D01*
X136637584Y-70863181D01*
X136576261Y-70896666D01*
X136549903Y-70899500D01*
X131579766Y-70899500D01*
X131512727Y-70879815D01*
X131510875Y-70878602D01*
X131379185Y-70790609D01*
X131379172Y-70790602D01*
X131233501Y-70730264D01*
X131233489Y-70730261D01*
X131078845Y-70699500D01*
X131078842Y-70699500D01*
X130921158Y-70699500D01*
X130921155Y-70699500D01*
X130766510Y-70730261D01*
X130766498Y-70730264D01*
X130620827Y-70790602D01*
X130620814Y-70790609D01*
X130489711Y-70878210D01*
X130489707Y-70878213D01*
X130378213Y-70989707D01*
X130378210Y-70989711D01*
X130290609Y-71120814D01*
X130290602Y-71120827D01*
X130230264Y-71266498D01*
X130230261Y-71266510D01*
X130199500Y-71421153D01*
X99900000Y-71421153D01*
X99900000Y-71295293D01*
X99899999Y-71295280D01*
X99889517Y-71162093D01*
X99889516Y-71162087D01*
X99834101Y-70942170D01*
X99834100Y-70942167D01*
X99740304Y-70735669D01*
X99740301Y-70735663D01*
X99611148Y-70549241D01*
X99611138Y-70549229D01*
X99450770Y-70388861D01*
X99450758Y-70388851D01*
X99264336Y-70259698D01*
X99264330Y-70259695D01*
X99057832Y-70165899D01*
X99057829Y-70165898D01*
X98837912Y-70110483D01*
X98837906Y-70110482D01*
X98704719Y-70100000D01*
X97750000Y-70100000D01*
X97750000Y-71172768D01*
X97606247Y-71150000D01*
X97393753Y-71150000D01*
X97250000Y-71172768D01*
X97250000Y-70100000D01*
X96295280Y-70100000D01*
X96162093Y-70110482D01*
X96162087Y-70110483D01*
X95942170Y-70165898D01*
X95942167Y-70165899D01*
X95735669Y-70259695D01*
X95735663Y-70259698D01*
X95549241Y-70388851D01*
X95549229Y-70388861D01*
X95388861Y-70549229D01*
X95388851Y-70549241D01*
X95259698Y-70735663D01*
X95259695Y-70735669D01*
X95165899Y-70942167D01*
X95165898Y-70942170D01*
X95110483Y-71162087D01*
X95110482Y-71162093D01*
X95100000Y-71295280D01*
X95100000Y-72250000D01*
X96172769Y-72250000D01*
X96150000Y-72393753D01*
X96150000Y-72606247D01*
X96172769Y-72750000D01*
X95100000Y-72750000D01*
X95100000Y-73704719D01*
X95110482Y-73837906D01*
X95110483Y-73837912D01*
X95165898Y-74057829D01*
X95165899Y-74057832D01*
X95259695Y-74264330D01*
X95259698Y-74264336D01*
X95388851Y-74450758D01*
X95388861Y-74450770D01*
X95549229Y-74611138D01*
X95549241Y-74611148D01*
X95735663Y-74740301D01*
X95735669Y-74740304D01*
X95942167Y-74834100D01*
X95942170Y-74834101D01*
X96162087Y-74889516D01*
X96162093Y-74889517D01*
X96295280Y-74899999D01*
X96295294Y-74900000D01*
X97003067Y-74900000D01*
X97070106Y-74919685D01*
X97115861Y-74972489D01*
X97125805Y-75041647D01*
X97096780Y-75105203D01*
X97038002Y-75142977D01*
X97030663Y-75144890D01*
X97007691Y-75150133D01*
X96834405Y-75189684D01*
X96834397Y-75189687D01*
X96579917Y-75278734D01*
X96337005Y-75395714D01*
X96108712Y-75539161D01*
X95897915Y-75707265D01*
X95707265Y-75897915D01*
X95539161Y-76108712D01*
X95395714Y-76337005D01*
X95278734Y-76579917D01*
X95189687Y-76834397D01*
X95189684Y-76834405D01*
X95129688Y-77097268D01*
X95129686Y-77097280D01*
X95099500Y-77365186D01*
X92500500Y-77365186D01*
X92500500Y-68833713D01*
X156444500Y-68833713D01*
X156444500Y-69046287D01*
X156477754Y-69256243D01*
X156540547Y-69449500D01*
X156543444Y-69458414D01*
X156639951Y-69647820D01*
X156764890Y-69819786D01*
X156915213Y-69970109D01*
X157087182Y-70095050D01*
X157095946Y-70099516D01*
X157146742Y-70147491D01*
X157163536Y-70215312D01*
X157140998Y-70281447D01*
X157095946Y-70320484D01*
X157087182Y-70324949D01*
X156915213Y-70449890D01*
X156764890Y-70600213D01*
X156639951Y-70772179D01*
X156543444Y-70961585D01*
X156477753Y-71163760D01*
X156444500Y-71373713D01*
X156444500Y-71586286D01*
X156477152Y-71792446D01*
X156477754Y-71796243D01*
X156537629Y-71980519D01*
X156543444Y-71998414D01*
X156639951Y-72187820D01*
X156764890Y-72359786D01*
X156915213Y-72510109D01*
X157087182Y-72635050D01*
X157095946Y-72639516D01*
X157146742Y-72687491D01*
X157163536Y-72755312D01*
X157140998Y-72821447D01*
X157095946Y-72860484D01*
X157087182Y-72864949D01*
X156915213Y-72989890D01*
X156764890Y-73140213D01*
X156639951Y-73312179D01*
X156543444Y-73501585D01*
X156477753Y-73703760D01*
X156459856Y-73816758D01*
X156444500Y-73913713D01*
X156444500Y-74126287D01*
X156477754Y-74336243D01*
X156514966Y-74450770D01*
X156543444Y-74538414D01*
X156639951Y-74727820D01*
X156764890Y-74899786D01*
X156878430Y-75013326D01*
X156911915Y-75074649D01*
X156906931Y-75144341D01*
X156865059Y-75200274D01*
X156834083Y-75217189D01*
X156702669Y-75266203D01*
X156702664Y-75266206D01*
X156587455Y-75352452D01*
X156587452Y-75352455D01*
X156501206Y-75467664D01*
X156501202Y-75467671D01*
X156450908Y-75602517D01*
X156444501Y-75662116D01*
X156444501Y-75662123D01*
X156444500Y-75662135D01*
X156444500Y-77457870D01*
X156444501Y-77457876D01*
X156450908Y-77517483D01*
X156501202Y-77652328D01*
X156501206Y-77652335D01*
X156587452Y-77767544D01*
X156587455Y-77767547D01*
X156702664Y-77853793D01*
X156702671Y-77853797D01*
X156837517Y-77904091D01*
X156837516Y-77904091D01*
X156844444Y-77904835D01*
X156897127Y-77910500D01*
X158692872Y-77910499D01*
X158752483Y-77904091D01*
X158887331Y-77853796D01*
X159002546Y-77767546D01*
X159088796Y-77652331D01*
X159139091Y-77517483D01*
X159145500Y-77457873D01*
X159145499Y-75662128D01*
X159139091Y-75602517D01*
X159088796Y-75467669D01*
X159088795Y-75467668D01*
X159088793Y-75467664D01*
X159002547Y-75352455D01*
X159002544Y-75352452D01*
X158887335Y-75266206D01*
X158887328Y-75266202D01*
X158755917Y-75217189D01*
X158699983Y-75175318D01*
X158675566Y-75109853D01*
X158690418Y-75041580D01*
X158711563Y-75013332D01*
X158825104Y-74899792D01*
X158950051Y-74727816D01*
X159046557Y-74538412D01*
X159112246Y-74336243D01*
X159145500Y-74126287D01*
X159145500Y-73913713D01*
X159112246Y-73703757D01*
X159046557Y-73501588D01*
X158950051Y-73312184D01*
X158950049Y-73312181D01*
X158950048Y-73312179D01*
X158825109Y-73140213D01*
X158674786Y-72989890D01*
X158502820Y-72864951D01*
X158502115Y-72864591D01*
X158494054Y-72860485D01*
X158443259Y-72812512D01*
X158426463Y-72744692D01*
X158448999Y-72678556D01*
X158494054Y-72639515D01*
X158502816Y-72635051D01*
X158542462Y-72606247D01*
X158674786Y-72510109D01*
X158674788Y-72510106D01*
X158674792Y-72510104D01*
X158825104Y-72359792D01*
X158825106Y-72359788D01*
X158825109Y-72359786D01*
X158950048Y-72187820D01*
X158950047Y-72187820D01*
X158950051Y-72187816D01*
X159046557Y-71998412D01*
X159112246Y-71796243D01*
X159145500Y-71586287D01*
X159145500Y-71373713D01*
X159112246Y-71163757D01*
X159046557Y-70961588D01*
X158950051Y-70772184D01*
X158950049Y-70772181D01*
X158950048Y-70772179D01*
X158825109Y-70600213D01*
X158674786Y-70449890D01*
X158502820Y-70324951D01*
X158502115Y-70324591D01*
X158494054Y-70320485D01*
X158443259Y-70272512D01*
X158426463Y-70204692D01*
X158448999Y-70138556D01*
X158494054Y-70099515D01*
X158502816Y-70095051D01*
X158524789Y-70079086D01*
X158674786Y-69970109D01*
X158674788Y-69970106D01*
X158674792Y-69970104D01*
X158825104Y-69819792D01*
X158825106Y-69819788D01*
X158825109Y-69819786D01*
X158950048Y-69647820D01*
X158950047Y-69647820D01*
X158950051Y-69647816D01*
X159046557Y-69458412D01*
X159112246Y-69256243D01*
X159145500Y-69046287D01*
X159145500Y-68833713D01*
X159112246Y-68623757D01*
X159046557Y-68421588D01*
X158950051Y-68232184D01*
X158950049Y-68232181D01*
X158950048Y-68232179D01*
X158825109Y-68060213D01*
X158674786Y-67909890D01*
X158502820Y-67784951D01*
X158313414Y-67688444D01*
X158313413Y-67688443D01*
X158313412Y-67688443D01*
X158111243Y-67622754D01*
X158111241Y-67622753D01*
X158111240Y-67622753D01*
X157949957Y-67597208D01*
X157901287Y-67589500D01*
X157688713Y-67589500D01*
X157640042Y-67597208D01*
X157478760Y-67622753D01*
X157276585Y-67688444D01*
X157087179Y-67784951D01*
X156915213Y-67909890D01*
X156764890Y-68060213D01*
X156639951Y-68232179D01*
X156543444Y-68421585D01*
X156477753Y-68623760D01*
X156444500Y-68833713D01*
X92500500Y-68833713D01*
X92500500Y-65393713D01*
X94149500Y-65393713D01*
X94149500Y-65606286D01*
X94182753Y-65816239D01*
X94248444Y-66018414D01*
X94344951Y-66207820D01*
X94469890Y-66379786D01*
X94620213Y-66530109D01*
X94792179Y-66655048D01*
X94792181Y-66655049D01*
X94792184Y-66655051D01*
X94981588Y-66751557D01*
X95183757Y-66817246D01*
X95393713Y-66850500D01*
X95393714Y-66850500D01*
X95606286Y-66850500D01*
X95606287Y-66850500D01*
X95816243Y-66817246D01*
X96018412Y-66751557D01*
X96207816Y-66655051D01*
X96229789Y-66639086D01*
X96379786Y-66530109D01*
X96379788Y-66530106D01*
X96379792Y-66530104D01*
X96530104Y-66379792D01*
X96530106Y-66379788D01*
X96530109Y-66379786D01*
X96655048Y-66207820D01*
X96655047Y-66207820D01*
X96655051Y-66207816D01*
X96751557Y-66018412D01*
X96817246Y-65816243D01*
X96850500Y-65606287D01*
X96850500Y-65393713D01*
X96817246Y-65183757D01*
X96751557Y-64981588D01*
X96655051Y-64792184D01*
X96655049Y-64792181D01*
X96655048Y-64792179D01*
X96530109Y-64620213D01*
X96379786Y-64469890D01*
X96274936Y-64393713D01*
X156649500Y-64393713D01*
X156649500Y-64606286D01*
X156682753Y-64816239D01*
X156748444Y-65018414D01*
X156844951Y-65207820D01*
X156969890Y-65379786D01*
X157120213Y-65530109D01*
X157292179Y-65655048D01*
X157292181Y-65655049D01*
X157292184Y-65655051D01*
X157481588Y-65751557D01*
X157683757Y-65817246D01*
X157893713Y-65850500D01*
X157893714Y-65850500D01*
X158106286Y-65850500D01*
X158106287Y-65850500D01*
X158316243Y-65817246D01*
X158518412Y-65751557D01*
X158707816Y-65655051D01*
X158729789Y-65639086D01*
X158879786Y-65530109D01*
X158879788Y-65530106D01*
X158879792Y-65530104D01*
X159030104Y-65379792D01*
X159030106Y-65379788D01*
X159030109Y-65379786D01*
X159155048Y-65207820D01*
X159155047Y-65207820D01*
X159155051Y-65207816D01*
X159251557Y-65018412D01*
X159317246Y-64816243D01*
X159350500Y-64606287D01*
X159350500Y-64393713D01*
X159317246Y-64183757D01*
X159251557Y-63981588D01*
X159155051Y-63792184D01*
X159155049Y-63792181D01*
X159155048Y-63792179D01*
X159030109Y-63620213D01*
X158879786Y-63469890D01*
X158707820Y-63344951D01*
X158518414Y-63248444D01*
X158518413Y-63248443D01*
X158518412Y-63248443D01*
X158316243Y-63182754D01*
X158316241Y-63182753D01*
X158316240Y-63182753D01*
X158154957Y-63157208D01*
X158106287Y-63149500D01*
X157893713Y-63149500D01*
X157845042Y-63157208D01*
X157683760Y-63182753D01*
X157481585Y-63248444D01*
X157292179Y-63344951D01*
X157120213Y-63469890D01*
X156969890Y-63620213D01*
X156844951Y-63792179D01*
X156748444Y-63981585D01*
X156682753Y-64183760D01*
X156649500Y-64393713D01*
X96274936Y-64393713D01*
X96207820Y-64344951D01*
X96018414Y-64248444D01*
X96018413Y-64248443D01*
X96018412Y-64248443D01*
X95816243Y-64182754D01*
X95816241Y-64182753D01*
X95816240Y-64182753D01*
X95654957Y-64157208D01*
X95606287Y-64149500D01*
X95393713Y-64149500D01*
X95345042Y-64157208D01*
X95183760Y-64182753D01*
X94981585Y-64248444D01*
X94792179Y-64344951D01*
X94620213Y-64469890D01*
X94469890Y-64620213D01*
X94344951Y-64792179D01*
X94248444Y-64981585D01*
X94182753Y-65183760D01*
X94149500Y-65393713D01*
X92500500Y-65393713D01*
X92500500Y-62624500D01*
X92520185Y-62557461D01*
X92572989Y-62511706D01*
X92624500Y-62500500D01*
X160125500Y-62500500D01*
X160192539Y-62520185D01*
G37*
%TD.AperFunction*%
%TD*%
M02*
