%TF.GenerationSoftware,KiCad,Pcbnew,10.0.3*%
%TF.CreationDate,2026-05-23T00:42:29-04:00*%
%TF.ProjectId,float_pcb,666c6f61-745f-4706-9362-2e6b69636164,rev?*%
%TF.SameCoordinates,Original*%
%TF.FileFunction,Paste,Top*%
%TF.FilePolarity,Positive*%
%FSLAX46Y46*%
G04 Gerber Fmt 4.6, Leading zero omitted, Abs format (unit mm)*
G04 Created by KiCad (PCBNEW 10.0.3) date 2026-05-23 00:42:29*
%MOMM*%
%LPD*%
G01*
G04 APERTURE LIST*
G04 Aperture macros list*
%AMRoundRect*
0 Rectangle with rounded corners*
0 $1 Rounding radius*
0 $2 $3 $4 $5 $6 $7 $8 $9 X,Y pos of 4 corners*
0 Add a 4 corners polygon primitive as box body*
4,1,4,$2,$3,$4,$5,$6,$7,$8,$9,$2,$3,0*
0 Add four circle primitives for the rounded corners*
1,1,$1+$1,$2,$3*
1,1,$1+$1,$4,$5*
1,1,$1+$1,$6,$7*
1,1,$1+$1,$8,$9*
0 Add four rect primitives between the rounded corners*
20,1,$1+$1,$2,$3,$4,$5,0*
20,1,$1+$1,$4,$5,$6,$7,0*
20,1,$1+$1,$6,$7,$8,$9,0*
20,1,$1+$1,$8,$9,$2,$3,0*%
%AMOutline5P*
0 Free polygon, 5 corners , with rotation*
0 The origin of the aperture is its center*
0 number of corners: always 5*
0 $1 to $10 corner X, Y*
0 $11 Rotation angle, in degrees counterclockwise*
0 create outline with 5 corners*
4,1,5,$1,$2,$3,$4,$5,$6,$7,$8,$9,$10,$1,$2,$11*%
%AMOutline6P*
0 Free polygon, 6 corners , with rotation*
0 The origin of the aperture is its center*
0 number of corners: always 6*
0 $1 to $12 corner X, Y*
0 $13 Rotation angle, in degrees counterclockwise*
0 create outline with 6 corners*
4,1,6,$1,$2,$3,$4,$5,$6,$7,$8,$9,$10,$11,$12,$1,$2,$13*%
%AMOutline7P*
0 Free polygon, 7 corners , with rotation*
0 The origin of the aperture is its center*
0 number of corners: always 7*
0 $1 to $14 corner X, Y*
0 $15 Rotation angle, in degrees counterclockwise*
0 create outline with 7 corners*
4,1,7,$1,$2,$3,$4,$5,$6,$7,$8,$9,$10,$11,$12,$13,$14,$1,$2,$15*%
%AMOutline8P*
0 Free polygon, 8 corners , with rotation*
0 The origin of the aperture is its center*
0 number of corners: always 8*
0 $1 to $16 corner X, Y*
0 $17 Rotation angle, in degrees counterclockwise*
0 create outline with 8 corners*
4,1,8,$1,$2,$3,$4,$5,$6,$7,$8,$9,$10,$11,$12,$13,$14,$15,$16,$1,$2,$17*%
%AMFreePoly0*
4,1,52,-0.218366,0.683694,-0.202145,0.672855,-0.191306,0.656634,-0.187500,0.637500,-0.187500,0.287500,0.062500,0.287500,0.062500,0.637500,0.066306,0.656634,0.077145,0.672855,0.093366,0.683694,0.112500,0.687500,0.262500,0.687500,0.281634,0.683694,0.297855,0.672855,0.308694,0.656634,0.312500,0.637500,0.312500,0.287500,0.487500,0.287500,0.506634,0.283694,0.522855,0.272855,
0.533694,0.256634,0.537500,0.237500,0.537500,-0.237500,0.533694,-0.256634,0.522855,-0.272855,0.506634,-0.283694,0.487500,-0.287500,0.259500,-0.287500,-0.117500,-0.664500,-0.117500,-0.807500,-0.121306,-0.826634,-0.132145,-0.842855,-0.148366,-0.853694,-0.167500,-0.857500,-0.487500,-0.857500,-0.506634,-0.853694,-0.522855,-0.842855,-0.533694,-0.826634,-0.537500,-0.807500,-0.537500,0.237500,
-0.533694,0.256634,-0.522855,0.272855,-0.506634,0.283694,-0.487500,0.287500,-0.437500,0.287500,-0.437500,0.637500,-0.433694,0.656634,-0.422855,0.672855,-0.406634,0.683694,-0.387500,0.687500,-0.237500,0.687500,-0.218366,0.683694,-0.218366,0.683694,$1*%
%AMFreePoly1*
4,1,69,0.446320,1.093381,0.474531,1.074531,0.493381,1.046320,0.499999,1.013042,0.500000,-1.013043,0.493381,-1.046320,0.474531,-1.074531,0.446320,-1.093381,0.413042,-1.099999,-0.413043,-1.100000,-0.446320,-1.093381,-0.474531,-1.074531,-0.493381,-1.046320,-0.499999,-1.013042,-0.499999,-0.865000,-0.850001,-0.865000,-0.869135,-0.861194,-0.885356,-0.850355,-0.896195,-0.834134,-0.900001,-0.815000,
-0.900001,-0.665000,-0.896195,-0.645866,-0.885356,-0.629645,-0.869135,-0.618806,-0.850001,-0.615000,-0.499999,-0.615000,-0.499999,-0.365000,-0.850001,-0.365000,-0.869135,-0.361194,-0.885356,-0.350355,-0.896195,-0.334134,-0.900001,-0.315000,-0.900001,-0.165000,-0.896195,-0.145866,-0.885356,-0.129645,-0.869135,-0.118806,-0.850001,-0.115000,-0.499999,-0.115000,-0.500000,0.135000,-0.850000,0.135000,
-0.869134,0.138806,-0.885355,0.149645,-0.896194,0.165866,-0.900000,0.185000,-0.900000,0.335000,-0.896194,0.354134,-0.885355,0.370355,-0.869134,0.381194,-0.850000,0.385000,-0.500000,0.385000,-0.500000,0.635000,-0.850000,0.635000,-0.869134,0.638806,-0.885355,0.649645,-0.896194,0.665866,-0.900000,0.685000,-0.900000,0.835000,-0.896194,0.854134,-0.885355,0.870355,-0.869134,0.881194,
-0.850000,0.885000,-0.500000,0.885000,-0.500000,1.013043,-0.493381,1.046320,-0.474531,1.074531,-0.446320,1.093381,-0.413042,1.099999,0.413043,1.100000,0.446320,1.093381,0.446320,1.093381,$1*%
%AMFreePoly2*
4,1,69,0.413042,1.099999,0.446320,1.093381,0.474531,1.074531,0.493381,1.046320,0.500000,1.013043,0.500000,0.885000,0.850000,0.885000,0.869134,0.881194,0.885355,0.870355,0.896194,0.854134,0.900000,0.835000,0.900000,0.685000,0.896194,0.665866,0.885355,0.649645,0.869134,0.638806,0.850000,0.635000,0.500000,0.635000,0.500000,0.385000,0.850000,0.385000,0.869134,0.381194,
0.885355,0.370355,0.896194,0.354134,0.900000,0.335000,0.900000,0.185000,0.896194,0.165866,0.885355,0.149645,0.869134,0.138806,0.850000,0.135000,0.500000,0.135000,0.499999,-0.115000,0.850000,-0.115000,0.869134,-0.118806,0.885355,-0.129645,0.896194,-0.145866,0.900000,-0.165000,0.900000,-0.315000,0.896194,-0.334134,0.885355,-0.350355,0.869134,-0.361194,0.850000,-0.365000,
0.499999,-0.365000,0.499999,-0.615000,0.850000,-0.615000,0.869134,-0.618806,0.885355,-0.629645,0.896194,-0.645866,0.900000,-0.665000,0.900000,-0.815000,0.896194,-0.834134,0.885355,-0.850355,0.869134,-0.861194,0.850000,-0.865000,0.499999,-0.865000,0.499999,-1.013042,0.493381,-1.046320,0.474531,-1.074531,0.446320,-1.093381,0.413043,-1.100000,-0.413042,-1.099999,-0.446320,-1.093381,
-0.474531,-1.074531,-0.493381,-1.046320,-0.500000,-1.013043,-0.499999,1.013042,-0.493381,1.046320,-0.474531,1.074531,-0.446320,1.093381,-0.413043,1.100000,0.413042,1.099999,0.413042,1.099999,$1*%
%AMFreePoly3*
4,1,52,-0.093366,0.683694,-0.077145,0.672855,-0.066306,0.656634,-0.062500,0.637500,-0.062500,0.287500,0.187500,0.287500,0.187500,0.637500,0.191306,0.656634,0.202145,0.672855,0.218366,0.683694,0.237500,0.687500,0.387500,0.687500,0.406634,0.683694,0.422855,0.672855,0.433694,0.656634,0.437500,0.637500,0.437500,0.287500,0.487500,0.287500,0.506634,0.283694,0.522855,0.272855,
0.533694,0.256634,0.537500,0.237500,0.537500,-0.807500,0.533694,-0.826634,0.522855,-0.842855,0.506634,-0.853694,0.487500,-0.857500,0.167500,-0.857500,0.148366,-0.853694,0.132145,-0.842855,0.121306,-0.826634,0.117500,-0.807500,0.117500,-0.664500,-0.259500,-0.287500,-0.487500,-0.287500,-0.506634,-0.283694,-0.522855,-0.272855,-0.533694,-0.256634,-0.537500,-0.237500,-0.537500,0.237500,
-0.533694,0.256634,-0.522855,0.272855,-0.506634,0.283694,-0.487500,0.287500,-0.312500,0.287500,-0.312500,0.637500,-0.308694,0.656634,-0.297855,0.672855,-0.281634,0.683694,-0.262500,0.687500,-0.112500,0.687500,-0.093366,0.683694,-0.093366,0.683694,$1*%
G04 Aperture macros list end*
%ADD10RoundRect,0.250000X0.250000X0.475000X-0.250000X0.475000X-0.250000X-0.475000X0.250000X-0.475000X0*%
%ADD11RoundRect,0.250000X-0.475000X0.250000X-0.475000X-0.250000X0.475000X-0.250000X0.475000X0.250000X0*%
%ADD12RoundRect,0.250000X-0.450000X0.262500X-0.450000X-0.262500X0.450000X-0.262500X0.450000X0.262500X0*%
%ADD13RoundRect,0.150000X0.587500X0.150000X-0.587500X0.150000X-0.587500X-0.150000X0.587500X-0.150000X0*%
%ADD14RoundRect,0.250000X0.475000X-0.250000X0.475000X0.250000X-0.475000X0.250000X-0.475000X-0.250000X0*%
%ADD15RoundRect,0.243750X-0.456250X0.243750X-0.456250X-0.243750X0.456250X-0.243750X0.456250X0.243750X0*%
%ADD16RoundRect,0.250000X0.450000X-0.262500X0.450000X0.262500X-0.450000X0.262500X-0.450000X-0.262500X0*%
%ADD17RoundRect,0.250000X-0.262500X-0.450000X0.262500X-0.450000X0.262500X0.450000X-0.262500X0.450000X0*%
%ADD18FreePoly0,90.000000*%
%ADD19FreePoly1,0.000000*%
%ADD20FreePoly2,0.000000*%
%ADD21FreePoly3,270.000000*%
%ADD22RoundRect,0.050000X-0.060000X-0.250000X0.060000X-0.250000X0.060000X0.250000X-0.060000X0.250000X0*%
%ADD23R,1.700000X1.000000*%
%ADD24RoundRect,0.150000X0.302462X-0.150000X0.302462X0.150000X-0.302462X0.150000X-0.302462X-0.150000X0*%
%ADD25RoundRect,0.150000X0.302499X-0.150000X0.302499X0.150000X-0.302499X0.150000X-0.302499X-0.150000X0*%
%ADD26RoundRect,0.075000X0.500000X-0.075000X0.500000X0.075000X-0.500000X0.075000X-0.500000X-0.075000X0*%
%ADD27RoundRect,0.150000X0.302500X-0.150000X0.302500X0.150000X-0.302500X0.150000X-0.302500X-0.150000X0*%
%ADD28RoundRect,0.150000X0.302497X-0.150000X0.302497X0.150000X-0.302497X0.150000X-0.302497X-0.150000X0*%
%ADD29RoundRect,0.150000X0.302498X-0.150000X0.302498X0.150000X-0.302498X0.150000X-0.302498X-0.150000X0*%
%ADD30O,2.100000X1.000000*%
%ADD31O,1.800000X1.000000*%
%ADD32RoundRect,0.150000X0.700000X-0.150000X0.700000X0.150000X-0.700000X0.150000X-0.700000X-0.150000X0*%
%ADD33RoundRect,0.250000X1.150000X-0.250000X1.150000X0.250000X-1.150000X0.250000X-1.150000X-0.250000X0*%
%ADD34R,0.800000X0.400000*%
%ADD35R,0.400000X0.800000*%
%ADD36Outline5P,-0.600000X0.204000X-0.204000X0.600000X0.600000X0.600000X0.600000X-0.600000X-0.600000X-0.600000X0.000000*%
%ADD37R,1.200000X1.200000*%
%ADD38R,0.800000X0.800000*%
%ADD39RoundRect,0.243750X0.456250X-0.243750X0.456250X0.243750X-0.456250X0.243750X-0.456250X-0.243750X0*%
G04 APERTURE END LIST*
D10*
%TO.C,C14*%
X135050000Y-71250000D03*
X136950000Y-71250000D03*
%TD*%
D11*
%TO.C,C7*%
X116000000Y-95950000D03*
X116000000Y-94050000D03*
%TD*%
D12*
%TO.C,R6*%
X121137500Y-95600000D03*
X121137500Y-93775000D03*
%TD*%
D13*
%TO.C,Q1*%
X141187500Y-86950000D03*
X141187500Y-85050000D03*
X139312500Y-86000000D03*
%TD*%
D14*
%TO.C,C4*%
X120500000Y-89700000D03*
X120500000Y-87800000D03*
%TD*%
D15*
%TO.C,D3*%
X146000000Y-90562500D03*
X146000000Y-92437500D03*
%TD*%
D16*
%TO.C,R16*%
X146000000Y-96662500D03*
X146000000Y-94837500D03*
%TD*%
D14*
%TO.C,C2*%
X100500000Y-85700000D03*
X100500000Y-83800000D03*
%TD*%
D17*
%TO.C,R11*%
X147837500Y-83500000D03*
X149662500Y-83500000D03*
%TD*%
D11*
%TO.C,C3*%
X110500000Y-88050000D03*
X110500000Y-89950000D03*
%TD*%
D12*
%TO.C,R7*%
X121137500Y-98775000D03*
X121137500Y-100600000D03*
%TD*%
D14*
%TO.C,C5*%
X130500000Y-89450000D03*
X130500000Y-87550000D03*
%TD*%
D18*
%TO.C,U2*%
X129887500Y-96262500D03*
D19*
X130100000Y-98250000D03*
D20*
X132000000Y-98250000D03*
D21*
X132212500Y-96262500D03*
D22*
X131550000Y-95675000D03*
X131050000Y-95675000D03*
X130550000Y-95675000D03*
%TD*%
D10*
%TO.C,C13*%
X135050000Y-66750000D03*
X136950000Y-66750000D03*
%TD*%
D11*
%TO.C,C12*%
X132250000Y-73300000D03*
X132250000Y-75200000D03*
%TD*%
D16*
%TO.C,R3*%
X105250000Y-83412500D03*
X105250000Y-81587500D03*
%TD*%
%TO.C,R8*%
X141000000Y-97912500D03*
X141000000Y-96087500D03*
%TD*%
D23*
%TO.C,BOOT1*%
X122750000Y-69300000D03*
X116450000Y-69300000D03*
X122750000Y-65500000D03*
X116450000Y-65500000D03*
%TD*%
D11*
%TO.C,C6*%
X111000000Y-96000000D03*
X111000000Y-97900000D03*
%TD*%
D17*
%TO.C,R12*%
X127587500Y-74500000D03*
X129412500Y-74500000D03*
%TD*%
D12*
%TO.C,R13*%
X132000000Y-82587500D03*
X132000000Y-84412500D03*
%TD*%
D16*
%TO.C,R2*%
X105250000Y-88162500D03*
X105250000Y-86337500D03*
%TD*%
D11*
%TO.C,C10*%
X141000000Y-99800000D03*
X141000000Y-101700000D03*
%TD*%
D16*
%TO.C,R14*%
X105862500Y-93925000D03*
X105862500Y-92100000D03*
%TD*%
%TO.C,R4*%
X125500000Y-91912500D03*
X125500000Y-90087500D03*
%TD*%
D14*
%TO.C,C1*%
X95500000Y-85700000D03*
X95500000Y-83800000D03*
%TD*%
D12*
%TO.C,R1*%
X132000000Y-78337500D03*
X132000000Y-80162500D03*
%TD*%
D24*
%TO.C,J3*%
X153197538Y-89699968D03*
D25*
X153197524Y-88900394D03*
D26*
X153320000Y-87750000D03*
X153320000Y-86750000D03*
X153320000Y-86250000D03*
X153320000Y-85250000D03*
D27*
X153197500Y-84100000D03*
D28*
X153197503Y-83300000D03*
D29*
X153197502Y-83300000D03*
D25*
X153197501Y-84100000D03*
D26*
X153320000Y-84750000D03*
X153320000Y-85750000D03*
X153320000Y-87250000D03*
X153320000Y-88250000D03*
D27*
X153197500Y-88900000D03*
D29*
X153197502Y-89699999D03*
D30*
X153895000Y-90820000D03*
D31*
X158075000Y-90820000D03*
D30*
X153895000Y-82180000D03*
D31*
X158075000Y-82180000D03*
%TD*%
D16*
%TO.C,R9*%
X140862500Y-93975000D03*
X140862500Y-92150000D03*
%TD*%
%TO.C,R15*%
X135500000Y-92912500D03*
X135500000Y-91087500D03*
%TD*%
D15*
%TO.C,D2*%
X135500000Y-87062500D03*
X135500000Y-88937500D03*
%TD*%
D18*
%TO.C,U1*%
X114425000Y-87750000D03*
D19*
X114637500Y-89737500D03*
D20*
X116537500Y-89737500D03*
D21*
X116750000Y-87750000D03*
D22*
X116087500Y-87162500D03*
X115587500Y-87162500D03*
X115087500Y-87162500D03*
%TD*%
D11*
%TO.C,C8*%
X125000000Y-96300000D03*
X125000000Y-98200000D03*
%TD*%
D32*
%TO.C,J5*%
X125700000Y-81600000D03*
X125700000Y-80350000D03*
X125700000Y-79100000D03*
X125700000Y-77850000D03*
D33*
X122350000Y-83450000D03*
X122350000Y-76000000D03*
%TD*%
D17*
%TO.C,R10*%
X147837500Y-88500000D03*
X149662500Y-88500000D03*
%TD*%
D34*
%TO.C,U3*%
X139500000Y-65700000D03*
X139500000Y-66550000D03*
X139500000Y-67400000D03*
X139500000Y-68250000D03*
X139500000Y-69100000D03*
X139500000Y-69950000D03*
X139500000Y-70800000D03*
X139500000Y-71650000D03*
X139500000Y-72500000D03*
X139500000Y-73350000D03*
X139500000Y-74200000D03*
X139500000Y-75050000D03*
X139500000Y-75900000D03*
X139500000Y-76750000D03*
X139500000Y-77600000D03*
D35*
X140550000Y-78650000D03*
X141400000Y-78650000D03*
X142250000Y-78650000D03*
X143100000Y-78650000D03*
X143950000Y-78650000D03*
X144800000Y-78650000D03*
X145650000Y-78650000D03*
X146500000Y-78650000D03*
X147350000Y-78650000D03*
X148200000Y-78650000D03*
X149050000Y-78650000D03*
X149900000Y-78650000D03*
X150750000Y-78650000D03*
X151600000Y-78650000D03*
X152450000Y-78650000D03*
D34*
X153500000Y-77600000D03*
X153500000Y-76750000D03*
X153500000Y-75900000D03*
X153500000Y-75050000D03*
X153500000Y-74200000D03*
X153500000Y-73350000D03*
X153500000Y-72500000D03*
X153500000Y-71650000D03*
X153500000Y-70800000D03*
X153500000Y-69950000D03*
X153500000Y-69100000D03*
X153500000Y-68250000D03*
X153500000Y-67400000D03*
X153500000Y-66550000D03*
X153500000Y-65700000D03*
D35*
X152450000Y-64650000D03*
X151600000Y-64650000D03*
X150750000Y-64650000D03*
X149900000Y-64650000D03*
X149050000Y-64650000D03*
X148200000Y-64650000D03*
X147350000Y-64650000D03*
X146500000Y-64650000D03*
X145650000Y-64650000D03*
X144800000Y-64650000D03*
X143950000Y-64650000D03*
X143100000Y-64650000D03*
X142250000Y-64650000D03*
X141400000Y-64650000D03*
X140550000Y-64650000D03*
D36*
X144850000Y-70000000D03*
D37*
X144850000Y-71650000D03*
X144850000Y-73300000D03*
X146500000Y-70000000D03*
X146500000Y-71650000D03*
X146500000Y-73300000D03*
X148150000Y-70000000D03*
X148150000Y-71650000D03*
X148150000Y-73300000D03*
D38*
X139500000Y-64650000D03*
X139500000Y-78650000D03*
X153500000Y-78650000D03*
X153500000Y-64650000D03*
%TD*%
D16*
%TO.C,R5*%
X125500000Y-87412500D03*
X125500000Y-85587500D03*
%TD*%
D14*
%TO.C,C9*%
X136000000Y-97975000D03*
X136000000Y-96075000D03*
%TD*%
D39*
%TO.C,D1*%
X105750000Y-100412500D03*
X105750000Y-98537500D03*
%TD*%
D23*
%TO.C,ENABLE1*%
X132250000Y-69400000D03*
X125950000Y-69400000D03*
X132250000Y-65600000D03*
X125950000Y-65600000D03*
%TD*%
D16*
%TO.C,R17*%
X144750000Y-86912500D03*
X144750000Y-85087500D03*
%TD*%
M02*
