%TF.GenerationSoftware,KiCad,Pcbnew,10.0.2*%
%TF.CreationDate,2026-06-05T21:48:06-04:00*%
%TF.ProjectId,float_pcb,666c6f61-745f-4706-9362-2e6b69636164,rev?*%
%TF.SameCoordinates,Original*%
%TF.FileFunction,Copper,L3,Inr*%
%TF.FilePolarity,Positive*%
%FSLAX46Y46*%
G04 Gerber Fmt 4.6, Leading zero omitted, Abs format (unit mm)*
G04 Created by KiCad (PCBNEW 10.0.2) date 2026-06-05 21:48:06*
%MOMM*%
%LPD*%
G01*
G04 APERTURE LIST*
G04 Aperture macros list*
%AMRoundRect*
0 Rectangle with rounded corners*
0 $1 Rounding radius*
0 $2 $3 $4 $5 $6 $7 $8 $9 X,Y pos of 4 corners*
0 Add a 4 corners polygon primitive as box body*
4,1,4,$2,$3,$4,$5,$6,$7,$8,$9,$2,$3,0*
0 Add four circle primitives for the rounded corners*
1,1,$1+$1,$2,$3*
1,1,$1+$1,$4,$5*
1,1,$1+$1,$6,$7*
1,1,$1+$1,$8,$9*
0 Add four rect primitives between the rounded corners*
20,1,$1+$1,$2,$3,$4,$5,0*
20,1,$1+$1,$4,$5,$6,$7,0*
20,1,$1+$1,$6,$7,$8,$9,0*
20,1,$1+$1,$8,$9,$2,$3,0*%
G04 Aperture macros list end*
%TA.AperFunction,ComponentPad*%
%ADD10RoundRect,0.250000X0.600000X0.750000X-0.600000X0.750000X-0.600000X-0.750000X0.600000X-0.750000X0*%
%TD*%
%TA.AperFunction,ComponentPad*%
%ADD11O,1.700000X2.000000*%
%TD*%
%TA.AperFunction,ComponentPad*%
%ADD12R,1.700000X1.700000*%
%TD*%
%TA.AperFunction,ComponentPad*%
%ADD13C,1.700000*%
%TD*%
%TA.AperFunction,ComponentPad*%
%ADD14RoundRect,0.760000X-1.140000X-1.140000X1.140000X-1.140000X1.140000X1.140000X-1.140000X1.140000X0*%
%TD*%
%TA.AperFunction,ComponentPad*%
%ADD15C,3.800000*%
%TD*%
%TA.AperFunction,HeatsinkPad*%
%ADD16C,0.600000*%
%TD*%
%TA.AperFunction,ComponentPad*%
%ADD17RoundRect,0.250000X0.550000X0.550000X-0.550000X0.550000X-0.550000X-0.550000X0.550000X-0.550000X0*%
%TD*%
%TA.AperFunction,ComponentPad*%
%ADD18C,1.600000*%
%TD*%
%TA.AperFunction,ComponentPad*%
%ADD19O,2.100000X1.000000*%
%TD*%
%TA.AperFunction,ComponentPad*%
%ADD20O,1.800000X1.000000*%
%TD*%
%TA.AperFunction,ComponentPad*%
%ADD21RoundRect,0.250000X0.600000X0.725000X-0.600000X0.725000X-0.600000X-0.725000X0.600000X-0.725000X0*%
%TD*%
%TA.AperFunction,ComponentPad*%
%ADD22O,1.700000X1.950000*%
%TD*%
%TA.AperFunction,ViaPad*%
%ADD23C,0.600000*%
%TD*%
G04 APERTURE END LIST*
D10*
%TO.N,+BATT*%
%TO.C,J2*%
X152000000Y-79750000D03*
D11*
%TO.N,Net-(J1-Pin_2)*%
X149500000Y-79750000D03*
%TD*%
D12*
%TO.N,MISC1*%
%TO.C,J7*%
X169500000Y-103000000D03*
D13*
%TO.N,MISC2*%
X169500000Y-105540000D03*
%TO.N,MISC3*%
X169500000Y-108080000D03*
%TO.N,MISC4*%
X169500000Y-110620000D03*
%TO.N,GND*%
X169500000Y-113160000D03*
%TD*%
D14*
%TO.N,GND*%
%TO.C,J1*%
X136750000Y-79500000D03*
D15*
%TO.N,Net-(J1-Pin_2)*%
X141750000Y-79500000D03*
%TD*%
D16*
%TO.N,GND*%
%TO.C,U1*%
X145600000Y-103610000D03*
X145600000Y-105010000D03*
X146300000Y-102910000D03*
X146300000Y-104310000D03*
X146300000Y-105710000D03*
X147000000Y-103610000D03*
X147000000Y-105010000D03*
X147700000Y-102910000D03*
X147700000Y-104310000D03*
X147700000Y-105710000D03*
X148400000Y-103610000D03*
X148400000Y-105010000D03*
%TD*%
D17*
%TO.N,Net-(J6-Pin_2)*%
%TO.C,C14*%
X163250000Y-96000000D03*
D18*
%TO.N,GND*%
X160750000Y-96000000D03*
%TD*%
D19*
%TO.N,GND*%
%TO.C,J3*%
X123355000Y-100680000D03*
D20*
X119175000Y-100680000D03*
D19*
X123355000Y-109320000D03*
D20*
X119175000Y-109320000D03*
%TD*%
D21*
%TO.N,GND*%
%TO.C,J6*%
X174000000Y-97500000D03*
D22*
%TO.N,Net-(J6-Pin_2)*%
X171500000Y-97500000D03*
%TO.N,SERVO*%
X169000000Y-97500000D03*
%TD*%
D21*
%TO.N,GND*%
%TO.C,J5*%
X160000000Y-130525000D03*
D22*
%TO.N,SDA2*%
X157500000Y-130525000D03*
%TO.N,SCL2*%
X155000000Y-130525000D03*
%TO.N,+3V3*%
X152500000Y-130525000D03*
%TD*%
D21*
%TO.N,GND*%
%TO.C,J4*%
X143500000Y-130500000D03*
D22*
%TO.N,SDA1*%
X141000000Y-130500000D03*
%TO.N,SCL1*%
X138500000Y-130500000D03*
%TO.N,+3V3*%
X136000000Y-130500000D03*
%TD*%
D10*
%TO.N,Net-(J8-Pin_1)*%
%TO.C,J8*%
X129500000Y-122750000D03*
D11*
%TO.N,+3V3*%
X127000000Y-122750000D03*
%TD*%
D23*
%TO.N,GND*%
X167000000Y-83250000D03*
X134000000Y-115250000D03*
X172750000Y-120250000D03*
X160750000Y-84250000D03*
X136250000Y-117750000D03*
X165500000Y-109750000D03*
X140500000Y-116750000D03*
X159750000Y-88750000D03*
X126500000Y-85750000D03*
X165250000Y-107250000D03*
X133250000Y-103750000D03*
X140500000Y-88500000D03*
X146000000Y-123500000D03*
X172500000Y-103500000D03*
X137000000Y-95250000D03*
X134000000Y-95250000D03*
X153250000Y-85250000D03*
X136500000Y-102250000D03*
X158500000Y-116750000D03*
X119000000Y-113500000D03*
X137500000Y-88750000D03*
X153250000Y-92500000D03*
X131250000Y-92500000D03*
X162750000Y-88500000D03*
X169750000Y-85000000D03*
X157500000Y-76500000D03*
X122500000Y-92500000D03*
X119000000Y-96500000D03*
X179000000Y-103500000D03*
X140000000Y-86000000D03*
X146500000Y-86000000D03*
X127000000Y-105000000D03*
X127500000Y-115250000D03*
X162500000Y-83250000D03*
X131250000Y-85250000D03*
%TO.N,BATT_SENSE*%
X160750000Y-82500000D03*
X138250000Y-100250000D03*
%TO.N,+3V3*%
X165000000Y-113000000D03*
X165000000Y-101500000D03*
X142500000Y-121500000D03*
X150000000Y-91750000D03*
X132750000Y-97750000D03*
X150000000Y-94250000D03*
X162000000Y-110000000D03*
X162000000Y-104500000D03*
X132250000Y-102250000D03*
X158000000Y-124000000D03*
X154500000Y-121500000D03*
X139000000Y-124000000D03*
X150500000Y-93000000D03*
%TO.N,Net-(U2-EN)*%
X127750000Y-88250000D03*
X135000000Y-87250000D03*
%TO.N,Net-(U3-EN)*%
X157500000Y-87250000D03*
X138000000Y-101750000D03*
%TO.N,Net-(U1-IO0)*%
X159500000Y-113000000D03*
X172500000Y-110500000D03*
%TO.N,MISC3*%
X165000000Y-111250000D03*
X166500000Y-109750000D03*
%TO.N,Net-(U1-EN)*%
X130750000Y-101000000D03*
X127500000Y-108750000D03*
%TO.N,MISC2*%
X166500000Y-104750000D03*
X165000000Y-103250000D03*
%TO.N,SDA1*%
X143000000Y-124000000D03*
X145549265Y-124299265D03*
%TO.N,SCL2*%
X151250000Y-124250000D03*
X154000000Y-124000000D03*
%TO.N,/USB_VBUS*%
X125500000Y-106750000D03*
X125500000Y-103250000D03*
%TD*%
%TA.AperFunction,Conductor*%
%TO.N,+3V3*%
G36*
X149064446Y-73505596D02*
G01*
X150183781Y-73545574D01*
X150188194Y-73545810D01*
X151305421Y-73625716D01*
X151309727Y-73626101D01*
X152423446Y-73745838D01*
X152427802Y-73746385D01*
X153536462Y-73905787D01*
X153540805Y-73906490D01*
X154643104Y-74105367D01*
X154647404Y-74106223D01*
X155741869Y-74344309D01*
X155746152Y-74345321D01*
X156831437Y-74622324D01*
X156835654Y-74623481D01*
X157867200Y-74926370D01*
X157910366Y-74939045D01*
X157914592Y-74940368D01*
X158977322Y-75294079D01*
X158981424Y-75295525D01*
X160030952Y-75686979D01*
X160034994Y-75688569D01*
X160762004Y-75989707D01*
X161069823Y-76117210D01*
X161073881Y-76118977D01*
X162092672Y-76584243D01*
X162096665Y-76586153D01*
X163098266Y-77087518D01*
X163102189Y-77089570D01*
X163139580Y-77109987D01*
X164085220Y-77626345D01*
X164089033Y-77628516D01*
X164543080Y-77897915D01*
X165052342Y-78200075D01*
X165056107Y-78202402D01*
X165998311Y-78807919D01*
X166001992Y-78810378D01*
X166203083Y-78949998D01*
X166922052Y-79449187D01*
X166925604Y-79451749D01*
X167666381Y-80006287D01*
X167822246Y-80122966D01*
X167825742Y-80125681D01*
X168697867Y-80828484D01*
X168701264Y-80831323D01*
X169547735Y-81564795D01*
X169551028Y-81567753D01*
X170370792Y-82330979D01*
X170373977Y-82334053D01*
X171165946Y-83126022D01*
X171169020Y-83129207D01*
X171932246Y-83948971D01*
X171935204Y-83952264D01*
X172668676Y-84798735D01*
X172671515Y-84802132D01*
X173374318Y-85674257D01*
X173377033Y-85677753D01*
X173559240Y-85921153D01*
X174030362Y-86550500D01*
X174048236Y-86574376D01*
X174050819Y-86577958D01*
X174163124Y-86739707D01*
X174689621Y-87498007D01*
X174692080Y-87501688D01*
X175297597Y-88443892D01*
X175299924Y-88447657D01*
X175871473Y-89410949D01*
X175873663Y-89414796D01*
X176410429Y-90397810D01*
X176412481Y-90401733D01*
X176913846Y-91403334D01*
X176915756Y-91407327D01*
X177381022Y-92426118D01*
X177382789Y-92430176D01*
X177811414Y-93464966D01*
X177813031Y-93469076D01*
X178161287Y-94402786D01*
X178204461Y-94518539D01*
X178205933Y-94522714D01*
X178559631Y-95585409D01*
X178560954Y-95589633D01*
X178876511Y-96664319D01*
X178877682Y-96668588D01*
X179154675Y-97753835D01*
X179155693Y-97758143D01*
X179393772Y-98852575D01*
X179394636Y-98856916D01*
X179593506Y-99959181D01*
X179594214Y-99963551D01*
X179753611Y-101072179D01*
X179754163Y-101076571D01*
X179873893Y-102190221D01*
X179874287Y-102194630D01*
X179934824Y-103041054D01*
X179919972Y-103109327D01*
X179870567Y-103158732D01*
X179802294Y-103173584D01*
X179736830Y-103149167D01*
X179708038Y-103118791D01*
X179621789Y-102989711D01*
X179621786Y-102989707D01*
X179510292Y-102878213D01*
X179510288Y-102878210D01*
X179379185Y-102790609D01*
X179379172Y-102790602D01*
X179233501Y-102730264D01*
X179233489Y-102730261D01*
X179078845Y-102699500D01*
X179078842Y-102699500D01*
X178921158Y-102699500D01*
X178921155Y-102699500D01*
X178766510Y-102730261D01*
X178766498Y-102730264D01*
X178620827Y-102790602D01*
X178620814Y-102790609D01*
X178489711Y-102878210D01*
X178489707Y-102878213D01*
X178378213Y-102989707D01*
X178378210Y-102989711D01*
X178290609Y-103120814D01*
X178290602Y-103120827D01*
X178230264Y-103266498D01*
X178230261Y-103266510D01*
X178199500Y-103421153D01*
X178199500Y-103578846D01*
X178230261Y-103733489D01*
X178230264Y-103733501D01*
X178290602Y-103879172D01*
X178290609Y-103879185D01*
X178378210Y-104010288D01*
X178378213Y-104010292D01*
X178489707Y-104121786D01*
X178489711Y-104121789D01*
X178620814Y-104209390D01*
X178620827Y-104209397D01*
X178759089Y-104266666D01*
X178766503Y-104269737D01*
X178887440Y-104293793D01*
X178921153Y-104300499D01*
X178921156Y-104300500D01*
X178921158Y-104300500D01*
X179078844Y-104300500D01*
X179078845Y-104300499D01*
X179233497Y-104269737D01*
X179379179Y-104209394D01*
X179510289Y-104121789D01*
X179621789Y-104010289D01*
X179709394Y-103879179D01*
X179735349Y-103816517D01*
X179779187Y-103762116D01*
X179845481Y-103740050D01*
X179913181Y-103757328D01*
X179960792Y-103808465D01*
X179973830Y-103859545D01*
X179994403Y-104435553D01*
X179994482Y-104439979D01*
X179994482Y-105560020D01*
X179994403Y-105564446D01*
X179954425Y-106683778D01*
X179954188Y-106688198D01*
X179874287Y-107805369D01*
X179873893Y-107809778D01*
X179754163Y-108923428D01*
X179753611Y-108927820D01*
X179594214Y-110036448D01*
X179593506Y-110040818D01*
X179394636Y-111143083D01*
X179393772Y-111147424D01*
X179155693Y-112241856D01*
X179154675Y-112246164D01*
X178877682Y-113331411D01*
X178876511Y-113335680D01*
X178560954Y-114410366D01*
X178559631Y-114414590D01*
X178205933Y-115477285D01*
X178204461Y-115481460D01*
X177813035Y-116530914D01*
X177811414Y-116535033D01*
X177382789Y-117569823D01*
X177381022Y-117573881D01*
X176915756Y-118592672D01*
X176913846Y-118596665D01*
X176412481Y-119598266D01*
X176410429Y-119602189D01*
X175873663Y-120585203D01*
X175871473Y-120589050D01*
X175299924Y-121552342D01*
X175297597Y-121556107D01*
X174692080Y-122498311D01*
X174689621Y-122501992D01*
X174050825Y-123422033D01*
X174048236Y-123425623D01*
X173377033Y-124322246D01*
X173374318Y-124325742D01*
X172671515Y-125197867D01*
X172668676Y-125201264D01*
X171935204Y-126047735D01*
X171932246Y-126051028D01*
X171169020Y-126870792D01*
X171165946Y-126873977D01*
X170373977Y-127665946D01*
X170370792Y-127669020D01*
X169551028Y-128432246D01*
X169547735Y-128435204D01*
X168701264Y-129168676D01*
X168697867Y-129171515D01*
X167825742Y-129874318D01*
X167822246Y-129877033D01*
X166925623Y-130548236D01*
X166922033Y-130550825D01*
X166001992Y-131189621D01*
X165998311Y-131192080D01*
X165056107Y-131797597D01*
X165052342Y-131799924D01*
X164089050Y-132371473D01*
X164085203Y-132373663D01*
X163102189Y-132910429D01*
X163098266Y-132912481D01*
X162096665Y-133413846D01*
X162092672Y-133415756D01*
X161073881Y-133881022D01*
X161069823Y-133882789D01*
X160035033Y-134311414D01*
X160030914Y-134313035D01*
X158981460Y-134704461D01*
X158977285Y-134705933D01*
X157914590Y-135059631D01*
X157910366Y-135060954D01*
X156835680Y-135376511D01*
X156831411Y-135377682D01*
X155746164Y-135654675D01*
X155741856Y-135655693D01*
X154647424Y-135893772D01*
X154643083Y-135894636D01*
X153540818Y-136093506D01*
X153536448Y-136094214D01*
X152427820Y-136253611D01*
X152423428Y-136254163D01*
X151309778Y-136373893D01*
X151305369Y-136374287D01*
X150188198Y-136454188D01*
X150183778Y-136454425D01*
X149064447Y-136494403D01*
X149060021Y-136494482D01*
X147939979Y-136494482D01*
X147935553Y-136494403D01*
X146816221Y-136454425D01*
X146811801Y-136454188D01*
X145694630Y-136374287D01*
X145690221Y-136373893D01*
X144576571Y-136254163D01*
X144572179Y-136253611D01*
X143463551Y-136094214D01*
X143459181Y-136093506D01*
X142356916Y-135894636D01*
X142352575Y-135893772D01*
X141258143Y-135655693D01*
X141253835Y-135654675D01*
X140168588Y-135377682D01*
X140164319Y-135376511D01*
X139089633Y-135060954D01*
X139085409Y-135059631D01*
X138022714Y-134705933D01*
X138018539Y-134704461D01*
X136969085Y-134313035D01*
X136964976Y-134311417D01*
X136761658Y-134227201D01*
X135930176Y-133882789D01*
X135926118Y-133881022D01*
X134907327Y-133415756D01*
X134903334Y-133413846D01*
X133901733Y-132912481D01*
X133897810Y-132910429D01*
X132914796Y-132373663D01*
X132910949Y-132371473D01*
X131947657Y-131799924D01*
X131943892Y-131797597D01*
X131001688Y-131192080D01*
X130998007Y-131189621D01*
X130458152Y-130814793D01*
X130268828Y-130683343D01*
X130077958Y-130550819D01*
X130074376Y-130548236D01*
X129959799Y-130462465D01*
X129675979Y-130250000D01*
X134652970Y-130250000D01*
X135595854Y-130250000D01*
X135557370Y-130316657D01*
X135525000Y-130437465D01*
X135525000Y-130562535D01*
X135557370Y-130683343D01*
X135595854Y-130750000D01*
X134652970Y-130750000D01*
X134683242Y-130941127D01*
X134683242Y-130941130D01*
X134748904Y-131143217D01*
X134845379Y-131332557D01*
X134970272Y-131504459D01*
X134970276Y-131504464D01*
X135120535Y-131654723D01*
X135120540Y-131654727D01*
X135292442Y-131779620D01*
X135481782Y-131876095D01*
X135683871Y-131941757D01*
X135750000Y-131952231D01*
X135750000Y-130904145D01*
X135816657Y-130942630D01*
X135937465Y-130975000D01*
X136062535Y-130975000D01*
X136183343Y-130942630D01*
X136250000Y-130904145D01*
X136250000Y-131952230D01*
X136316126Y-131941757D01*
X136316129Y-131941757D01*
X136518217Y-131876095D01*
X136707557Y-131779620D01*
X136879459Y-131654727D01*
X136879464Y-131654723D01*
X137029721Y-131504466D01*
X137149371Y-131339781D01*
X137204701Y-131297115D01*
X137274314Y-131291136D01*
X137336110Y-131323741D01*
X137350008Y-131339781D01*
X137469890Y-131504785D01*
X137469894Y-131504790D01*
X137620213Y-131655109D01*
X137792179Y-131780048D01*
X137792181Y-131780049D01*
X137792184Y-131780051D01*
X137981588Y-131876557D01*
X138183757Y-131942246D01*
X138393713Y-131975500D01*
X138393714Y-131975500D01*
X138606286Y-131975500D01*
X138606287Y-131975500D01*
X138816243Y-131942246D01*
X139018412Y-131876557D01*
X139207816Y-131780051D01*
X139229789Y-131764086D01*
X139379786Y-131655109D01*
X139379788Y-131655106D01*
X139379792Y-131655104D01*
X139530104Y-131504792D01*
X139649683Y-131340204D01*
X139705011Y-131297540D01*
X139774624Y-131291561D01*
X139836420Y-131324166D01*
X139850313Y-131340199D01*
X139895793Y-131402797D01*
X139969896Y-131504792D01*
X140120213Y-131655109D01*
X140292179Y-131780048D01*
X140292181Y-131780049D01*
X140292184Y-131780051D01*
X140481588Y-131876557D01*
X140683757Y-131942246D01*
X140893713Y-131975500D01*
X140893714Y-131975500D01*
X141106286Y-131975500D01*
X141106287Y-131975500D01*
X141316243Y-131942246D01*
X141518412Y-131876557D01*
X141707816Y-131780051D01*
X141845374Y-131680110D01*
X141879784Y-131655110D01*
X141879784Y-131655109D01*
X141879792Y-131655104D01*
X142018604Y-131516291D01*
X142079923Y-131482809D01*
X142149615Y-131487793D01*
X142205549Y-131529664D01*
X142211821Y-131538878D01*
X142215185Y-131544333D01*
X142215186Y-131544334D01*
X142307288Y-131693656D01*
X142431344Y-131817712D01*
X142580666Y-131909814D01*
X142747203Y-131964999D01*
X142849991Y-131975500D01*
X144150008Y-131975499D01*
X144252797Y-131964999D01*
X144419334Y-131909814D01*
X144568656Y-131817712D01*
X144692712Y-131693656D01*
X144784814Y-131544334D01*
X144839999Y-131377797D01*
X144850500Y-131275009D01*
X144850499Y-130275000D01*
X151152970Y-130275000D01*
X152095854Y-130275000D01*
X152057370Y-130341657D01*
X152025000Y-130462465D01*
X152025000Y-130587535D01*
X152057370Y-130708343D01*
X152095854Y-130775000D01*
X151152970Y-130775000D01*
X151183242Y-130966127D01*
X151183242Y-130966130D01*
X151248904Y-131168217D01*
X151345379Y-131357557D01*
X151470272Y-131529459D01*
X151470276Y-131529464D01*
X151620535Y-131679723D01*
X151620540Y-131679727D01*
X151792442Y-131804620D01*
X151981782Y-131901095D01*
X152183871Y-131966757D01*
X152250000Y-131977231D01*
X152250000Y-130929145D01*
X152316657Y-130967630D01*
X152437465Y-131000000D01*
X152562535Y-131000000D01*
X152683343Y-130967630D01*
X152750000Y-130929145D01*
X152750000Y-131977230D01*
X152816126Y-131966757D01*
X152816129Y-131966757D01*
X153018217Y-131901095D01*
X153207557Y-131804620D01*
X153379459Y-131679727D01*
X153379464Y-131679723D01*
X153529721Y-131529466D01*
X153649371Y-131364781D01*
X153704701Y-131322115D01*
X153774314Y-131316136D01*
X153836110Y-131348741D01*
X153850008Y-131364781D01*
X153969890Y-131529785D01*
X153969894Y-131529790D01*
X154120213Y-131680109D01*
X154292179Y-131805048D01*
X154292181Y-131805049D01*
X154292184Y-131805051D01*
X154481588Y-131901557D01*
X154683757Y-131967246D01*
X154893713Y-132000500D01*
X154893714Y-132000500D01*
X155106286Y-132000500D01*
X155106287Y-132000500D01*
X155316243Y-131967246D01*
X155518412Y-131901557D01*
X155707816Y-131805051D01*
X155742819Y-131779620D01*
X155879786Y-131680109D01*
X155879788Y-131680106D01*
X155879792Y-131680104D01*
X156030104Y-131529792D01*
X156149683Y-131365204D01*
X156205011Y-131322540D01*
X156274624Y-131316561D01*
X156336420Y-131349166D01*
X156350313Y-131365199D01*
X156451731Y-131504790D01*
X156469896Y-131529792D01*
X156620213Y-131680109D01*
X156792179Y-131805048D01*
X156792181Y-131805049D01*
X156792184Y-131805051D01*
X156981588Y-131901557D01*
X157183757Y-131967246D01*
X157393713Y-132000500D01*
X157393714Y-132000500D01*
X157606286Y-132000500D01*
X157606287Y-132000500D01*
X157816243Y-131967246D01*
X158018412Y-131901557D01*
X158207816Y-131805051D01*
X158379792Y-131680104D01*
X158518604Y-131541291D01*
X158579923Y-131507809D01*
X158649615Y-131512793D01*
X158705549Y-131554664D01*
X158711821Y-131563878D01*
X158715185Y-131569333D01*
X158715186Y-131569334D01*
X158807288Y-131718656D01*
X158931344Y-131842712D01*
X159080666Y-131934814D01*
X159247203Y-131989999D01*
X159349991Y-132000500D01*
X160650008Y-132000499D01*
X160752797Y-131989999D01*
X160919334Y-131934814D01*
X161068656Y-131842712D01*
X161192712Y-131718656D01*
X161284814Y-131569334D01*
X161339999Y-131402797D01*
X161350500Y-131300009D01*
X161350499Y-129749992D01*
X161348851Y-129733863D01*
X161339999Y-129647203D01*
X161339998Y-129647200D01*
X161302104Y-129532845D01*
X161284814Y-129480666D01*
X161192712Y-129331344D01*
X161068656Y-129207288D01*
X160933467Y-129123903D01*
X160919336Y-129115187D01*
X160919331Y-129115185D01*
X160917862Y-129114698D01*
X160752797Y-129060001D01*
X160752795Y-129060000D01*
X160650010Y-129049500D01*
X159349998Y-129049500D01*
X159349981Y-129049501D01*
X159247203Y-129060000D01*
X159247200Y-129060001D01*
X159080668Y-129115185D01*
X159080663Y-129115187D01*
X158931342Y-129207289D01*
X158807289Y-129331342D01*
X158711821Y-129486121D01*
X158659873Y-129532845D01*
X158590910Y-129544068D01*
X158526828Y-129516224D01*
X158518601Y-129508705D01*
X158379786Y-129369890D01*
X158207820Y-129244951D01*
X158018414Y-129148444D01*
X158018413Y-129148443D01*
X158018412Y-129148443D01*
X157816243Y-129082754D01*
X157816241Y-129082753D01*
X157816240Y-129082753D01*
X157654957Y-129057208D01*
X157606287Y-129049500D01*
X157393713Y-129049500D01*
X157345042Y-129057208D01*
X157183760Y-129082753D01*
X156981585Y-129148444D01*
X156792179Y-129244951D01*
X156620213Y-129369890D01*
X156469894Y-129520209D01*
X156469890Y-129520214D01*
X156350318Y-129684793D01*
X156294989Y-129727459D01*
X156225375Y-129733438D01*
X156163580Y-129700833D01*
X156149682Y-129684793D01*
X156030109Y-129520214D01*
X156030105Y-129520209D01*
X155879786Y-129369890D01*
X155707820Y-129244951D01*
X155518414Y-129148444D01*
X155518413Y-129148443D01*
X155518412Y-129148443D01*
X155316243Y-129082754D01*
X155316241Y-129082753D01*
X155316240Y-129082753D01*
X155154957Y-129057208D01*
X155106287Y-129049500D01*
X154893713Y-129049500D01*
X154845042Y-129057208D01*
X154683760Y-129082753D01*
X154481585Y-129148444D01*
X154292179Y-129244951D01*
X154120213Y-129369890D01*
X153969894Y-129520209D01*
X153969890Y-129520214D01*
X153850008Y-129685218D01*
X153794678Y-129727884D01*
X153725065Y-129733863D01*
X153663270Y-129701257D01*
X153649372Y-129685218D01*
X153529727Y-129520540D01*
X153529723Y-129520535D01*
X153379464Y-129370276D01*
X153379459Y-129370272D01*
X153207557Y-129245379D01*
X153018215Y-129148903D01*
X152816124Y-129083241D01*
X152750000Y-129072768D01*
X152750000Y-130120854D01*
X152683343Y-130082370D01*
X152562535Y-130050000D01*
X152437465Y-130050000D01*
X152316657Y-130082370D01*
X152250000Y-130120854D01*
X152250000Y-129072768D01*
X152249999Y-129072768D01*
X152183875Y-129083241D01*
X151981784Y-129148903D01*
X151792442Y-129245379D01*
X151620540Y-129370272D01*
X151620535Y-129370276D01*
X151470276Y-129520535D01*
X151470272Y-129520540D01*
X151345379Y-129692442D01*
X151248904Y-129881782D01*
X151183242Y-130083869D01*
X151183242Y-130083872D01*
X151152970Y-130275000D01*
X144850499Y-130275000D01*
X144850499Y-129724992D01*
X144848851Y-129708863D01*
X144839999Y-129622203D01*
X144839998Y-129622200D01*
X144784814Y-129455666D01*
X144692712Y-129306344D01*
X144568656Y-129182288D01*
X144419334Y-129090186D01*
X144252797Y-129035001D01*
X144252795Y-129035000D01*
X144150010Y-129024500D01*
X142849998Y-129024500D01*
X142849981Y-129024501D01*
X142747203Y-129035000D01*
X142747200Y-129035001D01*
X142580668Y-129090185D01*
X142580663Y-129090187D01*
X142431342Y-129182289D01*
X142307289Y-129306342D01*
X142211821Y-129461121D01*
X142159873Y-129507845D01*
X142090910Y-129519068D01*
X142026828Y-129491224D01*
X142018601Y-129483705D01*
X141879786Y-129344890D01*
X141707820Y-129219951D01*
X141518414Y-129123444D01*
X141518413Y-129123443D01*
X141518412Y-129123443D01*
X141316243Y-129057754D01*
X141316241Y-129057753D01*
X141316240Y-129057753D01*
X141154957Y-129032208D01*
X141106287Y-129024500D01*
X140893713Y-129024500D01*
X140845042Y-129032208D01*
X140683760Y-129057753D01*
X140481585Y-129123444D01*
X140292179Y-129219951D01*
X140120213Y-129344890D01*
X139969894Y-129495209D01*
X139969890Y-129495214D01*
X139850318Y-129659793D01*
X139794989Y-129702459D01*
X139725375Y-129708438D01*
X139663580Y-129675833D01*
X139649682Y-129659793D01*
X139530109Y-129495214D01*
X139530105Y-129495209D01*
X139379786Y-129344890D01*
X139207820Y-129219951D01*
X139018414Y-129123444D01*
X139018413Y-129123443D01*
X139018412Y-129123443D01*
X138816243Y-129057754D01*
X138816241Y-129057753D01*
X138816240Y-129057753D01*
X138654957Y-129032208D01*
X138606287Y-129024500D01*
X138393713Y-129024500D01*
X138345042Y-129032208D01*
X138183760Y-129057753D01*
X137981585Y-129123444D01*
X137792179Y-129219951D01*
X137620213Y-129344890D01*
X137469894Y-129495209D01*
X137469890Y-129495214D01*
X137350008Y-129660218D01*
X137294678Y-129702884D01*
X137225065Y-129708863D01*
X137163270Y-129676257D01*
X137149372Y-129660218D01*
X137029727Y-129495540D01*
X137029723Y-129495535D01*
X136879464Y-129345276D01*
X136879459Y-129345272D01*
X136707557Y-129220379D01*
X136518215Y-129123903D01*
X136316124Y-129058241D01*
X136250000Y-129047768D01*
X136250000Y-130095854D01*
X136183343Y-130057370D01*
X136062535Y-130025000D01*
X135937465Y-130025000D01*
X135816657Y-130057370D01*
X135750000Y-130095854D01*
X135750000Y-129047768D01*
X135749999Y-129047768D01*
X135683875Y-129058241D01*
X135481784Y-129123903D01*
X135292442Y-129220379D01*
X135120540Y-129345272D01*
X135120535Y-129345276D01*
X134970276Y-129495535D01*
X134970272Y-129495540D01*
X134845379Y-129667442D01*
X134748904Y-129856782D01*
X134683242Y-130058869D01*
X134683242Y-130058872D01*
X134652970Y-130250000D01*
X129675979Y-130250000D01*
X129620332Y-130208343D01*
X129177753Y-129877033D01*
X129174257Y-129874318D01*
X128302132Y-129171515D01*
X128298735Y-129168676D01*
X127452264Y-128435204D01*
X127448971Y-128432246D01*
X126629207Y-127669020D01*
X126626022Y-127665946D01*
X125834053Y-126873977D01*
X125830979Y-126870792D01*
X125067753Y-126051028D01*
X125064795Y-126047735D01*
X124331323Y-125201264D01*
X124328484Y-125197867D01*
X123625681Y-124325742D01*
X123622966Y-124322246D01*
X123435471Y-124071782D01*
X122951749Y-123425604D01*
X122949187Y-123422052D01*
X122528277Y-122815826D01*
X122350377Y-122559601D01*
X122310378Y-122501992D01*
X122307919Y-122498311D01*
X122304990Y-122493753D01*
X125650000Y-122493753D01*
X125650000Y-122500000D01*
X126566988Y-122500000D01*
X126534075Y-122557007D01*
X126500000Y-122684174D01*
X126500000Y-122815826D01*
X126534075Y-122942993D01*
X126566988Y-123000000D01*
X125650000Y-123000000D01*
X125650000Y-123006246D01*
X125683242Y-123216127D01*
X125683242Y-123216130D01*
X125748904Y-123418217D01*
X125845379Y-123607557D01*
X125970272Y-123779459D01*
X125970276Y-123779464D01*
X126120535Y-123929723D01*
X126120540Y-123929727D01*
X126292442Y-124054620D01*
X126481782Y-124151095D01*
X126683871Y-124216757D01*
X126750000Y-124227231D01*
X126750000Y-123183012D01*
X126807007Y-123215925D01*
X126934174Y-123250000D01*
X127065826Y-123250000D01*
X127192993Y-123215925D01*
X127250000Y-123183012D01*
X127250000Y-124227230D01*
X127316126Y-124216757D01*
X127316129Y-124216757D01*
X127518217Y-124151095D01*
X127707557Y-124054620D01*
X127879458Y-123929728D01*
X128018330Y-123790856D01*
X128079653Y-123757371D01*
X128149345Y-123762355D01*
X128205279Y-123804226D01*
X128211551Y-123813440D01*
X128215185Y-123819331D01*
X128215186Y-123819334D01*
X128307288Y-123968656D01*
X128431344Y-124092712D01*
X128580666Y-124184814D01*
X128747203Y-124239999D01*
X128849991Y-124250500D01*
X130150008Y-124250499D01*
X130252797Y-124239999D01*
X130419334Y-124184814D01*
X130568656Y-124092712D01*
X130692712Y-123968656D01*
X130722012Y-123921153D01*
X142199500Y-123921153D01*
X142199500Y-124078846D01*
X142230261Y-124233489D01*
X142230264Y-124233501D01*
X142290602Y-124379172D01*
X142290609Y-124379185D01*
X142378210Y-124510288D01*
X142378213Y-124510292D01*
X142489707Y-124621786D01*
X142489711Y-124621789D01*
X142620814Y-124709390D01*
X142620827Y-124709397D01*
X142766498Y-124769735D01*
X142766503Y-124769737D01*
X142921153Y-124800499D01*
X142921156Y-124800500D01*
X142921158Y-124800500D01*
X143078844Y-124800500D01*
X143078845Y-124800499D01*
X143233497Y-124769737D01*
X143379179Y-124709394D01*
X143510289Y-124621789D01*
X143621789Y-124510289D01*
X143709394Y-124379179D01*
X143769737Y-124233497D01*
X143772338Y-124220418D01*
X144748765Y-124220418D01*
X144748765Y-124378111D01*
X144779526Y-124532754D01*
X144779529Y-124532766D01*
X144839867Y-124678437D01*
X144839874Y-124678450D01*
X144927475Y-124809553D01*
X144927478Y-124809557D01*
X145038972Y-124921051D01*
X145038976Y-124921054D01*
X145170079Y-125008655D01*
X145170092Y-125008662D01*
X145315763Y-125069000D01*
X145315768Y-125069002D01*
X145470418Y-125099764D01*
X145470421Y-125099765D01*
X145470423Y-125099765D01*
X145628109Y-125099765D01*
X145628110Y-125099764D01*
X145782762Y-125069002D01*
X145928444Y-125008659D01*
X146059554Y-124921054D01*
X146171054Y-124809554D01*
X146258659Y-124678444D01*
X146319002Y-124532762D01*
X146349765Y-124378107D01*
X146349765Y-124295327D01*
X146350780Y-124291869D01*
X146349961Y-124288360D01*
X146360551Y-124258592D01*
X146369450Y-124228288D01*
X146372527Y-124224932D01*
X146373381Y-124222532D01*
X146384833Y-124211511D01*
X146397956Y-124197200D01*
X146401332Y-124194591D01*
X146436410Y-124171153D01*
X150449500Y-124171153D01*
X150449500Y-124328846D01*
X150480261Y-124483489D01*
X150480264Y-124483501D01*
X150540602Y-124629172D01*
X150540609Y-124629185D01*
X150628210Y-124760288D01*
X150628213Y-124760292D01*
X150739707Y-124871786D01*
X150739711Y-124871789D01*
X150870814Y-124959390D01*
X150870827Y-124959397D01*
X150989748Y-125008655D01*
X151016503Y-125019737D01*
X151171153Y-125050499D01*
X151171156Y-125050500D01*
X151171158Y-125050500D01*
X151328844Y-125050500D01*
X151328845Y-125050499D01*
X151483497Y-125019737D01*
X151629179Y-124959394D01*
X151760289Y-124871789D01*
X151871789Y-124760289D01*
X151959394Y-124629179D01*
X152019737Y-124483497D01*
X152050500Y-124328842D01*
X152050500Y-124171158D01*
X152050500Y-124171155D01*
X152050499Y-124171153D01*
X152034896Y-124092712D01*
X152019737Y-124016503D01*
X151980242Y-123921153D01*
X153199500Y-123921153D01*
X153199500Y-124078846D01*
X153230261Y-124233489D01*
X153230264Y-124233501D01*
X153290602Y-124379172D01*
X153290609Y-124379185D01*
X153378210Y-124510288D01*
X153378213Y-124510292D01*
X153489707Y-124621786D01*
X153489711Y-124621789D01*
X153620814Y-124709390D01*
X153620827Y-124709397D01*
X153766498Y-124769735D01*
X153766503Y-124769737D01*
X153921153Y-124800499D01*
X153921156Y-124800500D01*
X153921158Y-124800500D01*
X154078844Y-124800500D01*
X154078845Y-124800499D01*
X154233497Y-124769737D01*
X154379179Y-124709394D01*
X154510289Y-124621789D01*
X154621789Y-124510289D01*
X154709394Y-124379179D01*
X154769737Y-124233497D01*
X154800500Y-124078842D01*
X154800500Y-123921158D01*
X154800500Y-123921155D01*
X154800499Y-123921153D01*
X154790486Y-123870814D01*
X154769737Y-123766503D01*
X154768019Y-123762355D01*
X154709397Y-123620827D01*
X154709390Y-123620814D01*
X154621789Y-123489711D01*
X154621786Y-123489707D01*
X154510292Y-123378213D01*
X154510288Y-123378210D01*
X154379185Y-123290609D01*
X154379172Y-123290602D01*
X154233501Y-123230264D01*
X154233489Y-123230261D01*
X154078845Y-123199500D01*
X154078842Y-123199500D01*
X153921158Y-123199500D01*
X153921155Y-123199500D01*
X153766510Y-123230261D01*
X153766498Y-123230264D01*
X153620827Y-123290602D01*
X153620814Y-123290609D01*
X153489711Y-123378210D01*
X153489707Y-123378213D01*
X153378213Y-123489707D01*
X153378210Y-123489711D01*
X153290609Y-123620814D01*
X153290602Y-123620827D01*
X153230264Y-123766498D01*
X153230261Y-123766510D01*
X153199500Y-123921153D01*
X151980242Y-123921153D01*
X151979797Y-123920079D01*
X151959397Y-123870827D01*
X151959390Y-123870814D01*
X151871789Y-123739711D01*
X151871786Y-123739707D01*
X151760292Y-123628213D01*
X151760288Y-123628210D01*
X151629185Y-123540609D01*
X151629172Y-123540602D01*
X151483501Y-123480264D01*
X151483489Y-123480261D01*
X151328845Y-123449500D01*
X151328842Y-123449500D01*
X151171158Y-123449500D01*
X151171155Y-123449500D01*
X151016510Y-123480261D01*
X151016498Y-123480264D01*
X150870827Y-123540602D01*
X150870814Y-123540609D01*
X150739711Y-123628210D01*
X150739707Y-123628213D01*
X150628213Y-123739707D01*
X150628210Y-123739711D01*
X150540609Y-123870814D01*
X150540602Y-123870827D01*
X150480264Y-124016498D01*
X150480261Y-124016510D01*
X150449500Y-124171153D01*
X146436410Y-124171153D01*
X146510289Y-124121789D01*
X146621789Y-124010289D01*
X146709394Y-123879179D01*
X146712854Y-123870827D01*
X146750699Y-123779459D01*
X146769737Y-123733497D01*
X146800500Y-123578842D01*
X146800500Y-123421158D01*
X146800500Y-123421155D01*
X146800499Y-123421153D01*
X146774531Y-123290606D01*
X146769737Y-123266503D01*
X146762901Y-123250000D01*
X146709397Y-123120827D01*
X146709390Y-123120814D01*
X146621789Y-122989711D01*
X146621786Y-122989707D01*
X146510292Y-122878213D01*
X146510288Y-122878210D01*
X146379185Y-122790609D01*
X146379172Y-122790602D01*
X146233501Y-122730264D01*
X146233489Y-122730261D01*
X146078845Y-122699500D01*
X146078842Y-122699500D01*
X145921158Y-122699500D01*
X145921155Y-122699500D01*
X145766510Y-122730261D01*
X145766498Y-122730264D01*
X145620827Y-122790602D01*
X145620814Y-122790609D01*
X145489711Y-122878210D01*
X145489707Y-122878213D01*
X145378213Y-122989707D01*
X145378210Y-122989711D01*
X145290609Y-123120814D01*
X145290602Y-123120827D01*
X145230264Y-123266498D01*
X145230261Y-123266510D01*
X145199500Y-123421153D01*
X145199500Y-123503938D01*
X145179815Y-123570977D01*
X145144390Y-123607040D01*
X145038980Y-123677472D01*
X145038972Y-123677478D01*
X144927478Y-123788972D01*
X144927475Y-123788976D01*
X144839874Y-123920079D01*
X144839867Y-123920092D01*
X144779529Y-124065763D01*
X144779526Y-124065775D01*
X144748765Y-124220418D01*
X143772338Y-124220418D01*
X143774110Y-124211511D01*
X143778362Y-124190139D01*
X143778362Y-124190138D01*
X143800499Y-124078846D01*
X143800500Y-124078844D01*
X143800500Y-123921155D01*
X143800499Y-123921153D01*
X143790486Y-123870814D01*
X143769737Y-123766503D01*
X143768019Y-123762355D01*
X143709397Y-123620827D01*
X143709390Y-123620814D01*
X143621789Y-123489711D01*
X143621786Y-123489707D01*
X143510292Y-123378213D01*
X143510288Y-123378210D01*
X143379185Y-123290609D01*
X143379172Y-123290602D01*
X143233501Y-123230264D01*
X143233489Y-123230261D01*
X143078845Y-123199500D01*
X143078842Y-123199500D01*
X142921158Y-123199500D01*
X142921155Y-123199500D01*
X142766510Y-123230261D01*
X142766498Y-123230264D01*
X142620827Y-123290602D01*
X142620814Y-123290609D01*
X142489711Y-123378210D01*
X142489707Y-123378213D01*
X142378213Y-123489707D01*
X142378210Y-123489711D01*
X142290609Y-123620814D01*
X142290602Y-123620827D01*
X142230264Y-123766498D01*
X142230261Y-123766510D01*
X142199500Y-123921153D01*
X130722012Y-123921153D01*
X130784814Y-123819334D01*
X130839999Y-123652797D01*
X130850500Y-123550009D01*
X130850499Y-121949992D01*
X130839999Y-121847203D01*
X130784814Y-121680666D01*
X130692712Y-121531344D01*
X130568656Y-121407288D01*
X130419334Y-121315186D01*
X130252797Y-121260001D01*
X130252795Y-121260000D01*
X130150010Y-121249500D01*
X128849998Y-121249500D01*
X128849981Y-121249501D01*
X128747203Y-121260000D01*
X128747200Y-121260001D01*
X128580668Y-121315185D01*
X128580663Y-121315187D01*
X128431342Y-121407289D01*
X128307289Y-121531342D01*
X128211551Y-121686559D01*
X128159603Y-121733283D01*
X128090640Y-121744506D01*
X128026558Y-121716662D01*
X128018331Y-121709143D01*
X127879464Y-121570276D01*
X127879459Y-121570272D01*
X127707557Y-121445379D01*
X127518215Y-121348903D01*
X127316124Y-121283241D01*
X127250000Y-121272768D01*
X127250000Y-122316988D01*
X127192993Y-122284075D01*
X127065826Y-122250000D01*
X126934174Y-122250000D01*
X126807007Y-122284075D01*
X126750000Y-122316988D01*
X126750000Y-121272768D01*
X126749999Y-121272768D01*
X126683875Y-121283241D01*
X126481784Y-121348903D01*
X126292442Y-121445379D01*
X126120540Y-121570272D01*
X126120535Y-121570276D01*
X125970276Y-121720535D01*
X125970272Y-121720540D01*
X125845379Y-121892442D01*
X125748904Y-122081782D01*
X125683242Y-122283869D01*
X125683242Y-122283872D01*
X125650000Y-122493753D01*
X122304990Y-122493753D01*
X121702402Y-121556107D01*
X121700075Y-121552342D01*
X121348262Y-120959394D01*
X121128516Y-120589033D01*
X121126336Y-120585203D01*
X121070800Y-120483497D01*
X120900247Y-120171153D01*
X171949500Y-120171153D01*
X171949500Y-120328846D01*
X171980261Y-120483489D01*
X171980264Y-120483501D01*
X172040602Y-120629172D01*
X172040609Y-120629185D01*
X172128210Y-120760288D01*
X172128213Y-120760292D01*
X172239707Y-120871786D01*
X172239711Y-120871789D01*
X172370814Y-120959390D01*
X172370827Y-120959397D01*
X172516498Y-121019735D01*
X172516503Y-121019737D01*
X172671153Y-121050499D01*
X172671156Y-121050500D01*
X172671158Y-121050500D01*
X172828844Y-121050500D01*
X172828845Y-121050499D01*
X172983497Y-121019737D01*
X173129179Y-120959394D01*
X173260289Y-120871789D01*
X173371789Y-120760289D01*
X173459394Y-120629179D01*
X173519737Y-120483497D01*
X173550500Y-120328842D01*
X173550500Y-120171158D01*
X173550500Y-120171155D01*
X173550499Y-120171153D01*
X173519738Y-120016510D01*
X173519737Y-120016503D01*
X173519735Y-120016498D01*
X173459397Y-119870827D01*
X173459390Y-119870814D01*
X173371789Y-119739711D01*
X173371786Y-119739707D01*
X173260292Y-119628213D01*
X173260288Y-119628210D01*
X173129185Y-119540609D01*
X173129172Y-119540602D01*
X172983501Y-119480264D01*
X172983489Y-119480261D01*
X172828845Y-119449500D01*
X172828842Y-119449500D01*
X172671158Y-119449500D01*
X172671155Y-119449500D01*
X172516510Y-119480261D01*
X172516498Y-119480264D01*
X172370827Y-119540602D01*
X172370814Y-119540609D01*
X172239711Y-119628210D01*
X172239707Y-119628213D01*
X172128213Y-119739707D01*
X172128210Y-119739711D01*
X172040609Y-119870814D01*
X172040602Y-119870827D01*
X171980264Y-120016498D01*
X171980261Y-120016510D01*
X171949500Y-120171153D01*
X120900247Y-120171153D01*
X120815806Y-120016510D01*
X120589570Y-119602189D01*
X120587518Y-119598266D01*
X120086153Y-118596665D01*
X120084243Y-118592672D01*
X119684144Y-117716577D01*
X119663400Y-117671153D01*
X135449500Y-117671153D01*
X135449500Y-117828846D01*
X135480261Y-117983489D01*
X135480264Y-117983501D01*
X135540602Y-118129172D01*
X135540609Y-118129185D01*
X135628210Y-118260288D01*
X135628213Y-118260292D01*
X135739707Y-118371786D01*
X135739711Y-118371789D01*
X135870814Y-118459390D01*
X135870827Y-118459397D01*
X136016498Y-118519735D01*
X136016503Y-118519737D01*
X136171153Y-118550499D01*
X136171156Y-118550500D01*
X136171158Y-118550500D01*
X136328844Y-118550500D01*
X136328845Y-118550499D01*
X136483497Y-118519737D01*
X136629179Y-118459394D01*
X136760289Y-118371789D01*
X136871789Y-118260289D01*
X136959394Y-118129179D01*
X137019737Y-117983497D01*
X137050500Y-117828842D01*
X137050500Y-117671158D01*
X137050500Y-117671155D01*
X137050499Y-117671153D01*
X137019738Y-117516510D01*
X137019737Y-117516503D01*
X136959794Y-117371786D01*
X136959397Y-117370827D01*
X136959390Y-117370814D01*
X136871789Y-117239711D01*
X136871786Y-117239707D01*
X136760292Y-117128213D01*
X136760288Y-117128210D01*
X136629185Y-117040609D01*
X136629172Y-117040602D01*
X136483501Y-116980264D01*
X136483489Y-116980261D01*
X136328845Y-116949500D01*
X136328842Y-116949500D01*
X136171158Y-116949500D01*
X136171155Y-116949500D01*
X136016510Y-116980261D01*
X136016498Y-116980264D01*
X135870827Y-117040602D01*
X135870814Y-117040609D01*
X135739711Y-117128210D01*
X135739707Y-117128213D01*
X135628213Y-117239707D01*
X135628210Y-117239711D01*
X135540609Y-117370814D01*
X135540602Y-117370827D01*
X135480264Y-117516498D01*
X135480261Y-117516510D01*
X135449500Y-117671153D01*
X119663400Y-117671153D01*
X119618977Y-117573881D01*
X119617210Y-117569823D01*
X119488998Y-117260292D01*
X119244968Y-116671153D01*
X139699500Y-116671153D01*
X139699500Y-116828846D01*
X139730261Y-116983489D01*
X139730264Y-116983501D01*
X139790602Y-117129172D01*
X139790609Y-117129185D01*
X139878210Y-117260288D01*
X139878213Y-117260292D01*
X139989707Y-117371786D01*
X139989711Y-117371789D01*
X140120814Y-117459390D01*
X140120827Y-117459397D01*
X140199457Y-117491966D01*
X140266503Y-117519737D01*
X140421153Y-117550499D01*
X140421156Y-117550500D01*
X140421158Y-117550500D01*
X140578844Y-117550500D01*
X140578845Y-117550499D01*
X140733497Y-117519737D01*
X140879179Y-117459394D01*
X141010289Y-117371789D01*
X141121789Y-117260289D01*
X141209394Y-117129179D01*
X141269737Y-116983497D01*
X141300500Y-116828842D01*
X141300500Y-116671158D01*
X141300500Y-116671155D01*
X141300499Y-116671153D01*
X157699500Y-116671153D01*
X157699500Y-116828846D01*
X157730261Y-116983489D01*
X157730264Y-116983501D01*
X157790602Y-117129172D01*
X157790609Y-117129185D01*
X157878210Y-117260288D01*
X157878213Y-117260292D01*
X157989707Y-117371786D01*
X157989711Y-117371789D01*
X158120814Y-117459390D01*
X158120827Y-117459397D01*
X158199457Y-117491966D01*
X158266503Y-117519737D01*
X158421153Y-117550499D01*
X158421156Y-117550500D01*
X158421158Y-117550500D01*
X158578844Y-117550500D01*
X158578845Y-117550499D01*
X158733497Y-117519737D01*
X158879179Y-117459394D01*
X159010289Y-117371789D01*
X159121789Y-117260289D01*
X159209394Y-117129179D01*
X159269737Y-116983497D01*
X159300500Y-116828842D01*
X159300500Y-116671158D01*
X159300500Y-116671155D01*
X159300499Y-116671153D01*
X159269737Y-116516503D01*
X159220506Y-116397648D01*
X173949500Y-116397648D01*
X173949500Y-116602351D01*
X173981522Y-116804534D01*
X174044781Y-116999223D01*
X174065869Y-117040609D01*
X174110994Y-117129172D01*
X174137715Y-117181613D01*
X174258028Y-117347213D01*
X174402786Y-117491971D01*
X174512738Y-117571854D01*
X174568390Y-117612287D01*
X174683921Y-117671153D01*
X174750776Y-117705218D01*
X174750778Y-117705218D01*
X174750781Y-117705220D01*
X174855137Y-117739127D01*
X174945465Y-117768477D01*
X175046557Y-117784488D01*
X175147648Y-117800500D01*
X175147649Y-117800500D01*
X175352351Y-117800500D01*
X175352352Y-117800500D01*
X175554534Y-117768477D01*
X175749219Y-117705220D01*
X175931610Y-117612287D01*
X176058994Y-117519738D01*
X176097213Y-117491971D01*
X176097215Y-117491968D01*
X176097219Y-117491966D01*
X176241966Y-117347219D01*
X176241968Y-117347215D01*
X176241971Y-117347213D01*
X176305124Y-117260289D01*
X176362287Y-117181610D01*
X176455220Y-116999219D01*
X176518477Y-116804534D01*
X176550500Y-116602352D01*
X176550500Y-116397648D01*
X176518477Y-116195466D01*
X176455220Y-116000781D01*
X176455218Y-116000778D01*
X176455218Y-116000776D01*
X176389495Y-115871789D01*
X176362287Y-115818390D01*
X176320077Y-115760292D01*
X176241971Y-115652786D01*
X176097213Y-115508028D01*
X175931613Y-115387715D01*
X175931612Y-115387714D01*
X175931610Y-115387713D01*
X175874653Y-115358691D01*
X175749223Y-115294781D01*
X175554534Y-115231522D01*
X175379995Y-115203878D01*
X175352352Y-115199500D01*
X175147648Y-115199500D01*
X175123329Y-115203351D01*
X174945465Y-115231522D01*
X174750776Y-115294781D01*
X174568386Y-115387715D01*
X174402786Y-115508028D01*
X174258028Y-115652786D01*
X174137715Y-115818386D01*
X174044781Y-116000776D01*
X173981522Y-116195465D01*
X173949500Y-116397648D01*
X159220506Y-116397648D01*
X159209394Y-116370821D01*
X159209392Y-116370818D01*
X159209390Y-116370814D01*
X159121789Y-116239711D01*
X159121786Y-116239707D01*
X159010292Y-116128213D01*
X159010288Y-116128210D01*
X158879185Y-116040609D01*
X158879172Y-116040602D01*
X158733501Y-115980264D01*
X158733489Y-115980261D01*
X158578845Y-115949500D01*
X158578842Y-115949500D01*
X158421158Y-115949500D01*
X158421155Y-115949500D01*
X158266510Y-115980261D01*
X158266498Y-115980264D01*
X158120827Y-116040602D01*
X158120814Y-116040609D01*
X157989711Y-116128210D01*
X157989707Y-116128213D01*
X157878213Y-116239707D01*
X157878210Y-116239711D01*
X157790609Y-116370814D01*
X157790602Y-116370827D01*
X157730264Y-116516498D01*
X157730261Y-116516510D01*
X157699500Y-116671153D01*
X141300499Y-116671153D01*
X141269737Y-116516503D01*
X141238143Y-116440228D01*
X141209397Y-116370827D01*
X141209390Y-116370814D01*
X141121789Y-116239711D01*
X141121786Y-116239707D01*
X141010292Y-116128213D01*
X141010288Y-116128210D01*
X140879185Y-116040609D01*
X140879172Y-116040602D01*
X140733501Y-115980264D01*
X140733489Y-115980261D01*
X140578845Y-115949500D01*
X140578842Y-115949500D01*
X140421158Y-115949500D01*
X140421155Y-115949500D01*
X140266510Y-115980261D01*
X140266498Y-115980264D01*
X140120827Y-116040602D01*
X140120814Y-116040609D01*
X139989711Y-116128210D01*
X139989707Y-116128213D01*
X139878213Y-116239707D01*
X139878210Y-116239711D01*
X139790609Y-116370814D01*
X139790602Y-116370827D01*
X139730264Y-116516498D01*
X139730261Y-116516510D01*
X139699500Y-116671153D01*
X119244968Y-116671153D01*
X119188569Y-116534994D01*
X119186979Y-116530952D01*
X118795525Y-115481424D01*
X118794079Y-115477322D01*
X118517937Y-114647648D01*
X122199500Y-114647648D01*
X122199500Y-114852351D01*
X122231522Y-115054534D01*
X122294781Y-115249223D01*
X122387715Y-115431613D01*
X122508028Y-115597213D01*
X122652786Y-115741971D01*
X122757970Y-115818390D01*
X122818390Y-115862287D01*
X122934607Y-115921503D01*
X123000776Y-115955218D01*
X123000778Y-115955218D01*
X123000781Y-115955220D01*
X123105137Y-115989127D01*
X123195465Y-116018477D01*
X123296557Y-116034488D01*
X123397648Y-116050500D01*
X123397649Y-116050500D01*
X123602351Y-116050500D01*
X123602352Y-116050500D01*
X123804534Y-116018477D01*
X123999219Y-115955220D01*
X124181610Y-115862287D01*
X124274590Y-115794732D01*
X124347213Y-115741971D01*
X124347215Y-115741968D01*
X124347219Y-115741966D01*
X124491966Y-115597219D01*
X124491968Y-115597215D01*
X124491971Y-115597213D01*
X124556762Y-115508034D01*
X124612287Y-115431610D01*
X124705220Y-115249219D01*
X124730585Y-115171153D01*
X126699500Y-115171153D01*
X126699500Y-115328846D01*
X126730261Y-115483489D01*
X126730264Y-115483501D01*
X126790602Y-115629172D01*
X126790609Y-115629185D01*
X126878210Y-115760288D01*
X126878213Y-115760292D01*
X126989707Y-115871786D01*
X126989711Y-115871789D01*
X127120814Y-115959390D01*
X127120827Y-115959397D01*
X127263461Y-116018477D01*
X127266503Y-116019737D01*
X127421153Y-116050499D01*
X127421156Y-116050500D01*
X127421158Y-116050500D01*
X127578844Y-116050500D01*
X127578845Y-116050499D01*
X127733497Y-116019737D01*
X127879179Y-115959394D01*
X128010289Y-115871789D01*
X128121789Y-115760289D01*
X128209394Y-115629179D01*
X128269737Y-115483497D01*
X128300500Y-115328842D01*
X128300500Y-115171158D01*
X128300500Y-115171155D01*
X128300499Y-115171153D01*
X133199500Y-115171153D01*
X133199500Y-115328846D01*
X133230261Y-115483489D01*
X133230264Y-115483501D01*
X133290602Y-115629172D01*
X133290609Y-115629185D01*
X133378210Y-115760288D01*
X133378213Y-115760292D01*
X133489707Y-115871786D01*
X133489711Y-115871789D01*
X133620814Y-115959390D01*
X133620827Y-115959397D01*
X133763461Y-116018477D01*
X133766503Y-116019737D01*
X133921153Y-116050499D01*
X133921156Y-116050500D01*
X133921158Y-116050500D01*
X134078844Y-116050500D01*
X134078845Y-116050499D01*
X134233497Y-116019737D01*
X134379179Y-115959394D01*
X134510289Y-115871789D01*
X134621789Y-115760289D01*
X134709394Y-115629179D01*
X134769737Y-115483497D01*
X134800500Y-115328842D01*
X134800500Y-115171158D01*
X134800500Y-115171155D01*
X134800499Y-115171153D01*
X134791666Y-115126746D01*
X134769737Y-115016503D01*
X134769735Y-115016498D01*
X134709397Y-114870827D01*
X134709390Y-114870814D01*
X134621789Y-114739711D01*
X134621786Y-114739707D01*
X134510292Y-114628213D01*
X134510288Y-114628210D01*
X134379185Y-114540609D01*
X134379172Y-114540602D01*
X134233501Y-114480264D01*
X134233489Y-114480261D01*
X134078845Y-114449500D01*
X134078842Y-114449500D01*
X133921158Y-114449500D01*
X133921155Y-114449500D01*
X133766510Y-114480261D01*
X133766498Y-114480264D01*
X133620827Y-114540602D01*
X133620814Y-114540609D01*
X133489711Y-114628210D01*
X133489707Y-114628213D01*
X133378213Y-114739707D01*
X133378210Y-114739711D01*
X133290609Y-114870814D01*
X133290602Y-114870827D01*
X133230264Y-115016498D01*
X133230261Y-115016510D01*
X133199500Y-115171153D01*
X128300499Y-115171153D01*
X128291666Y-115126746D01*
X128269737Y-115016503D01*
X128269735Y-115016498D01*
X128209397Y-114870827D01*
X128209390Y-114870814D01*
X128121789Y-114739711D01*
X128121786Y-114739707D01*
X128010292Y-114628213D01*
X128010288Y-114628210D01*
X127879185Y-114540609D01*
X127879172Y-114540602D01*
X127733501Y-114480264D01*
X127733489Y-114480261D01*
X127578845Y-114449500D01*
X127578842Y-114449500D01*
X127421158Y-114449500D01*
X127421155Y-114449500D01*
X127266510Y-114480261D01*
X127266498Y-114480264D01*
X127120827Y-114540602D01*
X127120814Y-114540609D01*
X126989711Y-114628210D01*
X126989707Y-114628213D01*
X126878213Y-114739707D01*
X126878210Y-114739711D01*
X126790609Y-114870814D01*
X126790602Y-114870827D01*
X126730264Y-115016498D01*
X126730261Y-115016510D01*
X126699500Y-115171153D01*
X124730585Y-115171153D01*
X124768477Y-115054534D01*
X124800500Y-114852352D01*
X124800500Y-114647648D01*
X124773989Y-114480264D01*
X124768477Y-114445465D01*
X124733278Y-114337134D01*
X124705220Y-114250781D01*
X124705218Y-114250778D01*
X124705218Y-114250776D01*
X124639495Y-114121789D01*
X124612287Y-114068390D01*
X124570077Y-114010292D01*
X124491971Y-113902786D01*
X124347213Y-113758028D01*
X124181613Y-113637715D01*
X124181612Y-113637714D01*
X124181610Y-113637713D01*
X124124653Y-113608691D01*
X123999223Y-113544781D01*
X123804534Y-113481522D01*
X123629995Y-113453878D01*
X123602352Y-113449500D01*
X123397648Y-113449500D01*
X123373329Y-113453351D01*
X123195465Y-113481522D01*
X123000776Y-113544781D01*
X122818386Y-113637715D01*
X122652786Y-113758028D01*
X122508028Y-113902786D01*
X122387715Y-114068386D01*
X122294781Y-114250776D01*
X122231522Y-114445465D01*
X122199500Y-114647648D01*
X118517937Y-114647648D01*
X118511468Y-114628213D01*
X118440368Y-114414590D01*
X118439045Y-114410366D01*
X118417542Y-114337134D01*
X118417542Y-114267264D01*
X118455316Y-114208486D01*
X118518872Y-114179461D01*
X118588030Y-114189405D01*
X118605411Y-114199098D01*
X118620812Y-114209389D01*
X118620827Y-114209397D01*
X118766498Y-114269735D01*
X118766503Y-114269737D01*
X118921153Y-114300499D01*
X118921156Y-114300500D01*
X118921158Y-114300500D01*
X119078844Y-114300500D01*
X119078845Y-114300499D01*
X119233497Y-114269737D01*
X119379179Y-114209394D01*
X119510289Y-114121789D01*
X119621789Y-114010289D01*
X119709394Y-113879179D01*
X119769737Y-113733497D01*
X119800500Y-113578842D01*
X119800500Y-113421158D01*
X119800500Y-113421155D01*
X119800499Y-113421153D01*
X119783497Y-113335680D01*
X119769737Y-113266503D01*
X119769647Y-113266286D01*
X119709397Y-113120827D01*
X119709390Y-113120814D01*
X119621790Y-112989712D01*
X119621784Y-112989705D01*
X119553232Y-112921153D01*
X158699500Y-112921153D01*
X158699500Y-113078846D01*
X158730261Y-113233489D01*
X158730264Y-113233501D01*
X158790602Y-113379172D01*
X158790609Y-113379185D01*
X158878210Y-113510288D01*
X158878213Y-113510292D01*
X158989707Y-113621786D01*
X158989711Y-113621789D01*
X159120814Y-113709390D01*
X159120827Y-113709397D01*
X159238249Y-113758034D01*
X159266503Y-113769737D01*
X159421153Y-113800499D01*
X159421156Y-113800500D01*
X159421158Y-113800500D01*
X159578844Y-113800500D01*
X159578845Y-113800499D01*
X159733497Y-113769737D01*
X159879179Y-113709394D01*
X160010289Y-113621789D01*
X160121789Y-113510289D01*
X160209394Y-113379179D01*
X160269737Y-113233497D01*
X160300500Y-113078842D01*
X160300500Y-112921158D01*
X160300500Y-112921155D01*
X160300499Y-112921153D01*
X160274531Y-112790606D01*
X160269737Y-112766503D01*
X160269735Y-112766498D01*
X160209397Y-112620827D01*
X160209390Y-112620814D01*
X160121789Y-112489711D01*
X160121786Y-112489707D01*
X160010292Y-112378213D01*
X160010288Y-112378210D01*
X159879185Y-112290609D01*
X159879172Y-112290602D01*
X159733501Y-112230264D01*
X159733489Y-112230261D01*
X159578845Y-112199500D01*
X159578842Y-112199500D01*
X159421158Y-112199500D01*
X159421155Y-112199500D01*
X159266510Y-112230261D01*
X159266498Y-112230264D01*
X159120827Y-112290602D01*
X159120814Y-112290609D01*
X158989711Y-112378210D01*
X158989707Y-112378213D01*
X158878213Y-112489707D01*
X158878210Y-112489711D01*
X158790609Y-112620814D01*
X158790602Y-112620827D01*
X158730264Y-112766498D01*
X158730261Y-112766510D01*
X158699500Y-112921153D01*
X119553232Y-112921153D01*
X119510292Y-112878213D01*
X119510288Y-112878210D01*
X119379185Y-112790609D01*
X119379172Y-112790602D01*
X119233501Y-112730264D01*
X119233489Y-112730261D01*
X119078845Y-112699500D01*
X119078842Y-112699500D01*
X118921158Y-112699500D01*
X118921155Y-112699500D01*
X118766510Y-112730261D01*
X118766498Y-112730264D01*
X118620827Y-112790602D01*
X118620814Y-112790609D01*
X118489711Y-112878210D01*
X118489707Y-112878213D01*
X118378213Y-112989707D01*
X118378210Y-112989711D01*
X118287221Y-113125886D01*
X118286134Y-113125160D01*
X118241879Y-113170198D01*
X118173739Y-113185648D01*
X118108063Y-113161805D01*
X118065703Y-113106241D01*
X118061355Y-113092565D01*
X117845321Y-112246152D01*
X117844306Y-112241856D01*
X117841784Y-112230264D01*
X117611389Y-111171153D01*
X164199500Y-111171153D01*
X164199500Y-111328846D01*
X164230261Y-111483489D01*
X164230264Y-111483501D01*
X164290602Y-111629172D01*
X164290609Y-111629185D01*
X164378210Y-111760288D01*
X164378213Y-111760292D01*
X164489707Y-111871786D01*
X164489711Y-111871789D01*
X164620814Y-111959390D01*
X164620827Y-111959397D01*
X164730801Y-112004949D01*
X164766503Y-112019737D01*
X164921153Y-112050499D01*
X164921156Y-112050500D01*
X164921158Y-112050500D01*
X165078844Y-112050500D01*
X165078845Y-112050499D01*
X165233497Y-112019737D01*
X165379179Y-111959394D01*
X165510289Y-111871789D01*
X165621789Y-111760289D01*
X165709394Y-111629179D01*
X165769737Y-111483497D01*
X165800500Y-111328842D01*
X165800500Y-111171158D01*
X165800500Y-111171155D01*
X165800499Y-111171153D01*
X165790679Y-111121786D01*
X165769737Y-111016503D01*
X165767163Y-111010288D01*
X165709397Y-110870827D01*
X165709390Y-110870814D01*
X165621789Y-110739711D01*
X165621786Y-110739707D01*
X165620885Y-110738806D01*
X165620563Y-110738217D01*
X165617924Y-110735001D01*
X165618533Y-110734500D01*
X165587400Y-110677483D01*
X165592384Y-110607791D01*
X165634256Y-110551858D01*
X165684372Y-110529508D01*
X165733497Y-110519737D01*
X165879179Y-110459394D01*
X165931110Y-110424694D01*
X165997785Y-110403816D01*
X166065165Y-110422300D01*
X166068863Y-110424676D01*
X166120821Y-110459394D01*
X166120823Y-110459395D01*
X166120825Y-110459396D01*
X166266498Y-110519735D01*
X166266503Y-110519737D01*
X166382468Y-110542804D01*
X166421153Y-110550499D01*
X166421156Y-110550500D01*
X166421158Y-110550500D01*
X166578844Y-110550500D01*
X166578845Y-110550499D01*
X166733497Y-110519737D01*
X166879179Y-110459394D01*
X167010289Y-110371789D01*
X167121789Y-110260289D01*
X167209394Y-110129179D01*
X167212854Y-110120827D01*
X167245994Y-110040818D01*
X167269737Y-109983497D01*
X167300500Y-109828842D01*
X167300500Y-109671158D01*
X167300500Y-109671155D01*
X167300499Y-109671153D01*
X167269737Y-109516503D01*
X167246534Y-109460486D01*
X167209397Y-109370827D01*
X167209390Y-109370814D01*
X167121789Y-109239711D01*
X167121786Y-109239707D01*
X167010292Y-109128213D01*
X167010288Y-109128210D01*
X166879185Y-109040609D01*
X166879172Y-109040602D01*
X166733501Y-108980264D01*
X166733489Y-108980261D01*
X166578845Y-108949500D01*
X166578842Y-108949500D01*
X166421158Y-108949500D01*
X166421155Y-108949500D01*
X166266510Y-108980261D01*
X166266498Y-108980264D01*
X166120827Y-109040602D01*
X166120814Y-109040609D01*
X166068891Y-109075304D01*
X166002214Y-109096182D01*
X165934833Y-109077698D01*
X165931109Y-109075304D01*
X165879185Y-109040609D01*
X165879172Y-109040602D01*
X165733501Y-108980264D01*
X165733489Y-108980261D01*
X165578845Y-108949500D01*
X165578842Y-108949500D01*
X165421158Y-108949500D01*
X165421155Y-108949500D01*
X165266510Y-108980261D01*
X165266498Y-108980264D01*
X165120827Y-109040602D01*
X165120814Y-109040609D01*
X164989711Y-109128210D01*
X164989707Y-109128213D01*
X164878213Y-109239707D01*
X164878210Y-109239711D01*
X164790609Y-109370814D01*
X164790602Y-109370827D01*
X164730264Y-109516498D01*
X164730261Y-109516510D01*
X164699500Y-109671153D01*
X164699500Y-109828846D01*
X164730261Y-109983489D01*
X164730264Y-109983501D01*
X164790602Y-110129172D01*
X164790609Y-110129185D01*
X164878210Y-110260288D01*
X164878213Y-110260292D01*
X164879114Y-110261193D01*
X164879435Y-110261780D01*
X164882076Y-110264999D01*
X164881465Y-110265499D01*
X164912599Y-110322516D01*
X164907615Y-110392208D01*
X164865743Y-110448141D01*
X164815626Y-110470491D01*
X164766507Y-110480261D01*
X164766498Y-110480264D01*
X164620827Y-110540602D01*
X164620814Y-110540609D01*
X164489711Y-110628210D01*
X164489707Y-110628213D01*
X164378213Y-110739707D01*
X164378210Y-110739711D01*
X164290609Y-110870814D01*
X164290602Y-110870827D01*
X164230264Y-111016498D01*
X164230261Y-111016510D01*
X164199500Y-111171153D01*
X117611389Y-111171153D01*
X117606223Y-111147404D01*
X117605363Y-111143083D01*
X117604520Y-111138412D01*
X117406490Y-110040805D01*
X117405785Y-110036448D01*
X117399065Y-109989707D01*
X117316943Y-109418543D01*
X117774499Y-109418543D01*
X117812947Y-109611829D01*
X117812950Y-109611839D01*
X117888364Y-109793907D01*
X117888371Y-109793920D01*
X117997860Y-109957781D01*
X117997863Y-109957785D01*
X118137214Y-110097136D01*
X118137218Y-110097139D01*
X118301079Y-110206628D01*
X118301092Y-110206635D01*
X118445645Y-110266510D01*
X118483165Y-110282051D01*
X118483169Y-110282051D01*
X118483170Y-110282052D01*
X118676456Y-110320500D01*
X118676459Y-110320500D01*
X119673543Y-110320500D01*
X119803582Y-110294632D01*
X119866835Y-110282051D01*
X120048914Y-110206632D01*
X120212782Y-110097139D01*
X120352139Y-109957782D01*
X120461632Y-109793914D01*
X120537051Y-109611835D01*
X120549632Y-109548582D01*
X120575500Y-109418543D01*
X121804499Y-109418543D01*
X121842947Y-109611829D01*
X121842950Y-109611839D01*
X121918364Y-109793907D01*
X121918371Y-109793920D01*
X122027860Y-109957781D01*
X122027863Y-109957785D01*
X122167214Y-110097136D01*
X122167218Y-110097139D01*
X122331079Y-110206628D01*
X122331092Y-110206635D01*
X122475645Y-110266510D01*
X122513165Y-110282051D01*
X122513169Y-110282051D01*
X122513170Y-110282052D01*
X122706456Y-110320500D01*
X122706459Y-110320500D01*
X124003543Y-110320500D01*
X124133582Y-110294632D01*
X124196835Y-110282051D01*
X124378914Y-110206632D01*
X124542782Y-110097139D01*
X124682139Y-109957782D01*
X124791632Y-109793914D01*
X124867051Y-109611835D01*
X124879632Y-109548582D01*
X124905500Y-109418543D01*
X124905500Y-109221456D01*
X124867052Y-109028170D01*
X124867051Y-109028169D01*
X124867051Y-109028165D01*
X124847210Y-108980264D01*
X124791635Y-108846092D01*
X124791628Y-108846079D01*
X124716710Y-108733957D01*
X124716709Y-108733955D01*
X124682142Y-108682222D01*
X124682136Y-108682214D01*
X124671075Y-108671153D01*
X126699500Y-108671153D01*
X126699500Y-108828846D01*
X126730261Y-108983489D01*
X126730264Y-108983501D01*
X126790602Y-109129172D01*
X126790609Y-109129185D01*
X126878210Y-109260288D01*
X126878213Y-109260292D01*
X126989707Y-109371786D01*
X126989711Y-109371789D01*
X127120814Y-109459390D01*
X127120827Y-109459397D01*
X127258683Y-109516498D01*
X127266503Y-109519737D01*
X127421153Y-109550499D01*
X127421156Y-109550500D01*
X127421158Y-109550500D01*
X127578844Y-109550500D01*
X127578845Y-109550499D01*
X127733497Y-109519737D01*
X127876543Y-109460486D01*
X127879172Y-109459397D01*
X127879172Y-109459396D01*
X127879179Y-109459394D01*
X128010289Y-109371789D01*
X128121789Y-109260289D01*
X128209394Y-109129179D01*
X128269737Y-108983497D01*
X128300500Y-108828842D01*
X128300500Y-108671158D01*
X128300500Y-108671155D01*
X128300499Y-108671153D01*
X128274980Y-108542861D01*
X128269737Y-108516503D01*
X128219924Y-108396243D01*
X128209397Y-108370827D01*
X128209390Y-108370814D01*
X128121789Y-108239711D01*
X128121786Y-108239707D01*
X128010292Y-108128213D01*
X128010288Y-108128210D01*
X127879185Y-108040609D01*
X127879172Y-108040602D01*
X127733501Y-107980264D01*
X127733489Y-107980261D01*
X127578845Y-107949500D01*
X127578842Y-107949500D01*
X127421158Y-107949500D01*
X127421155Y-107949500D01*
X127266510Y-107980261D01*
X127266498Y-107980264D01*
X127120827Y-108040602D01*
X127120814Y-108040609D01*
X126989711Y-108128210D01*
X126989707Y-108128213D01*
X126878213Y-108239707D01*
X126878210Y-108239711D01*
X126790609Y-108370814D01*
X126790602Y-108370827D01*
X126730264Y-108516498D01*
X126730261Y-108516510D01*
X126699500Y-108671153D01*
X124671075Y-108671153D01*
X124542785Y-108542863D01*
X124542781Y-108542860D01*
X124378920Y-108433371D01*
X124378907Y-108433364D01*
X124196839Y-108357950D01*
X124196829Y-108357947D01*
X124003543Y-108319500D01*
X124003541Y-108319500D01*
X123428598Y-108319500D01*
X123361559Y-108299815D01*
X123315804Y-108247011D01*
X123305860Y-108177853D01*
X123321211Y-108133501D01*
X123335574Y-108108620D01*
X123344688Y-108092836D01*
X123380500Y-107959183D01*
X123380500Y-107820817D01*
X123344688Y-107687164D01*
X123275505Y-107567335D01*
X123177665Y-107469495D01*
X123177664Y-107469494D01*
X123177661Y-107469492D01*
X123057838Y-107400313D01*
X123057837Y-107400312D01*
X123057836Y-107400312D01*
X122924183Y-107364500D01*
X122785817Y-107364500D01*
X122652164Y-107400312D01*
X122652161Y-107400313D01*
X122532338Y-107469492D01*
X122532333Y-107469496D01*
X122434496Y-107567333D01*
X122434492Y-107567338D01*
X122365313Y-107687161D01*
X122365312Y-107687164D01*
X122329500Y-107820817D01*
X122329500Y-107959183D01*
X122345726Y-108019737D01*
X122365312Y-108092835D01*
X122365313Y-108092838D01*
X122434492Y-108212661D01*
X122439441Y-108219110D01*
X122436691Y-108221219D01*
X122462528Y-108268536D01*
X122457544Y-108338228D01*
X122415672Y-108394161D01*
X122388816Y-108409455D01*
X122331086Y-108433368D01*
X122331079Y-108433371D01*
X122167218Y-108542860D01*
X122167214Y-108542863D01*
X122027863Y-108682214D01*
X122027860Y-108682218D01*
X121918371Y-108846079D01*
X121918364Y-108846092D01*
X121842950Y-109028160D01*
X121842947Y-109028170D01*
X121804500Y-109221456D01*
X121804500Y-109221459D01*
X121804500Y-109418541D01*
X121804500Y-109418543D01*
X121804499Y-109418543D01*
X120575500Y-109418543D01*
X120575500Y-109221456D01*
X120537052Y-109028170D01*
X120537051Y-109028169D01*
X120537051Y-109028165D01*
X120517210Y-108980264D01*
X120461635Y-108846092D01*
X120461628Y-108846079D01*
X120352139Y-108682218D01*
X120352136Y-108682214D01*
X120212785Y-108542863D01*
X120212781Y-108542860D01*
X120048920Y-108433371D01*
X120048907Y-108433364D01*
X119866839Y-108357950D01*
X119866829Y-108357947D01*
X119673543Y-108319500D01*
X119673541Y-108319500D01*
X118676459Y-108319500D01*
X118676457Y-108319500D01*
X118483170Y-108357947D01*
X118483160Y-108357950D01*
X118301092Y-108433364D01*
X118301079Y-108433371D01*
X118137218Y-108542860D01*
X118137214Y-108542863D01*
X117997863Y-108682214D01*
X117997860Y-108682218D01*
X117888371Y-108846079D01*
X117888364Y-108846092D01*
X117812950Y-109028160D01*
X117812947Y-109028170D01*
X117774500Y-109221456D01*
X117774500Y-109221459D01*
X117774500Y-109418541D01*
X117774500Y-109418543D01*
X117774499Y-109418543D01*
X117316943Y-109418543D01*
X117246385Y-108927802D01*
X117245836Y-108923428D01*
X117237520Y-108846079D01*
X117126101Y-107809727D01*
X117125716Y-107805421D01*
X117045810Y-106688194D01*
X117045574Y-106683776D01*
X117045123Y-106671153D01*
X124699500Y-106671153D01*
X124699500Y-106828846D01*
X124730261Y-106983489D01*
X124730264Y-106983501D01*
X124790602Y-107129172D01*
X124790609Y-107129185D01*
X124878210Y-107260288D01*
X124878213Y-107260292D01*
X124989707Y-107371786D01*
X124989711Y-107371789D01*
X125120814Y-107459390D01*
X125120827Y-107459397D01*
X125266498Y-107519735D01*
X125266503Y-107519737D01*
X125421153Y-107550499D01*
X125421156Y-107550500D01*
X125421158Y-107550500D01*
X125578844Y-107550500D01*
X125578845Y-107550499D01*
X125733497Y-107519737D01*
X125879179Y-107459394D01*
X126010289Y-107371789D01*
X126121789Y-107260289D01*
X126181348Y-107171153D01*
X164449500Y-107171153D01*
X164449500Y-107328846D01*
X164480261Y-107483489D01*
X164480264Y-107483501D01*
X164540602Y-107629172D01*
X164540609Y-107629185D01*
X164628210Y-107760288D01*
X164628213Y-107760292D01*
X164739707Y-107871786D01*
X164739711Y-107871789D01*
X164870814Y-107959390D01*
X164870827Y-107959397D01*
X165016498Y-108019735D01*
X165016503Y-108019737D01*
X165171153Y-108050499D01*
X165171156Y-108050500D01*
X165171158Y-108050500D01*
X165328844Y-108050500D01*
X165328845Y-108050499D01*
X165483497Y-108019737D01*
X165629179Y-107959394D01*
X165760289Y-107871789D01*
X165871789Y-107760289D01*
X165959394Y-107629179D01*
X166019737Y-107483497D01*
X166050500Y-107328842D01*
X166050500Y-107171158D01*
X166050500Y-107171155D01*
X166050499Y-107171153D01*
X166019738Y-107016510D01*
X166019737Y-107016503D01*
X166006062Y-106983489D01*
X165959397Y-106870827D01*
X165959390Y-106870814D01*
X165871789Y-106739711D01*
X165871786Y-106739707D01*
X165760292Y-106628213D01*
X165760288Y-106628210D01*
X165629185Y-106540609D01*
X165629172Y-106540602D01*
X165483501Y-106480264D01*
X165483489Y-106480261D01*
X165328845Y-106449500D01*
X165328842Y-106449500D01*
X165171158Y-106449500D01*
X165171155Y-106449500D01*
X165016510Y-106480261D01*
X165016498Y-106480264D01*
X164870827Y-106540602D01*
X164870814Y-106540609D01*
X164739711Y-106628210D01*
X164739707Y-106628213D01*
X164628213Y-106739707D01*
X164628210Y-106739711D01*
X164540609Y-106870814D01*
X164540602Y-106870827D01*
X164480264Y-107016498D01*
X164480261Y-107016510D01*
X164449500Y-107171153D01*
X126181348Y-107171153D01*
X126209394Y-107129179D01*
X126269737Y-106983497D01*
X126300500Y-106828842D01*
X126300500Y-106671158D01*
X126300500Y-106671155D01*
X126300499Y-106671153D01*
X126300168Y-106669490D01*
X126269737Y-106516503D01*
X126269735Y-106516498D01*
X126209397Y-106370827D01*
X126209390Y-106370814D01*
X126121789Y-106239711D01*
X126121786Y-106239707D01*
X126010292Y-106128213D01*
X126010288Y-106128210D01*
X125879185Y-106040609D01*
X125879172Y-106040602D01*
X125733501Y-105980264D01*
X125733489Y-105980261D01*
X125578845Y-105949500D01*
X125578842Y-105949500D01*
X125421158Y-105949500D01*
X125421155Y-105949500D01*
X125266510Y-105980261D01*
X125266498Y-105980264D01*
X125120827Y-106040602D01*
X125120814Y-106040609D01*
X124989711Y-106128210D01*
X124989707Y-106128213D01*
X124878213Y-106239707D01*
X124878210Y-106239711D01*
X124790609Y-106370814D01*
X124790602Y-106370827D01*
X124730264Y-106516498D01*
X124730261Y-106516510D01*
X124699500Y-106671153D01*
X117045123Y-106671153D01*
X117045064Y-106669490D01*
X117005597Y-105564446D01*
X117005518Y-105560020D01*
X117005518Y-104921153D01*
X126199500Y-104921153D01*
X126199500Y-105078846D01*
X126230261Y-105233489D01*
X126230264Y-105233501D01*
X126290602Y-105379172D01*
X126290609Y-105379185D01*
X126378210Y-105510288D01*
X126378213Y-105510292D01*
X126489707Y-105621786D01*
X126489711Y-105621789D01*
X126620814Y-105709390D01*
X126620827Y-105709397D01*
X126766498Y-105769735D01*
X126766503Y-105769737D01*
X126921153Y-105800499D01*
X126921156Y-105800500D01*
X126921158Y-105800500D01*
X127078844Y-105800500D01*
X127078845Y-105800499D01*
X127233497Y-105769737D01*
X127346166Y-105723067D01*
X127379172Y-105709397D01*
X127379172Y-105709396D01*
X127379179Y-105709394D01*
X127510289Y-105621789D01*
X127621789Y-105510289D01*
X127709394Y-105379179D01*
X127769737Y-105233497D01*
X127800500Y-105078842D01*
X127800500Y-104921158D01*
X127800500Y-104921155D01*
X127800499Y-104921153D01*
X127782137Y-104828842D01*
X127769737Y-104766503D01*
X127730242Y-104671153D01*
X127709397Y-104620827D01*
X127709390Y-104620814D01*
X127621789Y-104489711D01*
X127621786Y-104489707D01*
X127510292Y-104378213D01*
X127510288Y-104378210D01*
X127379185Y-104290609D01*
X127379172Y-104290602D01*
X127233501Y-104230264D01*
X127233489Y-104230261D01*
X127078845Y-104199500D01*
X127078842Y-104199500D01*
X126921158Y-104199500D01*
X126921155Y-104199500D01*
X126766510Y-104230261D01*
X126766498Y-104230264D01*
X126620827Y-104290602D01*
X126620814Y-104290609D01*
X126489711Y-104378210D01*
X126489707Y-104378213D01*
X126378213Y-104489707D01*
X126378210Y-104489711D01*
X126290609Y-104620814D01*
X126290602Y-104620827D01*
X126230264Y-104766498D01*
X126230261Y-104766510D01*
X126199500Y-104921153D01*
X117005518Y-104921153D01*
X117005518Y-104439979D01*
X117005597Y-104435553D01*
X117021742Y-103983497D01*
X117045574Y-103316215D01*
X117045811Y-103311801D01*
X117050967Y-103239707D01*
X117055870Y-103171153D01*
X124699500Y-103171153D01*
X124699500Y-103328846D01*
X124730261Y-103483489D01*
X124730264Y-103483501D01*
X124790602Y-103629172D01*
X124790609Y-103629185D01*
X124878210Y-103760288D01*
X124878213Y-103760292D01*
X124989707Y-103871786D01*
X124989711Y-103871789D01*
X125120814Y-103959390D01*
X125120827Y-103959397D01*
X125266498Y-104019735D01*
X125266503Y-104019737D01*
X125421153Y-104050499D01*
X125421156Y-104050500D01*
X125421158Y-104050500D01*
X125578844Y-104050500D01*
X125578845Y-104050499D01*
X125733497Y-104019737D01*
X125879179Y-103959394D01*
X126010289Y-103871789D01*
X126121789Y-103760289D01*
X126181348Y-103671153D01*
X132449500Y-103671153D01*
X132449500Y-103828846D01*
X132480261Y-103983489D01*
X132480264Y-103983501D01*
X132540602Y-104129172D01*
X132540609Y-104129185D01*
X132628210Y-104260288D01*
X132628213Y-104260292D01*
X132739707Y-104371786D01*
X132739711Y-104371789D01*
X132870814Y-104459390D01*
X132870827Y-104459397D01*
X133016498Y-104519735D01*
X133016503Y-104519737D01*
X133151919Y-104546673D01*
X133171153Y-104550499D01*
X133171156Y-104550500D01*
X133171158Y-104550500D01*
X133328844Y-104550500D01*
X133328845Y-104550499D01*
X133483497Y-104519737D01*
X133629179Y-104459394D01*
X133760289Y-104371789D01*
X133871789Y-104260289D01*
X133959394Y-104129179D01*
X134019737Y-103983497D01*
X134050500Y-103828842D01*
X134050500Y-103671158D01*
X134050500Y-103671155D01*
X134050499Y-103671153D01*
X134026253Y-103549257D01*
X134022651Y-103531153D01*
X144799500Y-103531153D01*
X144799500Y-103688846D01*
X144830261Y-103843489D01*
X144830264Y-103843501D01*
X144890602Y-103989172D01*
X144890609Y-103989185D01*
X144978210Y-104120288D01*
X144978213Y-104120292D01*
X145080240Y-104222319D01*
X145113725Y-104283642D01*
X145108741Y-104353334D01*
X145080240Y-104397681D01*
X144978213Y-104499707D01*
X144978210Y-104499711D01*
X144890609Y-104630814D01*
X144890602Y-104630827D01*
X144830264Y-104776498D01*
X144830261Y-104776510D01*
X144799500Y-104931153D01*
X144799500Y-105088846D01*
X144830261Y-105243489D01*
X144830264Y-105243501D01*
X144890602Y-105389172D01*
X144890609Y-105389185D01*
X144978210Y-105520288D01*
X144978213Y-105520292D01*
X145089707Y-105631786D01*
X145089711Y-105631789D01*
X145220814Y-105719390D01*
X145220827Y-105719397D01*
X145330082Y-105764651D01*
X145366503Y-105779737D01*
X145421831Y-105790742D01*
X145483740Y-105823126D01*
X145518315Y-105883841D01*
X145519256Y-105888166D01*
X145530261Y-105943492D01*
X145530264Y-105943501D01*
X145590602Y-106089172D01*
X145590609Y-106089185D01*
X145678210Y-106220288D01*
X145678213Y-106220292D01*
X145789707Y-106331786D01*
X145789711Y-106331789D01*
X145920814Y-106419390D01*
X145920827Y-106419397D01*
X146066498Y-106479735D01*
X146066503Y-106479737D01*
X146221153Y-106510499D01*
X146221156Y-106510500D01*
X146221158Y-106510500D01*
X146378844Y-106510500D01*
X146378845Y-106510499D01*
X146533497Y-106479737D01*
X146679179Y-106419394D01*
X146810289Y-106331789D01*
X146810292Y-106331786D01*
X146912319Y-106229760D01*
X146973642Y-106196275D01*
X147043334Y-106201259D01*
X147087681Y-106229760D01*
X147189707Y-106331786D01*
X147189711Y-106331789D01*
X147320814Y-106419390D01*
X147320827Y-106419397D01*
X147466498Y-106479735D01*
X147466503Y-106479737D01*
X147621153Y-106510499D01*
X147621156Y-106510500D01*
X147621158Y-106510500D01*
X147778844Y-106510500D01*
X147778845Y-106510499D01*
X147933497Y-106479737D01*
X148079179Y-106419394D01*
X148210289Y-106331789D01*
X148321789Y-106220289D01*
X148409394Y-106089179D01*
X148469737Y-105943497D01*
X148480743Y-105888166D01*
X148513125Y-105826258D01*
X148573841Y-105791683D01*
X148578118Y-105790752D01*
X148633497Y-105779737D01*
X148779179Y-105719394D01*
X148910289Y-105631789D01*
X149021789Y-105520289D01*
X149109394Y-105389179D01*
X149169737Y-105243497D01*
X149200500Y-105088842D01*
X149200500Y-104931158D01*
X149200500Y-104931155D01*
X149200499Y-104931153D01*
X149198510Y-104921153D01*
X149169737Y-104776503D01*
X149126100Y-104671153D01*
X165699500Y-104671153D01*
X165699500Y-104828846D01*
X165730261Y-104983489D01*
X165730264Y-104983501D01*
X165790602Y-105129172D01*
X165790609Y-105129185D01*
X165878210Y-105260288D01*
X165878213Y-105260292D01*
X165989707Y-105371786D01*
X165989711Y-105371789D01*
X166120814Y-105459390D01*
X166120827Y-105459397D01*
X166266498Y-105519735D01*
X166266503Y-105519737D01*
X166421153Y-105550499D01*
X166421156Y-105550500D01*
X166421158Y-105550500D01*
X166578844Y-105550500D01*
X166578845Y-105550499D01*
X166733497Y-105519737D01*
X166879179Y-105459394D01*
X167010289Y-105371789D01*
X167121789Y-105260289D01*
X167209394Y-105129179D01*
X167269737Y-104983497D01*
X167300500Y-104828842D01*
X167300500Y-104671158D01*
X167300500Y-104671155D01*
X167300499Y-104671153D01*
X167269738Y-104516510D01*
X167269737Y-104516503D01*
X167262780Y-104499707D01*
X167209397Y-104370827D01*
X167209390Y-104370814D01*
X167121789Y-104239711D01*
X167121786Y-104239707D01*
X167010292Y-104128213D01*
X167010288Y-104128210D01*
X166879185Y-104040609D01*
X166879172Y-104040602D01*
X166733501Y-103980264D01*
X166733489Y-103980261D01*
X166578845Y-103949500D01*
X166578842Y-103949500D01*
X166421158Y-103949500D01*
X166421155Y-103949500D01*
X166266510Y-103980261D01*
X166266498Y-103980264D01*
X166120827Y-104040602D01*
X166120814Y-104040609D01*
X165989711Y-104128210D01*
X165989707Y-104128213D01*
X165878213Y-104239707D01*
X165878210Y-104239711D01*
X165790609Y-104370814D01*
X165790602Y-104370827D01*
X165730264Y-104516498D01*
X165730261Y-104516510D01*
X165699500Y-104671153D01*
X149126100Y-104671153D01*
X149109397Y-104630827D01*
X149109390Y-104630814D01*
X149021789Y-104499711D01*
X149021786Y-104499707D01*
X148919760Y-104397681D01*
X148886275Y-104336358D01*
X148891259Y-104266666D01*
X148919760Y-104222319D01*
X149021786Y-104120292D01*
X149021789Y-104120289D01*
X149109394Y-103989179D01*
X149169737Y-103843497D01*
X149200500Y-103688842D01*
X149200500Y-103531158D01*
X149200500Y-103531155D01*
X149200499Y-103531153D01*
X149191020Y-103483501D01*
X149169737Y-103376503D01*
X149167386Y-103370827D01*
X149109397Y-103230827D01*
X149109395Y-103230823D01*
X149109394Y-103230821D01*
X149069525Y-103171153D01*
X164199500Y-103171153D01*
X164199500Y-103328846D01*
X164230261Y-103483489D01*
X164230264Y-103483501D01*
X164290602Y-103629172D01*
X164290609Y-103629185D01*
X164378210Y-103760288D01*
X164378213Y-103760292D01*
X164489707Y-103871786D01*
X164489711Y-103871789D01*
X164620814Y-103959390D01*
X164620827Y-103959397D01*
X164766498Y-104019735D01*
X164766503Y-104019737D01*
X164921153Y-104050499D01*
X164921156Y-104050500D01*
X164921158Y-104050500D01*
X165078844Y-104050500D01*
X165078845Y-104050499D01*
X165233497Y-104019737D01*
X165379179Y-103959394D01*
X165510289Y-103871789D01*
X165621789Y-103760289D01*
X165709394Y-103629179D01*
X165769737Y-103483497D01*
X165800500Y-103328842D01*
X165800500Y-103171158D01*
X165800500Y-103171155D01*
X165800499Y-103171153D01*
X165776499Y-103050499D01*
X165769737Y-103016503D01*
X165769735Y-103016498D01*
X165709397Y-102870827D01*
X165709390Y-102870814D01*
X165621789Y-102739711D01*
X165621786Y-102739707D01*
X165510292Y-102628213D01*
X165510288Y-102628210D01*
X165379185Y-102540609D01*
X165379172Y-102540602D01*
X165233501Y-102480264D01*
X165233489Y-102480261D01*
X165078845Y-102449500D01*
X165078842Y-102449500D01*
X164921158Y-102449500D01*
X164921155Y-102449500D01*
X164766510Y-102480261D01*
X164766498Y-102480264D01*
X164620827Y-102540602D01*
X164620814Y-102540609D01*
X164489711Y-102628210D01*
X164489707Y-102628213D01*
X164378213Y-102739707D01*
X164378210Y-102739711D01*
X164290609Y-102870814D01*
X164290602Y-102870827D01*
X164230264Y-103016498D01*
X164230261Y-103016510D01*
X164199500Y-103171153D01*
X149069525Y-103171153D01*
X149021789Y-103099711D01*
X149021786Y-103099707D01*
X148910292Y-102988213D01*
X148910288Y-102988210D01*
X148779185Y-102900609D01*
X148779172Y-102900602D01*
X148633501Y-102840264D01*
X148633492Y-102840261D01*
X148578166Y-102829256D01*
X148516256Y-102796870D01*
X148481682Y-102736154D01*
X148480750Y-102731874D01*
X148469737Y-102676503D01*
X148449734Y-102628210D01*
X148409397Y-102530827D01*
X148409390Y-102530814D01*
X148321789Y-102399711D01*
X148321786Y-102399707D01*
X148210292Y-102288213D01*
X148210288Y-102288210D01*
X148081129Y-102201908D01*
X148081128Y-102201907D01*
X148079186Y-102200610D01*
X148079172Y-102200602D01*
X147933501Y-102140264D01*
X147933489Y-102140261D01*
X147778845Y-102109500D01*
X147778842Y-102109500D01*
X147621158Y-102109500D01*
X147621155Y-102109500D01*
X147466510Y-102140261D01*
X147466498Y-102140264D01*
X147320827Y-102200602D01*
X147320814Y-102200609D01*
X147189711Y-102288210D01*
X147189707Y-102288213D01*
X147087681Y-102390240D01*
X147026358Y-102423725D01*
X146956666Y-102418741D01*
X146912319Y-102390240D01*
X146810292Y-102288213D01*
X146810288Y-102288210D01*
X146679185Y-102200609D01*
X146679172Y-102200602D01*
X146533501Y-102140264D01*
X146533489Y-102140261D01*
X146378845Y-102109500D01*
X146378842Y-102109500D01*
X146221158Y-102109500D01*
X146221155Y-102109500D01*
X146066510Y-102140261D01*
X146066498Y-102140264D01*
X145920827Y-102200602D01*
X145920814Y-102200609D01*
X145789711Y-102288210D01*
X145789707Y-102288213D01*
X145678213Y-102399707D01*
X145678210Y-102399711D01*
X145590609Y-102530814D01*
X145590602Y-102530827D01*
X145530264Y-102676498D01*
X145530262Y-102676505D01*
X145519256Y-102731833D01*
X145486870Y-102793743D01*
X145426153Y-102828316D01*
X145421833Y-102829256D01*
X145366505Y-102840262D01*
X145366498Y-102840264D01*
X145220827Y-102900602D01*
X145220814Y-102900609D01*
X145089711Y-102988210D01*
X145089707Y-102988213D01*
X144978213Y-103099707D01*
X144978210Y-103099711D01*
X144890609Y-103230814D01*
X144890602Y-103230827D01*
X144830264Y-103376498D01*
X144830261Y-103376510D01*
X144799500Y-103531153D01*
X134022651Y-103531153D01*
X134019738Y-103516508D01*
X134019737Y-103516507D01*
X134019737Y-103516503D01*
X133977721Y-103415066D01*
X133959397Y-103370827D01*
X133959390Y-103370814D01*
X133871789Y-103239711D01*
X133871786Y-103239707D01*
X133760292Y-103128213D01*
X133760288Y-103128210D01*
X133629185Y-103040609D01*
X133629172Y-103040602D01*
X133483501Y-102980264D01*
X133483489Y-102980261D01*
X133328845Y-102949500D01*
X133328842Y-102949500D01*
X133171158Y-102949500D01*
X133171155Y-102949500D01*
X133016510Y-102980261D01*
X133016498Y-102980264D01*
X132870827Y-103040602D01*
X132870814Y-103040609D01*
X132739711Y-103128210D01*
X132739707Y-103128213D01*
X132628213Y-103239707D01*
X132628210Y-103239711D01*
X132540609Y-103370814D01*
X132540602Y-103370827D01*
X132480264Y-103516498D01*
X132480261Y-103516510D01*
X132449500Y-103671153D01*
X126181348Y-103671153D01*
X126209394Y-103629179D01*
X126269737Y-103483497D01*
X126300500Y-103328842D01*
X126300500Y-103171158D01*
X126300500Y-103171155D01*
X126300499Y-103171153D01*
X126276499Y-103050499D01*
X126269737Y-103016503D01*
X126269735Y-103016498D01*
X126209397Y-102870827D01*
X126209390Y-102870814D01*
X126121789Y-102739711D01*
X126121786Y-102739707D01*
X126010292Y-102628213D01*
X126010288Y-102628210D01*
X125879185Y-102540609D01*
X125879172Y-102540602D01*
X125733501Y-102480264D01*
X125733489Y-102480261D01*
X125578845Y-102449500D01*
X125578842Y-102449500D01*
X125421158Y-102449500D01*
X125421155Y-102449500D01*
X125266510Y-102480261D01*
X125266498Y-102480264D01*
X125120827Y-102540602D01*
X125120814Y-102540609D01*
X124989711Y-102628210D01*
X124989707Y-102628213D01*
X124878213Y-102739707D01*
X124878210Y-102739711D01*
X124790609Y-102870814D01*
X124790602Y-102870827D01*
X124730264Y-103016498D01*
X124730261Y-103016510D01*
X124699500Y-103171153D01*
X117055870Y-103171153D01*
X117125717Y-102194573D01*
X117126100Y-102190277D01*
X117245839Y-101076546D01*
X117246388Y-101072179D01*
X117288606Y-100778543D01*
X117774499Y-100778543D01*
X117812947Y-100971829D01*
X117812950Y-100971839D01*
X117888364Y-101153907D01*
X117888371Y-101153920D01*
X117997860Y-101317781D01*
X117997863Y-101317785D01*
X118137214Y-101457136D01*
X118137218Y-101457139D01*
X118301079Y-101566628D01*
X118301092Y-101566635D01*
X118451932Y-101629114D01*
X118483165Y-101642051D01*
X118483169Y-101642051D01*
X118483170Y-101642052D01*
X118676456Y-101680500D01*
X118676459Y-101680500D01*
X119673543Y-101680500D01*
X119803582Y-101654632D01*
X119866835Y-101642051D01*
X120048914Y-101566632D01*
X120212782Y-101457139D01*
X120352139Y-101317782D01*
X120461632Y-101153914D01*
X120537051Y-100971835D01*
X120566236Y-100825114D01*
X120575500Y-100778543D01*
X121804499Y-100778543D01*
X121842947Y-100971829D01*
X121842950Y-100971839D01*
X121918364Y-101153907D01*
X121918371Y-101153920D01*
X122027860Y-101317781D01*
X122027863Y-101317785D01*
X122167214Y-101457136D01*
X122167218Y-101457139D01*
X122331079Y-101566628D01*
X122331092Y-101566635D01*
X122388814Y-101590544D01*
X122443218Y-101634385D01*
X122465283Y-101700679D01*
X122448004Y-101768378D01*
X122438726Y-101780341D01*
X122439441Y-101780890D01*
X122434492Y-101787338D01*
X122365313Y-101907161D01*
X122365312Y-101907164D01*
X122329500Y-102040817D01*
X122329500Y-102179183D01*
X122358715Y-102288213D01*
X122365312Y-102312835D01*
X122365313Y-102312838D01*
X122434492Y-102432661D01*
X122434494Y-102432664D01*
X122434495Y-102432665D01*
X122532335Y-102530505D01*
X122532336Y-102530506D01*
X122532338Y-102530507D01*
X122592249Y-102565096D01*
X122652164Y-102599688D01*
X122785817Y-102635500D01*
X122785819Y-102635500D01*
X122924181Y-102635500D01*
X122924183Y-102635500D01*
X123057836Y-102599688D01*
X123177665Y-102530505D01*
X123275505Y-102432665D01*
X123344688Y-102312836D01*
X123380500Y-102179183D01*
X123380500Y-102171153D01*
X135699500Y-102171153D01*
X135699500Y-102328846D01*
X135730261Y-102483489D01*
X135730264Y-102483501D01*
X135790602Y-102629172D01*
X135790609Y-102629185D01*
X135878210Y-102760288D01*
X135878213Y-102760292D01*
X135989707Y-102871786D01*
X135989711Y-102871789D01*
X136120814Y-102959390D01*
X136120827Y-102959397D01*
X136194013Y-102989711D01*
X136266503Y-103019737D01*
X136421153Y-103050499D01*
X136421156Y-103050500D01*
X136421158Y-103050500D01*
X136578844Y-103050500D01*
X136578845Y-103050499D01*
X136733497Y-103019737D01*
X136879179Y-102959394D01*
X137010289Y-102871789D01*
X137121789Y-102760289D01*
X137209394Y-102629179D01*
X137269737Y-102483497D01*
X137279508Y-102434373D01*
X137311892Y-102372464D01*
X137372607Y-102337890D01*
X137442377Y-102341629D01*
X137484696Y-102368295D01*
X137485001Y-102367924D01*
X137487957Y-102370350D01*
X137488806Y-102370885D01*
X137489707Y-102371786D01*
X137489711Y-102371789D01*
X137620814Y-102459390D01*
X137620827Y-102459397D01*
X137759318Y-102516761D01*
X137766503Y-102519737D01*
X137921153Y-102550499D01*
X137921156Y-102550500D01*
X137921158Y-102550500D01*
X138078844Y-102550500D01*
X138078845Y-102550499D01*
X138233497Y-102519737D01*
X138379179Y-102459394D01*
X138510289Y-102371789D01*
X138621789Y-102260289D01*
X138709394Y-102129179D01*
X138720596Y-102102135D01*
X168149500Y-102102135D01*
X168149500Y-103897870D01*
X168149501Y-103897876D01*
X168155908Y-103957483D01*
X168206202Y-104092328D01*
X168206206Y-104092335D01*
X168292452Y-104207544D01*
X168292455Y-104207547D01*
X168407664Y-104293793D01*
X168407671Y-104293797D01*
X168539082Y-104342810D01*
X168595016Y-104384681D01*
X168619433Y-104450145D01*
X168604582Y-104518418D01*
X168583431Y-104546673D01*
X168469889Y-104660215D01*
X168344951Y-104832179D01*
X168248444Y-105021585D01*
X168182753Y-105223760D01*
X168149500Y-105433713D01*
X168149500Y-105646286D01*
X168177508Y-105823126D01*
X168182754Y-105856243D01*
X168242658Y-106040609D01*
X168248444Y-106058414D01*
X168344951Y-106247820D01*
X168469890Y-106419786D01*
X168620213Y-106570109D01*
X168792182Y-106695050D01*
X168800946Y-106699516D01*
X168851742Y-106747491D01*
X168868536Y-106815312D01*
X168845998Y-106881447D01*
X168800946Y-106920484D01*
X168792182Y-106924949D01*
X168620213Y-107049890D01*
X168469890Y-107200213D01*
X168344951Y-107372179D01*
X168248444Y-107561585D01*
X168182753Y-107763760D01*
X168149500Y-107973713D01*
X168149500Y-108186286D01*
X168178727Y-108370821D01*
X168182754Y-108396243D01*
X168230393Y-108542861D01*
X168248444Y-108598414D01*
X168344951Y-108787820D01*
X168469890Y-108959786D01*
X168620213Y-109110109D01*
X168792182Y-109235050D01*
X168800946Y-109239516D01*
X168851742Y-109287491D01*
X168868536Y-109355312D01*
X168845998Y-109421447D01*
X168800946Y-109460484D01*
X168792182Y-109464949D01*
X168620213Y-109589890D01*
X168469890Y-109740213D01*
X168344951Y-109912179D01*
X168248444Y-110101585D01*
X168182753Y-110303760D01*
X168158104Y-110459390D01*
X168149500Y-110513713D01*
X168149500Y-110726287D01*
X168182754Y-110936243D01*
X168208834Y-111016510D01*
X168248444Y-111138414D01*
X168344951Y-111327820D01*
X168469890Y-111499786D01*
X168620213Y-111650109D01*
X168792182Y-111775050D01*
X168800946Y-111779516D01*
X168851742Y-111827491D01*
X168868536Y-111895312D01*
X168845998Y-111961447D01*
X168800946Y-112000484D01*
X168792182Y-112004949D01*
X168620213Y-112129890D01*
X168469890Y-112280213D01*
X168344951Y-112452179D01*
X168248444Y-112641585D01*
X168182753Y-112843760D01*
X168159637Y-112989711D01*
X168149500Y-113053713D01*
X168149500Y-113266287D01*
X168149534Y-113266503D01*
X168174028Y-113421153D01*
X168182754Y-113476243D01*
X168216091Y-113578844D01*
X168248444Y-113678414D01*
X168344951Y-113867820D01*
X168469890Y-114039786D01*
X168620213Y-114190109D01*
X168792179Y-114315048D01*
X168792181Y-114315049D01*
X168792184Y-114315051D01*
X168981588Y-114411557D01*
X169183757Y-114477246D01*
X169393713Y-114510500D01*
X169393714Y-114510500D01*
X169606286Y-114510500D01*
X169606287Y-114510500D01*
X169816243Y-114477246D01*
X170018412Y-114411557D01*
X170207816Y-114315051D01*
X170229789Y-114299086D01*
X170379786Y-114190109D01*
X170379788Y-114190106D01*
X170379792Y-114190104D01*
X170530104Y-114039792D01*
X170530106Y-114039788D01*
X170530109Y-114039786D01*
X170655048Y-113867820D01*
X170655047Y-113867820D01*
X170655051Y-113867816D01*
X170751557Y-113678412D01*
X170817246Y-113476243D01*
X170850500Y-113266287D01*
X170850500Y-113053713D01*
X170817246Y-112843757D01*
X170751557Y-112641588D01*
X170655051Y-112452184D01*
X170655049Y-112452181D01*
X170655048Y-112452179D01*
X170530109Y-112280213D01*
X170379786Y-112129890D01*
X170207820Y-112004951D01*
X170207115Y-112004591D01*
X170199054Y-112000485D01*
X170148259Y-111952512D01*
X170131463Y-111884692D01*
X170153999Y-111818556D01*
X170199054Y-111779515D01*
X170207816Y-111775051D01*
X170229789Y-111759086D01*
X170379786Y-111650109D01*
X170379788Y-111650106D01*
X170379792Y-111650104D01*
X170530104Y-111499792D01*
X170530106Y-111499788D01*
X170530109Y-111499786D01*
X170654304Y-111328844D01*
X170655051Y-111327816D01*
X170751557Y-111138412D01*
X170817246Y-110936243D01*
X170850500Y-110726287D01*
X170850500Y-110513713D01*
X170835840Y-110421153D01*
X171699500Y-110421153D01*
X171699500Y-110578846D01*
X171730261Y-110733489D01*
X171730264Y-110733501D01*
X171790602Y-110879172D01*
X171790609Y-110879185D01*
X171878210Y-111010288D01*
X171878213Y-111010292D01*
X171989707Y-111121786D01*
X171989711Y-111121789D01*
X172120814Y-111209390D01*
X172120827Y-111209397D01*
X172266498Y-111269735D01*
X172266503Y-111269737D01*
X172421153Y-111300499D01*
X172421156Y-111300500D01*
X172421158Y-111300500D01*
X172578844Y-111300500D01*
X172578845Y-111300499D01*
X172733497Y-111269737D01*
X172879179Y-111209394D01*
X173010289Y-111121789D01*
X173121789Y-111010289D01*
X173209394Y-110879179D01*
X173212854Y-110870827D01*
X173267163Y-110739711D01*
X173269737Y-110733497D01*
X173300500Y-110578842D01*
X173300500Y-110421158D01*
X173300500Y-110421155D01*
X173300499Y-110421153D01*
X173280879Y-110322516D01*
X173269737Y-110266503D01*
X173244936Y-110206628D01*
X173209397Y-110120827D01*
X173209390Y-110120814D01*
X173121789Y-109989711D01*
X173121786Y-109989707D01*
X173010292Y-109878213D01*
X173010288Y-109878210D01*
X172879185Y-109790609D01*
X172879172Y-109790602D01*
X172733501Y-109730264D01*
X172733489Y-109730261D01*
X172578845Y-109699500D01*
X172578842Y-109699500D01*
X172421158Y-109699500D01*
X172421155Y-109699500D01*
X172266510Y-109730261D01*
X172266498Y-109730264D01*
X172120827Y-109790602D01*
X172120814Y-109790609D01*
X171989711Y-109878210D01*
X171989707Y-109878213D01*
X171878213Y-109989707D01*
X171878210Y-109989711D01*
X171790609Y-110120814D01*
X171790602Y-110120827D01*
X171730264Y-110266498D01*
X171730261Y-110266510D01*
X171699500Y-110421153D01*
X170835840Y-110421153D01*
X170817246Y-110303757D01*
X170751557Y-110101588D01*
X170655051Y-109912184D01*
X170655049Y-109912181D01*
X170655048Y-109912179D01*
X170530109Y-109740213D01*
X170379786Y-109589890D01*
X170207820Y-109464951D01*
X170207115Y-109464591D01*
X170199054Y-109460485D01*
X170148259Y-109412512D01*
X170131463Y-109344692D01*
X170153999Y-109278556D01*
X170199054Y-109239515D01*
X170207816Y-109235051D01*
X170229789Y-109219086D01*
X170379786Y-109110109D01*
X170379788Y-109110106D01*
X170379792Y-109110104D01*
X170530104Y-108959792D01*
X170530106Y-108959788D01*
X170530109Y-108959786D01*
X170655048Y-108787820D01*
X170655047Y-108787820D01*
X170655051Y-108787816D01*
X170751557Y-108598412D01*
X170817246Y-108396243D01*
X170850500Y-108186287D01*
X170850500Y-107973713D01*
X170817246Y-107763757D01*
X170751557Y-107561588D01*
X170655051Y-107372184D01*
X170655049Y-107372181D01*
X170655048Y-107372179D01*
X170530109Y-107200213D01*
X170379786Y-107049890D01*
X170207820Y-106924951D01*
X170207115Y-106924591D01*
X170199054Y-106920485D01*
X170148259Y-106872512D01*
X170131463Y-106804692D01*
X170153999Y-106738556D01*
X170199054Y-106699515D01*
X170207816Y-106695051D01*
X170250220Y-106664243D01*
X170379786Y-106570109D01*
X170379788Y-106570106D01*
X170379792Y-106570104D01*
X170530104Y-106419792D01*
X170530106Y-106419788D01*
X170530109Y-106419786D01*
X170655048Y-106247820D01*
X170655047Y-106247820D01*
X170655051Y-106247816D01*
X170751557Y-106058412D01*
X170817246Y-105856243D01*
X170850500Y-105646287D01*
X170850500Y-105433713D01*
X170817246Y-105223757D01*
X170751557Y-105021588D01*
X170655051Y-104832184D01*
X170655049Y-104832181D01*
X170655048Y-104832179D01*
X170530109Y-104660213D01*
X170416569Y-104546673D01*
X170383084Y-104485350D01*
X170388068Y-104415658D01*
X170429940Y-104359725D01*
X170460915Y-104342810D01*
X170592331Y-104293796D01*
X170707546Y-104207546D01*
X170793796Y-104092331D01*
X170844091Y-103957483D01*
X170850500Y-103897873D01*
X170850499Y-103421153D01*
X171699500Y-103421153D01*
X171699500Y-103578846D01*
X171730261Y-103733489D01*
X171730264Y-103733501D01*
X171790602Y-103879172D01*
X171790609Y-103879185D01*
X171878210Y-104010288D01*
X171878213Y-104010292D01*
X171989707Y-104121786D01*
X171989711Y-104121789D01*
X172120814Y-104209390D01*
X172120827Y-104209397D01*
X172259089Y-104266666D01*
X172266503Y-104269737D01*
X172387440Y-104293793D01*
X172421153Y-104300499D01*
X172421156Y-104300500D01*
X172421158Y-104300500D01*
X172578844Y-104300500D01*
X172578845Y-104300499D01*
X172733497Y-104269737D01*
X172879179Y-104209394D01*
X173010289Y-104121789D01*
X173121789Y-104010289D01*
X173209394Y-103879179D01*
X173269737Y-103733497D01*
X173300500Y-103578842D01*
X173300500Y-103421158D01*
X173300500Y-103421155D01*
X173300499Y-103421153D01*
X173291619Y-103376510D01*
X173269737Y-103266503D01*
X173269735Y-103266498D01*
X173209397Y-103120827D01*
X173209390Y-103120814D01*
X173121789Y-102989711D01*
X173121786Y-102989707D01*
X173010292Y-102878213D01*
X173010288Y-102878210D01*
X172879185Y-102790609D01*
X172879172Y-102790602D01*
X172733501Y-102730264D01*
X172733489Y-102730261D01*
X172578845Y-102699500D01*
X172578842Y-102699500D01*
X172421158Y-102699500D01*
X172421155Y-102699500D01*
X172266510Y-102730261D01*
X172266498Y-102730264D01*
X172120827Y-102790602D01*
X172120814Y-102790609D01*
X171989711Y-102878210D01*
X171989707Y-102878213D01*
X171878213Y-102989707D01*
X171878210Y-102989711D01*
X171790609Y-103120814D01*
X171790602Y-103120827D01*
X171730264Y-103266498D01*
X171730261Y-103266510D01*
X171699500Y-103421153D01*
X170850499Y-103421153D01*
X170850499Y-102989711D01*
X170850499Y-102102129D01*
X170850498Y-102102123D01*
X170850497Y-102102116D01*
X170844091Y-102042517D01*
X170834388Y-102016503D01*
X170793797Y-101907671D01*
X170793793Y-101907664D01*
X170707547Y-101792455D01*
X170707544Y-101792452D01*
X170592335Y-101706206D01*
X170592328Y-101706202D01*
X170457482Y-101655908D01*
X170457483Y-101655908D01*
X170397883Y-101649501D01*
X170397881Y-101649500D01*
X170397873Y-101649500D01*
X170397864Y-101649500D01*
X168602129Y-101649500D01*
X168602123Y-101649501D01*
X168542516Y-101655908D01*
X168407671Y-101706202D01*
X168407664Y-101706206D01*
X168292455Y-101792452D01*
X168292452Y-101792455D01*
X168206206Y-101907664D01*
X168206202Y-101907671D01*
X168155908Y-102042517D01*
X168149501Y-102102116D01*
X168149501Y-102102123D01*
X168149500Y-102102135D01*
X138720596Y-102102135D01*
X138769737Y-101983497D01*
X138800500Y-101828842D01*
X138800500Y-101671158D01*
X138800500Y-101671155D01*
X138800499Y-101671153D01*
X138797956Y-101658369D01*
X138769737Y-101516503D01*
X138767163Y-101510288D01*
X138709397Y-101370827D01*
X138709390Y-101370814D01*
X138621789Y-101239711D01*
X138621786Y-101239707D01*
X138556964Y-101174885D01*
X138523479Y-101113562D01*
X138528463Y-101043870D01*
X138570335Y-100987937D01*
X138597190Y-100972643D01*
X138629179Y-100959394D01*
X138760289Y-100871789D01*
X138871789Y-100760289D01*
X138959394Y-100629179D01*
X138962854Y-100620827D01*
X139017163Y-100489711D01*
X139019737Y-100483497D01*
X139050500Y-100328842D01*
X139050500Y-100171158D01*
X139050500Y-100171155D01*
X139050499Y-100171153D01*
X139024851Y-100042214D01*
X139019737Y-100016503D01*
X138995994Y-99959181D01*
X138959397Y-99870827D01*
X138959390Y-99870814D01*
X138871789Y-99739711D01*
X138871786Y-99739707D01*
X138760292Y-99628213D01*
X138760288Y-99628210D01*
X138629185Y-99540609D01*
X138629172Y-99540602D01*
X138483501Y-99480264D01*
X138483489Y-99480261D01*
X138328845Y-99449500D01*
X138328842Y-99449500D01*
X138171158Y-99449500D01*
X138171155Y-99449500D01*
X138016510Y-99480261D01*
X138016498Y-99480264D01*
X137870827Y-99540602D01*
X137870814Y-99540609D01*
X137739711Y-99628210D01*
X137739707Y-99628213D01*
X137628213Y-99739707D01*
X137628210Y-99739711D01*
X137540609Y-99870814D01*
X137540602Y-99870827D01*
X137480264Y-100016498D01*
X137480261Y-100016510D01*
X137449500Y-100171153D01*
X137449500Y-100328846D01*
X137480261Y-100483489D01*
X137480264Y-100483501D01*
X137540602Y-100629172D01*
X137540609Y-100629185D01*
X137628210Y-100760288D01*
X137628213Y-100760292D01*
X137693035Y-100825114D01*
X137726520Y-100886437D01*
X137721536Y-100956129D01*
X137679664Y-101012062D01*
X137652809Y-101027355D01*
X137620826Y-101040603D01*
X137620814Y-101040609D01*
X137489711Y-101128210D01*
X137489707Y-101128213D01*
X137378213Y-101239707D01*
X137378210Y-101239711D01*
X137290609Y-101370814D01*
X137290602Y-101370827D01*
X137230264Y-101516498D01*
X137230261Y-101516507D01*
X137220491Y-101565626D01*
X137188105Y-101627536D01*
X137127389Y-101662110D01*
X137057620Y-101658369D01*
X137015303Y-101631704D01*
X137014999Y-101632076D01*
X137012040Y-101629647D01*
X137011193Y-101629114D01*
X137010292Y-101628213D01*
X137010288Y-101628210D01*
X136879185Y-101540609D01*
X136879172Y-101540602D01*
X136733501Y-101480264D01*
X136733489Y-101480261D01*
X136578845Y-101449500D01*
X136578842Y-101449500D01*
X136421158Y-101449500D01*
X136421155Y-101449500D01*
X136266510Y-101480261D01*
X136266498Y-101480264D01*
X136120827Y-101540602D01*
X136120814Y-101540609D01*
X135989711Y-101628210D01*
X135989707Y-101628213D01*
X135878213Y-101739707D01*
X135878210Y-101739711D01*
X135790609Y-101870814D01*
X135790602Y-101870827D01*
X135730264Y-102016498D01*
X135730261Y-102016510D01*
X135699500Y-102171153D01*
X123380500Y-102171153D01*
X123380500Y-102040817D01*
X123344688Y-101907164D01*
X123344684Y-101907157D01*
X123321211Y-101866499D01*
X123304738Y-101798599D01*
X123327591Y-101732572D01*
X123382512Y-101689382D01*
X123428598Y-101680500D01*
X124003543Y-101680500D01*
X124133582Y-101654632D01*
X124196835Y-101642051D01*
X124378914Y-101566632D01*
X124542782Y-101457139D01*
X124682139Y-101317782D01*
X124791632Y-101153914D01*
X124867051Y-100971835D01*
X124870641Y-100953783D01*
X124877132Y-100921153D01*
X129949500Y-100921153D01*
X129949500Y-101078846D01*
X129980261Y-101233489D01*
X129980264Y-101233501D01*
X130040602Y-101379172D01*
X130040609Y-101379185D01*
X130128210Y-101510288D01*
X130128213Y-101510292D01*
X130239707Y-101621786D01*
X130239711Y-101621789D01*
X130370814Y-101709390D01*
X130370827Y-101709397D01*
X130444013Y-101739711D01*
X130516503Y-101769737D01*
X130661601Y-101798599D01*
X130671153Y-101800499D01*
X130671156Y-101800500D01*
X130671158Y-101800500D01*
X130828844Y-101800500D01*
X130828845Y-101800499D01*
X130983497Y-101769737D01*
X131129179Y-101709394D01*
X131260289Y-101621789D01*
X131371789Y-101510289D01*
X131459394Y-101379179D01*
X131462854Y-101370827D01*
X131517163Y-101239711D01*
X131519737Y-101233497D01*
X131550500Y-101078842D01*
X131550500Y-100921158D01*
X131550500Y-100921155D01*
X131550499Y-100921153D01*
X131544476Y-100890873D01*
X131519737Y-100766503D01*
X131517163Y-100760288D01*
X131459397Y-100620827D01*
X131459390Y-100620814D01*
X131371789Y-100489711D01*
X131371786Y-100489707D01*
X131260292Y-100378213D01*
X131260288Y-100378210D01*
X131129185Y-100290609D01*
X131129172Y-100290602D01*
X130983501Y-100230264D01*
X130983489Y-100230261D01*
X130828845Y-100199500D01*
X130828842Y-100199500D01*
X130671158Y-100199500D01*
X130671155Y-100199500D01*
X130516510Y-100230261D01*
X130516498Y-100230264D01*
X130370827Y-100290602D01*
X130370814Y-100290609D01*
X130239711Y-100378210D01*
X130239707Y-100378213D01*
X130128213Y-100489707D01*
X130128210Y-100489711D01*
X130040609Y-100620814D01*
X130040602Y-100620827D01*
X129980264Y-100766498D01*
X129980261Y-100766510D01*
X129949500Y-100921153D01*
X124877132Y-100921153D01*
X124883156Y-100890874D01*
X124883156Y-100890873D01*
X124905499Y-100778545D01*
X124905500Y-100778543D01*
X124905500Y-100581456D01*
X124867052Y-100388170D01*
X124867051Y-100388169D01*
X124867051Y-100388165D01*
X124862928Y-100378210D01*
X124791635Y-100206092D01*
X124791628Y-100206079D01*
X124682139Y-100042218D01*
X124682136Y-100042214D01*
X124542785Y-99902863D01*
X124542781Y-99902860D01*
X124378920Y-99793371D01*
X124378907Y-99793364D01*
X124196839Y-99717950D01*
X124196829Y-99717947D01*
X124003543Y-99679500D01*
X124003541Y-99679500D01*
X122706459Y-99679500D01*
X122706457Y-99679500D01*
X122513170Y-99717947D01*
X122513160Y-99717950D01*
X122331092Y-99793364D01*
X122331079Y-99793371D01*
X122167218Y-99902860D01*
X122167214Y-99902863D01*
X122027863Y-100042214D01*
X122027860Y-100042218D01*
X121918371Y-100206079D01*
X121918364Y-100206092D01*
X121842950Y-100388160D01*
X121842947Y-100388170D01*
X121804500Y-100581456D01*
X121804500Y-100581459D01*
X121804500Y-100778541D01*
X121804500Y-100778543D01*
X121804499Y-100778543D01*
X120575500Y-100778543D01*
X120575500Y-100581456D01*
X120537052Y-100388170D01*
X120537051Y-100388169D01*
X120537051Y-100388165D01*
X120532928Y-100378210D01*
X120461635Y-100206092D01*
X120461628Y-100206079D01*
X120352139Y-100042218D01*
X120352136Y-100042214D01*
X120212785Y-99902863D01*
X120212781Y-99902860D01*
X120048920Y-99793371D01*
X120048907Y-99793364D01*
X119866839Y-99717950D01*
X119866829Y-99717947D01*
X119673543Y-99679500D01*
X119673541Y-99679500D01*
X118676459Y-99679500D01*
X118676457Y-99679500D01*
X118483170Y-99717947D01*
X118483160Y-99717950D01*
X118301092Y-99793364D01*
X118301079Y-99793371D01*
X118137218Y-99902860D01*
X118137214Y-99902863D01*
X117997863Y-100042214D01*
X117997860Y-100042218D01*
X117888371Y-100206079D01*
X117888364Y-100206092D01*
X117812950Y-100388160D01*
X117812947Y-100388170D01*
X117774500Y-100581456D01*
X117774500Y-100581459D01*
X117774500Y-100778541D01*
X117774500Y-100778543D01*
X117774499Y-100778543D01*
X117288606Y-100778543D01*
X117405788Y-99963528D01*
X117406493Y-99959181D01*
X117416654Y-99902863D01*
X117605369Y-98856885D01*
X117606220Y-98852606D01*
X117844311Y-97758118D01*
X117845324Y-97753835D01*
X118061354Y-96907439D01*
X118097005Y-96847353D01*
X118159484Y-96816078D01*
X118228954Y-96823547D01*
X118283357Y-96867388D01*
X118290179Y-96878541D01*
X118378210Y-97010288D01*
X118378213Y-97010292D01*
X118489707Y-97121786D01*
X118489711Y-97121789D01*
X118620814Y-97209390D01*
X118620827Y-97209397D01*
X118763461Y-97268477D01*
X118766503Y-97269737D01*
X118921148Y-97300498D01*
X118921153Y-97300499D01*
X118921156Y-97300500D01*
X118921158Y-97300500D01*
X119078844Y-97300500D01*
X119078845Y-97300499D01*
X119233497Y-97269737D01*
X119379179Y-97209394D01*
X119510289Y-97121789D01*
X119621789Y-97010289D01*
X119709394Y-96879179D01*
X119769737Y-96733497D01*
X119800500Y-96578842D01*
X119800500Y-96421158D01*
X119800500Y-96421155D01*
X119800499Y-96421153D01*
X119769737Y-96266503D01*
X119734855Y-96182289D01*
X119709397Y-96120827D01*
X119709390Y-96120814D01*
X119621789Y-95989711D01*
X119621786Y-95989707D01*
X119510292Y-95878213D01*
X119510288Y-95878210D01*
X119379185Y-95790609D01*
X119379172Y-95790602D01*
X119233501Y-95730264D01*
X119233489Y-95730261D01*
X119078845Y-95699500D01*
X119078842Y-95699500D01*
X118921158Y-95699500D01*
X118921155Y-95699500D01*
X118766510Y-95730261D01*
X118766498Y-95730264D01*
X118620827Y-95790602D01*
X118620818Y-95790607D01*
X118605408Y-95800904D01*
X118579172Y-95809118D01*
X118554166Y-95820538D01*
X118546306Y-95819407D01*
X118538730Y-95821780D01*
X118512219Y-95814506D01*
X118485007Y-95810594D01*
X118479006Y-95805394D01*
X118471350Y-95803294D01*
X118452980Y-95782842D01*
X118432203Y-95764839D01*
X118429965Y-95757220D01*
X118424661Y-95751314D01*
X118420264Y-95724178D01*
X118412519Y-95697800D01*
X118414151Y-95686448D01*
X118413486Y-95682344D01*
X118417542Y-95662865D01*
X118427432Y-95629185D01*
X118439049Y-95589619D01*
X118440368Y-95585409D01*
X118468535Y-95500781D01*
X118586069Y-95147648D01*
X127949500Y-95147648D01*
X127949500Y-95352351D01*
X127981522Y-95554534D01*
X128044781Y-95749223D01*
X128107231Y-95871786D01*
X128120408Y-95897648D01*
X128137715Y-95931613D01*
X128258028Y-96097213D01*
X128402786Y-96241971D01*
X128491390Y-96306344D01*
X128568390Y-96362287D01*
X128683921Y-96421153D01*
X128750776Y-96455218D01*
X128750778Y-96455218D01*
X128750781Y-96455220D01*
X128838449Y-96483705D01*
X128945465Y-96518477D01*
X129046557Y-96534488D01*
X129147648Y-96550500D01*
X129147649Y-96550500D01*
X129352351Y-96550500D01*
X129352352Y-96550500D01*
X129554534Y-96518477D01*
X129749219Y-96455220D01*
X129931610Y-96362287D01*
X130063437Y-96266510D01*
X130097213Y-96241971D01*
X130097215Y-96241968D01*
X130097219Y-96241966D01*
X130241966Y-96097219D01*
X130241968Y-96097215D01*
X130241971Y-96097213D01*
X130298259Y-96019738D01*
X130362287Y-95931610D01*
X130455220Y-95749219D01*
X130518477Y-95554534D01*
X130550500Y-95352352D01*
X130550500Y-95171153D01*
X133199500Y-95171153D01*
X133199500Y-95328846D01*
X133230261Y-95483489D01*
X133230264Y-95483501D01*
X133290602Y-95629172D01*
X133290609Y-95629185D01*
X133378210Y-95760288D01*
X133378213Y-95760292D01*
X133489707Y-95871786D01*
X133489711Y-95871789D01*
X133620814Y-95959390D01*
X133620827Y-95959397D01*
X133694013Y-95989711D01*
X133766503Y-96019737D01*
X133921153Y-96050499D01*
X133921156Y-96050500D01*
X133921158Y-96050500D01*
X134078844Y-96050500D01*
X134078845Y-96050499D01*
X134233497Y-96019737D01*
X134379179Y-95959394D01*
X134510289Y-95871789D01*
X134621789Y-95760289D01*
X134709394Y-95629179D01*
X134769737Y-95483497D01*
X134800500Y-95328842D01*
X134800500Y-95171158D01*
X134800500Y-95171155D01*
X134800499Y-95171153D01*
X136199500Y-95171153D01*
X136199500Y-95328846D01*
X136230261Y-95483489D01*
X136230264Y-95483501D01*
X136290602Y-95629172D01*
X136290609Y-95629185D01*
X136378210Y-95760288D01*
X136378213Y-95760292D01*
X136489707Y-95871786D01*
X136489711Y-95871789D01*
X136620814Y-95959390D01*
X136620827Y-95959397D01*
X136694013Y-95989711D01*
X136766503Y-96019737D01*
X136921153Y-96050499D01*
X136921156Y-96050500D01*
X136921158Y-96050500D01*
X137078844Y-96050500D01*
X137078845Y-96050499D01*
X137233497Y-96019737D01*
X137379179Y-95959394D01*
X137471588Y-95897648D01*
X159449500Y-95897648D01*
X159449500Y-96102351D01*
X159481522Y-96304534D01*
X159544781Y-96499223D01*
X159596135Y-96600009D01*
X159634769Y-96675833D01*
X159637715Y-96681613D01*
X159758028Y-96847213D01*
X159902786Y-96991971D01*
X160057749Y-97104556D01*
X160068390Y-97112287D01*
X160184607Y-97171503D01*
X160250776Y-97205218D01*
X160250778Y-97205218D01*
X160250781Y-97205220D01*
X160341850Y-97234810D01*
X160445465Y-97268477D01*
X160546557Y-97284488D01*
X160647648Y-97300500D01*
X160647649Y-97300500D01*
X160852351Y-97300500D01*
X160852352Y-97300500D01*
X161054534Y-97268477D01*
X161249219Y-97205220D01*
X161431610Y-97112287D01*
X161560482Y-97018657D01*
X161597213Y-96991971D01*
X161597215Y-96991968D01*
X161597219Y-96991966D01*
X161741966Y-96847219D01*
X161782550Y-96791358D01*
X161837878Y-96748694D01*
X161907491Y-96742713D01*
X161969287Y-96775318D01*
X162000573Y-96825238D01*
X162015183Y-96869327D01*
X162015185Y-96869331D01*
X162015186Y-96869334D01*
X162107288Y-97018656D01*
X162231344Y-97142712D01*
X162380666Y-97234814D01*
X162547203Y-97289999D01*
X162649991Y-97300500D01*
X163850008Y-97300499D01*
X163952797Y-97289999D01*
X164017034Y-97268713D01*
X167649500Y-97268713D01*
X167649500Y-97731286D01*
X167682753Y-97941239D01*
X167748444Y-98143414D01*
X167844951Y-98332820D01*
X167969890Y-98504786D01*
X168120213Y-98655109D01*
X168292179Y-98780048D01*
X168292181Y-98780049D01*
X168292184Y-98780051D01*
X168481588Y-98876557D01*
X168683757Y-98942246D01*
X168893713Y-98975500D01*
X168893714Y-98975500D01*
X169106286Y-98975500D01*
X169106287Y-98975500D01*
X169316243Y-98942246D01*
X169518412Y-98876557D01*
X169707816Y-98780051D01*
X169729789Y-98764086D01*
X169879786Y-98655109D01*
X169879788Y-98655106D01*
X169879792Y-98655104D01*
X170030104Y-98504792D01*
X170149683Y-98340204D01*
X170205011Y-98297540D01*
X170274624Y-98291561D01*
X170336420Y-98324166D01*
X170350313Y-98340199D01*
X170453925Y-98482809D01*
X170469896Y-98504792D01*
X170620213Y-98655109D01*
X170792179Y-98780048D01*
X170792181Y-98780049D01*
X170792184Y-98780051D01*
X170981588Y-98876557D01*
X171183757Y-98942246D01*
X171393713Y-98975500D01*
X171393714Y-98975500D01*
X171606286Y-98975500D01*
X171606287Y-98975500D01*
X171816243Y-98942246D01*
X172018412Y-98876557D01*
X172207816Y-98780051D01*
X172379792Y-98655104D01*
X172518604Y-98516291D01*
X172579923Y-98482809D01*
X172649615Y-98487793D01*
X172705549Y-98529664D01*
X172711821Y-98538878D01*
X172715185Y-98544333D01*
X172715186Y-98544334D01*
X172807288Y-98693656D01*
X172931344Y-98817712D01*
X173080666Y-98909814D01*
X173247203Y-98964999D01*
X173349991Y-98975500D01*
X174650008Y-98975499D01*
X174752797Y-98964999D01*
X174919334Y-98909814D01*
X175068656Y-98817712D01*
X175192712Y-98693656D01*
X175284814Y-98544334D01*
X175339999Y-98377797D01*
X175350500Y-98275009D01*
X175350499Y-96724992D01*
X175346067Y-96681610D01*
X175339999Y-96622203D01*
X175339998Y-96622200D01*
X175325631Y-96578844D01*
X175284814Y-96455666D01*
X175192712Y-96306344D01*
X175068656Y-96182288D01*
X174968990Y-96120814D01*
X174919336Y-96090187D01*
X174919331Y-96090185D01*
X174917862Y-96089698D01*
X174752797Y-96035001D01*
X174752795Y-96035000D01*
X174650010Y-96024500D01*
X173349998Y-96024500D01*
X173349981Y-96024501D01*
X173247203Y-96035000D01*
X173247200Y-96035001D01*
X173080668Y-96090185D01*
X173080663Y-96090187D01*
X172931342Y-96182289D01*
X172807289Y-96306342D01*
X172711821Y-96461121D01*
X172659873Y-96507845D01*
X172590910Y-96519068D01*
X172526828Y-96491224D01*
X172518601Y-96483705D01*
X172379786Y-96344890D01*
X172207820Y-96219951D01*
X172018414Y-96123444D01*
X172018413Y-96123443D01*
X172018412Y-96123443D01*
X171816243Y-96057754D01*
X171816241Y-96057753D01*
X171816240Y-96057753D01*
X171654957Y-96032208D01*
X171606287Y-96024500D01*
X171393713Y-96024500D01*
X171345042Y-96032208D01*
X171183760Y-96057753D01*
X170981585Y-96123444D01*
X170792179Y-96219951D01*
X170620213Y-96344890D01*
X170469894Y-96495209D01*
X170469890Y-96495214D01*
X170350318Y-96659793D01*
X170294989Y-96702459D01*
X170225375Y-96708438D01*
X170163580Y-96675833D01*
X170149682Y-96659793D01*
X170030109Y-96495214D01*
X170030105Y-96495209D01*
X169879786Y-96344890D01*
X169707820Y-96219951D01*
X169518414Y-96123444D01*
X169518413Y-96123443D01*
X169518412Y-96123443D01*
X169316243Y-96057754D01*
X169316241Y-96057753D01*
X169316240Y-96057753D01*
X169154957Y-96032208D01*
X169106287Y-96024500D01*
X168893713Y-96024500D01*
X168845042Y-96032208D01*
X168683760Y-96057753D01*
X168481585Y-96123444D01*
X168292179Y-96219951D01*
X168120213Y-96344890D01*
X167969890Y-96495213D01*
X167844951Y-96667179D01*
X167748444Y-96856585D01*
X167682753Y-97058760D01*
X167649500Y-97268713D01*
X164017034Y-97268713D01*
X164119334Y-97234814D01*
X164176703Y-97199428D01*
X164243381Y-97158302D01*
X164243382Y-97158301D01*
X164268656Y-97142712D01*
X164392712Y-97018656D01*
X164484814Y-96869334D01*
X164539999Y-96702797D01*
X164550500Y-96600009D01*
X164550499Y-95399992D01*
X164539999Y-95297203D01*
X164484814Y-95130666D01*
X164392712Y-94981344D01*
X164268656Y-94857288D01*
X164119334Y-94765186D01*
X163952797Y-94710001D01*
X163952795Y-94710000D01*
X163850010Y-94699500D01*
X162649998Y-94699500D01*
X162649981Y-94699501D01*
X162547203Y-94710000D01*
X162547200Y-94710001D01*
X162380668Y-94765185D01*
X162380663Y-94765187D01*
X162231342Y-94857289D01*
X162107289Y-94981342D01*
X162015187Y-95130663D01*
X162015186Y-95130666D01*
X162001769Y-95171158D01*
X162000575Y-95174760D01*
X161960802Y-95232205D01*
X161896286Y-95259027D01*
X161827510Y-95246712D01*
X161782551Y-95208640D01*
X161741971Y-95152787D01*
X161741967Y-95152782D01*
X161597213Y-95008028D01*
X161431613Y-94887715D01*
X161431612Y-94887714D01*
X161431610Y-94887713D01*
X161371898Y-94857288D01*
X161249223Y-94794781D01*
X161054534Y-94731522D01*
X160879995Y-94703878D01*
X160852352Y-94699500D01*
X160647648Y-94699500D01*
X160623329Y-94703351D01*
X160445465Y-94731522D01*
X160250776Y-94794781D01*
X160068386Y-94887715D01*
X159902786Y-95008028D01*
X159758028Y-95152786D01*
X159637715Y-95318386D01*
X159544781Y-95500776D01*
X159481522Y-95695465D01*
X159449500Y-95897648D01*
X137471588Y-95897648D01*
X137510289Y-95871789D01*
X137510292Y-95871786D01*
X137576984Y-95805095D01*
X137621786Y-95760292D01*
X137621789Y-95760289D01*
X137709394Y-95629179D01*
X137769737Y-95483497D01*
X137800500Y-95328842D01*
X137800500Y-95171158D01*
X137800500Y-95171155D01*
X137800499Y-95171153D01*
X137796845Y-95152781D01*
X137769737Y-95016503D01*
X137740313Y-94945466D01*
X137709397Y-94870827D01*
X137709390Y-94870814D01*
X137621789Y-94739711D01*
X137621786Y-94739707D01*
X137510292Y-94628213D01*
X137510288Y-94628210D01*
X137379185Y-94540609D01*
X137379172Y-94540602D01*
X137233501Y-94480264D01*
X137233489Y-94480261D01*
X137078845Y-94449500D01*
X137078842Y-94449500D01*
X136921158Y-94449500D01*
X136921155Y-94449500D01*
X136766510Y-94480261D01*
X136766498Y-94480264D01*
X136620827Y-94540602D01*
X136620814Y-94540609D01*
X136489711Y-94628210D01*
X136489707Y-94628213D01*
X136378213Y-94739707D01*
X136378210Y-94739711D01*
X136290609Y-94870814D01*
X136290602Y-94870827D01*
X136230264Y-95016498D01*
X136230261Y-95016510D01*
X136199500Y-95171153D01*
X134800499Y-95171153D01*
X134796845Y-95152781D01*
X134769737Y-95016503D01*
X134740313Y-94945466D01*
X134709397Y-94870827D01*
X134709390Y-94870814D01*
X134621789Y-94739711D01*
X134621786Y-94739707D01*
X134510292Y-94628213D01*
X134510288Y-94628210D01*
X134379185Y-94540609D01*
X134379172Y-94540602D01*
X134233501Y-94480264D01*
X134233489Y-94480261D01*
X134078845Y-94449500D01*
X134078842Y-94449500D01*
X133921158Y-94449500D01*
X133921155Y-94449500D01*
X133766510Y-94480261D01*
X133766498Y-94480264D01*
X133620827Y-94540602D01*
X133620814Y-94540609D01*
X133489711Y-94628210D01*
X133489707Y-94628213D01*
X133378213Y-94739707D01*
X133378210Y-94739711D01*
X133290609Y-94870814D01*
X133290602Y-94870827D01*
X133230264Y-95016498D01*
X133230261Y-95016510D01*
X133199500Y-95171153D01*
X130550500Y-95171153D01*
X130550500Y-95147648D01*
X130543526Y-95103617D01*
X130518477Y-94945465D01*
X130469516Y-94794780D01*
X130455220Y-94750781D01*
X130455218Y-94750778D01*
X130455218Y-94750776D01*
X130421503Y-94684607D01*
X130362287Y-94568390D01*
X130327561Y-94520593D01*
X130241971Y-94402786D01*
X130097213Y-94258028D01*
X129931613Y-94137715D01*
X129931612Y-94137714D01*
X129931610Y-94137713D01*
X129874653Y-94108691D01*
X129749223Y-94044781D01*
X129554534Y-93981522D01*
X129379995Y-93953878D01*
X129352352Y-93949500D01*
X129147648Y-93949500D01*
X129123329Y-93953351D01*
X128945465Y-93981522D01*
X128750776Y-94044781D01*
X128568386Y-94137715D01*
X128402786Y-94258028D01*
X128258028Y-94402786D01*
X128137715Y-94568386D01*
X128044781Y-94750776D01*
X127981522Y-94945465D01*
X127949500Y-95147648D01*
X118586069Y-95147648D01*
X118794084Y-94522660D01*
X118795518Y-94518593D01*
X119186986Y-93469028D01*
X119188561Y-93465024D01*
X119617213Y-92430169D01*
X119618977Y-92426118D01*
X119621244Y-92421153D01*
X121699500Y-92421153D01*
X121699500Y-92578846D01*
X121730261Y-92733489D01*
X121730264Y-92733501D01*
X121790602Y-92879172D01*
X121790609Y-92879185D01*
X121878210Y-93010288D01*
X121878213Y-93010292D01*
X121989707Y-93121786D01*
X121989711Y-93121789D01*
X122120814Y-93209390D01*
X122120827Y-93209397D01*
X122266498Y-93269735D01*
X122266503Y-93269737D01*
X122421153Y-93300499D01*
X122421156Y-93300500D01*
X122421158Y-93300500D01*
X122578844Y-93300500D01*
X122578845Y-93300499D01*
X122733497Y-93269737D01*
X122879179Y-93209394D01*
X123010289Y-93121789D01*
X123121789Y-93010289D01*
X123209394Y-92879179D01*
X123269737Y-92733497D01*
X123300500Y-92578842D01*
X123300500Y-92421158D01*
X123300500Y-92421155D01*
X123300499Y-92421153D01*
X130449500Y-92421153D01*
X130449500Y-92578846D01*
X130480261Y-92733489D01*
X130480264Y-92733501D01*
X130540602Y-92879172D01*
X130540609Y-92879185D01*
X130628210Y-93010288D01*
X130628213Y-93010292D01*
X130739707Y-93121786D01*
X130739711Y-93121789D01*
X130870814Y-93209390D01*
X130870827Y-93209397D01*
X131016498Y-93269735D01*
X131016503Y-93269737D01*
X131171153Y-93300499D01*
X131171156Y-93300500D01*
X131171158Y-93300500D01*
X131328844Y-93300500D01*
X131328845Y-93300499D01*
X131483497Y-93269737D01*
X131629179Y-93209394D01*
X131760289Y-93121789D01*
X131871789Y-93010289D01*
X131959394Y-92879179D01*
X132019737Y-92733497D01*
X132050500Y-92578842D01*
X132050500Y-92421158D01*
X132050500Y-92421155D01*
X132050499Y-92421153D01*
X152449500Y-92421153D01*
X152449500Y-92578846D01*
X152480261Y-92733489D01*
X152480264Y-92733501D01*
X152540602Y-92879172D01*
X152540609Y-92879185D01*
X152628210Y-93010288D01*
X152628213Y-93010292D01*
X152739707Y-93121786D01*
X152739711Y-93121789D01*
X152870814Y-93209390D01*
X152870827Y-93209397D01*
X153016498Y-93269735D01*
X153016503Y-93269737D01*
X153171153Y-93300499D01*
X153171156Y-93300500D01*
X153171158Y-93300500D01*
X153328844Y-93300500D01*
X153328845Y-93300499D01*
X153483497Y-93269737D01*
X153629179Y-93209394D01*
X153760289Y-93121789D01*
X153871789Y-93010289D01*
X153959394Y-92879179D01*
X154019737Y-92733497D01*
X154050500Y-92578842D01*
X154050500Y-92421158D01*
X154050500Y-92421155D01*
X154050499Y-92421153D01*
X154019738Y-92266510D01*
X154019737Y-92266503D01*
X154019735Y-92266498D01*
X153959397Y-92120827D01*
X153959390Y-92120814D01*
X153871789Y-91989711D01*
X153871786Y-91989707D01*
X153760292Y-91878213D01*
X153760288Y-91878210D01*
X153629185Y-91790609D01*
X153629172Y-91790602D01*
X153483501Y-91730264D01*
X153483489Y-91730261D01*
X153328845Y-91699500D01*
X153328842Y-91699500D01*
X153171158Y-91699500D01*
X153171155Y-91699500D01*
X153016510Y-91730261D01*
X153016498Y-91730264D01*
X152870827Y-91790602D01*
X152870814Y-91790609D01*
X152739711Y-91878210D01*
X152739707Y-91878213D01*
X152628213Y-91989707D01*
X152628210Y-91989711D01*
X152540609Y-92120814D01*
X152540602Y-92120827D01*
X152480264Y-92266498D01*
X152480261Y-92266510D01*
X152449500Y-92421153D01*
X132050499Y-92421153D01*
X132019738Y-92266510D01*
X132019737Y-92266503D01*
X132019735Y-92266498D01*
X131959397Y-92120827D01*
X131959390Y-92120814D01*
X131871789Y-91989711D01*
X131871786Y-91989707D01*
X131760292Y-91878213D01*
X131760288Y-91878210D01*
X131629185Y-91790609D01*
X131629172Y-91790602D01*
X131483501Y-91730264D01*
X131483489Y-91730261D01*
X131328845Y-91699500D01*
X131328842Y-91699500D01*
X131171158Y-91699500D01*
X131171155Y-91699500D01*
X131016510Y-91730261D01*
X131016498Y-91730264D01*
X130870827Y-91790602D01*
X130870814Y-91790609D01*
X130739711Y-91878210D01*
X130739707Y-91878213D01*
X130628213Y-91989707D01*
X130628210Y-91989711D01*
X130540609Y-92120814D01*
X130540602Y-92120827D01*
X130480264Y-92266498D01*
X130480261Y-92266510D01*
X130449500Y-92421153D01*
X123300499Y-92421153D01*
X123269738Y-92266510D01*
X123269737Y-92266503D01*
X123269735Y-92266498D01*
X123209397Y-92120827D01*
X123209390Y-92120814D01*
X123121789Y-91989711D01*
X123121786Y-91989707D01*
X123010292Y-91878213D01*
X123010288Y-91878210D01*
X122879185Y-91790609D01*
X122879172Y-91790602D01*
X122733501Y-91730264D01*
X122733489Y-91730261D01*
X122578845Y-91699500D01*
X122578842Y-91699500D01*
X122421158Y-91699500D01*
X122421155Y-91699500D01*
X122266510Y-91730261D01*
X122266498Y-91730264D01*
X122120827Y-91790602D01*
X122120814Y-91790609D01*
X121989711Y-91878210D01*
X121989707Y-91878213D01*
X121878213Y-91989707D01*
X121878210Y-91989711D01*
X121790609Y-92120814D01*
X121790602Y-92120827D01*
X121730264Y-92266498D01*
X121730261Y-92266510D01*
X121699500Y-92421153D01*
X119621244Y-92421153D01*
X120084245Y-91407322D01*
X120086153Y-91403334D01*
X120587518Y-90401733D01*
X120589570Y-90397810D01*
X121126359Y-89414755D01*
X121128502Y-89410989D01*
X121700083Y-88447643D01*
X121702402Y-88443892D01*
X121877680Y-88171153D01*
X126949500Y-88171153D01*
X126949500Y-88328846D01*
X126980261Y-88483489D01*
X126980264Y-88483501D01*
X127040602Y-88629172D01*
X127040609Y-88629185D01*
X127128210Y-88760288D01*
X127128213Y-88760292D01*
X127239707Y-88871786D01*
X127239711Y-88871789D01*
X127370814Y-88959390D01*
X127370827Y-88959397D01*
X127516498Y-89019735D01*
X127516503Y-89019737D01*
X127671153Y-89050499D01*
X127671156Y-89050500D01*
X127671158Y-89050500D01*
X127828844Y-89050500D01*
X127828845Y-89050499D01*
X127983497Y-89019737D01*
X128129179Y-88959394D01*
X128260289Y-88871789D01*
X128371789Y-88760289D01*
X128431348Y-88671153D01*
X136699500Y-88671153D01*
X136699500Y-88828846D01*
X136730261Y-88983489D01*
X136730264Y-88983501D01*
X136790602Y-89129172D01*
X136790609Y-89129185D01*
X136878210Y-89260288D01*
X136878213Y-89260292D01*
X136989707Y-89371786D01*
X136989711Y-89371789D01*
X137120814Y-89459390D01*
X137120827Y-89459397D01*
X137266498Y-89519735D01*
X137266503Y-89519737D01*
X137421153Y-89550499D01*
X137421156Y-89550500D01*
X137421158Y-89550500D01*
X137578844Y-89550500D01*
X137578845Y-89550499D01*
X137733497Y-89519737D01*
X137879179Y-89459394D01*
X138010289Y-89371789D01*
X138121789Y-89260289D01*
X138209394Y-89129179D01*
X138269737Y-88983497D01*
X138300500Y-88828842D01*
X138300500Y-88671158D01*
X138300500Y-88671155D01*
X138300499Y-88671153D01*
X138269738Y-88516510D01*
X138269737Y-88516503D01*
X138230242Y-88421153D01*
X139699500Y-88421153D01*
X139699500Y-88578846D01*
X139730261Y-88733489D01*
X139730264Y-88733501D01*
X139790602Y-88879172D01*
X139790609Y-88879185D01*
X139878210Y-89010288D01*
X139878213Y-89010292D01*
X139989707Y-89121786D01*
X139989711Y-89121789D01*
X140120814Y-89209390D01*
X140120827Y-89209397D01*
X140266498Y-89269735D01*
X140266503Y-89269737D01*
X140421153Y-89300499D01*
X140421156Y-89300500D01*
X140421158Y-89300500D01*
X140578844Y-89300500D01*
X140578845Y-89300499D01*
X140733497Y-89269737D01*
X140879179Y-89209394D01*
X141010289Y-89121789D01*
X141121789Y-89010289D01*
X141209394Y-88879179D01*
X141269737Y-88733497D01*
X141282138Y-88671153D01*
X158949500Y-88671153D01*
X158949500Y-88828846D01*
X158980261Y-88983489D01*
X158980264Y-88983501D01*
X159040602Y-89129172D01*
X159040609Y-89129185D01*
X159128210Y-89260288D01*
X159128213Y-89260292D01*
X159239707Y-89371786D01*
X159239711Y-89371789D01*
X159370814Y-89459390D01*
X159370827Y-89459397D01*
X159516498Y-89519735D01*
X159516503Y-89519737D01*
X159671153Y-89550499D01*
X159671156Y-89550500D01*
X159671158Y-89550500D01*
X159828844Y-89550500D01*
X159828845Y-89550499D01*
X159983497Y-89519737D01*
X160129179Y-89459394D01*
X160260289Y-89371789D01*
X160371789Y-89260289D01*
X160459394Y-89129179D01*
X160519737Y-88983497D01*
X160550500Y-88828842D01*
X160550500Y-88671158D01*
X160550500Y-88671155D01*
X160550499Y-88671153D01*
X160519738Y-88516510D01*
X160519737Y-88516503D01*
X160480242Y-88421153D01*
X161949500Y-88421153D01*
X161949500Y-88578846D01*
X161980261Y-88733489D01*
X161980264Y-88733501D01*
X162040602Y-88879172D01*
X162040609Y-88879185D01*
X162128210Y-89010288D01*
X162128213Y-89010292D01*
X162239707Y-89121786D01*
X162239711Y-89121789D01*
X162370814Y-89209390D01*
X162370827Y-89209397D01*
X162516498Y-89269735D01*
X162516503Y-89269737D01*
X162671153Y-89300499D01*
X162671156Y-89300500D01*
X162671158Y-89300500D01*
X162828844Y-89300500D01*
X162828845Y-89300499D01*
X162983497Y-89269737D01*
X163129179Y-89209394D01*
X163260289Y-89121789D01*
X163371789Y-89010289D01*
X163459394Y-88879179D01*
X163519737Y-88733497D01*
X163550500Y-88578842D01*
X163550500Y-88421158D01*
X163550500Y-88421155D01*
X163550499Y-88421153D01*
X163519738Y-88266510D01*
X163519737Y-88266503D01*
X163519735Y-88266498D01*
X163459397Y-88120827D01*
X163459390Y-88120814D01*
X163371789Y-87989711D01*
X163371786Y-87989707D01*
X163260292Y-87878213D01*
X163260288Y-87878210D01*
X163129185Y-87790609D01*
X163129172Y-87790602D01*
X162983501Y-87730264D01*
X162983489Y-87730261D01*
X162828845Y-87699500D01*
X162828842Y-87699500D01*
X162671158Y-87699500D01*
X162671155Y-87699500D01*
X162516510Y-87730261D01*
X162516498Y-87730264D01*
X162370827Y-87790602D01*
X162370814Y-87790609D01*
X162239711Y-87878210D01*
X162239707Y-87878213D01*
X162128213Y-87989707D01*
X162128210Y-87989711D01*
X162040609Y-88120814D01*
X162040602Y-88120827D01*
X161980264Y-88266498D01*
X161980261Y-88266510D01*
X161949500Y-88421153D01*
X160480242Y-88421153D01*
X160479933Y-88420408D01*
X160459397Y-88370827D01*
X160459390Y-88370814D01*
X160371789Y-88239711D01*
X160371786Y-88239707D01*
X160260292Y-88128213D01*
X160260288Y-88128210D01*
X160129185Y-88040609D01*
X160129172Y-88040602D01*
X159983501Y-87980264D01*
X159983489Y-87980261D01*
X159828845Y-87949500D01*
X159828842Y-87949500D01*
X159671158Y-87949500D01*
X159671155Y-87949500D01*
X159516510Y-87980261D01*
X159516498Y-87980264D01*
X159370827Y-88040602D01*
X159370814Y-88040609D01*
X159239711Y-88128210D01*
X159239707Y-88128213D01*
X159128213Y-88239707D01*
X159128210Y-88239711D01*
X159040609Y-88370814D01*
X159040602Y-88370827D01*
X158980264Y-88516498D01*
X158980261Y-88516510D01*
X158949500Y-88671153D01*
X141282138Y-88671153D01*
X141298791Y-88587433D01*
X141300500Y-88578844D01*
X141300500Y-88421155D01*
X141300499Y-88421153D01*
X141269738Y-88266510D01*
X141269737Y-88266503D01*
X141269735Y-88266498D01*
X141209397Y-88120827D01*
X141209390Y-88120814D01*
X141121789Y-87989711D01*
X141121786Y-87989707D01*
X141010292Y-87878213D01*
X141010288Y-87878210D01*
X140879185Y-87790609D01*
X140879172Y-87790602D01*
X140733501Y-87730264D01*
X140733489Y-87730261D01*
X140578845Y-87699500D01*
X140578842Y-87699500D01*
X140421158Y-87699500D01*
X140421155Y-87699500D01*
X140266510Y-87730261D01*
X140266498Y-87730264D01*
X140120827Y-87790602D01*
X140120814Y-87790609D01*
X139989711Y-87878210D01*
X139989707Y-87878213D01*
X139878213Y-87989707D01*
X139878210Y-87989711D01*
X139790609Y-88120814D01*
X139790602Y-88120827D01*
X139730264Y-88266498D01*
X139730261Y-88266510D01*
X139699500Y-88421153D01*
X138230242Y-88421153D01*
X138229933Y-88420408D01*
X138209397Y-88370827D01*
X138209390Y-88370814D01*
X138121789Y-88239711D01*
X138121786Y-88239707D01*
X138010292Y-88128213D01*
X138010288Y-88128210D01*
X137879185Y-88040609D01*
X137879172Y-88040602D01*
X137733501Y-87980264D01*
X137733489Y-87980261D01*
X137578845Y-87949500D01*
X137578842Y-87949500D01*
X137421158Y-87949500D01*
X137421155Y-87949500D01*
X137266510Y-87980261D01*
X137266498Y-87980264D01*
X137120827Y-88040602D01*
X137120814Y-88040609D01*
X136989711Y-88128210D01*
X136989707Y-88128213D01*
X136878213Y-88239707D01*
X136878210Y-88239711D01*
X136790609Y-88370814D01*
X136790602Y-88370827D01*
X136730264Y-88516498D01*
X136730261Y-88516510D01*
X136699500Y-88671153D01*
X128431348Y-88671153D01*
X128459394Y-88629179D01*
X128519737Y-88483497D01*
X128550500Y-88328842D01*
X128550500Y-88171158D01*
X128550500Y-88171155D01*
X128550499Y-88171153D01*
X128524531Y-88040606D01*
X128519737Y-88016503D01*
X128519735Y-88016498D01*
X128459397Y-87870827D01*
X128459390Y-87870814D01*
X128371789Y-87739711D01*
X128371786Y-87739707D01*
X128260292Y-87628213D01*
X128260288Y-87628210D01*
X128129185Y-87540609D01*
X128129172Y-87540602D01*
X127983501Y-87480264D01*
X127983489Y-87480261D01*
X127828845Y-87449500D01*
X127828842Y-87449500D01*
X127671158Y-87449500D01*
X127671155Y-87449500D01*
X127516510Y-87480261D01*
X127516498Y-87480264D01*
X127370827Y-87540602D01*
X127370814Y-87540609D01*
X127239711Y-87628210D01*
X127239707Y-87628213D01*
X127128213Y-87739707D01*
X127128210Y-87739711D01*
X127040609Y-87870814D01*
X127040602Y-87870827D01*
X126980264Y-88016498D01*
X126980261Y-88016510D01*
X126949500Y-88171153D01*
X121877680Y-88171153D01*
X122307951Y-87501637D01*
X122310378Y-87498007D01*
X122320450Y-87483501D01*
X122537317Y-87171153D01*
X134199500Y-87171153D01*
X134199500Y-87328846D01*
X134230261Y-87483489D01*
X134230264Y-87483501D01*
X134290602Y-87629172D01*
X134290609Y-87629185D01*
X134378210Y-87760288D01*
X134378213Y-87760292D01*
X134489707Y-87871786D01*
X134489711Y-87871789D01*
X134620814Y-87959390D01*
X134620827Y-87959397D01*
X134694013Y-87989711D01*
X134766503Y-88019737D01*
X134921153Y-88050499D01*
X134921156Y-88050500D01*
X134921158Y-88050500D01*
X135078844Y-88050500D01*
X135078845Y-88050499D01*
X135233497Y-88019737D01*
X135379179Y-87959394D01*
X135510289Y-87871789D01*
X135621789Y-87760289D01*
X135709394Y-87629179D01*
X135769737Y-87483497D01*
X135800500Y-87328842D01*
X135800500Y-87171158D01*
X135800500Y-87171155D01*
X135800499Y-87171153D01*
X156699500Y-87171153D01*
X156699500Y-87328846D01*
X156730261Y-87483489D01*
X156730264Y-87483501D01*
X156790602Y-87629172D01*
X156790609Y-87629185D01*
X156878210Y-87760288D01*
X156878213Y-87760292D01*
X156989707Y-87871786D01*
X156989711Y-87871789D01*
X157120814Y-87959390D01*
X157120827Y-87959397D01*
X157194013Y-87989711D01*
X157266503Y-88019737D01*
X157421153Y-88050499D01*
X157421156Y-88050500D01*
X157421158Y-88050500D01*
X157578844Y-88050500D01*
X157578845Y-88050499D01*
X157733497Y-88019737D01*
X157879179Y-87959394D01*
X158010289Y-87871789D01*
X158121789Y-87760289D01*
X158209394Y-87629179D01*
X158269737Y-87483497D01*
X158300500Y-87328842D01*
X158300500Y-87171158D01*
X158300500Y-87171155D01*
X158300499Y-87171153D01*
X158269738Y-87016510D01*
X158269737Y-87016503D01*
X158269735Y-87016498D01*
X158209397Y-86870827D01*
X158209390Y-86870814D01*
X158121789Y-86739711D01*
X158121786Y-86739707D01*
X158010292Y-86628213D01*
X158010288Y-86628210D01*
X157879185Y-86540609D01*
X157879172Y-86540602D01*
X157733501Y-86480264D01*
X157733489Y-86480261D01*
X157578845Y-86449500D01*
X157578842Y-86449500D01*
X157421158Y-86449500D01*
X157421155Y-86449500D01*
X157266510Y-86480261D01*
X157266498Y-86480264D01*
X157120827Y-86540602D01*
X157120814Y-86540609D01*
X156989711Y-86628210D01*
X156989707Y-86628213D01*
X156878213Y-86739707D01*
X156878210Y-86739711D01*
X156790609Y-86870814D01*
X156790602Y-86870827D01*
X156730264Y-87016498D01*
X156730261Y-87016510D01*
X156699500Y-87171153D01*
X135800499Y-87171153D01*
X135769738Y-87016510D01*
X135769737Y-87016503D01*
X135769735Y-87016498D01*
X135709397Y-86870827D01*
X135709390Y-86870814D01*
X135621789Y-86739711D01*
X135621786Y-86739707D01*
X135510292Y-86628213D01*
X135510288Y-86628210D01*
X135379185Y-86540609D01*
X135379172Y-86540602D01*
X135233501Y-86480264D01*
X135233489Y-86480261D01*
X135078845Y-86449500D01*
X135078842Y-86449500D01*
X134921158Y-86449500D01*
X134921155Y-86449500D01*
X134766510Y-86480261D01*
X134766498Y-86480264D01*
X134620827Y-86540602D01*
X134620814Y-86540609D01*
X134489711Y-86628210D01*
X134489707Y-86628213D01*
X134378213Y-86739707D01*
X134378210Y-86739711D01*
X134290609Y-86870814D01*
X134290602Y-86870827D01*
X134230264Y-87016498D01*
X134230261Y-87016510D01*
X134199500Y-87171153D01*
X122537317Y-87171153D01*
X122949206Y-86577920D01*
X122951730Y-86574421D01*
X123622987Y-85677725D01*
X123625682Y-85674257D01*
X123628183Y-85671153D01*
X125699500Y-85671153D01*
X125699500Y-85828846D01*
X125730261Y-85983489D01*
X125730264Y-85983501D01*
X125790602Y-86129172D01*
X125790609Y-86129185D01*
X125878210Y-86260288D01*
X125878213Y-86260292D01*
X125989707Y-86371786D01*
X125989711Y-86371789D01*
X126120814Y-86459390D01*
X126120827Y-86459397D01*
X126266498Y-86519735D01*
X126266503Y-86519737D01*
X126421153Y-86550499D01*
X126421156Y-86550500D01*
X126421158Y-86550500D01*
X126578844Y-86550500D01*
X126578845Y-86550499D01*
X126733497Y-86519737D01*
X126879179Y-86459394D01*
X127010289Y-86371789D01*
X127121789Y-86260289D01*
X127209394Y-86129179D01*
X127269737Y-85983497D01*
X127300500Y-85828842D01*
X127300500Y-85671158D01*
X127300500Y-85671155D01*
X127300499Y-85671153D01*
X127283812Y-85587262D01*
X127269737Y-85516503D01*
X127267163Y-85510288D01*
X127209397Y-85370827D01*
X127209390Y-85370814D01*
X127121790Y-85239712D01*
X127121784Y-85239705D01*
X127053232Y-85171153D01*
X130449500Y-85171153D01*
X130449500Y-85328846D01*
X130480261Y-85483489D01*
X130480264Y-85483501D01*
X130540602Y-85629172D01*
X130540609Y-85629185D01*
X130628210Y-85760288D01*
X130628213Y-85760292D01*
X130739707Y-85871786D01*
X130739711Y-85871789D01*
X130870814Y-85959390D01*
X130870827Y-85959397D01*
X131016498Y-86019735D01*
X131016503Y-86019737D01*
X131171153Y-86050499D01*
X131171156Y-86050500D01*
X131171158Y-86050500D01*
X131328844Y-86050500D01*
X131328845Y-86050499D01*
X131483497Y-86019737D01*
X131629179Y-85959394D01*
X131686411Y-85921153D01*
X139199500Y-85921153D01*
X139199500Y-86078846D01*
X139230261Y-86233489D01*
X139230264Y-86233501D01*
X139290602Y-86379172D01*
X139290609Y-86379185D01*
X139378210Y-86510288D01*
X139378213Y-86510292D01*
X139489707Y-86621786D01*
X139489711Y-86621789D01*
X139620814Y-86709390D01*
X139620827Y-86709397D01*
X139694013Y-86739711D01*
X139766503Y-86769737D01*
X139921153Y-86800499D01*
X139921156Y-86800500D01*
X139921158Y-86800500D01*
X140078844Y-86800500D01*
X140078845Y-86800499D01*
X140233497Y-86769737D01*
X140346166Y-86723067D01*
X140379172Y-86709397D01*
X140379172Y-86709396D01*
X140379179Y-86709394D01*
X140510289Y-86621789D01*
X140621789Y-86510289D01*
X140709394Y-86379179D01*
X140769737Y-86233497D01*
X140800500Y-86078842D01*
X140800500Y-85921158D01*
X140800500Y-85921155D01*
X140800499Y-85921153D01*
X145699500Y-85921153D01*
X145699500Y-86078846D01*
X145730261Y-86233489D01*
X145730264Y-86233501D01*
X145790602Y-86379172D01*
X145790609Y-86379185D01*
X145878210Y-86510288D01*
X145878213Y-86510292D01*
X145989707Y-86621786D01*
X145989711Y-86621789D01*
X146120814Y-86709390D01*
X146120827Y-86709397D01*
X146194013Y-86739711D01*
X146266503Y-86769737D01*
X146421153Y-86800499D01*
X146421156Y-86800500D01*
X146421158Y-86800500D01*
X146578844Y-86800500D01*
X146578845Y-86800499D01*
X146733497Y-86769737D01*
X146846166Y-86723067D01*
X146879172Y-86709397D01*
X146879172Y-86709396D01*
X146879179Y-86709394D01*
X147010289Y-86621789D01*
X147121789Y-86510289D01*
X147209394Y-86379179D01*
X147269737Y-86233497D01*
X147300500Y-86078842D01*
X147300500Y-85921158D01*
X147300500Y-85921155D01*
X147300499Y-85921153D01*
X147269738Y-85766510D01*
X147269737Y-85766503D01*
X147232976Y-85677753D01*
X147209397Y-85620827D01*
X147209390Y-85620814D01*
X147121789Y-85489711D01*
X147121786Y-85489707D01*
X147010292Y-85378213D01*
X147010288Y-85378210D01*
X146879185Y-85290609D01*
X146879173Y-85290602D01*
X146852674Y-85279627D01*
X146733501Y-85230264D01*
X146733489Y-85230261D01*
X146578845Y-85199500D01*
X146578842Y-85199500D01*
X146421158Y-85199500D01*
X146421155Y-85199500D01*
X146266510Y-85230261D01*
X146266498Y-85230264D01*
X146120827Y-85290602D01*
X146120814Y-85290609D01*
X145989711Y-85378210D01*
X145989707Y-85378213D01*
X145878213Y-85489707D01*
X145878210Y-85489711D01*
X145790609Y-85620814D01*
X145790602Y-85620827D01*
X145730264Y-85766498D01*
X145730261Y-85766510D01*
X145699500Y-85921153D01*
X140800499Y-85921153D01*
X140769738Y-85766510D01*
X140769737Y-85766503D01*
X140732976Y-85677753D01*
X140709397Y-85620827D01*
X140709390Y-85620814D01*
X140621789Y-85489711D01*
X140621786Y-85489707D01*
X140510292Y-85378213D01*
X140510288Y-85378210D01*
X140379185Y-85290609D01*
X140379172Y-85290602D01*
X140233501Y-85230264D01*
X140233489Y-85230261D01*
X140078845Y-85199500D01*
X140078842Y-85199500D01*
X139921158Y-85199500D01*
X139921155Y-85199500D01*
X139766510Y-85230261D01*
X139766498Y-85230264D01*
X139620827Y-85290602D01*
X139620814Y-85290609D01*
X139489711Y-85378210D01*
X139489707Y-85378213D01*
X139378213Y-85489707D01*
X139378210Y-85489711D01*
X139290609Y-85620814D01*
X139290602Y-85620827D01*
X139230264Y-85766498D01*
X139230261Y-85766510D01*
X139199500Y-85921153D01*
X131686411Y-85921153D01*
X131760289Y-85871789D01*
X131760292Y-85871786D01*
X131804694Y-85827385D01*
X131871786Y-85760292D01*
X131871789Y-85760289D01*
X131959394Y-85629179D01*
X131962854Y-85620827D01*
X131976757Y-85587260D01*
X132019737Y-85483497D01*
X132050500Y-85328842D01*
X132050500Y-85171158D01*
X132050500Y-85171155D01*
X132050499Y-85171153D01*
X152449500Y-85171153D01*
X152449500Y-85328846D01*
X152480261Y-85483489D01*
X152480264Y-85483501D01*
X152540602Y-85629172D01*
X152540609Y-85629185D01*
X152628210Y-85760288D01*
X152628213Y-85760292D01*
X152739707Y-85871786D01*
X152739711Y-85871789D01*
X152870814Y-85959390D01*
X152870827Y-85959397D01*
X153016498Y-86019735D01*
X153016503Y-86019737D01*
X153171153Y-86050499D01*
X153171156Y-86050500D01*
X153171158Y-86050500D01*
X153328844Y-86050500D01*
X153328845Y-86050499D01*
X153483497Y-86019737D01*
X153629179Y-85959394D01*
X153760289Y-85871789D01*
X153871789Y-85760289D01*
X153959394Y-85629179D01*
X153962854Y-85620827D01*
X153976757Y-85587260D01*
X154019737Y-85483497D01*
X154050500Y-85328842D01*
X154050500Y-85171158D01*
X154050500Y-85171155D01*
X154050499Y-85171153D01*
X154024531Y-85040606D01*
X154019737Y-85016503D01*
X154019735Y-85016498D01*
X153959397Y-84870827D01*
X153959390Y-84870814D01*
X153871789Y-84739711D01*
X153871786Y-84739707D01*
X153760292Y-84628213D01*
X153760288Y-84628210D01*
X153629185Y-84540609D01*
X153629172Y-84540602D01*
X153483501Y-84480264D01*
X153483489Y-84480261D01*
X153328845Y-84449500D01*
X153328842Y-84449500D01*
X153171158Y-84449500D01*
X153171155Y-84449500D01*
X153016510Y-84480261D01*
X153016498Y-84480264D01*
X152870827Y-84540602D01*
X152870814Y-84540609D01*
X152739711Y-84628210D01*
X152739707Y-84628213D01*
X152628213Y-84739707D01*
X152628210Y-84739711D01*
X152540609Y-84870814D01*
X152540602Y-84870827D01*
X152480264Y-85016498D01*
X152480261Y-85016510D01*
X152449500Y-85171153D01*
X132050499Y-85171153D01*
X132024531Y-85040606D01*
X132019737Y-85016503D01*
X132019735Y-85016498D01*
X131959397Y-84870827D01*
X131959390Y-84870814D01*
X131871789Y-84739711D01*
X131871786Y-84739707D01*
X131760292Y-84628213D01*
X131760288Y-84628210D01*
X131629185Y-84540609D01*
X131629172Y-84540602D01*
X131483501Y-84480264D01*
X131483489Y-84480261D01*
X131328845Y-84449500D01*
X131328842Y-84449500D01*
X131171158Y-84449500D01*
X131171155Y-84449500D01*
X131016510Y-84480261D01*
X131016498Y-84480264D01*
X130870827Y-84540602D01*
X130870814Y-84540609D01*
X130739711Y-84628210D01*
X130739707Y-84628213D01*
X130628213Y-84739707D01*
X130628210Y-84739711D01*
X130540609Y-84870814D01*
X130540602Y-84870827D01*
X130480264Y-85016498D01*
X130480261Y-85016510D01*
X130449500Y-85171153D01*
X127053232Y-85171153D01*
X127010292Y-85128213D01*
X127010288Y-85128210D01*
X126879185Y-85040609D01*
X126879172Y-85040602D01*
X126733501Y-84980264D01*
X126733489Y-84980261D01*
X126578845Y-84949500D01*
X126578842Y-84949500D01*
X126421158Y-84949500D01*
X126421155Y-84949500D01*
X126266510Y-84980261D01*
X126266498Y-84980264D01*
X126120827Y-85040602D01*
X126120814Y-85040609D01*
X125989711Y-85128210D01*
X125989707Y-85128213D01*
X125878213Y-85239707D01*
X125878210Y-85239711D01*
X125790609Y-85370814D01*
X125790602Y-85370827D01*
X125730264Y-85516498D01*
X125730261Y-85516510D01*
X125699500Y-85671153D01*
X123628183Y-85671153D01*
X123662008Y-85629179D01*
X124328498Y-84802114D01*
X124331308Y-84798752D01*
X125064800Y-83952257D01*
X125067753Y-83948971D01*
X125262581Y-83739711D01*
X125831006Y-83129178D01*
X125834025Y-83126050D01*
X126538922Y-82421153D01*
X159949500Y-82421153D01*
X159949500Y-82578846D01*
X159980261Y-82733489D01*
X159980264Y-82733501D01*
X160040602Y-82879172D01*
X160040609Y-82879185D01*
X160128210Y-83010288D01*
X160128213Y-83010292D01*
X160239707Y-83121786D01*
X160239711Y-83121789D01*
X160370814Y-83209390D01*
X160370827Y-83209397D01*
X160494054Y-83260439D01*
X160548458Y-83304280D01*
X160570523Y-83370574D01*
X160553244Y-83438273D01*
X160502107Y-83485884D01*
X160494054Y-83489561D01*
X160370827Y-83540602D01*
X160370814Y-83540609D01*
X160239711Y-83628210D01*
X160239707Y-83628213D01*
X160128213Y-83739707D01*
X160128210Y-83739711D01*
X160040609Y-83870814D01*
X160040602Y-83870827D01*
X159980264Y-84016498D01*
X159980261Y-84016510D01*
X159949500Y-84171153D01*
X159949500Y-84328846D01*
X159980261Y-84483489D01*
X159980264Y-84483501D01*
X160040602Y-84629172D01*
X160040609Y-84629185D01*
X160128210Y-84760288D01*
X160128213Y-84760292D01*
X160239707Y-84871786D01*
X160239711Y-84871789D01*
X160370814Y-84959390D01*
X160370827Y-84959397D01*
X160508683Y-85016498D01*
X160516503Y-85019737D01*
X160671153Y-85050499D01*
X160671156Y-85050500D01*
X160671158Y-85050500D01*
X160828844Y-85050500D01*
X160828845Y-85050499D01*
X160983497Y-85019737D01*
X161129179Y-84959394D01*
X161186411Y-84921153D01*
X168949500Y-84921153D01*
X168949500Y-85078846D01*
X168980261Y-85233489D01*
X168980264Y-85233501D01*
X169040602Y-85379172D01*
X169040609Y-85379185D01*
X169128210Y-85510288D01*
X169128213Y-85510292D01*
X169239707Y-85621786D01*
X169239711Y-85621789D01*
X169370814Y-85709390D01*
X169370827Y-85709397D01*
X169508683Y-85766498D01*
X169516503Y-85769737D01*
X169671153Y-85800499D01*
X169671156Y-85800500D01*
X169671158Y-85800500D01*
X169828844Y-85800500D01*
X169828845Y-85800499D01*
X169983497Y-85769737D01*
X170129179Y-85709394D01*
X170260289Y-85621789D01*
X170371789Y-85510289D01*
X170459394Y-85379179D01*
X170462854Y-85370827D01*
X170480244Y-85328842D01*
X170519737Y-85233497D01*
X170550500Y-85078842D01*
X170550500Y-84921158D01*
X170550500Y-84921155D01*
X170550499Y-84921153D01*
X170519738Y-84766510D01*
X170519737Y-84766503D01*
X170517163Y-84760288D01*
X170459397Y-84620827D01*
X170459390Y-84620814D01*
X170371789Y-84489711D01*
X170371786Y-84489707D01*
X170260292Y-84378213D01*
X170260288Y-84378210D01*
X170129185Y-84290609D01*
X170129172Y-84290602D01*
X169983501Y-84230264D01*
X169983489Y-84230261D01*
X169828845Y-84199500D01*
X169828842Y-84199500D01*
X169671158Y-84199500D01*
X169671155Y-84199500D01*
X169516510Y-84230261D01*
X169516498Y-84230264D01*
X169370827Y-84290602D01*
X169370814Y-84290609D01*
X169239711Y-84378210D01*
X169239707Y-84378213D01*
X169128213Y-84489707D01*
X169128210Y-84489711D01*
X169040609Y-84620814D01*
X169040602Y-84620827D01*
X168980264Y-84766498D01*
X168980261Y-84766510D01*
X168949500Y-84921153D01*
X161186411Y-84921153D01*
X161260289Y-84871789D01*
X161261264Y-84870814D01*
X161304694Y-84827385D01*
X161371786Y-84760292D01*
X161371789Y-84760289D01*
X161459394Y-84629179D01*
X161462854Y-84620827D01*
X161473067Y-84596166D01*
X161519737Y-84483497D01*
X161550500Y-84328842D01*
X161550500Y-84171158D01*
X161550500Y-84171155D01*
X161550499Y-84171153D01*
X161519738Y-84016510D01*
X161519737Y-84016503D01*
X161459794Y-83871786D01*
X161459397Y-83870827D01*
X161459390Y-83870814D01*
X161371789Y-83739711D01*
X161371786Y-83739707D01*
X161260292Y-83628213D01*
X161260288Y-83628210D01*
X161129185Y-83540609D01*
X161129172Y-83540602D01*
X161005945Y-83489561D01*
X160951541Y-83445721D01*
X160929476Y-83379427D01*
X160946755Y-83311727D01*
X160997892Y-83264116D01*
X161005945Y-83260439D01*
X161129172Y-83209397D01*
X161129172Y-83209396D01*
X161129179Y-83209394D01*
X161186411Y-83171153D01*
X161699500Y-83171153D01*
X161699500Y-83328846D01*
X161730261Y-83483489D01*
X161730264Y-83483501D01*
X161790602Y-83629172D01*
X161790609Y-83629185D01*
X161878210Y-83760288D01*
X161878213Y-83760292D01*
X161989707Y-83871786D01*
X161989711Y-83871789D01*
X162120814Y-83959390D01*
X162120827Y-83959397D01*
X162258683Y-84016498D01*
X162266503Y-84019737D01*
X162421153Y-84050499D01*
X162421156Y-84050500D01*
X162421158Y-84050500D01*
X162578844Y-84050500D01*
X162578845Y-84050499D01*
X162733497Y-84019737D01*
X162879179Y-83959394D01*
X163010289Y-83871789D01*
X163121789Y-83760289D01*
X163209394Y-83629179D01*
X163269737Y-83483497D01*
X163300500Y-83328842D01*
X163300500Y-83171158D01*
X163300500Y-83171155D01*
X163300499Y-83171153D01*
X166199500Y-83171153D01*
X166199500Y-83328846D01*
X166230261Y-83483489D01*
X166230264Y-83483501D01*
X166290602Y-83629172D01*
X166290609Y-83629185D01*
X166378210Y-83760288D01*
X166378213Y-83760292D01*
X166489707Y-83871786D01*
X166489711Y-83871789D01*
X166620814Y-83959390D01*
X166620827Y-83959397D01*
X166758683Y-84016498D01*
X166766503Y-84019737D01*
X166921153Y-84050499D01*
X166921156Y-84050500D01*
X166921158Y-84050500D01*
X167078844Y-84050500D01*
X167078845Y-84050499D01*
X167233497Y-84019737D01*
X167379179Y-83959394D01*
X167510289Y-83871789D01*
X167621789Y-83760289D01*
X167709394Y-83629179D01*
X167769737Y-83483497D01*
X167800500Y-83328842D01*
X167800500Y-83171158D01*
X167800500Y-83171155D01*
X167800499Y-83171153D01*
X167769738Y-83016510D01*
X167769737Y-83016503D01*
X167767163Y-83010288D01*
X167709397Y-82870827D01*
X167709390Y-82870814D01*
X167621789Y-82739711D01*
X167621786Y-82739707D01*
X167510292Y-82628213D01*
X167510288Y-82628210D01*
X167379185Y-82540609D01*
X167379172Y-82540602D01*
X167233501Y-82480264D01*
X167233489Y-82480261D01*
X167078845Y-82449500D01*
X167078842Y-82449500D01*
X166921158Y-82449500D01*
X166921155Y-82449500D01*
X166766510Y-82480261D01*
X166766498Y-82480264D01*
X166620827Y-82540602D01*
X166620814Y-82540609D01*
X166489711Y-82628210D01*
X166489707Y-82628213D01*
X166378213Y-82739707D01*
X166378210Y-82739711D01*
X166290609Y-82870814D01*
X166290602Y-82870827D01*
X166230264Y-83016498D01*
X166230261Y-83016510D01*
X166199500Y-83171153D01*
X163300499Y-83171153D01*
X163269738Y-83016510D01*
X163269737Y-83016503D01*
X163267163Y-83010288D01*
X163209397Y-82870827D01*
X163209390Y-82870814D01*
X163121789Y-82739711D01*
X163121786Y-82739707D01*
X163010292Y-82628213D01*
X163010288Y-82628210D01*
X162879185Y-82540609D01*
X162879172Y-82540602D01*
X162733501Y-82480264D01*
X162733489Y-82480261D01*
X162578845Y-82449500D01*
X162578842Y-82449500D01*
X162421158Y-82449500D01*
X162421155Y-82449500D01*
X162266510Y-82480261D01*
X162266498Y-82480264D01*
X162120827Y-82540602D01*
X162120814Y-82540609D01*
X161989711Y-82628210D01*
X161989707Y-82628213D01*
X161878213Y-82739707D01*
X161878210Y-82739711D01*
X161790609Y-82870814D01*
X161790602Y-82870827D01*
X161730264Y-83016498D01*
X161730261Y-83016510D01*
X161699500Y-83171153D01*
X161186411Y-83171153D01*
X161260289Y-83121789D01*
X161260292Y-83121786D01*
X161304694Y-83077385D01*
X161371786Y-83010292D01*
X161371789Y-83010289D01*
X161459394Y-82879179D01*
X161462854Y-82870827D01*
X161517163Y-82739711D01*
X161519737Y-82733497D01*
X161550500Y-82578842D01*
X161550500Y-82421158D01*
X161550500Y-82421155D01*
X161550499Y-82421153D01*
X161548498Y-82411094D01*
X161519737Y-82266503D01*
X161519735Y-82266498D01*
X161459397Y-82120827D01*
X161459390Y-82120814D01*
X161371789Y-81989711D01*
X161371786Y-81989707D01*
X161260292Y-81878213D01*
X161260288Y-81878210D01*
X161129185Y-81790609D01*
X161129172Y-81790602D01*
X160983501Y-81730264D01*
X160983489Y-81730261D01*
X160828845Y-81699500D01*
X160828842Y-81699500D01*
X160671158Y-81699500D01*
X160671155Y-81699500D01*
X160516510Y-81730261D01*
X160516498Y-81730264D01*
X160370827Y-81790602D01*
X160370814Y-81790609D01*
X160239711Y-81878210D01*
X160239707Y-81878213D01*
X160128213Y-81989707D01*
X160128210Y-81989711D01*
X160040609Y-82120814D01*
X160040602Y-82120827D01*
X159980264Y-82266498D01*
X159980261Y-82266510D01*
X159949500Y-82421153D01*
X126538922Y-82421153D01*
X126626050Y-82334025D01*
X126629208Y-82330979D01*
X126636360Y-82324320D01*
X127448977Y-81567747D01*
X127452264Y-81564795D01*
X127572237Y-81460838D01*
X128298752Y-80831308D01*
X128302114Y-80828498D01*
X129174284Y-80125659D01*
X129177725Y-80122987D01*
X130074421Y-79451730D01*
X130077920Y-79449206D01*
X130998019Y-78810369D01*
X131001688Y-78807919D01*
X131799395Y-78295264D01*
X134349500Y-78295264D01*
X134349500Y-80704736D01*
X134359987Y-80837983D01*
X134373418Y-80891287D01*
X134415426Y-81058002D01*
X134509258Y-81264579D01*
X134509263Y-81264589D01*
X134638473Y-81451090D01*
X134798909Y-81611526D01*
X134985410Y-81740736D01*
X134985420Y-81740741D01*
X135191997Y-81834573D01*
X135191998Y-81834573D01*
X135192000Y-81834574D01*
X135412017Y-81890013D01*
X135545264Y-81900500D01*
X135545270Y-81900500D01*
X137954730Y-81900500D01*
X137954736Y-81900500D01*
X138087983Y-81890013D01*
X138308000Y-81834574D01*
X138514582Y-81740740D01*
X138514584Y-81740738D01*
X138514589Y-81740736D01*
X138701090Y-81611526D01*
X138861526Y-81451090D01*
X138990736Y-81264589D01*
X138990741Y-81264579D01*
X138997137Y-81250499D01*
X139084574Y-81058000D01*
X139140013Y-80837983D01*
X139150500Y-80704736D01*
X139150500Y-79999123D01*
X139170185Y-79932084D01*
X139222989Y-79886329D01*
X139292147Y-79876385D01*
X139355703Y-79905410D01*
X139393477Y-79964188D01*
X139395391Y-79971530D01*
X139439684Y-80165594D01*
X139439687Y-80165602D01*
X139528734Y-80420082D01*
X139645714Y-80662994D01*
X139645716Y-80662997D01*
X139789162Y-80891289D01*
X139957266Y-81102085D01*
X140147915Y-81292734D01*
X140358711Y-81460838D01*
X140587003Y-81604284D01*
X140829921Y-81721267D01*
X141021049Y-81788145D01*
X141084397Y-81810312D01*
X141084405Y-81810315D01*
X141084408Y-81810315D01*
X141084409Y-81810316D01*
X141347268Y-81870312D01*
X141615187Y-81900499D01*
X141615188Y-81900500D01*
X141615191Y-81900500D01*
X141884812Y-81900500D01*
X141884812Y-81900499D01*
X142152732Y-81870312D01*
X142415591Y-81810316D01*
X142670079Y-81721267D01*
X142912997Y-81604284D01*
X143141289Y-81460838D01*
X143352085Y-81292734D01*
X143542734Y-81102085D01*
X143710838Y-80891289D01*
X143854284Y-80662997D01*
X143971267Y-80420079D01*
X144060316Y-80165591D01*
X144120312Y-79902732D01*
X144150500Y-79634809D01*
X144150500Y-79493713D01*
X148149500Y-79493713D01*
X148149500Y-80006286D01*
X148182753Y-80216239D01*
X148248444Y-80418414D01*
X148344951Y-80607820D01*
X148469890Y-80779786D01*
X148620213Y-80930109D01*
X148792179Y-81055048D01*
X148792181Y-81055049D01*
X148792184Y-81055051D01*
X148981588Y-81151557D01*
X149183757Y-81217246D01*
X149393713Y-81250500D01*
X149393714Y-81250500D01*
X149606286Y-81250500D01*
X149606287Y-81250500D01*
X149816243Y-81217246D01*
X150018412Y-81151557D01*
X150207816Y-81055051D01*
X150379792Y-80930104D01*
X150518604Y-80791291D01*
X150579923Y-80757809D01*
X150649615Y-80762793D01*
X150705549Y-80804664D01*
X150711821Y-80813878D01*
X150715185Y-80819333D01*
X150715186Y-80819334D01*
X150807288Y-80968656D01*
X150931344Y-81092712D01*
X151080666Y-81184814D01*
X151247203Y-81239999D01*
X151349991Y-81250500D01*
X152650008Y-81250499D01*
X152752797Y-81239999D01*
X152919334Y-81184814D01*
X153068656Y-81092712D01*
X153192712Y-80968656D01*
X153284814Y-80819334D01*
X153339999Y-80652797D01*
X153350500Y-80550009D01*
X153350499Y-78949992D01*
X153339999Y-78847203D01*
X153284814Y-78680666D01*
X153192712Y-78531344D01*
X153068656Y-78407288D01*
X152973253Y-78348443D01*
X152919336Y-78315187D01*
X152919331Y-78315185D01*
X152917862Y-78314698D01*
X152752797Y-78260001D01*
X152752795Y-78260000D01*
X152650010Y-78249500D01*
X151349998Y-78249500D01*
X151349981Y-78249501D01*
X151247203Y-78260000D01*
X151247200Y-78260001D01*
X151080668Y-78315185D01*
X151080663Y-78315187D01*
X150931342Y-78407289D01*
X150807289Y-78531342D01*
X150711821Y-78686121D01*
X150659873Y-78732845D01*
X150590910Y-78744068D01*
X150526828Y-78716224D01*
X150518601Y-78708705D01*
X150379786Y-78569890D01*
X150207820Y-78444951D01*
X150018414Y-78348444D01*
X150018413Y-78348443D01*
X150018412Y-78348443D01*
X149816243Y-78282754D01*
X149816241Y-78282753D01*
X149816240Y-78282753D01*
X149654957Y-78257208D01*
X149606287Y-78249500D01*
X149393713Y-78249500D01*
X149345042Y-78257208D01*
X149183760Y-78282753D01*
X148981585Y-78348444D01*
X148792179Y-78444951D01*
X148620213Y-78569890D01*
X148469890Y-78720213D01*
X148344951Y-78892179D01*
X148248444Y-79081585D01*
X148182753Y-79283760D01*
X148149500Y-79493713D01*
X144150500Y-79493713D01*
X144150500Y-79365191D01*
X144120312Y-79097268D01*
X144060316Y-78834409D01*
X143971267Y-78579921D01*
X143854284Y-78337003D01*
X143710838Y-78108711D01*
X143542734Y-77897915D01*
X143352085Y-77707266D01*
X143141289Y-77539162D01*
X142912997Y-77395716D01*
X142912994Y-77395714D01*
X142670082Y-77278734D01*
X142415602Y-77189687D01*
X142415594Y-77189684D01*
X142218446Y-77144687D01*
X142152732Y-77129688D01*
X142152728Y-77129687D01*
X142152719Y-77129686D01*
X141884813Y-77099500D01*
X141884809Y-77099500D01*
X141615191Y-77099500D01*
X141615186Y-77099500D01*
X141347280Y-77129686D01*
X141347268Y-77129688D01*
X141084405Y-77189684D01*
X141084397Y-77189687D01*
X140829917Y-77278734D01*
X140587005Y-77395714D01*
X140358712Y-77539161D01*
X140147915Y-77707265D01*
X139957265Y-77897915D01*
X139789161Y-78108712D01*
X139645714Y-78337005D01*
X139528734Y-78579917D01*
X139439687Y-78834397D01*
X139439684Y-78834405D01*
X139395391Y-79028469D01*
X139361282Y-79089447D01*
X139299621Y-79122305D01*
X139229984Y-79116610D01*
X139174480Y-79074170D01*
X139150732Y-79008460D01*
X139150500Y-79000876D01*
X139150500Y-78295270D01*
X139150500Y-78295264D01*
X139140013Y-78162017D01*
X139084574Y-77942000D01*
X138990740Y-77735418D01*
X138990736Y-77735410D01*
X138861526Y-77548909D01*
X138701090Y-77388473D01*
X138514589Y-77259263D01*
X138514579Y-77259258D01*
X138308002Y-77165426D01*
X138161322Y-77128466D01*
X138087983Y-77109987D01*
X138054671Y-77107365D01*
X137954739Y-77099500D01*
X137954736Y-77099500D01*
X135545264Y-77099500D01*
X135545260Y-77099500D01*
X135412017Y-77109987D01*
X135191997Y-77165426D01*
X134985420Y-77259258D01*
X134985410Y-77259263D01*
X134798909Y-77388473D01*
X134638473Y-77548909D01*
X134509263Y-77735410D01*
X134509258Y-77735420D01*
X134415426Y-77941997D01*
X134359987Y-78162017D01*
X134350485Y-78282754D01*
X134349500Y-78295264D01*
X131799395Y-78295264D01*
X131943905Y-78202393D01*
X131947658Y-78200075D01*
X131971061Y-78186189D01*
X131971064Y-78186187D01*
X132910989Y-77628502D01*
X132914755Y-77626359D01*
X133897828Y-77089560D01*
X133901733Y-77087518D01*
X134903334Y-76586153D01*
X134907327Y-76584243D01*
X135264445Y-76421153D01*
X156699500Y-76421153D01*
X156699500Y-76578846D01*
X156730261Y-76733489D01*
X156730264Y-76733501D01*
X156790602Y-76879172D01*
X156790609Y-76879185D01*
X156878210Y-77010288D01*
X156878213Y-77010292D01*
X156989707Y-77121786D01*
X156989711Y-77121789D01*
X157120814Y-77209390D01*
X157120827Y-77209397D01*
X157241204Y-77259258D01*
X157266503Y-77269737D01*
X157421153Y-77300499D01*
X157421156Y-77300500D01*
X157421158Y-77300500D01*
X157578844Y-77300500D01*
X157578845Y-77300499D01*
X157733497Y-77269737D01*
X157879179Y-77209394D01*
X158010289Y-77121789D01*
X158121789Y-77010289D01*
X158209394Y-76879179D01*
X158269737Y-76733497D01*
X158300500Y-76578842D01*
X158300500Y-76421158D01*
X158300500Y-76421155D01*
X158300499Y-76421153D01*
X158269738Y-76266510D01*
X158269737Y-76266503D01*
X158269735Y-76266498D01*
X158209397Y-76120827D01*
X158209390Y-76120814D01*
X158121789Y-75989711D01*
X158121786Y-75989707D01*
X158010292Y-75878213D01*
X158010288Y-75878210D01*
X157879185Y-75790609D01*
X157879172Y-75790602D01*
X157733501Y-75730264D01*
X157733489Y-75730261D01*
X157578845Y-75699500D01*
X157578842Y-75699500D01*
X157421158Y-75699500D01*
X157421155Y-75699500D01*
X157266510Y-75730261D01*
X157266498Y-75730264D01*
X157120827Y-75790602D01*
X157120814Y-75790609D01*
X156989711Y-75878210D01*
X156989707Y-75878213D01*
X156878213Y-75989707D01*
X156878210Y-75989711D01*
X156790609Y-76120814D01*
X156790602Y-76120827D01*
X156730264Y-76266498D01*
X156730261Y-76266510D01*
X156699500Y-76421153D01*
X135264445Y-76421153D01*
X135524758Y-76302272D01*
X135922067Y-76120827D01*
X135926125Y-76118973D01*
X135930176Y-76117210D01*
X136965024Y-75688561D01*
X136969028Y-75686986D01*
X138018593Y-75295518D01*
X138022660Y-75294084D01*
X139085423Y-74940363D01*
X139089619Y-74939049D01*
X140164359Y-74623476D01*
X140168548Y-74622327D01*
X141253860Y-74345318D01*
X141258118Y-74344311D01*
X142352606Y-74106220D01*
X142356885Y-74105369D01*
X143459203Y-73906489D01*
X143463528Y-73905788D01*
X144572204Y-73746384D01*
X144576546Y-73745839D01*
X145690277Y-73626100D01*
X145694573Y-73625717D01*
X146811808Y-73545810D01*
X146816215Y-73545574D01*
X147935553Y-73505596D01*
X147939979Y-73505518D01*
X149060021Y-73505518D01*
X149064446Y-73505596D01*
G37*
%TD.AperFunction*%
%TD*%
M02*
