%TF.GenerationSoftware,KiCad,Pcbnew,10.0.2*%
%TF.CreationDate,2026-06-05T21:48:06-04:00*%
%TF.ProjectId,float_pcb,666c6f61-745f-4706-9362-2e6b69636164,rev?*%
%TF.SameCoordinates,Original*%
%TF.FileFunction,Soldermask,Top*%
%TF.FilePolarity,Negative*%
%FSLAX46Y46*%
G04 Gerber Fmt 4.6, Leading zero omitted, Abs format (unit mm)*
G04 Created by KiCad (PCBNEW 10.0.2) date 2026-06-05 21:48:06*
%MOMM*%
%LPD*%
G01*
G04 APERTURE LIST*
G04 Aperture macros list*
%AMRoundRect*
0 Rectangle with rounded corners*
0 $1 Rounding radius*
0 $2 $3 $4 $5 $6 $7 $8 $9 X,Y pos of 4 corners*
0 Add a 4 corners polygon primitive as box body*
4,1,4,$2,$3,$4,$5,$6,$7,$8,$9,$2,$3,0*
0 Add four circle primitives for the rounded corners*
1,1,$1+$1,$2,$3*
1,1,$1+$1,$4,$5*
1,1,$1+$1,$6,$7*
1,1,$1+$1,$8,$9*
0 Add four rect primitives between the rounded corners*
20,1,$1+$1,$2,$3,$4,$5,0*
20,1,$1+$1,$4,$5,$6,$7,0*
20,1,$1+$1,$6,$7,$8,$9,0*
20,1,$1+$1,$8,$9,$2,$3,0*%
%AMFreePoly0*
4,1,52,-0.218366,0.683694,-0.202145,0.672855,-0.191306,0.656634,-0.187500,0.637500,-0.187500,0.287500,0.062500,0.287500,0.062500,0.637500,0.066306,0.656634,0.077145,0.672855,0.093366,0.683694,0.112500,0.687500,0.262500,0.687500,0.281634,0.683694,0.297855,0.672855,0.308694,0.656634,0.312500,0.637500,0.312500,0.287500,0.487500,0.287500,0.506634,0.283694,0.522855,0.272855,
0.533694,0.256634,0.537500,0.237500,0.537500,-0.237500,0.533694,-0.256634,0.522855,-0.272855,0.506634,-0.283694,0.487500,-0.287500,0.259500,-0.287500,-0.117500,-0.664500,-0.117500,-0.807500,-0.121306,-0.826634,-0.132145,-0.842855,-0.148366,-0.853694,-0.167500,-0.857500,-0.487500,-0.857500,-0.506634,-0.853694,-0.522855,-0.842855,-0.533694,-0.826634,-0.537500,-0.807500,-0.537500,0.237500,
-0.533694,0.256634,-0.522855,0.272855,-0.506634,0.283694,-0.487500,0.287500,-0.437500,0.287500,-0.437500,0.637500,-0.433694,0.656634,-0.422855,0.672855,-0.406634,0.683694,-0.387500,0.687500,-0.237500,0.687500,-0.218366,0.683694,-0.218366,0.683694,$1*%
%AMFreePoly1*
4,1,69,0.446320,1.093381,0.474531,1.074531,0.493381,1.046320,0.499999,1.013042,0.500000,-1.013043,0.493381,-1.046320,0.474531,-1.074531,0.446320,-1.093381,0.413042,-1.099999,-0.413043,-1.100000,-0.446320,-1.093381,-0.474531,-1.074531,-0.493381,-1.046320,-0.499999,-1.013042,-0.499999,-0.865000,-0.850001,-0.865000,-0.869135,-0.861194,-0.885356,-0.850355,-0.896195,-0.834134,-0.900001,-0.815000,
-0.900001,-0.665000,-0.896195,-0.645866,-0.885356,-0.629645,-0.869135,-0.618806,-0.850001,-0.615000,-0.499999,-0.615000,-0.499999,-0.365000,-0.850001,-0.365000,-0.869135,-0.361194,-0.885356,-0.350355,-0.896195,-0.334134,-0.900001,-0.315000,-0.900001,-0.165000,-0.896195,-0.145866,-0.885356,-0.129645,-0.869135,-0.118806,-0.850001,-0.115000,-0.499999,-0.115000,-0.500000,0.135000,-0.850000,0.135000,
-0.869134,0.138806,-0.885355,0.149645,-0.896194,0.165866,-0.900000,0.185000,-0.900000,0.335000,-0.896194,0.354134,-0.885355,0.370355,-0.869134,0.381194,-0.850000,0.385000,-0.500000,0.385000,-0.500000,0.635000,-0.850000,0.635000,-0.869134,0.638806,-0.885355,0.649645,-0.896194,0.665866,-0.900000,0.685000,-0.900000,0.835000,-0.896194,0.854134,-0.885355,0.870355,-0.869134,0.881194,
-0.850000,0.885000,-0.500000,0.885000,-0.500000,1.013043,-0.493381,1.046320,-0.474531,1.074531,-0.446320,1.093381,-0.413042,1.099999,0.413043,1.100000,0.446320,1.093381,0.446320,1.093381,$1*%
%AMFreePoly2*
4,1,69,0.413042,1.099999,0.446320,1.093381,0.474531,1.074531,0.493381,1.046320,0.500000,1.013043,0.500000,0.885000,0.850000,0.885000,0.869134,0.881194,0.885355,0.870355,0.896194,0.854134,0.900000,0.835000,0.900000,0.685000,0.896194,0.665866,0.885355,0.649645,0.869134,0.638806,0.850000,0.635000,0.500000,0.635000,0.500000,0.385000,0.850000,0.385000,0.869134,0.381194,
0.885355,0.370355,0.896194,0.354134,0.900000,0.335000,0.900000,0.185000,0.896194,0.165866,0.885355,0.149645,0.869134,0.138806,0.850000,0.135000,0.500000,0.135000,0.499999,-0.115000,0.850000,-0.115000,0.869134,-0.118806,0.885355,-0.129645,0.896194,-0.145866,0.900000,-0.165000,0.900000,-0.315000,0.896194,-0.334134,0.885355,-0.350355,0.869134,-0.361194,0.850000,-0.365000,
0.499999,-0.365000,0.499999,-0.615000,0.850000,-0.615000,0.869134,-0.618806,0.885355,-0.629645,0.896194,-0.645866,0.900000,-0.665000,0.900000,-0.815000,0.896194,-0.834134,0.885355,-0.850355,0.869134,-0.861194,0.850000,-0.865000,0.499999,-0.865000,0.499999,-1.013042,0.493381,-1.046320,0.474531,-1.074531,0.446320,-1.093381,0.413043,-1.100000,-0.413042,-1.099999,-0.446320,-1.093381,
-0.474531,-1.074531,-0.493381,-1.046320,-0.500000,-1.013043,-0.499999,1.013042,-0.493381,1.046320,-0.474531,1.074531,-0.446320,1.093381,-0.413043,1.100000,0.413042,1.099999,0.413042,1.099999,$1*%
%AMFreePoly3*
4,1,52,-0.093366,0.683694,-0.077145,0.672855,-0.066306,0.656634,-0.062500,0.637500,-0.062500,0.287500,0.187500,0.287500,0.187500,0.637500,0.191306,0.656634,0.202145,0.672855,0.218366,0.683694,0.237500,0.687500,0.387500,0.687500,0.406634,0.683694,0.422855,0.672855,0.433694,0.656634,0.437500,0.637500,0.437500,0.287500,0.487500,0.287500,0.506634,0.283694,0.522855,0.272855,
0.533694,0.256634,0.537500,0.237500,0.537500,-0.807500,0.533694,-0.826634,0.522855,-0.842855,0.506634,-0.853694,0.487500,-0.857500,0.167500,-0.857500,0.148366,-0.853694,0.132145,-0.842855,0.121306,-0.826634,0.117500,-0.807500,0.117500,-0.664500,-0.259500,-0.287500,-0.487500,-0.287500,-0.506634,-0.283694,-0.522855,-0.272855,-0.533694,-0.256634,-0.537500,-0.237500,-0.537500,0.237500,
-0.533694,0.256634,-0.522855,0.272855,-0.506634,0.283694,-0.487500,0.287500,-0.312500,0.287500,-0.312500,0.637500,-0.308694,0.656634,-0.297855,0.672855,-0.281634,0.683694,-0.262500,0.687500,-0.112500,0.687500,-0.093366,0.683694,-0.093366,0.683694,$1*%
G04 Aperture macros list end*
%ADD10RoundRect,0.200000X-0.275000X0.200000X-0.275000X-0.200000X0.275000X-0.200000X0.275000X0.200000X0*%
%ADD11RoundRect,0.150000X0.587500X0.150000X-0.587500X0.150000X-0.587500X-0.150000X0.587500X-0.150000X0*%
%ADD12RoundRect,0.225000X0.250000X-0.225000X0.250000X0.225000X-0.250000X0.225000X-0.250000X-0.225000X0*%
%ADD13RoundRect,0.225000X-0.250000X0.225000X-0.250000X-0.225000X0.250000X-0.225000X0.250000X0.225000X0*%
%ADD14RoundRect,0.218750X-0.256250X0.218750X-0.256250X-0.218750X0.256250X-0.218750X0.256250X0.218750X0*%
%ADD15RoundRect,0.200000X0.275000X-0.200000X0.275000X0.200000X-0.275000X0.200000X-0.275000X-0.200000X0*%
%ADD16RoundRect,0.250000X-0.650000X0.325000X-0.650000X-0.325000X0.650000X-0.325000X0.650000X0.325000X0*%
%ADD17RoundRect,0.200000X0.200000X0.275000X-0.200000X0.275000X-0.200000X-0.275000X0.200000X-0.275000X0*%
%ADD18R,1.700000X1.000000*%
%ADD19RoundRect,0.200000X-0.200000X-0.275000X0.200000X-0.275000X0.200000X0.275000X-0.200000X0.275000X0*%
%ADD20FreePoly0,90.000000*%
%ADD21FreePoly1,0.000000*%
%ADD22FreePoly2,0.000000*%
%ADD23FreePoly3,270.000000*%
%ADD24RoundRect,0.050000X-0.060000X-0.250000X0.060000X-0.250000X0.060000X0.250000X-0.060000X0.250000X0*%
%ADD25RoundRect,0.250000X0.600000X0.750000X-0.600000X0.750000X-0.600000X-0.750000X0.600000X-0.750000X0*%
%ADD26O,1.700000X2.000000*%
%ADD27R,1.700000X1.700000*%
%ADD28C,1.700000*%
%ADD29RoundRect,0.250000X0.475000X-0.250000X0.475000X0.250000X-0.475000X0.250000X-0.475000X-0.250000X0*%
%ADD30RoundRect,0.760000X-1.140000X-1.140000X1.140000X-1.140000X1.140000X1.140000X-1.140000X1.140000X0*%
%ADD31C,3.800000*%
%ADD32R,1.500000X0.900000*%
%ADD33R,0.900000X1.500000*%
%ADD34C,0.600000*%
%ADD35R,3.900000X3.900000*%
%ADD36RoundRect,0.250000X0.550000X0.550000X-0.550000X0.550000X-0.550000X-0.550000X0.550000X-0.550000X0*%
%ADD37C,1.600000*%
%ADD38RoundRect,0.150000X-0.512500X-0.150000X0.512500X-0.150000X0.512500X0.150000X-0.512500X0.150000X0*%
%ADD39RoundRect,0.150000X-0.302462X0.150000X-0.302462X-0.150000X0.302462X-0.150000X0.302462X0.150000X0*%
%ADD40RoundRect,0.150000X-0.302499X0.150000X-0.302499X-0.150000X0.302499X-0.150000X0.302499X0.150000X0*%
%ADD41RoundRect,0.075000X-0.500000X0.075000X-0.500000X-0.075000X0.500000X-0.075000X0.500000X0.075000X0*%
%ADD42RoundRect,0.150000X-0.302500X0.150000X-0.302500X-0.150000X0.302500X-0.150000X0.302500X0.150000X0*%
%ADD43RoundRect,0.150000X-0.302497X0.150000X-0.302497X-0.150000X0.302497X-0.150000X0.302497X0.150000X0*%
%ADD44RoundRect,0.150000X-0.302498X0.150000X-0.302498X-0.150000X0.302498X-0.150000X0.302498X0.150000X0*%
%ADD45O,2.100000X1.000000*%
%ADD46O,1.800000X1.000000*%
%ADD47RoundRect,0.150000X0.150000X-0.512500X0.150000X0.512500X-0.150000X0.512500X-0.150000X-0.512500X0*%
%ADD48RoundRect,0.250000X0.600000X0.725000X-0.600000X0.725000X-0.600000X-0.725000X0.600000X-0.725000X0*%
%ADD49O,1.700000X1.950000*%
%ADD50R,1.295400X3.149600*%
G04 APERTURE END LIST*
D10*
%TO.C,R17*%
X147500000Y-89425000D03*
X147500000Y-91075000D03*
%TD*%
D11*
%TO.C,Q1*%
X136187500Y-120450000D03*
X136187500Y-118550000D03*
X134312500Y-119500000D03*
%TD*%
D10*
%TO.C,R8*%
X167000000Y-80675000D03*
X167000000Y-82325000D03*
%TD*%
D12*
%TO.C,C4*%
X134000000Y-97775000D03*
X134000000Y-96225000D03*
%TD*%
D13*
%TO.C,C10*%
X143250000Y-85975000D03*
X143250000Y-87525000D03*
%TD*%
D14*
%TO.C,D3*%
X169750000Y-85962500D03*
X169750000Y-87537500D03*
%TD*%
D10*
%TO.C,R18*%
X169750000Y-89425000D03*
X169750000Y-91075000D03*
%TD*%
D12*
%TO.C,C6*%
X131250000Y-91525000D03*
X131250000Y-89975000D03*
%TD*%
D15*
%TO.C,R24*%
X161000000Y-109825000D03*
X161000000Y-108175000D03*
%TD*%
D12*
%TO.C,C8*%
X122500000Y-91525000D03*
X122500000Y-89975000D03*
%TD*%
D16*
%TO.C,C12*%
X139000000Y-88525000D03*
X139000000Y-91475000D03*
%TD*%
D17*
%TO.C,R5*%
X137575000Y-107250000D03*
X135925000Y-107250000D03*
%TD*%
D18*
%TO.C,BOOT1*%
X178900000Y-108400000D03*
X172600000Y-108400000D03*
X178900000Y-104600000D03*
X172600000Y-104600000D03*
%TD*%
D19*
%TO.C,R10*%
X118925000Y-112500000D03*
X120575000Y-112500000D03*
%TD*%
D15*
%TO.C,R25*%
X164000000Y-112825000D03*
X164000000Y-111175000D03*
%TD*%
D20*
%TO.C,U3*%
X156087500Y-88687500D03*
D21*
X156300000Y-90675000D03*
D22*
X158200000Y-90675000D03*
D23*
X158412500Y-88687500D03*
D24*
X157750000Y-88100000D03*
X157250000Y-88100000D03*
X156750000Y-88100000D03*
%TD*%
D12*
%TO.C,C5*%
X137000000Y-97775000D03*
X137000000Y-96225000D03*
%TD*%
D13*
%TO.C,C9*%
X162500000Y-80725000D03*
X162500000Y-82275000D03*
%TD*%
D25*
%TO.C,J2*%
X152000000Y-79750000D03*
D26*
X149500000Y-79750000D03*
%TD*%
D12*
%TO.C,C1*%
X136500000Y-101275000D03*
X136500000Y-99725000D03*
%TD*%
D15*
%TO.C,R4*%
X126500000Y-88325000D03*
X126500000Y-86675000D03*
%TD*%
D19*
%TO.C,R15*%
X143675000Y-121250000D03*
X145325000Y-121250000D03*
%TD*%
D10*
%TO.C,R13*%
X165500000Y-89425000D03*
X165500000Y-91075000D03*
%TD*%
D19*
%TO.C,R20*%
X157925000Y-120250000D03*
X159575000Y-120250000D03*
%TD*%
D27*
%TO.C,J7*%
X169500000Y-103000000D03*
D28*
X169500000Y-105540000D03*
X169500000Y-108080000D03*
X169500000Y-110620000D03*
X169500000Y-113160000D03*
%TD*%
D14*
%TO.C,D1*%
X157500000Y-77462500D03*
X157500000Y-79037500D03*
%TD*%
%TO.C,D2*%
X147500000Y-85962500D03*
X147500000Y-87537500D03*
%TD*%
D29*
%TO.C,C3*%
X153250000Y-88200000D03*
X153250000Y-86300000D03*
%TD*%
D30*
%TO.C,J1*%
X136750000Y-79500000D03*
D31*
X141750000Y-79500000D03*
%TD*%
D15*
%TO.C,R1*%
X132250000Y-101325000D03*
X132250000Y-99675000D03*
%TD*%
D32*
%TO.C,U1*%
X139750000Y-96590000D03*
X139750000Y-97860000D03*
X139750000Y-99130000D03*
X139750000Y-100400000D03*
X139750000Y-101670000D03*
X139750000Y-102940000D03*
X139750000Y-104210000D03*
X139750000Y-105480000D03*
X139750000Y-106750000D03*
X139750000Y-108020000D03*
X139750000Y-109290000D03*
X139750000Y-110560000D03*
X139750000Y-111830000D03*
X139750000Y-113100000D03*
D33*
X141515000Y-114350000D03*
X142785000Y-114350000D03*
X144055000Y-114350000D03*
X145325000Y-114350000D03*
X146595000Y-114350000D03*
X147865000Y-114350000D03*
X149135000Y-114350000D03*
X150405000Y-114350000D03*
X151675000Y-114350000D03*
X152945000Y-114350000D03*
X154215000Y-114350000D03*
X155485000Y-114350000D03*
D32*
X157250000Y-113100000D03*
X157250000Y-111830000D03*
X157250000Y-110560000D03*
X157250000Y-109290000D03*
X157250000Y-108020000D03*
X157250000Y-106750000D03*
X157250000Y-105480000D03*
X157250000Y-104210000D03*
X157250000Y-102940000D03*
X157250000Y-101670000D03*
X157250000Y-100400000D03*
X157250000Y-99130000D03*
X157250000Y-97860000D03*
X157250000Y-96590000D03*
D34*
X145600000Y-103610000D03*
X145600000Y-105010000D03*
X146300000Y-102910000D03*
X146300000Y-104310000D03*
X146300000Y-105710000D03*
X147000000Y-103610000D03*
D35*
X147000000Y-104310000D03*
D34*
X147000000Y-105010000D03*
X147700000Y-102910000D03*
X147700000Y-104310000D03*
X147700000Y-105710000D03*
X148400000Y-103610000D03*
X148400000Y-105010000D03*
%TD*%
D36*
%TO.C,C14*%
X163250000Y-96000000D03*
D37*
X160750000Y-96000000D03*
%TD*%
D15*
%TO.C,R3*%
X126500000Y-91575000D03*
X126500000Y-89925000D03*
%TD*%
D16*
%TO.C,C13*%
X161250000Y-88525000D03*
X161250000Y-91475000D03*
%TD*%
D10*
%TO.C,R2*%
X157500000Y-80675000D03*
X157500000Y-82325000D03*
%TD*%
%TO.C,R11*%
X143250000Y-89425000D03*
X143250000Y-91075000D03*
%TD*%
D29*
%TO.C,C2*%
X131250000Y-88200000D03*
X131250000Y-86300000D03*
%TD*%
D38*
%TO.C,D6*%
X147362500Y-122550000D03*
X147362500Y-123500000D03*
X147362500Y-124450000D03*
X149637500Y-124450000D03*
X149637500Y-122550000D03*
%TD*%
D39*
%TO.C,J3*%
X124052462Y-101800032D03*
D40*
X124052476Y-102599606D03*
D41*
X123930000Y-103750000D03*
X123930000Y-104750000D03*
X123930000Y-105250000D03*
X123930000Y-106250000D03*
D42*
X124052500Y-107400000D03*
D43*
X124052497Y-108200000D03*
D44*
X124052498Y-108200000D03*
D40*
X124052499Y-107400000D03*
D41*
X123930000Y-106750000D03*
X123930000Y-105750000D03*
X123930000Y-104250000D03*
X123930000Y-103250000D03*
D42*
X124052500Y-102600000D03*
D44*
X124052498Y-101800001D03*
D45*
X123355000Y-100680000D03*
D46*
X119175000Y-100680000D03*
D45*
X123355000Y-109320000D03*
D46*
X119175000Y-109320000D03*
%TD*%
D10*
%TO.C,R14*%
X160750000Y-85175000D03*
X160750000Y-86825000D03*
%TD*%
D47*
%TO.C,D4*%
X164300000Y-108387500D03*
X165250000Y-108387500D03*
X166200000Y-108387500D03*
X166200000Y-106112500D03*
X164300000Y-106112500D03*
%TD*%
D15*
%TO.C,R26*%
X164000000Y-103325000D03*
X164000000Y-101675000D03*
%TD*%
D20*
%TO.C,U2*%
X133837500Y-88687500D03*
D21*
X134050000Y-90675000D03*
D22*
X135950000Y-90675000D03*
D23*
X136162500Y-88687500D03*
D24*
X135500000Y-88100000D03*
X135000000Y-88100000D03*
X134500000Y-88100000D03*
%TD*%
D48*
%TO.C,J6*%
X174000000Y-97500000D03*
D49*
X171500000Y-97500000D03*
X169000000Y-97500000D03*
%TD*%
D48*
%TO.C,J5*%
X160000000Y-130525000D03*
D49*
X157500000Y-130525000D03*
X155000000Y-130525000D03*
X152500000Y-130525000D03*
%TD*%
D12*
%TO.C,C7*%
X153250000Y-91525000D03*
X153250000Y-89975000D03*
%TD*%
D17*
%TO.C,R6*%
X135825000Y-103750000D03*
X134175000Y-103750000D03*
%TD*%
D15*
%TO.C,R27*%
X161000000Y-106325000D03*
X161000000Y-104675000D03*
%TD*%
D19*
%TO.C,R22*%
X151675000Y-121250000D03*
X153325000Y-121250000D03*
%TD*%
D10*
%TO.C,R7*%
X162500000Y-77425000D03*
X162500000Y-79075000D03*
%TD*%
D19*
%TO.C,R21*%
X155175000Y-124000000D03*
X156825000Y-124000000D03*
%TD*%
D48*
%TO.C,J4*%
X143500000Y-130500000D03*
D49*
X141000000Y-130500000D03*
X138500000Y-130500000D03*
X136000000Y-130500000D03*
%TD*%
D17*
%TO.C,R9*%
X120575000Y-97500000D03*
X118925000Y-97500000D03*
%TD*%
D10*
%TO.C,R12*%
X138500000Y-85175000D03*
X138500000Y-86825000D03*
%TD*%
D13*
%TO.C,C11*%
X165500000Y-85975000D03*
X165500000Y-87525000D03*
%TD*%
D25*
%TO.C,J8*%
X129500000Y-122750000D03*
D26*
X127000000Y-122750000D03*
%TD*%
D18*
%TO.C,ENABLE1*%
X133900000Y-114150000D03*
X127600000Y-114150000D03*
X133900000Y-110350000D03*
X127600000Y-110350000D03*
%TD*%
D38*
%TO.C,D5*%
X128362500Y-104050000D03*
X128362500Y-105000000D03*
X128362500Y-105950000D03*
X130637500Y-105950000D03*
X130637500Y-104050000D03*
%TD*%
D17*
%TO.C,R19*%
X149325000Y-93000000D03*
X147675000Y-93000000D03*
%TD*%
D10*
%TO.C,R23*%
X139500000Y-116675000D03*
X139500000Y-118325000D03*
%TD*%
D50*
%TO.C,LS1*%
X162995500Y-120250000D03*
X171504500Y-120250000D03*
%TD*%
D19*
%TO.C,R16*%
X140175000Y-124000000D03*
X141825000Y-124000000D03*
%TD*%
M02*
