%TF.GenerationSoftware,KiCad,Pcbnew,10.0.3*%
%TF.CreationDate,2026-05-29T12:35:44-04:00*%
%TF.ProjectId,float_pcb,666c6f61-745f-4706-9362-2e6b69636164,rev?*%
%TF.SameCoordinates,Original*%
%TF.FileFunction,Paste,Top*%
%TF.FilePolarity,Positive*%
%FSLAX46Y46*%
G04 Gerber Fmt 4.6, Leading zero omitted, Abs format (unit mm)*
G04 Created by KiCad (PCBNEW 10.0.3) date 2026-05-29 12:35:44*
%MOMM*%
%LPD*%
G01*
G04 APERTURE LIST*
G04 Aperture macros list*
%AMRoundRect*
0 Rectangle with rounded corners*
0 $1 Rounding radius*
0 $2 $3 $4 $5 $6 $7 $8 $9 X,Y pos of 4 corners*
0 Add a 4 corners polygon primitive as box body*
4,1,4,$2,$3,$4,$5,$6,$7,$8,$9,$2,$3,0*
0 Add four circle primitives for the rounded corners*
1,1,$1+$1,$2,$3*
1,1,$1+$1,$4,$5*
1,1,$1+$1,$6,$7*
1,1,$1+$1,$8,$9*
0 Add four rect primitives between the rounded corners*
20,1,$1+$1,$2,$3,$4,$5,0*
20,1,$1+$1,$4,$5,$6,$7,0*
20,1,$1+$1,$6,$7,$8,$9,0*
20,1,$1+$1,$8,$9,$2,$3,0*%
%AMFreePoly0*
4,1,52,-0.218366,0.683694,-0.202145,0.672855,-0.191306,0.656634,-0.187500,0.637500,-0.187500,0.287500,0.062500,0.287500,0.062500,0.637500,0.066306,0.656634,0.077145,0.672855,0.093366,0.683694,0.112500,0.687500,0.262500,0.687500,0.281634,0.683694,0.297855,0.672855,0.308694,0.656634,0.312500,0.637500,0.312500,0.287500,0.487500,0.287500,0.506634,0.283694,0.522855,0.272855,
0.533694,0.256634,0.537500,0.237500,0.537500,-0.237500,0.533694,-0.256634,0.522855,-0.272855,0.506634,-0.283694,0.487500,-0.287500,0.259500,-0.287500,-0.117500,-0.664500,-0.117500,-0.807500,-0.121306,-0.826634,-0.132145,-0.842855,-0.148366,-0.853694,-0.167500,-0.857500,-0.487500,-0.857500,-0.506634,-0.853694,-0.522855,-0.842855,-0.533694,-0.826634,-0.537500,-0.807500,-0.537500,0.237500,
-0.533694,0.256634,-0.522855,0.272855,-0.506634,0.283694,-0.487500,0.287500,-0.437500,0.287500,-0.437500,0.637500,-0.433694,0.656634,-0.422855,0.672855,-0.406634,0.683694,-0.387500,0.687500,-0.237500,0.687500,-0.218366,0.683694,-0.218366,0.683694,$1*%
%AMFreePoly1*
4,1,69,0.446320,1.093381,0.474531,1.074531,0.493381,1.046320,0.499999,1.013042,0.500000,-1.013043,0.493381,-1.046320,0.474531,-1.074531,0.446320,-1.093381,0.413042,-1.099999,-0.413043,-1.100000,-0.446320,-1.093381,-0.474531,-1.074531,-0.493381,-1.046320,-0.499999,-1.013042,-0.499999,-0.865000,-0.850001,-0.865000,-0.869135,-0.861194,-0.885356,-0.850355,-0.896195,-0.834134,-0.900001,-0.815000,
-0.900001,-0.665000,-0.896195,-0.645866,-0.885356,-0.629645,-0.869135,-0.618806,-0.850001,-0.615000,-0.499999,-0.615000,-0.499999,-0.365000,-0.850001,-0.365000,-0.869135,-0.361194,-0.885356,-0.350355,-0.896195,-0.334134,-0.900001,-0.315000,-0.900001,-0.165000,-0.896195,-0.145866,-0.885356,-0.129645,-0.869135,-0.118806,-0.850001,-0.115000,-0.499999,-0.115000,-0.500000,0.135000,-0.850000,0.135000,
-0.869134,0.138806,-0.885355,0.149645,-0.896194,0.165866,-0.900000,0.185000,-0.900000,0.335000,-0.896194,0.354134,-0.885355,0.370355,-0.869134,0.381194,-0.850000,0.385000,-0.500000,0.385000,-0.500000,0.635000,-0.850000,0.635000,-0.869134,0.638806,-0.885355,0.649645,-0.896194,0.665866,-0.900000,0.685000,-0.900000,0.835000,-0.896194,0.854134,-0.885355,0.870355,-0.869134,0.881194,
-0.850000,0.885000,-0.500000,0.885000,-0.500000,1.013043,-0.493381,1.046320,-0.474531,1.074531,-0.446320,1.093381,-0.413042,1.099999,0.413043,1.100000,0.446320,1.093381,0.446320,1.093381,$1*%
%AMFreePoly2*
4,1,69,0.413042,1.099999,0.446320,1.093381,0.474531,1.074531,0.493381,1.046320,0.500000,1.013043,0.500000,0.885000,0.850000,0.885000,0.869134,0.881194,0.885355,0.870355,0.896194,0.854134,0.900000,0.835000,0.900000,0.685000,0.896194,0.665866,0.885355,0.649645,0.869134,0.638806,0.850000,0.635000,0.500000,0.635000,0.500000,0.385000,0.850000,0.385000,0.869134,0.381194,
0.885355,0.370355,0.896194,0.354134,0.900000,0.335000,0.900000,0.185000,0.896194,0.165866,0.885355,0.149645,0.869134,0.138806,0.850000,0.135000,0.500000,0.135000,0.499999,-0.115000,0.850000,-0.115000,0.869134,-0.118806,0.885355,-0.129645,0.896194,-0.145866,0.900000,-0.165000,0.900000,-0.315000,0.896194,-0.334134,0.885355,-0.350355,0.869134,-0.361194,0.850000,-0.365000,
0.499999,-0.365000,0.499999,-0.615000,0.850000,-0.615000,0.869134,-0.618806,0.885355,-0.629645,0.896194,-0.645866,0.900000,-0.665000,0.900000,-0.815000,0.896194,-0.834134,0.885355,-0.850355,0.869134,-0.861194,0.850000,-0.865000,0.499999,-0.865000,0.499999,-1.013042,0.493381,-1.046320,0.474531,-1.074531,0.446320,-1.093381,0.413043,-1.100000,-0.413042,-1.099999,-0.446320,-1.093381,
-0.474531,-1.074531,-0.493381,-1.046320,-0.500000,-1.013043,-0.499999,1.013042,-0.493381,1.046320,-0.474531,1.074531,-0.446320,1.093381,-0.413043,1.100000,0.413042,1.099999,0.413042,1.099999,$1*%
%AMFreePoly3*
4,1,52,-0.093366,0.683694,-0.077145,0.672855,-0.066306,0.656634,-0.062500,0.637500,-0.062500,0.287500,0.187500,0.287500,0.187500,0.637500,0.191306,0.656634,0.202145,0.672855,0.218366,0.683694,0.237500,0.687500,0.387500,0.687500,0.406634,0.683694,0.422855,0.672855,0.433694,0.656634,0.437500,0.637500,0.437500,0.287500,0.487500,0.287500,0.506634,0.283694,0.522855,0.272855,
0.533694,0.256634,0.537500,0.237500,0.537500,-0.807500,0.533694,-0.826634,0.522855,-0.842855,0.506634,-0.853694,0.487500,-0.857500,0.167500,-0.857500,0.148366,-0.853694,0.132145,-0.842855,0.121306,-0.826634,0.117500,-0.807500,0.117500,-0.664500,-0.259500,-0.287500,-0.487500,-0.287500,-0.506634,-0.283694,-0.522855,-0.272855,-0.533694,-0.256634,-0.537500,-0.237500,-0.537500,0.237500,
-0.533694,0.256634,-0.522855,0.272855,-0.506634,0.283694,-0.487500,0.287500,-0.312500,0.287500,-0.312500,0.637500,-0.308694,0.656634,-0.297855,0.672855,-0.281634,0.683694,-0.262500,0.687500,-0.112500,0.687500,-0.093366,0.683694,-0.093366,0.683694,$1*%
G04 Aperture macros list end*
%ADD10R,1.500000X0.900000*%
%ADD11R,0.900000X1.500000*%
%ADD12R,0.900000X0.900000*%
%ADD13FreePoly0,90.000000*%
%ADD14FreePoly1,0.000000*%
%ADD15FreePoly2,0.000000*%
%ADD16FreePoly3,270.000000*%
%ADD17RoundRect,0.050000X-0.060000X-0.250000X0.060000X-0.250000X0.060000X0.250000X-0.060000X0.250000X0*%
%ADD18RoundRect,0.218750X0.256250X-0.218750X0.256250X0.218750X-0.256250X0.218750X-0.256250X-0.218750X0*%
%ADD19RoundRect,0.150000X0.587500X0.150000X-0.587500X0.150000X-0.587500X-0.150000X0.587500X-0.150000X0*%
%ADD20RoundRect,0.225000X-0.250000X0.225000X-0.250000X-0.225000X0.250000X-0.225000X0.250000X0.225000X0*%
%ADD21RoundRect,0.200000X-0.275000X0.200000X-0.275000X-0.200000X0.275000X-0.200000X0.275000X0.200000X0*%
%ADD22RoundRect,0.200000X-0.200000X-0.275000X0.200000X-0.275000X0.200000X0.275000X-0.200000X0.275000X0*%
%ADD23R,1.700000X1.000000*%
%ADD24RoundRect,0.150000X-0.587500X-0.150000X0.587500X-0.150000X0.587500X0.150000X-0.587500X0.150000X0*%
%ADD25RoundRect,0.150000X-0.302462X0.150000X-0.302462X-0.150000X0.302462X-0.150000X0.302462X0.150000X0*%
%ADD26RoundRect,0.150000X-0.302499X0.150000X-0.302499X-0.150000X0.302499X-0.150000X0.302499X0.150000X0*%
%ADD27RoundRect,0.075000X-0.500000X0.075000X-0.500000X-0.075000X0.500000X-0.075000X0.500000X0.075000X0*%
%ADD28RoundRect,0.150000X-0.302500X0.150000X-0.302500X-0.150000X0.302500X-0.150000X0.302500X0.150000X0*%
%ADD29RoundRect,0.150000X-0.302497X0.150000X-0.302497X-0.150000X0.302497X-0.150000X0.302497X0.150000X0*%
%ADD30RoundRect,0.150000X-0.302498X0.150000X-0.302498X-0.150000X0.302498X-0.150000X0.302498X0.150000X0*%
%ADD31O,2.100000X1.000000*%
%ADD32O,1.800000X1.000000*%
%ADD33RoundRect,0.218750X-0.256250X0.218750X-0.256250X-0.218750X0.256250X-0.218750X0.256250X0.218750X0*%
G04 APERTURE END LIST*
D10*
%TO.C,U4*%
X235850000Y-90030000D03*
X235850000Y-91300000D03*
X235850000Y-92570000D03*
X235850000Y-93840000D03*
X235850000Y-95110000D03*
X235850000Y-96380000D03*
X235850000Y-97650000D03*
X235850000Y-98920000D03*
X235850000Y-100190000D03*
X235850000Y-101460000D03*
X235850000Y-102730000D03*
X235850000Y-104000000D03*
X235850000Y-105270000D03*
X235850000Y-106540000D03*
D11*
X234085000Y-107790000D03*
X232815000Y-107790000D03*
X231545000Y-107790000D03*
X230275000Y-107790000D03*
X229005000Y-107790000D03*
X227735000Y-107790000D03*
X226465000Y-107790000D03*
X225195000Y-107790000D03*
X223925000Y-107790000D03*
X222655000Y-107790000D03*
X221385000Y-107790000D03*
X220115000Y-107790000D03*
D10*
X218350000Y-106540000D03*
X218350000Y-105270000D03*
X218350000Y-104000000D03*
X218350000Y-102730000D03*
X218350000Y-101460000D03*
X218350000Y-100190000D03*
X218350000Y-98920000D03*
X218350000Y-97650000D03*
X218350000Y-96380000D03*
X218350000Y-95110000D03*
X218350000Y-93840000D03*
X218350000Y-92570000D03*
X218350000Y-91300000D03*
X218350000Y-90030000D03*
D12*
X227000000Y-97750000D03*
X227000000Y-96350000D03*
X226995606Y-99150000D03*
X225600000Y-97750000D03*
X225600000Y-96350000D03*
X225595606Y-99150000D03*
X224200000Y-97750000D03*
X224200000Y-96350000D03*
X224195606Y-99150000D03*
%TD*%
D13*
%TO.C,U2*%
X236037500Y-82187500D03*
D14*
X236250000Y-84175000D03*
D15*
X238150000Y-84175000D03*
D16*
X238362500Y-82187500D03*
D17*
X237700000Y-81600000D03*
X237200000Y-81600000D03*
X236700000Y-81600000D03*
%TD*%
D13*
%TO.C,U1*%
X213025000Y-82187500D03*
D14*
X213237500Y-84175000D03*
D15*
X215137500Y-84175000D03*
D16*
X215350000Y-82187500D03*
D17*
X214687500Y-81600000D03*
X214187500Y-81600000D03*
X213687500Y-81600000D03*
%TD*%
D18*
%TO.C,D1*%
X231500000Y-76962500D03*
X231500000Y-75387500D03*
%TD*%
%TO.C,D3*%
X240000000Y-92002500D03*
X240000000Y-93577500D03*
%TD*%
D19*
%TO.C,Q1*%
X214437500Y-111200000D03*
X214437500Y-109300000D03*
X212562500Y-110250000D03*
%TD*%
D20*
%TO.C,C14*%
X211000000Y-88475000D03*
X211000000Y-90025000D03*
%TD*%
%TO.C,C4*%
X218500000Y-85000000D03*
X218500000Y-86550000D03*
%TD*%
D21*
%TO.C,R16*%
X240000000Y-88715000D03*
X240000000Y-90365000D03*
%TD*%
D20*
%TO.C,C2*%
X204887500Y-84662500D03*
X204887500Y-86212500D03*
%TD*%
D21*
%TO.C,R11*%
X202000000Y-104925000D03*
X202000000Y-106575000D03*
%TD*%
D20*
%TO.C,C3*%
X218500000Y-81725000D03*
X218500000Y-83275000D03*
%TD*%
D21*
%TO.C,R7*%
X240250000Y-75425000D03*
X240250000Y-77075000D03*
%TD*%
D20*
%TO.C,C5*%
X227137500Y-84975000D03*
X227137500Y-86525000D03*
%TD*%
%TO.C,C13*%
X215000000Y-88475000D03*
X215000000Y-90025000D03*
%TD*%
%TO.C,C12*%
X215000000Y-92975000D03*
X215000000Y-94525000D03*
%TD*%
D21*
%TO.C,R3*%
X209387500Y-84612500D03*
X209387500Y-86262500D03*
%TD*%
D22*
%TO.C,R1*%
X214925000Y-114500000D03*
X216575000Y-114500000D03*
%TD*%
D21*
%TO.C,R8*%
X250500000Y-83425000D03*
X250500000Y-85075000D03*
%TD*%
%TO.C,R20*%
X237750000Y-109925000D03*
X237750000Y-111575000D03*
%TD*%
%TO.C,R6*%
X240250000Y-72100000D03*
X240250000Y-73750000D03*
%TD*%
D23*
%TO.C,BOOT1*%
X254500000Y-101750000D03*
X248200000Y-101750000D03*
X254500000Y-97950000D03*
X248200000Y-97950000D03*
%TD*%
D20*
%TO.C,C6*%
X235750000Y-75400000D03*
X235750000Y-76950000D03*
%TD*%
D24*
%TO.C,Q2*%
X247312500Y-105050000D03*
X247312500Y-106950000D03*
X249187500Y-106000000D03*
%TD*%
D21*
%TO.C,R12*%
X211000000Y-92925000D03*
X211000000Y-94575000D03*
%TD*%
%TO.C,R2*%
X209387500Y-81112500D03*
X209387500Y-82762500D03*
%TD*%
D20*
%TO.C,C10*%
X241750000Y-83475000D03*
X241750000Y-85025000D03*
%TD*%
D21*
%TO.C,R14*%
X231500000Y-72100000D03*
X231500000Y-73750000D03*
%TD*%
%TO.C,R4*%
X222887500Y-84925000D03*
X222887500Y-86575000D03*
%TD*%
D20*
%TO.C,C1*%
X204887500Y-81162500D03*
X204887500Y-82712500D03*
%TD*%
D25*
%TO.C,J3*%
X204552462Y-94550032D03*
D26*
X204552476Y-95349606D03*
D27*
X204430000Y-96500000D03*
X204430000Y-97500000D03*
X204430000Y-98000000D03*
X204430000Y-99000000D03*
D28*
X204552500Y-100150000D03*
D29*
X204552497Y-100950000D03*
D30*
X204552498Y-100950000D03*
D26*
X204552499Y-100150000D03*
D27*
X204430000Y-99500000D03*
X204430000Y-98500000D03*
X204430000Y-97000000D03*
X204430000Y-96000000D03*
D28*
X204552500Y-95350000D03*
D30*
X204552498Y-94550001D03*
D31*
X203855000Y-93430000D03*
D32*
X199675000Y-93430000D03*
D31*
X203855000Y-102070000D03*
D32*
X199675000Y-102070000D03*
%TD*%
D21*
%TO.C,R9*%
X244750000Y-79675000D03*
X244750000Y-81325000D03*
%TD*%
%TO.C,R15*%
X231387500Y-84925000D03*
X231387500Y-86575000D03*
%TD*%
D33*
%TO.C,D2*%
X231387500Y-81712500D03*
X231387500Y-83287500D03*
%TD*%
D20*
%TO.C,C7*%
X235750000Y-72150000D03*
X235750000Y-73700000D03*
%TD*%
%TO.C,C8*%
X244250000Y-75475000D03*
X244250000Y-77025000D03*
%TD*%
D22*
%TO.C,R18*%
X235175000Y-114500000D03*
X236825000Y-114500000D03*
%TD*%
%TO.C,R19*%
X230425000Y-114500000D03*
X232075000Y-114500000D03*
%TD*%
D21*
%TO.C,R10*%
X202000000Y-89425000D03*
X202000000Y-91075000D03*
%TD*%
%TO.C,R5*%
X222887500Y-81675000D03*
X222887500Y-83325000D03*
%TD*%
D20*
%TO.C,C9*%
X246000000Y-83475000D03*
X246000000Y-85025000D03*
%TD*%
D23*
%TO.C,ENABLE1*%
X215750000Y-102000000D03*
X209450000Y-102000000D03*
X215750000Y-98200000D03*
X209450000Y-98200000D03*
%TD*%
D21*
%TO.C,R17*%
X218000000Y-109925000D03*
X218000000Y-111575000D03*
%TD*%
D22*
%TO.C,R13*%
X219675000Y-114500000D03*
X221325000Y-114500000D03*
%TD*%
M02*
