%TF.GenerationSoftware,KiCad,Pcbnew,10.0.2*%
%TF.CreationDate,2026-06-03T12:08:33-04:00*%
%TF.ProjectId,float_pcb,666c6f61-745f-4706-9362-2e6b69636164,rev?*%
%TF.SameCoordinates,Original*%
%TF.FileFunction,Legend,Top*%
%TF.FilePolarity,Positive*%
%FSLAX46Y46*%
G04 Gerber Fmt 4.6, Leading zero omitted, Abs format (unit mm)*
G04 Created by KiCad (PCBNEW 10.0.2) date 2026-06-03 12:08:33*
%MOMM*%
%LPD*%
G01*
G04 APERTURE LIST*
G04 Aperture macros list*
%AMRoundRect*
0 Rectangle with rounded corners*
0 $1 Rounding radius*
0 $2 $3 $4 $5 $6 $7 $8 $9 X,Y pos of 4 corners*
0 Add a 4 corners polygon primitive as box body*
4,1,4,$2,$3,$4,$5,$6,$7,$8,$9,$2,$3,0*
0 Add four circle primitives for the rounded corners*
1,1,$1+$1,$2,$3*
1,1,$1+$1,$4,$5*
1,1,$1+$1,$6,$7*
1,1,$1+$1,$8,$9*
0 Add four rect primitives between the rounded corners*
20,1,$1+$1,$2,$3,$4,$5,0*
20,1,$1+$1,$4,$5,$6,$7,0*
20,1,$1+$1,$6,$7,$8,$9,0*
20,1,$1+$1,$8,$9,$2,$3,0*%
%AMFreePoly0*
4,1,52,-0.218366,0.683694,-0.202145,0.672855,-0.191306,0.656634,-0.187500,0.637500,-0.187500,0.287500,0.062500,0.287500,0.062500,0.637500,0.066306,0.656634,0.077145,0.672855,0.093366,0.683694,0.112500,0.687500,0.262500,0.687500,0.281634,0.683694,0.297855,0.672855,0.308694,0.656634,0.312500,0.637500,0.312500,0.287500,0.487500,0.287500,0.506634,0.283694,0.522855,0.272855,
0.533694,0.256634,0.537500,0.237500,0.537500,-0.237500,0.533694,-0.256634,0.522855,-0.272855,0.506634,-0.283694,0.487500,-0.287500,0.259500,-0.287500,-0.117500,-0.664500,-0.117500,-0.807500,-0.121306,-0.826634,-0.132145,-0.842855,-0.148366,-0.853694,-0.167500,-0.857500,-0.487500,-0.857500,-0.506634,-0.853694,-0.522855,-0.842855,-0.533694,-0.826634,-0.537500,-0.807500,-0.537500,0.237500,
-0.533694,0.256634,-0.522855,0.272855,-0.506634,0.283694,-0.487500,0.287500,-0.437500,0.287500,-0.437500,0.637500,-0.433694,0.656634,-0.422855,0.672855,-0.406634,0.683694,-0.387500,0.687500,-0.237500,0.687500,-0.218366,0.683694,-0.218366,0.683694,$1*%
%AMFreePoly1*
4,1,69,0.446320,1.093381,0.474531,1.074531,0.493381,1.046320,0.499999,1.013042,0.500000,-1.013043,0.493381,-1.046320,0.474531,-1.074531,0.446320,-1.093381,0.413042,-1.099999,-0.413043,-1.100000,-0.446320,-1.093381,-0.474531,-1.074531,-0.493381,-1.046320,-0.499999,-1.013042,-0.499999,-0.865000,-0.850001,-0.865000,-0.869135,-0.861194,-0.885356,-0.850355,-0.896195,-0.834134,-0.900001,-0.815000,
-0.900001,-0.665000,-0.896195,-0.645866,-0.885356,-0.629645,-0.869135,-0.618806,-0.850001,-0.615000,-0.499999,-0.615000,-0.499999,-0.365000,-0.850001,-0.365000,-0.869135,-0.361194,-0.885356,-0.350355,-0.896195,-0.334134,-0.900001,-0.315000,-0.900001,-0.165000,-0.896195,-0.145866,-0.885356,-0.129645,-0.869135,-0.118806,-0.850001,-0.115000,-0.499999,-0.115000,-0.500000,0.135000,-0.850000,0.135000,
-0.869134,0.138806,-0.885355,0.149645,-0.896194,0.165866,-0.900000,0.185000,-0.900000,0.335000,-0.896194,0.354134,-0.885355,0.370355,-0.869134,0.381194,-0.850000,0.385000,-0.500000,0.385000,-0.500000,0.635000,-0.850000,0.635000,-0.869134,0.638806,-0.885355,0.649645,-0.896194,0.665866,-0.900000,0.685000,-0.900000,0.835000,-0.896194,0.854134,-0.885355,0.870355,-0.869134,0.881194,
-0.850000,0.885000,-0.500000,0.885000,-0.500000,1.013043,-0.493381,1.046320,-0.474531,1.074531,-0.446320,1.093381,-0.413042,1.099999,0.413043,1.100000,0.446320,1.093381,0.446320,1.093381,$1*%
%AMFreePoly2*
4,1,69,0.413042,1.099999,0.446320,1.093381,0.474531,1.074531,0.493381,1.046320,0.500000,1.013043,0.500000,0.885000,0.850000,0.885000,0.869134,0.881194,0.885355,0.870355,0.896194,0.854134,0.900000,0.835000,0.900000,0.685000,0.896194,0.665866,0.885355,0.649645,0.869134,0.638806,0.850000,0.635000,0.500000,0.635000,0.500000,0.385000,0.850000,0.385000,0.869134,0.381194,
0.885355,0.370355,0.896194,0.354134,0.900000,0.335000,0.900000,0.185000,0.896194,0.165866,0.885355,0.149645,0.869134,0.138806,0.850000,0.135000,0.500000,0.135000,0.499999,-0.115000,0.850000,-0.115000,0.869134,-0.118806,0.885355,-0.129645,0.896194,-0.145866,0.900000,-0.165000,0.900000,-0.315000,0.896194,-0.334134,0.885355,-0.350355,0.869134,-0.361194,0.850000,-0.365000,
0.499999,-0.365000,0.499999,-0.615000,0.850000,-0.615000,0.869134,-0.618806,0.885355,-0.629645,0.896194,-0.645866,0.900000,-0.665000,0.900000,-0.815000,0.896194,-0.834134,0.885355,-0.850355,0.869134,-0.861194,0.850000,-0.865000,0.499999,-0.865000,0.499999,-1.013042,0.493381,-1.046320,0.474531,-1.074531,0.446320,-1.093381,0.413043,-1.100000,-0.413042,-1.099999,-0.446320,-1.093381,
-0.474531,-1.074531,-0.493381,-1.046320,-0.500000,-1.013043,-0.499999,1.013042,-0.493381,1.046320,-0.474531,1.074531,-0.446320,1.093381,-0.413043,1.100000,0.413042,1.099999,0.413042,1.099999,$1*%
%AMFreePoly3*
4,1,52,-0.093366,0.683694,-0.077145,0.672855,-0.066306,0.656634,-0.062500,0.637500,-0.062500,0.287500,0.187500,0.287500,0.187500,0.637500,0.191306,0.656634,0.202145,0.672855,0.218366,0.683694,0.237500,0.687500,0.387500,0.687500,0.406634,0.683694,0.422855,0.672855,0.433694,0.656634,0.437500,0.637500,0.437500,0.287500,0.487500,0.287500,0.506634,0.283694,0.522855,0.272855,
0.533694,0.256634,0.537500,0.237500,0.537500,-0.807500,0.533694,-0.826634,0.522855,-0.842855,0.506634,-0.853694,0.487500,-0.857500,0.167500,-0.857500,0.148366,-0.853694,0.132145,-0.842855,0.121306,-0.826634,0.117500,-0.807500,0.117500,-0.664500,-0.259500,-0.287500,-0.487500,-0.287500,-0.506634,-0.283694,-0.522855,-0.272855,-0.533694,-0.256634,-0.537500,-0.237500,-0.537500,0.237500,
-0.533694,0.256634,-0.522855,0.272855,-0.506634,0.283694,-0.487500,0.287500,-0.312500,0.287500,-0.312500,0.637500,-0.308694,0.656634,-0.297855,0.672855,-0.281634,0.683694,-0.262500,0.687500,-0.112500,0.687500,-0.093366,0.683694,-0.093366,0.683694,$1*%
G04 Aperture macros list end*
%ADD10C,0.100000*%
%ADD11C,0.187500*%
%ADD12C,0.250000*%
%ADD13C,0.300000*%
%ADD14C,0.150000*%
%ADD15C,0.120000*%
%ADD16C,0.000000*%
%ADD17C,0.127000*%
%ADD18RoundRect,0.200000X-0.275000X0.200000X-0.275000X-0.200000X0.275000X-0.200000X0.275000X0.200000X0*%
%ADD19RoundRect,0.150000X0.587500X0.150000X-0.587500X0.150000X-0.587500X-0.150000X0.587500X-0.150000X0*%
%ADD20RoundRect,0.150000X-0.512500X-0.150000X0.512500X-0.150000X0.512500X0.150000X-0.512500X0.150000X0*%
%ADD21RoundRect,0.150000X0.150000X-0.512500X0.150000X0.512500X-0.150000X0.512500X-0.150000X-0.512500X0*%
%ADD22RoundRect,0.225000X0.250000X-0.225000X0.250000X0.225000X-0.250000X0.225000X-0.250000X-0.225000X0*%
%ADD23RoundRect,0.225000X-0.250000X0.225000X-0.250000X-0.225000X0.250000X-0.225000X0.250000X0.225000X0*%
%ADD24RoundRect,0.218750X-0.256250X0.218750X-0.256250X-0.218750X0.256250X-0.218750X0.256250X0.218750X0*%
%ADD25RoundRect,0.200000X0.275000X-0.200000X0.275000X0.200000X-0.275000X0.200000X-0.275000X-0.200000X0*%
%ADD26RoundRect,0.250000X-0.475000X0.250000X-0.475000X-0.250000X0.475000X-0.250000X0.475000X0.250000X0*%
%ADD27R,1.700000X1.000000*%
%ADD28RoundRect,0.200000X-0.200000X-0.275000X0.200000X-0.275000X0.200000X0.275000X-0.200000X0.275000X0*%
%ADD29C,2.200000*%
%ADD30FreePoly0,90.000000*%
%ADD31FreePoly1,0.000000*%
%ADD32FreePoly2,0.000000*%
%ADD33FreePoly3,270.000000*%
%ADD34RoundRect,0.050000X-0.060000X-0.250000X0.060000X-0.250000X0.060000X0.250000X-0.060000X0.250000X0*%
%ADD35C,1.612000*%
%ADD36R,1.700000X1.700000*%
%ADD37C,1.700000*%
%ADD38RoundRect,0.250000X0.600000X0.750000X-0.600000X0.750000X-0.600000X-0.750000X0.600000X-0.750000X0*%
%ADD39O,1.700000X2.000000*%
%ADD40RoundRect,0.250000X0.475000X-0.250000X0.475000X0.250000X-0.475000X0.250000X-0.475000X-0.250000X0*%
%ADD41RoundRect,0.760000X-1.140000X-1.140000X1.140000X-1.140000X1.140000X1.140000X-1.140000X1.140000X0*%
%ADD42C,3.800000*%
%ADD43R,1.500000X0.900000*%
%ADD44R,0.900000X1.500000*%
%ADD45C,0.600000*%
%ADD46R,3.900000X3.900000*%
%ADD47RoundRect,0.150000X-0.587500X-0.150000X0.587500X-0.150000X0.587500X0.150000X-0.587500X0.150000X0*%
%ADD48C,0.650000*%
%ADD49RoundRect,0.150000X-0.302462X0.150000X-0.302462X-0.150000X0.302462X-0.150000X0.302462X0.150000X0*%
%ADD50RoundRect,0.150000X-0.302499X0.150000X-0.302499X-0.150000X0.302499X-0.150000X0.302499X0.150000X0*%
%ADD51RoundRect,0.075000X-0.500000X0.075000X-0.500000X-0.075000X0.500000X-0.075000X0.500000X0.075000X0*%
%ADD52RoundRect,0.150000X-0.302500X0.150000X-0.302500X-0.150000X0.302500X-0.150000X0.302500X0.150000X0*%
%ADD53RoundRect,0.150000X-0.302497X0.150000X-0.302497X-0.150000X0.302497X-0.150000X0.302497X0.150000X0*%
%ADD54RoundRect,0.150000X-0.302498X0.150000X-0.302498X-0.150000X0.302498X-0.150000X0.302498X0.150000X0*%
%ADD55O,2.100000X1.000000*%
%ADD56O,1.800000X1.000000*%
%ADD57RoundRect,0.250000X0.600000X0.725000X-0.600000X0.725000X-0.600000X-0.725000X0.600000X-0.725000X0*%
%ADD58O,1.700000X1.950000*%
%ADD59RoundRect,0.150000X0.512500X0.150000X-0.512500X0.150000X-0.512500X-0.150000X0.512500X-0.150000X0*%
%ADD60RoundRect,0.200000X0.200000X0.275000X-0.200000X0.275000X-0.200000X-0.275000X0.200000X-0.275000X0*%
G04 APERTURE END LIST*
D10*
G36*
X127536153Y-97470400D02*
G01*
X127601454Y-97492131D01*
X127658398Y-97527686D01*
X127708380Y-97578236D01*
X127746365Y-97637574D01*
X127775031Y-97709963D01*
X127793534Y-97798023D01*
X127800200Y-97904911D01*
X127793547Y-98012316D01*
X127775101Y-98100566D01*
X127746573Y-98172890D01*
X127708838Y-98231967D01*
X127658662Y-98282344D01*
X127601571Y-98317787D01*
X127536175Y-98339447D01*
X127460321Y-98346990D01*
X127384508Y-98339466D01*
X127318963Y-98317837D01*
X127261571Y-98282414D01*
X127210964Y-98232043D01*
X127172475Y-98172819D01*
X127143434Y-98100425D01*
X127124682Y-98012197D01*
X127117923Y-97904911D01*
X127124683Y-97797621D01*
X127143437Y-97709408D01*
X127172478Y-97637042D01*
X127210964Y-97577854D01*
X127261576Y-97527446D01*
X127318969Y-97492000D01*
X127384513Y-97470359D01*
X127460321Y-97462831D01*
X127536153Y-97470400D01*
G37*
G36*
X122470845Y-97504802D02*
G01*
X122537428Y-97525625D01*
X122586214Y-97557192D01*
X122620954Y-97599378D01*
X122651959Y-97670957D01*
X122672877Y-97767151D01*
X122680717Y-97894530D01*
X122675855Y-97986675D01*
X122662131Y-98065997D01*
X122640570Y-98134270D01*
X122605001Y-98202853D01*
X122562087Y-98253221D01*
X122511593Y-98288482D01*
X122452059Y-98310091D01*
X122380986Y-98317681D01*
X122138498Y-98317681D01*
X122138498Y-97497025D01*
X122380986Y-97497025D01*
X122470845Y-97504802D01*
G37*
G36*
X123809425Y-98063668D02*
G01*
X123490077Y-98063668D01*
X123652270Y-97568390D01*
X123809425Y-98063668D01*
G37*
G36*
X125947771Y-98063668D02*
G01*
X125628423Y-98063668D01*
X125790616Y-97568390D01*
X125947771Y-98063668D01*
G37*
G36*
X131669746Y-98710582D02*
G01*
X121744299Y-98710582D01*
X121744299Y-98317681D01*
X121883188Y-98317681D01*
X121883188Y-98537500D01*
X122425407Y-98537500D01*
X123057157Y-98537500D01*
X123332083Y-98537500D01*
X123419170Y-98278602D01*
X123882850Y-98278602D01*
X123963985Y-98537500D01*
X124249214Y-98537500D01*
X123882945Y-97501910D01*
X124240132Y-97501910D01*
X124618403Y-97501910D01*
X124618403Y-98537500D01*
X124883101Y-98537500D01*
X125195503Y-98537500D01*
X125470429Y-98537500D01*
X125557517Y-98278602D01*
X126021196Y-98278602D01*
X126102331Y-98537500D01*
X126387561Y-98537500D01*
X126163825Y-97904911D01*
X126856659Y-97904911D01*
X126865367Y-98042487D01*
X126889996Y-98160554D01*
X126928941Y-98262072D01*
X126981503Y-98349502D01*
X127047932Y-98424690D01*
X127107088Y-98475516D01*
X127176166Y-98515894D01*
X127256686Y-98545915D01*
X127350638Y-98564951D01*
X127460397Y-98571693D01*
X127570122Y-98564952D01*
X127664050Y-98545917D01*
X127686622Y-98537500D01*
X128259758Y-98537500D01*
X128504841Y-98537500D01*
X128504841Y-97642273D01*
X129018896Y-98537500D01*
X129281915Y-98537500D01*
X129526768Y-98537500D01*
X130413141Y-98537500D01*
X130413141Y-98312796D01*
X129789787Y-98312796D01*
X129789787Y-97277206D01*
X130411461Y-97277206D01*
X130846901Y-98063821D01*
X130846901Y-98537500D01*
X131109920Y-98537500D01*
X131109920Y-98063821D01*
X131530857Y-97277206D01*
X131232881Y-97277206D01*
X130982684Y-97826142D01*
X130721421Y-97277206D01*
X130411461Y-97277206D01*
X129789787Y-97277206D01*
X129526768Y-97277206D01*
X129526768Y-98537500D01*
X129281915Y-98537500D01*
X129281915Y-97277206D01*
X129036832Y-97277206D01*
X129036832Y-98157015D01*
X128535600Y-97277206D01*
X128259758Y-97277206D01*
X128259758Y-98537500D01*
X127686622Y-98537500D01*
X127744556Y-98515897D01*
X127813629Y-98475519D01*
X127872786Y-98424690D01*
X127938890Y-98349548D01*
X127991220Y-98262145D01*
X128030007Y-98160629D01*
X128054543Y-98042537D01*
X128063219Y-97904911D01*
X128054395Y-97763854D01*
X128029590Y-97644421D01*
X127990643Y-97543243D01*
X127938423Y-97457516D01*
X127872786Y-97385131D01*
X127813629Y-97334302D01*
X127744556Y-97293924D01*
X127664050Y-97263904D01*
X127570122Y-97244869D01*
X127460397Y-97238128D01*
X127350638Y-97244870D01*
X127256686Y-97263906D01*
X127176166Y-97293927D01*
X127107088Y-97334305D01*
X127047932Y-97385131D01*
X126981970Y-97457563D01*
X126929519Y-97543319D01*
X126890413Y-97644500D01*
X126865516Y-97763907D01*
X126856659Y-97904911D01*
X126163825Y-97904911D01*
X125941817Y-97277206D01*
X125644604Y-97277206D01*
X125364351Y-98063668D01*
X125195503Y-98537500D01*
X124883101Y-98537500D01*
X124883101Y-97501910D01*
X125259693Y-97501910D01*
X125259693Y-97277206D01*
X124240132Y-97277206D01*
X124240132Y-97501910D01*
X123882945Y-97501910D01*
X123803471Y-97277206D01*
X123506258Y-97277206D01*
X123226005Y-98063668D01*
X123057157Y-98537500D01*
X122425407Y-98537500D01*
X122519561Y-98530475D01*
X122602077Y-98510352D01*
X122674865Y-98477937D01*
X122739424Y-98433188D01*
X122796749Y-98375214D01*
X122847260Y-98302339D01*
X122889909Y-98213962D01*
X122921388Y-98114665D01*
X122941116Y-98002831D01*
X122948011Y-97876594D01*
X122942199Y-97776414D01*
X122924044Y-97667995D01*
X122903534Y-97596908D01*
X122873785Y-97529230D01*
X122834438Y-97464434D01*
X122773722Y-97394566D01*
X122702774Y-97341716D01*
X122620115Y-97304531D01*
X122537175Y-97285537D01*
X122425407Y-97277206D01*
X121883188Y-97277206D01*
X121883188Y-98317681D01*
X121744299Y-98317681D01*
X121744299Y-97099239D01*
X131669746Y-97099239D01*
X131669746Y-98710582D01*
G37*
G36*
X132782250Y-131426389D02*
G01*
X131401258Y-131426389D01*
X131401258Y-130027206D01*
X131540147Y-130027206D01*
X131965358Y-131287500D01*
X132213876Y-131287500D01*
X132643361Y-130027206D01*
X132370115Y-130027206D01*
X132094349Y-130983951D01*
X131821103Y-130027206D01*
X131540147Y-130027206D01*
X131401258Y-130027206D01*
X131401258Y-129888317D01*
X132782250Y-129888317D01*
X132782250Y-131426389D01*
G37*
G36*
X138087445Y-126460582D02*
G01*
X134433696Y-126460582D01*
X134433696Y-125900146D01*
X134572585Y-125900146D01*
X134578614Y-125977803D01*
X134595932Y-126046141D01*
X134623946Y-126106736D01*
X134662823Y-126160801D01*
X134713483Y-126209113D01*
X134786100Y-126256118D01*
X134872873Y-126291230D01*
X134976508Y-126313673D01*
X135100303Y-126321693D01*
X135221485Y-126313519D01*
X135321717Y-126290743D01*
X135404588Y-126255231D01*
X135473002Y-126207739D01*
X135531422Y-126146216D01*
X135572074Y-126078958D01*
X135596564Y-126004669D01*
X135604969Y-125921364D01*
X135597281Y-125838921D01*
X135575580Y-125770294D01*
X135540780Y-125712731D01*
X135494841Y-125666970D01*
X135744798Y-125666970D01*
X135751855Y-125791119D01*
X135771899Y-125899167D01*
X135803656Y-125993336D01*
X135846443Y-126075535D01*
X135900198Y-126147289D01*
X135965836Y-126209140D01*
X136039921Y-126257224D01*
X136123640Y-126292247D01*
X136218686Y-126314066D01*
X136327165Y-126321693D01*
X136435409Y-126312975D01*
X136530063Y-126287971D01*
X136531035Y-126287500D01*
X137062183Y-126287500D01*
X137948556Y-126287500D01*
X137948556Y-126062796D01*
X137325202Y-126062796D01*
X137325202Y-125027206D01*
X137062183Y-125027206D01*
X137062183Y-126287500D01*
X136531035Y-126287500D01*
X136613496Y-126247536D01*
X136687500Y-126191329D01*
X136750354Y-126122331D01*
X136800124Y-126044254D01*
X136837330Y-125955890D01*
X136861752Y-125855571D01*
X136601251Y-125855571D01*
X136569325Y-125945225D01*
X136534695Y-126001583D01*
X136495264Y-126040439D01*
X136448123Y-126068402D01*
X136391707Y-126085895D01*
X136323730Y-126092105D01*
X136258683Y-126085404D01*
X136200912Y-126065896D01*
X136148801Y-126033497D01*
X136101317Y-125986852D01*
X136065605Y-125932646D01*
X136038252Y-125864018D01*
X136020318Y-125777764D01*
X136013771Y-125670023D01*
X136019856Y-125562443D01*
X136036690Y-125474105D01*
X136062597Y-125401863D01*
X136096584Y-125343043D01*
X136142440Y-125291933D01*
X136194478Y-125256440D01*
X136253931Y-125234943D01*
X136322891Y-125227486D01*
X136392863Y-125233269D01*
X136450109Y-125249402D01*
X136497070Y-125274803D01*
X136535535Y-125309460D01*
X136570153Y-125362809D01*
X136601251Y-125446083D01*
X136864270Y-125446083D01*
X136852534Y-125369859D01*
X136824197Y-125292022D01*
X136777182Y-125211228D01*
X136725040Y-125149082D01*
X136664440Y-125098280D01*
X136594494Y-125058038D01*
X136513816Y-125028235D01*
X136420592Y-125009419D01*
X136312663Y-125002782D01*
X136218469Y-125009375D01*
X136133562Y-125028467D01*
X136056502Y-125059496D01*
X135986117Y-125102545D01*
X135921569Y-125158334D01*
X135860434Y-125232192D01*
X135811845Y-125317933D01*
X135775741Y-125417354D01*
X135752880Y-125532781D01*
X135744798Y-125666970D01*
X135494841Y-125666970D01*
X135492236Y-125664375D01*
X135441112Y-125631467D01*
X135370928Y-125600739D01*
X135277073Y-125573089D01*
X135060155Y-125520959D01*
X134945956Y-125489623D01*
X134896207Y-125468904D01*
X134862647Y-125442515D01*
X134843198Y-125409655D01*
X134836444Y-125368154D01*
X134843308Y-125322450D01*
X134863145Y-125285039D01*
X134897047Y-125253818D01*
X134939426Y-125232028D01*
X134992632Y-125217948D01*
X135059316Y-125212831D01*
X135145937Y-125221289D01*
X135212120Y-125244354D01*
X135252884Y-125272360D01*
X135282410Y-125307642D01*
X135301941Y-125351370D01*
X135311191Y-125405783D01*
X135563982Y-125405783D01*
X135555291Y-125326131D01*
X135535885Y-125257154D01*
X135506449Y-125197131D01*
X135466941Y-125144732D01*
X135416597Y-125099105D01*
X135344006Y-125053350D01*
X135264160Y-125020362D01*
X135175775Y-125000042D01*
X135077252Y-124993012D01*
X134957014Y-125001165D01*
X134859284Y-125023705D01*
X134780027Y-125058573D01*
X134716002Y-125104906D01*
X134661852Y-125164911D01*
X134623915Y-125230785D01*
X134600945Y-125303806D01*
X134593041Y-125385862D01*
X134601848Y-125476609D01*
X134626457Y-125550066D01*
X134665650Y-125609866D01*
X134720276Y-125658345D01*
X134773675Y-125687752D01*
X134860289Y-125720086D01*
X134991844Y-125754897D01*
X135125032Y-125784741D01*
X135233400Y-125814729D01*
X135296689Y-125843664D01*
X135327435Y-125870053D01*
X135345219Y-125901636D01*
X135351338Y-125940217D01*
X135344368Y-125989667D01*
X135324525Y-126029144D01*
X135291234Y-126061117D01*
X135241200Y-126086228D01*
X135178481Y-126101050D01*
X135090075Y-126106760D01*
X135011458Y-126100880D01*
X134951078Y-126084981D01*
X134905086Y-126060853D01*
X134870562Y-126029060D01*
X134851233Y-125998695D01*
X134835273Y-125956758D01*
X134823621Y-125900146D01*
X134572585Y-125900146D01*
X134433696Y-125900146D01*
X134433696Y-124854123D01*
X138087445Y-124854123D01*
X138087445Y-126460582D01*
G37*
G36*
X146801092Y-93605698D02*
G01*
X138907211Y-93605698D01*
X138907211Y-93053962D01*
X139046100Y-93053962D01*
X139056273Y-93151286D01*
X139076702Y-93229983D01*
X139105864Y-93293320D01*
X139151400Y-93353815D01*
X139208469Y-93401115D01*
X139278796Y-93436216D01*
X139365205Y-93458706D01*
X139471388Y-93466809D01*
X139577800Y-93458364D01*
X139664683Y-93434863D01*
X139735732Y-93398015D01*
X139793712Y-93348046D01*
X139841898Y-93285403D01*
X139875539Y-93219322D01*
X139895707Y-93148842D01*
X139902553Y-93072662D01*
X139896235Y-92999286D01*
X139878296Y-92936932D01*
X139849492Y-92883547D01*
X139809512Y-92837654D01*
X139748533Y-92791538D01*
X139713876Y-92780639D01*
X139755955Y-92757092D01*
X139799284Y-92716372D01*
X139834980Y-92662977D01*
X139856642Y-92601958D01*
X139864161Y-92531206D01*
X139856962Y-92455621D01*
X139836329Y-92390496D01*
X139802717Y-92333750D01*
X139755244Y-92283986D01*
X139698685Y-92244875D01*
X139633251Y-92216215D01*
X139557307Y-92198210D01*
X139468793Y-92191861D01*
X139377301Y-92198192D01*
X139307364Y-92215217D01*
X139245644Y-92243976D01*
X139193867Y-92282536D01*
X139137656Y-92348429D01*
X139099910Y-92417786D01*
X139078030Y-92502382D01*
X139068311Y-92592801D01*
X139295457Y-92592801D01*
X139299547Y-92533115D01*
X139313011Y-92485261D01*
X139334765Y-92446789D01*
X139365335Y-92417278D01*
X139406289Y-92398856D01*
X139461084Y-92392140D01*
X139509311Y-92397510D01*
X139547385Y-92412467D01*
X139577634Y-92436485D01*
X139600267Y-92468194D01*
X139614177Y-92505973D01*
X139619079Y-92551509D01*
X139613317Y-92604435D01*
X139597582Y-92644379D01*
X139572797Y-92674465D01*
X139537944Y-92696375D01*
X139481843Y-92711515D01*
X139372317Y-92719426D01*
X139372317Y-92895280D01*
X139485238Y-92902044D01*
X139549928Y-92918025D01*
X139593223Y-92943174D01*
X139623387Y-92977047D01*
X139642191Y-93021160D01*
X139648999Y-93078768D01*
X139642485Y-93137108D01*
X139624435Y-93182565D01*
X139595570Y-93218139D01*
X139557733Y-93245145D01*
X139516450Y-93261106D01*
X139470472Y-93266530D01*
X139413936Y-93260320D01*
X139369907Y-93243134D01*
X139335490Y-93215725D01*
X139309119Y-93176923D01*
X139291698Y-93124329D01*
X139285229Y-93053962D01*
X139046100Y-93053962D01*
X138907211Y-93053962D01*
X138907211Y-92177206D01*
X140012233Y-92177206D01*
X140437445Y-93437500D01*
X140685962Y-93437500D01*
X140816665Y-93053962D01*
X141184446Y-93053962D01*
X141194619Y-93151286D01*
X141215048Y-93229983D01*
X141244210Y-93293320D01*
X141289746Y-93353815D01*
X141346815Y-93401115D01*
X141417142Y-93436216D01*
X141503551Y-93458706D01*
X141609734Y-93466809D01*
X141716146Y-93458364D01*
X141793280Y-93437500D01*
X142729664Y-93437500D01*
X143616037Y-93437500D01*
X143777771Y-93437500D01*
X144039035Y-93437500D01*
X144279996Y-93437500D01*
X144525078Y-93437500D01*
X144525078Y-92542273D01*
X145039133Y-93437500D01*
X145302152Y-93437500D01*
X145551280Y-93437500D01*
X145810024Y-93437500D01*
X145810024Y-93016562D01*
X145935580Y-92887571D01*
X146324079Y-93437500D01*
X146662203Y-93437500D01*
X146119984Y-92696222D01*
X146635718Y-92177206D01*
X146295915Y-92177206D01*
X145810024Y-92696222D01*
X145810024Y-92177206D01*
X145551280Y-92177206D01*
X145551280Y-93437500D01*
X145302152Y-93437500D01*
X145302152Y-92177206D01*
X145057069Y-92177206D01*
X145057069Y-93057015D01*
X144555837Y-92177206D01*
X144279996Y-92177206D01*
X144279996Y-93437500D01*
X144039035Y-93437500D01*
X144039035Y-92177206D01*
X143777771Y-92177206D01*
X143777771Y-93437500D01*
X143616037Y-93437500D01*
X143616037Y-93212796D01*
X142992683Y-93212796D01*
X142992683Y-92177206D01*
X142729664Y-92177206D01*
X142729664Y-93437500D01*
X141793280Y-93437500D01*
X141803029Y-93434863D01*
X141874078Y-93398015D01*
X141932059Y-93348046D01*
X141980244Y-93285403D01*
X142013885Y-93219322D01*
X142034053Y-93148842D01*
X142040899Y-93072662D01*
X142034581Y-92999286D01*
X142016642Y-92936932D01*
X141987838Y-92883547D01*
X141947858Y-92837654D01*
X141886880Y-92791538D01*
X141852222Y-92780639D01*
X141894301Y-92757092D01*
X141937630Y-92716372D01*
X141973326Y-92662977D01*
X141994988Y-92601958D01*
X142002507Y-92531206D01*
X141995308Y-92455621D01*
X141974676Y-92390496D01*
X141941063Y-92333750D01*
X141893590Y-92283986D01*
X141837032Y-92244875D01*
X141771598Y-92216215D01*
X141695653Y-92198210D01*
X141607139Y-92191861D01*
X141515647Y-92198192D01*
X141445710Y-92215217D01*
X141383991Y-92243976D01*
X141332213Y-92282536D01*
X141276002Y-92348429D01*
X141238256Y-92417786D01*
X141216376Y-92502382D01*
X141206657Y-92592801D01*
X141433803Y-92592801D01*
X141437893Y-92533115D01*
X141451357Y-92485261D01*
X141473111Y-92446789D01*
X141503681Y-92417278D01*
X141544635Y-92398856D01*
X141599430Y-92392140D01*
X141647657Y-92397510D01*
X141685732Y-92412467D01*
X141715980Y-92436485D01*
X141738613Y-92468194D01*
X141752523Y-92505973D01*
X141757425Y-92551509D01*
X141751663Y-92604435D01*
X141735928Y-92644379D01*
X141711143Y-92674465D01*
X141676290Y-92696375D01*
X141620189Y-92711515D01*
X141510663Y-92719426D01*
X141510663Y-92895280D01*
X141623584Y-92902044D01*
X141688274Y-92918025D01*
X141731569Y-92943174D01*
X141761733Y-92977047D01*
X141780537Y-93021160D01*
X141787345Y-93078768D01*
X141780831Y-93137108D01*
X141762781Y-93182565D01*
X141733917Y-93218139D01*
X141696079Y-93245145D01*
X141654796Y-93261106D01*
X141608818Y-93266530D01*
X141552282Y-93260320D01*
X141508253Y-93243134D01*
X141473836Y-93215725D01*
X141447465Y-93176923D01*
X141430044Y-93124329D01*
X141423575Y-93053962D01*
X141184446Y-93053962D01*
X140816665Y-93053962D01*
X141115448Y-92177206D01*
X140842201Y-92177206D01*
X140566436Y-93133951D01*
X140293189Y-92177206D01*
X140012233Y-92177206D01*
X138907211Y-92177206D01*
X138907211Y-92038317D01*
X146801092Y-92038317D01*
X146801092Y-93605698D01*
G37*
G36*
X147881321Y-131460582D02*
G01*
X146433696Y-131460582D01*
X146433696Y-130672160D01*
X146572585Y-130672160D01*
X146580051Y-130794377D01*
X146601315Y-130901075D01*
X146635156Y-130994474D01*
X146681037Y-131076446D01*
X146739129Y-131148434D01*
X146806718Y-131210885D01*
X146880425Y-131258827D01*
X146961130Y-131293256D01*
X147050116Y-131314396D01*
X147148999Y-131321693D01*
X147248618Y-131314071D01*
X147333124Y-131292528D01*
X147405148Y-131258267D01*
X147465073Y-131212934D01*
X147541772Y-131133169D01*
X147568257Y-131287500D01*
X147742432Y-131287500D01*
X147742432Y-130613389D01*
X147218150Y-130613389D01*
X147218150Y-130823438D01*
X147509333Y-130823438D01*
X147488419Y-130902740D01*
X147453721Y-130969191D01*
X147405072Y-131025015D01*
X147344769Y-131067025D01*
X147273491Y-131092810D01*
X147188230Y-131101875D01*
X147122817Y-131095862D01*
X147061555Y-131078045D01*
X147003358Y-131048133D01*
X146947422Y-131005017D01*
X146904570Y-130953606D01*
X146871606Y-130884692D01*
X146849694Y-130793721D01*
X146841558Y-130674908D01*
X146848849Y-130557171D01*
X146868837Y-130462822D01*
X146899373Y-130387644D01*
X146939331Y-130328159D01*
X146992215Y-130277230D01*
X147050569Y-130241702D01*
X147115579Y-130220227D01*
X147189070Y-130212831D01*
X147265915Y-130220075D01*
X147333402Y-130240995D01*
X147386357Y-130271692D01*
X147427587Y-130311198D01*
X147458529Y-130360396D01*
X147479413Y-130421201D01*
X147738158Y-130421201D01*
X147719630Y-130333842D01*
X147686067Y-130255245D01*
X147637077Y-130183843D01*
X147571157Y-130118645D01*
X147495698Y-130067554D01*
X147407912Y-130029966D01*
X147305526Y-130006272D01*
X147185711Y-129997897D01*
X147075781Y-130005800D01*
X146978055Y-130028561D01*
X146890602Y-130065378D01*
X146811877Y-130116300D01*
X146740808Y-130182224D01*
X146681887Y-130258303D01*
X146635473Y-130343823D01*
X146601370Y-130440115D01*
X146580041Y-130548887D01*
X146572585Y-130672160D01*
X146433696Y-130672160D01*
X146433696Y-129859008D01*
X147881321Y-129859008D01*
X147881321Y-131460582D01*
G37*
G36*
X154168612Y-75710582D02*
G01*
X147183696Y-75710582D01*
X147183696Y-75150146D01*
X147322585Y-75150146D01*
X147328614Y-75227803D01*
X147345932Y-75296141D01*
X147373946Y-75356736D01*
X147412823Y-75410801D01*
X147463483Y-75459113D01*
X147536100Y-75506118D01*
X147622873Y-75541230D01*
X147726508Y-75563673D01*
X147850303Y-75571693D01*
X147971485Y-75563519D01*
X148071717Y-75540743D01*
X148154588Y-75505231D01*
X148223002Y-75457739D01*
X148281422Y-75396216D01*
X148322074Y-75328958D01*
X148346564Y-75254669D01*
X148354969Y-75171364D01*
X148347281Y-75088921D01*
X148325580Y-75020294D01*
X148290780Y-74962731D01*
X148242236Y-74914375D01*
X148191112Y-74881467D01*
X148120928Y-74850739D01*
X148027073Y-74823089D01*
X147810155Y-74770959D01*
X147695956Y-74739623D01*
X147646207Y-74718904D01*
X147612647Y-74692515D01*
X147593198Y-74659655D01*
X147586444Y-74618154D01*
X147593308Y-74572450D01*
X147613145Y-74535039D01*
X147647047Y-74503818D01*
X147689426Y-74482028D01*
X147742632Y-74467948D01*
X147809316Y-74462831D01*
X147895937Y-74471289D01*
X147962120Y-74494354D01*
X148002884Y-74522360D01*
X148032410Y-74557642D01*
X148051941Y-74601370D01*
X148061191Y-74655783D01*
X148313982Y-74655783D01*
X148305291Y-74576131D01*
X148285885Y-74507154D01*
X148256449Y-74447131D01*
X148216941Y-74394732D01*
X148166597Y-74349105D01*
X148094006Y-74303350D01*
X148030726Y-74277206D01*
X148441905Y-74277206D01*
X148798804Y-75537500D01*
X149043047Y-75537500D01*
X149195012Y-74800497D01*
X149239434Y-74556788D01*
X149283855Y-74800497D01*
X149435820Y-75537500D01*
X149686856Y-75537500D01*
X150180074Y-75537500D01*
X150441338Y-75537500D01*
X150441338Y-74501910D01*
X150581548Y-74501910D01*
X150959819Y-74501910D01*
X150959819Y-75537500D01*
X151224518Y-75537500D01*
X151224518Y-74916970D01*
X151700486Y-74916970D01*
X151707542Y-75041119D01*
X151727586Y-75149167D01*
X151759344Y-75243336D01*
X151802130Y-75325535D01*
X151855885Y-75397289D01*
X151921523Y-75459140D01*
X151995608Y-75507224D01*
X152079327Y-75542247D01*
X152174374Y-75564066D01*
X152282852Y-75571693D01*
X152391097Y-75562975D01*
X152485750Y-75537971D01*
X152486722Y-75537500D01*
X153016191Y-75537500D01*
X153276615Y-75537500D01*
X153276615Y-74975741D01*
X153768459Y-74975741D01*
X153768459Y-75537500D01*
X154029723Y-75537500D01*
X154029723Y-74277206D01*
X153768459Y-74277206D01*
X153768459Y-74760807D01*
X153276615Y-74760807D01*
X153276615Y-74277206D01*
X153016191Y-74277206D01*
X153016191Y-75537500D01*
X152486722Y-75537500D01*
X152569183Y-75497536D01*
X152643187Y-75441329D01*
X152706041Y-75372331D01*
X152755811Y-75294254D01*
X152793017Y-75205890D01*
X152817439Y-75105571D01*
X152556939Y-75105571D01*
X152525012Y-75195225D01*
X152490382Y-75251583D01*
X152450952Y-75290439D01*
X152403810Y-75318402D01*
X152347394Y-75335895D01*
X152279418Y-75342105D01*
X152214370Y-75335404D01*
X152156600Y-75315896D01*
X152104488Y-75283497D01*
X152057004Y-75236852D01*
X152021293Y-75182646D01*
X151993939Y-75114018D01*
X151976006Y-75027764D01*
X151969458Y-74920023D01*
X151975544Y-74812443D01*
X151992378Y-74724105D01*
X152018285Y-74651863D01*
X152052272Y-74593043D01*
X152098127Y-74541933D01*
X152150166Y-74506440D01*
X152209618Y-74484943D01*
X152278578Y-74477486D01*
X152348551Y-74483269D01*
X152405796Y-74499402D01*
X152452757Y-74524803D01*
X152491222Y-74559460D01*
X152525840Y-74612809D01*
X152556939Y-74696083D01*
X152819958Y-74696083D01*
X152808221Y-74619859D01*
X152779885Y-74542022D01*
X152732870Y-74461228D01*
X152680727Y-74399082D01*
X152620127Y-74348280D01*
X152550182Y-74308038D01*
X152469504Y-74278235D01*
X152376280Y-74259419D01*
X152268350Y-74252782D01*
X152174156Y-74259375D01*
X152089250Y-74278467D01*
X152012189Y-74309496D01*
X151941804Y-74352545D01*
X151877257Y-74408334D01*
X151816121Y-74482192D01*
X151767532Y-74567933D01*
X151731428Y-74667354D01*
X151708568Y-74782781D01*
X151700486Y-74916970D01*
X151224518Y-74916970D01*
X151224518Y-74501910D01*
X151601109Y-74501910D01*
X151601109Y-74277206D01*
X150581548Y-74277206D01*
X150581548Y-74501910D01*
X150441338Y-74501910D01*
X150441338Y-74277206D01*
X150180074Y-74277206D01*
X150180074Y-75537500D01*
X149686856Y-75537500D01*
X150041237Y-74277206D01*
X149773944Y-74277206D01*
X149605722Y-75006500D01*
X149567330Y-75199757D01*
X149528862Y-74998868D01*
X149379492Y-74277206D01*
X149101971Y-74277206D01*
X148960157Y-75003142D01*
X148923445Y-75199757D01*
X148887648Y-74998868D01*
X148721105Y-74277206D01*
X148441905Y-74277206D01*
X148030726Y-74277206D01*
X148014160Y-74270362D01*
X147925775Y-74250042D01*
X147827252Y-74243012D01*
X147707014Y-74251165D01*
X147609284Y-74273705D01*
X147530027Y-74308573D01*
X147466002Y-74354906D01*
X147411852Y-74414911D01*
X147373915Y-74480785D01*
X147350945Y-74553806D01*
X147343041Y-74635862D01*
X147351848Y-74726609D01*
X147376457Y-74800066D01*
X147415650Y-74859866D01*
X147470276Y-74908345D01*
X147523675Y-74937752D01*
X147610289Y-74970086D01*
X147741844Y-75004897D01*
X147875032Y-75034741D01*
X147983400Y-75064729D01*
X148046689Y-75093664D01*
X148077435Y-75120053D01*
X148095219Y-75151636D01*
X148101338Y-75190217D01*
X148094368Y-75239667D01*
X148074525Y-75279144D01*
X148041234Y-75311117D01*
X147991200Y-75336228D01*
X147928481Y-75351050D01*
X147840075Y-75356760D01*
X147761458Y-75350880D01*
X147701078Y-75334981D01*
X147655086Y-75310853D01*
X147620562Y-75279060D01*
X147601233Y-75248695D01*
X147585273Y-75206758D01*
X147573621Y-75150146D01*
X147322585Y-75150146D01*
X147183696Y-75150146D01*
X147183696Y-74104123D01*
X154168612Y-74104123D01*
X154168612Y-75710582D01*
G37*
G36*
X149532250Y-131426389D02*
G01*
X148151258Y-131426389D01*
X148151258Y-130027206D01*
X148290147Y-130027206D01*
X148715358Y-131287500D01*
X148963876Y-131287500D01*
X149393361Y-130027206D01*
X149120115Y-130027206D01*
X148844349Y-130983951D01*
X148571103Y-130027206D01*
X148290147Y-130027206D01*
X148151258Y-130027206D01*
X148151258Y-129888317D01*
X149532250Y-129888317D01*
X149532250Y-131426389D01*
G37*
G36*
X154587445Y-126460582D02*
G01*
X150933696Y-126460582D01*
X150933696Y-125900146D01*
X151072585Y-125900146D01*
X151078614Y-125977803D01*
X151095932Y-126046141D01*
X151123946Y-126106736D01*
X151162823Y-126160801D01*
X151213483Y-126209113D01*
X151286100Y-126256118D01*
X151372873Y-126291230D01*
X151476508Y-126313673D01*
X151600303Y-126321693D01*
X151721485Y-126313519D01*
X151821717Y-126290743D01*
X151904588Y-126255231D01*
X151973002Y-126207739D01*
X152031422Y-126146216D01*
X152072074Y-126078958D01*
X152096564Y-126004669D01*
X152104969Y-125921364D01*
X152097281Y-125838921D01*
X152075580Y-125770294D01*
X152040780Y-125712731D01*
X151994841Y-125666970D01*
X152244798Y-125666970D01*
X152251855Y-125791119D01*
X152271899Y-125899167D01*
X152303656Y-125993336D01*
X152346443Y-126075535D01*
X152400198Y-126147289D01*
X152465836Y-126209140D01*
X152539921Y-126257224D01*
X152623640Y-126292247D01*
X152718686Y-126314066D01*
X152827165Y-126321693D01*
X152935409Y-126312975D01*
X153030063Y-126287971D01*
X153031035Y-126287500D01*
X153562183Y-126287500D01*
X154448556Y-126287500D01*
X154448556Y-126062796D01*
X153825202Y-126062796D01*
X153825202Y-125027206D01*
X153562183Y-125027206D01*
X153562183Y-126287500D01*
X153031035Y-126287500D01*
X153113496Y-126247536D01*
X153187500Y-126191329D01*
X153250354Y-126122331D01*
X153300124Y-126044254D01*
X153337330Y-125955890D01*
X153361752Y-125855571D01*
X153101251Y-125855571D01*
X153069325Y-125945225D01*
X153034695Y-126001583D01*
X152995264Y-126040439D01*
X152948123Y-126068402D01*
X152891707Y-126085895D01*
X152823730Y-126092105D01*
X152758683Y-126085404D01*
X152700912Y-126065896D01*
X152648801Y-126033497D01*
X152601317Y-125986852D01*
X152565605Y-125932646D01*
X152538252Y-125864018D01*
X152520318Y-125777764D01*
X152513771Y-125670023D01*
X152519856Y-125562443D01*
X152536690Y-125474105D01*
X152562597Y-125401863D01*
X152596584Y-125343043D01*
X152642440Y-125291933D01*
X152694478Y-125256440D01*
X152753931Y-125234943D01*
X152822891Y-125227486D01*
X152892863Y-125233269D01*
X152950109Y-125249402D01*
X152997070Y-125274803D01*
X153035535Y-125309460D01*
X153070153Y-125362809D01*
X153101251Y-125446083D01*
X153364270Y-125446083D01*
X153352534Y-125369859D01*
X153324197Y-125292022D01*
X153277182Y-125211228D01*
X153225040Y-125149082D01*
X153164440Y-125098280D01*
X153094494Y-125058038D01*
X153013816Y-125028235D01*
X152920592Y-125009419D01*
X152812663Y-125002782D01*
X152718469Y-125009375D01*
X152633562Y-125028467D01*
X152556502Y-125059496D01*
X152486117Y-125102545D01*
X152421569Y-125158334D01*
X152360434Y-125232192D01*
X152311845Y-125317933D01*
X152275741Y-125417354D01*
X152252880Y-125532781D01*
X152244798Y-125666970D01*
X151994841Y-125666970D01*
X151992236Y-125664375D01*
X151941112Y-125631467D01*
X151870928Y-125600739D01*
X151777073Y-125573089D01*
X151560155Y-125520959D01*
X151445956Y-125489623D01*
X151396207Y-125468904D01*
X151362647Y-125442515D01*
X151343198Y-125409655D01*
X151336444Y-125368154D01*
X151343308Y-125322450D01*
X151363145Y-125285039D01*
X151397047Y-125253818D01*
X151439426Y-125232028D01*
X151492632Y-125217948D01*
X151559316Y-125212831D01*
X151645937Y-125221289D01*
X151712120Y-125244354D01*
X151752884Y-125272360D01*
X151782410Y-125307642D01*
X151801941Y-125351370D01*
X151811191Y-125405783D01*
X152063982Y-125405783D01*
X152055291Y-125326131D01*
X152035885Y-125257154D01*
X152006449Y-125197131D01*
X151966941Y-125144732D01*
X151916597Y-125099105D01*
X151844006Y-125053350D01*
X151764160Y-125020362D01*
X151675775Y-125000042D01*
X151577252Y-124993012D01*
X151457014Y-125001165D01*
X151359284Y-125023705D01*
X151280027Y-125058573D01*
X151216002Y-125104906D01*
X151161852Y-125164911D01*
X151123915Y-125230785D01*
X151100945Y-125303806D01*
X151093041Y-125385862D01*
X151101848Y-125476609D01*
X151126457Y-125550066D01*
X151165650Y-125609866D01*
X151220276Y-125658345D01*
X151273675Y-125687752D01*
X151360289Y-125720086D01*
X151491844Y-125754897D01*
X151625032Y-125784741D01*
X151733400Y-125814729D01*
X151796689Y-125843664D01*
X151827435Y-125870053D01*
X151845219Y-125901636D01*
X151851338Y-125940217D01*
X151844368Y-125989667D01*
X151824525Y-126029144D01*
X151791234Y-126061117D01*
X151741200Y-126086228D01*
X151678481Y-126101050D01*
X151590075Y-126106760D01*
X151511458Y-126100880D01*
X151451078Y-126084981D01*
X151405086Y-126060853D01*
X151370562Y-126029060D01*
X151351233Y-125998695D01*
X151335273Y-125956758D01*
X151323621Y-125900146D01*
X151072585Y-125900146D01*
X150933696Y-125900146D01*
X150933696Y-124854123D01*
X154587445Y-124854123D01*
X154587445Y-126460582D01*
G37*
G36*
X164631321Y-131460582D02*
G01*
X163183696Y-131460582D01*
X163183696Y-130672160D01*
X163322585Y-130672160D01*
X163330051Y-130794377D01*
X163351315Y-130901075D01*
X163385156Y-130994474D01*
X163431037Y-131076446D01*
X163489129Y-131148434D01*
X163556718Y-131210885D01*
X163630425Y-131258827D01*
X163711130Y-131293256D01*
X163800116Y-131314396D01*
X163898999Y-131321693D01*
X163998618Y-131314071D01*
X164083124Y-131292528D01*
X164155148Y-131258267D01*
X164215073Y-131212934D01*
X164291772Y-131133169D01*
X164318257Y-131287500D01*
X164492432Y-131287500D01*
X164492432Y-130613389D01*
X163968150Y-130613389D01*
X163968150Y-130823438D01*
X164259333Y-130823438D01*
X164238419Y-130902740D01*
X164203721Y-130969191D01*
X164155072Y-131025015D01*
X164094769Y-131067025D01*
X164023491Y-131092810D01*
X163938230Y-131101875D01*
X163872817Y-131095862D01*
X163811555Y-131078045D01*
X163753358Y-131048133D01*
X163697422Y-131005017D01*
X163654570Y-130953606D01*
X163621606Y-130884692D01*
X163599694Y-130793721D01*
X163591558Y-130674908D01*
X163598849Y-130557171D01*
X163618837Y-130462822D01*
X163649373Y-130387644D01*
X163689331Y-130328159D01*
X163742215Y-130277230D01*
X163800569Y-130241702D01*
X163865579Y-130220227D01*
X163939070Y-130212831D01*
X164015915Y-130220075D01*
X164083402Y-130240995D01*
X164136357Y-130271692D01*
X164177587Y-130311198D01*
X164208529Y-130360396D01*
X164229413Y-130421201D01*
X164488158Y-130421201D01*
X164469630Y-130333842D01*
X164436067Y-130255245D01*
X164387077Y-130183843D01*
X164321157Y-130118645D01*
X164245698Y-130067554D01*
X164157912Y-130029966D01*
X164055526Y-130006272D01*
X163935711Y-129997897D01*
X163825781Y-130005800D01*
X163728055Y-130028561D01*
X163640602Y-130065378D01*
X163561877Y-130116300D01*
X163490808Y-130182224D01*
X163431887Y-130258303D01*
X163385473Y-130343823D01*
X163351370Y-130440115D01*
X163330041Y-130548887D01*
X163322585Y-130672160D01*
X163183696Y-130672160D01*
X163183696Y-129859008D01*
X164631321Y-129859008D01*
X164631321Y-131460582D01*
G37*
G36*
X166533624Y-93460582D02*
G01*
X163433696Y-93460582D01*
X163433696Y-92900146D01*
X163572585Y-92900146D01*
X163578614Y-92977803D01*
X163595932Y-93046141D01*
X163623946Y-93106736D01*
X163662823Y-93160801D01*
X163713483Y-93209113D01*
X163786100Y-93256118D01*
X163872873Y-93291230D01*
X163976508Y-93313673D01*
X164100303Y-93321693D01*
X164221485Y-93313519D01*
X164321717Y-93290743D01*
X164329285Y-93287500D01*
X164778992Y-93287500D01*
X165040256Y-93287500D01*
X165040256Y-92672160D01*
X165224888Y-92672160D01*
X165232354Y-92794377D01*
X165253618Y-92901075D01*
X165287459Y-92994474D01*
X165333339Y-93076446D01*
X165391431Y-93148434D01*
X165459021Y-93210885D01*
X165532728Y-93258827D01*
X165613433Y-93293256D01*
X165702419Y-93314396D01*
X165801301Y-93321693D01*
X165900921Y-93314071D01*
X165985427Y-93292528D01*
X166057451Y-93258267D01*
X166117376Y-93212934D01*
X166194074Y-93133169D01*
X166220560Y-93287500D01*
X166394735Y-93287500D01*
X166394735Y-92613389D01*
X165870453Y-92613389D01*
X165870453Y-92823438D01*
X166161636Y-92823438D01*
X166140722Y-92902740D01*
X166106024Y-92969191D01*
X166057375Y-93025015D01*
X165997072Y-93067025D01*
X165925794Y-93092810D01*
X165840533Y-93101875D01*
X165775119Y-93095862D01*
X165713858Y-93078045D01*
X165655661Y-93048133D01*
X165599725Y-93005017D01*
X165556873Y-92953606D01*
X165523909Y-92884692D01*
X165501997Y-92793721D01*
X165493861Y-92674908D01*
X165501152Y-92557171D01*
X165521140Y-92462822D01*
X165551676Y-92387644D01*
X165591634Y-92328159D01*
X165644518Y-92277230D01*
X165702872Y-92241702D01*
X165767882Y-92220227D01*
X165841372Y-92212831D01*
X165918217Y-92220075D01*
X165985705Y-92240995D01*
X166038660Y-92271692D01*
X166079890Y-92311198D01*
X166110832Y-92360396D01*
X166131716Y-92421201D01*
X166390461Y-92421201D01*
X166371933Y-92333842D01*
X166338370Y-92255245D01*
X166289379Y-92183843D01*
X166223460Y-92118645D01*
X166148001Y-92067554D01*
X166060214Y-92029966D01*
X165957829Y-92006272D01*
X165838014Y-91997897D01*
X165728084Y-92005800D01*
X165630358Y-92028561D01*
X165542905Y-92065378D01*
X165464180Y-92116300D01*
X165393111Y-92182224D01*
X165334190Y-92258303D01*
X165287776Y-92343823D01*
X165253673Y-92440115D01*
X165232344Y-92548887D01*
X165224888Y-92672160D01*
X165040256Y-92672160D01*
X165040256Y-92027206D01*
X164778992Y-92027206D01*
X164778992Y-93287500D01*
X164329285Y-93287500D01*
X164404588Y-93255231D01*
X164473002Y-93207739D01*
X164531422Y-93146216D01*
X164572074Y-93078958D01*
X164596564Y-93004669D01*
X164604969Y-92921364D01*
X164597281Y-92838921D01*
X164575580Y-92770294D01*
X164540780Y-92712731D01*
X164492236Y-92664375D01*
X164441112Y-92631467D01*
X164370928Y-92600739D01*
X164277073Y-92573089D01*
X164060155Y-92520959D01*
X163945956Y-92489623D01*
X163896207Y-92468904D01*
X163862647Y-92442515D01*
X163843198Y-92409655D01*
X163836444Y-92368154D01*
X163843308Y-92322450D01*
X163863145Y-92285039D01*
X163897047Y-92253818D01*
X163939426Y-92232028D01*
X163992632Y-92217948D01*
X164059316Y-92212831D01*
X164145937Y-92221289D01*
X164212120Y-92244354D01*
X164252884Y-92272360D01*
X164282410Y-92307642D01*
X164301941Y-92351370D01*
X164311191Y-92405783D01*
X164563982Y-92405783D01*
X164555291Y-92326131D01*
X164535885Y-92257154D01*
X164506449Y-92197131D01*
X164466941Y-92144732D01*
X164416597Y-92099105D01*
X164344006Y-92053350D01*
X164264160Y-92020362D01*
X164175775Y-92000042D01*
X164077252Y-91993012D01*
X163957014Y-92001165D01*
X163859284Y-92023705D01*
X163780027Y-92058573D01*
X163716002Y-92104906D01*
X163661852Y-92164911D01*
X163623915Y-92230785D01*
X163600945Y-92303806D01*
X163593041Y-92385862D01*
X163601848Y-92476609D01*
X163626457Y-92550066D01*
X163665650Y-92609866D01*
X163720276Y-92658345D01*
X163773675Y-92687752D01*
X163860289Y-92720086D01*
X163991844Y-92754897D01*
X164125032Y-92784741D01*
X164233400Y-92814729D01*
X164296689Y-92843664D01*
X164327435Y-92870053D01*
X164345219Y-92901636D01*
X164351338Y-92940217D01*
X164344368Y-92989667D01*
X164324525Y-93029144D01*
X164291234Y-93061117D01*
X164241200Y-93086228D01*
X164178481Y-93101050D01*
X164090075Y-93106760D01*
X164011458Y-93100880D01*
X163951078Y-93084981D01*
X163905086Y-93060853D01*
X163870562Y-93029060D01*
X163851233Y-92998695D01*
X163835273Y-92956758D01*
X163823621Y-92900146D01*
X163572585Y-92900146D01*
X163433696Y-92900146D01*
X163433696Y-91854123D01*
X166533624Y-91854123D01*
X166533624Y-93460582D01*
G37*
G36*
X170004337Y-93460582D02*
G01*
X167657211Y-93460582D01*
X167657211Y-92955711D01*
X167796100Y-92955711D01*
X167809609Y-93041175D01*
X167835456Y-93113267D01*
X167872954Y-93174300D01*
X167922496Y-93225905D01*
X167981587Y-93266893D01*
X168048643Y-93296668D01*
X168125113Y-93315206D01*
X168212840Y-93321693D01*
X168301305Y-93315548D01*
X168376566Y-93298199D01*
X168440774Y-93270741D01*
X168495655Y-93233510D01*
X168542415Y-93186062D01*
X168590999Y-93115209D01*
X168625110Y-93040902D01*
X168645605Y-92962192D01*
X168652553Y-92877858D01*
X168644514Y-92779331D01*
X168622032Y-92698150D01*
X168586561Y-92631047D01*
X168538141Y-92575608D01*
X168477889Y-92529792D01*
X168413811Y-92497663D01*
X168344947Y-92478318D01*
X168270008Y-92471728D01*
X168197343Y-92477078D01*
X168141093Y-92491573D01*
X168107083Y-92507858D01*
X168053166Y-92540803D01*
X168097511Y-92271449D01*
X168603857Y-92271449D01*
X168603857Y-92066285D01*
X167921656Y-92066285D01*
X167834569Y-92748868D01*
X168053166Y-92759095D01*
X168075898Y-92725692D01*
X168104383Y-92700651D01*
X168139414Y-92683075D01*
X168173551Y-92674962D01*
X168216198Y-92672008D01*
X168275398Y-92679871D01*
X168320343Y-92701717D01*
X168354577Y-92737419D01*
X168378712Y-92782881D01*
X168393721Y-92835702D01*
X168398999Y-92897551D01*
X168393334Y-92960375D01*
X168377309Y-93013126D01*
X168351600Y-93057759D01*
X168315829Y-93092695D01*
X168270838Y-93113887D01*
X168213679Y-93121414D01*
X168163084Y-93116081D01*
X168124146Y-93101427D01*
X168094153Y-93078290D01*
X168070829Y-93047312D01*
X168052121Y-93007141D01*
X168038588Y-92955711D01*
X167796100Y-92955711D01*
X167657211Y-92955711D01*
X167657211Y-92027206D01*
X168762233Y-92027206D01*
X169187445Y-93287500D01*
X169435962Y-93287500D01*
X169865448Y-92027206D01*
X169592201Y-92027206D01*
X169316436Y-92983951D01*
X169043189Y-92027206D01*
X168762233Y-92027206D01*
X167657211Y-92027206D01*
X167657211Y-91888317D01*
X170004337Y-91888317D01*
X170004337Y-93460582D01*
G37*
G36*
X174344013Y-92254802D02*
G01*
X174410596Y-92275625D01*
X174459382Y-92307192D01*
X174494122Y-92349378D01*
X174525127Y-92420957D01*
X174546045Y-92517151D01*
X174553886Y-92644530D01*
X174549023Y-92736675D01*
X174535300Y-92815997D01*
X174513738Y-92884270D01*
X174478170Y-92952853D01*
X174435255Y-93003221D01*
X174384761Y-93038482D01*
X174325227Y-93060091D01*
X174254154Y-93067681D01*
X174011666Y-93067681D01*
X174011666Y-92247025D01*
X174254154Y-92247025D01*
X174344013Y-92254802D01*
G37*
G36*
X174960068Y-93460582D02*
G01*
X170933696Y-93460582D01*
X170933696Y-92672160D01*
X171072585Y-92672160D01*
X171080051Y-92794377D01*
X171101315Y-92901075D01*
X171135156Y-92994474D01*
X171181037Y-93076446D01*
X171239129Y-93148434D01*
X171306718Y-93210885D01*
X171380425Y-93258827D01*
X171461130Y-93293256D01*
X171550116Y-93314396D01*
X171648999Y-93321693D01*
X171748618Y-93314071D01*
X171833124Y-93292528D01*
X171905148Y-93258267D01*
X171965073Y-93212934D01*
X172041772Y-93133169D01*
X172068257Y-93287500D01*
X172242432Y-93287500D01*
X172489347Y-93287500D01*
X172734429Y-93287500D01*
X172734429Y-92392273D01*
X173248484Y-93287500D01*
X173511503Y-93287500D01*
X173511503Y-93067681D01*
X173756356Y-93067681D01*
X173756356Y-93287500D01*
X174298575Y-93287500D01*
X174392729Y-93280475D01*
X174475245Y-93260352D01*
X174548033Y-93227937D01*
X174612592Y-93183188D01*
X174669917Y-93125214D01*
X174720429Y-93052339D01*
X174763078Y-92963962D01*
X174794556Y-92864665D01*
X174814284Y-92752831D01*
X174821179Y-92626594D01*
X174815368Y-92526414D01*
X174797213Y-92417995D01*
X174776702Y-92346908D01*
X174746953Y-92279230D01*
X174707606Y-92214434D01*
X174646890Y-92144566D01*
X174575942Y-92091716D01*
X174493283Y-92054531D01*
X174410343Y-92035537D01*
X174298575Y-92027206D01*
X173756356Y-92027206D01*
X173756356Y-93067681D01*
X173511503Y-93067681D01*
X173511503Y-92027206D01*
X173266420Y-92027206D01*
X173266420Y-92907015D01*
X172765188Y-92027206D01*
X172489347Y-92027206D01*
X172489347Y-93287500D01*
X172242432Y-93287500D01*
X172242432Y-92613389D01*
X171718150Y-92613389D01*
X171718150Y-92823438D01*
X172009333Y-92823438D01*
X171988419Y-92902740D01*
X171953721Y-92969191D01*
X171905072Y-93025015D01*
X171844769Y-93067025D01*
X171773491Y-93092810D01*
X171688230Y-93101875D01*
X171622817Y-93095862D01*
X171561555Y-93078045D01*
X171503358Y-93048133D01*
X171447422Y-93005017D01*
X171404570Y-92953606D01*
X171371606Y-92884692D01*
X171349694Y-92793721D01*
X171341558Y-92674908D01*
X171348849Y-92557171D01*
X171368837Y-92462822D01*
X171399373Y-92387644D01*
X171439331Y-92328159D01*
X171492215Y-92277230D01*
X171550569Y-92241702D01*
X171615579Y-92220227D01*
X171689070Y-92212831D01*
X171765915Y-92220075D01*
X171833402Y-92240995D01*
X171886357Y-92271692D01*
X171927587Y-92311198D01*
X171958529Y-92360396D01*
X171979413Y-92421201D01*
X172238158Y-92421201D01*
X172219630Y-92333842D01*
X172186067Y-92255245D01*
X172137077Y-92183843D01*
X172071157Y-92118645D01*
X171995698Y-92067554D01*
X171907912Y-92029966D01*
X171805526Y-92006272D01*
X171685711Y-91997897D01*
X171575781Y-92005800D01*
X171478055Y-92028561D01*
X171390602Y-92065378D01*
X171311877Y-92116300D01*
X171240808Y-92182224D01*
X171181887Y-92258303D01*
X171135473Y-92343823D01*
X171101370Y-92440115D01*
X171080041Y-92548887D01*
X171072585Y-92672160D01*
X170933696Y-92672160D01*
X170933696Y-91859008D01*
X174960068Y-91859008D01*
X174960068Y-93460582D01*
G37*
D11*
G36*
X159887105Y-125254802D02*
G01*
X159953688Y-125275625D01*
X160002473Y-125307192D01*
X160037214Y-125349378D01*
X160068219Y-125420957D01*
X160089136Y-125517151D01*
X160096977Y-125644530D01*
X160092114Y-125736675D01*
X160078391Y-125815997D01*
X160056830Y-125884270D01*
X160021261Y-125952853D01*
X159978347Y-126003221D01*
X159927853Y-126038482D01*
X159868319Y-126060091D01*
X159797245Y-126067681D01*
X159554758Y-126067681D01*
X159554758Y-125247025D01*
X159797245Y-125247025D01*
X159887105Y-125254802D01*
G37*
G36*
X161225684Y-125813668D02*
G01*
X160906337Y-125813668D01*
X161068529Y-125318390D01*
X161225684Y-125813668D01*
G37*
G36*
X161804363Y-126460582D02*
G01*
X157933696Y-126460582D01*
X157933696Y-125900146D01*
X158072585Y-125900146D01*
X158078614Y-125977803D01*
X158095932Y-126046141D01*
X158123946Y-126106736D01*
X158162823Y-126160801D01*
X158213483Y-126209113D01*
X158286100Y-126256118D01*
X158372873Y-126291230D01*
X158476508Y-126313673D01*
X158600303Y-126321693D01*
X158721485Y-126313519D01*
X158821717Y-126290743D01*
X158904588Y-126255231D01*
X158973002Y-126207739D01*
X159031422Y-126146216D01*
X159072074Y-126078958D01*
X159075792Y-126067681D01*
X159299448Y-126067681D01*
X159299448Y-126287500D01*
X159841667Y-126287500D01*
X160473416Y-126287500D01*
X160748342Y-126287500D01*
X160835430Y-126028602D01*
X161299110Y-126028602D01*
X161380244Y-126287500D01*
X161665474Y-126287500D01*
X161219731Y-125027206D01*
X160922518Y-125027206D01*
X160642265Y-125813668D01*
X160473416Y-126287500D01*
X159841667Y-126287500D01*
X159935821Y-126280475D01*
X160018336Y-126260352D01*
X160091124Y-126227937D01*
X160155684Y-126183188D01*
X160213008Y-126125214D01*
X160263520Y-126052339D01*
X160306169Y-125963962D01*
X160337648Y-125864665D01*
X160357375Y-125752831D01*
X160364270Y-125626594D01*
X160358459Y-125526414D01*
X160340304Y-125417995D01*
X160319794Y-125346908D01*
X160290044Y-125279230D01*
X160250697Y-125214434D01*
X160189981Y-125144566D01*
X160119033Y-125091716D01*
X160036374Y-125054531D01*
X159953435Y-125035537D01*
X159841667Y-125027206D01*
X159299448Y-125027206D01*
X159299448Y-126067681D01*
X159075792Y-126067681D01*
X159096564Y-126004669D01*
X159104969Y-125921364D01*
X159097281Y-125838921D01*
X159075580Y-125770294D01*
X159040780Y-125712731D01*
X158992236Y-125664375D01*
X158941112Y-125631467D01*
X158870928Y-125600739D01*
X158777073Y-125573089D01*
X158560155Y-125520959D01*
X158445956Y-125489623D01*
X158396207Y-125468904D01*
X158362647Y-125442515D01*
X158343198Y-125409655D01*
X158336444Y-125368154D01*
X158343308Y-125322450D01*
X158363145Y-125285039D01*
X158397047Y-125253818D01*
X158439426Y-125232028D01*
X158492632Y-125217948D01*
X158559316Y-125212831D01*
X158645937Y-125221289D01*
X158712120Y-125244354D01*
X158752884Y-125272360D01*
X158782410Y-125307642D01*
X158801941Y-125351370D01*
X158811191Y-125405783D01*
X159063982Y-125405783D01*
X159055291Y-125326131D01*
X159035885Y-125257154D01*
X159006449Y-125197131D01*
X158966941Y-125144732D01*
X158916597Y-125099105D01*
X158844006Y-125053350D01*
X158764160Y-125020362D01*
X158675775Y-125000042D01*
X158577252Y-124993012D01*
X158457014Y-125001165D01*
X158359284Y-125023705D01*
X158280027Y-125058573D01*
X158216002Y-125104906D01*
X158161852Y-125164911D01*
X158123915Y-125230785D01*
X158100945Y-125303806D01*
X158093041Y-125385862D01*
X158101848Y-125476609D01*
X158126457Y-125550066D01*
X158165650Y-125609866D01*
X158220276Y-125658345D01*
X158273675Y-125687752D01*
X158360289Y-125720086D01*
X158491844Y-125754897D01*
X158625032Y-125784741D01*
X158733400Y-125814729D01*
X158796689Y-125843664D01*
X158827435Y-125870053D01*
X158845219Y-125901636D01*
X158851338Y-125940217D01*
X158844368Y-125989667D01*
X158824525Y-126029144D01*
X158791234Y-126061117D01*
X158741200Y-126086228D01*
X158678481Y-126101050D01*
X158590075Y-126106760D01*
X158511458Y-126100880D01*
X158451078Y-126084981D01*
X158405086Y-126060853D01*
X158370562Y-126029060D01*
X158351233Y-125998695D01*
X158335273Y-125956758D01*
X158323621Y-125900146D01*
X158072585Y-125900146D01*
X157933696Y-125900146D01*
X157933696Y-124854123D01*
X161804363Y-124854123D01*
X161804363Y-126460582D01*
G37*
D12*
G36*
X127429788Y-118705698D02*
G01*
X124157211Y-118705698D01*
X124157211Y-118153962D01*
X124296100Y-118153962D01*
X124306273Y-118251286D01*
X124326702Y-118329983D01*
X124355864Y-118393320D01*
X124401400Y-118453815D01*
X124458469Y-118501115D01*
X124528796Y-118536216D01*
X124615205Y-118558706D01*
X124721388Y-118566809D01*
X124827800Y-118558364D01*
X124914683Y-118534863D01*
X124985732Y-118498015D01*
X125043712Y-118448046D01*
X125091898Y-118385403D01*
X125125539Y-118319322D01*
X125145707Y-118248842D01*
X125152553Y-118172662D01*
X125146235Y-118099286D01*
X125128296Y-118036932D01*
X125099492Y-117983547D01*
X125059512Y-117937654D01*
X124998533Y-117891538D01*
X124963876Y-117880639D01*
X125005955Y-117857092D01*
X125049284Y-117816372D01*
X125084980Y-117762977D01*
X125106642Y-117701958D01*
X125114161Y-117631206D01*
X125106962Y-117555621D01*
X125086329Y-117490496D01*
X125052717Y-117433750D01*
X125005244Y-117383986D01*
X124948685Y-117344875D01*
X124883251Y-117316215D01*
X124807307Y-117298210D01*
X124718793Y-117291861D01*
X124627301Y-117298192D01*
X124557364Y-117315217D01*
X124495644Y-117343976D01*
X124443867Y-117382536D01*
X124387656Y-117448429D01*
X124349910Y-117517786D01*
X124328030Y-117602382D01*
X124318311Y-117692801D01*
X124545457Y-117692801D01*
X124549547Y-117633115D01*
X124563011Y-117585261D01*
X124584765Y-117546789D01*
X124615335Y-117517278D01*
X124656289Y-117498856D01*
X124711084Y-117492140D01*
X124759311Y-117497510D01*
X124797385Y-117512467D01*
X124827634Y-117536485D01*
X124850267Y-117568194D01*
X124864177Y-117605973D01*
X124869079Y-117651509D01*
X124863317Y-117704435D01*
X124847582Y-117744379D01*
X124822797Y-117774465D01*
X124787944Y-117796375D01*
X124731843Y-117811515D01*
X124622317Y-117819426D01*
X124622317Y-117995280D01*
X124735238Y-118002044D01*
X124799928Y-118018025D01*
X124843223Y-118043174D01*
X124873387Y-118077047D01*
X124892191Y-118121160D01*
X124898999Y-118178768D01*
X124892485Y-118237108D01*
X124874435Y-118282565D01*
X124845570Y-118318139D01*
X124807733Y-118345145D01*
X124766450Y-118361106D01*
X124720472Y-118366530D01*
X124663936Y-118360320D01*
X124619907Y-118343134D01*
X124585490Y-118315725D01*
X124559119Y-118276923D01*
X124541698Y-118224329D01*
X124535229Y-118153962D01*
X124296100Y-118153962D01*
X124157211Y-118153962D01*
X124157211Y-117277206D01*
X125262233Y-117277206D01*
X125687445Y-118537500D01*
X125935962Y-118537500D01*
X126066665Y-118153962D01*
X126434446Y-118153962D01*
X126444619Y-118251286D01*
X126465048Y-118329983D01*
X126494210Y-118393320D01*
X126539746Y-118453815D01*
X126596815Y-118501115D01*
X126667142Y-118536216D01*
X126753551Y-118558706D01*
X126859734Y-118566809D01*
X126966146Y-118558364D01*
X127053029Y-118534863D01*
X127124078Y-118498015D01*
X127182059Y-118448046D01*
X127230244Y-118385403D01*
X127263885Y-118319322D01*
X127284053Y-118248842D01*
X127290899Y-118172662D01*
X127284581Y-118099286D01*
X127266642Y-118036932D01*
X127237838Y-117983547D01*
X127197858Y-117937654D01*
X127136880Y-117891538D01*
X127102222Y-117880639D01*
X127144301Y-117857092D01*
X127187630Y-117816372D01*
X127223326Y-117762977D01*
X127244988Y-117701958D01*
X127252507Y-117631206D01*
X127245308Y-117555621D01*
X127224676Y-117490496D01*
X127191063Y-117433750D01*
X127143590Y-117383986D01*
X127087032Y-117344875D01*
X127021598Y-117316215D01*
X126945653Y-117298210D01*
X126857139Y-117291861D01*
X126765647Y-117298192D01*
X126695710Y-117315217D01*
X126633991Y-117343976D01*
X126582213Y-117382536D01*
X126526002Y-117448429D01*
X126488256Y-117517786D01*
X126466376Y-117602382D01*
X126456657Y-117692801D01*
X126683803Y-117692801D01*
X126687893Y-117633115D01*
X126701357Y-117585261D01*
X126723111Y-117546789D01*
X126753681Y-117517278D01*
X126794635Y-117498856D01*
X126849430Y-117492140D01*
X126897657Y-117497510D01*
X126935732Y-117512467D01*
X126965980Y-117536485D01*
X126988613Y-117568194D01*
X127002523Y-117605973D01*
X127007425Y-117651509D01*
X127001663Y-117704435D01*
X126985928Y-117744379D01*
X126961143Y-117774465D01*
X126926290Y-117796375D01*
X126870189Y-117811515D01*
X126760663Y-117819426D01*
X126760663Y-117995280D01*
X126873584Y-118002044D01*
X126938274Y-118018025D01*
X126981569Y-118043174D01*
X127011733Y-118077047D01*
X127030537Y-118121160D01*
X127037345Y-118178768D01*
X127030831Y-118237108D01*
X127012781Y-118282565D01*
X126983917Y-118318139D01*
X126946079Y-118345145D01*
X126904796Y-118361106D01*
X126858818Y-118366530D01*
X126802282Y-118360320D01*
X126758253Y-118343134D01*
X126723836Y-118315725D01*
X126697465Y-118276923D01*
X126680044Y-118224329D01*
X126673575Y-118153962D01*
X126434446Y-118153962D01*
X126066665Y-118153962D01*
X126365448Y-117277206D01*
X126092201Y-117277206D01*
X125816436Y-118233951D01*
X125543189Y-117277206D01*
X125262233Y-117277206D01*
X124157211Y-117277206D01*
X124157211Y-117138317D01*
X127429788Y-117138317D01*
X127429788Y-118705698D01*
G37*
G36*
X131844013Y-117504802D02*
G01*
X131910596Y-117525625D01*
X131959382Y-117557192D01*
X131994122Y-117599378D01*
X132025127Y-117670957D01*
X132046045Y-117767151D01*
X132053886Y-117894530D01*
X132049023Y-117986675D01*
X132035300Y-118065997D01*
X132013738Y-118134270D01*
X131978170Y-118202853D01*
X131935255Y-118253221D01*
X131884761Y-118288482D01*
X131825227Y-118310091D01*
X131754154Y-118317681D01*
X131511666Y-118317681D01*
X131511666Y-117497025D01*
X131754154Y-117497025D01*
X131844013Y-117504802D01*
G37*
G36*
X132460068Y-118710582D02*
G01*
X128433696Y-118710582D01*
X128433696Y-117922160D01*
X128572585Y-117922160D01*
X128580051Y-118044377D01*
X128601315Y-118151075D01*
X128635156Y-118244474D01*
X128681037Y-118326446D01*
X128739129Y-118398434D01*
X128806718Y-118460885D01*
X128880425Y-118508827D01*
X128961130Y-118543256D01*
X129050116Y-118564396D01*
X129148999Y-118571693D01*
X129248618Y-118564071D01*
X129333124Y-118542528D01*
X129405148Y-118508267D01*
X129465073Y-118462934D01*
X129541772Y-118383169D01*
X129568257Y-118537500D01*
X129742432Y-118537500D01*
X129989347Y-118537500D01*
X130234429Y-118537500D01*
X130234429Y-117642273D01*
X130748484Y-118537500D01*
X131011503Y-118537500D01*
X131011503Y-118317681D01*
X131256356Y-118317681D01*
X131256356Y-118537500D01*
X131798575Y-118537500D01*
X131892729Y-118530475D01*
X131975245Y-118510352D01*
X132048033Y-118477937D01*
X132112592Y-118433188D01*
X132169917Y-118375214D01*
X132220429Y-118302339D01*
X132263078Y-118213962D01*
X132294556Y-118114665D01*
X132314284Y-118002831D01*
X132321179Y-117876594D01*
X132315368Y-117776414D01*
X132297213Y-117667995D01*
X132276702Y-117596908D01*
X132246953Y-117529230D01*
X132207606Y-117464434D01*
X132146890Y-117394566D01*
X132075942Y-117341716D01*
X131993283Y-117304531D01*
X131910343Y-117285537D01*
X131798575Y-117277206D01*
X131256356Y-117277206D01*
X131256356Y-118317681D01*
X131011503Y-118317681D01*
X131011503Y-117277206D01*
X130766420Y-117277206D01*
X130766420Y-118157015D01*
X130265188Y-117277206D01*
X129989347Y-117277206D01*
X129989347Y-118537500D01*
X129742432Y-118537500D01*
X129742432Y-117863389D01*
X129218150Y-117863389D01*
X129218150Y-118073438D01*
X129509333Y-118073438D01*
X129488419Y-118152740D01*
X129453721Y-118219191D01*
X129405072Y-118275015D01*
X129344769Y-118317025D01*
X129273491Y-118342810D01*
X129188230Y-118351875D01*
X129122817Y-118345862D01*
X129061555Y-118328045D01*
X129003358Y-118298133D01*
X128947422Y-118255017D01*
X128904570Y-118203606D01*
X128871606Y-118134692D01*
X128849694Y-118043721D01*
X128841558Y-117924908D01*
X128848849Y-117807171D01*
X128868837Y-117712822D01*
X128899373Y-117637644D01*
X128939331Y-117578159D01*
X128992215Y-117527230D01*
X129050569Y-117491702D01*
X129115579Y-117470227D01*
X129189070Y-117462831D01*
X129265915Y-117470075D01*
X129333402Y-117490995D01*
X129386357Y-117521692D01*
X129427587Y-117561198D01*
X129458529Y-117610396D01*
X129479413Y-117671201D01*
X129738158Y-117671201D01*
X129719630Y-117583842D01*
X129686067Y-117505245D01*
X129637077Y-117433843D01*
X129571157Y-117368645D01*
X129495698Y-117317554D01*
X129407912Y-117279966D01*
X129305526Y-117256272D01*
X129185711Y-117247897D01*
X129075781Y-117255800D01*
X128978055Y-117278561D01*
X128890602Y-117315378D01*
X128811877Y-117366300D01*
X128740808Y-117432224D01*
X128681887Y-117508303D01*
X128635473Y-117593823D01*
X128601370Y-117690115D01*
X128580041Y-117798887D01*
X128572585Y-117922160D01*
X128433696Y-117922160D01*
X128433696Y-117109008D01*
X132460068Y-117109008D01*
X132460068Y-118710582D01*
G37*
G36*
X143387105Y-125254802D02*
G01*
X143453688Y-125275625D01*
X143502473Y-125307192D01*
X143537214Y-125349378D01*
X143568219Y-125420957D01*
X143589136Y-125517151D01*
X143596977Y-125644530D01*
X143592114Y-125736675D01*
X143578391Y-125815997D01*
X143556830Y-125884270D01*
X143521261Y-125952853D01*
X143478347Y-126003221D01*
X143427853Y-126038482D01*
X143368319Y-126060091D01*
X143297245Y-126067681D01*
X143054758Y-126067681D01*
X143054758Y-125247025D01*
X143297245Y-125247025D01*
X143387105Y-125254802D01*
G37*
G36*
X144725684Y-125813668D02*
G01*
X144406337Y-125813668D01*
X144568529Y-125318390D01*
X144725684Y-125813668D01*
G37*
G36*
X145304363Y-126460582D02*
G01*
X141433696Y-126460582D01*
X141433696Y-125900146D01*
X141572585Y-125900146D01*
X141578614Y-125977803D01*
X141595932Y-126046141D01*
X141623946Y-126106736D01*
X141662823Y-126160801D01*
X141713483Y-126209113D01*
X141786100Y-126256118D01*
X141872873Y-126291230D01*
X141976508Y-126313673D01*
X142100303Y-126321693D01*
X142221485Y-126313519D01*
X142321717Y-126290743D01*
X142404588Y-126255231D01*
X142473002Y-126207739D01*
X142531422Y-126146216D01*
X142572074Y-126078958D01*
X142575792Y-126067681D01*
X142799448Y-126067681D01*
X142799448Y-126287500D01*
X143341667Y-126287500D01*
X143973416Y-126287500D01*
X144248342Y-126287500D01*
X144335430Y-126028602D01*
X144799110Y-126028602D01*
X144880244Y-126287500D01*
X145165474Y-126287500D01*
X144719731Y-125027206D01*
X144422518Y-125027206D01*
X144142265Y-125813668D01*
X143973416Y-126287500D01*
X143341667Y-126287500D01*
X143435821Y-126280475D01*
X143518336Y-126260352D01*
X143591124Y-126227937D01*
X143655684Y-126183188D01*
X143713008Y-126125214D01*
X143763520Y-126052339D01*
X143806169Y-125963962D01*
X143837648Y-125864665D01*
X143857375Y-125752831D01*
X143864270Y-125626594D01*
X143858459Y-125526414D01*
X143840304Y-125417995D01*
X143819794Y-125346908D01*
X143790044Y-125279230D01*
X143750697Y-125214434D01*
X143689981Y-125144566D01*
X143619033Y-125091716D01*
X143536374Y-125054531D01*
X143453435Y-125035537D01*
X143341667Y-125027206D01*
X142799448Y-125027206D01*
X142799448Y-126067681D01*
X142575792Y-126067681D01*
X142596564Y-126004669D01*
X142604969Y-125921364D01*
X142597281Y-125838921D01*
X142575580Y-125770294D01*
X142540780Y-125712731D01*
X142492236Y-125664375D01*
X142441112Y-125631467D01*
X142370928Y-125600739D01*
X142277073Y-125573089D01*
X142060155Y-125520959D01*
X141945956Y-125489623D01*
X141896207Y-125468904D01*
X141862647Y-125442515D01*
X141843198Y-125409655D01*
X141836444Y-125368154D01*
X141843308Y-125322450D01*
X141863145Y-125285039D01*
X141897047Y-125253818D01*
X141939426Y-125232028D01*
X141992632Y-125217948D01*
X142059316Y-125212831D01*
X142145937Y-125221289D01*
X142212120Y-125244354D01*
X142252884Y-125272360D01*
X142282410Y-125307642D01*
X142301941Y-125351370D01*
X142311191Y-125405783D01*
X142563982Y-125405783D01*
X142555291Y-125326131D01*
X142535885Y-125257154D01*
X142506449Y-125197131D01*
X142466941Y-125144732D01*
X142416597Y-125099105D01*
X142344006Y-125053350D01*
X142264160Y-125020362D01*
X142175775Y-125000042D01*
X142077252Y-124993012D01*
X141957014Y-125001165D01*
X141859284Y-125023705D01*
X141780027Y-125058573D01*
X141716002Y-125104906D01*
X141661852Y-125164911D01*
X141623915Y-125230785D01*
X141600945Y-125303806D01*
X141593041Y-125385862D01*
X141601848Y-125476609D01*
X141626457Y-125550066D01*
X141665650Y-125609866D01*
X141720276Y-125658345D01*
X141773675Y-125687752D01*
X141860289Y-125720086D01*
X141991844Y-125754897D01*
X142125032Y-125784741D01*
X142233400Y-125814729D01*
X142296689Y-125843664D01*
X142327435Y-125870053D01*
X142345219Y-125901636D01*
X142351338Y-125940217D01*
X142344368Y-125989667D01*
X142324525Y-126029144D01*
X142291234Y-126061117D01*
X142241200Y-126086228D01*
X142178481Y-126101050D01*
X142090075Y-126106760D01*
X142011458Y-126100880D01*
X141951078Y-126084981D01*
X141905086Y-126060853D01*
X141870562Y-126029060D01*
X141851233Y-125998695D01*
X141835273Y-125956758D01*
X141823621Y-125900146D01*
X141572585Y-125900146D01*
X141433696Y-125900146D01*
X141433696Y-124854123D01*
X145304363Y-124854123D01*
X145304363Y-126460582D01*
G37*
D13*
G36*
X175957222Y-112721693D02*
G01*
X171478914Y-112721693D01*
X171478914Y-112537500D01*
X171628914Y-112537500D01*
X171873996Y-112537500D01*
X171873996Y-111685092D01*
X171873157Y-111582052D01*
X171872317Y-111479852D01*
X172108851Y-112537500D01*
X172364161Y-112537500D01*
X172602374Y-111479852D01*
X172601535Y-111582052D01*
X172600695Y-111685092D01*
X172600695Y-112537500D01*
X172845778Y-112537500D01*
X173069641Y-112537500D01*
X173330905Y-112537500D01*
X173330905Y-112150146D01*
X173515537Y-112150146D01*
X173521566Y-112227803D01*
X173538884Y-112296141D01*
X173566897Y-112356736D01*
X173605775Y-112410801D01*
X173656435Y-112459113D01*
X173729052Y-112506118D01*
X173815825Y-112541230D01*
X173919460Y-112563673D01*
X174043254Y-112571693D01*
X174164437Y-112563519D01*
X174264669Y-112540743D01*
X174347540Y-112505231D01*
X174415954Y-112457739D01*
X174474374Y-112396216D01*
X174515026Y-112328958D01*
X174539516Y-112254669D01*
X174547921Y-112171364D01*
X174540233Y-112088921D01*
X174518532Y-112020294D01*
X174483732Y-111962731D01*
X174437793Y-111916970D01*
X174687750Y-111916970D01*
X174694807Y-112041119D01*
X174714851Y-112149167D01*
X174746608Y-112243336D01*
X174789395Y-112325535D01*
X174843150Y-112397289D01*
X174908788Y-112459140D01*
X174982873Y-112507224D01*
X175066592Y-112542247D01*
X175161638Y-112564066D01*
X175270117Y-112571693D01*
X175378361Y-112562975D01*
X175473015Y-112537971D01*
X175556448Y-112497536D01*
X175630451Y-112441329D01*
X175693306Y-112372331D01*
X175743076Y-112294254D01*
X175780281Y-112205890D01*
X175804703Y-112105571D01*
X175544203Y-112105571D01*
X175512277Y-112195225D01*
X175477647Y-112251583D01*
X175438216Y-112290439D01*
X175391075Y-112318402D01*
X175334658Y-112335895D01*
X175266682Y-112342105D01*
X175201635Y-112335404D01*
X175143864Y-112315896D01*
X175091753Y-112283497D01*
X175044269Y-112236852D01*
X175008557Y-112182646D01*
X174981204Y-112114018D01*
X174963270Y-112027764D01*
X174956723Y-111920023D01*
X174962808Y-111812443D01*
X174979642Y-111724105D01*
X175005549Y-111651863D01*
X175039536Y-111593043D01*
X175085392Y-111541933D01*
X175137430Y-111506440D01*
X175196882Y-111484943D01*
X175265843Y-111477486D01*
X175335815Y-111483269D01*
X175393061Y-111499402D01*
X175440022Y-111524803D01*
X175478487Y-111559460D01*
X175513105Y-111612809D01*
X175544203Y-111696083D01*
X175807222Y-111696083D01*
X175795486Y-111619859D01*
X175767149Y-111542022D01*
X175720134Y-111461228D01*
X175667992Y-111399082D01*
X175607391Y-111348280D01*
X175537446Y-111308038D01*
X175456768Y-111278235D01*
X175363544Y-111259419D01*
X175255615Y-111252782D01*
X175161421Y-111259375D01*
X175076514Y-111278467D01*
X174999453Y-111309496D01*
X174929069Y-111352545D01*
X174864521Y-111408334D01*
X174803386Y-111482192D01*
X174754797Y-111567933D01*
X174718693Y-111667354D01*
X174695832Y-111782781D01*
X174687750Y-111916970D01*
X174437793Y-111916970D01*
X174435188Y-111914375D01*
X174384063Y-111881467D01*
X174313880Y-111850739D01*
X174220025Y-111823089D01*
X174003107Y-111770959D01*
X173888908Y-111739623D01*
X173839159Y-111718904D01*
X173805598Y-111692515D01*
X173786150Y-111659655D01*
X173779396Y-111618154D01*
X173786260Y-111572450D01*
X173806097Y-111535039D01*
X173839999Y-111503818D01*
X173882378Y-111482028D01*
X173935583Y-111467948D01*
X174002267Y-111462831D01*
X174088889Y-111471289D01*
X174155072Y-111494354D01*
X174195836Y-111522360D01*
X174225362Y-111557642D01*
X174244893Y-111601370D01*
X174254143Y-111655783D01*
X174506934Y-111655783D01*
X174498242Y-111576131D01*
X174478837Y-111507154D01*
X174449401Y-111447131D01*
X174409893Y-111394732D01*
X174359549Y-111349105D01*
X174286958Y-111303350D01*
X174207112Y-111270362D01*
X174118727Y-111250042D01*
X174020204Y-111243012D01*
X173899966Y-111251165D01*
X173802236Y-111273705D01*
X173722979Y-111308573D01*
X173658954Y-111354906D01*
X173604804Y-111414911D01*
X173566867Y-111480785D01*
X173543897Y-111553806D01*
X173535993Y-111635862D01*
X173544799Y-111726609D01*
X173569409Y-111800066D01*
X173608602Y-111859866D01*
X173663228Y-111908345D01*
X173716627Y-111937752D01*
X173803241Y-111970086D01*
X173934795Y-112004897D01*
X174067984Y-112034741D01*
X174176352Y-112064729D01*
X174239641Y-112093664D01*
X174270387Y-112120053D01*
X174288171Y-112151636D01*
X174294290Y-112190217D01*
X174287320Y-112239667D01*
X174267477Y-112279144D01*
X174234186Y-112311117D01*
X174184152Y-112336228D01*
X174121433Y-112351050D01*
X174033027Y-112356760D01*
X173954409Y-112350880D01*
X173894029Y-112334981D01*
X173848038Y-112310853D01*
X173813514Y-112279060D01*
X173794185Y-112248695D01*
X173778225Y-112206758D01*
X173766573Y-112150146D01*
X173515537Y-112150146D01*
X173330905Y-112150146D01*
X173330905Y-111277206D01*
X173069641Y-111277206D01*
X173069641Y-112537500D01*
X172845778Y-112537500D01*
X172845778Y-111277206D01*
X172467506Y-111277206D01*
X172240361Y-112268145D01*
X172011459Y-111277206D01*
X171628914Y-111277206D01*
X171628914Y-112537500D01*
X171478914Y-112537500D01*
X171478914Y-111093012D01*
X175957222Y-111093012D01*
X175957222Y-112721693D01*
G37*
D14*
X149384819Y-90892857D02*
X148908628Y-91226190D01*
X149384819Y-91464285D02*
X148384819Y-91464285D01*
X148384819Y-91464285D02*
X148384819Y-91083333D01*
X148384819Y-91083333D02*
X148432438Y-90988095D01*
X148432438Y-90988095D02*
X148480057Y-90940476D01*
X148480057Y-90940476D02*
X148575295Y-90892857D01*
X148575295Y-90892857D02*
X148718152Y-90892857D01*
X148718152Y-90892857D02*
X148813390Y-90940476D01*
X148813390Y-90940476D02*
X148861009Y-90988095D01*
X148861009Y-90988095D02*
X148908628Y-91083333D01*
X148908628Y-91083333D02*
X148908628Y-91464285D01*
X149384819Y-89940476D02*
X149384819Y-90511904D01*
X149384819Y-90226190D02*
X148384819Y-90226190D01*
X148384819Y-90226190D02*
X148527676Y-90321428D01*
X148527676Y-90321428D02*
X148622914Y-90416666D01*
X148622914Y-90416666D02*
X148670533Y-90511904D01*
X148384819Y-89035714D02*
X148384819Y-89511904D01*
X148384819Y-89511904D02*
X148861009Y-89559523D01*
X148861009Y-89559523D02*
X148813390Y-89511904D01*
X148813390Y-89511904D02*
X148765771Y-89416666D01*
X148765771Y-89416666D02*
X148765771Y-89178571D01*
X148765771Y-89178571D02*
X148813390Y-89083333D01*
X148813390Y-89083333D02*
X148861009Y-89035714D01*
X148861009Y-89035714D02*
X148956247Y-88988095D01*
X148956247Y-88988095D02*
X149194342Y-88988095D01*
X149194342Y-88988095D02*
X149289580Y-89035714D01*
X149289580Y-89035714D02*
X149337200Y-89083333D01*
X149337200Y-89083333D02*
X149384819Y-89178571D01*
X149384819Y-89178571D02*
X149384819Y-89416666D01*
X149384819Y-89416666D02*
X149337200Y-89511904D01*
X149337200Y-89511904D02*
X149289580Y-89559523D01*
X135154761Y-122450057D02*
X135059523Y-122402438D01*
X135059523Y-122402438D02*
X134964285Y-122307200D01*
X134964285Y-122307200D02*
X134821428Y-122164342D01*
X134821428Y-122164342D02*
X134726190Y-122116723D01*
X134726190Y-122116723D02*
X134630952Y-122116723D01*
X134678571Y-122354819D02*
X134583333Y-122307200D01*
X134583333Y-122307200D02*
X134488095Y-122211961D01*
X134488095Y-122211961D02*
X134440476Y-122021485D01*
X134440476Y-122021485D02*
X134440476Y-121688152D01*
X134440476Y-121688152D02*
X134488095Y-121497676D01*
X134488095Y-121497676D02*
X134583333Y-121402438D01*
X134583333Y-121402438D02*
X134678571Y-121354819D01*
X134678571Y-121354819D02*
X134869047Y-121354819D01*
X134869047Y-121354819D02*
X134964285Y-121402438D01*
X134964285Y-121402438D02*
X135059523Y-121497676D01*
X135059523Y-121497676D02*
X135107142Y-121688152D01*
X135107142Y-121688152D02*
X135107142Y-122021485D01*
X135107142Y-122021485D02*
X135059523Y-122211961D01*
X135059523Y-122211961D02*
X134964285Y-122307200D01*
X134964285Y-122307200D02*
X134869047Y-122354819D01*
X134869047Y-122354819D02*
X134678571Y-122354819D01*
X136059523Y-122354819D02*
X135488095Y-122354819D01*
X135773809Y-122354819D02*
X135773809Y-121354819D01*
X135773809Y-121354819D02*
X135678571Y-121497676D01*
X135678571Y-121497676D02*
X135583333Y-121592914D01*
X135583333Y-121592914D02*
X135488095Y-121640533D01*
X147738095Y-120554819D02*
X147738095Y-121364342D01*
X147738095Y-121364342D02*
X147785714Y-121459580D01*
X147785714Y-121459580D02*
X147833333Y-121507200D01*
X147833333Y-121507200D02*
X147928571Y-121554819D01*
X147928571Y-121554819D02*
X148119047Y-121554819D01*
X148119047Y-121554819D02*
X148214285Y-121507200D01*
X148214285Y-121507200D02*
X148261904Y-121459580D01*
X148261904Y-121459580D02*
X148309523Y-121364342D01*
X148309523Y-121364342D02*
X148309523Y-120554819D01*
X149261904Y-120554819D02*
X148785714Y-120554819D01*
X148785714Y-120554819D02*
X148738095Y-121031009D01*
X148738095Y-121031009D02*
X148785714Y-120983390D01*
X148785714Y-120983390D02*
X148880952Y-120935771D01*
X148880952Y-120935771D02*
X149119047Y-120935771D01*
X149119047Y-120935771D02*
X149214285Y-120983390D01*
X149214285Y-120983390D02*
X149261904Y-121031009D01*
X149261904Y-121031009D02*
X149309523Y-121126247D01*
X149309523Y-121126247D02*
X149309523Y-121364342D01*
X149309523Y-121364342D02*
X149261904Y-121459580D01*
X149261904Y-121459580D02*
X149214285Y-121507200D01*
X149214285Y-121507200D02*
X149119047Y-121554819D01*
X149119047Y-121554819D02*
X148880952Y-121554819D01*
X148880952Y-121554819D02*
X148785714Y-121507200D01*
X148785714Y-121507200D02*
X148738095Y-121459580D01*
X162304819Y-108011904D02*
X163114342Y-108011904D01*
X163114342Y-108011904D02*
X163209580Y-107964285D01*
X163209580Y-107964285D02*
X163257200Y-107916666D01*
X163257200Y-107916666D02*
X163304819Y-107821428D01*
X163304819Y-107821428D02*
X163304819Y-107630952D01*
X163304819Y-107630952D02*
X163257200Y-107535714D01*
X163257200Y-107535714D02*
X163209580Y-107488095D01*
X163209580Y-107488095D02*
X163114342Y-107440476D01*
X163114342Y-107440476D02*
X162304819Y-107440476D01*
X162304819Y-106535714D02*
X162304819Y-106726190D01*
X162304819Y-106726190D02*
X162352438Y-106821428D01*
X162352438Y-106821428D02*
X162400057Y-106869047D01*
X162400057Y-106869047D02*
X162542914Y-106964285D01*
X162542914Y-106964285D02*
X162733390Y-107011904D01*
X162733390Y-107011904D02*
X163114342Y-107011904D01*
X163114342Y-107011904D02*
X163209580Y-106964285D01*
X163209580Y-106964285D02*
X163257200Y-106916666D01*
X163257200Y-106916666D02*
X163304819Y-106821428D01*
X163304819Y-106821428D02*
X163304819Y-106630952D01*
X163304819Y-106630952D02*
X163257200Y-106535714D01*
X163257200Y-106535714D02*
X163209580Y-106488095D01*
X163209580Y-106488095D02*
X163114342Y-106440476D01*
X163114342Y-106440476D02*
X162876247Y-106440476D01*
X162876247Y-106440476D02*
X162781009Y-106488095D01*
X162781009Y-106488095D02*
X162733390Y-106535714D01*
X162733390Y-106535714D02*
X162685771Y-106630952D01*
X162685771Y-106630952D02*
X162685771Y-106821428D01*
X162685771Y-106821428D02*
X162733390Y-106916666D01*
X162733390Y-106916666D02*
X162781009Y-106964285D01*
X162781009Y-106964285D02*
X162876247Y-107011904D01*
X132929580Y-97642857D02*
X132977200Y-97690476D01*
X132977200Y-97690476D02*
X133024819Y-97833333D01*
X133024819Y-97833333D02*
X133024819Y-97928571D01*
X133024819Y-97928571D02*
X132977200Y-98071428D01*
X132977200Y-98071428D02*
X132881961Y-98166666D01*
X132881961Y-98166666D02*
X132786723Y-98214285D01*
X132786723Y-98214285D02*
X132596247Y-98261904D01*
X132596247Y-98261904D02*
X132453390Y-98261904D01*
X132453390Y-98261904D02*
X132262914Y-98214285D01*
X132262914Y-98214285D02*
X132167676Y-98166666D01*
X132167676Y-98166666D02*
X132072438Y-98071428D01*
X132072438Y-98071428D02*
X132024819Y-97928571D01*
X132024819Y-97928571D02*
X132024819Y-97833333D01*
X132024819Y-97833333D02*
X132072438Y-97690476D01*
X132072438Y-97690476D02*
X132120057Y-97642857D01*
X133024819Y-96690476D02*
X133024819Y-97261904D01*
X133024819Y-96976190D02*
X132024819Y-96976190D01*
X132024819Y-96976190D02*
X132167676Y-97071428D01*
X132167676Y-97071428D02*
X132262914Y-97166666D01*
X132262914Y-97166666D02*
X132310533Y-97261904D01*
X132358152Y-95833333D02*
X133024819Y-95833333D01*
X131977200Y-96071428D02*
X132691485Y-96309523D01*
X132691485Y-96309523D02*
X132691485Y-95690476D01*
X145039580Y-86916666D02*
X145087200Y-86964285D01*
X145087200Y-86964285D02*
X145134819Y-87107142D01*
X145134819Y-87107142D02*
X145134819Y-87202380D01*
X145134819Y-87202380D02*
X145087200Y-87345237D01*
X145087200Y-87345237D02*
X144991961Y-87440475D01*
X144991961Y-87440475D02*
X144896723Y-87488094D01*
X144896723Y-87488094D02*
X144706247Y-87535713D01*
X144706247Y-87535713D02*
X144563390Y-87535713D01*
X144563390Y-87535713D02*
X144372914Y-87488094D01*
X144372914Y-87488094D02*
X144277676Y-87440475D01*
X144277676Y-87440475D02*
X144182438Y-87345237D01*
X144182438Y-87345237D02*
X144134819Y-87202380D01*
X144134819Y-87202380D02*
X144134819Y-87107142D01*
X144134819Y-87107142D02*
X144182438Y-86964285D01*
X144182438Y-86964285D02*
X144230057Y-86916666D01*
X144468152Y-86059523D02*
X145134819Y-86059523D01*
X144087200Y-86297618D02*
X144801485Y-86535713D01*
X144801485Y-86535713D02*
X144801485Y-85916666D01*
X171954819Y-87488094D02*
X170954819Y-87488094D01*
X170954819Y-87488094D02*
X170954819Y-87249999D01*
X170954819Y-87249999D02*
X171002438Y-87107142D01*
X171002438Y-87107142D02*
X171097676Y-87011904D01*
X171097676Y-87011904D02*
X171192914Y-86964285D01*
X171192914Y-86964285D02*
X171383390Y-86916666D01*
X171383390Y-86916666D02*
X171526247Y-86916666D01*
X171526247Y-86916666D02*
X171716723Y-86964285D01*
X171716723Y-86964285D02*
X171811961Y-87011904D01*
X171811961Y-87011904D02*
X171907200Y-87107142D01*
X171907200Y-87107142D02*
X171954819Y-87249999D01*
X171954819Y-87249999D02*
X171954819Y-87488094D01*
X170954819Y-86583332D02*
X170954819Y-85964285D01*
X170954819Y-85964285D02*
X171335771Y-86297618D01*
X171335771Y-86297618D02*
X171335771Y-86154761D01*
X171335771Y-86154761D02*
X171383390Y-86059523D01*
X171383390Y-86059523D02*
X171431009Y-86011904D01*
X171431009Y-86011904D02*
X171526247Y-85964285D01*
X171526247Y-85964285D02*
X171764342Y-85964285D01*
X171764342Y-85964285D02*
X171859580Y-86011904D01*
X171859580Y-86011904D02*
X171907200Y-86059523D01*
X171907200Y-86059523D02*
X171954819Y-86154761D01*
X171954819Y-86154761D02*
X171954819Y-86440475D01*
X171954819Y-86440475D02*
X171907200Y-86535713D01*
X171907200Y-86535713D02*
X171859580Y-86583332D01*
X171634819Y-90892857D02*
X171158628Y-91226190D01*
X171634819Y-91464285D02*
X170634819Y-91464285D01*
X170634819Y-91464285D02*
X170634819Y-91083333D01*
X170634819Y-91083333D02*
X170682438Y-90988095D01*
X170682438Y-90988095D02*
X170730057Y-90940476D01*
X170730057Y-90940476D02*
X170825295Y-90892857D01*
X170825295Y-90892857D02*
X170968152Y-90892857D01*
X170968152Y-90892857D02*
X171063390Y-90940476D01*
X171063390Y-90940476D02*
X171111009Y-90988095D01*
X171111009Y-90988095D02*
X171158628Y-91083333D01*
X171158628Y-91083333D02*
X171158628Y-91464285D01*
X171634819Y-89940476D02*
X171634819Y-90511904D01*
X171634819Y-90226190D02*
X170634819Y-90226190D01*
X170634819Y-90226190D02*
X170777676Y-90321428D01*
X170777676Y-90321428D02*
X170872914Y-90416666D01*
X170872914Y-90416666D02*
X170920533Y-90511904D01*
X170634819Y-89083333D02*
X170634819Y-89273809D01*
X170634819Y-89273809D02*
X170682438Y-89369047D01*
X170682438Y-89369047D02*
X170730057Y-89416666D01*
X170730057Y-89416666D02*
X170872914Y-89511904D01*
X170872914Y-89511904D02*
X171063390Y-89559523D01*
X171063390Y-89559523D02*
X171444342Y-89559523D01*
X171444342Y-89559523D02*
X171539580Y-89511904D01*
X171539580Y-89511904D02*
X171587200Y-89464285D01*
X171587200Y-89464285D02*
X171634819Y-89369047D01*
X171634819Y-89369047D02*
X171634819Y-89178571D01*
X171634819Y-89178571D02*
X171587200Y-89083333D01*
X171587200Y-89083333D02*
X171539580Y-89035714D01*
X171539580Y-89035714D02*
X171444342Y-88988095D01*
X171444342Y-88988095D02*
X171206247Y-88988095D01*
X171206247Y-88988095D02*
X171111009Y-89035714D01*
X171111009Y-89035714D02*
X171063390Y-89083333D01*
X171063390Y-89083333D02*
X171015771Y-89178571D01*
X171015771Y-89178571D02*
X171015771Y-89369047D01*
X171015771Y-89369047D02*
X171063390Y-89464285D01*
X171063390Y-89464285D02*
X171111009Y-89511904D01*
X171111009Y-89511904D02*
X171206247Y-89559523D01*
X169024819Y-117142857D02*
X168548628Y-117476190D01*
X169024819Y-117714285D02*
X168024819Y-117714285D01*
X168024819Y-117714285D02*
X168024819Y-117333333D01*
X168024819Y-117333333D02*
X168072438Y-117238095D01*
X168072438Y-117238095D02*
X168120057Y-117190476D01*
X168120057Y-117190476D02*
X168215295Y-117142857D01*
X168215295Y-117142857D02*
X168358152Y-117142857D01*
X168358152Y-117142857D02*
X168453390Y-117190476D01*
X168453390Y-117190476D02*
X168501009Y-117238095D01*
X168501009Y-117238095D02*
X168548628Y-117333333D01*
X168548628Y-117333333D02*
X168548628Y-117714285D01*
X168120057Y-116761904D02*
X168072438Y-116714285D01*
X168072438Y-116714285D02*
X168024819Y-116619047D01*
X168024819Y-116619047D02*
X168024819Y-116380952D01*
X168024819Y-116380952D02*
X168072438Y-116285714D01*
X168072438Y-116285714D02*
X168120057Y-116238095D01*
X168120057Y-116238095D02*
X168215295Y-116190476D01*
X168215295Y-116190476D02*
X168310533Y-116190476D01*
X168310533Y-116190476D02*
X168453390Y-116238095D01*
X168453390Y-116238095D02*
X169024819Y-116809523D01*
X169024819Y-116809523D02*
X169024819Y-116190476D01*
X168024819Y-115333333D02*
X168024819Y-115523809D01*
X168024819Y-115523809D02*
X168072438Y-115619047D01*
X168072438Y-115619047D02*
X168120057Y-115666666D01*
X168120057Y-115666666D02*
X168262914Y-115761904D01*
X168262914Y-115761904D02*
X168453390Y-115809523D01*
X168453390Y-115809523D02*
X168834342Y-115809523D01*
X168834342Y-115809523D02*
X168929580Y-115761904D01*
X168929580Y-115761904D02*
X168977200Y-115714285D01*
X168977200Y-115714285D02*
X169024819Y-115619047D01*
X169024819Y-115619047D02*
X169024819Y-115428571D01*
X169024819Y-115428571D02*
X168977200Y-115333333D01*
X168977200Y-115333333D02*
X168929580Y-115285714D01*
X168929580Y-115285714D02*
X168834342Y-115238095D01*
X168834342Y-115238095D02*
X168596247Y-115238095D01*
X168596247Y-115238095D02*
X168501009Y-115285714D01*
X168501009Y-115285714D02*
X168453390Y-115333333D01*
X168453390Y-115333333D02*
X168405771Y-115428571D01*
X168405771Y-115428571D02*
X168405771Y-115619047D01*
X168405771Y-115619047D02*
X168453390Y-115714285D01*
X168453390Y-115714285D02*
X168501009Y-115761904D01*
X168501009Y-115761904D02*
X168596247Y-115809523D01*
X130179580Y-90916666D02*
X130227200Y-90964285D01*
X130227200Y-90964285D02*
X130274819Y-91107142D01*
X130274819Y-91107142D02*
X130274819Y-91202380D01*
X130274819Y-91202380D02*
X130227200Y-91345237D01*
X130227200Y-91345237D02*
X130131961Y-91440475D01*
X130131961Y-91440475D02*
X130036723Y-91488094D01*
X130036723Y-91488094D02*
X129846247Y-91535713D01*
X129846247Y-91535713D02*
X129703390Y-91535713D01*
X129703390Y-91535713D02*
X129512914Y-91488094D01*
X129512914Y-91488094D02*
X129417676Y-91440475D01*
X129417676Y-91440475D02*
X129322438Y-91345237D01*
X129322438Y-91345237D02*
X129274819Y-91202380D01*
X129274819Y-91202380D02*
X129274819Y-91107142D01*
X129274819Y-91107142D02*
X129322438Y-90964285D01*
X129322438Y-90964285D02*
X129370057Y-90916666D01*
X129370057Y-90535713D02*
X129322438Y-90488094D01*
X129322438Y-90488094D02*
X129274819Y-90392856D01*
X129274819Y-90392856D02*
X129274819Y-90154761D01*
X129274819Y-90154761D02*
X129322438Y-90059523D01*
X129322438Y-90059523D02*
X129370057Y-90011904D01*
X129370057Y-90011904D02*
X129465295Y-89964285D01*
X129465295Y-89964285D02*
X129560533Y-89964285D01*
X129560533Y-89964285D02*
X129703390Y-90011904D01*
X129703390Y-90011904D02*
X130274819Y-90583332D01*
X130274819Y-90583332D02*
X130274819Y-89964285D01*
X160024819Y-109642857D02*
X159548628Y-109976190D01*
X160024819Y-110214285D02*
X159024819Y-110214285D01*
X159024819Y-110214285D02*
X159024819Y-109833333D01*
X159024819Y-109833333D02*
X159072438Y-109738095D01*
X159072438Y-109738095D02*
X159120057Y-109690476D01*
X159120057Y-109690476D02*
X159215295Y-109642857D01*
X159215295Y-109642857D02*
X159358152Y-109642857D01*
X159358152Y-109642857D02*
X159453390Y-109690476D01*
X159453390Y-109690476D02*
X159501009Y-109738095D01*
X159501009Y-109738095D02*
X159548628Y-109833333D01*
X159548628Y-109833333D02*
X159548628Y-110214285D01*
X159120057Y-109261904D02*
X159072438Y-109214285D01*
X159072438Y-109214285D02*
X159024819Y-109119047D01*
X159024819Y-109119047D02*
X159024819Y-108880952D01*
X159024819Y-108880952D02*
X159072438Y-108785714D01*
X159072438Y-108785714D02*
X159120057Y-108738095D01*
X159120057Y-108738095D02*
X159215295Y-108690476D01*
X159215295Y-108690476D02*
X159310533Y-108690476D01*
X159310533Y-108690476D02*
X159453390Y-108738095D01*
X159453390Y-108738095D02*
X160024819Y-109309523D01*
X160024819Y-109309523D02*
X160024819Y-108690476D01*
X159024819Y-107785714D02*
X159024819Y-108261904D01*
X159024819Y-108261904D02*
X159501009Y-108309523D01*
X159501009Y-108309523D02*
X159453390Y-108261904D01*
X159453390Y-108261904D02*
X159405771Y-108166666D01*
X159405771Y-108166666D02*
X159405771Y-107928571D01*
X159405771Y-107928571D02*
X159453390Y-107833333D01*
X159453390Y-107833333D02*
X159501009Y-107785714D01*
X159501009Y-107785714D02*
X159596247Y-107738095D01*
X159596247Y-107738095D02*
X159834342Y-107738095D01*
X159834342Y-107738095D02*
X159929580Y-107785714D01*
X159929580Y-107785714D02*
X159977200Y-107833333D01*
X159977200Y-107833333D02*
X160024819Y-107928571D01*
X160024819Y-107928571D02*
X160024819Y-108166666D01*
X160024819Y-108166666D02*
X159977200Y-108261904D01*
X159977200Y-108261904D02*
X159929580Y-108309523D01*
X121429580Y-90916666D02*
X121477200Y-90964285D01*
X121477200Y-90964285D02*
X121524819Y-91107142D01*
X121524819Y-91107142D02*
X121524819Y-91202380D01*
X121524819Y-91202380D02*
X121477200Y-91345237D01*
X121477200Y-91345237D02*
X121381961Y-91440475D01*
X121381961Y-91440475D02*
X121286723Y-91488094D01*
X121286723Y-91488094D02*
X121096247Y-91535713D01*
X121096247Y-91535713D02*
X120953390Y-91535713D01*
X120953390Y-91535713D02*
X120762914Y-91488094D01*
X120762914Y-91488094D02*
X120667676Y-91440475D01*
X120667676Y-91440475D02*
X120572438Y-91345237D01*
X120572438Y-91345237D02*
X120524819Y-91202380D01*
X120524819Y-91202380D02*
X120524819Y-91107142D01*
X120524819Y-91107142D02*
X120572438Y-90964285D01*
X120572438Y-90964285D02*
X120620057Y-90916666D01*
X120524819Y-90583332D02*
X120524819Y-89964285D01*
X120524819Y-89964285D02*
X120905771Y-90297618D01*
X120905771Y-90297618D02*
X120905771Y-90154761D01*
X120905771Y-90154761D02*
X120953390Y-90059523D01*
X120953390Y-90059523D02*
X121001009Y-90011904D01*
X121001009Y-90011904D02*
X121096247Y-89964285D01*
X121096247Y-89964285D02*
X121334342Y-89964285D01*
X121334342Y-89964285D02*
X121429580Y-90011904D01*
X121429580Y-90011904D02*
X121477200Y-90059523D01*
X121477200Y-90059523D02*
X121524819Y-90154761D01*
X121524819Y-90154761D02*
X121524819Y-90440475D01*
X121524819Y-90440475D02*
X121477200Y-90535713D01*
X121477200Y-90535713D02*
X121429580Y-90583332D01*
X164384819Y-81666666D02*
X163908628Y-81999999D01*
X164384819Y-82238094D02*
X163384819Y-82238094D01*
X163384819Y-82238094D02*
X163384819Y-81857142D01*
X163384819Y-81857142D02*
X163432438Y-81761904D01*
X163432438Y-81761904D02*
X163480057Y-81714285D01*
X163480057Y-81714285D02*
X163575295Y-81666666D01*
X163575295Y-81666666D02*
X163718152Y-81666666D01*
X163718152Y-81666666D02*
X163813390Y-81714285D01*
X163813390Y-81714285D02*
X163861009Y-81761904D01*
X163861009Y-81761904D02*
X163908628Y-81857142D01*
X163908628Y-81857142D02*
X163908628Y-82238094D01*
X163384819Y-81333332D02*
X163384819Y-80666666D01*
X163384819Y-80666666D02*
X164384819Y-81095237D01*
X141289580Y-90416666D02*
X141337200Y-90464285D01*
X141337200Y-90464285D02*
X141384819Y-90607142D01*
X141384819Y-90607142D02*
X141384819Y-90702380D01*
X141384819Y-90702380D02*
X141337200Y-90845237D01*
X141337200Y-90845237D02*
X141241961Y-90940475D01*
X141241961Y-90940475D02*
X141146723Y-90988094D01*
X141146723Y-90988094D02*
X140956247Y-91035713D01*
X140956247Y-91035713D02*
X140813390Y-91035713D01*
X140813390Y-91035713D02*
X140622914Y-90988094D01*
X140622914Y-90988094D02*
X140527676Y-90940475D01*
X140527676Y-90940475D02*
X140432438Y-90845237D01*
X140432438Y-90845237D02*
X140384819Y-90702380D01*
X140384819Y-90702380D02*
X140384819Y-90607142D01*
X140384819Y-90607142D02*
X140432438Y-90464285D01*
X140432438Y-90464285D02*
X140480057Y-90416666D01*
X140384819Y-89511904D02*
X140384819Y-89988094D01*
X140384819Y-89988094D02*
X140861009Y-90035713D01*
X140861009Y-90035713D02*
X140813390Y-89988094D01*
X140813390Y-89988094D02*
X140765771Y-89892856D01*
X140765771Y-89892856D02*
X140765771Y-89654761D01*
X140765771Y-89654761D02*
X140813390Y-89559523D01*
X140813390Y-89559523D02*
X140861009Y-89511904D01*
X140861009Y-89511904D02*
X140956247Y-89464285D01*
X140956247Y-89464285D02*
X141194342Y-89464285D01*
X141194342Y-89464285D02*
X141289580Y-89511904D01*
X141289580Y-89511904D02*
X141337200Y-89559523D01*
X141337200Y-89559523D02*
X141384819Y-89654761D01*
X141384819Y-89654761D02*
X141384819Y-89892856D01*
X141384819Y-89892856D02*
X141337200Y-89988094D01*
X141337200Y-89988094D02*
X141289580Y-90035713D01*
X173916666Y-110181009D02*
X174059523Y-110228628D01*
X174059523Y-110228628D02*
X174107142Y-110276247D01*
X174107142Y-110276247D02*
X174154761Y-110371485D01*
X174154761Y-110371485D02*
X174154761Y-110514342D01*
X174154761Y-110514342D02*
X174107142Y-110609580D01*
X174107142Y-110609580D02*
X174059523Y-110657200D01*
X174059523Y-110657200D02*
X173964285Y-110704819D01*
X173964285Y-110704819D02*
X173583333Y-110704819D01*
X173583333Y-110704819D02*
X173583333Y-109704819D01*
X173583333Y-109704819D02*
X173916666Y-109704819D01*
X173916666Y-109704819D02*
X174011904Y-109752438D01*
X174011904Y-109752438D02*
X174059523Y-109800057D01*
X174059523Y-109800057D02*
X174107142Y-109895295D01*
X174107142Y-109895295D02*
X174107142Y-109990533D01*
X174107142Y-109990533D02*
X174059523Y-110085771D01*
X174059523Y-110085771D02*
X174011904Y-110133390D01*
X174011904Y-110133390D02*
X173916666Y-110181009D01*
X173916666Y-110181009D02*
X173583333Y-110181009D01*
X174773809Y-109704819D02*
X174964285Y-109704819D01*
X174964285Y-109704819D02*
X175059523Y-109752438D01*
X175059523Y-109752438D02*
X175154761Y-109847676D01*
X175154761Y-109847676D02*
X175202380Y-110038152D01*
X175202380Y-110038152D02*
X175202380Y-110371485D01*
X175202380Y-110371485D02*
X175154761Y-110561961D01*
X175154761Y-110561961D02*
X175059523Y-110657200D01*
X175059523Y-110657200D02*
X174964285Y-110704819D01*
X174964285Y-110704819D02*
X174773809Y-110704819D01*
X174773809Y-110704819D02*
X174678571Y-110657200D01*
X174678571Y-110657200D02*
X174583333Y-110561961D01*
X174583333Y-110561961D02*
X174535714Y-110371485D01*
X174535714Y-110371485D02*
X174535714Y-110038152D01*
X174535714Y-110038152D02*
X174583333Y-109847676D01*
X174583333Y-109847676D02*
X174678571Y-109752438D01*
X174678571Y-109752438D02*
X174773809Y-109704819D01*
X175821428Y-109704819D02*
X176011904Y-109704819D01*
X176011904Y-109704819D02*
X176107142Y-109752438D01*
X176107142Y-109752438D02*
X176202380Y-109847676D01*
X176202380Y-109847676D02*
X176249999Y-110038152D01*
X176249999Y-110038152D02*
X176249999Y-110371485D01*
X176249999Y-110371485D02*
X176202380Y-110561961D01*
X176202380Y-110561961D02*
X176107142Y-110657200D01*
X176107142Y-110657200D02*
X176011904Y-110704819D01*
X176011904Y-110704819D02*
X175821428Y-110704819D01*
X175821428Y-110704819D02*
X175726190Y-110657200D01*
X175726190Y-110657200D02*
X175630952Y-110561961D01*
X175630952Y-110561961D02*
X175583333Y-110371485D01*
X175583333Y-110371485D02*
X175583333Y-110038152D01*
X175583333Y-110038152D02*
X175630952Y-109847676D01*
X175630952Y-109847676D02*
X175726190Y-109752438D01*
X175726190Y-109752438D02*
X175821428Y-109704819D01*
X176535714Y-109704819D02*
X177107142Y-109704819D01*
X176821428Y-110704819D02*
X176821428Y-109704819D01*
X177964285Y-110704819D02*
X177392857Y-110704819D01*
X177678571Y-110704819D02*
X177678571Y-109704819D01*
X177678571Y-109704819D02*
X177583333Y-109847676D01*
X177583333Y-109847676D02*
X177488095Y-109942914D01*
X177488095Y-109942914D02*
X177392857Y-109990533D01*
X119107142Y-111524819D02*
X118773809Y-111048628D01*
X118535714Y-111524819D02*
X118535714Y-110524819D01*
X118535714Y-110524819D02*
X118916666Y-110524819D01*
X118916666Y-110524819D02*
X119011904Y-110572438D01*
X119011904Y-110572438D02*
X119059523Y-110620057D01*
X119059523Y-110620057D02*
X119107142Y-110715295D01*
X119107142Y-110715295D02*
X119107142Y-110858152D01*
X119107142Y-110858152D02*
X119059523Y-110953390D01*
X119059523Y-110953390D02*
X119011904Y-111001009D01*
X119011904Y-111001009D02*
X118916666Y-111048628D01*
X118916666Y-111048628D02*
X118535714Y-111048628D01*
X120059523Y-111524819D02*
X119488095Y-111524819D01*
X119773809Y-111524819D02*
X119773809Y-110524819D01*
X119773809Y-110524819D02*
X119678571Y-110667676D01*
X119678571Y-110667676D02*
X119583333Y-110762914D01*
X119583333Y-110762914D02*
X119488095Y-110810533D01*
X121011904Y-111524819D02*
X120440476Y-111524819D01*
X120726190Y-111524819D02*
X120726190Y-110524819D01*
X120726190Y-110524819D02*
X120630952Y-110667676D01*
X120630952Y-110667676D02*
X120535714Y-110762914D01*
X120535714Y-110762914D02*
X120440476Y-110810533D01*
X163024819Y-112642857D02*
X162548628Y-112976190D01*
X163024819Y-113214285D02*
X162024819Y-113214285D01*
X162024819Y-113214285D02*
X162024819Y-112833333D01*
X162024819Y-112833333D02*
X162072438Y-112738095D01*
X162072438Y-112738095D02*
X162120057Y-112690476D01*
X162120057Y-112690476D02*
X162215295Y-112642857D01*
X162215295Y-112642857D02*
X162358152Y-112642857D01*
X162358152Y-112642857D02*
X162453390Y-112690476D01*
X162453390Y-112690476D02*
X162501009Y-112738095D01*
X162501009Y-112738095D02*
X162548628Y-112833333D01*
X162548628Y-112833333D02*
X162548628Y-113214285D01*
X162120057Y-112261904D02*
X162072438Y-112214285D01*
X162072438Y-112214285D02*
X162024819Y-112119047D01*
X162024819Y-112119047D02*
X162024819Y-111880952D01*
X162024819Y-111880952D02*
X162072438Y-111785714D01*
X162072438Y-111785714D02*
X162120057Y-111738095D01*
X162120057Y-111738095D02*
X162215295Y-111690476D01*
X162215295Y-111690476D02*
X162310533Y-111690476D01*
X162310533Y-111690476D02*
X162453390Y-111738095D01*
X162453390Y-111738095D02*
X163024819Y-112309523D01*
X163024819Y-112309523D02*
X163024819Y-111690476D01*
X162358152Y-110833333D02*
X163024819Y-110833333D01*
X161977200Y-111071428D02*
X162691485Y-111309523D01*
X162691485Y-111309523D02*
X162691485Y-110690476D01*
X156488095Y-92768819D02*
X156488095Y-93578342D01*
X156488095Y-93578342D02*
X156535714Y-93673580D01*
X156535714Y-93673580D02*
X156583333Y-93721200D01*
X156583333Y-93721200D02*
X156678571Y-93768819D01*
X156678571Y-93768819D02*
X156869047Y-93768819D01*
X156869047Y-93768819D02*
X156964285Y-93721200D01*
X156964285Y-93721200D02*
X157011904Y-93673580D01*
X157011904Y-93673580D02*
X157059523Y-93578342D01*
X157059523Y-93578342D02*
X157059523Y-92768819D01*
X157488095Y-92864057D02*
X157535714Y-92816438D01*
X157535714Y-92816438D02*
X157630952Y-92768819D01*
X157630952Y-92768819D02*
X157869047Y-92768819D01*
X157869047Y-92768819D02*
X157964285Y-92816438D01*
X157964285Y-92816438D02*
X158011904Y-92864057D01*
X158011904Y-92864057D02*
X158059523Y-92959295D01*
X158059523Y-92959295D02*
X158059523Y-93054533D01*
X158059523Y-93054533D02*
X158011904Y-93197390D01*
X158011904Y-93197390D02*
X157440476Y-93768819D01*
X157440476Y-93768819D02*
X158059523Y-93768819D01*
X135929580Y-97642857D02*
X135977200Y-97690476D01*
X135977200Y-97690476D02*
X136024819Y-97833333D01*
X136024819Y-97833333D02*
X136024819Y-97928571D01*
X136024819Y-97928571D02*
X135977200Y-98071428D01*
X135977200Y-98071428D02*
X135881961Y-98166666D01*
X135881961Y-98166666D02*
X135786723Y-98214285D01*
X135786723Y-98214285D02*
X135596247Y-98261904D01*
X135596247Y-98261904D02*
X135453390Y-98261904D01*
X135453390Y-98261904D02*
X135262914Y-98214285D01*
X135262914Y-98214285D02*
X135167676Y-98166666D01*
X135167676Y-98166666D02*
X135072438Y-98071428D01*
X135072438Y-98071428D02*
X135024819Y-97928571D01*
X135024819Y-97928571D02*
X135024819Y-97833333D01*
X135024819Y-97833333D02*
X135072438Y-97690476D01*
X135072438Y-97690476D02*
X135120057Y-97642857D01*
X136024819Y-96690476D02*
X136024819Y-97261904D01*
X136024819Y-96976190D02*
X135024819Y-96976190D01*
X135024819Y-96976190D02*
X135167676Y-97071428D01*
X135167676Y-97071428D02*
X135262914Y-97166666D01*
X135262914Y-97166666D02*
X135310533Y-97261904D01*
X135024819Y-96357142D02*
X135024819Y-95738095D01*
X135024819Y-95738095D02*
X135405771Y-96071428D01*
X135405771Y-96071428D02*
X135405771Y-95928571D01*
X135405771Y-95928571D02*
X135453390Y-95833333D01*
X135453390Y-95833333D02*
X135501009Y-95785714D01*
X135501009Y-95785714D02*
X135596247Y-95738095D01*
X135596247Y-95738095D02*
X135834342Y-95738095D01*
X135834342Y-95738095D02*
X135929580Y-95785714D01*
X135929580Y-95785714D02*
X135977200Y-95833333D01*
X135977200Y-95833333D02*
X136024819Y-95928571D01*
X136024819Y-95928571D02*
X136024819Y-96214285D01*
X136024819Y-96214285D02*
X135977200Y-96309523D01*
X135977200Y-96309523D02*
X135929580Y-96357142D01*
X165282142Y-116819819D02*
X164805952Y-116819819D01*
X164805952Y-116819819D02*
X164805952Y-115819819D01*
X165567857Y-116772200D02*
X165710714Y-116819819D01*
X165710714Y-116819819D02*
X165948809Y-116819819D01*
X165948809Y-116819819D02*
X166044047Y-116772200D01*
X166044047Y-116772200D02*
X166091666Y-116724580D01*
X166091666Y-116724580D02*
X166139285Y-116629342D01*
X166139285Y-116629342D02*
X166139285Y-116534104D01*
X166139285Y-116534104D02*
X166091666Y-116438866D01*
X166091666Y-116438866D02*
X166044047Y-116391247D01*
X166044047Y-116391247D02*
X165948809Y-116343628D01*
X165948809Y-116343628D02*
X165758333Y-116296009D01*
X165758333Y-116296009D02*
X165663095Y-116248390D01*
X165663095Y-116248390D02*
X165615476Y-116200771D01*
X165615476Y-116200771D02*
X165567857Y-116105533D01*
X165567857Y-116105533D02*
X165567857Y-116010295D01*
X165567857Y-116010295D02*
X165615476Y-115915057D01*
X165615476Y-115915057D02*
X165663095Y-115867438D01*
X165663095Y-115867438D02*
X165758333Y-115819819D01*
X165758333Y-115819819D02*
X165996428Y-115819819D01*
X165996428Y-115819819D02*
X166139285Y-115867438D01*
X167091666Y-116819819D02*
X166520238Y-116819819D01*
X166805952Y-116819819D02*
X166805952Y-115819819D01*
X166805952Y-115819819D02*
X166710714Y-115962676D01*
X166710714Y-115962676D02*
X166615476Y-116057914D01*
X166615476Y-116057914D02*
X166520238Y-116105533D01*
X169166666Y-112834819D02*
X169166666Y-113549104D01*
X169166666Y-113549104D02*
X169119047Y-113691961D01*
X169119047Y-113691961D02*
X169023809Y-113787200D01*
X169023809Y-113787200D02*
X168880952Y-113834819D01*
X168880952Y-113834819D02*
X168785714Y-113834819D01*
X169595238Y-112930057D02*
X169642857Y-112882438D01*
X169642857Y-112882438D02*
X169738095Y-112834819D01*
X169738095Y-112834819D02*
X169976190Y-112834819D01*
X169976190Y-112834819D02*
X170071428Y-112882438D01*
X170071428Y-112882438D02*
X170119047Y-112930057D01*
X170119047Y-112930057D02*
X170166666Y-113025295D01*
X170166666Y-113025295D02*
X170166666Y-113120533D01*
X170166666Y-113120533D02*
X170119047Y-113263390D01*
X170119047Y-113263390D02*
X169547619Y-113834819D01*
X169547619Y-113834819D02*
X170166666Y-113834819D01*
X150416666Y-82754819D02*
X150416666Y-83469104D01*
X150416666Y-83469104D02*
X150369047Y-83611961D01*
X150369047Y-83611961D02*
X150273809Y-83707200D01*
X150273809Y-83707200D02*
X150130952Y-83754819D01*
X150130952Y-83754819D02*
X150035714Y-83754819D01*
X151416666Y-83754819D02*
X150845238Y-83754819D01*
X151130952Y-83754819D02*
X151130952Y-82754819D01*
X151130952Y-82754819D02*
X151035714Y-82897676D01*
X151035714Y-82897676D02*
X150940476Y-82992914D01*
X150940476Y-82992914D02*
X150845238Y-83040533D01*
X134429580Y-101142857D02*
X134477200Y-101190476D01*
X134477200Y-101190476D02*
X134524819Y-101333333D01*
X134524819Y-101333333D02*
X134524819Y-101428571D01*
X134524819Y-101428571D02*
X134477200Y-101571428D01*
X134477200Y-101571428D02*
X134381961Y-101666666D01*
X134381961Y-101666666D02*
X134286723Y-101714285D01*
X134286723Y-101714285D02*
X134096247Y-101761904D01*
X134096247Y-101761904D02*
X133953390Y-101761904D01*
X133953390Y-101761904D02*
X133762914Y-101714285D01*
X133762914Y-101714285D02*
X133667676Y-101666666D01*
X133667676Y-101666666D02*
X133572438Y-101571428D01*
X133572438Y-101571428D02*
X133524819Y-101428571D01*
X133524819Y-101428571D02*
X133524819Y-101333333D01*
X133524819Y-101333333D02*
X133572438Y-101190476D01*
X133572438Y-101190476D02*
X133620057Y-101142857D01*
X134524819Y-100190476D02*
X134524819Y-100761904D01*
X134524819Y-100476190D02*
X133524819Y-100476190D01*
X133524819Y-100476190D02*
X133667676Y-100571428D01*
X133667676Y-100571428D02*
X133762914Y-100666666D01*
X133762914Y-100666666D02*
X133810533Y-100761904D01*
X133620057Y-99809523D02*
X133572438Y-99761904D01*
X133572438Y-99761904D02*
X133524819Y-99666666D01*
X133524819Y-99666666D02*
X133524819Y-99428571D01*
X133524819Y-99428571D02*
X133572438Y-99333333D01*
X133572438Y-99333333D02*
X133620057Y-99285714D01*
X133620057Y-99285714D02*
X133715295Y-99238095D01*
X133715295Y-99238095D02*
X133810533Y-99238095D01*
X133810533Y-99238095D02*
X133953390Y-99285714D01*
X133953390Y-99285714D02*
X134524819Y-99857142D01*
X134524819Y-99857142D02*
X134524819Y-99238095D01*
X125524819Y-87666666D02*
X125048628Y-87999999D01*
X125524819Y-88238094D02*
X124524819Y-88238094D01*
X124524819Y-88238094D02*
X124524819Y-87857142D01*
X124524819Y-87857142D02*
X124572438Y-87761904D01*
X124572438Y-87761904D02*
X124620057Y-87714285D01*
X124620057Y-87714285D02*
X124715295Y-87666666D01*
X124715295Y-87666666D02*
X124858152Y-87666666D01*
X124858152Y-87666666D02*
X124953390Y-87714285D01*
X124953390Y-87714285D02*
X125001009Y-87761904D01*
X125001009Y-87761904D02*
X125048628Y-87857142D01*
X125048628Y-87857142D02*
X125048628Y-88238094D01*
X124524819Y-87333332D02*
X124524819Y-86714285D01*
X124524819Y-86714285D02*
X124905771Y-87047618D01*
X124905771Y-87047618D02*
X124905771Y-86904761D01*
X124905771Y-86904761D02*
X124953390Y-86809523D01*
X124953390Y-86809523D02*
X125001009Y-86761904D01*
X125001009Y-86761904D02*
X125096247Y-86714285D01*
X125096247Y-86714285D02*
X125334342Y-86714285D01*
X125334342Y-86714285D02*
X125429580Y-86761904D01*
X125429580Y-86761904D02*
X125477200Y-86809523D01*
X125477200Y-86809523D02*
X125524819Y-86904761D01*
X125524819Y-86904761D02*
X125524819Y-87190475D01*
X125524819Y-87190475D02*
X125477200Y-87285713D01*
X125477200Y-87285713D02*
X125429580Y-87333332D01*
X144333333Y-120274819D02*
X144000000Y-119798628D01*
X143761905Y-120274819D02*
X143761905Y-119274819D01*
X143761905Y-119274819D02*
X144142857Y-119274819D01*
X144142857Y-119274819D02*
X144238095Y-119322438D01*
X144238095Y-119322438D02*
X144285714Y-119370057D01*
X144285714Y-119370057D02*
X144333333Y-119465295D01*
X144333333Y-119465295D02*
X144333333Y-119608152D01*
X144333333Y-119608152D02*
X144285714Y-119703390D01*
X144285714Y-119703390D02*
X144238095Y-119751009D01*
X144238095Y-119751009D02*
X144142857Y-119798628D01*
X144142857Y-119798628D02*
X143761905Y-119798628D01*
X145285714Y-120274819D02*
X144714286Y-120274819D01*
X145000000Y-120274819D02*
X145000000Y-119274819D01*
X145000000Y-119274819D02*
X144904762Y-119417676D01*
X144904762Y-119417676D02*
X144809524Y-119512914D01*
X144809524Y-119512914D02*
X144714286Y-119560533D01*
X167384819Y-90416666D02*
X166908628Y-90749999D01*
X167384819Y-90988094D02*
X166384819Y-90988094D01*
X166384819Y-90988094D02*
X166384819Y-90607142D01*
X166384819Y-90607142D02*
X166432438Y-90511904D01*
X166432438Y-90511904D02*
X166480057Y-90464285D01*
X166480057Y-90464285D02*
X166575295Y-90416666D01*
X166575295Y-90416666D02*
X166718152Y-90416666D01*
X166718152Y-90416666D02*
X166813390Y-90464285D01*
X166813390Y-90464285D02*
X166861009Y-90511904D01*
X166861009Y-90511904D02*
X166908628Y-90607142D01*
X166908628Y-90607142D02*
X166908628Y-90988094D01*
X166813390Y-89845237D02*
X166765771Y-89940475D01*
X166765771Y-89940475D02*
X166718152Y-89988094D01*
X166718152Y-89988094D02*
X166622914Y-90035713D01*
X166622914Y-90035713D02*
X166575295Y-90035713D01*
X166575295Y-90035713D02*
X166480057Y-89988094D01*
X166480057Y-89988094D02*
X166432438Y-89940475D01*
X166432438Y-89940475D02*
X166384819Y-89845237D01*
X166384819Y-89845237D02*
X166384819Y-89654761D01*
X166384819Y-89654761D02*
X166432438Y-89559523D01*
X166432438Y-89559523D02*
X166480057Y-89511904D01*
X166480057Y-89511904D02*
X166575295Y-89464285D01*
X166575295Y-89464285D02*
X166622914Y-89464285D01*
X166622914Y-89464285D02*
X166718152Y-89511904D01*
X166718152Y-89511904D02*
X166765771Y-89559523D01*
X166765771Y-89559523D02*
X166813390Y-89654761D01*
X166813390Y-89654761D02*
X166813390Y-89845237D01*
X166813390Y-89845237D02*
X166861009Y-89940475D01*
X166861009Y-89940475D02*
X166908628Y-89988094D01*
X166908628Y-89988094D02*
X167003866Y-90035713D01*
X167003866Y-90035713D02*
X167194342Y-90035713D01*
X167194342Y-90035713D02*
X167289580Y-89988094D01*
X167289580Y-89988094D02*
X167337200Y-89940475D01*
X167337200Y-89940475D02*
X167384819Y-89845237D01*
X167384819Y-89845237D02*
X167384819Y-89654761D01*
X167384819Y-89654761D02*
X167337200Y-89559523D01*
X167337200Y-89559523D02*
X167289580Y-89511904D01*
X167289580Y-89511904D02*
X167194342Y-89464285D01*
X167194342Y-89464285D02*
X167003866Y-89464285D01*
X167003866Y-89464285D02*
X166908628Y-89511904D01*
X166908628Y-89511904D02*
X166861009Y-89559523D01*
X166861009Y-89559523D02*
X166813390Y-89654761D01*
X156274819Y-117642857D02*
X155798628Y-117976190D01*
X156274819Y-118214285D02*
X155274819Y-118214285D01*
X155274819Y-118214285D02*
X155274819Y-117833333D01*
X155274819Y-117833333D02*
X155322438Y-117738095D01*
X155322438Y-117738095D02*
X155370057Y-117690476D01*
X155370057Y-117690476D02*
X155465295Y-117642857D01*
X155465295Y-117642857D02*
X155608152Y-117642857D01*
X155608152Y-117642857D02*
X155703390Y-117690476D01*
X155703390Y-117690476D02*
X155751009Y-117738095D01*
X155751009Y-117738095D02*
X155798628Y-117833333D01*
X155798628Y-117833333D02*
X155798628Y-118214285D01*
X155370057Y-117261904D02*
X155322438Y-117214285D01*
X155322438Y-117214285D02*
X155274819Y-117119047D01*
X155274819Y-117119047D02*
X155274819Y-116880952D01*
X155274819Y-116880952D02*
X155322438Y-116785714D01*
X155322438Y-116785714D02*
X155370057Y-116738095D01*
X155370057Y-116738095D02*
X155465295Y-116690476D01*
X155465295Y-116690476D02*
X155560533Y-116690476D01*
X155560533Y-116690476D02*
X155703390Y-116738095D01*
X155703390Y-116738095D02*
X156274819Y-117309523D01*
X156274819Y-117309523D02*
X156274819Y-116690476D01*
X155274819Y-116071428D02*
X155274819Y-115976190D01*
X155274819Y-115976190D02*
X155322438Y-115880952D01*
X155322438Y-115880952D02*
X155370057Y-115833333D01*
X155370057Y-115833333D02*
X155465295Y-115785714D01*
X155465295Y-115785714D02*
X155655771Y-115738095D01*
X155655771Y-115738095D02*
X155893866Y-115738095D01*
X155893866Y-115738095D02*
X156084342Y-115785714D01*
X156084342Y-115785714D02*
X156179580Y-115833333D01*
X156179580Y-115833333D02*
X156227200Y-115880952D01*
X156227200Y-115880952D02*
X156274819Y-115976190D01*
X156274819Y-115976190D02*
X156274819Y-116071428D01*
X156274819Y-116071428D02*
X156227200Y-116166666D01*
X156227200Y-116166666D02*
X156179580Y-116214285D01*
X156179580Y-116214285D02*
X156084342Y-116261904D01*
X156084342Y-116261904D02*
X155893866Y-116309523D01*
X155893866Y-116309523D02*
X155655771Y-116309523D01*
X155655771Y-116309523D02*
X155465295Y-116261904D01*
X155465295Y-116261904D02*
X155370057Y-116214285D01*
X155370057Y-116214285D02*
X155322438Y-116166666D01*
X155322438Y-116166666D02*
X155274819Y-116071428D01*
X164384819Y-78416666D02*
X163908628Y-78749999D01*
X164384819Y-78988094D02*
X163384819Y-78988094D01*
X163384819Y-78988094D02*
X163384819Y-78607142D01*
X163384819Y-78607142D02*
X163432438Y-78511904D01*
X163432438Y-78511904D02*
X163480057Y-78464285D01*
X163480057Y-78464285D02*
X163575295Y-78416666D01*
X163575295Y-78416666D02*
X163718152Y-78416666D01*
X163718152Y-78416666D02*
X163813390Y-78464285D01*
X163813390Y-78464285D02*
X163861009Y-78511904D01*
X163861009Y-78511904D02*
X163908628Y-78607142D01*
X163908628Y-78607142D02*
X163908628Y-78988094D01*
X163384819Y-77559523D02*
X163384819Y-77749999D01*
X163384819Y-77749999D02*
X163432438Y-77845237D01*
X163432438Y-77845237D02*
X163480057Y-77892856D01*
X163480057Y-77892856D02*
X163622914Y-77988094D01*
X163622914Y-77988094D02*
X163813390Y-78035713D01*
X163813390Y-78035713D02*
X164194342Y-78035713D01*
X164194342Y-78035713D02*
X164289580Y-77988094D01*
X164289580Y-77988094D02*
X164337200Y-77940475D01*
X164337200Y-77940475D02*
X164384819Y-77845237D01*
X164384819Y-77845237D02*
X164384819Y-77654761D01*
X164384819Y-77654761D02*
X164337200Y-77559523D01*
X164337200Y-77559523D02*
X164289580Y-77511904D01*
X164289580Y-77511904D02*
X164194342Y-77464285D01*
X164194342Y-77464285D02*
X163956247Y-77464285D01*
X163956247Y-77464285D02*
X163861009Y-77511904D01*
X163861009Y-77511904D02*
X163813390Y-77559523D01*
X163813390Y-77559523D02*
X163765771Y-77654761D01*
X163765771Y-77654761D02*
X163765771Y-77845237D01*
X163765771Y-77845237D02*
X163813390Y-77940475D01*
X163813390Y-77940475D02*
X163861009Y-77988094D01*
X163861009Y-77988094D02*
X163956247Y-78035713D01*
X159954819Y-78988094D02*
X158954819Y-78988094D01*
X158954819Y-78988094D02*
X158954819Y-78749999D01*
X158954819Y-78749999D02*
X159002438Y-78607142D01*
X159002438Y-78607142D02*
X159097676Y-78511904D01*
X159097676Y-78511904D02*
X159192914Y-78464285D01*
X159192914Y-78464285D02*
X159383390Y-78416666D01*
X159383390Y-78416666D02*
X159526247Y-78416666D01*
X159526247Y-78416666D02*
X159716723Y-78464285D01*
X159716723Y-78464285D02*
X159811961Y-78511904D01*
X159811961Y-78511904D02*
X159907200Y-78607142D01*
X159907200Y-78607142D02*
X159954819Y-78749999D01*
X159954819Y-78749999D02*
X159954819Y-78988094D01*
X159954819Y-77464285D02*
X159954819Y-78035713D01*
X159954819Y-77749999D02*
X158954819Y-77749999D01*
X158954819Y-77749999D02*
X159097676Y-77845237D01*
X159097676Y-77845237D02*
X159192914Y-77940475D01*
X159192914Y-77940475D02*
X159240533Y-78035713D01*
X149954819Y-87488094D02*
X148954819Y-87488094D01*
X148954819Y-87488094D02*
X148954819Y-87249999D01*
X148954819Y-87249999D02*
X149002438Y-87107142D01*
X149002438Y-87107142D02*
X149097676Y-87011904D01*
X149097676Y-87011904D02*
X149192914Y-86964285D01*
X149192914Y-86964285D02*
X149383390Y-86916666D01*
X149383390Y-86916666D02*
X149526247Y-86916666D01*
X149526247Y-86916666D02*
X149716723Y-86964285D01*
X149716723Y-86964285D02*
X149811961Y-87011904D01*
X149811961Y-87011904D02*
X149907200Y-87107142D01*
X149907200Y-87107142D02*
X149954819Y-87249999D01*
X149954819Y-87249999D02*
X149954819Y-87488094D01*
X149050057Y-86535713D02*
X149002438Y-86488094D01*
X149002438Y-86488094D02*
X148954819Y-86392856D01*
X148954819Y-86392856D02*
X148954819Y-86154761D01*
X148954819Y-86154761D02*
X149002438Y-86059523D01*
X149002438Y-86059523D02*
X149050057Y-86011904D01*
X149050057Y-86011904D02*
X149145295Y-85964285D01*
X149145295Y-85964285D02*
X149240533Y-85964285D01*
X149240533Y-85964285D02*
X149383390Y-86011904D01*
X149383390Y-86011904D02*
X149954819Y-86583332D01*
X149954819Y-86583332D02*
X149954819Y-85964285D01*
X151929580Y-87416666D02*
X151977200Y-87464285D01*
X151977200Y-87464285D02*
X152024819Y-87607142D01*
X152024819Y-87607142D02*
X152024819Y-87702380D01*
X152024819Y-87702380D02*
X151977200Y-87845237D01*
X151977200Y-87845237D02*
X151881961Y-87940475D01*
X151881961Y-87940475D02*
X151786723Y-87988094D01*
X151786723Y-87988094D02*
X151596247Y-88035713D01*
X151596247Y-88035713D02*
X151453390Y-88035713D01*
X151453390Y-88035713D02*
X151262914Y-87988094D01*
X151262914Y-87988094D02*
X151167676Y-87940475D01*
X151167676Y-87940475D02*
X151072438Y-87845237D01*
X151072438Y-87845237D02*
X151024819Y-87702380D01*
X151024819Y-87702380D02*
X151024819Y-87607142D01*
X151024819Y-87607142D02*
X151072438Y-87464285D01*
X151072438Y-87464285D02*
X151120057Y-87416666D01*
X151024819Y-86559523D02*
X151024819Y-86749999D01*
X151024819Y-86749999D02*
X151072438Y-86845237D01*
X151072438Y-86845237D02*
X151120057Y-86892856D01*
X151120057Y-86892856D02*
X151262914Y-86988094D01*
X151262914Y-86988094D02*
X151453390Y-87035713D01*
X151453390Y-87035713D02*
X151834342Y-87035713D01*
X151834342Y-87035713D02*
X151929580Y-86988094D01*
X151929580Y-86988094D02*
X151977200Y-86940475D01*
X151977200Y-86940475D02*
X152024819Y-86845237D01*
X152024819Y-86845237D02*
X152024819Y-86654761D01*
X152024819Y-86654761D02*
X151977200Y-86559523D01*
X151977200Y-86559523D02*
X151929580Y-86511904D01*
X151929580Y-86511904D02*
X151834342Y-86464285D01*
X151834342Y-86464285D02*
X151596247Y-86464285D01*
X151596247Y-86464285D02*
X151501009Y-86511904D01*
X151501009Y-86511904D02*
X151453390Y-86559523D01*
X151453390Y-86559523D02*
X151405771Y-86654761D01*
X151405771Y-86654761D02*
X151405771Y-86845237D01*
X151405771Y-86845237D02*
X151453390Y-86940475D01*
X151453390Y-86940475D02*
X151501009Y-86988094D01*
X151501009Y-86988094D02*
X151596247Y-87035713D01*
X138916666Y-82704819D02*
X138916666Y-83419104D01*
X138916666Y-83419104D02*
X138869047Y-83561961D01*
X138869047Y-83561961D02*
X138773809Y-83657200D01*
X138773809Y-83657200D02*
X138630952Y-83704819D01*
X138630952Y-83704819D02*
X138535714Y-83704819D01*
X139297619Y-82704819D02*
X139964285Y-82704819D01*
X139964285Y-82704819D02*
X139535714Y-83704819D01*
X132178571Y-79614700D02*
X133321429Y-79614700D01*
X145178571Y-79614700D02*
X146321429Y-79614700D01*
X145750000Y-80186128D02*
X145750000Y-79043271D01*
X129524819Y-101142857D02*
X129048628Y-101476190D01*
X129524819Y-101714285D02*
X128524819Y-101714285D01*
X128524819Y-101714285D02*
X128524819Y-101333333D01*
X128524819Y-101333333D02*
X128572438Y-101238095D01*
X128572438Y-101238095D02*
X128620057Y-101190476D01*
X128620057Y-101190476D02*
X128715295Y-101142857D01*
X128715295Y-101142857D02*
X128858152Y-101142857D01*
X128858152Y-101142857D02*
X128953390Y-101190476D01*
X128953390Y-101190476D02*
X129001009Y-101238095D01*
X129001009Y-101238095D02*
X129048628Y-101333333D01*
X129048628Y-101333333D02*
X129048628Y-101714285D01*
X129524819Y-100190476D02*
X129524819Y-100761904D01*
X129524819Y-100476190D02*
X128524819Y-100476190D01*
X128524819Y-100476190D02*
X128667676Y-100571428D01*
X128667676Y-100571428D02*
X128762914Y-100666666D01*
X128762914Y-100666666D02*
X128810533Y-100761904D01*
X128620057Y-99809523D02*
X128572438Y-99761904D01*
X128572438Y-99761904D02*
X128524819Y-99666666D01*
X128524819Y-99666666D02*
X128524819Y-99428571D01*
X128524819Y-99428571D02*
X128572438Y-99333333D01*
X128572438Y-99333333D02*
X128620057Y-99285714D01*
X128620057Y-99285714D02*
X128715295Y-99238095D01*
X128715295Y-99238095D02*
X128810533Y-99238095D01*
X128810533Y-99238095D02*
X128953390Y-99285714D01*
X128953390Y-99285714D02*
X129524819Y-99857142D01*
X129524819Y-99857142D02*
X129524819Y-99238095D01*
X137454819Y-114011904D02*
X138264342Y-114011904D01*
X138264342Y-114011904D02*
X138359580Y-113964285D01*
X138359580Y-113964285D02*
X138407200Y-113916666D01*
X138407200Y-113916666D02*
X138454819Y-113821428D01*
X138454819Y-113821428D02*
X138454819Y-113630952D01*
X138454819Y-113630952D02*
X138407200Y-113535714D01*
X138407200Y-113535714D02*
X138359580Y-113488095D01*
X138359580Y-113488095D02*
X138264342Y-113440476D01*
X138264342Y-113440476D02*
X137454819Y-113440476D01*
X137788152Y-112535714D02*
X138454819Y-112535714D01*
X137407200Y-112773809D02*
X138121485Y-113011904D01*
X138121485Y-113011904D02*
X138121485Y-112392857D01*
X125524819Y-90916666D02*
X125048628Y-91249999D01*
X125524819Y-91488094D02*
X124524819Y-91488094D01*
X124524819Y-91488094D02*
X124524819Y-91107142D01*
X124524819Y-91107142D02*
X124572438Y-91011904D01*
X124572438Y-91011904D02*
X124620057Y-90964285D01*
X124620057Y-90964285D02*
X124715295Y-90916666D01*
X124715295Y-90916666D02*
X124858152Y-90916666D01*
X124858152Y-90916666D02*
X124953390Y-90964285D01*
X124953390Y-90964285D02*
X125001009Y-91011904D01*
X125001009Y-91011904D02*
X125048628Y-91107142D01*
X125048628Y-91107142D02*
X125048628Y-91488094D01*
X124620057Y-90535713D02*
X124572438Y-90488094D01*
X124572438Y-90488094D02*
X124524819Y-90392856D01*
X124524819Y-90392856D02*
X124524819Y-90154761D01*
X124524819Y-90154761D02*
X124572438Y-90059523D01*
X124572438Y-90059523D02*
X124620057Y-90011904D01*
X124620057Y-90011904D02*
X124715295Y-89964285D01*
X124715295Y-89964285D02*
X124810533Y-89964285D01*
X124810533Y-89964285D02*
X124953390Y-90011904D01*
X124953390Y-90011904D02*
X125524819Y-90583332D01*
X125524819Y-90583332D02*
X125524819Y-89964285D01*
X161154761Y-115150057D02*
X161059523Y-115102438D01*
X161059523Y-115102438D02*
X160964285Y-115007200D01*
X160964285Y-115007200D02*
X160821428Y-114864342D01*
X160821428Y-114864342D02*
X160726190Y-114816723D01*
X160726190Y-114816723D02*
X160630952Y-114816723D01*
X160678571Y-115054819D02*
X160583333Y-115007200D01*
X160583333Y-115007200D02*
X160488095Y-114911961D01*
X160488095Y-114911961D02*
X160440476Y-114721485D01*
X160440476Y-114721485D02*
X160440476Y-114388152D01*
X160440476Y-114388152D02*
X160488095Y-114197676D01*
X160488095Y-114197676D02*
X160583333Y-114102438D01*
X160583333Y-114102438D02*
X160678571Y-114054819D01*
X160678571Y-114054819D02*
X160869047Y-114054819D01*
X160869047Y-114054819D02*
X160964285Y-114102438D01*
X160964285Y-114102438D02*
X161059523Y-114197676D01*
X161059523Y-114197676D02*
X161107142Y-114388152D01*
X161107142Y-114388152D02*
X161107142Y-114721485D01*
X161107142Y-114721485D02*
X161059523Y-114911961D01*
X161059523Y-114911961D02*
X160964285Y-115007200D01*
X160964285Y-115007200D02*
X160869047Y-115054819D01*
X160869047Y-115054819D02*
X160678571Y-115054819D01*
X161488095Y-114150057D02*
X161535714Y-114102438D01*
X161535714Y-114102438D02*
X161630952Y-114054819D01*
X161630952Y-114054819D02*
X161869047Y-114054819D01*
X161869047Y-114054819D02*
X161964285Y-114102438D01*
X161964285Y-114102438D02*
X162011904Y-114150057D01*
X162011904Y-114150057D02*
X162059523Y-114245295D01*
X162059523Y-114245295D02*
X162059523Y-114340533D01*
X162059523Y-114340533D02*
X162011904Y-114483390D01*
X162011904Y-114483390D02*
X161440476Y-115054819D01*
X161440476Y-115054819D02*
X162059523Y-115054819D01*
X163539580Y-90892857D02*
X163587200Y-90940476D01*
X163587200Y-90940476D02*
X163634819Y-91083333D01*
X163634819Y-91083333D02*
X163634819Y-91178571D01*
X163634819Y-91178571D02*
X163587200Y-91321428D01*
X163587200Y-91321428D02*
X163491961Y-91416666D01*
X163491961Y-91416666D02*
X163396723Y-91464285D01*
X163396723Y-91464285D02*
X163206247Y-91511904D01*
X163206247Y-91511904D02*
X163063390Y-91511904D01*
X163063390Y-91511904D02*
X162872914Y-91464285D01*
X162872914Y-91464285D02*
X162777676Y-91416666D01*
X162777676Y-91416666D02*
X162682438Y-91321428D01*
X162682438Y-91321428D02*
X162634819Y-91178571D01*
X162634819Y-91178571D02*
X162634819Y-91083333D01*
X162634819Y-91083333D02*
X162682438Y-90940476D01*
X162682438Y-90940476D02*
X162730057Y-90892857D01*
X163634819Y-89940476D02*
X163634819Y-90511904D01*
X163634819Y-90226190D02*
X162634819Y-90226190D01*
X162634819Y-90226190D02*
X162777676Y-90321428D01*
X162777676Y-90321428D02*
X162872914Y-90416666D01*
X162872914Y-90416666D02*
X162920533Y-90511904D01*
X162634819Y-89321428D02*
X162634819Y-89226190D01*
X162634819Y-89226190D02*
X162682438Y-89130952D01*
X162682438Y-89130952D02*
X162730057Y-89083333D01*
X162730057Y-89083333D02*
X162825295Y-89035714D01*
X162825295Y-89035714D02*
X163015771Y-88988095D01*
X163015771Y-88988095D02*
X163253866Y-88988095D01*
X163253866Y-88988095D02*
X163444342Y-89035714D01*
X163444342Y-89035714D02*
X163539580Y-89083333D01*
X163539580Y-89083333D02*
X163587200Y-89130952D01*
X163587200Y-89130952D02*
X163634819Y-89226190D01*
X163634819Y-89226190D02*
X163634819Y-89321428D01*
X163634819Y-89321428D02*
X163587200Y-89416666D01*
X163587200Y-89416666D02*
X163539580Y-89464285D01*
X163539580Y-89464285D02*
X163444342Y-89511904D01*
X163444342Y-89511904D02*
X163253866Y-89559523D01*
X163253866Y-89559523D02*
X163015771Y-89559523D01*
X163015771Y-89559523D02*
X162825295Y-89511904D01*
X162825295Y-89511904D02*
X162730057Y-89464285D01*
X162730057Y-89464285D02*
X162682438Y-89416666D01*
X162682438Y-89416666D02*
X162634819Y-89321428D01*
X159384819Y-82142857D02*
X158908628Y-82476190D01*
X159384819Y-82714285D02*
X158384819Y-82714285D01*
X158384819Y-82714285D02*
X158384819Y-82333333D01*
X158384819Y-82333333D02*
X158432438Y-82238095D01*
X158432438Y-82238095D02*
X158480057Y-82190476D01*
X158480057Y-82190476D02*
X158575295Y-82142857D01*
X158575295Y-82142857D02*
X158718152Y-82142857D01*
X158718152Y-82142857D02*
X158813390Y-82190476D01*
X158813390Y-82190476D02*
X158861009Y-82238095D01*
X158861009Y-82238095D02*
X158908628Y-82333333D01*
X158908628Y-82333333D02*
X158908628Y-82714285D01*
X159384819Y-81190476D02*
X159384819Y-81761904D01*
X159384819Y-81476190D02*
X158384819Y-81476190D01*
X158384819Y-81476190D02*
X158527676Y-81571428D01*
X158527676Y-81571428D02*
X158622914Y-81666666D01*
X158622914Y-81666666D02*
X158670533Y-81761904D01*
X158718152Y-80333333D02*
X159384819Y-80333333D01*
X158337200Y-80571428D02*
X159051485Y-80809523D01*
X159051485Y-80809523D02*
X159051485Y-80190476D01*
X145134819Y-90416666D02*
X144658628Y-90749999D01*
X145134819Y-90988094D02*
X144134819Y-90988094D01*
X144134819Y-90988094D02*
X144134819Y-90607142D01*
X144134819Y-90607142D02*
X144182438Y-90511904D01*
X144182438Y-90511904D02*
X144230057Y-90464285D01*
X144230057Y-90464285D02*
X144325295Y-90416666D01*
X144325295Y-90416666D02*
X144468152Y-90416666D01*
X144468152Y-90416666D02*
X144563390Y-90464285D01*
X144563390Y-90464285D02*
X144611009Y-90511904D01*
X144611009Y-90511904D02*
X144658628Y-90607142D01*
X144658628Y-90607142D02*
X144658628Y-90988094D01*
X144468152Y-89559523D02*
X145134819Y-89559523D01*
X144087200Y-89797618D02*
X144801485Y-90035713D01*
X144801485Y-90035713D02*
X144801485Y-89416666D01*
X129929580Y-87416666D02*
X129977200Y-87464285D01*
X129977200Y-87464285D02*
X130024819Y-87607142D01*
X130024819Y-87607142D02*
X130024819Y-87702380D01*
X130024819Y-87702380D02*
X129977200Y-87845237D01*
X129977200Y-87845237D02*
X129881961Y-87940475D01*
X129881961Y-87940475D02*
X129786723Y-87988094D01*
X129786723Y-87988094D02*
X129596247Y-88035713D01*
X129596247Y-88035713D02*
X129453390Y-88035713D01*
X129453390Y-88035713D02*
X129262914Y-87988094D01*
X129262914Y-87988094D02*
X129167676Y-87940475D01*
X129167676Y-87940475D02*
X129072438Y-87845237D01*
X129072438Y-87845237D02*
X129024819Y-87702380D01*
X129024819Y-87702380D02*
X129024819Y-87607142D01*
X129024819Y-87607142D02*
X129072438Y-87464285D01*
X129072438Y-87464285D02*
X129120057Y-87416666D01*
X130024819Y-86464285D02*
X130024819Y-87035713D01*
X130024819Y-86749999D02*
X129024819Y-86749999D01*
X129024819Y-86749999D02*
X129167676Y-86845237D01*
X129167676Y-86845237D02*
X129262914Y-86940475D01*
X129262914Y-86940475D02*
X129310533Y-87035713D01*
X126295180Y-104666666D02*
X125580895Y-104666666D01*
X125580895Y-104666666D02*
X125438038Y-104619047D01*
X125438038Y-104619047D02*
X125342800Y-104523809D01*
X125342800Y-104523809D02*
X125295180Y-104380952D01*
X125295180Y-104380952D02*
X125295180Y-104285714D01*
X126295180Y-105047619D02*
X126295180Y-105666666D01*
X126295180Y-105666666D02*
X125914228Y-105333333D01*
X125914228Y-105333333D02*
X125914228Y-105476190D01*
X125914228Y-105476190D02*
X125866609Y-105571428D01*
X125866609Y-105571428D02*
X125818990Y-105619047D01*
X125818990Y-105619047D02*
X125723752Y-105666666D01*
X125723752Y-105666666D02*
X125485657Y-105666666D01*
X125485657Y-105666666D02*
X125390419Y-105619047D01*
X125390419Y-105619047D02*
X125342800Y-105571428D01*
X125342800Y-105571428D02*
X125295180Y-105476190D01*
X125295180Y-105476190D02*
X125295180Y-105190476D01*
X125295180Y-105190476D02*
X125342800Y-105095238D01*
X125342800Y-105095238D02*
X125390419Y-105047619D01*
X163134819Y-86916666D02*
X162658628Y-87249999D01*
X163134819Y-87488094D02*
X162134819Y-87488094D01*
X162134819Y-87488094D02*
X162134819Y-87107142D01*
X162134819Y-87107142D02*
X162182438Y-87011904D01*
X162182438Y-87011904D02*
X162230057Y-86964285D01*
X162230057Y-86964285D02*
X162325295Y-86916666D01*
X162325295Y-86916666D02*
X162468152Y-86916666D01*
X162468152Y-86916666D02*
X162563390Y-86964285D01*
X162563390Y-86964285D02*
X162611009Y-87011904D01*
X162611009Y-87011904D02*
X162658628Y-87107142D01*
X162658628Y-87107142D02*
X162658628Y-87488094D01*
X163134819Y-86440475D02*
X163134819Y-86249999D01*
X163134819Y-86249999D02*
X163087200Y-86154761D01*
X163087200Y-86154761D02*
X163039580Y-86107142D01*
X163039580Y-86107142D02*
X162896723Y-86011904D01*
X162896723Y-86011904D02*
X162706247Y-85964285D01*
X162706247Y-85964285D02*
X162325295Y-85964285D01*
X162325295Y-85964285D02*
X162230057Y-86011904D01*
X162230057Y-86011904D02*
X162182438Y-86059523D01*
X162182438Y-86059523D02*
X162134819Y-86154761D01*
X162134819Y-86154761D02*
X162134819Y-86345237D01*
X162134819Y-86345237D02*
X162182438Y-86440475D01*
X162182438Y-86440475D02*
X162230057Y-86488094D01*
X162230057Y-86488094D02*
X162325295Y-86535713D01*
X162325295Y-86535713D02*
X162563390Y-86535713D01*
X162563390Y-86535713D02*
X162658628Y-86488094D01*
X162658628Y-86488094D02*
X162706247Y-86440475D01*
X162706247Y-86440475D02*
X162753866Y-86345237D01*
X162753866Y-86345237D02*
X162753866Y-86154761D01*
X162753866Y-86154761D02*
X162706247Y-86059523D01*
X162706247Y-86059523D02*
X162658628Y-86011904D01*
X162658628Y-86011904D02*
X162563390Y-85964285D01*
X163024819Y-103142857D02*
X162548628Y-103476190D01*
X163024819Y-103714285D02*
X162024819Y-103714285D01*
X162024819Y-103714285D02*
X162024819Y-103333333D01*
X162024819Y-103333333D02*
X162072438Y-103238095D01*
X162072438Y-103238095D02*
X162120057Y-103190476D01*
X162120057Y-103190476D02*
X162215295Y-103142857D01*
X162215295Y-103142857D02*
X162358152Y-103142857D01*
X162358152Y-103142857D02*
X162453390Y-103190476D01*
X162453390Y-103190476D02*
X162501009Y-103238095D01*
X162501009Y-103238095D02*
X162548628Y-103333333D01*
X162548628Y-103333333D02*
X162548628Y-103714285D01*
X162120057Y-102761904D02*
X162072438Y-102714285D01*
X162072438Y-102714285D02*
X162024819Y-102619047D01*
X162024819Y-102619047D02*
X162024819Y-102380952D01*
X162024819Y-102380952D02*
X162072438Y-102285714D01*
X162072438Y-102285714D02*
X162120057Y-102238095D01*
X162120057Y-102238095D02*
X162215295Y-102190476D01*
X162215295Y-102190476D02*
X162310533Y-102190476D01*
X162310533Y-102190476D02*
X162453390Y-102238095D01*
X162453390Y-102238095D02*
X163024819Y-102809523D01*
X163024819Y-102809523D02*
X163024819Y-102190476D01*
X162024819Y-101857142D02*
X162024819Y-101238095D01*
X162024819Y-101238095D02*
X162405771Y-101571428D01*
X162405771Y-101571428D02*
X162405771Y-101428571D01*
X162405771Y-101428571D02*
X162453390Y-101333333D01*
X162453390Y-101333333D02*
X162501009Y-101285714D01*
X162501009Y-101285714D02*
X162596247Y-101238095D01*
X162596247Y-101238095D02*
X162834342Y-101238095D01*
X162834342Y-101238095D02*
X162929580Y-101285714D01*
X162929580Y-101285714D02*
X162977200Y-101333333D01*
X162977200Y-101333333D02*
X163024819Y-101428571D01*
X163024819Y-101428571D02*
X163024819Y-101714285D01*
X163024819Y-101714285D02*
X162977200Y-101809523D01*
X162977200Y-101809523D02*
X162929580Y-101857142D01*
X134238095Y-92768819D02*
X134238095Y-93578342D01*
X134238095Y-93578342D02*
X134285714Y-93673580D01*
X134285714Y-93673580D02*
X134333333Y-93721200D01*
X134333333Y-93721200D02*
X134428571Y-93768819D01*
X134428571Y-93768819D02*
X134619047Y-93768819D01*
X134619047Y-93768819D02*
X134714285Y-93721200D01*
X134714285Y-93721200D02*
X134761904Y-93673580D01*
X134761904Y-93673580D02*
X134809523Y-93578342D01*
X134809523Y-93578342D02*
X134809523Y-92768819D01*
X135809523Y-93768819D02*
X135238095Y-93768819D01*
X135523809Y-93768819D02*
X135523809Y-92768819D01*
X135523809Y-92768819D02*
X135428571Y-92911676D01*
X135428571Y-92911676D02*
X135333333Y-93006914D01*
X135333333Y-93006914D02*
X135238095Y-93054533D01*
X168416666Y-100504819D02*
X168416666Y-101219104D01*
X168416666Y-101219104D02*
X168369047Y-101361961D01*
X168369047Y-101361961D02*
X168273809Y-101457200D01*
X168273809Y-101457200D02*
X168130952Y-101504819D01*
X168130952Y-101504819D02*
X168035714Y-101504819D01*
X169321428Y-100838152D02*
X169321428Y-101504819D01*
X169083333Y-100457200D02*
X168845238Y-101171485D01*
X168845238Y-101171485D02*
X169464285Y-101171485D01*
X155916666Y-133529819D02*
X155916666Y-134244104D01*
X155916666Y-134244104D02*
X155869047Y-134386961D01*
X155869047Y-134386961D02*
X155773809Y-134482200D01*
X155773809Y-134482200D02*
X155630952Y-134529819D01*
X155630952Y-134529819D02*
X155535714Y-134529819D01*
X156440476Y-134529819D02*
X156630952Y-134529819D01*
X156630952Y-134529819D02*
X156726190Y-134482200D01*
X156726190Y-134482200D02*
X156773809Y-134434580D01*
X156773809Y-134434580D02*
X156869047Y-134291723D01*
X156869047Y-134291723D02*
X156916666Y-134101247D01*
X156916666Y-134101247D02*
X156916666Y-133720295D01*
X156916666Y-133720295D02*
X156869047Y-133625057D01*
X156869047Y-133625057D02*
X156821428Y-133577438D01*
X156821428Y-133577438D02*
X156726190Y-133529819D01*
X156726190Y-133529819D02*
X156535714Y-133529819D01*
X156535714Y-133529819D02*
X156440476Y-133577438D01*
X156440476Y-133577438D02*
X156392857Y-133625057D01*
X156392857Y-133625057D02*
X156345238Y-133720295D01*
X156345238Y-133720295D02*
X156345238Y-133958390D01*
X156345238Y-133958390D02*
X156392857Y-134053628D01*
X156392857Y-134053628D02*
X156440476Y-134101247D01*
X156440476Y-134101247D02*
X156535714Y-134148866D01*
X156535714Y-134148866D02*
X156726190Y-134148866D01*
X156726190Y-134148866D02*
X156821428Y-134101247D01*
X156821428Y-134101247D02*
X156869047Y-134053628D01*
X156869047Y-134053628D02*
X156916666Y-133958390D01*
X152179580Y-90916666D02*
X152227200Y-90964285D01*
X152227200Y-90964285D02*
X152274819Y-91107142D01*
X152274819Y-91107142D02*
X152274819Y-91202380D01*
X152274819Y-91202380D02*
X152227200Y-91345237D01*
X152227200Y-91345237D02*
X152131961Y-91440475D01*
X152131961Y-91440475D02*
X152036723Y-91488094D01*
X152036723Y-91488094D02*
X151846247Y-91535713D01*
X151846247Y-91535713D02*
X151703390Y-91535713D01*
X151703390Y-91535713D02*
X151512914Y-91488094D01*
X151512914Y-91488094D02*
X151417676Y-91440475D01*
X151417676Y-91440475D02*
X151322438Y-91345237D01*
X151322438Y-91345237D02*
X151274819Y-91202380D01*
X151274819Y-91202380D02*
X151274819Y-91107142D01*
X151274819Y-91107142D02*
X151322438Y-90964285D01*
X151322438Y-90964285D02*
X151370057Y-90916666D01*
X151274819Y-90583332D02*
X151274819Y-89916666D01*
X151274819Y-89916666D02*
X152274819Y-90345237D01*
X168789580Y-81666666D02*
X168837200Y-81714285D01*
X168837200Y-81714285D02*
X168884819Y-81857142D01*
X168884819Y-81857142D02*
X168884819Y-81952380D01*
X168884819Y-81952380D02*
X168837200Y-82095237D01*
X168837200Y-82095237D02*
X168741961Y-82190475D01*
X168741961Y-82190475D02*
X168646723Y-82238094D01*
X168646723Y-82238094D02*
X168456247Y-82285713D01*
X168456247Y-82285713D02*
X168313390Y-82285713D01*
X168313390Y-82285713D02*
X168122914Y-82238094D01*
X168122914Y-82238094D02*
X168027676Y-82190475D01*
X168027676Y-82190475D02*
X167932438Y-82095237D01*
X167932438Y-82095237D02*
X167884819Y-81952380D01*
X167884819Y-81952380D02*
X167884819Y-81857142D01*
X167884819Y-81857142D02*
X167932438Y-81714285D01*
X167932438Y-81714285D02*
X167980057Y-81666666D01*
X168313390Y-81095237D02*
X168265771Y-81190475D01*
X168265771Y-81190475D02*
X168218152Y-81238094D01*
X168218152Y-81238094D02*
X168122914Y-81285713D01*
X168122914Y-81285713D02*
X168075295Y-81285713D01*
X168075295Y-81285713D02*
X167980057Y-81238094D01*
X167980057Y-81238094D02*
X167932438Y-81190475D01*
X167932438Y-81190475D02*
X167884819Y-81095237D01*
X167884819Y-81095237D02*
X167884819Y-80904761D01*
X167884819Y-80904761D02*
X167932438Y-80809523D01*
X167932438Y-80809523D02*
X167980057Y-80761904D01*
X167980057Y-80761904D02*
X168075295Y-80714285D01*
X168075295Y-80714285D02*
X168122914Y-80714285D01*
X168122914Y-80714285D02*
X168218152Y-80761904D01*
X168218152Y-80761904D02*
X168265771Y-80809523D01*
X168265771Y-80809523D02*
X168313390Y-80904761D01*
X168313390Y-80904761D02*
X168313390Y-81095237D01*
X168313390Y-81095237D02*
X168361009Y-81190475D01*
X168361009Y-81190475D02*
X168408628Y-81238094D01*
X168408628Y-81238094D02*
X168503866Y-81285713D01*
X168503866Y-81285713D02*
X168694342Y-81285713D01*
X168694342Y-81285713D02*
X168789580Y-81238094D01*
X168789580Y-81238094D02*
X168837200Y-81190475D01*
X168837200Y-81190475D02*
X168884819Y-81095237D01*
X168884819Y-81095237D02*
X168884819Y-80904761D01*
X168884819Y-80904761D02*
X168837200Y-80809523D01*
X168837200Y-80809523D02*
X168789580Y-80761904D01*
X168789580Y-80761904D02*
X168694342Y-80714285D01*
X168694342Y-80714285D02*
X168503866Y-80714285D01*
X168503866Y-80714285D02*
X168408628Y-80761904D01*
X168408628Y-80761904D02*
X168361009Y-80809523D01*
X168361009Y-80809523D02*
X168313390Y-80904761D01*
X128488095Y-106854819D02*
X128488095Y-107664342D01*
X128488095Y-107664342D02*
X128535714Y-107759580D01*
X128535714Y-107759580D02*
X128583333Y-107807200D01*
X128583333Y-107807200D02*
X128678571Y-107854819D01*
X128678571Y-107854819D02*
X128869047Y-107854819D01*
X128869047Y-107854819D02*
X128964285Y-107807200D01*
X128964285Y-107807200D02*
X129011904Y-107759580D01*
X129011904Y-107759580D02*
X129059523Y-107664342D01*
X129059523Y-107664342D02*
X129059523Y-106854819D01*
X129440476Y-106854819D02*
X130059523Y-106854819D01*
X130059523Y-106854819D02*
X129726190Y-107235771D01*
X129726190Y-107235771D02*
X129869047Y-107235771D01*
X129869047Y-107235771D02*
X129964285Y-107283390D01*
X129964285Y-107283390D02*
X130011904Y-107331009D01*
X130011904Y-107331009D02*
X130059523Y-107426247D01*
X130059523Y-107426247D02*
X130059523Y-107664342D01*
X130059523Y-107664342D02*
X130011904Y-107759580D01*
X130011904Y-107759580D02*
X129964285Y-107807200D01*
X129964285Y-107807200D02*
X129869047Y-107854819D01*
X129869047Y-107854819D02*
X129583333Y-107854819D01*
X129583333Y-107854819D02*
X129488095Y-107807200D01*
X129488095Y-107807200D02*
X129440476Y-107759580D01*
X160024819Y-106142857D02*
X159548628Y-106476190D01*
X160024819Y-106714285D02*
X159024819Y-106714285D01*
X159024819Y-106714285D02*
X159024819Y-106333333D01*
X159024819Y-106333333D02*
X159072438Y-106238095D01*
X159072438Y-106238095D02*
X159120057Y-106190476D01*
X159120057Y-106190476D02*
X159215295Y-106142857D01*
X159215295Y-106142857D02*
X159358152Y-106142857D01*
X159358152Y-106142857D02*
X159453390Y-106190476D01*
X159453390Y-106190476D02*
X159501009Y-106238095D01*
X159501009Y-106238095D02*
X159548628Y-106333333D01*
X159548628Y-106333333D02*
X159548628Y-106714285D01*
X159120057Y-105761904D02*
X159072438Y-105714285D01*
X159072438Y-105714285D02*
X159024819Y-105619047D01*
X159024819Y-105619047D02*
X159024819Y-105380952D01*
X159024819Y-105380952D02*
X159072438Y-105285714D01*
X159072438Y-105285714D02*
X159120057Y-105238095D01*
X159120057Y-105238095D02*
X159215295Y-105190476D01*
X159215295Y-105190476D02*
X159310533Y-105190476D01*
X159310533Y-105190476D02*
X159453390Y-105238095D01*
X159453390Y-105238095D02*
X160024819Y-105809523D01*
X160024819Y-105809523D02*
X160024819Y-105190476D01*
X159120057Y-104809523D02*
X159072438Y-104761904D01*
X159072438Y-104761904D02*
X159024819Y-104666666D01*
X159024819Y-104666666D02*
X159024819Y-104428571D01*
X159024819Y-104428571D02*
X159072438Y-104333333D01*
X159072438Y-104333333D02*
X159120057Y-104285714D01*
X159120057Y-104285714D02*
X159215295Y-104238095D01*
X159215295Y-104238095D02*
X159310533Y-104238095D01*
X159310533Y-104238095D02*
X159453390Y-104285714D01*
X159453390Y-104285714D02*
X160024819Y-104857142D01*
X160024819Y-104857142D02*
X160024819Y-104238095D01*
X151857142Y-120274819D02*
X151523809Y-119798628D01*
X151285714Y-120274819D02*
X151285714Y-119274819D01*
X151285714Y-119274819D02*
X151666666Y-119274819D01*
X151666666Y-119274819D02*
X151761904Y-119322438D01*
X151761904Y-119322438D02*
X151809523Y-119370057D01*
X151809523Y-119370057D02*
X151857142Y-119465295D01*
X151857142Y-119465295D02*
X151857142Y-119608152D01*
X151857142Y-119608152D02*
X151809523Y-119703390D01*
X151809523Y-119703390D02*
X151761904Y-119751009D01*
X151761904Y-119751009D02*
X151666666Y-119798628D01*
X151666666Y-119798628D02*
X151285714Y-119798628D01*
X152809523Y-120274819D02*
X152238095Y-120274819D01*
X152523809Y-120274819D02*
X152523809Y-119274819D01*
X152523809Y-119274819D02*
X152428571Y-119417676D01*
X152428571Y-119417676D02*
X152333333Y-119512914D01*
X152333333Y-119512914D02*
X152238095Y-119560533D01*
X153380952Y-119703390D02*
X153285714Y-119655771D01*
X153285714Y-119655771D02*
X153238095Y-119608152D01*
X153238095Y-119608152D02*
X153190476Y-119512914D01*
X153190476Y-119512914D02*
X153190476Y-119465295D01*
X153190476Y-119465295D02*
X153238095Y-119370057D01*
X153238095Y-119370057D02*
X153285714Y-119322438D01*
X153285714Y-119322438D02*
X153380952Y-119274819D01*
X153380952Y-119274819D02*
X153571428Y-119274819D01*
X153571428Y-119274819D02*
X153666666Y-119322438D01*
X153666666Y-119322438D02*
X153714285Y-119370057D01*
X153714285Y-119370057D02*
X153761904Y-119465295D01*
X153761904Y-119465295D02*
X153761904Y-119512914D01*
X153761904Y-119512914D02*
X153714285Y-119608152D01*
X153714285Y-119608152D02*
X153666666Y-119655771D01*
X153666666Y-119655771D02*
X153571428Y-119703390D01*
X153571428Y-119703390D02*
X153380952Y-119703390D01*
X153380952Y-119703390D02*
X153285714Y-119751009D01*
X153285714Y-119751009D02*
X153238095Y-119798628D01*
X153238095Y-119798628D02*
X153190476Y-119893866D01*
X153190476Y-119893866D02*
X153190476Y-120084342D01*
X153190476Y-120084342D02*
X153238095Y-120179580D01*
X153238095Y-120179580D02*
X153285714Y-120227200D01*
X153285714Y-120227200D02*
X153380952Y-120274819D01*
X153380952Y-120274819D02*
X153571428Y-120274819D01*
X153571428Y-120274819D02*
X153666666Y-120227200D01*
X153666666Y-120227200D02*
X153714285Y-120179580D01*
X153714285Y-120179580D02*
X153761904Y-120084342D01*
X153761904Y-120084342D02*
X153761904Y-119893866D01*
X153761904Y-119893866D02*
X153714285Y-119798628D01*
X153714285Y-119798628D02*
X153666666Y-119751009D01*
X153666666Y-119751009D02*
X153571428Y-119703390D01*
X155357142Y-123024819D02*
X155023809Y-122548628D01*
X154785714Y-123024819D02*
X154785714Y-122024819D01*
X154785714Y-122024819D02*
X155166666Y-122024819D01*
X155166666Y-122024819D02*
X155261904Y-122072438D01*
X155261904Y-122072438D02*
X155309523Y-122120057D01*
X155309523Y-122120057D02*
X155357142Y-122215295D01*
X155357142Y-122215295D02*
X155357142Y-122358152D01*
X155357142Y-122358152D02*
X155309523Y-122453390D01*
X155309523Y-122453390D02*
X155261904Y-122501009D01*
X155261904Y-122501009D02*
X155166666Y-122548628D01*
X155166666Y-122548628D02*
X154785714Y-122548628D01*
X156309523Y-123024819D02*
X155738095Y-123024819D01*
X156023809Y-123024819D02*
X156023809Y-122024819D01*
X156023809Y-122024819D02*
X155928571Y-122167676D01*
X155928571Y-122167676D02*
X155833333Y-122262914D01*
X155833333Y-122262914D02*
X155738095Y-122310533D01*
X156785714Y-123024819D02*
X156976190Y-123024819D01*
X156976190Y-123024819D02*
X157071428Y-122977200D01*
X157071428Y-122977200D02*
X157119047Y-122929580D01*
X157119047Y-122929580D02*
X157214285Y-122786723D01*
X157214285Y-122786723D02*
X157261904Y-122596247D01*
X157261904Y-122596247D02*
X157261904Y-122215295D01*
X157261904Y-122215295D02*
X157214285Y-122120057D01*
X157214285Y-122120057D02*
X157166666Y-122072438D01*
X157166666Y-122072438D02*
X157071428Y-122024819D01*
X157071428Y-122024819D02*
X156880952Y-122024819D01*
X156880952Y-122024819D02*
X156785714Y-122072438D01*
X156785714Y-122072438D02*
X156738095Y-122120057D01*
X156738095Y-122120057D02*
X156690476Y-122215295D01*
X156690476Y-122215295D02*
X156690476Y-122453390D01*
X156690476Y-122453390D02*
X156738095Y-122548628D01*
X156738095Y-122548628D02*
X156785714Y-122596247D01*
X156785714Y-122596247D02*
X156880952Y-122643866D01*
X156880952Y-122643866D02*
X157071428Y-122643866D01*
X157071428Y-122643866D02*
X157166666Y-122596247D01*
X157166666Y-122596247D02*
X157214285Y-122548628D01*
X157214285Y-122548628D02*
X157261904Y-122453390D01*
X139416666Y-133504819D02*
X139416666Y-134219104D01*
X139416666Y-134219104D02*
X139369047Y-134361961D01*
X139369047Y-134361961D02*
X139273809Y-134457200D01*
X139273809Y-134457200D02*
X139130952Y-134504819D01*
X139130952Y-134504819D02*
X139035714Y-134504819D01*
X140369047Y-133504819D02*
X139892857Y-133504819D01*
X139892857Y-133504819D02*
X139845238Y-133981009D01*
X139845238Y-133981009D02*
X139892857Y-133933390D01*
X139892857Y-133933390D02*
X139988095Y-133885771D01*
X139988095Y-133885771D02*
X140226190Y-133885771D01*
X140226190Y-133885771D02*
X140321428Y-133933390D01*
X140321428Y-133933390D02*
X140369047Y-133981009D01*
X140369047Y-133981009D02*
X140416666Y-134076247D01*
X140416666Y-134076247D02*
X140416666Y-134314342D01*
X140416666Y-134314342D02*
X140369047Y-134409580D01*
X140369047Y-134409580D02*
X140321428Y-134457200D01*
X140321428Y-134457200D02*
X140226190Y-134504819D01*
X140226190Y-134504819D02*
X139988095Y-134504819D01*
X139988095Y-134504819D02*
X139892857Y-134457200D01*
X139892857Y-134457200D02*
X139845238Y-134409580D01*
X119107142Y-99384819D02*
X118773809Y-98908628D01*
X118535714Y-99384819D02*
X118535714Y-98384819D01*
X118535714Y-98384819D02*
X118916666Y-98384819D01*
X118916666Y-98384819D02*
X119011904Y-98432438D01*
X119011904Y-98432438D02*
X119059523Y-98480057D01*
X119059523Y-98480057D02*
X119107142Y-98575295D01*
X119107142Y-98575295D02*
X119107142Y-98718152D01*
X119107142Y-98718152D02*
X119059523Y-98813390D01*
X119059523Y-98813390D02*
X119011904Y-98861009D01*
X119011904Y-98861009D02*
X118916666Y-98908628D01*
X118916666Y-98908628D02*
X118535714Y-98908628D01*
X120059523Y-99384819D02*
X119488095Y-99384819D01*
X119773809Y-99384819D02*
X119773809Y-98384819D01*
X119773809Y-98384819D02*
X119678571Y-98527676D01*
X119678571Y-98527676D02*
X119583333Y-98622914D01*
X119583333Y-98622914D02*
X119488095Y-98670533D01*
X120678571Y-98384819D02*
X120773809Y-98384819D01*
X120773809Y-98384819D02*
X120869047Y-98432438D01*
X120869047Y-98432438D02*
X120916666Y-98480057D01*
X120916666Y-98480057D02*
X120964285Y-98575295D01*
X120964285Y-98575295D02*
X121011904Y-98765771D01*
X121011904Y-98765771D02*
X121011904Y-99003866D01*
X121011904Y-99003866D02*
X120964285Y-99194342D01*
X120964285Y-99194342D02*
X120916666Y-99289580D01*
X120916666Y-99289580D02*
X120869047Y-99337200D01*
X120869047Y-99337200D02*
X120773809Y-99384819D01*
X120773809Y-99384819D02*
X120678571Y-99384819D01*
X120678571Y-99384819D02*
X120583333Y-99337200D01*
X120583333Y-99337200D02*
X120535714Y-99289580D01*
X120535714Y-99289580D02*
X120488095Y-99194342D01*
X120488095Y-99194342D02*
X120440476Y-99003866D01*
X120440476Y-99003866D02*
X120440476Y-98765771D01*
X120440476Y-98765771D02*
X120488095Y-98575295D01*
X120488095Y-98575295D02*
X120535714Y-98480057D01*
X120535714Y-98480057D02*
X120583333Y-98432438D01*
X120583333Y-98432438D02*
X120678571Y-98384819D01*
X140884819Y-86916666D02*
X140408628Y-87249999D01*
X140884819Y-87488094D02*
X139884819Y-87488094D01*
X139884819Y-87488094D02*
X139884819Y-87107142D01*
X139884819Y-87107142D02*
X139932438Y-87011904D01*
X139932438Y-87011904D02*
X139980057Y-86964285D01*
X139980057Y-86964285D02*
X140075295Y-86916666D01*
X140075295Y-86916666D02*
X140218152Y-86916666D01*
X140218152Y-86916666D02*
X140313390Y-86964285D01*
X140313390Y-86964285D02*
X140361009Y-87011904D01*
X140361009Y-87011904D02*
X140408628Y-87107142D01*
X140408628Y-87107142D02*
X140408628Y-87488094D01*
X139884819Y-86011904D02*
X139884819Y-86488094D01*
X139884819Y-86488094D02*
X140361009Y-86535713D01*
X140361009Y-86535713D02*
X140313390Y-86488094D01*
X140313390Y-86488094D02*
X140265771Y-86392856D01*
X140265771Y-86392856D02*
X140265771Y-86154761D01*
X140265771Y-86154761D02*
X140313390Y-86059523D01*
X140313390Y-86059523D02*
X140361009Y-86011904D01*
X140361009Y-86011904D02*
X140456247Y-85964285D01*
X140456247Y-85964285D02*
X140694342Y-85964285D01*
X140694342Y-85964285D02*
X140789580Y-86011904D01*
X140789580Y-86011904D02*
X140837200Y-86059523D01*
X140837200Y-86059523D02*
X140884819Y-86154761D01*
X140884819Y-86154761D02*
X140884819Y-86392856D01*
X140884819Y-86392856D02*
X140837200Y-86488094D01*
X140837200Y-86488094D02*
X140789580Y-86535713D01*
X167289580Y-86916666D02*
X167337200Y-86964285D01*
X167337200Y-86964285D02*
X167384819Y-87107142D01*
X167384819Y-87107142D02*
X167384819Y-87202380D01*
X167384819Y-87202380D02*
X167337200Y-87345237D01*
X167337200Y-87345237D02*
X167241961Y-87440475D01*
X167241961Y-87440475D02*
X167146723Y-87488094D01*
X167146723Y-87488094D02*
X166956247Y-87535713D01*
X166956247Y-87535713D02*
X166813390Y-87535713D01*
X166813390Y-87535713D02*
X166622914Y-87488094D01*
X166622914Y-87488094D02*
X166527676Y-87440475D01*
X166527676Y-87440475D02*
X166432438Y-87345237D01*
X166432438Y-87345237D02*
X166384819Y-87202380D01*
X166384819Y-87202380D02*
X166384819Y-87107142D01*
X166384819Y-87107142D02*
X166432438Y-86964285D01*
X166432438Y-86964285D02*
X166480057Y-86916666D01*
X167384819Y-86440475D02*
X167384819Y-86249999D01*
X167384819Y-86249999D02*
X167337200Y-86154761D01*
X167337200Y-86154761D02*
X167289580Y-86107142D01*
X167289580Y-86107142D02*
X167146723Y-86011904D01*
X167146723Y-86011904D02*
X166956247Y-85964285D01*
X166956247Y-85964285D02*
X166575295Y-85964285D01*
X166575295Y-85964285D02*
X166480057Y-86011904D01*
X166480057Y-86011904D02*
X166432438Y-86059523D01*
X166432438Y-86059523D02*
X166384819Y-86154761D01*
X166384819Y-86154761D02*
X166384819Y-86345237D01*
X166384819Y-86345237D02*
X166432438Y-86440475D01*
X166432438Y-86440475D02*
X166480057Y-86488094D01*
X166480057Y-86488094D02*
X166575295Y-86535713D01*
X166575295Y-86535713D02*
X166813390Y-86535713D01*
X166813390Y-86535713D02*
X166908628Y-86488094D01*
X166908628Y-86488094D02*
X166956247Y-86440475D01*
X166956247Y-86440475D02*
X167003866Y-86345237D01*
X167003866Y-86345237D02*
X167003866Y-86154761D01*
X167003866Y-86154761D02*
X166956247Y-86059523D01*
X166956247Y-86059523D02*
X166908628Y-86011904D01*
X166908628Y-86011904D02*
X166813390Y-85964285D01*
X127916666Y-125754819D02*
X127916666Y-126469104D01*
X127916666Y-126469104D02*
X127869047Y-126611961D01*
X127869047Y-126611961D02*
X127773809Y-126707200D01*
X127773809Y-126707200D02*
X127630952Y-126754819D01*
X127630952Y-126754819D02*
X127535714Y-126754819D01*
X128821428Y-125754819D02*
X128630952Y-125754819D01*
X128630952Y-125754819D02*
X128535714Y-125802438D01*
X128535714Y-125802438D02*
X128488095Y-125850057D01*
X128488095Y-125850057D02*
X128392857Y-125992914D01*
X128392857Y-125992914D02*
X128345238Y-126183390D01*
X128345238Y-126183390D02*
X128345238Y-126564342D01*
X128345238Y-126564342D02*
X128392857Y-126659580D01*
X128392857Y-126659580D02*
X128440476Y-126707200D01*
X128440476Y-126707200D02*
X128535714Y-126754819D01*
X128535714Y-126754819D02*
X128726190Y-126754819D01*
X128726190Y-126754819D02*
X128821428Y-126707200D01*
X128821428Y-126707200D02*
X128869047Y-126659580D01*
X128869047Y-126659580D02*
X128916666Y-126564342D01*
X128916666Y-126564342D02*
X128916666Y-126326247D01*
X128916666Y-126326247D02*
X128869047Y-126231009D01*
X128869047Y-126231009D02*
X128821428Y-126183390D01*
X128821428Y-126183390D02*
X128726190Y-126135771D01*
X128726190Y-126135771D02*
X128535714Y-126135771D01*
X128535714Y-126135771D02*
X128440476Y-126183390D01*
X128440476Y-126183390D02*
X128392857Y-126231009D01*
X128392857Y-126231009D02*
X128345238Y-126326247D01*
X127750000Y-115931009D02*
X128083333Y-115931009D01*
X128226190Y-116454819D02*
X127750000Y-116454819D01*
X127750000Y-116454819D02*
X127750000Y-115454819D01*
X127750000Y-115454819D02*
X128226190Y-115454819D01*
X128654762Y-116454819D02*
X128654762Y-115454819D01*
X128654762Y-115454819D02*
X129226190Y-116454819D01*
X129226190Y-116454819D02*
X129226190Y-115454819D01*
X129654762Y-116169104D02*
X130130952Y-116169104D01*
X129559524Y-116454819D02*
X129892857Y-115454819D01*
X129892857Y-115454819D02*
X130226190Y-116454819D01*
X130892857Y-115931009D02*
X131035714Y-115978628D01*
X131035714Y-115978628D02*
X131083333Y-116026247D01*
X131083333Y-116026247D02*
X131130952Y-116121485D01*
X131130952Y-116121485D02*
X131130952Y-116264342D01*
X131130952Y-116264342D02*
X131083333Y-116359580D01*
X131083333Y-116359580D02*
X131035714Y-116407200D01*
X131035714Y-116407200D02*
X130940476Y-116454819D01*
X130940476Y-116454819D02*
X130559524Y-116454819D01*
X130559524Y-116454819D02*
X130559524Y-115454819D01*
X130559524Y-115454819D02*
X130892857Y-115454819D01*
X130892857Y-115454819D02*
X130988095Y-115502438D01*
X130988095Y-115502438D02*
X131035714Y-115550057D01*
X131035714Y-115550057D02*
X131083333Y-115645295D01*
X131083333Y-115645295D02*
X131083333Y-115740533D01*
X131083333Y-115740533D02*
X131035714Y-115835771D01*
X131035714Y-115835771D02*
X130988095Y-115883390D01*
X130988095Y-115883390D02*
X130892857Y-115931009D01*
X130892857Y-115931009D02*
X130559524Y-115931009D01*
X132035714Y-116454819D02*
X131559524Y-116454819D01*
X131559524Y-116454819D02*
X131559524Y-115454819D01*
X132369048Y-115931009D02*
X132702381Y-115931009D01*
X132845238Y-116454819D02*
X132369048Y-116454819D01*
X132369048Y-116454819D02*
X132369048Y-115454819D01*
X132369048Y-115454819D02*
X132845238Y-115454819D01*
X133797619Y-116454819D02*
X133226191Y-116454819D01*
X133511905Y-116454819D02*
X133511905Y-115454819D01*
X133511905Y-115454819D02*
X133416667Y-115597676D01*
X133416667Y-115597676D02*
X133321429Y-115692914D01*
X133321429Y-115692914D02*
X133226191Y-115740533D01*
X147857142Y-94884819D02*
X147523809Y-94408628D01*
X147285714Y-94884819D02*
X147285714Y-93884819D01*
X147285714Y-93884819D02*
X147666666Y-93884819D01*
X147666666Y-93884819D02*
X147761904Y-93932438D01*
X147761904Y-93932438D02*
X147809523Y-93980057D01*
X147809523Y-93980057D02*
X147857142Y-94075295D01*
X147857142Y-94075295D02*
X147857142Y-94218152D01*
X147857142Y-94218152D02*
X147809523Y-94313390D01*
X147809523Y-94313390D02*
X147761904Y-94361009D01*
X147761904Y-94361009D02*
X147666666Y-94408628D01*
X147666666Y-94408628D02*
X147285714Y-94408628D01*
X148238095Y-93980057D02*
X148285714Y-93932438D01*
X148285714Y-93932438D02*
X148380952Y-93884819D01*
X148380952Y-93884819D02*
X148619047Y-93884819D01*
X148619047Y-93884819D02*
X148714285Y-93932438D01*
X148714285Y-93932438D02*
X148761904Y-93980057D01*
X148761904Y-93980057D02*
X148809523Y-94075295D01*
X148809523Y-94075295D02*
X148809523Y-94170533D01*
X148809523Y-94170533D02*
X148761904Y-94313390D01*
X148761904Y-94313390D02*
X148190476Y-94884819D01*
X148190476Y-94884819D02*
X148809523Y-94884819D01*
X149761904Y-94884819D02*
X149190476Y-94884819D01*
X149476190Y-94884819D02*
X149476190Y-93884819D01*
X149476190Y-93884819D02*
X149380952Y-94027676D01*
X149380952Y-94027676D02*
X149285714Y-94122914D01*
X149285714Y-94122914D02*
X149190476Y-94170533D01*
X141384819Y-118392857D02*
X140908628Y-118726190D01*
X141384819Y-118964285D02*
X140384819Y-118964285D01*
X140384819Y-118964285D02*
X140384819Y-118583333D01*
X140384819Y-118583333D02*
X140432438Y-118488095D01*
X140432438Y-118488095D02*
X140480057Y-118440476D01*
X140480057Y-118440476D02*
X140575295Y-118392857D01*
X140575295Y-118392857D02*
X140718152Y-118392857D01*
X140718152Y-118392857D02*
X140813390Y-118440476D01*
X140813390Y-118440476D02*
X140861009Y-118488095D01*
X140861009Y-118488095D02*
X140908628Y-118583333D01*
X140908628Y-118583333D02*
X140908628Y-118964285D01*
X141384819Y-117440476D02*
X141384819Y-118011904D01*
X141384819Y-117726190D02*
X140384819Y-117726190D01*
X140384819Y-117726190D02*
X140527676Y-117821428D01*
X140527676Y-117821428D02*
X140622914Y-117916666D01*
X140622914Y-117916666D02*
X140670533Y-118011904D01*
X140384819Y-117107142D02*
X140384819Y-116440476D01*
X140384819Y-116440476D02*
X141384819Y-116869047D01*
X140357142Y-123024819D02*
X140023809Y-122548628D01*
X139785714Y-123024819D02*
X139785714Y-122024819D01*
X139785714Y-122024819D02*
X140166666Y-122024819D01*
X140166666Y-122024819D02*
X140261904Y-122072438D01*
X140261904Y-122072438D02*
X140309523Y-122120057D01*
X140309523Y-122120057D02*
X140357142Y-122215295D01*
X140357142Y-122215295D02*
X140357142Y-122358152D01*
X140357142Y-122358152D02*
X140309523Y-122453390D01*
X140309523Y-122453390D02*
X140261904Y-122501009D01*
X140261904Y-122501009D02*
X140166666Y-122548628D01*
X140166666Y-122548628D02*
X139785714Y-122548628D01*
X141309523Y-123024819D02*
X140738095Y-123024819D01*
X141023809Y-123024819D02*
X141023809Y-122024819D01*
X141023809Y-122024819D02*
X140928571Y-122167676D01*
X140928571Y-122167676D02*
X140833333Y-122262914D01*
X140833333Y-122262914D02*
X140738095Y-122310533D01*
X141642857Y-122024819D02*
X142261904Y-122024819D01*
X142261904Y-122024819D02*
X141928571Y-122405771D01*
X141928571Y-122405771D02*
X142071428Y-122405771D01*
X142071428Y-122405771D02*
X142166666Y-122453390D01*
X142166666Y-122453390D02*
X142214285Y-122501009D01*
X142214285Y-122501009D02*
X142261904Y-122596247D01*
X142261904Y-122596247D02*
X142261904Y-122834342D01*
X142261904Y-122834342D02*
X142214285Y-122929580D01*
X142214285Y-122929580D02*
X142166666Y-122977200D01*
X142166666Y-122977200D02*
X142071428Y-123024819D01*
X142071428Y-123024819D02*
X141785714Y-123024819D01*
X141785714Y-123024819D02*
X141690476Y-122977200D01*
X141690476Y-122977200D02*
X141642857Y-122929580D01*
%TO.C,R15*%
D15*
X146977500Y-90012742D02*
X146977500Y-90487258D01*
X148022500Y-90012742D02*
X148022500Y-90487258D01*
%TO.C,Q1*%
X134490000Y-117940000D02*
X136010000Y-117940000D01*
X134490000Y-118940000D02*
X134490000Y-117940000D01*
X134490000Y-121060000D02*
X134490000Y-120060000D01*
X136010000Y-117940000D02*
X136010000Y-117990000D01*
X136010000Y-119110000D02*
X136010000Y-119890000D01*
X136010000Y-121010000D02*
X136010000Y-121060000D01*
X136010000Y-121060000D02*
X134490000Y-121060000D01*
X136550000Y-119880000D02*
X136310000Y-119550000D01*
X136790000Y-119550000D01*
X136550000Y-119880000D01*
G36*
X136550000Y-119880000D02*
G01*
X136310000Y-119550000D01*
X136790000Y-119550000D01*
X136550000Y-119880000D01*
G37*
D16*
%TO.C,G\u002A\u002A\u002A*%
G36*
X148201304Y-117219669D02*
G01*
X148223654Y-117228241D01*
X148242794Y-117242948D01*
X148255110Y-117261968D01*
X148260600Y-117283430D01*
X148259261Y-117305461D01*
X148251092Y-117326190D01*
X148236091Y-117343744D01*
X148223784Y-117351988D01*
X148202132Y-117359210D01*
X148178909Y-117359978D01*
X148157561Y-117354379D01*
X148149989Y-117350153D01*
X148130929Y-117334154D01*
X148120010Y-117316897D01*
X148116179Y-117296548D01*
X148116190Y-117291229D01*
X148120930Y-117265482D01*
X148132953Y-117244352D01*
X148151508Y-117229048D01*
X148156503Y-117226533D01*
X148179808Y-117219092D01*
X148201304Y-117219669D01*
G37*
G36*
X146362227Y-116606653D02*
G01*
X146416372Y-116607113D01*
X146462175Y-116607567D01*
X146500502Y-116608047D01*
X146532221Y-116608589D01*
X146558199Y-116609228D01*
X146579302Y-116609998D01*
X146596399Y-116610935D01*
X146610355Y-116612072D01*
X146622038Y-116613444D01*
X146632315Y-116615087D01*
X146642053Y-116617034D01*
X146646573Y-116618038D01*
X146677511Y-116625511D01*
X146703577Y-116633046D01*
X146728131Y-116641827D01*
X146754538Y-116653033D01*
X146780112Y-116664946D01*
X146841716Y-116699374D01*
X146898031Y-116740998D01*
X146948550Y-116789146D01*
X146992769Y-116843146D01*
X147030181Y-116902324D01*
X147060282Y-116966008D01*
X147082566Y-117033526D01*
X147093016Y-117081397D01*
X147097474Y-117116624D01*
X147099763Y-117156598D01*
X147099911Y-117198255D01*
X147097943Y-117238534D01*
X147093887Y-117274371D01*
X147091197Y-117289140D01*
X147072951Y-117355923D01*
X147047450Y-117420009D01*
X147015403Y-117480122D01*
X146977519Y-117534991D01*
X146934506Y-117583340D01*
X146919852Y-117597156D01*
X146876391Y-117632482D01*
X146828211Y-117664880D01*
X146777859Y-117692867D01*
X146727878Y-117714963D01*
X146702341Y-117723799D01*
X146684668Y-117729120D01*
X146668239Y-117733634D01*
X146652113Y-117737416D01*
X146635349Y-117740539D01*
X146617006Y-117743078D01*
X146596143Y-117745106D01*
X146571818Y-117746697D01*
X146543092Y-117747924D01*
X146509023Y-117748862D01*
X146468669Y-117749584D01*
X146421091Y-117750164D01*
X146365346Y-117750675D01*
X146358751Y-117750730D01*
X146313310Y-117751037D01*
X146270670Y-117751197D01*
X146231716Y-117751215D01*
X146197333Y-117751096D01*
X146168404Y-117750848D01*
X146145816Y-117750474D01*
X146130451Y-117749982D01*
X146123195Y-117749376D01*
X146122756Y-117749212D01*
X146122324Y-117744262D01*
X146121909Y-117730661D01*
X146121512Y-117708967D01*
X146121138Y-117679738D01*
X146120789Y-117643533D01*
X146120470Y-117600910D01*
X146120182Y-117552427D01*
X146119931Y-117498643D01*
X146119718Y-117440115D01*
X146119548Y-117377402D01*
X146119424Y-117311063D01*
X146119348Y-117241655D01*
X146119325Y-117175230D01*
X146119325Y-116604679D01*
X146362227Y-116606653D01*
G37*
G36*
X148144228Y-116618070D02*
G01*
X148153507Y-116628091D01*
X148166958Y-116643740D01*
X148183894Y-116664156D01*
X148203624Y-116688480D01*
X148225462Y-116715849D01*
X148248717Y-116745404D01*
X148272703Y-116776283D01*
X148296730Y-116807626D01*
X148320109Y-116838573D01*
X148335022Y-116858592D01*
X148394990Y-116942229D01*
X148447498Y-117021047D01*
X148492738Y-117095351D01*
X148530903Y-117165449D01*
X148545866Y-117195801D01*
X148570117Y-117251035D01*
X148587740Y-117301679D01*
X148598963Y-117349293D01*
X148604011Y-117395437D01*
X148603112Y-117441670D01*
X148596494Y-117489552D01*
X148591826Y-117511557D01*
X148574443Y-117566546D01*
X148548794Y-117619199D01*
X148515726Y-117668530D01*
X148476083Y-117713556D01*
X148430709Y-117753289D01*
X148380450Y-117786746D01*
X148337363Y-117808299D01*
X148301273Y-117822642D01*
X148267684Y-117833042D01*
X148233714Y-117840096D01*
X148196478Y-117844399D01*
X148153093Y-117846548D01*
X148152338Y-117846568D01*
X148110149Y-117846891D01*
X148076262Y-117845396D01*
X148049944Y-117842049D01*
X148049632Y-117841990D01*
X148032293Y-117838530D01*
X148018037Y-117835383D01*
X148009719Y-117833183D01*
X148009341Y-117833046D01*
X148007326Y-117831013D01*
X148005750Y-117825996D01*
X148004562Y-117817030D01*
X148003713Y-117803148D01*
X148003152Y-117783384D01*
X148002829Y-117756774D01*
X148002695Y-117722350D01*
X148002682Y-117704269D01*
X148002682Y-117578046D01*
X148065510Y-117511874D01*
X148089602Y-117486873D01*
X148108298Y-117468358D01*
X148122176Y-117455810D01*
X148131815Y-117448708D01*
X148137792Y-117446529D01*
X148138036Y-117446543D01*
X148147559Y-117447449D01*
X148162756Y-117448977D01*
X148178342Y-117450589D01*
X148214309Y-117450109D01*
X148248251Y-117441672D01*
X148279197Y-117426294D01*
X148306174Y-117404994D01*
X148328209Y-117378790D01*
X148344329Y-117348700D01*
X148353562Y-117315742D01*
X148354936Y-117280933D01*
X148353215Y-117267549D01*
X148343597Y-117232046D01*
X148327616Y-117201753D01*
X148306551Y-117176714D01*
X148276308Y-117152512D01*
X148242887Y-117136388D01*
X148207514Y-117128331D01*
X148171420Y-117128334D01*
X148135833Y-117136387D01*
X148101981Y-117152481D01*
X148071094Y-117176607D01*
X148069224Y-117178447D01*
X148048058Y-117202304D01*
X148034169Y-117225490D01*
X148026375Y-117250857D01*
X148023495Y-117281258D01*
X148023404Y-117289140D01*
X148023781Y-117310652D01*
X148025343Y-117326299D01*
X148028732Y-117339406D01*
X148034591Y-117353303D01*
X148036618Y-117357494D01*
X148049832Y-117384405D01*
X148029477Y-117405844D01*
X148019387Y-117416455D01*
X148004504Y-117432086D01*
X147986392Y-117451096D01*
X147966615Y-117471842D01*
X147952947Y-117486172D01*
X147896772Y-117545061D01*
X147896772Y-117664665D01*
X147896772Y-117784270D01*
X147877202Y-117772056D01*
X147827798Y-117735897D01*
X147783863Y-117692884D01*
X147746236Y-117644121D01*
X147715759Y-117590711D01*
X147693272Y-117533759D01*
X147691628Y-117528361D01*
X147682212Y-117486441D01*
X147677039Y-117440403D01*
X147676283Y-117393838D01*
X147680116Y-117350338D01*
X147682430Y-117337210D01*
X147691962Y-117299102D01*
X147705758Y-117258467D01*
X147724143Y-117214655D01*
X147747443Y-117167015D01*
X147775984Y-117114897D01*
X147810093Y-117057648D01*
X147850095Y-116994620D01*
X147866850Y-116969107D01*
X147889502Y-116935490D01*
X147914069Y-116900083D01*
X147939952Y-116863663D01*
X147966554Y-116827007D01*
X147993277Y-116790890D01*
X148019524Y-116756088D01*
X148044697Y-116723380D01*
X148068198Y-116693540D01*
X148089429Y-116667345D01*
X148107793Y-116645571D01*
X148122693Y-116628995D01*
X148133530Y-116618393D01*
X148139707Y-116614542D01*
X148139810Y-116614539D01*
X148144228Y-116618070D01*
G37*
G36*
X153500797Y-117249999D02*
G01*
X153500797Y-118916932D01*
X148499999Y-118916932D01*
X143499202Y-118916932D01*
X143499202Y-117249999D01*
X143499202Y-117178625D01*
X145932831Y-117178625D01*
X145932831Y-117869343D01*
X145944004Y-117888850D01*
X145961959Y-117911340D01*
X145985816Y-117927982D01*
X146006516Y-117935653D01*
X146015108Y-117936604D01*
X146031897Y-117937434D01*
X146055873Y-117938145D01*
X146086024Y-117938737D01*
X146121339Y-117939210D01*
X146160808Y-117939563D01*
X146203417Y-117939797D01*
X146248158Y-117939913D01*
X146294018Y-117939910D01*
X146339986Y-117939789D01*
X146385051Y-117939550D01*
X146428202Y-117939192D01*
X146468428Y-117938717D01*
X146504717Y-117938124D01*
X146536059Y-117937414D01*
X146561442Y-117936586D01*
X146579855Y-117935642D01*
X146581126Y-117935552D01*
X146629723Y-117931026D01*
X146672725Y-117924686D01*
X146713674Y-117915865D01*
X146756112Y-117903897D01*
X146766297Y-117900680D01*
X146845310Y-117870652D01*
X146919091Y-117833130D01*
X146987366Y-117788384D01*
X147049862Y-117736682D01*
X147106304Y-117678291D01*
X147156418Y-117613481D01*
X147199930Y-117542519D01*
X147236565Y-117465674D01*
X147252295Y-117424917D01*
X147262213Y-117395575D01*
X147506500Y-117395575D01*
X147506605Y-117441102D01*
X147509572Y-117473331D01*
X147523627Y-117547704D01*
X147545876Y-117617875D01*
X147576344Y-117683899D01*
X147615058Y-117745829D01*
X147662043Y-117803720D01*
X147675975Y-117818484D01*
X147732884Y-117870882D01*
X147793779Y-117915075D01*
X147858993Y-117951241D01*
X147928858Y-117979554D01*
X148003707Y-118000191D01*
X148028741Y-118005198D01*
X148067125Y-118010198D01*
X148111362Y-118012639D01*
X148158475Y-118012578D01*
X148205487Y-118010073D01*
X148249422Y-118005181D01*
X148276514Y-118000417D01*
X148350377Y-117980283D01*
X148420448Y-117951795D01*
X148486390Y-117915136D01*
X148547872Y-117870487D01*
X148596808Y-117825954D01*
X148647062Y-117769463D01*
X148688716Y-117709692D01*
X148721801Y-117646568D01*
X148746349Y-117580021D01*
X148762025Y-117511584D01*
X149001948Y-117511584D01*
X149002011Y-117586148D01*
X149002216Y-117651587D01*
X149002562Y-117707985D01*
X149003052Y-117755425D01*
X149003686Y-117793992D01*
X149004466Y-117823768D01*
X149005392Y-117844837D01*
X149006467Y-117857283D01*
X149006932Y-117859841D01*
X149017841Y-117885894D01*
X149035186Y-117906685D01*
X149057371Y-117921459D01*
X149082802Y-117929465D01*
X149109885Y-117929948D01*
X149137024Y-117922155D01*
X149137947Y-117921727D01*
X149161226Y-117906323D01*
X149179476Y-117885303D01*
X149190008Y-117862986D01*
X149191141Y-117855532D01*
X149192139Y-117841015D01*
X149193008Y-117819167D01*
X149193750Y-117789723D01*
X149194372Y-117752416D01*
X149194876Y-117706982D01*
X149195268Y-117653153D01*
X149195551Y-117590664D01*
X149195731Y-117519249D01*
X149195739Y-117514432D01*
X149195858Y-117446811D01*
X149196018Y-117387713D01*
X149196267Y-117336453D01*
X149196657Y-117292343D01*
X149197236Y-117254697D01*
X149197314Y-117251659D01*
X149987859Y-117251659D01*
X149987910Y-117301811D01*
X149988174Y-117345082D01*
X149988686Y-117382247D01*
X149989481Y-117414083D01*
X149990596Y-117441365D01*
X149992066Y-117464870D01*
X149993926Y-117485372D01*
X149996211Y-117503649D01*
X149998956Y-117520475D01*
X150002199Y-117536627D01*
X150005972Y-117552881D01*
X150008041Y-117561175D01*
X150028728Y-117624708D01*
X150057399Y-117684942D01*
X150093349Y-117740987D01*
X150135875Y-117791957D01*
X150184270Y-117836964D01*
X150237831Y-117875120D01*
X150272842Y-117894704D01*
X150333792Y-117920596D01*
X150398350Y-117938991D01*
X150465217Y-117949888D01*
X150533089Y-117953282D01*
X150600666Y-117949170D01*
X150666646Y-117937549D01*
X150729727Y-117918417D01*
X150780658Y-117895956D01*
X150802061Y-117884185D01*
X150823907Y-117870903D01*
X150842454Y-117858424D01*
X150847427Y-117854709D01*
X150873766Y-117834243D01*
X150875080Y-117883529D01*
X150873685Y-117929791D01*
X150866425Y-117972649D01*
X150852606Y-118015206D01*
X150838585Y-118046627D01*
X150815335Y-118085080D01*
X150785052Y-118121277D01*
X150749859Y-118153098D01*
X150711878Y-118178422D01*
X150701087Y-118184033D01*
X150668961Y-118198457D01*
X150639593Y-118208558D01*
X150609681Y-118215144D01*
X150575924Y-118219024D01*
X150552791Y-118220375D01*
X150512501Y-118221111D01*
X150476330Y-118219237D01*
X150442640Y-118214249D01*
X150409795Y-118205643D01*
X150376159Y-118192916D01*
X150340096Y-118175564D01*
X150299969Y-118153084D01*
X150265036Y-118131816D01*
X150239257Y-118120712D01*
X150212042Y-118117620D01*
X150185262Y-118122093D01*
X150160789Y-118133686D01*
X150140497Y-118151953D01*
X150132570Y-118163336D01*
X150121841Y-118185381D01*
X150117826Y-118205256D01*
X150120035Y-118226524D01*
X150122512Y-118236089D01*
X150130551Y-118255152D01*
X150143730Y-118273316D01*
X150162858Y-118291266D01*
X150188745Y-118309687D01*
X150222201Y-118329265D01*
X150249096Y-118343292D01*
X150303139Y-118367690D01*
X150356213Y-118385573D01*
X150411229Y-118397721D01*
X150471099Y-118404911D01*
X150482360Y-118405723D01*
X150525829Y-118407695D01*
X150564362Y-118407281D01*
X150601963Y-118404300D01*
X150642637Y-118398574D01*
X150643072Y-118398502D01*
X150709404Y-118383050D01*
X150772023Y-118359290D01*
X150830437Y-118327480D01*
X150884155Y-118287876D01*
X150921558Y-118252701D01*
X150961668Y-118205971D01*
X150994934Y-118156047D01*
X151022044Y-118101599D01*
X151043689Y-118041298D01*
X151056509Y-117992493D01*
X151058045Y-117985679D01*
X151059421Y-117979077D01*
X151060646Y-117972162D01*
X151061732Y-117964409D01*
X151062688Y-117955293D01*
X151063526Y-117944290D01*
X151064255Y-117930874D01*
X151064885Y-117914521D01*
X151065428Y-117894705D01*
X151065893Y-117870903D01*
X151066291Y-117842588D01*
X151066632Y-117809237D01*
X151066927Y-117770323D01*
X151067185Y-117725323D01*
X151067417Y-117673712D01*
X151067634Y-117614964D01*
X151067846Y-117548555D01*
X151068062Y-117473960D01*
X151068282Y-117395050D01*
X151068521Y-117310660D01*
X151068733Y-117234980D01*
X151068899Y-117167511D01*
X151069000Y-117107754D01*
X151069017Y-117055210D01*
X151068933Y-117009378D01*
X151068728Y-116969761D01*
X151068384Y-116935858D01*
X151067881Y-116907171D01*
X151067202Y-116883200D01*
X151066328Y-116863446D01*
X151065239Y-116847409D01*
X151063918Y-116834591D01*
X151062346Y-116824492D01*
X151060503Y-116816612D01*
X151058372Y-116810453D01*
X151055933Y-116805516D01*
X151053169Y-116801300D01*
X151050059Y-116797308D01*
X151046587Y-116793038D01*
X151045731Y-116791960D01*
X151030913Y-116778672D01*
X151010419Y-116767537D01*
X150987780Y-116760446D01*
X150986375Y-116760180D01*
X150962776Y-116760247D01*
X150938444Y-116767722D01*
X150915628Y-116781299D01*
X150896574Y-116799671D01*
X150884402Y-116819452D01*
X150883178Y-116824137D01*
X150882085Y-116832632D01*
X150881109Y-116845480D01*
X150880236Y-116863226D01*
X150879453Y-116886413D01*
X150878748Y-116915587D01*
X150878106Y-116951291D01*
X150877514Y-116994070D01*
X150876959Y-117044467D01*
X150876428Y-117103027D01*
X150875947Y-117164811D01*
X150875481Y-117227997D01*
X150875058Y-117282662D01*
X150874653Y-117329493D01*
X150874240Y-117369177D01*
X150873795Y-117402402D01*
X150873294Y-117429855D01*
X150872712Y-117452225D01*
X150872022Y-117470198D01*
X150871202Y-117484462D01*
X150870226Y-117495705D01*
X150869070Y-117504615D01*
X150867707Y-117511878D01*
X150866115Y-117518183D01*
X150864267Y-117524217D01*
X150862829Y-117528589D01*
X150848075Y-117567676D01*
X150831165Y-117600687D01*
X150810163Y-117630751D01*
X150783134Y-117660998D01*
X150777349Y-117666833D01*
X150745490Y-117695982D01*
X150714417Y-117718458D01*
X150681230Y-117736025D01*
X150643029Y-117750449D01*
X150636620Y-117752471D01*
X150621227Y-117756826D01*
X150606588Y-117759837D01*
X150590418Y-117761740D01*
X150570434Y-117762774D01*
X150544353Y-117763174D01*
X150533012Y-117763208D01*
X150496513Y-117762661D01*
X150466620Y-117760585D01*
X150440787Y-117756454D01*
X150416463Y-117749740D01*
X150391103Y-117739917D01*
X150367240Y-117728928D01*
X150320181Y-117701297D01*
X150279257Y-117666801D01*
X150244486Y-117625466D01*
X150215891Y-117577317D01*
X150194026Y-117523984D01*
X150183234Y-117491750D01*
X150180839Y-117160206D01*
X150180385Y-117095806D01*
X150179982Y-117039955D01*
X150179577Y-116991996D01*
X150179113Y-116951269D01*
X150178538Y-116917116D01*
X150177797Y-116888876D01*
X150176835Y-116865892D01*
X150175598Y-116847505D01*
X150174032Y-116833054D01*
X150172082Y-116821883D01*
X150169694Y-116813331D01*
X150166813Y-116806740D01*
X150163385Y-116801450D01*
X150159357Y-116796803D01*
X150154672Y-116792140D01*
X150150091Y-116787629D01*
X150127811Y-116771145D01*
X150102571Y-116762351D01*
X150076141Y-116761031D01*
X150050285Y-116766969D01*
X150026772Y-116779949D01*
X150007367Y-116799756D01*
X150003503Y-116805524D01*
X149989647Y-116827930D01*
X149988256Y-117127607D01*
X149987986Y-117193849D01*
X149987859Y-117251659D01*
X149197314Y-117251659D01*
X149198057Y-117222830D01*
X149199168Y-117196055D01*
X149200619Y-117173686D01*
X149202461Y-117155036D01*
X149204744Y-117139419D01*
X149207518Y-117126150D01*
X149210833Y-117114541D01*
X149214739Y-117103907D01*
X149219286Y-117093561D01*
X149224525Y-117082818D01*
X149227711Y-117076505D01*
X149252968Y-117036542D01*
X149284923Y-117002690D01*
X149323071Y-116975325D01*
X149366907Y-116954822D01*
X149407304Y-116943273D01*
X149443796Y-116938407D01*
X149485525Y-116937745D01*
X149529617Y-116941133D01*
X149573198Y-116948413D01*
X149593636Y-116953392D01*
X149626848Y-116961751D01*
X149653175Y-116966599D01*
X149674215Y-116968008D01*
X149691568Y-116966050D01*
X149706832Y-116960798D01*
X149711058Y-116958689D01*
X149733304Y-116942224D01*
X149749237Y-116920908D01*
X149758687Y-116896456D01*
X149761485Y-116870582D01*
X149757462Y-116845002D01*
X149746446Y-116821431D01*
X149728270Y-116801583D01*
X149726725Y-116800378D01*
X149710142Y-116790967D01*
X149685693Y-116781617D01*
X149654715Y-116772724D01*
X149618546Y-116764683D01*
X149588165Y-116759347D01*
X149550281Y-116755045D01*
X149507811Y-116752979D01*
X149463306Y-116753064D01*
X149419320Y-116755216D01*
X149378405Y-116759348D01*
X149343111Y-116765377D01*
X149332918Y-116767825D01*
X149270815Y-116788482D01*
X149214644Y-116816168D01*
X149164528Y-116850765D01*
X149120593Y-116892153D01*
X149082962Y-116940216D01*
X149051761Y-116994833D01*
X149027112Y-117055886D01*
X149025376Y-117061203D01*
X149021134Y-117074915D01*
X149017435Y-117088317D01*
X149014242Y-117102120D01*
X149011518Y-117117033D01*
X149009227Y-117133768D01*
X149007331Y-117153036D01*
X149005793Y-117175548D01*
X149004576Y-117202014D01*
X149003644Y-117233147D01*
X149002959Y-117269655D01*
X149002485Y-117312251D01*
X149002184Y-117361645D01*
X149002020Y-117418548D01*
X149001954Y-117483671D01*
X149001948Y-117511584D01*
X148762025Y-117511584D01*
X148762392Y-117509981D01*
X148769850Y-117438795D01*
X148770086Y-117386940D01*
X148765460Y-117336370D01*
X148755601Y-117285600D01*
X148740138Y-117233144D01*
X148718700Y-117177518D01*
X148690918Y-117117235D01*
X148688255Y-117111855D01*
X148656090Y-117051099D01*
X148617585Y-116985171D01*
X148573354Y-116914937D01*
X148524013Y-116841264D01*
X148470176Y-116765018D01*
X148412457Y-116687064D01*
X148351472Y-116608268D01*
X148287835Y-116529497D01*
X148222160Y-116451615D01*
X148207719Y-116434939D01*
X148138771Y-116355702D01*
X148124833Y-116371781D01*
X148087036Y-116415447D01*
X148054653Y-116453010D01*
X148027011Y-116485275D01*
X148003431Y-116513044D01*
X147983240Y-116537124D01*
X147965759Y-116558318D01*
X147950315Y-116577431D01*
X147936230Y-116595267D01*
X147926658Y-116607631D01*
X147858064Y-116698354D01*
X147796162Y-116783304D01*
X147740775Y-116862847D01*
X147691727Y-116937347D01*
X147648844Y-117007169D01*
X147611950Y-117072678D01*
X147580868Y-117134238D01*
X147555423Y-117192215D01*
X147535440Y-117246972D01*
X147520742Y-117298874D01*
X147511154Y-117348287D01*
X147506500Y-117395575D01*
X147262213Y-117395575D01*
X147265090Y-117387062D01*
X147274875Y-117352678D01*
X147282003Y-117319502D01*
X147286827Y-117285271D01*
X147289702Y-117247721D01*
X147290980Y-117204588D01*
X147291130Y-117176322D01*
X147290680Y-117131591D01*
X147289245Y-117093917D01*
X147286531Y-117061172D01*
X147282243Y-117031229D01*
X147276088Y-117001962D01*
X147267771Y-116971244D01*
X147258738Y-116942272D01*
X147228616Y-116864121D01*
X147190851Y-116790783D01*
X147145894Y-116722680D01*
X147094201Y-116660235D01*
X147036222Y-116603870D01*
X146972411Y-116554010D01*
X146903221Y-116511076D01*
X146829105Y-116475491D01*
X146750516Y-116447679D01*
X146720249Y-116439407D01*
X146701900Y-116434895D01*
X146684668Y-116431002D01*
X146667741Y-116427687D01*
X146650308Y-116424908D01*
X146631558Y-116422624D01*
X146610679Y-116420794D01*
X146586859Y-116419376D01*
X146559288Y-116418329D01*
X146527153Y-116417611D01*
X146489644Y-116417182D01*
X146445949Y-116416999D01*
X146395257Y-116417021D01*
X146336756Y-116417208D01*
X146288944Y-116417423D01*
X145995783Y-116418835D01*
X145975819Y-116432854D01*
X145961293Y-116445634D01*
X145948200Y-116461321D01*
X145944343Y-116467390D01*
X145932831Y-116487907D01*
X145932831Y-117178625D01*
X143499202Y-117178625D01*
X143499202Y-116487907D01*
X143499202Y-115583067D01*
X148499999Y-115583067D01*
X153500797Y-115583067D01*
X153500797Y-117249999D01*
G37*
%TO.C,U5*%
D15*
X147590000Y-121940000D02*
X149410000Y-121940000D01*
X147590000Y-121990000D02*
X147590000Y-121940000D01*
X147590000Y-125060000D02*
X147590000Y-125010000D01*
X149410000Y-121940000D02*
X149410000Y-121990000D01*
X149410000Y-125010000D02*
X149410000Y-125060000D01*
X149410000Y-125060000D02*
X147590000Y-125060000D01*
X147050000Y-121990000D02*
X146810000Y-121660000D01*
X147290000Y-121660000D01*
X147050000Y-121990000D01*
G36*
X147050000Y-121990000D02*
G01*
X146810000Y-121660000D01*
X147290000Y-121660000D01*
X147050000Y-121990000D01*
G37*
%TO.C,U6*%
X163690000Y-106340000D02*
X163740000Y-106340000D01*
X163690000Y-108160000D02*
X163690000Y-106340000D01*
X163740000Y-108160000D02*
X163690000Y-108160000D01*
X166760000Y-106340000D02*
X166810000Y-106340000D01*
X166810000Y-106340000D02*
X166810000Y-108160000D01*
X166810000Y-108160000D02*
X166760000Y-108160000D01*
X163740000Y-108700000D02*
X163410000Y-108940000D01*
X163410000Y-108460000D01*
X163740000Y-108700000D01*
G36*
X163740000Y-108700000D02*
G01*
X163410000Y-108940000D01*
X163410000Y-108460000D01*
X163740000Y-108700000D01*
G37*
%TO.C,C14*%
X133490000Y-97140580D02*
X133490000Y-96859420D01*
X134510000Y-97140580D02*
X134510000Y-96859420D01*
%TO.C,C4*%
X142740000Y-86609420D02*
X142740000Y-86890580D01*
X143760000Y-86609420D02*
X143760000Y-86890580D01*
%TO.C,D3*%
X169015000Y-85265000D02*
X169015000Y-87550000D01*
X170485000Y-85265000D02*
X169015000Y-85265000D01*
X170485000Y-87550000D02*
X170485000Y-85265000D01*
%TO.C,R16*%
X169227500Y-90012742D02*
X169227500Y-90487258D01*
X170272500Y-90012742D02*
X170272500Y-90487258D01*
%TO.C,R26*%
X169477500Y-116737258D02*
X169477500Y-116262742D01*
X170522500Y-116737258D02*
X170522500Y-116262742D01*
%TO.C,C2*%
X130740000Y-90890580D02*
X130740000Y-90609420D01*
X131760000Y-90890580D02*
X131760000Y-90609420D01*
%TO.C,R25*%
X160477500Y-109237258D02*
X160477500Y-108762742D01*
X161522500Y-109237258D02*
X161522500Y-108762742D01*
%TO.C,C3*%
X121990000Y-90890580D02*
X121990000Y-90609420D01*
X123010000Y-90890580D02*
X123010000Y-90609420D01*
%TO.C,R7*%
X161977500Y-81262742D02*
X161977500Y-81737258D01*
X163022500Y-81262742D02*
X163022500Y-81737258D01*
%TO.C,C5*%
X138515000Y-89988748D02*
X138515000Y-90511252D01*
X139985000Y-89988748D02*
X139985000Y-90511252D01*
%TO.C,BOOT1*%
X173000000Y-107500000D02*
X173000000Y-105500000D01*
X174050000Y-104200000D02*
X174500000Y-103750000D01*
X174050000Y-108800000D02*
X174500000Y-109250000D01*
X177000000Y-103750000D02*
X174500000Y-103750000D01*
X177000000Y-109250000D02*
X174500000Y-109250000D01*
X177450000Y-104200000D02*
X177000000Y-103750000D01*
X177450000Y-108800000D02*
X177000000Y-109250000D01*
X178500000Y-107500000D02*
X178500000Y-105500000D01*
%TO.C,R11*%
X119512742Y-111977500D02*
X119987258Y-111977500D01*
X119512742Y-113022500D02*
X119987258Y-113022500D01*
%TO.C,R24*%
X163477500Y-112237258D02*
X163477500Y-111762742D01*
X164522500Y-112237258D02*
X164522500Y-111762742D01*
%TO.C,U2*%
D10*
X155600000Y-87750000D02*
X156200000Y-87750000D01*
X158900000Y-87750000D02*
X158300000Y-87750000D01*
X158900000Y-92175000D02*
X155600000Y-92175000D01*
D13*
X155085000Y-87448000D02*
G75*
G02*
X154785000Y-87448000I-150000J0D01*
G01*
X154785000Y-87448000D02*
G75*
G02*
X155085000Y-87448000I150000J0D01*
G01*
%TO.C,C13*%
D15*
X136490000Y-97140580D02*
X136490000Y-96859420D01*
X137510000Y-97140580D02*
X137510000Y-96859420D01*
%TO.C,LS1*%
D17*
X159265000Y-122500000D02*
X160535000Y-122500000D01*
X170150000Y-120050000D02*
X172350000Y-120050000D01*
X172350000Y-120050000D02*
X172350000Y-124950000D01*
X172350000Y-124950000D02*
X170150000Y-124950000D01*
X173235000Y-122500000D02*
X173870000Y-122500000D01*
X173870000Y-122500000D02*
X173870000Y-121865000D01*
X173870000Y-123135000D02*
X173870000Y-122500000D01*
X174505000Y-122500000D02*
X173870000Y-122500000D01*
X166250000Y-117899999D02*
G75*
G02*
X170150002Y-120049999I26220J-4564651D01*
G01*
X170150000Y-124950000D02*
G75*
G02*
X166250000Y-117900001I-3919733J2435360D01*
G01*
X170150000Y-124950000D02*
G75*
G02*
X166250000Y-117900001I-3919733J2435360D01*
G01*
%TO.C,J2*%
D15*
X168120000Y-109730000D02*
X168120000Y-102000000D01*
X170880000Y-102000000D02*
X168120000Y-102000000D01*
X170880000Y-109730000D02*
X168120000Y-109730000D01*
X170880000Y-109730000D02*
X170880000Y-102000000D01*
X170880000Y-111000000D02*
X170880000Y-112380000D01*
X170880000Y-112380000D02*
X169500000Y-112380000D01*
%TO.C,J1*%
X146950000Y-79950000D02*
X147700000Y-79950000D01*
X147700000Y-77000000D02*
X150750000Y-77000000D01*
X147700000Y-79950000D02*
X147700000Y-77000000D01*
X153600000Y-82500000D02*
X154850000Y-82500000D01*
X153800000Y-77000000D02*
X150750000Y-77000000D01*
X153800000Y-79950000D02*
X153800000Y-77000000D01*
X154550000Y-79950000D02*
X153800000Y-79950000D01*
X154850000Y-82500000D02*
X154850000Y-81250000D01*
X146950000Y-81450000D02*
X148750000Y-81450000D01*
X148750000Y-82200000D01*
X146950000Y-82200000D01*
X146950000Y-81450000D01*
X150250000Y-81450000D02*
X151250000Y-81450000D01*
X151250000Y-82200000D01*
X150250000Y-82200000D01*
X150250000Y-81450000D01*
X152750000Y-81450000D02*
X154550000Y-81450000D01*
X154550000Y-82200000D01*
X152750000Y-82200000D01*
X152750000Y-81450000D01*
X146940000Y-76240000D02*
X154560000Y-76240000D01*
X154560000Y-82210000D01*
X146940000Y-82210000D01*
X146940000Y-76240000D01*
%TO.C,C12*%
X134990000Y-100640580D02*
X134990000Y-100359420D01*
X136010000Y-100640580D02*
X136010000Y-100359420D01*
%TO.C,R3*%
X125977500Y-87737258D02*
X125977500Y-87262742D01*
X127022500Y-87737258D02*
X127022500Y-87262742D01*
%TO.C,R1*%
X144262742Y-120727500D02*
X144737258Y-120727500D01*
X144262742Y-121772500D02*
X144737258Y-121772500D01*
%TO.C,R8*%
X164977500Y-90012742D02*
X164977500Y-90487258D01*
X166022500Y-90012742D02*
X166022500Y-90487258D01*
%TO.C,R20*%
X156727500Y-117237258D02*
X156727500Y-116762742D01*
X157772500Y-117237258D02*
X157772500Y-116762742D01*
%TO.C,R6*%
X161977500Y-78012742D02*
X161977500Y-78487258D01*
X163022500Y-78012742D02*
X163022500Y-78487258D01*
%TO.C,D1*%
X156765000Y-76765000D02*
X156765000Y-79050000D01*
X158235000Y-76765000D02*
X156765000Y-76765000D01*
X158235000Y-79050000D02*
X158235000Y-76765000D01*
%TO.C,D2*%
X146765000Y-85265000D02*
X146765000Y-87550000D01*
X148235000Y-85265000D02*
X146765000Y-85265000D01*
X148235000Y-87550000D02*
X148235000Y-85265000D01*
%TO.C,C6*%
X152515000Y-87511252D02*
X152515000Y-86988748D01*
X153985000Y-87511252D02*
X153985000Y-86988748D01*
%TO.C,J7*%
X134040000Y-78090000D02*
X134040000Y-80910000D01*
X134040000Y-78090000D02*
X135740000Y-76790000D01*
X134040000Y-80910000D02*
X135740000Y-82210000D01*
X135740000Y-76790000D02*
X144460000Y-76790000D01*
X135740000Y-82210000D02*
X144460000Y-82210000D01*
X144460000Y-76790000D02*
X144460000Y-82210000D01*
%TO.C,R12*%
X129977500Y-100737258D02*
X129977500Y-100262742D01*
X131022500Y-100737258D02*
X131022500Y-100262742D01*
%TO.C,U4*%
X139300000Y-95200000D02*
X157700000Y-95200000D01*
X139300000Y-113800000D02*
X139300000Y-114800000D01*
X139300000Y-114800000D02*
X140800000Y-114800000D01*
X157700000Y-95200000D02*
X157700000Y-95900000D01*
X157700000Y-114800000D02*
X156200000Y-114800000D01*
X157700000Y-114800000D02*
X157700000Y-113800000D01*
X139300000Y-95950000D02*
X138800000Y-95950000D01*
X139300000Y-95450000D01*
X139300000Y-95950000D01*
G36*
X139300000Y-95950000D02*
G01*
X138800000Y-95950000D01*
X139300000Y-95450000D01*
X139300000Y-95950000D01*
G37*
%TO.C,R2*%
X125977500Y-90987258D02*
X125977500Y-90512742D01*
X127022500Y-90987258D02*
X127022500Y-90512742D01*
%TO.C,Q2*%
X160490000Y-115440000D02*
X162010000Y-115440000D01*
X160490000Y-115490000D02*
X160490000Y-115440000D01*
X160490000Y-117390000D02*
X160490000Y-116610000D01*
X160490000Y-118560000D02*
X160490000Y-118510000D01*
X162010000Y-115440000D02*
X162010000Y-116440000D01*
X162010000Y-117560000D02*
X162010000Y-118560000D01*
X162010000Y-118560000D02*
X160490000Y-118560000D01*
X159950000Y-116620000D02*
X160190000Y-116950000D01*
X159710000Y-116950000D01*
X159950000Y-116620000D01*
G36*
X160190000Y-116950000D02*
G01*
X159710000Y-116950000D01*
X159950000Y-116620000D01*
X160190000Y-116950000D01*
G37*
%TO.C,C10*%
X160765000Y-89988748D02*
X160765000Y-90511252D01*
X162235000Y-89988748D02*
X162235000Y-90511252D01*
%TO.C,R14*%
X156977500Y-81262742D02*
X156977500Y-81737258D01*
X158022500Y-81262742D02*
X158022500Y-81737258D01*
%TO.C,R4*%
X142727500Y-90012742D02*
X142727500Y-90487258D01*
X143772500Y-90012742D02*
X143772500Y-90487258D01*
%TO.C,C1*%
X130515000Y-87511252D02*
X130515000Y-86988748D01*
X131985000Y-87511252D02*
X131985000Y-86988748D01*
%TO.C,J3*%
X120350000Y-100330000D02*
X122050000Y-100330000D01*
X120350000Y-109670000D02*
X122050000Y-109670000D01*
%TO.C,R9*%
X160727500Y-86512742D02*
X160727500Y-86987258D01*
X161772500Y-86512742D02*
X161772500Y-86987258D01*
%TO.C,R23*%
X163477500Y-102737258D02*
X163477500Y-102262742D01*
X164522500Y-102737258D02*
X164522500Y-102262742D01*
%TO.C,U1*%
D10*
X133350000Y-87750000D02*
X133950000Y-87750000D01*
X136650000Y-87750000D02*
X136050000Y-87750000D01*
X136650000Y-92175000D02*
X133350000Y-92175000D01*
D13*
X132835000Y-87448000D02*
G75*
G02*
X132535000Y-87448000I-150000J0D01*
G01*
X132535000Y-87448000D02*
G75*
G02*
X132835000Y-87448000I150000J0D01*
G01*
%TO.C,J4*%
D15*
X163700000Y-97700000D02*
X164450000Y-97700000D01*
X164450000Y-94750000D02*
X168750000Y-94750000D01*
X164450000Y-97700000D02*
X164450000Y-94750000D01*
X172850000Y-100250000D02*
X174100000Y-100250000D01*
X173050000Y-94750000D02*
X168750000Y-94750000D01*
X173050000Y-97700000D02*
X173050000Y-94750000D01*
X173800000Y-97700000D02*
X173050000Y-97700000D01*
X174100000Y-100250000D02*
X174100000Y-99000000D01*
X163700000Y-99200000D02*
X165500000Y-99200000D01*
X165500000Y-99950000D01*
X163700000Y-99950000D01*
X163700000Y-99200000D01*
X167000000Y-99200000D02*
X170500000Y-99200000D01*
X170500000Y-99950000D01*
X167000000Y-99950000D01*
X167000000Y-99200000D01*
X172000000Y-99200000D02*
X173800000Y-99200000D01*
X173800000Y-99950000D01*
X172000000Y-99950000D01*
X172000000Y-99200000D01*
X163690000Y-93990000D02*
X173810000Y-93990000D01*
X173810000Y-99960000D01*
X163690000Y-99960000D01*
X163690000Y-93990000D01*
%TO.C,J9*%
X149950000Y-130725000D02*
X150700000Y-130725000D01*
X150700000Y-127775000D02*
X156250000Y-127775000D01*
X150700000Y-130725000D02*
X150700000Y-127775000D01*
X161600000Y-133275000D02*
X162850000Y-133275000D01*
X161800000Y-127775000D02*
X156250000Y-127775000D01*
X161800000Y-130725000D02*
X161800000Y-127775000D01*
X162550000Y-130725000D02*
X161800000Y-130725000D01*
X162850000Y-133275000D02*
X162850000Y-132025000D01*
X149950000Y-132225000D02*
X151750000Y-132225000D01*
X151750000Y-132975000D01*
X149950000Y-132975000D01*
X149950000Y-132225000D01*
X153250000Y-132225000D02*
X159250000Y-132225000D01*
X159250000Y-132975000D01*
X153250000Y-132975000D01*
X153250000Y-132225000D01*
X160750000Y-132225000D02*
X162550000Y-132225000D01*
X162550000Y-132975000D01*
X160750000Y-132975000D01*
X160750000Y-132225000D01*
X149940000Y-127015000D02*
X162560000Y-127015000D01*
X162560000Y-132985000D01*
X149940000Y-132985000D01*
X149940000Y-127015000D01*
%TO.C,C7*%
X152740000Y-90890580D02*
X152740000Y-90609420D01*
X153760000Y-90890580D02*
X153760000Y-90609420D01*
%TO.C,C8*%
X166490000Y-81359420D02*
X166490000Y-81640580D01*
X167510000Y-81359420D02*
X167510000Y-81640580D01*
%TO.C,U3*%
X128340000Y-103440000D02*
X130160000Y-103440000D01*
X128340000Y-103490000D02*
X128340000Y-103440000D01*
X128340000Y-106560000D02*
X128340000Y-106510000D01*
X130160000Y-103440000D02*
X130160000Y-103490000D01*
X130160000Y-106510000D02*
X130160000Y-106560000D01*
X130160000Y-106560000D02*
X128340000Y-106560000D01*
X130700000Y-106510000D02*
X130940000Y-106840000D01*
X130460000Y-106840000D01*
X130700000Y-106510000D01*
G36*
X130940000Y-106840000D02*
G01*
X130460000Y-106840000D01*
X130700000Y-106510000D01*
X130940000Y-106840000D01*
G37*
%TO.C,R22*%
X160477500Y-105737258D02*
X160477500Y-105262742D01*
X161522500Y-105737258D02*
X161522500Y-105262742D01*
%TO.C,R18*%
X152262742Y-120727500D02*
X152737258Y-120727500D01*
X152262742Y-121772500D02*
X152737258Y-121772500D01*
%TO.C,R19*%
X155762742Y-123477500D02*
X156237258Y-123477500D01*
X155762742Y-124522500D02*
X156237258Y-124522500D01*
%TO.C,J5*%
X133450000Y-130700000D02*
X134200000Y-130700000D01*
X134200000Y-127750000D02*
X139750000Y-127750000D01*
X134200000Y-130700000D02*
X134200000Y-127750000D01*
X145100000Y-133250000D02*
X146350000Y-133250000D01*
X145300000Y-127750000D02*
X139750000Y-127750000D01*
X145300000Y-130700000D02*
X145300000Y-127750000D01*
X146050000Y-130700000D02*
X145300000Y-130700000D01*
X146350000Y-133250000D02*
X146350000Y-132000000D01*
X133450000Y-132200000D02*
X135250000Y-132200000D01*
X135250000Y-132950000D01*
X133450000Y-132950000D01*
X133450000Y-132200000D01*
X136750000Y-132200000D02*
X142750000Y-132200000D01*
X142750000Y-132950000D01*
X136750000Y-132950000D01*
X136750000Y-132200000D01*
X144250000Y-132200000D02*
X146050000Y-132200000D01*
X146050000Y-132950000D01*
X144250000Y-132950000D01*
X144250000Y-132200000D01*
X133440000Y-126990000D02*
X146060000Y-126990000D01*
X146060000Y-132960000D01*
X133440000Y-132960000D01*
X133440000Y-126990000D01*
%TO.C,R10*%
X119987258Y-96977500D02*
X119512742Y-96977500D01*
X119987258Y-98022500D02*
X119512742Y-98022500D01*
%TO.C,R5*%
X138477500Y-86512742D02*
X138477500Y-86987258D01*
X139522500Y-86512742D02*
X139522500Y-86987258D01*
%TO.C,C9*%
X164990000Y-86609420D02*
X164990000Y-86890580D01*
X166010000Y-86609420D02*
X166010000Y-86890580D01*
%TO.C,J6*%
X124450000Y-122950000D02*
X125200000Y-122950000D01*
X125200000Y-120000000D02*
X128250000Y-120000000D01*
X125200000Y-122950000D02*
X125200000Y-120000000D01*
X131100000Y-125500000D02*
X132350000Y-125500000D01*
X131300000Y-120000000D02*
X128250000Y-120000000D01*
X131300000Y-122950000D02*
X131300000Y-120000000D01*
X132050000Y-122950000D02*
X131300000Y-122950000D01*
X132350000Y-125500000D02*
X132350000Y-124250000D01*
X124450000Y-124450000D02*
X126250000Y-124450000D01*
X126250000Y-125200000D01*
X124450000Y-125200000D01*
X124450000Y-124450000D01*
X127750000Y-124450000D02*
X128750000Y-124450000D01*
X128750000Y-125200000D01*
X127750000Y-125200000D01*
X127750000Y-124450000D01*
X130250000Y-124450000D02*
X132050000Y-124450000D01*
X132050000Y-125200000D01*
X130250000Y-125200000D01*
X130250000Y-124450000D01*
X124440000Y-119240000D02*
X132060000Y-119240000D01*
X132060000Y-125210000D01*
X124440000Y-125210000D01*
X124440000Y-119240000D01*
%TO.C,ENABLE1*%
X128000000Y-113250000D02*
X128000000Y-111250000D01*
X129050000Y-109950000D02*
X129500000Y-109500000D01*
X129050000Y-114550000D02*
X129500000Y-115000000D01*
X132000000Y-109500000D02*
X129500000Y-109500000D01*
X132000000Y-115000000D02*
X129500000Y-115000000D01*
X132450000Y-109950000D02*
X132000000Y-109500000D01*
X132450000Y-114550000D02*
X132000000Y-115000000D01*
X133500000Y-113250000D02*
X133500000Y-111250000D01*
%TO.C,R21*%
X148737258Y-92477500D02*
X148262742Y-92477500D01*
X148737258Y-93522500D02*
X148262742Y-93522500D01*
%TO.C,R17*%
X138977500Y-117512742D02*
X138977500Y-117987258D01*
X140022500Y-117512742D02*
X140022500Y-117987258D01*
%TO.C,R13*%
X140762742Y-123477500D02*
X141237258Y-123477500D01*
X140762742Y-124522500D02*
X141237258Y-124522500D01*
%TD*%
%LPC*%
D18*
%TO.C,R15*%
X147500000Y-89425000D03*
X147500000Y-91075000D03*
%TD*%
D19*
%TO.C,Q1*%
X136187500Y-120450000D03*
X136187500Y-118550000D03*
X134312500Y-119500000D03*
%TD*%
D20*
%TO.C,U5*%
X147362500Y-122550000D03*
X147362500Y-123500000D03*
X147362500Y-124450000D03*
X149637500Y-124450000D03*
X149637500Y-123500000D03*
X149637500Y-122550000D03*
%TD*%
D21*
%TO.C,U6*%
X164300000Y-108387500D03*
X165250000Y-108387500D03*
X166200000Y-108387500D03*
X166200000Y-106112500D03*
X165250000Y-106112500D03*
X164300000Y-106112500D03*
%TD*%
D22*
%TO.C,C14*%
X134000000Y-97775000D03*
X134000000Y-96225000D03*
%TD*%
D23*
%TO.C,C4*%
X143250000Y-85975000D03*
X143250000Y-87525000D03*
%TD*%
D24*
%TO.C,D3*%
X169750000Y-85962500D03*
X169750000Y-87537500D03*
%TD*%
D18*
%TO.C,R16*%
X169750000Y-89425000D03*
X169750000Y-91075000D03*
%TD*%
D25*
%TO.C,R26*%
X170000000Y-117325000D03*
X170000000Y-115675000D03*
%TD*%
D22*
%TO.C,C2*%
X131250000Y-91525000D03*
X131250000Y-89975000D03*
%TD*%
D25*
%TO.C,R25*%
X161000000Y-109825000D03*
X161000000Y-108175000D03*
%TD*%
D22*
%TO.C,C3*%
X122500000Y-91525000D03*
X122500000Y-89975000D03*
%TD*%
D18*
%TO.C,R7*%
X162500000Y-80675000D03*
X162500000Y-82325000D03*
%TD*%
D26*
%TO.C,C5*%
X139250000Y-89300000D03*
X139250000Y-91200000D03*
%TD*%
D27*
%TO.C,BOOT1*%
X178900000Y-108400000D03*
X172600000Y-108400000D03*
X178900000Y-104600000D03*
X172600000Y-104600000D03*
%TD*%
D28*
%TO.C,R11*%
X118925000Y-112500000D03*
X120575000Y-112500000D03*
%TD*%
D25*
%TO.C,R24*%
X164000000Y-112825000D03*
X164000000Y-111175000D03*
%TD*%
D29*
%TO.C,H3*%
X123500000Y-114750000D03*
%TD*%
D30*
%TO.C,U2*%
X156087500Y-88687500D03*
D31*
X156300000Y-90675000D03*
D32*
X158200000Y-90675000D03*
D33*
X158412500Y-88687500D03*
D34*
X157750000Y-88100000D03*
X157250000Y-88100000D03*
X156750000Y-88100000D03*
%TD*%
D22*
%TO.C,C13*%
X137000000Y-97775000D03*
X137000000Y-96225000D03*
%TD*%
D35*
%TO.C,LS1*%
X164250000Y-122500000D03*
X168250000Y-122500000D03*
%TD*%
D36*
%TO.C,J2*%
X169500000Y-111000000D03*
D37*
X169500000Y-108460000D03*
X169500000Y-105920000D03*
X169500000Y-103380000D03*
%TD*%
D29*
%TO.C,H1*%
X126500000Y-95000000D03*
%TD*%
D38*
%TO.C,J1*%
X152000000Y-79750000D03*
D39*
X149500000Y-79750000D03*
%TD*%
D22*
%TO.C,C12*%
X135500000Y-101275000D03*
X135500000Y-99725000D03*
%TD*%
D25*
%TO.C,R3*%
X126500000Y-88325000D03*
X126500000Y-86675000D03*
%TD*%
D28*
%TO.C,R1*%
X143675000Y-121250000D03*
X145325000Y-121250000D03*
%TD*%
D18*
%TO.C,R8*%
X165500000Y-89425000D03*
X165500000Y-91075000D03*
%TD*%
D25*
%TO.C,R20*%
X157250000Y-117825000D03*
X157250000Y-116175000D03*
%TD*%
D18*
%TO.C,R6*%
X162500000Y-77425000D03*
X162500000Y-79075000D03*
%TD*%
D24*
%TO.C,D1*%
X157500000Y-77462500D03*
X157500000Y-79037500D03*
%TD*%
%TO.C,D2*%
X147500000Y-85962500D03*
X147500000Y-87537500D03*
%TD*%
D40*
%TO.C,C6*%
X153250000Y-88200000D03*
X153250000Y-86300000D03*
%TD*%
D41*
%TO.C,J7*%
X136750000Y-79500000D03*
D42*
X141750000Y-79500000D03*
%TD*%
D25*
%TO.C,R12*%
X130500000Y-101325000D03*
X130500000Y-99675000D03*
%TD*%
D43*
%TO.C,U4*%
X139750000Y-96590000D03*
X139750000Y-97860000D03*
X139750000Y-99130000D03*
X139750000Y-100400000D03*
X139750000Y-101670000D03*
X139750000Y-102940000D03*
X139750000Y-104210000D03*
X139750000Y-105480000D03*
X139750000Y-106750000D03*
X139750000Y-108020000D03*
X139750000Y-109290000D03*
X139750000Y-110560000D03*
X139750000Y-111830000D03*
X139750000Y-113100000D03*
D44*
X141515000Y-114350000D03*
X142785000Y-114350000D03*
X144055000Y-114350000D03*
X145325000Y-114350000D03*
X146595000Y-114350000D03*
X147865000Y-114350000D03*
X149135000Y-114350000D03*
X150405000Y-114350000D03*
X151675000Y-114350000D03*
X152945000Y-114350000D03*
X154215000Y-114350000D03*
X155485000Y-114350000D03*
D43*
X157250000Y-113100000D03*
X157250000Y-111830000D03*
X157250000Y-110560000D03*
X157250000Y-109290000D03*
X157250000Y-108020000D03*
X157250000Y-106750000D03*
X157250000Y-105480000D03*
X157250000Y-104210000D03*
X157250000Y-102940000D03*
X157250000Y-101670000D03*
X157250000Y-100400000D03*
X157250000Y-99130000D03*
X157250000Y-97860000D03*
X157250000Y-96590000D03*
D45*
X145600000Y-103610000D03*
X145600000Y-105010000D03*
X146300000Y-102910000D03*
X146300000Y-104310000D03*
X146300000Y-105710000D03*
X147000000Y-103610000D03*
D46*
X147000000Y-104310000D03*
D45*
X147000000Y-105010000D03*
X147700000Y-102910000D03*
X147700000Y-104310000D03*
X147700000Y-105710000D03*
X148400000Y-103610000D03*
X148400000Y-105010000D03*
%TD*%
D25*
%TO.C,R2*%
X126500000Y-91575000D03*
X126500000Y-89925000D03*
%TD*%
D47*
%TO.C,Q2*%
X160312500Y-116050000D03*
X160312500Y-117950000D03*
X162187500Y-117000000D03*
%TD*%
D26*
%TO.C,C10*%
X161500000Y-89300000D03*
X161500000Y-91200000D03*
%TD*%
D18*
%TO.C,R14*%
X157500000Y-80675000D03*
X157500000Y-82325000D03*
%TD*%
%TO.C,R4*%
X143250000Y-89425000D03*
X143250000Y-91075000D03*
%TD*%
D40*
%TO.C,C1*%
X131250000Y-88200000D03*
X131250000Y-86300000D03*
%TD*%
D48*
%TO.C,J3*%
X122855000Y-102110000D03*
X122855000Y-107890000D03*
D49*
X124052462Y-101800032D03*
D50*
X124052476Y-102599606D03*
D51*
X123930000Y-103750000D03*
X123930000Y-104750000D03*
X123930000Y-105250000D03*
X123930000Y-106250000D03*
D52*
X124052500Y-107400000D03*
D53*
X124052497Y-108200000D03*
D54*
X124052498Y-108200000D03*
D50*
X124052499Y-107400000D03*
D51*
X123930000Y-106750000D03*
X123930000Y-105750000D03*
X123930000Y-104250000D03*
X123930000Y-103250000D03*
D52*
X124052500Y-102600000D03*
D54*
X124052498Y-101800001D03*
D55*
X123355000Y-100680000D03*
D56*
X119175000Y-100680000D03*
D55*
X123355000Y-109320000D03*
D56*
X119175000Y-109320000D03*
%TD*%
D18*
%TO.C,R9*%
X161250000Y-85925000D03*
X161250000Y-87575000D03*
%TD*%
D25*
%TO.C,R23*%
X164000000Y-103325000D03*
X164000000Y-101675000D03*
%TD*%
D30*
%TO.C,U1*%
X133837500Y-88687500D03*
D31*
X134050000Y-90675000D03*
D32*
X135950000Y-90675000D03*
D33*
X136162500Y-88687500D03*
D34*
X135500000Y-88100000D03*
X135000000Y-88100000D03*
X134500000Y-88100000D03*
%TD*%
D57*
%TO.C,J4*%
X171250000Y-97500000D03*
D58*
X168750000Y-97500000D03*
X166250000Y-97500000D03*
%TD*%
D57*
%TO.C,J9*%
X160000000Y-130525000D03*
D58*
X157500000Y-130525000D03*
X155000000Y-130525000D03*
X152500000Y-130525000D03*
%TD*%
D22*
%TO.C,C7*%
X153250000Y-91525000D03*
X153250000Y-89975000D03*
%TD*%
D23*
%TO.C,C8*%
X167000000Y-80725000D03*
X167000000Y-82275000D03*
%TD*%
D59*
%TO.C,U3*%
X130387500Y-105950000D03*
X130387500Y-105000000D03*
X130387500Y-104050000D03*
X128112500Y-104050000D03*
X128112500Y-105000000D03*
X128112500Y-105950000D03*
%TD*%
D25*
%TO.C,R22*%
X161000000Y-106325000D03*
X161000000Y-104675000D03*
%TD*%
D28*
%TO.C,R18*%
X151675000Y-121250000D03*
X153325000Y-121250000D03*
%TD*%
%TO.C,R19*%
X155175000Y-124000000D03*
X156825000Y-124000000D03*
%TD*%
D57*
%TO.C,J5*%
X143500000Y-130500000D03*
D58*
X141000000Y-130500000D03*
X138500000Y-130500000D03*
X136000000Y-130500000D03*
%TD*%
D60*
%TO.C,R10*%
X120575000Y-97500000D03*
X118925000Y-97500000D03*
%TD*%
D18*
%TO.C,R5*%
X139000000Y-85925000D03*
X139000000Y-87575000D03*
%TD*%
D23*
%TO.C,C9*%
X165500000Y-85975000D03*
X165500000Y-87525000D03*
%TD*%
D29*
%TO.C,H2*%
X174000000Y-117500000D03*
%TD*%
D38*
%TO.C,J6*%
X129500000Y-122750000D03*
D39*
X127000000Y-122750000D03*
%TD*%
D27*
%TO.C,ENABLE1*%
X133900000Y-114150000D03*
X127600000Y-114150000D03*
X133900000Y-110350000D03*
X127600000Y-110350000D03*
%TD*%
D60*
%TO.C,R21*%
X149325000Y-93000000D03*
X147675000Y-93000000D03*
%TD*%
D18*
%TO.C,R17*%
X139500000Y-116925000D03*
X139500000Y-118575000D03*
%TD*%
D28*
%TO.C,R13*%
X140175000Y-124000000D03*
X141825000Y-124000000D03*
%TD*%
%LPD*%
M02*
