%TF.GenerationSoftware,KiCad,Pcbnew,10.0.3*%
%TF.CreationDate,2026-05-29T12:35:44-04:00*%
%TF.ProjectId,float_pcb,666c6f61-745f-4706-9362-2e6b69636164,rev?*%
%TF.SameCoordinates,Original*%
%TF.FileFunction,Legend,Top*%
%TF.FilePolarity,Positive*%
%FSLAX46Y46*%
G04 Gerber Fmt 4.6, Leading zero omitted, Abs format (unit mm)*
G04 Created by KiCad (PCBNEW 10.0.3) date 2026-05-29 12:35:44*
%MOMM*%
%LPD*%
G01*
G04 APERTURE LIST*
G04 Aperture macros list*
%AMRoundRect*
0 Rectangle with rounded corners*
0 $1 Rounding radius*
0 $2 $3 $4 $5 $6 $7 $8 $9 X,Y pos of 4 corners*
0 Add a 4 corners polygon primitive as box body*
4,1,4,$2,$3,$4,$5,$6,$7,$8,$9,$2,$3,0*
0 Add four circle primitives for the rounded corners*
1,1,$1+$1,$2,$3*
1,1,$1+$1,$4,$5*
1,1,$1+$1,$6,$7*
1,1,$1+$1,$8,$9*
0 Add four rect primitives between the rounded corners*
20,1,$1+$1,$2,$3,$4,$5,0*
20,1,$1+$1,$4,$5,$6,$7,0*
20,1,$1+$1,$6,$7,$8,$9,0*
20,1,$1+$1,$8,$9,$2,$3,0*%
%AMFreePoly0*
4,1,52,-0.218366,0.683694,-0.202145,0.672855,-0.191306,0.656634,-0.187500,0.637500,-0.187500,0.287500,0.062500,0.287500,0.062500,0.637500,0.066306,0.656634,0.077145,0.672855,0.093366,0.683694,0.112500,0.687500,0.262500,0.687500,0.281634,0.683694,0.297855,0.672855,0.308694,0.656634,0.312500,0.637500,0.312500,0.287500,0.487500,0.287500,0.506634,0.283694,0.522855,0.272855,
0.533694,0.256634,0.537500,0.237500,0.537500,-0.237500,0.533694,-0.256634,0.522855,-0.272855,0.506634,-0.283694,0.487500,-0.287500,0.259500,-0.287500,-0.117500,-0.664500,-0.117500,-0.807500,-0.121306,-0.826634,-0.132145,-0.842855,-0.148366,-0.853694,-0.167500,-0.857500,-0.487500,-0.857500,-0.506634,-0.853694,-0.522855,-0.842855,-0.533694,-0.826634,-0.537500,-0.807500,-0.537500,0.237500,
-0.533694,0.256634,-0.522855,0.272855,-0.506634,0.283694,-0.487500,0.287500,-0.437500,0.287500,-0.437500,0.637500,-0.433694,0.656634,-0.422855,0.672855,-0.406634,0.683694,-0.387500,0.687500,-0.237500,0.687500,-0.218366,0.683694,-0.218366,0.683694,$1*%
%AMFreePoly1*
4,1,69,0.446320,1.093381,0.474531,1.074531,0.493381,1.046320,0.499999,1.013042,0.500000,-1.013043,0.493381,-1.046320,0.474531,-1.074531,0.446320,-1.093381,0.413042,-1.099999,-0.413043,-1.100000,-0.446320,-1.093381,-0.474531,-1.074531,-0.493381,-1.046320,-0.499999,-1.013042,-0.499999,-0.865000,-0.850001,-0.865000,-0.869135,-0.861194,-0.885356,-0.850355,-0.896195,-0.834134,-0.900001,-0.815000,
-0.900001,-0.665000,-0.896195,-0.645866,-0.885356,-0.629645,-0.869135,-0.618806,-0.850001,-0.615000,-0.499999,-0.615000,-0.499999,-0.365000,-0.850001,-0.365000,-0.869135,-0.361194,-0.885356,-0.350355,-0.896195,-0.334134,-0.900001,-0.315000,-0.900001,-0.165000,-0.896195,-0.145866,-0.885356,-0.129645,-0.869135,-0.118806,-0.850001,-0.115000,-0.499999,-0.115000,-0.500000,0.135000,-0.850000,0.135000,
-0.869134,0.138806,-0.885355,0.149645,-0.896194,0.165866,-0.900000,0.185000,-0.900000,0.335000,-0.896194,0.354134,-0.885355,0.370355,-0.869134,0.381194,-0.850000,0.385000,-0.500000,0.385000,-0.500000,0.635000,-0.850000,0.635000,-0.869134,0.638806,-0.885355,0.649645,-0.896194,0.665866,-0.900000,0.685000,-0.900000,0.835000,-0.896194,0.854134,-0.885355,0.870355,-0.869134,0.881194,
-0.850000,0.885000,-0.500000,0.885000,-0.500000,1.013043,-0.493381,1.046320,-0.474531,1.074531,-0.446320,1.093381,-0.413042,1.099999,0.413043,1.100000,0.446320,1.093381,0.446320,1.093381,$1*%
%AMFreePoly2*
4,1,69,0.413042,1.099999,0.446320,1.093381,0.474531,1.074531,0.493381,1.046320,0.500000,1.013043,0.500000,0.885000,0.850000,0.885000,0.869134,0.881194,0.885355,0.870355,0.896194,0.854134,0.900000,0.835000,0.900000,0.685000,0.896194,0.665866,0.885355,0.649645,0.869134,0.638806,0.850000,0.635000,0.500000,0.635000,0.500000,0.385000,0.850000,0.385000,0.869134,0.381194,
0.885355,0.370355,0.896194,0.354134,0.900000,0.335000,0.900000,0.185000,0.896194,0.165866,0.885355,0.149645,0.869134,0.138806,0.850000,0.135000,0.500000,0.135000,0.499999,-0.115000,0.850000,-0.115000,0.869134,-0.118806,0.885355,-0.129645,0.896194,-0.145866,0.900000,-0.165000,0.900000,-0.315000,0.896194,-0.334134,0.885355,-0.350355,0.869134,-0.361194,0.850000,-0.365000,
0.499999,-0.365000,0.499999,-0.615000,0.850000,-0.615000,0.869134,-0.618806,0.885355,-0.629645,0.896194,-0.645866,0.900000,-0.665000,0.900000,-0.815000,0.896194,-0.834134,0.885355,-0.850355,0.869134,-0.861194,0.850000,-0.865000,0.499999,-0.865000,0.499999,-1.013042,0.493381,-1.046320,0.474531,-1.074531,0.446320,-1.093381,0.413043,-1.100000,-0.413042,-1.099999,-0.446320,-1.093381,
-0.474531,-1.074531,-0.493381,-1.046320,-0.500000,-1.013043,-0.499999,1.013042,-0.493381,1.046320,-0.474531,1.074531,-0.446320,1.093381,-0.413043,1.100000,0.413042,1.099999,0.413042,1.099999,$1*%
%AMFreePoly3*
4,1,52,-0.093366,0.683694,-0.077145,0.672855,-0.066306,0.656634,-0.062500,0.637500,-0.062500,0.287500,0.187500,0.287500,0.187500,0.637500,0.191306,0.656634,0.202145,0.672855,0.218366,0.683694,0.237500,0.687500,0.387500,0.687500,0.406634,0.683694,0.422855,0.672855,0.433694,0.656634,0.437500,0.637500,0.437500,0.287500,0.487500,0.287500,0.506634,0.283694,0.522855,0.272855,
0.533694,0.256634,0.537500,0.237500,0.537500,-0.807500,0.533694,-0.826634,0.522855,-0.842855,0.506634,-0.853694,0.487500,-0.857500,0.167500,-0.857500,0.148366,-0.853694,0.132145,-0.842855,0.121306,-0.826634,0.117500,-0.807500,0.117500,-0.664500,-0.259500,-0.287500,-0.487500,-0.287500,-0.506634,-0.283694,-0.522855,-0.272855,-0.533694,-0.256634,-0.537500,-0.237500,-0.537500,0.237500,
-0.533694,0.256634,-0.522855,0.272855,-0.506634,0.283694,-0.487500,0.287500,-0.312500,0.287500,-0.312500,0.637500,-0.308694,0.656634,-0.297855,0.672855,-0.281634,0.683694,-0.262500,0.687500,-0.112500,0.687500,-0.093366,0.683694,-0.093366,0.683694,$1*%
G04 Aperture macros list end*
%ADD10C,0.300000*%
%ADD11C,0.150000*%
%ADD12C,0.100000*%
%ADD13C,0.120000*%
%ADD14C,0.127000*%
%ADD15C,0.600000*%
%ADD16R,3.900000X3.900000*%
%ADD17R,1.500000X0.900000*%
%ADD18R,0.900000X1.500000*%
%ADD19FreePoly0,90.000000*%
%ADD20FreePoly1,0.000000*%
%ADD21FreePoly2,0.000000*%
%ADD22FreePoly3,270.000000*%
%ADD23RoundRect,0.050000X-0.060000X-0.250000X0.060000X-0.250000X0.060000X0.250000X-0.060000X0.250000X0*%
%ADD24RoundRect,0.218750X0.256250X-0.218750X0.256250X0.218750X-0.256250X0.218750X-0.256250X-0.218750X0*%
%ADD25C,2.200000*%
%ADD26RoundRect,0.150000X0.587500X0.150000X-0.587500X0.150000X-0.587500X-0.150000X0.587500X-0.150000X0*%
%ADD27RoundRect,0.225000X-0.250000X0.225000X-0.250000X-0.225000X0.250000X-0.225000X0.250000X0.225000X0*%
%ADD28RoundRect,0.200000X-0.275000X0.200000X-0.275000X-0.200000X0.275000X-0.200000X0.275000X0.200000X0*%
%ADD29RoundRect,0.200000X-0.200000X-0.275000X0.200000X-0.275000X0.200000X0.275000X-0.200000X0.275000X0*%
%ADD30R,1.700000X1.000000*%
%ADD31RoundRect,0.150000X-0.587500X-0.150000X0.587500X-0.150000X0.587500X0.150000X-0.587500X0.150000X0*%
%ADD32RoundRect,0.760000X-1.140000X-1.140000X1.140000X-1.140000X1.140000X1.140000X-1.140000X1.140000X0*%
%ADD33C,3.800000*%
%ADD34RoundRect,0.250000X0.600000X0.750000X-0.600000X0.750000X-0.600000X-0.750000X0.600000X-0.750000X0*%
%ADD35O,1.700000X2.000000*%
%ADD36C,0.650000*%
%ADD37RoundRect,0.150000X-0.302462X0.150000X-0.302462X-0.150000X0.302462X-0.150000X0.302462X0.150000X0*%
%ADD38RoundRect,0.150000X-0.302499X0.150000X-0.302499X-0.150000X0.302499X-0.150000X0.302499X0.150000X0*%
%ADD39RoundRect,0.075000X-0.500000X0.075000X-0.500000X-0.075000X0.500000X-0.075000X0.500000X0.075000X0*%
%ADD40RoundRect,0.150000X-0.302500X0.150000X-0.302500X-0.150000X0.302500X-0.150000X0.302500X0.150000X0*%
%ADD41RoundRect,0.150000X-0.302497X0.150000X-0.302497X-0.150000X0.302497X-0.150000X0.302497X0.150000X0*%
%ADD42RoundRect,0.150000X-0.302498X0.150000X-0.302498X-0.150000X0.302498X-0.150000X0.302498X0.150000X0*%
%ADD43O,2.100000X1.000000*%
%ADD44O,1.800000X1.000000*%
%ADD45RoundRect,0.218750X-0.256250X0.218750X-0.256250X-0.218750X0.256250X-0.218750X0.256250X0.218750X0*%
%ADD46R,1.700000X1.700000*%
%ADD47C,1.700000*%
%ADD48RoundRect,0.250000X0.600000X0.725000X-0.600000X0.725000X-0.600000X-0.725000X0.600000X-0.725000X0*%
%ADD49O,1.700000X1.950000*%
%ADD50C,1.612000*%
G04 APERTURE END LIST*
D10*
X222804510Y-70300828D02*
X222804510Y-68800828D01*
X222804510Y-68800828D02*
X223161653Y-68800828D01*
X223161653Y-68800828D02*
X223375939Y-68872257D01*
X223375939Y-68872257D02*
X223518796Y-69015114D01*
X223518796Y-69015114D02*
X223590225Y-69157971D01*
X223590225Y-69157971D02*
X223661653Y-69443685D01*
X223661653Y-69443685D02*
X223661653Y-69657971D01*
X223661653Y-69657971D02*
X223590225Y-69943685D01*
X223590225Y-69943685D02*
X223518796Y-70086542D01*
X223518796Y-70086542D02*
X223375939Y-70229400D01*
X223375939Y-70229400D02*
X223161653Y-70300828D01*
X223161653Y-70300828D02*
X222804510Y-70300828D01*
X224518796Y-70300828D02*
X224375939Y-70229400D01*
X224375939Y-70229400D02*
X224304510Y-70157971D01*
X224304510Y-70157971D02*
X224233082Y-70015114D01*
X224233082Y-70015114D02*
X224233082Y-69586542D01*
X224233082Y-69586542D02*
X224304510Y-69443685D01*
X224304510Y-69443685D02*
X224375939Y-69372257D01*
X224375939Y-69372257D02*
X224518796Y-69300828D01*
X224518796Y-69300828D02*
X224733082Y-69300828D01*
X224733082Y-69300828D02*
X224875939Y-69372257D01*
X224875939Y-69372257D02*
X224947368Y-69443685D01*
X224947368Y-69443685D02*
X225018796Y-69586542D01*
X225018796Y-69586542D02*
X225018796Y-70015114D01*
X225018796Y-70015114D02*
X224947368Y-70157971D01*
X224947368Y-70157971D02*
X224875939Y-70229400D01*
X224875939Y-70229400D02*
X224733082Y-70300828D01*
X224733082Y-70300828D02*
X224518796Y-70300828D01*
X225661653Y-70300828D02*
X225661653Y-69300828D01*
X225661653Y-69586542D02*
X225733082Y-69443685D01*
X225733082Y-69443685D02*
X225804511Y-69372257D01*
X225804511Y-69372257D02*
X225947368Y-69300828D01*
X225947368Y-69300828D02*
X226090225Y-69300828D01*
X226447367Y-69300828D02*
X226804510Y-70300828D01*
X227161653Y-69300828D02*
X226804510Y-70300828D01*
X226804510Y-70300828D02*
X226661653Y-70657971D01*
X226661653Y-70657971D02*
X226590224Y-70729400D01*
X226590224Y-70729400D02*
X226447367Y-70800828D01*
X228661653Y-68800828D02*
X229161653Y-70300828D01*
X229161653Y-70300828D02*
X229661653Y-68800828D01*
X230947367Y-70300828D02*
X230090224Y-70300828D01*
X230518795Y-70300828D02*
X230518795Y-68800828D01*
X230518795Y-68800828D02*
X230375938Y-69015114D01*
X230375938Y-69015114D02*
X230233081Y-69157971D01*
X230233081Y-69157971D02*
X230090224Y-69229400D01*
D11*
X216054819Y-107451904D02*
X216864342Y-107451904D01*
X216864342Y-107451904D02*
X216959580Y-107404285D01*
X216959580Y-107404285D02*
X217007200Y-107356666D01*
X217007200Y-107356666D02*
X217054819Y-107261428D01*
X217054819Y-107261428D02*
X217054819Y-107070952D01*
X217054819Y-107070952D02*
X217007200Y-106975714D01*
X217007200Y-106975714D02*
X216959580Y-106928095D01*
X216959580Y-106928095D02*
X216864342Y-106880476D01*
X216864342Y-106880476D02*
X216054819Y-106880476D01*
X216388152Y-105975714D02*
X217054819Y-105975714D01*
X216007200Y-106213809D02*
X216721485Y-106451904D01*
X216721485Y-106451904D02*
X216721485Y-105832857D01*
D12*
X236438095Y-86271419D02*
X236438095Y-87080942D01*
X236438095Y-87080942D02*
X236485714Y-87176180D01*
X236485714Y-87176180D02*
X236533333Y-87223800D01*
X236533333Y-87223800D02*
X236628571Y-87271419D01*
X236628571Y-87271419D02*
X236819047Y-87271419D01*
X236819047Y-87271419D02*
X236914285Y-87223800D01*
X236914285Y-87223800D02*
X236961904Y-87176180D01*
X236961904Y-87176180D02*
X237009523Y-87080942D01*
X237009523Y-87080942D02*
X237009523Y-86271419D01*
X237438095Y-86366657D02*
X237485714Y-86319038D01*
X237485714Y-86319038D02*
X237580952Y-86271419D01*
X237580952Y-86271419D02*
X237819047Y-86271419D01*
X237819047Y-86271419D02*
X237914285Y-86319038D01*
X237914285Y-86319038D02*
X237961904Y-86366657D01*
X237961904Y-86366657D02*
X238009523Y-86461895D01*
X238009523Y-86461895D02*
X238009523Y-86557133D01*
X238009523Y-86557133D02*
X237961904Y-86699990D01*
X237961904Y-86699990D02*
X237390476Y-87271419D01*
X237390476Y-87271419D02*
X238009523Y-87271419D01*
X213425595Y-86271419D02*
X213425595Y-87080942D01*
X213425595Y-87080942D02*
X213473214Y-87176180D01*
X213473214Y-87176180D02*
X213520833Y-87223800D01*
X213520833Y-87223800D02*
X213616071Y-87271419D01*
X213616071Y-87271419D02*
X213806547Y-87271419D01*
X213806547Y-87271419D02*
X213901785Y-87223800D01*
X213901785Y-87223800D02*
X213949404Y-87176180D01*
X213949404Y-87176180D02*
X213997023Y-87080942D01*
X213997023Y-87080942D02*
X213997023Y-86271419D01*
X214997023Y-87271419D02*
X214425595Y-87271419D01*
X214711309Y-87271419D02*
X214711309Y-86271419D01*
X214711309Y-86271419D02*
X214616071Y-86414276D01*
X214616071Y-86414276D02*
X214520833Y-86509514D01*
X214520833Y-86509514D02*
X214425595Y-86557133D01*
D11*
X233554819Y-76913094D02*
X232554819Y-76913094D01*
X232554819Y-76913094D02*
X232554819Y-76674999D01*
X232554819Y-76674999D02*
X232602438Y-76532142D01*
X232602438Y-76532142D02*
X232697676Y-76436904D01*
X232697676Y-76436904D02*
X232792914Y-76389285D01*
X232792914Y-76389285D02*
X232983390Y-76341666D01*
X232983390Y-76341666D02*
X233126247Y-76341666D01*
X233126247Y-76341666D02*
X233316723Y-76389285D01*
X233316723Y-76389285D02*
X233411961Y-76436904D01*
X233411961Y-76436904D02*
X233507200Y-76532142D01*
X233507200Y-76532142D02*
X233554819Y-76674999D01*
X233554819Y-76674999D02*
X233554819Y-76913094D01*
X233554819Y-75389285D02*
X233554819Y-75960713D01*
X233554819Y-75674999D02*
X232554819Y-75674999D01*
X232554819Y-75674999D02*
X232697676Y-75770237D01*
X232697676Y-75770237D02*
X232792914Y-75865475D01*
X232792914Y-75865475D02*
X232840533Y-75960713D01*
X242054819Y-93488094D02*
X241054819Y-93488094D01*
X241054819Y-93488094D02*
X241054819Y-93249999D01*
X241054819Y-93249999D02*
X241102438Y-93107142D01*
X241102438Y-93107142D02*
X241197676Y-93011904D01*
X241197676Y-93011904D02*
X241292914Y-92964285D01*
X241292914Y-92964285D02*
X241483390Y-92916666D01*
X241483390Y-92916666D02*
X241626247Y-92916666D01*
X241626247Y-92916666D02*
X241816723Y-92964285D01*
X241816723Y-92964285D02*
X241911961Y-93011904D01*
X241911961Y-93011904D02*
X242007200Y-93107142D01*
X242007200Y-93107142D02*
X242054819Y-93249999D01*
X242054819Y-93249999D02*
X242054819Y-93488094D01*
X241054819Y-92583332D02*
X241054819Y-91964285D01*
X241054819Y-91964285D02*
X241435771Y-92297618D01*
X241435771Y-92297618D02*
X241435771Y-92154761D01*
X241435771Y-92154761D02*
X241483390Y-92059523D01*
X241483390Y-92059523D02*
X241531009Y-92011904D01*
X241531009Y-92011904D02*
X241626247Y-91964285D01*
X241626247Y-91964285D02*
X241864342Y-91964285D01*
X241864342Y-91964285D02*
X241959580Y-92011904D01*
X241959580Y-92011904D02*
X242007200Y-92059523D01*
X242007200Y-92059523D02*
X242054819Y-92154761D01*
X242054819Y-92154761D02*
X242054819Y-92440475D01*
X242054819Y-92440475D02*
X242007200Y-92535713D01*
X242007200Y-92535713D02*
X241959580Y-92583332D01*
X213404761Y-113200057D02*
X213309523Y-113152438D01*
X213309523Y-113152438D02*
X213214285Y-113057200D01*
X213214285Y-113057200D02*
X213071428Y-112914342D01*
X213071428Y-112914342D02*
X212976190Y-112866723D01*
X212976190Y-112866723D02*
X212880952Y-112866723D01*
X212928571Y-113104819D02*
X212833333Y-113057200D01*
X212833333Y-113057200D02*
X212738095Y-112961961D01*
X212738095Y-112961961D02*
X212690476Y-112771485D01*
X212690476Y-112771485D02*
X212690476Y-112438152D01*
X212690476Y-112438152D02*
X212738095Y-112247676D01*
X212738095Y-112247676D02*
X212833333Y-112152438D01*
X212833333Y-112152438D02*
X212928571Y-112104819D01*
X212928571Y-112104819D02*
X213119047Y-112104819D01*
X213119047Y-112104819D02*
X213214285Y-112152438D01*
X213214285Y-112152438D02*
X213309523Y-112247676D01*
X213309523Y-112247676D02*
X213357142Y-112438152D01*
X213357142Y-112438152D02*
X213357142Y-112771485D01*
X213357142Y-112771485D02*
X213309523Y-112961961D01*
X213309523Y-112961961D02*
X213214285Y-113057200D01*
X213214285Y-113057200D02*
X213119047Y-113104819D01*
X213119047Y-113104819D02*
X212928571Y-113104819D01*
X214309523Y-113104819D02*
X213738095Y-113104819D01*
X214023809Y-113104819D02*
X214023809Y-112104819D01*
X214023809Y-112104819D02*
X213928571Y-112247676D01*
X213928571Y-112247676D02*
X213833333Y-112342914D01*
X213833333Y-112342914D02*
X213738095Y-112390533D01*
X212789580Y-89892857D02*
X212837200Y-89940476D01*
X212837200Y-89940476D02*
X212884819Y-90083333D01*
X212884819Y-90083333D02*
X212884819Y-90178571D01*
X212884819Y-90178571D02*
X212837200Y-90321428D01*
X212837200Y-90321428D02*
X212741961Y-90416666D01*
X212741961Y-90416666D02*
X212646723Y-90464285D01*
X212646723Y-90464285D02*
X212456247Y-90511904D01*
X212456247Y-90511904D02*
X212313390Y-90511904D01*
X212313390Y-90511904D02*
X212122914Y-90464285D01*
X212122914Y-90464285D02*
X212027676Y-90416666D01*
X212027676Y-90416666D02*
X211932438Y-90321428D01*
X211932438Y-90321428D02*
X211884819Y-90178571D01*
X211884819Y-90178571D02*
X211884819Y-90083333D01*
X211884819Y-90083333D02*
X211932438Y-89940476D01*
X211932438Y-89940476D02*
X211980057Y-89892857D01*
X212884819Y-88940476D02*
X212884819Y-89511904D01*
X212884819Y-89226190D02*
X211884819Y-89226190D01*
X211884819Y-89226190D02*
X212027676Y-89321428D01*
X212027676Y-89321428D02*
X212122914Y-89416666D01*
X212122914Y-89416666D02*
X212170533Y-89511904D01*
X212218152Y-88083333D02*
X212884819Y-88083333D01*
X211837200Y-88321428D02*
X212551485Y-88559523D01*
X212551485Y-88559523D02*
X212551485Y-87940476D01*
X220289580Y-85941666D02*
X220337200Y-85989285D01*
X220337200Y-85989285D02*
X220384819Y-86132142D01*
X220384819Y-86132142D02*
X220384819Y-86227380D01*
X220384819Y-86227380D02*
X220337200Y-86370237D01*
X220337200Y-86370237D02*
X220241961Y-86465475D01*
X220241961Y-86465475D02*
X220146723Y-86513094D01*
X220146723Y-86513094D02*
X219956247Y-86560713D01*
X219956247Y-86560713D02*
X219813390Y-86560713D01*
X219813390Y-86560713D02*
X219622914Y-86513094D01*
X219622914Y-86513094D02*
X219527676Y-86465475D01*
X219527676Y-86465475D02*
X219432438Y-86370237D01*
X219432438Y-86370237D02*
X219384819Y-86227380D01*
X219384819Y-86227380D02*
X219384819Y-86132142D01*
X219384819Y-86132142D02*
X219432438Y-85989285D01*
X219432438Y-85989285D02*
X219480057Y-85941666D01*
X219718152Y-85084523D02*
X220384819Y-85084523D01*
X219337200Y-85322618D02*
X220051485Y-85560713D01*
X220051485Y-85560713D02*
X220051485Y-84941666D01*
X241884819Y-90182857D02*
X241408628Y-90516190D01*
X241884819Y-90754285D02*
X240884819Y-90754285D01*
X240884819Y-90754285D02*
X240884819Y-90373333D01*
X240884819Y-90373333D02*
X240932438Y-90278095D01*
X240932438Y-90278095D02*
X240980057Y-90230476D01*
X240980057Y-90230476D02*
X241075295Y-90182857D01*
X241075295Y-90182857D02*
X241218152Y-90182857D01*
X241218152Y-90182857D02*
X241313390Y-90230476D01*
X241313390Y-90230476D02*
X241361009Y-90278095D01*
X241361009Y-90278095D02*
X241408628Y-90373333D01*
X241408628Y-90373333D02*
X241408628Y-90754285D01*
X241884819Y-89230476D02*
X241884819Y-89801904D01*
X241884819Y-89516190D02*
X240884819Y-89516190D01*
X240884819Y-89516190D02*
X241027676Y-89611428D01*
X241027676Y-89611428D02*
X241122914Y-89706666D01*
X241122914Y-89706666D02*
X241170533Y-89801904D01*
X240884819Y-88373333D02*
X240884819Y-88563809D01*
X240884819Y-88563809D02*
X240932438Y-88659047D01*
X240932438Y-88659047D02*
X240980057Y-88706666D01*
X240980057Y-88706666D02*
X241122914Y-88801904D01*
X241122914Y-88801904D02*
X241313390Y-88849523D01*
X241313390Y-88849523D02*
X241694342Y-88849523D01*
X241694342Y-88849523D02*
X241789580Y-88801904D01*
X241789580Y-88801904D02*
X241837200Y-88754285D01*
X241837200Y-88754285D02*
X241884819Y-88659047D01*
X241884819Y-88659047D02*
X241884819Y-88468571D01*
X241884819Y-88468571D02*
X241837200Y-88373333D01*
X241837200Y-88373333D02*
X241789580Y-88325714D01*
X241789580Y-88325714D02*
X241694342Y-88278095D01*
X241694342Y-88278095D02*
X241456247Y-88278095D01*
X241456247Y-88278095D02*
X241361009Y-88325714D01*
X241361009Y-88325714D02*
X241313390Y-88373333D01*
X241313390Y-88373333D02*
X241265771Y-88468571D01*
X241265771Y-88468571D02*
X241265771Y-88659047D01*
X241265771Y-88659047D02*
X241313390Y-88754285D01*
X241313390Y-88754285D02*
X241361009Y-88801904D01*
X241361009Y-88801904D02*
X241456247Y-88849523D01*
X206677080Y-85604166D02*
X206724700Y-85651785D01*
X206724700Y-85651785D02*
X206772319Y-85794642D01*
X206772319Y-85794642D02*
X206772319Y-85889880D01*
X206772319Y-85889880D02*
X206724700Y-86032737D01*
X206724700Y-86032737D02*
X206629461Y-86127975D01*
X206629461Y-86127975D02*
X206534223Y-86175594D01*
X206534223Y-86175594D02*
X206343747Y-86223213D01*
X206343747Y-86223213D02*
X206200890Y-86223213D01*
X206200890Y-86223213D02*
X206010414Y-86175594D01*
X206010414Y-86175594D02*
X205915176Y-86127975D01*
X205915176Y-86127975D02*
X205819938Y-86032737D01*
X205819938Y-86032737D02*
X205772319Y-85889880D01*
X205772319Y-85889880D02*
X205772319Y-85794642D01*
X205772319Y-85794642D02*
X205819938Y-85651785D01*
X205819938Y-85651785D02*
X205867557Y-85604166D01*
X205867557Y-85223213D02*
X205819938Y-85175594D01*
X205819938Y-85175594D02*
X205772319Y-85080356D01*
X205772319Y-85080356D02*
X205772319Y-84842261D01*
X205772319Y-84842261D02*
X205819938Y-84747023D01*
X205819938Y-84747023D02*
X205867557Y-84699404D01*
X205867557Y-84699404D02*
X205962795Y-84651785D01*
X205962795Y-84651785D02*
X206058033Y-84651785D01*
X206058033Y-84651785D02*
X206200890Y-84699404D01*
X206200890Y-84699404D02*
X206772319Y-85270832D01*
X206772319Y-85270832D02*
X206772319Y-84651785D01*
X203884819Y-106392857D02*
X203408628Y-106726190D01*
X203884819Y-106964285D02*
X202884819Y-106964285D01*
X202884819Y-106964285D02*
X202884819Y-106583333D01*
X202884819Y-106583333D02*
X202932438Y-106488095D01*
X202932438Y-106488095D02*
X202980057Y-106440476D01*
X202980057Y-106440476D02*
X203075295Y-106392857D01*
X203075295Y-106392857D02*
X203218152Y-106392857D01*
X203218152Y-106392857D02*
X203313390Y-106440476D01*
X203313390Y-106440476D02*
X203361009Y-106488095D01*
X203361009Y-106488095D02*
X203408628Y-106583333D01*
X203408628Y-106583333D02*
X203408628Y-106964285D01*
X203884819Y-105440476D02*
X203884819Y-106011904D01*
X203884819Y-105726190D02*
X202884819Y-105726190D01*
X202884819Y-105726190D02*
X203027676Y-105821428D01*
X203027676Y-105821428D02*
X203122914Y-105916666D01*
X203122914Y-105916666D02*
X203170533Y-106011904D01*
X203884819Y-104488095D02*
X203884819Y-105059523D01*
X203884819Y-104773809D02*
X202884819Y-104773809D01*
X202884819Y-104773809D02*
X203027676Y-104869047D01*
X203027676Y-104869047D02*
X203122914Y-104964285D01*
X203122914Y-104964285D02*
X203170533Y-105059523D01*
X220289580Y-82666666D02*
X220337200Y-82714285D01*
X220337200Y-82714285D02*
X220384819Y-82857142D01*
X220384819Y-82857142D02*
X220384819Y-82952380D01*
X220384819Y-82952380D02*
X220337200Y-83095237D01*
X220337200Y-83095237D02*
X220241961Y-83190475D01*
X220241961Y-83190475D02*
X220146723Y-83238094D01*
X220146723Y-83238094D02*
X219956247Y-83285713D01*
X219956247Y-83285713D02*
X219813390Y-83285713D01*
X219813390Y-83285713D02*
X219622914Y-83238094D01*
X219622914Y-83238094D02*
X219527676Y-83190475D01*
X219527676Y-83190475D02*
X219432438Y-83095237D01*
X219432438Y-83095237D02*
X219384819Y-82952380D01*
X219384819Y-82952380D02*
X219384819Y-82857142D01*
X219384819Y-82857142D02*
X219432438Y-82714285D01*
X219432438Y-82714285D02*
X219480057Y-82666666D01*
X219384819Y-82333332D02*
X219384819Y-81714285D01*
X219384819Y-81714285D02*
X219765771Y-82047618D01*
X219765771Y-82047618D02*
X219765771Y-81904761D01*
X219765771Y-81904761D02*
X219813390Y-81809523D01*
X219813390Y-81809523D02*
X219861009Y-81761904D01*
X219861009Y-81761904D02*
X219956247Y-81714285D01*
X219956247Y-81714285D02*
X220194342Y-81714285D01*
X220194342Y-81714285D02*
X220289580Y-81761904D01*
X220289580Y-81761904D02*
X220337200Y-81809523D01*
X220337200Y-81809523D02*
X220384819Y-81904761D01*
X220384819Y-81904761D02*
X220384819Y-82190475D01*
X220384819Y-82190475D02*
X220337200Y-82285713D01*
X220337200Y-82285713D02*
X220289580Y-82333332D01*
X242134819Y-76416666D02*
X241658628Y-76749999D01*
X242134819Y-76988094D02*
X241134819Y-76988094D01*
X241134819Y-76988094D02*
X241134819Y-76607142D01*
X241134819Y-76607142D02*
X241182438Y-76511904D01*
X241182438Y-76511904D02*
X241230057Y-76464285D01*
X241230057Y-76464285D02*
X241325295Y-76416666D01*
X241325295Y-76416666D02*
X241468152Y-76416666D01*
X241468152Y-76416666D02*
X241563390Y-76464285D01*
X241563390Y-76464285D02*
X241611009Y-76511904D01*
X241611009Y-76511904D02*
X241658628Y-76607142D01*
X241658628Y-76607142D02*
X241658628Y-76988094D01*
X241134819Y-76083332D02*
X241134819Y-75416666D01*
X241134819Y-75416666D02*
X242134819Y-75845237D01*
X228927080Y-85916666D02*
X228974700Y-85964285D01*
X228974700Y-85964285D02*
X229022319Y-86107142D01*
X229022319Y-86107142D02*
X229022319Y-86202380D01*
X229022319Y-86202380D02*
X228974700Y-86345237D01*
X228974700Y-86345237D02*
X228879461Y-86440475D01*
X228879461Y-86440475D02*
X228784223Y-86488094D01*
X228784223Y-86488094D02*
X228593747Y-86535713D01*
X228593747Y-86535713D02*
X228450890Y-86535713D01*
X228450890Y-86535713D02*
X228260414Y-86488094D01*
X228260414Y-86488094D02*
X228165176Y-86440475D01*
X228165176Y-86440475D02*
X228069938Y-86345237D01*
X228069938Y-86345237D02*
X228022319Y-86202380D01*
X228022319Y-86202380D02*
X228022319Y-86107142D01*
X228022319Y-86107142D02*
X228069938Y-85964285D01*
X228069938Y-85964285D02*
X228117557Y-85916666D01*
X228022319Y-85011904D02*
X228022319Y-85488094D01*
X228022319Y-85488094D02*
X228498509Y-85535713D01*
X228498509Y-85535713D02*
X228450890Y-85488094D01*
X228450890Y-85488094D02*
X228403271Y-85392856D01*
X228403271Y-85392856D02*
X228403271Y-85154761D01*
X228403271Y-85154761D02*
X228450890Y-85059523D01*
X228450890Y-85059523D02*
X228498509Y-85011904D01*
X228498509Y-85011904D02*
X228593747Y-84964285D01*
X228593747Y-84964285D02*
X228831842Y-84964285D01*
X228831842Y-84964285D02*
X228927080Y-85011904D01*
X228927080Y-85011904D02*
X228974700Y-85059523D01*
X228974700Y-85059523D02*
X229022319Y-85154761D01*
X229022319Y-85154761D02*
X229022319Y-85392856D01*
X229022319Y-85392856D02*
X228974700Y-85488094D01*
X228974700Y-85488094D02*
X228927080Y-85535713D01*
X216789580Y-89892857D02*
X216837200Y-89940476D01*
X216837200Y-89940476D02*
X216884819Y-90083333D01*
X216884819Y-90083333D02*
X216884819Y-90178571D01*
X216884819Y-90178571D02*
X216837200Y-90321428D01*
X216837200Y-90321428D02*
X216741961Y-90416666D01*
X216741961Y-90416666D02*
X216646723Y-90464285D01*
X216646723Y-90464285D02*
X216456247Y-90511904D01*
X216456247Y-90511904D02*
X216313390Y-90511904D01*
X216313390Y-90511904D02*
X216122914Y-90464285D01*
X216122914Y-90464285D02*
X216027676Y-90416666D01*
X216027676Y-90416666D02*
X215932438Y-90321428D01*
X215932438Y-90321428D02*
X215884819Y-90178571D01*
X215884819Y-90178571D02*
X215884819Y-90083333D01*
X215884819Y-90083333D02*
X215932438Y-89940476D01*
X215932438Y-89940476D02*
X215980057Y-89892857D01*
X216884819Y-88940476D02*
X216884819Y-89511904D01*
X216884819Y-89226190D02*
X215884819Y-89226190D01*
X215884819Y-89226190D02*
X216027676Y-89321428D01*
X216027676Y-89321428D02*
X216122914Y-89416666D01*
X216122914Y-89416666D02*
X216170533Y-89511904D01*
X215884819Y-88607142D02*
X215884819Y-87988095D01*
X215884819Y-87988095D02*
X216265771Y-88321428D01*
X216265771Y-88321428D02*
X216265771Y-88178571D01*
X216265771Y-88178571D02*
X216313390Y-88083333D01*
X216313390Y-88083333D02*
X216361009Y-88035714D01*
X216361009Y-88035714D02*
X216456247Y-87988095D01*
X216456247Y-87988095D02*
X216694342Y-87988095D01*
X216694342Y-87988095D02*
X216789580Y-88035714D01*
X216789580Y-88035714D02*
X216837200Y-88083333D01*
X216837200Y-88083333D02*
X216884819Y-88178571D01*
X216884819Y-88178571D02*
X216884819Y-88464285D01*
X216884819Y-88464285D02*
X216837200Y-88559523D01*
X216837200Y-88559523D02*
X216789580Y-88607142D01*
X216789580Y-94392857D02*
X216837200Y-94440476D01*
X216837200Y-94440476D02*
X216884819Y-94583333D01*
X216884819Y-94583333D02*
X216884819Y-94678571D01*
X216884819Y-94678571D02*
X216837200Y-94821428D01*
X216837200Y-94821428D02*
X216741961Y-94916666D01*
X216741961Y-94916666D02*
X216646723Y-94964285D01*
X216646723Y-94964285D02*
X216456247Y-95011904D01*
X216456247Y-95011904D02*
X216313390Y-95011904D01*
X216313390Y-95011904D02*
X216122914Y-94964285D01*
X216122914Y-94964285D02*
X216027676Y-94916666D01*
X216027676Y-94916666D02*
X215932438Y-94821428D01*
X215932438Y-94821428D02*
X215884819Y-94678571D01*
X215884819Y-94678571D02*
X215884819Y-94583333D01*
X215884819Y-94583333D02*
X215932438Y-94440476D01*
X215932438Y-94440476D02*
X215980057Y-94392857D01*
X216884819Y-93440476D02*
X216884819Y-94011904D01*
X216884819Y-93726190D02*
X215884819Y-93726190D01*
X215884819Y-93726190D02*
X216027676Y-93821428D01*
X216027676Y-93821428D02*
X216122914Y-93916666D01*
X216122914Y-93916666D02*
X216170533Y-94011904D01*
X215980057Y-93059523D02*
X215932438Y-93011904D01*
X215932438Y-93011904D02*
X215884819Y-92916666D01*
X215884819Y-92916666D02*
X215884819Y-92678571D01*
X215884819Y-92678571D02*
X215932438Y-92583333D01*
X215932438Y-92583333D02*
X215980057Y-92535714D01*
X215980057Y-92535714D02*
X216075295Y-92488095D01*
X216075295Y-92488095D02*
X216170533Y-92488095D01*
X216170533Y-92488095D02*
X216313390Y-92535714D01*
X216313390Y-92535714D02*
X216884819Y-93107142D01*
X216884819Y-93107142D02*
X216884819Y-92488095D01*
X211272319Y-85604166D02*
X210796128Y-85937499D01*
X211272319Y-86175594D02*
X210272319Y-86175594D01*
X210272319Y-86175594D02*
X210272319Y-85794642D01*
X210272319Y-85794642D02*
X210319938Y-85699404D01*
X210319938Y-85699404D02*
X210367557Y-85651785D01*
X210367557Y-85651785D02*
X210462795Y-85604166D01*
X210462795Y-85604166D02*
X210605652Y-85604166D01*
X210605652Y-85604166D02*
X210700890Y-85651785D01*
X210700890Y-85651785D02*
X210748509Y-85699404D01*
X210748509Y-85699404D02*
X210796128Y-85794642D01*
X210796128Y-85794642D02*
X210796128Y-86175594D01*
X210272319Y-85270832D02*
X210272319Y-84651785D01*
X210272319Y-84651785D02*
X210653271Y-84985118D01*
X210653271Y-84985118D02*
X210653271Y-84842261D01*
X210653271Y-84842261D02*
X210700890Y-84747023D01*
X210700890Y-84747023D02*
X210748509Y-84699404D01*
X210748509Y-84699404D02*
X210843747Y-84651785D01*
X210843747Y-84651785D02*
X211081842Y-84651785D01*
X211081842Y-84651785D02*
X211177080Y-84699404D01*
X211177080Y-84699404D02*
X211224700Y-84747023D01*
X211224700Y-84747023D02*
X211272319Y-84842261D01*
X211272319Y-84842261D02*
X211272319Y-85127975D01*
X211272319Y-85127975D02*
X211224700Y-85223213D01*
X211224700Y-85223213D02*
X211177080Y-85270832D01*
X215583333Y-113524819D02*
X215250000Y-113048628D01*
X215011905Y-113524819D02*
X215011905Y-112524819D01*
X215011905Y-112524819D02*
X215392857Y-112524819D01*
X215392857Y-112524819D02*
X215488095Y-112572438D01*
X215488095Y-112572438D02*
X215535714Y-112620057D01*
X215535714Y-112620057D02*
X215583333Y-112715295D01*
X215583333Y-112715295D02*
X215583333Y-112858152D01*
X215583333Y-112858152D02*
X215535714Y-112953390D01*
X215535714Y-112953390D02*
X215488095Y-113001009D01*
X215488095Y-113001009D02*
X215392857Y-113048628D01*
X215392857Y-113048628D02*
X215011905Y-113048628D01*
X216535714Y-113524819D02*
X215964286Y-113524819D01*
X216250000Y-113524819D02*
X216250000Y-112524819D01*
X216250000Y-112524819D02*
X216154762Y-112667676D01*
X216154762Y-112667676D02*
X216059524Y-112762914D01*
X216059524Y-112762914D02*
X215964286Y-112810533D01*
X252384819Y-84416666D02*
X251908628Y-84749999D01*
X252384819Y-84988094D02*
X251384819Y-84988094D01*
X251384819Y-84988094D02*
X251384819Y-84607142D01*
X251384819Y-84607142D02*
X251432438Y-84511904D01*
X251432438Y-84511904D02*
X251480057Y-84464285D01*
X251480057Y-84464285D02*
X251575295Y-84416666D01*
X251575295Y-84416666D02*
X251718152Y-84416666D01*
X251718152Y-84416666D02*
X251813390Y-84464285D01*
X251813390Y-84464285D02*
X251861009Y-84511904D01*
X251861009Y-84511904D02*
X251908628Y-84607142D01*
X251908628Y-84607142D02*
X251908628Y-84988094D01*
X251813390Y-83845237D02*
X251765771Y-83940475D01*
X251765771Y-83940475D02*
X251718152Y-83988094D01*
X251718152Y-83988094D02*
X251622914Y-84035713D01*
X251622914Y-84035713D02*
X251575295Y-84035713D01*
X251575295Y-84035713D02*
X251480057Y-83988094D01*
X251480057Y-83988094D02*
X251432438Y-83940475D01*
X251432438Y-83940475D02*
X251384819Y-83845237D01*
X251384819Y-83845237D02*
X251384819Y-83654761D01*
X251384819Y-83654761D02*
X251432438Y-83559523D01*
X251432438Y-83559523D02*
X251480057Y-83511904D01*
X251480057Y-83511904D02*
X251575295Y-83464285D01*
X251575295Y-83464285D02*
X251622914Y-83464285D01*
X251622914Y-83464285D02*
X251718152Y-83511904D01*
X251718152Y-83511904D02*
X251765771Y-83559523D01*
X251765771Y-83559523D02*
X251813390Y-83654761D01*
X251813390Y-83654761D02*
X251813390Y-83845237D01*
X251813390Y-83845237D02*
X251861009Y-83940475D01*
X251861009Y-83940475D02*
X251908628Y-83988094D01*
X251908628Y-83988094D02*
X252003866Y-84035713D01*
X252003866Y-84035713D02*
X252194342Y-84035713D01*
X252194342Y-84035713D02*
X252289580Y-83988094D01*
X252289580Y-83988094D02*
X252337200Y-83940475D01*
X252337200Y-83940475D02*
X252384819Y-83845237D01*
X252384819Y-83845237D02*
X252384819Y-83654761D01*
X252384819Y-83654761D02*
X252337200Y-83559523D01*
X252337200Y-83559523D02*
X252289580Y-83511904D01*
X252289580Y-83511904D02*
X252194342Y-83464285D01*
X252194342Y-83464285D02*
X252003866Y-83464285D01*
X252003866Y-83464285D02*
X251908628Y-83511904D01*
X251908628Y-83511904D02*
X251861009Y-83559523D01*
X251861009Y-83559523D02*
X251813390Y-83654761D01*
X239634819Y-111392857D02*
X239158628Y-111726190D01*
X239634819Y-111964285D02*
X238634819Y-111964285D01*
X238634819Y-111964285D02*
X238634819Y-111583333D01*
X238634819Y-111583333D02*
X238682438Y-111488095D01*
X238682438Y-111488095D02*
X238730057Y-111440476D01*
X238730057Y-111440476D02*
X238825295Y-111392857D01*
X238825295Y-111392857D02*
X238968152Y-111392857D01*
X238968152Y-111392857D02*
X239063390Y-111440476D01*
X239063390Y-111440476D02*
X239111009Y-111488095D01*
X239111009Y-111488095D02*
X239158628Y-111583333D01*
X239158628Y-111583333D02*
X239158628Y-111964285D01*
X238730057Y-111011904D02*
X238682438Y-110964285D01*
X238682438Y-110964285D02*
X238634819Y-110869047D01*
X238634819Y-110869047D02*
X238634819Y-110630952D01*
X238634819Y-110630952D02*
X238682438Y-110535714D01*
X238682438Y-110535714D02*
X238730057Y-110488095D01*
X238730057Y-110488095D02*
X238825295Y-110440476D01*
X238825295Y-110440476D02*
X238920533Y-110440476D01*
X238920533Y-110440476D02*
X239063390Y-110488095D01*
X239063390Y-110488095D02*
X239634819Y-111059523D01*
X239634819Y-111059523D02*
X239634819Y-110440476D01*
X238634819Y-109821428D02*
X238634819Y-109726190D01*
X238634819Y-109726190D02*
X238682438Y-109630952D01*
X238682438Y-109630952D02*
X238730057Y-109583333D01*
X238730057Y-109583333D02*
X238825295Y-109535714D01*
X238825295Y-109535714D02*
X239015771Y-109488095D01*
X239015771Y-109488095D02*
X239253866Y-109488095D01*
X239253866Y-109488095D02*
X239444342Y-109535714D01*
X239444342Y-109535714D02*
X239539580Y-109583333D01*
X239539580Y-109583333D02*
X239587200Y-109630952D01*
X239587200Y-109630952D02*
X239634819Y-109726190D01*
X239634819Y-109726190D02*
X239634819Y-109821428D01*
X239634819Y-109821428D02*
X239587200Y-109916666D01*
X239587200Y-109916666D02*
X239539580Y-109964285D01*
X239539580Y-109964285D02*
X239444342Y-110011904D01*
X239444342Y-110011904D02*
X239253866Y-110059523D01*
X239253866Y-110059523D02*
X239015771Y-110059523D01*
X239015771Y-110059523D02*
X238825295Y-110011904D01*
X238825295Y-110011904D02*
X238730057Y-109964285D01*
X238730057Y-109964285D02*
X238682438Y-109916666D01*
X238682438Y-109916666D02*
X238634819Y-109821428D01*
X242134819Y-73091666D02*
X241658628Y-73424999D01*
X242134819Y-73663094D02*
X241134819Y-73663094D01*
X241134819Y-73663094D02*
X241134819Y-73282142D01*
X241134819Y-73282142D02*
X241182438Y-73186904D01*
X241182438Y-73186904D02*
X241230057Y-73139285D01*
X241230057Y-73139285D02*
X241325295Y-73091666D01*
X241325295Y-73091666D02*
X241468152Y-73091666D01*
X241468152Y-73091666D02*
X241563390Y-73139285D01*
X241563390Y-73139285D02*
X241611009Y-73186904D01*
X241611009Y-73186904D02*
X241658628Y-73282142D01*
X241658628Y-73282142D02*
X241658628Y-73663094D01*
X241134819Y-72234523D02*
X241134819Y-72424999D01*
X241134819Y-72424999D02*
X241182438Y-72520237D01*
X241182438Y-72520237D02*
X241230057Y-72567856D01*
X241230057Y-72567856D02*
X241372914Y-72663094D01*
X241372914Y-72663094D02*
X241563390Y-72710713D01*
X241563390Y-72710713D02*
X241944342Y-72710713D01*
X241944342Y-72710713D02*
X242039580Y-72663094D01*
X242039580Y-72663094D02*
X242087200Y-72615475D01*
X242087200Y-72615475D02*
X242134819Y-72520237D01*
X242134819Y-72520237D02*
X242134819Y-72329761D01*
X242134819Y-72329761D02*
X242087200Y-72234523D01*
X242087200Y-72234523D02*
X242039580Y-72186904D01*
X242039580Y-72186904D02*
X241944342Y-72139285D01*
X241944342Y-72139285D02*
X241706247Y-72139285D01*
X241706247Y-72139285D02*
X241611009Y-72186904D01*
X241611009Y-72186904D02*
X241563390Y-72234523D01*
X241563390Y-72234523D02*
X241515771Y-72329761D01*
X241515771Y-72329761D02*
X241515771Y-72520237D01*
X241515771Y-72520237D02*
X241563390Y-72615475D01*
X241563390Y-72615475D02*
X241611009Y-72663094D01*
X241611009Y-72663094D02*
X241706247Y-72710713D01*
X249516666Y-103531009D02*
X249659523Y-103578628D01*
X249659523Y-103578628D02*
X249707142Y-103626247D01*
X249707142Y-103626247D02*
X249754761Y-103721485D01*
X249754761Y-103721485D02*
X249754761Y-103864342D01*
X249754761Y-103864342D02*
X249707142Y-103959580D01*
X249707142Y-103959580D02*
X249659523Y-104007200D01*
X249659523Y-104007200D02*
X249564285Y-104054819D01*
X249564285Y-104054819D02*
X249183333Y-104054819D01*
X249183333Y-104054819D02*
X249183333Y-103054819D01*
X249183333Y-103054819D02*
X249516666Y-103054819D01*
X249516666Y-103054819D02*
X249611904Y-103102438D01*
X249611904Y-103102438D02*
X249659523Y-103150057D01*
X249659523Y-103150057D02*
X249707142Y-103245295D01*
X249707142Y-103245295D02*
X249707142Y-103340533D01*
X249707142Y-103340533D02*
X249659523Y-103435771D01*
X249659523Y-103435771D02*
X249611904Y-103483390D01*
X249611904Y-103483390D02*
X249516666Y-103531009D01*
X249516666Y-103531009D02*
X249183333Y-103531009D01*
X250373809Y-103054819D02*
X250564285Y-103054819D01*
X250564285Y-103054819D02*
X250659523Y-103102438D01*
X250659523Y-103102438D02*
X250754761Y-103197676D01*
X250754761Y-103197676D02*
X250802380Y-103388152D01*
X250802380Y-103388152D02*
X250802380Y-103721485D01*
X250802380Y-103721485D02*
X250754761Y-103911961D01*
X250754761Y-103911961D02*
X250659523Y-104007200D01*
X250659523Y-104007200D02*
X250564285Y-104054819D01*
X250564285Y-104054819D02*
X250373809Y-104054819D01*
X250373809Y-104054819D02*
X250278571Y-104007200D01*
X250278571Y-104007200D02*
X250183333Y-103911961D01*
X250183333Y-103911961D02*
X250135714Y-103721485D01*
X250135714Y-103721485D02*
X250135714Y-103388152D01*
X250135714Y-103388152D02*
X250183333Y-103197676D01*
X250183333Y-103197676D02*
X250278571Y-103102438D01*
X250278571Y-103102438D02*
X250373809Y-103054819D01*
X251421428Y-103054819D02*
X251611904Y-103054819D01*
X251611904Y-103054819D02*
X251707142Y-103102438D01*
X251707142Y-103102438D02*
X251802380Y-103197676D01*
X251802380Y-103197676D02*
X251849999Y-103388152D01*
X251849999Y-103388152D02*
X251849999Y-103721485D01*
X251849999Y-103721485D02*
X251802380Y-103911961D01*
X251802380Y-103911961D02*
X251707142Y-104007200D01*
X251707142Y-104007200D02*
X251611904Y-104054819D01*
X251611904Y-104054819D02*
X251421428Y-104054819D01*
X251421428Y-104054819D02*
X251326190Y-104007200D01*
X251326190Y-104007200D02*
X251230952Y-103911961D01*
X251230952Y-103911961D02*
X251183333Y-103721485D01*
X251183333Y-103721485D02*
X251183333Y-103388152D01*
X251183333Y-103388152D02*
X251230952Y-103197676D01*
X251230952Y-103197676D02*
X251326190Y-103102438D01*
X251326190Y-103102438D02*
X251421428Y-103054819D01*
X252135714Y-103054819D02*
X252707142Y-103054819D01*
X252421428Y-104054819D02*
X252421428Y-103054819D01*
X253564285Y-104054819D02*
X252992857Y-104054819D01*
X253278571Y-104054819D02*
X253278571Y-103054819D01*
X253278571Y-103054819D02*
X253183333Y-103197676D01*
X253183333Y-103197676D02*
X253088095Y-103292914D01*
X253088095Y-103292914D02*
X252992857Y-103340533D01*
X237539580Y-76341666D02*
X237587200Y-76389285D01*
X237587200Y-76389285D02*
X237634819Y-76532142D01*
X237634819Y-76532142D02*
X237634819Y-76627380D01*
X237634819Y-76627380D02*
X237587200Y-76770237D01*
X237587200Y-76770237D02*
X237491961Y-76865475D01*
X237491961Y-76865475D02*
X237396723Y-76913094D01*
X237396723Y-76913094D02*
X237206247Y-76960713D01*
X237206247Y-76960713D02*
X237063390Y-76960713D01*
X237063390Y-76960713D02*
X236872914Y-76913094D01*
X236872914Y-76913094D02*
X236777676Y-76865475D01*
X236777676Y-76865475D02*
X236682438Y-76770237D01*
X236682438Y-76770237D02*
X236634819Y-76627380D01*
X236634819Y-76627380D02*
X236634819Y-76532142D01*
X236634819Y-76532142D02*
X236682438Y-76389285D01*
X236682438Y-76389285D02*
X236730057Y-76341666D01*
X236634819Y-75484523D02*
X236634819Y-75674999D01*
X236634819Y-75674999D02*
X236682438Y-75770237D01*
X236682438Y-75770237D02*
X236730057Y-75817856D01*
X236730057Y-75817856D02*
X236872914Y-75913094D01*
X236872914Y-75913094D02*
X237063390Y-75960713D01*
X237063390Y-75960713D02*
X237444342Y-75960713D01*
X237444342Y-75960713D02*
X237539580Y-75913094D01*
X237539580Y-75913094D02*
X237587200Y-75865475D01*
X237587200Y-75865475D02*
X237634819Y-75770237D01*
X237634819Y-75770237D02*
X237634819Y-75579761D01*
X237634819Y-75579761D02*
X237587200Y-75484523D01*
X237587200Y-75484523D02*
X237539580Y-75436904D01*
X237539580Y-75436904D02*
X237444342Y-75389285D01*
X237444342Y-75389285D02*
X237206247Y-75389285D01*
X237206247Y-75389285D02*
X237111009Y-75436904D01*
X237111009Y-75436904D02*
X237063390Y-75484523D01*
X237063390Y-75484523D02*
X237015771Y-75579761D01*
X237015771Y-75579761D02*
X237015771Y-75770237D01*
X237015771Y-75770237D02*
X237063390Y-75865475D01*
X237063390Y-75865475D02*
X237111009Y-75913094D01*
X237111009Y-75913094D02*
X237206247Y-75960713D01*
X251154761Y-106550057D02*
X251059523Y-106502438D01*
X251059523Y-106502438D02*
X250964285Y-106407200D01*
X250964285Y-106407200D02*
X250821428Y-106264342D01*
X250821428Y-106264342D02*
X250726190Y-106216723D01*
X250726190Y-106216723D02*
X250630952Y-106216723D01*
X250678571Y-106454819D02*
X250583333Y-106407200D01*
X250583333Y-106407200D02*
X250488095Y-106311961D01*
X250488095Y-106311961D02*
X250440476Y-106121485D01*
X250440476Y-106121485D02*
X250440476Y-105788152D01*
X250440476Y-105788152D02*
X250488095Y-105597676D01*
X250488095Y-105597676D02*
X250583333Y-105502438D01*
X250583333Y-105502438D02*
X250678571Y-105454819D01*
X250678571Y-105454819D02*
X250869047Y-105454819D01*
X250869047Y-105454819D02*
X250964285Y-105502438D01*
X250964285Y-105502438D02*
X251059523Y-105597676D01*
X251059523Y-105597676D02*
X251107142Y-105788152D01*
X251107142Y-105788152D02*
X251107142Y-106121485D01*
X251107142Y-106121485D02*
X251059523Y-106311961D01*
X251059523Y-106311961D02*
X250964285Y-106407200D01*
X250964285Y-106407200D02*
X250869047Y-106454819D01*
X250869047Y-106454819D02*
X250678571Y-106454819D01*
X251488095Y-105550057D02*
X251535714Y-105502438D01*
X251535714Y-105502438D02*
X251630952Y-105454819D01*
X251630952Y-105454819D02*
X251869047Y-105454819D01*
X251869047Y-105454819D02*
X251964285Y-105502438D01*
X251964285Y-105502438D02*
X252011904Y-105550057D01*
X252011904Y-105550057D02*
X252059523Y-105645295D01*
X252059523Y-105645295D02*
X252059523Y-105740533D01*
X252059523Y-105740533D02*
X252011904Y-105883390D01*
X252011904Y-105883390D02*
X251440476Y-106454819D01*
X251440476Y-106454819D02*
X252059523Y-106454819D01*
X212884819Y-94392857D02*
X212408628Y-94726190D01*
X212884819Y-94964285D02*
X211884819Y-94964285D01*
X211884819Y-94964285D02*
X211884819Y-94583333D01*
X211884819Y-94583333D02*
X211932438Y-94488095D01*
X211932438Y-94488095D02*
X211980057Y-94440476D01*
X211980057Y-94440476D02*
X212075295Y-94392857D01*
X212075295Y-94392857D02*
X212218152Y-94392857D01*
X212218152Y-94392857D02*
X212313390Y-94440476D01*
X212313390Y-94440476D02*
X212361009Y-94488095D01*
X212361009Y-94488095D02*
X212408628Y-94583333D01*
X212408628Y-94583333D02*
X212408628Y-94964285D01*
X212884819Y-93440476D02*
X212884819Y-94011904D01*
X212884819Y-93726190D02*
X211884819Y-93726190D01*
X211884819Y-93726190D02*
X212027676Y-93821428D01*
X212027676Y-93821428D02*
X212122914Y-93916666D01*
X212122914Y-93916666D02*
X212170533Y-94011904D01*
X211980057Y-93059523D02*
X211932438Y-93011904D01*
X211932438Y-93011904D02*
X211884819Y-92916666D01*
X211884819Y-92916666D02*
X211884819Y-92678571D01*
X211884819Y-92678571D02*
X211932438Y-92583333D01*
X211932438Y-92583333D02*
X211980057Y-92535714D01*
X211980057Y-92535714D02*
X212075295Y-92488095D01*
X212075295Y-92488095D02*
X212170533Y-92488095D01*
X212170533Y-92488095D02*
X212313390Y-92535714D01*
X212313390Y-92535714D02*
X212884819Y-93107142D01*
X212884819Y-93107142D02*
X212884819Y-92488095D01*
X211272319Y-82104166D02*
X210796128Y-82437499D01*
X211272319Y-82675594D02*
X210272319Y-82675594D01*
X210272319Y-82675594D02*
X210272319Y-82294642D01*
X210272319Y-82294642D02*
X210319938Y-82199404D01*
X210319938Y-82199404D02*
X210367557Y-82151785D01*
X210367557Y-82151785D02*
X210462795Y-82104166D01*
X210462795Y-82104166D02*
X210605652Y-82104166D01*
X210605652Y-82104166D02*
X210700890Y-82151785D01*
X210700890Y-82151785D02*
X210748509Y-82199404D01*
X210748509Y-82199404D02*
X210796128Y-82294642D01*
X210796128Y-82294642D02*
X210796128Y-82675594D01*
X210367557Y-81723213D02*
X210319938Y-81675594D01*
X210319938Y-81675594D02*
X210272319Y-81580356D01*
X210272319Y-81580356D02*
X210272319Y-81342261D01*
X210272319Y-81342261D02*
X210319938Y-81247023D01*
X210319938Y-81247023D02*
X210367557Y-81199404D01*
X210367557Y-81199404D02*
X210462795Y-81151785D01*
X210462795Y-81151785D02*
X210558033Y-81151785D01*
X210558033Y-81151785D02*
X210700890Y-81199404D01*
X210700890Y-81199404D02*
X211272319Y-81770832D01*
X211272319Y-81770832D02*
X211272319Y-81151785D01*
X214916666Y-79204819D02*
X214916666Y-79919104D01*
X214916666Y-79919104D02*
X214869047Y-80061961D01*
X214869047Y-80061961D02*
X214773809Y-80157200D01*
X214773809Y-80157200D02*
X214630952Y-80204819D01*
X214630952Y-80204819D02*
X214535714Y-80204819D01*
X215297619Y-79204819D02*
X215964285Y-79204819D01*
X215964285Y-79204819D02*
X215535714Y-80204819D01*
X207928571Y-76114700D02*
X209071429Y-76114700D01*
X216928571Y-71614700D02*
X218071429Y-71614700D01*
X217500000Y-72186128D02*
X217500000Y-71043271D01*
X224666666Y-79254819D02*
X224666666Y-79969104D01*
X224666666Y-79969104D02*
X224619047Y-80111961D01*
X224619047Y-80111961D02*
X224523809Y-80207200D01*
X224523809Y-80207200D02*
X224380952Y-80254819D01*
X224380952Y-80254819D02*
X224285714Y-80254819D01*
X225666666Y-80254819D02*
X225095238Y-80254819D01*
X225380952Y-80254819D02*
X225380952Y-79254819D01*
X225380952Y-79254819D02*
X225285714Y-79397676D01*
X225285714Y-79397676D02*
X225190476Y-79492914D01*
X225190476Y-79492914D02*
X225095238Y-79540533D01*
X243539580Y-84892857D02*
X243587200Y-84940476D01*
X243587200Y-84940476D02*
X243634819Y-85083333D01*
X243634819Y-85083333D02*
X243634819Y-85178571D01*
X243634819Y-85178571D02*
X243587200Y-85321428D01*
X243587200Y-85321428D02*
X243491961Y-85416666D01*
X243491961Y-85416666D02*
X243396723Y-85464285D01*
X243396723Y-85464285D02*
X243206247Y-85511904D01*
X243206247Y-85511904D02*
X243063390Y-85511904D01*
X243063390Y-85511904D02*
X242872914Y-85464285D01*
X242872914Y-85464285D02*
X242777676Y-85416666D01*
X242777676Y-85416666D02*
X242682438Y-85321428D01*
X242682438Y-85321428D02*
X242634819Y-85178571D01*
X242634819Y-85178571D02*
X242634819Y-85083333D01*
X242634819Y-85083333D02*
X242682438Y-84940476D01*
X242682438Y-84940476D02*
X242730057Y-84892857D01*
X243634819Y-83940476D02*
X243634819Y-84511904D01*
X243634819Y-84226190D02*
X242634819Y-84226190D01*
X242634819Y-84226190D02*
X242777676Y-84321428D01*
X242777676Y-84321428D02*
X242872914Y-84416666D01*
X242872914Y-84416666D02*
X242920533Y-84511904D01*
X242634819Y-83321428D02*
X242634819Y-83226190D01*
X242634819Y-83226190D02*
X242682438Y-83130952D01*
X242682438Y-83130952D02*
X242730057Y-83083333D01*
X242730057Y-83083333D02*
X242825295Y-83035714D01*
X242825295Y-83035714D02*
X243015771Y-82988095D01*
X243015771Y-82988095D02*
X243253866Y-82988095D01*
X243253866Y-82988095D02*
X243444342Y-83035714D01*
X243444342Y-83035714D02*
X243539580Y-83083333D01*
X243539580Y-83083333D02*
X243587200Y-83130952D01*
X243587200Y-83130952D02*
X243634819Y-83226190D01*
X243634819Y-83226190D02*
X243634819Y-83321428D01*
X243634819Y-83321428D02*
X243587200Y-83416666D01*
X243587200Y-83416666D02*
X243539580Y-83464285D01*
X243539580Y-83464285D02*
X243444342Y-83511904D01*
X243444342Y-83511904D02*
X243253866Y-83559523D01*
X243253866Y-83559523D02*
X243015771Y-83559523D01*
X243015771Y-83559523D02*
X242825295Y-83511904D01*
X242825295Y-83511904D02*
X242730057Y-83464285D01*
X242730057Y-83464285D02*
X242682438Y-83416666D01*
X242682438Y-83416666D02*
X242634819Y-83321428D01*
X233384819Y-73567857D02*
X232908628Y-73901190D01*
X233384819Y-74139285D02*
X232384819Y-74139285D01*
X232384819Y-74139285D02*
X232384819Y-73758333D01*
X232384819Y-73758333D02*
X232432438Y-73663095D01*
X232432438Y-73663095D02*
X232480057Y-73615476D01*
X232480057Y-73615476D02*
X232575295Y-73567857D01*
X232575295Y-73567857D02*
X232718152Y-73567857D01*
X232718152Y-73567857D02*
X232813390Y-73615476D01*
X232813390Y-73615476D02*
X232861009Y-73663095D01*
X232861009Y-73663095D02*
X232908628Y-73758333D01*
X232908628Y-73758333D02*
X232908628Y-74139285D01*
X233384819Y-72615476D02*
X233384819Y-73186904D01*
X233384819Y-72901190D02*
X232384819Y-72901190D01*
X232384819Y-72901190D02*
X232527676Y-72996428D01*
X232527676Y-72996428D02*
X232622914Y-73091666D01*
X232622914Y-73091666D02*
X232670533Y-73186904D01*
X232718152Y-71758333D02*
X233384819Y-71758333D01*
X232337200Y-71996428D02*
X233051485Y-72234523D01*
X233051485Y-72234523D02*
X233051485Y-71615476D01*
X224772319Y-85916666D02*
X224296128Y-86249999D01*
X224772319Y-86488094D02*
X223772319Y-86488094D01*
X223772319Y-86488094D02*
X223772319Y-86107142D01*
X223772319Y-86107142D02*
X223819938Y-86011904D01*
X223819938Y-86011904D02*
X223867557Y-85964285D01*
X223867557Y-85964285D02*
X223962795Y-85916666D01*
X223962795Y-85916666D02*
X224105652Y-85916666D01*
X224105652Y-85916666D02*
X224200890Y-85964285D01*
X224200890Y-85964285D02*
X224248509Y-86011904D01*
X224248509Y-86011904D02*
X224296128Y-86107142D01*
X224296128Y-86107142D02*
X224296128Y-86488094D01*
X224105652Y-85059523D02*
X224772319Y-85059523D01*
X223724700Y-85297618D02*
X224438985Y-85535713D01*
X224438985Y-85535713D02*
X224438985Y-84916666D01*
X206677080Y-82104166D02*
X206724700Y-82151785D01*
X206724700Y-82151785D02*
X206772319Y-82294642D01*
X206772319Y-82294642D02*
X206772319Y-82389880D01*
X206772319Y-82389880D02*
X206724700Y-82532737D01*
X206724700Y-82532737D02*
X206629461Y-82627975D01*
X206629461Y-82627975D02*
X206534223Y-82675594D01*
X206534223Y-82675594D02*
X206343747Y-82723213D01*
X206343747Y-82723213D02*
X206200890Y-82723213D01*
X206200890Y-82723213D02*
X206010414Y-82675594D01*
X206010414Y-82675594D02*
X205915176Y-82627975D01*
X205915176Y-82627975D02*
X205819938Y-82532737D01*
X205819938Y-82532737D02*
X205772319Y-82389880D01*
X205772319Y-82389880D02*
X205772319Y-82294642D01*
X205772319Y-82294642D02*
X205819938Y-82151785D01*
X205819938Y-82151785D02*
X205867557Y-82104166D01*
X206772319Y-81151785D02*
X206772319Y-81723213D01*
X206772319Y-81437499D02*
X205772319Y-81437499D01*
X205772319Y-81437499D02*
X205915176Y-81532737D01*
X205915176Y-81532737D02*
X206010414Y-81627975D01*
X206010414Y-81627975D02*
X206058033Y-81723213D01*
X206795180Y-97416666D02*
X206080895Y-97416666D01*
X206080895Y-97416666D02*
X205938038Y-97369047D01*
X205938038Y-97369047D02*
X205842800Y-97273809D01*
X205842800Y-97273809D02*
X205795180Y-97130952D01*
X205795180Y-97130952D02*
X205795180Y-97035714D01*
X206795180Y-97797619D02*
X206795180Y-98416666D01*
X206795180Y-98416666D02*
X206414228Y-98083333D01*
X206414228Y-98083333D02*
X206414228Y-98226190D01*
X206414228Y-98226190D02*
X206366609Y-98321428D01*
X206366609Y-98321428D02*
X206318990Y-98369047D01*
X206318990Y-98369047D02*
X206223752Y-98416666D01*
X206223752Y-98416666D02*
X205985657Y-98416666D01*
X205985657Y-98416666D02*
X205890419Y-98369047D01*
X205890419Y-98369047D02*
X205842800Y-98321428D01*
X205842800Y-98321428D02*
X205795180Y-98226190D01*
X205795180Y-98226190D02*
X205795180Y-97940476D01*
X205795180Y-97940476D02*
X205842800Y-97845238D01*
X205842800Y-97845238D02*
X205890419Y-97797619D01*
X246634819Y-80666666D02*
X246158628Y-80999999D01*
X246634819Y-81238094D02*
X245634819Y-81238094D01*
X245634819Y-81238094D02*
X245634819Y-80857142D01*
X245634819Y-80857142D02*
X245682438Y-80761904D01*
X245682438Y-80761904D02*
X245730057Y-80714285D01*
X245730057Y-80714285D02*
X245825295Y-80666666D01*
X245825295Y-80666666D02*
X245968152Y-80666666D01*
X245968152Y-80666666D02*
X246063390Y-80714285D01*
X246063390Y-80714285D02*
X246111009Y-80761904D01*
X246111009Y-80761904D02*
X246158628Y-80857142D01*
X246158628Y-80857142D02*
X246158628Y-81238094D01*
X246634819Y-80190475D02*
X246634819Y-79999999D01*
X246634819Y-79999999D02*
X246587200Y-79904761D01*
X246587200Y-79904761D02*
X246539580Y-79857142D01*
X246539580Y-79857142D02*
X246396723Y-79761904D01*
X246396723Y-79761904D02*
X246206247Y-79714285D01*
X246206247Y-79714285D02*
X245825295Y-79714285D01*
X245825295Y-79714285D02*
X245730057Y-79761904D01*
X245730057Y-79761904D02*
X245682438Y-79809523D01*
X245682438Y-79809523D02*
X245634819Y-79904761D01*
X245634819Y-79904761D02*
X245634819Y-80095237D01*
X245634819Y-80095237D02*
X245682438Y-80190475D01*
X245682438Y-80190475D02*
X245730057Y-80238094D01*
X245730057Y-80238094D02*
X245825295Y-80285713D01*
X245825295Y-80285713D02*
X246063390Y-80285713D01*
X246063390Y-80285713D02*
X246158628Y-80238094D01*
X246158628Y-80238094D02*
X246206247Y-80190475D01*
X246206247Y-80190475D02*
X246253866Y-80095237D01*
X246253866Y-80095237D02*
X246253866Y-79904761D01*
X246253866Y-79904761D02*
X246206247Y-79809523D01*
X246206247Y-79809523D02*
X246158628Y-79761904D01*
X246158628Y-79761904D02*
X246063390Y-79714285D01*
X233272319Y-86392857D02*
X232796128Y-86726190D01*
X233272319Y-86964285D02*
X232272319Y-86964285D01*
X232272319Y-86964285D02*
X232272319Y-86583333D01*
X232272319Y-86583333D02*
X232319938Y-86488095D01*
X232319938Y-86488095D02*
X232367557Y-86440476D01*
X232367557Y-86440476D02*
X232462795Y-86392857D01*
X232462795Y-86392857D02*
X232605652Y-86392857D01*
X232605652Y-86392857D02*
X232700890Y-86440476D01*
X232700890Y-86440476D02*
X232748509Y-86488095D01*
X232748509Y-86488095D02*
X232796128Y-86583333D01*
X232796128Y-86583333D02*
X232796128Y-86964285D01*
X233272319Y-85440476D02*
X233272319Y-86011904D01*
X233272319Y-85726190D02*
X232272319Y-85726190D01*
X232272319Y-85726190D02*
X232415176Y-85821428D01*
X232415176Y-85821428D02*
X232510414Y-85916666D01*
X232510414Y-85916666D02*
X232558033Y-86011904D01*
X232272319Y-84535714D02*
X232272319Y-85011904D01*
X232272319Y-85011904D02*
X232748509Y-85059523D01*
X232748509Y-85059523D02*
X232700890Y-85011904D01*
X232700890Y-85011904D02*
X232653271Y-84916666D01*
X232653271Y-84916666D02*
X232653271Y-84678571D01*
X232653271Y-84678571D02*
X232700890Y-84583333D01*
X232700890Y-84583333D02*
X232748509Y-84535714D01*
X232748509Y-84535714D02*
X232843747Y-84488095D01*
X232843747Y-84488095D02*
X233081842Y-84488095D01*
X233081842Y-84488095D02*
X233177080Y-84535714D01*
X233177080Y-84535714D02*
X233224700Y-84583333D01*
X233224700Y-84583333D02*
X233272319Y-84678571D01*
X233272319Y-84678571D02*
X233272319Y-84916666D01*
X233272319Y-84916666D02*
X233224700Y-85011904D01*
X233224700Y-85011904D02*
X233177080Y-85059523D01*
X233454819Y-83238094D02*
X232454819Y-83238094D01*
X232454819Y-83238094D02*
X232454819Y-82999999D01*
X232454819Y-82999999D02*
X232502438Y-82857142D01*
X232502438Y-82857142D02*
X232597676Y-82761904D01*
X232597676Y-82761904D02*
X232692914Y-82714285D01*
X232692914Y-82714285D02*
X232883390Y-82666666D01*
X232883390Y-82666666D02*
X233026247Y-82666666D01*
X233026247Y-82666666D02*
X233216723Y-82714285D01*
X233216723Y-82714285D02*
X233311961Y-82761904D01*
X233311961Y-82761904D02*
X233407200Y-82857142D01*
X233407200Y-82857142D02*
X233454819Y-82999999D01*
X233454819Y-82999999D02*
X233454819Y-83238094D01*
X232550057Y-82285713D02*
X232502438Y-82238094D01*
X232502438Y-82238094D02*
X232454819Y-82142856D01*
X232454819Y-82142856D02*
X232454819Y-81904761D01*
X232454819Y-81904761D02*
X232502438Y-81809523D01*
X232502438Y-81809523D02*
X232550057Y-81761904D01*
X232550057Y-81761904D02*
X232645295Y-81714285D01*
X232645295Y-81714285D02*
X232740533Y-81714285D01*
X232740533Y-81714285D02*
X232883390Y-81761904D01*
X232883390Y-81761904D02*
X233454819Y-82333332D01*
X233454819Y-82333332D02*
X233454819Y-81714285D01*
X239666666Y-106334819D02*
X239666666Y-107049104D01*
X239666666Y-107049104D02*
X239619047Y-107191961D01*
X239619047Y-107191961D02*
X239523809Y-107287200D01*
X239523809Y-107287200D02*
X239380952Y-107334819D01*
X239380952Y-107334819D02*
X239285714Y-107334819D01*
X240095238Y-106430057D02*
X240142857Y-106382438D01*
X240142857Y-106382438D02*
X240238095Y-106334819D01*
X240238095Y-106334819D02*
X240476190Y-106334819D01*
X240476190Y-106334819D02*
X240571428Y-106382438D01*
X240571428Y-106382438D02*
X240619047Y-106430057D01*
X240619047Y-106430057D02*
X240666666Y-106525295D01*
X240666666Y-106525295D02*
X240666666Y-106620533D01*
X240666666Y-106620533D02*
X240619047Y-106763390D01*
X240619047Y-106763390D02*
X240047619Y-107334819D01*
X240047619Y-107334819D02*
X240666666Y-107334819D01*
X248166666Y-95254819D02*
X248166666Y-95969104D01*
X248166666Y-95969104D02*
X248119047Y-96111961D01*
X248119047Y-96111961D02*
X248023809Y-96207200D01*
X248023809Y-96207200D02*
X247880952Y-96254819D01*
X247880952Y-96254819D02*
X247785714Y-96254819D01*
X249071428Y-95588152D02*
X249071428Y-96254819D01*
X248833333Y-95207200D02*
X248595238Y-95921485D01*
X248595238Y-95921485D02*
X249214285Y-95921485D01*
X233416666Y-123504819D02*
X233416666Y-124219104D01*
X233416666Y-124219104D02*
X233369047Y-124361961D01*
X233369047Y-124361961D02*
X233273809Y-124457200D01*
X233273809Y-124457200D02*
X233130952Y-124504819D01*
X233130952Y-124504819D02*
X233035714Y-124504819D01*
X233940476Y-124504819D02*
X234130952Y-124504819D01*
X234130952Y-124504819D02*
X234226190Y-124457200D01*
X234226190Y-124457200D02*
X234273809Y-124409580D01*
X234273809Y-124409580D02*
X234369047Y-124266723D01*
X234369047Y-124266723D02*
X234416666Y-124076247D01*
X234416666Y-124076247D02*
X234416666Y-123695295D01*
X234416666Y-123695295D02*
X234369047Y-123600057D01*
X234369047Y-123600057D02*
X234321428Y-123552438D01*
X234321428Y-123552438D02*
X234226190Y-123504819D01*
X234226190Y-123504819D02*
X234035714Y-123504819D01*
X234035714Y-123504819D02*
X233940476Y-123552438D01*
X233940476Y-123552438D02*
X233892857Y-123600057D01*
X233892857Y-123600057D02*
X233845238Y-123695295D01*
X233845238Y-123695295D02*
X233845238Y-123933390D01*
X233845238Y-123933390D02*
X233892857Y-124028628D01*
X233892857Y-124028628D02*
X233940476Y-124076247D01*
X233940476Y-124076247D02*
X234035714Y-124123866D01*
X234035714Y-124123866D02*
X234226190Y-124123866D01*
X234226190Y-124123866D02*
X234321428Y-124076247D01*
X234321428Y-124076247D02*
X234369047Y-124028628D01*
X234369047Y-124028628D02*
X234416666Y-123933390D01*
X244107142Y-120204819D02*
X243630952Y-120204819D01*
X243630952Y-120204819D02*
X243630952Y-119204819D01*
X244392857Y-120157200D02*
X244535714Y-120204819D01*
X244535714Y-120204819D02*
X244773809Y-120204819D01*
X244773809Y-120204819D02*
X244869047Y-120157200D01*
X244869047Y-120157200D02*
X244916666Y-120109580D01*
X244916666Y-120109580D02*
X244964285Y-120014342D01*
X244964285Y-120014342D02*
X244964285Y-119919104D01*
X244964285Y-119919104D02*
X244916666Y-119823866D01*
X244916666Y-119823866D02*
X244869047Y-119776247D01*
X244869047Y-119776247D02*
X244773809Y-119728628D01*
X244773809Y-119728628D02*
X244583333Y-119681009D01*
X244583333Y-119681009D02*
X244488095Y-119633390D01*
X244488095Y-119633390D02*
X244440476Y-119585771D01*
X244440476Y-119585771D02*
X244392857Y-119490533D01*
X244392857Y-119490533D02*
X244392857Y-119395295D01*
X244392857Y-119395295D02*
X244440476Y-119300057D01*
X244440476Y-119300057D02*
X244488095Y-119252438D01*
X244488095Y-119252438D02*
X244583333Y-119204819D01*
X244583333Y-119204819D02*
X244821428Y-119204819D01*
X244821428Y-119204819D02*
X244964285Y-119252438D01*
X245916666Y-120204819D02*
X245345238Y-120204819D01*
X245630952Y-120204819D02*
X245630952Y-119204819D01*
X245630952Y-119204819D02*
X245535714Y-119347676D01*
X245535714Y-119347676D02*
X245440476Y-119442914D01*
X245440476Y-119442914D02*
X245345238Y-119490533D01*
X237539580Y-73091666D02*
X237587200Y-73139285D01*
X237587200Y-73139285D02*
X237634819Y-73282142D01*
X237634819Y-73282142D02*
X237634819Y-73377380D01*
X237634819Y-73377380D02*
X237587200Y-73520237D01*
X237587200Y-73520237D02*
X237491961Y-73615475D01*
X237491961Y-73615475D02*
X237396723Y-73663094D01*
X237396723Y-73663094D02*
X237206247Y-73710713D01*
X237206247Y-73710713D02*
X237063390Y-73710713D01*
X237063390Y-73710713D02*
X236872914Y-73663094D01*
X236872914Y-73663094D02*
X236777676Y-73615475D01*
X236777676Y-73615475D02*
X236682438Y-73520237D01*
X236682438Y-73520237D02*
X236634819Y-73377380D01*
X236634819Y-73377380D02*
X236634819Y-73282142D01*
X236634819Y-73282142D02*
X236682438Y-73139285D01*
X236682438Y-73139285D02*
X236730057Y-73091666D01*
X236634819Y-72758332D02*
X236634819Y-72091666D01*
X236634819Y-72091666D02*
X237634819Y-72520237D01*
X246039580Y-76416666D02*
X246087200Y-76464285D01*
X246087200Y-76464285D02*
X246134819Y-76607142D01*
X246134819Y-76607142D02*
X246134819Y-76702380D01*
X246134819Y-76702380D02*
X246087200Y-76845237D01*
X246087200Y-76845237D02*
X245991961Y-76940475D01*
X245991961Y-76940475D02*
X245896723Y-76988094D01*
X245896723Y-76988094D02*
X245706247Y-77035713D01*
X245706247Y-77035713D02*
X245563390Y-77035713D01*
X245563390Y-77035713D02*
X245372914Y-76988094D01*
X245372914Y-76988094D02*
X245277676Y-76940475D01*
X245277676Y-76940475D02*
X245182438Y-76845237D01*
X245182438Y-76845237D02*
X245134819Y-76702380D01*
X245134819Y-76702380D02*
X245134819Y-76607142D01*
X245134819Y-76607142D02*
X245182438Y-76464285D01*
X245182438Y-76464285D02*
X245230057Y-76416666D01*
X245563390Y-75845237D02*
X245515771Y-75940475D01*
X245515771Y-75940475D02*
X245468152Y-75988094D01*
X245468152Y-75988094D02*
X245372914Y-76035713D01*
X245372914Y-76035713D02*
X245325295Y-76035713D01*
X245325295Y-76035713D02*
X245230057Y-75988094D01*
X245230057Y-75988094D02*
X245182438Y-75940475D01*
X245182438Y-75940475D02*
X245134819Y-75845237D01*
X245134819Y-75845237D02*
X245134819Y-75654761D01*
X245134819Y-75654761D02*
X245182438Y-75559523D01*
X245182438Y-75559523D02*
X245230057Y-75511904D01*
X245230057Y-75511904D02*
X245325295Y-75464285D01*
X245325295Y-75464285D02*
X245372914Y-75464285D01*
X245372914Y-75464285D02*
X245468152Y-75511904D01*
X245468152Y-75511904D02*
X245515771Y-75559523D01*
X245515771Y-75559523D02*
X245563390Y-75654761D01*
X245563390Y-75654761D02*
X245563390Y-75845237D01*
X245563390Y-75845237D02*
X245611009Y-75940475D01*
X245611009Y-75940475D02*
X245658628Y-75988094D01*
X245658628Y-75988094D02*
X245753866Y-76035713D01*
X245753866Y-76035713D02*
X245944342Y-76035713D01*
X245944342Y-76035713D02*
X246039580Y-75988094D01*
X246039580Y-75988094D02*
X246087200Y-75940475D01*
X246087200Y-75940475D02*
X246134819Y-75845237D01*
X246134819Y-75845237D02*
X246134819Y-75654761D01*
X246134819Y-75654761D02*
X246087200Y-75559523D01*
X246087200Y-75559523D02*
X246039580Y-75511904D01*
X246039580Y-75511904D02*
X245944342Y-75464285D01*
X245944342Y-75464285D02*
X245753866Y-75464285D01*
X245753866Y-75464285D02*
X245658628Y-75511904D01*
X245658628Y-75511904D02*
X245611009Y-75559523D01*
X245611009Y-75559523D02*
X245563390Y-75654761D01*
X235357142Y-113524819D02*
X235023809Y-113048628D01*
X234785714Y-113524819D02*
X234785714Y-112524819D01*
X234785714Y-112524819D02*
X235166666Y-112524819D01*
X235166666Y-112524819D02*
X235261904Y-112572438D01*
X235261904Y-112572438D02*
X235309523Y-112620057D01*
X235309523Y-112620057D02*
X235357142Y-112715295D01*
X235357142Y-112715295D02*
X235357142Y-112858152D01*
X235357142Y-112858152D02*
X235309523Y-112953390D01*
X235309523Y-112953390D02*
X235261904Y-113001009D01*
X235261904Y-113001009D02*
X235166666Y-113048628D01*
X235166666Y-113048628D02*
X234785714Y-113048628D01*
X236309523Y-113524819D02*
X235738095Y-113524819D01*
X236023809Y-113524819D02*
X236023809Y-112524819D01*
X236023809Y-112524819D02*
X235928571Y-112667676D01*
X235928571Y-112667676D02*
X235833333Y-112762914D01*
X235833333Y-112762914D02*
X235738095Y-112810533D01*
X236880952Y-112953390D02*
X236785714Y-112905771D01*
X236785714Y-112905771D02*
X236738095Y-112858152D01*
X236738095Y-112858152D02*
X236690476Y-112762914D01*
X236690476Y-112762914D02*
X236690476Y-112715295D01*
X236690476Y-112715295D02*
X236738095Y-112620057D01*
X236738095Y-112620057D02*
X236785714Y-112572438D01*
X236785714Y-112572438D02*
X236880952Y-112524819D01*
X236880952Y-112524819D02*
X237071428Y-112524819D01*
X237071428Y-112524819D02*
X237166666Y-112572438D01*
X237166666Y-112572438D02*
X237214285Y-112620057D01*
X237214285Y-112620057D02*
X237261904Y-112715295D01*
X237261904Y-112715295D02*
X237261904Y-112762914D01*
X237261904Y-112762914D02*
X237214285Y-112858152D01*
X237214285Y-112858152D02*
X237166666Y-112905771D01*
X237166666Y-112905771D02*
X237071428Y-112953390D01*
X237071428Y-112953390D02*
X236880952Y-112953390D01*
X236880952Y-112953390D02*
X236785714Y-113001009D01*
X236785714Y-113001009D02*
X236738095Y-113048628D01*
X236738095Y-113048628D02*
X236690476Y-113143866D01*
X236690476Y-113143866D02*
X236690476Y-113334342D01*
X236690476Y-113334342D02*
X236738095Y-113429580D01*
X236738095Y-113429580D02*
X236785714Y-113477200D01*
X236785714Y-113477200D02*
X236880952Y-113524819D01*
X236880952Y-113524819D02*
X237071428Y-113524819D01*
X237071428Y-113524819D02*
X237166666Y-113477200D01*
X237166666Y-113477200D02*
X237214285Y-113429580D01*
X237214285Y-113429580D02*
X237261904Y-113334342D01*
X237261904Y-113334342D02*
X237261904Y-113143866D01*
X237261904Y-113143866D02*
X237214285Y-113048628D01*
X237214285Y-113048628D02*
X237166666Y-113001009D01*
X237166666Y-113001009D02*
X237071428Y-112953390D01*
X230607142Y-113524819D02*
X230273809Y-113048628D01*
X230035714Y-113524819D02*
X230035714Y-112524819D01*
X230035714Y-112524819D02*
X230416666Y-112524819D01*
X230416666Y-112524819D02*
X230511904Y-112572438D01*
X230511904Y-112572438D02*
X230559523Y-112620057D01*
X230559523Y-112620057D02*
X230607142Y-112715295D01*
X230607142Y-112715295D02*
X230607142Y-112858152D01*
X230607142Y-112858152D02*
X230559523Y-112953390D01*
X230559523Y-112953390D02*
X230511904Y-113001009D01*
X230511904Y-113001009D02*
X230416666Y-113048628D01*
X230416666Y-113048628D02*
X230035714Y-113048628D01*
X231559523Y-113524819D02*
X230988095Y-113524819D01*
X231273809Y-113524819D02*
X231273809Y-112524819D01*
X231273809Y-112524819D02*
X231178571Y-112667676D01*
X231178571Y-112667676D02*
X231083333Y-112762914D01*
X231083333Y-112762914D02*
X230988095Y-112810533D01*
X232035714Y-113524819D02*
X232226190Y-113524819D01*
X232226190Y-113524819D02*
X232321428Y-113477200D01*
X232321428Y-113477200D02*
X232369047Y-113429580D01*
X232369047Y-113429580D02*
X232464285Y-113286723D01*
X232464285Y-113286723D02*
X232511904Y-113096247D01*
X232511904Y-113096247D02*
X232511904Y-112715295D01*
X232511904Y-112715295D02*
X232464285Y-112620057D01*
X232464285Y-112620057D02*
X232416666Y-112572438D01*
X232416666Y-112572438D02*
X232321428Y-112524819D01*
X232321428Y-112524819D02*
X232130952Y-112524819D01*
X232130952Y-112524819D02*
X232035714Y-112572438D01*
X232035714Y-112572438D02*
X231988095Y-112620057D01*
X231988095Y-112620057D02*
X231940476Y-112715295D01*
X231940476Y-112715295D02*
X231940476Y-112953390D01*
X231940476Y-112953390D02*
X231988095Y-113048628D01*
X231988095Y-113048628D02*
X232035714Y-113096247D01*
X232035714Y-113096247D02*
X232130952Y-113143866D01*
X232130952Y-113143866D02*
X232321428Y-113143866D01*
X232321428Y-113143866D02*
X232416666Y-113096247D01*
X232416666Y-113096247D02*
X232464285Y-113048628D01*
X232464285Y-113048628D02*
X232511904Y-112953390D01*
X217666666Y-123504819D02*
X217666666Y-124219104D01*
X217666666Y-124219104D02*
X217619047Y-124361961D01*
X217619047Y-124361961D02*
X217523809Y-124457200D01*
X217523809Y-124457200D02*
X217380952Y-124504819D01*
X217380952Y-124504819D02*
X217285714Y-124504819D01*
X218619047Y-123504819D02*
X218142857Y-123504819D01*
X218142857Y-123504819D02*
X218095238Y-123981009D01*
X218095238Y-123981009D02*
X218142857Y-123933390D01*
X218142857Y-123933390D02*
X218238095Y-123885771D01*
X218238095Y-123885771D02*
X218476190Y-123885771D01*
X218476190Y-123885771D02*
X218571428Y-123933390D01*
X218571428Y-123933390D02*
X218619047Y-123981009D01*
X218619047Y-123981009D02*
X218666666Y-124076247D01*
X218666666Y-124076247D02*
X218666666Y-124314342D01*
X218666666Y-124314342D02*
X218619047Y-124409580D01*
X218619047Y-124409580D02*
X218571428Y-124457200D01*
X218571428Y-124457200D02*
X218476190Y-124504819D01*
X218476190Y-124504819D02*
X218238095Y-124504819D01*
X218238095Y-124504819D02*
X218142857Y-124457200D01*
X218142857Y-124457200D02*
X218095238Y-124409580D01*
X203884819Y-90892857D02*
X203408628Y-91226190D01*
X203884819Y-91464285D02*
X202884819Y-91464285D01*
X202884819Y-91464285D02*
X202884819Y-91083333D01*
X202884819Y-91083333D02*
X202932438Y-90988095D01*
X202932438Y-90988095D02*
X202980057Y-90940476D01*
X202980057Y-90940476D02*
X203075295Y-90892857D01*
X203075295Y-90892857D02*
X203218152Y-90892857D01*
X203218152Y-90892857D02*
X203313390Y-90940476D01*
X203313390Y-90940476D02*
X203361009Y-90988095D01*
X203361009Y-90988095D02*
X203408628Y-91083333D01*
X203408628Y-91083333D02*
X203408628Y-91464285D01*
X203884819Y-89940476D02*
X203884819Y-90511904D01*
X203884819Y-90226190D02*
X202884819Y-90226190D01*
X202884819Y-90226190D02*
X203027676Y-90321428D01*
X203027676Y-90321428D02*
X203122914Y-90416666D01*
X203122914Y-90416666D02*
X203170533Y-90511904D01*
X202884819Y-89321428D02*
X202884819Y-89226190D01*
X202884819Y-89226190D02*
X202932438Y-89130952D01*
X202932438Y-89130952D02*
X202980057Y-89083333D01*
X202980057Y-89083333D02*
X203075295Y-89035714D01*
X203075295Y-89035714D02*
X203265771Y-88988095D01*
X203265771Y-88988095D02*
X203503866Y-88988095D01*
X203503866Y-88988095D02*
X203694342Y-89035714D01*
X203694342Y-89035714D02*
X203789580Y-89083333D01*
X203789580Y-89083333D02*
X203837200Y-89130952D01*
X203837200Y-89130952D02*
X203884819Y-89226190D01*
X203884819Y-89226190D02*
X203884819Y-89321428D01*
X203884819Y-89321428D02*
X203837200Y-89416666D01*
X203837200Y-89416666D02*
X203789580Y-89464285D01*
X203789580Y-89464285D02*
X203694342Y-89511904D01*
X203694342Y-89511904D02*
X203503866Y-89559523D01*
X203503866Y-89559523D02*
X203265771Y-89559523D01*
X203265771Y-89559523D02*
X203075295Y-89511904D01*
X203075295Y-89511904D02*
X202980057Y-89464285D01*
X202980057Y-89464285D02*
X202932438Y-89416666D01*
X202932438Y-89416666D02*
X202884819Y-89321428D01*
X224772319Y-82666666D02*
X224296128Y-82999999D01*
X224772319Y-83238094D02*
X223772319Y-83238094D01*
X223772319Y-83238094D02*
X223772319Y-82857142D01*
X223772319Y-82857142D02*
X223819938Y-82761904D01*
X223819938Y-82761904D02*
X223867557Y-82714285D01*
X223867557Y-82714285D02*
X223962795Y-82666666D01*
X223962795Y-82666666D02*
X224105652Y-82666666D01*
X224105652Y-82666666D02*
X224200890Y-82714285D01*
X224200890Y-82714285D02*
X224248509Y-82761904D01*
X224248509Y-82761904D02*
X224296128Y-82857142D01*
X224296128Y-82857142D02*
X224296128Y-83238094D01*
X223772319Y-81761904D02*
X223772319Y-82238094D01*
X223772319Y-82238094D02*
X224248509Y-82285713D01*
X224248509Y-82285713D02*
X224200890Y-82238094D01*
X224200890Y-82238094D02*
X224153271Y-82142856D01*
X224153271Y-82142856D02*
X224153271Y-81904761D01*
X224153271Y-81904761D02*
X224200890Y-81809523D01*
X224200890Y-81809523D02*
X224248509Y-81761904D01*
X224248509Y-81761904D02*
X224343747Y-81714285D01*
X224343747Y-81714285D02*
X224581842Y-81714285D01*
X224581842Y-81714285D02*
X224677080Y-81761904D01*
X224677080Y-81761904D02*
X224724700Y-81809523D01*
X224724700Y-81809523D02*
X224772319Y-81904761D01*
X224772319Y-81904761D02*
X224772319Y-82142856D01*
X224772319Y-82142856D02*
X224724700Y-82238094D01*
X224724700Y-82238094D02*
X224677080Y-82285713D01*
X247789580Y-84416666D02*
X247837200Y-84464285D01*
X247837200Y-84464285D02*
X247884819Y-84607142D01*
X247884819Y-84607142D02*
X247884819Y-84702380D01*
X247884819Y-84702380D02*
X247837200Y-84845237D01*
X247837200Y-84845237D02*
X247741961Y-84940475D01*
X247741961Y-84940475D02*
X247646723Y-84988094D01*
X247646723Y-84988094D02*
X247456247Y-85035713D01*
X247456247Y-85035713D02*
X247313390Y-85035713D01*
X247313390Y-85035713D02*
X247122914Y-84988094D01*
X247122914Y-84988094D02*
X247027676Y-84940475D01*
X247027676Y-84940475D02*
X246932438Y-84845237D01*
X246932438Y-84845237D02*
X246884819Y-84702380D01*
X246884819Y-84702380D02*
X246884819Y-84607142D01*
X246884819Y-84607142D02*
X246932438Y-84464285D01*
X246932438Y-84464285D02*
X246980057Y-84416666D01*
X247884819Y-83940475D02*
X247884819Y-83749999D01*
X247884819Y-83749999D02*
X247837200Y-83654761D01*
X247837200Y-83654761D02*
X247789580Y-83607142D01*
X247789580Y-83607142D02*
X247646723Y-83511904D01*
X247646723Y-83511904D02*
X247456247Y-83464285D01*
X247456247Y-83464285D02*
X247075295Y-83464285D01*
X247075295Y-83464285D02*
X246980057Y-83511904D01*
X246980057Y-83511904D02*
X246932438Y-83559523D01*
X246932438Y-83559523D02*
X246884819Y-83654761D01*
X246884819Y-83654761D02*
X246884819Y-83845237D01*
X246884819Y-83845237D02*
X246932438Y-83940475D01*
X246932438Y-83940475D02*
X246980057Y-83988094D01*
X246980057Y-83988094D02*
X247075295Y-84035713D01*
X247075295Y-84035713D02*
X247313390Y-84035713D01*
X247313390Y-84035713D02*
X247408628Y-83988094D01*
X247408628Y-83988094D02*
X247456247Y-83940475D01*
X247456247Y-83940475D02*
X247503866Y-83845237D01*
X247503866Y-83845237D02*
X247503866Y-83654761D01*
X247503866Y-83654761D02*
X247456247Y-83559523D01*
X247456247Y-83559523D02*
X247408628Y-83511904D01*
X247408628Y-83511904D02*
X247313390Y-83464285D01*
X209600000Y-103781009D02*
X209933333Y-103781009D01*
X210076190Y-104304819D02*
X209600000Y-104304819D01*
X209600000Y-104304819D02*
X209600000Y-103304819D01*
X209600000Y-103304819D02*
X210076190Y-103304819D01*
X210504762Y-104304819D02*
X210504762Y-103304819D01*
X210504762Y-103304819D02*
X211076190Y-104304819D01*
X211076190Y-104304819D02*
X211076190Y-103304819D01*
X211504762Y-104019104D02*
X211980952Y-104019104D01*
X211409524Y-104304819D02*
X211742857Y-103304819D01*
X211742857Y-103304819D02*
X212076190Y-104304819D01*
X212742857Y-103781009D02*
X212885714Y-103828628D01*
X212885714Y-103828628D02*
X212933333Y-103876247D01*
X212933333Y-103876247D02*
X212980952Y-103971485D01*
X212980952Y-103971485D02*
X212980952Y-104114342D01*
X212980952Y-104114342D02*
X212933333Y-104209580D01*
X212933333Y-104209580D02*
X212885714Y-104257200D01*
X212885714Y-104257200D02*
X212790476Y-104304819D01*
X212790476Y-104304819D02*
X212409524Y-104304819D01*
X212409524Y-104304819D02*
X212409524Y-103304819D01*
X212409524Y-103304819D02*
X212742857Y-103304819D01*
X212742857Y-103304819D02*
X212838095Y-103352438D01*
X212838095Y-103352438D02*
X212885714Y-103400057D01*
X212885714Y-103400057D02*
X212933333Y-103495295D01*
X212933333Y-103495295D02*
X212933333Y-103590533D01*
X212933333Y-103590533D02*
X212885714Y-103685771D01*
X212885714Y-103685771D02*
X212838095Y-103733390D01*
X212838095Y-103733390D02*
X212742857Y-103781009D01*
X212742857Y-103781009D02*
X212409524Y-103781009D01*
X213885714Y-104304819D02*
X213409524Y-104304819D01*
X213409524Y-104304819D02*
X213409524Y-103304819D01*
X214219048Y-103781009D02*
X214552381Y-103781009D01*
X214695238Y-104304819D02*
X214219048Y-104304819D01*
X214219048Y-104304819D02*
X214219048Y-103304819D01*
X214219048Y-103304819D02*
X214695238Y-103304819D01*
X215647619Y-104304819D02*
X215076191Y-104304819D01*
X215361905Y-104304819D02*
X215361905Y-103304819D01*
X215361905Y-103304819D02*
X215266667Y-103447676D01*
X215266667Y-103447676D02*
X215171429Y-103542914D01*
X215171429Y-103542914D02*
X215076191Y-103590533D01*
X206666666Y-114504819D02*
X206666666Y-115219104D01*
X206666666Y-115219104D02*
X206619047Y-115361961D01*
X206619047Y-115361961D02*
X206523809Y-115457200D01*
X206523809Y-115457200D02*
X206380952Y-115504819D01*
X206380952Y-115504819D02*
X206285714Y-115504819D01*
X207571428Y-114504819D02*
X207380952Y-114504819D01*
X207380952Y-114504819D02*
X207285714Y-114552438D01*
X207285714Y-114552438D02*
X207238095Y-114600057D01*
X207238095Y-114600057D02*
X207142857Y-114742914D01*
X207142857Y-114742914D02*
X207095238Y-114933390D01*
X207095238Y-114933390D02*
X207095238Y-115314342D01*
X207095238Y-115314342D02*
X207142857Y-115409580D01*
X207142857Y-115409580D02*
X207190476Y-115457200D01*
X207190476Y-115457200D02*
X207285714Y-115504819D01*
X207285714Y-115504819D02*
X207476190Y-115504819D01*
X207476190Y-115504819D02*
X207571428Y-115457200D01*
X207571428Y-115457200D02*
X207619047Y-115409580D01*
X207619047Y-115409580D02*
X207666666Y-115314342D01*
X207666666Y-115314342D02*
X207666666Y-115076247D01*
X207666666Y-115076247D02*
X207619047Y-114981009D01*
X207619047Y-114981009D02*
X207571428Y-114933390D01*
X207571428Y-114933390D02*
X207476190Y-114885771D01*
X207476190Y-114885771D02*
X207285714Y-114885771D01*
X207285714Y-114885771D02*
X207190476Y-114933390D01*
X207190476Y-114933390D02*
X207142857Y-114981009D01*
X207142857Y-114981009D02*
X207095238Y-115076247D01*
X219884819Y-111392857D02*
X219408628Y-111726190D01*
X219884819Y-111964285D02*
X218884819Y-111964285D01*
X218884819Y-111964285D02*
X218884819Y-111583333D01*
X218884819Y-111583333D02*
X218932438Y-111488095D01*
X218932438Y-111488095D02*
X218980057Y-111440476D01*
X218980057Y-111440476D02*
X219075295Y-111392857D01*
X219075295Y-111392857D02*
X219218152Y-111392857D01*
X219218152Y-111392857D02*
X219313390Y-111440476D01*
X219313390Y-111440476D02*
X219361009Y-111488095D01*
X219361009Y-111488095D02*
X219408628Y-111583333D01*
X219408628Y-111583333D02*
X219408628Y-111964285D01*
X219884819Y-110440476D02*
X219884819Y-111011904D01*
X219884819Y-110726190D02*
X218884819Y-110726190D01*
X218884819Y-110726190D02*
X219027676Y-110821428D01*
X219027676Y-110821428D02*
X219122914Y-110916666D01*
X219122914Y-110916666D02*
X219170533Y-111011904D01*
X218884819Y-110107142D02*
X218884819Y-109440476D01*
X218884819Y-109440476D02*
X219884819Y-109869047D01*
X219857142Y-113524819D02*
X219523809Y-113048628D01*
X219285714Y-113524819D02*
X219285714Y-112524819D01*
X219285714Y-112524819D02*
X219666666Y-112524819D01*
X219666666Y-112524819D02*
X219761904Y-112572438D01*
X219761904Y-112572438D02*
X219809523Y-112620057D01*
X219809523Y-112620057D02*
X219857142Y-112715295D01*
X219857142Y-112715295D02*
X219857142Y-112858152D01*
X219857142Y-112858152D02*
X219809523Y-112953390D01*
X219809523Y-112953390D02*
X219761904Y-113001009D01*
X219761904Y-113001009D02*
X219666666Y-113048628D01*
X219666666Y-113048628D02*
X219285714Y-113048628D01*
X220809523Y-113524819D02*
X220238095Y-113524819D01*
X220523809Y-113524819D02*
X220523809Y-112524819D01*
X220523809Y-112524819D02*
X220428571Y-112667676D01*
X220428571Y-112667676D02*
X220333333Y-112762914D01*
X220333333Y-112762914D02*
X220238095Y-112810533D01*
X221142857Y-112524819D02*
X221761904Y-112524819D01*
X221761904Y-112524819D02*
X221428571Y-112905771D01*
X221428571Y-112905771D02*
X221571428Y-112905771D01*
X221571428Y-112905771D02*
X221666666Y-112953390D01*
X221666666Y-112953390D02*
X221714285Y-113001009D01*
X221714285Y-113001009D02*
X221761904Y-113096247D01*
X221761904Y-113096247D02*
X221761904Y-113334342D01*
X221761904Y-113334342D02*
X221714285Y-113429580D01*
X221714285Y-113429580D02*
X221666666Y-113477200D01*
X221666666Y-113477200D02*
X221571428Y-113524819D01*
X221571428Y-113524819D02*
X221285714Y-113524819D01*
X221285714Y-113524819D02*
X221190476Y-113477200D01*
X221190476Y-113477200D02*
X221142857Y-113429580D01*
D13*
%TO.C,U4*%
X217900000Y-89390000D02*
X217400000Y-89390000D01*
X217900000Y-88890000D01*
X217900000Y-89390000D01*
G36*
X217900000Y-89390000D02*
G01*
X217400000Y-89390000D01*
X217900000Y-88890000D01*
X217900000Y-89390000D01*
G37*
X236300000Y-108240000D02*
X236300000Y-107240000D01*
X236300000Y-108240000D02*
X234800000Y-108240000D01*
X236300000Y-88640000D02*
X236300000Y-89340000D01*
X217900000Y-108240000D02*
X219400000Y-108240000D01*
X217900000Y-107240000D02*
X217900000Y-108240000D01*
X217900000Y-88640000D02*
X236300000Y-88640000D01*
%TO.C,U2*%
D10*
X235035000Y-80948000D02*
G75*
G02*
X234735000Y-80948000I-150000J0D01*
G01*
X234735000Y-80948000D02*
G75*
G02*
X235035000Y-80948000I150000J0D01*
G01*
D12*
X235550000Y-81250000D02*
X236150000Y-81250000D01*
X238850000Y-81250000D02*
X238250000Y-81250000D01*
X238850000Y-85675000D02*
X235550000Y-85675000D01*
%TO.C,U1*%
D10*
X212022500Y-80948000D02*
G75*
G02*
X211722500Y-80948000I-150000J0D01*
G01*
X211722500Y-80948000D02*
G75*
G02*
X212022500Y-80948000I150000J0D01*
G01*
D12*
X212537500Y-81250000D02*
X213137500Y-81250000D01*
X215837500Y-81250000D02*
X215237500Y-81250000D01*
X215837500Y-85675000D02*
X212537500Y-85675000D01*
%TO.C,D1*%
D13*
X230765000Y-75375000D02*
X230765000Y-77660000D01*
X230765000Y-77660000D02*
X232235000Y-77660000D01*
X232235000Y-77660000D02*
X232235000Y-75375000D01*
%TO.C,D3*%
X240735000Y-94275000D02*
X240735000Y-91990000D01*
X239265000Y-94275000D02*
X240735000Y-94275000D01*
X239265000Y-91990000D02*
X239265000Y-94275000D01*
%TO.C,Q1*%
X212740000Y-108690000D02*
X214260000Y-108690000D01*
X212740000Y-109690000D02*
X212740000Y-108690000D01*
X212740000Y-111810000D02*
X212740000Y-110810000D01*
X214260000Y-108690000D02*
X214260000Y-108740000D01*
X214260000Y-109860000D02*
X214260000Y-110640000D01*
X214260000Y-111760000D02*
X214260000Y-111810000D01*
X214260000Y-111810000D02*
X212740000Y-111810000D01*
X214800000Y-110630000D02*
X214560000Y-110300000D01*
X215040000Y-110300000D01*
X214800000Y-110630000D01*
G36*
X214800000Y-110630000D02*
G01*
X214560000Y-110300000D01*
X215040000Y-110300000D01*
X214800000Y-110630000D01*
G37*
%TO.C,C14*%
X210490000Y-89109420D02*
X210490000Y-89390580D01*
X211510000Y-89109420D02*
X211510000Y-89390580D01*
%TO.C,C4*%
X219010000Y-85634420D02*
X219010000Y-85915580D01*
X217990000Y-85634420D02*
X217990000Y-85915580D01*
%TO.C,R16*%
X239477500Y-89302742D02*
X239477500Y-89777258D01*
X240522500Y-89302742D02*
X240522500Y-89777258D01*
%TO.C,C2*%
X204377500Y-85296920D02*
X204377500Y-85578080D01*
X205397500Y-85296920D02*
X205397500Y-85578080D01*
%TO.C,R11*%
X202522500Y-105512742D02*
X202522500Y-105987258D01*
X201477500Y-105512742D02*
X201477500Y-105987258D01*
%TO.C,C3*%
X217990000Y-82359420D02*
X217990000Y-82640580D01*
X219010000Y-82359420D02*
X219010000Y-82640580D01*
%TO.C,R7*%
X239727500Y-76012742D02*
X239727500Y-76487258D01*
X240772500Y-76012742D02*
X240772500Y-76487258D01*
%TO.C,C5*%
X227647500Y-85609420D02*
X227647500Y-85890580D01*
X226627500Y-85609420D02*
X226627500Y-85890580D01*
%TO.C,C13*%
X214490000Y-89109420D02*
X214490000Y-89390580D01*
X215510000Y-89109420D02*
X215510000Y-89390580D01*
%TO.C,C12*%
X215510000Y-93609420D02*
X215510000Y-93890580D01*
X214490000Y-93609420D02*
X214490000Y-93890580D01*
%TO.C,R3*%
X208865000Y-85200242D02*
X208865000Y-85674758D01*
X209910000Y-85200242D02*
X209910000Y-85674758D01*
%TO.C,R1*%
X215512742Y-113977500D02*
X215987258Y-113977500D01*
X215512742Y-115022500D02*
X215987258Y-115022500D01*
%TO.C,R8*%
X251022500Y-84012742D02*
X251022500Y-84487258D01*
X249977500Y-84012742D02*
X249977500Y-84487258D01*
%TO.C,R20*%
X238272500Y-110512742D02*
X238272500Y-110987258D01*
X237227500Y-110512742D02*
X237227500Y-110987258D01*
%TO.C,R6*%
X239727500Y-72687742D02*
X239727500Y-73162258D01*
X240772500Y-72687742D02*
X240772500Y-73162258D01*
%TO.C,BOOT1*%
X248600000Y-100850000D02*
X248600000Y-98850000D01*
X249650000Y-97550000D02*
X250100000Y-97100000D01*
X249650000Y-102150000D02*
X250100000Y-102600000D01*
X252600000Y-97100000D02*
X250100000Y-97100000D01*
X252600000Y-102600000D02*
X250100000Y-102600000D01*
X253050000Y-97550000D02*
X252600000Y-97100000D01*
X253050000Y-102150000D02*
X252600000Y-102600000D01*
X254100000Y-100850000D02*
X254100000Y-98850000D01*
%TO.C,C6*%
X235240000Y-76034420D02*
X235240000Y-76315580D01*
X236260000Y-76034420D02*
X236260000Y-76315580D01*
%TO.C,Q2*%
X247490000Y-104440000D02*
X249010000Y-104440000D01*
X247490000Y-104490000D02*
X247490000Y-104440000D01*
X247490000Y-106390000D02*
X247490000Y-105610000D01*
X247490000Y-107560000D02*
X247490000Y-107510000D01*
X249010000Y-104440000D02*
X249010000Y-105440000D01*
X249010000Y-106560000D02*
X249010000Y-107560000D01*
X249010000Y-107560000D02*
X247490000Y-107560000D01*
X246950000Y-105620000D02*
X247190000Y-105950000D01*
X246710000Y-105950000D01*
X246950000Y-105620000D01*
G36*
X247190000Y-105950000D02*
G01*
X246710000Y-105950000D01*
X246950000Y-105620000D01*
X247190000Y-105950000D01*
G37*
%TO.C,R12*%
X210477500Y-93512742D02*
X210477500Y-93987258D01*
X211522500Y-93512742D02*
X211522500Y-93987258D01*
%TO.C,R2*%
X208865000Y-81700242D02*
X208865000Y-82174758D01*
X209910000Y-81700242D02*
X209910000Y-82174758D01*
%TO.C,J7*%
X209790000Y-74590000D02*
X209790000Y-77410000D01*
X209790000Y-74590000D02*
X211490000Y-73290000D01*
X209790000Y-77410000D02*
X211490000Y-78710000D01*
X211490000Y-73290000D02*
X220210000Y-73290000D01*
X211490000Y-78710000D02*
X220210000Y-78710000D01*
X220210000Y-73290000D02*
X220210000Y-78710000D01*
%TO.C,J1*%
X221200000Y-76450000D02*
X221950000Y-76450000D01*
X221950000Y-73500000D02*
X225000000Y-73500000D01*
X221950000Y-76450000D02*
X221950000Y-73500000D01*
X227850000Y-79000000D02*
X229100000Y-79000000D01*
X228050000Y-73500000D02*
X225000000Y-73500000D01*
X228050000Y-76450000D02*
X228050000Y-73500000D01*
X228800000Y-76450000D02*
X228050000Y-76450000D01*
X229100000Y-79000000D02*
X229100000Y-77750000D01*
X221200000Y-77950000D02*
X223000000Y-77950000D01*
X223000000Y-78700000D01*
X221200000Y-78700000D01*
X221200000Y-77950000D01*
X224500000Y-77950000D02*
X225500000Y-77950000D01*
X225500000Y-78700000D01*
X224500000Y-78700000D01*
X224500000Y-77950000D01*
X227000000Y-77950000D02*
X228800000Y-77950000D01*
X228800000Y-78700000D01*
X227000000Y-78700000D01*
X227000000Y-77950000D01*
X221190000Y-72740000D02*
X228810000Y-72740000D01*
X228810000Y-78710000D01*
X221190000Y-78710000D01*
X221190000Y-72740000D01*
%TO.C,C10*%
X242260000Y-84109420D02*
X242260000Y-84390580D01*
X241240000Y-84109420D02*
X241240000Y-84390580D01*
%TO.C,R14*%
X232022500Y-72687742D02*
X232022500Y-73162258D01*
X230977500Y-72687742D02*
X230977500Y-73162258D01*
%TO.C,R4*%
X223410000Y-85512742D02*
X223410000Y-85987258D01*
X222365000Y-85512742D02*
X222365000Y-85987258D01*
%TO.C,C1*%
X204377500Y-81796920D02*
X204377500Y-82078080D01*
X205397500Y-81796920D02*
X205397500Y-82078080D01*
%TO.C,J3*%
X200850000Y-93080000D02*
X202550000Y-93080000D01*
X200850000Y-102420000D02*
X202550000Y-102420000D01*
%TO.C,R9*%
X245272500Y-80262742D02*
X245272500Y-80737258D01*
X244227500Y-80262742D02*
X244227500Y-80737258D01*
%TO.C,R15*%
X231910000Y-85512742D02*
X231910000Y-85987258D01*
X230865000Y-85512742D02*
X230865000Y-85987258D01*
%TO.C,D2*%
X230652500Y-81015000D02*
X230652500Y-83300000D01*
X232122500Y-81015000D02*
X230652500Y-81015000D01*
X232122500Y-83300000D02*
X232122500Y-81015000D01*
%TO.C,J2*%
X238620000Y-103230000D02*
X238620000Y-95500000D01*
X241380000Y-95500000D02*
X238620000Y-95500000D01*
X241380000Y-103230000D02*
X238620000Y-103230000D01*
X241380000Y-103230000D02*
X241380000Y-95500000D01*
X241380000Y-104500000D02*
X241380000Y-105880000D01*
X241380000Y-105880000D02*
X240000000Y-105880000D01*
%TO.C,J4*%
X243450000Y-92450000D02*
X244200000Y-92450000D01*
X244200000Y-89500000D02*
X248500000Y-89500000D01*
X244200000Y-92450000D02*
X244200000Y-89500000D01*
X252600000Y-95000000D02*
X253850000Y-95000000D01*
X252800000Y-89500000D02*
X248500000Y-89500000D01*
X252800000Y-92450000D02*
X252800000Y-89500000D01*
X253550000Y-92450000D02*
X252800000Y-92450000D01*
X253850000Y-95000000D02*
X253850000Y-93750000D01*
X243450000Y-93950000D02*
X245250000Y-93950000D01*
X245250000Y-94700000D01*
X243450000Y-94700000D01*
X243450000Y-93950000D01*
X246750000Y-93950000D02*
X250250000Y-93950000D01*
X250250000Y-94700000D01*
X246750000Y-94700000D01*
X246750000Y-93950000D01*
X251750000Y-93950000D02*
X253550000Y-93950000D01*
X253550000Y-94700000D01*
X251750000Y-94700000D01*
X251750000Y-93950000D01*
X243440000Y-88740000D02*
X253560000Y-88740000D01*
X253560000Y-94710000D01*
X243440000Y-94710000D01*
X243440000Y-88740000D01*
%TO.C,J9*%
X227450000Y-120700000D02*
X228200000Y-120700000D01*
X228200000Y-117750000D02*
X233750000Y-117750000D01*
X228200000Y-120700000D02*
X228200000Y-117750000D01*
X239100000Y-123250000D02*
X240350000Y-123250000D01*
X239300000Y-117750000D02*
X233750000Y-117750000D01*
X239300000Y-120700000D02*
X239300000Y-117750000D01*
X240050000Y-120700000D02*
X239300000Y-120700000D01*
X240350000Y-123250000D02*
X240350000Y-122000000D01*
X227450000Y-122200000D02*
X229250000Y-122200000D01*
X229250000Y-122950000D01*
X227450000Y-122950000D01*
X227450000Y-122200000D01*
X230750000Y-122200000D02*
X236750000Y-122200000D01*
X236750000Y-122950000D01*
X230750000Y-122950000D01*
X230750000Y-122200000D01*
X238250000Y-122200000D02*
X240050000Y-122200000D01*
X240050000Y-122950000D01*
X238250000Y-122950000D01*
X238250000Y-122200000D01*
X227440000Y-116990000D02*
X240060000Y-116990000D01*
X240060000Y-122960000D01*
X227440000Y-122960000D01*
X227440000Y-116990000D01*
%TO.C,LS1*%
D14*
X237946500Y-113625000D02*
X238581500Y-113625000D01*
X238581500Y-112990000D02*
X238581500Y-113625000D01*
X238581500Y-113625000D02*
X238581500Y-114260000D01*
X239216500Y-113625000D02*
X238581500Y-113625000D01*
X240101500Y-111175000D02*
X242301500Y-111175000D01*
X240101500Y-116075000D02*
X240101500Y-111175000D01*
X242301500Y-116075000D02*
X240101500Y-116075000D01*
X252396500Y-110586000D02*
X251126500Y-110586000D01*
X242301500Y-111175000D02*
G75*
G02*
X246201500Y-118224999I3919733J-2435360D01*
G01*
X242301500Y-111175000D02*
G75*
G02*
X246201500Y-118224999I3919733J-2435360D01*
G01*
X246201500Y-118225001D02*
G75*
G02*
X242301498Y-116075001I-26220J4564651D01*
G01*
%TO.C,C7*%
D13*
X235240000Y-72784420D02*
X235240000Y-73065580D01*
X236260000Y-72784420D02*
X236260000Y-73065580D01*
%TO.C,C8*%
X243740000Y-76109420D02*
X243740000Y-76390580D01*
X244760000Y-76109420D02*
X244760000Y-76390580D01*
%TO.C,R18*%
X235762742Y-113977500D02*
X236237258Y-113977500D01*
X235762742Y-115022500D02*
X236237258Y-115022500D01*
%TO.C,R19*%
X231012742Y-113977500D02*
X231487258Y-113977500D01*
X231012742Y-115022500D02*
X231487258Y-115022500D01*
%TO.C,J5*%
X211700000Y-120700000D02*
X212450000Y-120700000D01*
X212450000Y-117750000D02*
X218000000Y-117750000D01*
X212450000Y-120700000D02*
X212450000Y-117750000D01*
X223350000Y-123250000D02*
X224600000Y-123250000D01*
X223550000Y-117750000D02*
X218000000Y-117750000D01*
X223550000Y-120700000D02*
X223550000Y-117750000D01*
X224300000Y-120700000D02*
X223550000Y-120700000D01*
X224600000Y-123250000D02*
X224600000Y-122000000D01*
X211700000Y-122200000D02*
X213500000Y-122200000D01*
X213500000Y-122950000D01*
X211700000Y-122950000D01*
X211700000Y-122200000D01*
X215000000Y-122200000D02*
X221000000Y-122200000D01*
X221000000Y-122950000D01*
X215000000Y-122950000D01*
X215000000Y-122200000D01*
X222500000Y-122200000D02*
X224300000Y-122200000D01*
X224300000Y-122950000D01*
X222500000Y-122950000D01*
X222500000Y-122200000D01*
X211690000Y-116990000D02*
X224310000Y-116990000D01*
X224310000Y-122960000D01*
X211690000Y-122960000D01*
X211690000Y-116990000D01*
%TO.C,R10*%
X201477500Y-90012742D02*
X201477500Y-90487258D01*
X202522500Y-90012742D02*
X202522500Y-90487258D01*
%TO.C,R5*%
X223410000Y-82262742D02*
X223410000Y-82737258D01*
X222365000Y-82262742D02*
X222365000Y-82737258D01*
%TO.C,C9*%
X246510000Y-84109420D02*
X246510000Y-84390580D01*
X245490000Y-84109420D02*
X245490000Y-84390580D01*
%TO.C,ENABLE1*%
X215350000Y-101100000D02*
X215350000Y-99100000D01*
X214300000Y-102400000D02*
X213850000Y-102850000D01*
X214300000Y-97800000D02*
X213850000Y-97350000D01*
X213850000Y-102850000D02*
X211350000Y-102850000D01*
X213850000Y-97350000D02*
X211350000Y-97350000D01*
X210900000Y-102400000D02*
X211350000Y-102850000D01*
X210900000Y-97800000D02*
X211350000Y-97350000D01*
X209850000Y-101100000D02*
X209850000Y-99100000D01*
%TO.C,J6*%
X203200000Y-111700000D02*
X203950000Y-111700000D01*
X203950000Y-108750000D02*
X207000000Y-108750000D01*
X203950000Y-111700000D02*
X203950000Y-108750000D01*
X209850000Y-114250000D02*
X211100000Y-114250000D01*
X210050000Y-108750000D02*
X207000000Y-108750000D01*
X210050000Y-111700000D02*
X210050000Y-108750000D01*
X210800000Y-111700000D02*
X210050000Y-111700000D01*
X211100000Y-114250000D02*
X211100000Y-113000000D01*
X203200000Y-113200000D02*
X205000000Y-113200000D01*
X205000000Y-113950000D01*
X203200000Y-113950000D01*
X203200000Y-113200000D01*
X206500000Y-113200000D02*
X207500000Y-113200000D01*
X207500000Y-113950000D01*
X206500000Y-113950000D01*
X206500000Y-113200000D01*
X209000000Y-113200000D02*
X210800000Y-113200000D01*
X210800000Y-113950000D01*
X209000000Y-113950000D01*
X209000000Y-113200000D01*
X203190000Y-107990000D02*
X210810000Y-107990000D01*
X210810000Y-113960000D01*
X203190000Y-113960000D01*
X203190000Y-107990000D01*
%TO.C,R17*%
X218522500Y-110512742D02*
X218522500Y-110987258D01*
X217477500Y-110512742D02*
X217477500Y-110987258D01*
%TO.C,R13*%
X220262742Y-113977500D02*
X220737258Y-113977500D01*
X220262742Y-115022500D02*
X220737258Y-115022500D01*
%TD*%
%LPC*%
D15*
%TO.C,U4*%
X227000000Y-98450000D03*
X227000000Y-97050000D03*
X226300000Y-99150000D03*
X226300000Y-97750000D03*
X226300000Y-96350000D03*
X225600000Y-98450000D03*
D16*
X225600000Y-97750000D03*
D15*
X225600000Y-97050000D03*
X224900000Y-99150000D03*
X224900000Y-97750000D03*
X224900000Y-96350000D03*
X224200000Y-98450000D03*
X224200000Y-97050000D03*
D17*
X235850000Y-90030000D03*
X235850000Y-91300000D03*
X235850000Y-92570000D03*
X235850000Y-93840000D03*
X235850000Y-95110000D03*
X235850000Y-96380000D03*
X235850000Y-97650000D03*
X235850000Y-98920000D03*
X235850000Y-100190000D03*
X235850000Y-101460000D03*
X235850000Y-102730000D03*
X235850000Y-104000000D03*
X235850000Y-105270000D03*
X235850000Y-106540000D03*
D18*
X234085000Y-107790000D03*
X232815000Y-107790000D03*
X231545000Y-107790000D03*
X230275000Y-107790000D03*
X229005000Y-107790000D03*
X227735000Y-107790000D03*
X226465000Y-107790000D03*
X225195000Y-107790000D03*
X223925000Y-107790000D03*
X222655000Y-107790000D03*
X221385000Y-107790000D03*
X220115000Y-107790000D03*
D17*
X218350000Y-106540000D03*
X218350000Y-105270000D03*
X218350000Y-104000000D03*
X218350000Y-102730000D03*
X218350000Y-101460000D03*
X218350000Y-100190000D03*
X218350000Y-98920000D03*
X218350000Y-97650000D03*
X218350000Y-96380000D03*
X218350000Y-95110000D03*
X218350000Y-93840000D03*
X218350000Y-92570000D03*
X218350000Y-91300000D03*
X218350000Y-90030000D03*
%TD*%
D19*
%TO.C,U2*%
X236037500Y-82187500D03*
D20*
X236250000Y-84175000D03*
D21*
X238150000Y-84175000D03*
D22*
X238362500Y-82187500D03*
D23*
X237700000Y-81600000D03*
X237200000Y-81600000D03*
X236700000Y-81600000D03*
%TD*%
D19*
%TO.C,U1*%
X213025000Y-82187500D03*
D20*
X213237500Y-84175000D03*
D21*
X215137500Y-84175000D03*
D22*
X215350000Y-82187500D03*
D23*
X214687500Y-81600000D03*
X214187500Y-81600000D03*
X213687500Y-81600000D03*
%TD*%
D24*
%TO.C,D1*%
X231500000Y-76962500D03*
X231500000Y-75387500D03*
%TD*%
D25*
%TO.C,H3*%
X206725000Y-90225000D03*
%TD*%
D24*
%TO.C,D3*%
X240000000Y-92002500D03*
X240000000Y-93577500D03*
%TD*%
D26*
%TO.C,Q1*%
X214437500Y-111200000D03*
X214437500Y-109300000D03*
X212562500Y-110250000D03*
%TD*%
D27*
%TO.C,C14*%
X211000000Y-88475000D03*
X211000000Y-90025000D03*
%TD*%
%TO.C,C4*%
X218500000Y-85000000D03*
X218500000Y-86550000D03*
%TD*%
D28*
%TO.C,R16*%
X240000000Y-88715000D03*
X240000000Y-90365000D03*
%TD*%
D27*
%TO.C,C2*%
X204887500Y-84662500D03*
X204887500Y-86212500D03*
%TD*%
D28*
%TO.C,R11*%
X202000000Y-104925000D03*
X202000000Y-106575000D03*
%TD*%
D27*
%TO.C,C3*%
X218500000Y-81725000D03*
X218500000Y-83275000D03*
%TD*%
D28*
%TO.C,R7*%
X240250000Y-75425000D03*
X240250000Y-77075000D03*
%TD*%
D27*
%TO.C,C5*%
X227137500Y-84975000D03*
X227137500Y-86525000D03*
%TD*%
%TO.C,C13*%
X215000000Y-88475000D03*
X215000000Y-90025000D03*
%TD*%
%TO.C,C12*%
X215000000Y-92975000D03*
X215000000Y-94525000D03*
%TD*%
D28*
%TO.C,R3*%
X209387500Y-84612500D03*
X209387500Y-86262500D03*
%TD*%
D29*
%TO.C,R1*%
X214925000Y-114500000D03*
X216575000Y-114500000D03*
%TD*%
D28*
%TO.C,R8*%
X250500000Y-83425000D03*
X250500000Y-85075000D03*
%TD*%
%TO.C,R20*%
X237750000Y-109925000D03*
X237750000Y-111575000D03*
%TD*%
%TO.C,R6*%
X240250000Y-72100000D03*
X240250000Y-73750000D03*
%TD*%
D30*
%TO.C,BOOT1*%
X254500000Y-101750000D03*
X248200000Y-101750000D03*
X254500000Y-97950000D03*
X248200000Y-97950000D03*
%TD*%
D27*
%TO.C,C6*%
X235750000Y-75400000D03*
X235750000Y-76950000D03*
%TD*%
D31*
%TO.C,Q2*%
X247312500Y-105050000D03*
X247312500Y-106950000D03*
X249187500Y-106000000D03*
%TD*%
D28*
%TO.C,R12*%
X211000000Y-92925000D03*
X211000000Y-94575000D03*
%TD*%
%TO.C,R2*%
X209387500Y-81112500D03*
X209387500Y-82762500D03*
%TD*%
D32*
%TO.C,J7*%
X212500000Y-76000000D03*
D33*
X217500000Y-76000000D03*
%TD*%
D34*
%TO.C,J1*%
X226250000Y-76250000D03*
D35*
X223750000Y-76250000D03*
%TD*%
D27*
%TO.C,C10*%
X241750000Y-83475000D03*
X241750000Y-85025000D03*
%TD*%
D25*
%TO.C,H2*%
X244500000Y-99500000D03*
%TD*%
D28*
%TO.C,R14*%
X231500000Y-72100000D03*
X231500000Y-73750000D03*
%TD*%
%TO.C,R4*%
X222887500Y-84925000D03*
X222887500Y-86575000D03*
%TD*%
D27*
%TO.C,C1*%
X204887500Y-81162500D03*
X204887500Y-82712500D03*
%TD*%
D25*
%TO.C,H1*%
X226250000Y-112000000D03*
%TD*%
D36*
%TO.C,J3*%
X203355000Y-94860000D03*
X203355000Y-100640000D03*
D37*
X204552462Y-94550032D03*
D38*
X204552476Y-95349606D03*
D39*
X204430000Y-96500000D03*
X204430000Y-97500000D03*
X204430000Y-98000000D03*
X204430000Y-99000000D03*
D40*
X204552500Y-100150000D03*
D41*
X204552497Y-100950000D03*
D42*
X204552498Y-100950000D03*
D38*
X204552499Y-100150000D03*
D39*
X204430000Y-99500000D03*
X204430000Y-98500000D03*
X204430000Y-97000000D03*
X204430000Y-96000000D03*
D40*
X204552500Y-95350000D03*
D42*
X204552498Y-94550001D03*
D43*
X203855000Y-93430000D03*
D44*
X199675000Y-93430000D03*
D43*
X203855000Y-102070000D03*
D44*
X199675000Y-102070000D03*
%TD*%
D28*
%TO.C,R9*%
X244750000Y-79675000D03*
X244750000Y-81325000D03*
%TD*%
%TO.C,R15*%
X231387500Y-84925000D03*
X231387500Y-86575000D03*
%TD*%
D45*
%TO.C,D2*%
X231387500Y-81712500D03*
X231387500Y-83287500D03*
%TD*%
D46*
%TO.C,J2*%
X240000000Y-104500000D03*
D47*
X240000000Y-101960000D03*
X240000000Y-99420000D03*
X240000000Y-96880000D03*
%TD*%
D48*
%TO.C,J4*%
X251000000Y-92250000D03*
D49*
X248500000Y-92250000D03*
X246000000Y-92250000D03*
%TD*%
D48*
%TO.C,J9*%
X237500000Y-120500000D03*
D49*
X235000000Y-120500000D03*
X232500000Y-120500000D03*
X230000000Y-120500000D03*
%TD*%
D50*
%TO.C,LS1*%
X248201500Y-113625000D03*
X244201500Y-113625000D03*
%TD*%
D27*
%TO.C,C7*%
X235750000Y-72150000D03*
X235750000Y-73700000D03*
%TD*%
%TO.C,C8*%
X244250000Y-75475000D03*
X244250000Y-77025000D03*
%TD*%
D29*
%TO.C,R18*%
X235175000Y-114500000D03*
X236825000Y-114500000D03*
%TD*%
%TO.C,R19*%
X230425000Y-114500000D03*
X232075000Y-114500000D03*
%TD*%
D48*
%TO.C,J5*%
X221750000Y-120500000D03*
D49*
X219250000Y-120500000D03*
X216750000Y-120500000D03*
X214250000Y-120500000D03*
%TD*%
D28*
%TO.C,R10*%
X202000000Y-89425000D03*
X202000000Y-91075000D03*
%TD*%
%TO.C,R5*%
X222887500Y-81675000D03*
X222887500Y-83325000D03*
%TD*%
D27*
%TO.C,C9*%
X246000000Y-83475000D03*
X246000000Y-85025000D03*
%TD*%
D30*
%TO.C,ENABLE1*%
X215750000Y-102000000D03*
X209450000Y-102000000D03*
X215750000Y-98200000D03*
X209450000Y-98200000D03*
%TD*%
D34*
%TO.C,J6*%
X208250000Y-111500000D03*
D35*
X205750000Y-111500000D03*
%TD*%
D28*
%TO.C,R17*%
X218000000Y-109925000D03*
X218000000Y-111575000D03*
%TD*%
D29*
%TO.C,R13*%
X219675000Y-114500000D03*
X221325000Y-114500000D03*
%TD*%
%LPD*%
M02*
