%TF.GenerationSoftware,KiCad,Pcbnew,10.0.2*%
%TF.CreationDate,2026-06-03T12:08:33-04:00*%
%TF.ProjectId,float_pcb,666c6f61-745f-4706-9362-2e6b69636164,rev?*%
%TF.SameCoordinates,Original*%
%TF.FileFunction,Soldermask,Bot*%
%TF.FilePolarity,Negative*%
%FSLAX46Y46*%
G04 Gerber Fmt 4.6, Leading zero omitted, Abs format (unit mm)*
G04 Created by KiCad (PCBNEW 10.0.2) date 2026-06-03 12:08:33*
%MOMM*%
%LPD*%
G01*
G04 APERTURE LIST*
G04 Aperture macros list*
%AMRoundRect*
0 Rectangle with rounded corners*
0 $1 Rounding radius*
0 $2 $3 $4 $5 $6 $7 $8 $9 X,Y pos of 4 corners*
0 Add a 4 corners polygon primitive as box body*
4,1,4,$2,$3,$4,$5,$6,$7,$8,$9,$2,$3,0*
0 Add four circle primitives for the rounded corners*
1,1,$1+$1,$2,$3*
1,1,$1+$1,$4,$5*
1,1,$1+$1,$6,$7*
1,1,$1+$1,$8,$9*
0 Add four rect primitives between the rounded corners*
20,1,$1+$1,$2,$3,$4,$5,0*
20,1,$1+$1,$4,$5,$6,$7,0*
20,1,$1+$1,$6,$7,$8,$9,0*
20,1,$1+$1,$8,$9,$2,$3,0*%
G04 Aperture macros list end*
%ADD10C,2.200000*%
%ADD11C,1.612000*%
%ADD12R,1.700000X1.700000*%
%ADD13C,1.700000*%
%ADD14RoundRect,0.250000X0.600000X0.750000X-0.600000X0.750000X-0.600000X-0.750000X0.600000X-0.750000X0*%
%ADD15O,1.700000X2.000000*%
%ADD16RoundRect,0.760000X-1.140000X-1.140000X1.140000X-1.140000X1.140000X1.140000X-1.140000X1.140000X0*%
%ADD17C,3.800000*%
%ADD18C,0.650000*%
%ADD19O,2.100000X1.000000*%
%ADD20O,1.800000X1.000000*%
%ADD21RoundRect,0.250000X0.600000X0.725000X-0.600000X0.725000X-0.600000X-0.725000X0.600000X-0.725000X0*%
%ADD22O,1.700000X1.950000*%
%ADD23C,1.500000*%
G04 APERTURE END LIST*
D10*
%TO.C,H3*%
X123500000Y-114750000D03*
%TD*%
D11*
%TO.C,LS1*%
X164250000Y-122500000D03*
X168250000Y-122500000D03*
%TD*%
D12*
%TO.C,J2*%
X169500000Y-111000000D03*
D13*
X169500000Y-108460000D03*
X169500000Y-105920000D03*
X169500000Y-103380000D03*
%TD*%
D10*
%TO.C,H1*%
X126500000Y-95000000D03*
%TD*%
D14*
%TO.C,J1*%
X152000000Y-79750000D03*
D15*
X149500000Y-79750000D03*
%TD*%
D16*
%TO.C,J7*%
X136750000Y-79500000D03*
D17*
X141750000Y-79500000D03*
%TD*%
D18*
%TO.C,J3*%
X122855000Y-102110000D03*
X122855000Y-107890000D03*
D19*
X123355000Y-100680000D03*
D20*
X119175000Y-100680000D03*
D19*
X123355000Y-109320000D03*
D20*
X119175000Y-109320000D03*
%TD*%
D21*
%TO.C,J4*%
X171250000Y-97500000D03*
D22*
X168750000Y-97500000D03*
X166250000Y-97500000D03*
%TD*%
D21*
%TO.C,J9*%
X160000000Y-130525000D03*
D22*
X157500000Y-130525000D03*
X155000000Y-130525000D03*
X152500000Y-130525000D03*
%TD*%
D21*
%TO.C,J5*%
X143500000Y-130500000D03*
D22*
X141000000Y-130500000D03*
X138500000Y-130500000D03*
X136000000Y-130500000D03*
%TD*%
D10*
%TO.C,H2*%
X174000000Y-117500000D03*
%TD*%
D14*
%TO.C,J6*%
X129500000Y-122750000D03*
D15*
X127000000Y-122750000D03*
%TD*%
D23*
%TO.C,TP1*%
X174000000Y-101000000D03*
%TD*%
%TO.C,TP3*%
X127500000Y-118000000D03*
%TD*%
%TO.C,TP2*%
X148000000Y-130500000D03*
%TD*%
%TO.C,TP10*%
X127500000Y-112000000D03*
%TD*%
%TO.C,TP6*%
X157500000Y-128000000D03*
%TD*%
%TO.C,TP4*%
X153500000Y-83500000D03*
%TD*%
%TO.C,TP9*%
X175500000Y-112000000D03*
%TD*%
%TO.C,TP5*%
X152500000Y-134000000D03*
%TD*%
%TO.C,TP7*%
X143500000Y-134000000D03*
%TD*%
%TO.C,TP8*%
X138500000Y-128000000D03*
%TD*%
M02*
