%TF.GenerationSoftware,KiCad,Pcbnew,10.0.2*%
%TF.CreationDate,2026-06-03T12:08:33-04:00*%
%TF.ProjectId,float_pcb,666c6f61-745f-4706-9362-2e6b69636164,rev?*%
%TF.SameCoordinates,Original*%
%TF.FileFunction,Copper,L2,Inr*%
%TF.FilePolarity,Positive*%
%FSLAX46Y46*%
G04 Gerber Fmt 4.6, Leading zero omitted, Abs format (unit mm)*
G04 Created by KiCad (PCBNEW 10.0.2) date 2026-06-03 12:08:33*
%MOMM*%
%LPD*%
G01*
G04 APERTURE LIST*
G04 Aperture macros list*
%AMRoundRect*
0 Rectangle with rounded corners*
0 $1 Rounding radius*
0 $2 $3 $4 $5 $6 $7 $8 $9 X,Y pos of 4 corners*
0 Add a 4 corners polygon primitive as box body*
4,1,4,$2,$3,$4,$5,$6,$7,$8,$9,$2,$3,0*
0 Add four circle primitives for the rounded corners*
1,1,$1+$1,$2,$3*
1,1,$1+$1,$4,$5*
1,1,$1+$1,$6,$7*
1,1,$1+$1,$8,$9*
0 Add four rect primitives between the rounded corners*
20,1,$1+$1,$2,$3,$4,$5,0*
20,1,$1+$1,$4,$5,$6,$7,0*
20,1,$1+$1,$6,$7,$8,$9,0*
20,1,$1+$1,$8,$9,$2,$3,0*%
G04 Aperture macros list end*
%TA.AperFunction,ComponentPad*%
%ADD10C,1.408000*%
%TD*%
%TA.AperFunction,ComponentPad*%
%ADD11R,1.700000X1.700000*%
%TD*%
%TA.AperFunction,ComponentPad*%
%ADD12C,1.700000*%
%TD*%
%TA.AperFunction,ComponentPad*%
%ADD13RoundRect,0.250000X0.600000X0.750000X-0.600000X0.750000X-0.600000X-0.750000X0.600000X-0.750000X0*%
%TD*%
%TA.AperFunction,ComponentPad*%
%ADD14O,1.700000X2.000000*%
%TD*%
%TA.AperFunction,ComponentPad*%
%ADD15RoundRect,0.760000X-1.140000X-1.140000X1.140000X-1.140000X1.140000X1.140000X-1.140000X1.140000X0*%
%TD*%
%TA.AperFunction,ComponentPad*%
%ADD16C,3.800000*%
%TD*%
%TA.AperFunction,HeatsinkPad*%
%ADD17C,0.600000*%
%TD*%
%TA.AperFunction,ComponentPad*%
%ADD18O,2.100000X1.000000*%
%TD*%
%TA.AperFunction,ComponentPad*%
%ADD19O,1.800000X1.000000*%
%TD*%
%TA.AperFunction,ComponentPad*%
%ADD20RoundRect,0.250000X0.600000X0.725000X-0.600000X0.725000X-0.600000X-0.725000X0.600000X-0.725000X0*%
%TD*%
%TA.AperFunction,ComponentPad*%
%ADD21O,1.700000X1.950000*%
%TD*%
%TA.AperFunction,ViaPad*%
%ADD22C,0.600000*%
%TD*%
G04 APERTURE END LIST*
D10*
%TO.N,Net-(Q2-D)*%
%TO.C,LS1*%
X164250000Y-122500000D03*
%TO.N,Net-(LS1-PadP)*%
X168250000Y-122500000D03*
%TD*%
D11*
%TO.N,MISC1*%
%TO.C,J2*%
X169500000Y-111000000D03*
D12*
%TO.N,MISC2*%
X169500000Y-108460000D03*
%TO.N,MISC3*%
X169500000Y-105920000D03*
%TO.N,MISC4*%
X169500000Y-103380000D03*
%TD*%
D13*
%TO.N,+BATT*%
%TO.C,J1*%
X152000000Y-79750000D03*
D14*
%TO.N,Net-(J1-Pin_2)*%
X149500000Y-79750000D03*
%TD*%
D15*
%TO.N,GND*%
%TO.C,J7*%
X136750000Y-79500000D03*
D16*
%TO.N,Net-(J1-Pin_2)*%
X141750000Y-79500000D03*
%TD*%
D17*
%TO.N,GND*%
%TO.C,U4*%
X145600000Y-103610000D03*
X145600000Y-105010000D03*
X146300000Y-102910000D03*
X146300000Y-104310000D03*
X146300000Y-105710000D03*
X147000000Y-103610000D03*
X147000000Y-105010000D03*
X147700000Y-102910000D03*
X147700000Y-104310000D03*
X147700000Y-105710000D03*
X148400000Y-103610000D03*
X148400000Y-105010000D03*
%TD*%
D18*
%TO.N,GND*%
%TO.C,J3*%
X123355000Y-100680000D03*
D19*
X119175000Y-100680000D03*
D18*
X123355000Y-109320000D03*
D19*
X119175000Y-109320000D03*
%TD*%
D20*
%TO.N,GND*%
%TO.C,J4*%
X171250000Y-97500000D03*
D21*
%TO.N,Net-(J4-Pin_2)*%
X168750000Y-97500000D03*
%TO.N,SERVO*%
X166250000Y-97500000D03*
%TD*%
D20*
%TO.N,GND*%
%TO.C,J9*%
X160000000Y-130525000D03*
D21*
%TO.N,SDA2*%
X157500000Y-130525000D03*
%TO.N,SCL2*%
X155000000Y-130525000D03*
%TO.N,+3V3*%
X152500000Y-130525000D03*
%TD*%
D20*
%TO.N,GND*%
%TO.C,J5*%
X143500000Y-130500000D03*
D21*
%TO.N,SDA1*%
X141000000Y-130500000D03*
%TO.N,SCL1*%
X138500000Y-130500000D03*
%TO.N,+3V3*%
X136000000Y-130500000D03*
%TD*%
D13*
%TO.N,Net-(J6-Pin_1)*%
%TO.C,J6*%
X129500000Y-122750000D03*
D14*
%TO.N,+3V3*%
X127000000Y-122750000D03*
%TD*%
D22*
%TO.N,GND*%
X167000000Y-83250000D03*
X134000000Y-115250000D03*
X135500000Y-102250000D03*
X161250000Y-85000000D03*
X136250000Y-117750000D03*
X171250000Y-96000000D03*
X172750000Y-97500000D03*
X165500000Y-109750000D03*
X159750000Y-88750000D03*
X126500000Y-85750000D03*
X131750000Y-105250000D03*
X140500000Y-89250000D03*
X146000000Y-123500000D03*
X172500000Y-103500000D03*
X157250000Y-118750000D03*
X171250000Y-99000000D03*
X137000000Y-95250000D03*
X134000000Y-95250000D03*
X153250000Y-85250000D03*
X119000000Y-113500000D03*
X137500000Y-88750000D03*
X153250000Y-92500000D03*
X131250000Y-92500000D03*
X162750000Y-89250000D03*
X169750000Y-85000000D03*
X157500000Y-76500000D03*
X122500000Y-92500000D03*
X119000000Y-96500000D03*
X160250000Y-118750000D03*
X179000000Y-103500000D03*
X140000000Y-86000000D03*
X146500000Y-86000000D03*
X127500000Y-115250000D03*
X162500000Y-83250000D03*
X131250000Y-85250000D03*
%TO.N,SDA1*%
X143000000Y-124000000D03*
X145549265Y-124299265D03*
%TO.N,SCL2*%
X151250000Y-124250000D03*
X154000000Y-124000000D03*
%TO.N,+3V3*%
X165000000Y-113000000D03*
X165000000Y-101500000D03*
X142500000Y-121500000D03*
X150000000Y-91750000D03*
X170000000Y-114750000D03*
X132750000Y-97750000D03*
X150000000Y-94250000D03*
X162000000Y-110000000D03*
X162000000Y-104500000D03*
X150997017Y-123491051D03*
X130500000Y-102250000D03*
X158000000Y-124000000D03*
X154500000Y-121500000D03*
X139000000Y-124000000D03*
X150500000Y-93000000D03*
X165500000Y-104750000D03*
%TO.N,MISC2*%
X165000000Y-111250000D03*
X166500000Y-109750000D03*
%TO.N,MISC3*%
X166500000Y-104750000D03*
X165000000Y-103250000D03*
%TO.N,Net-(U1-EN)*%
X127750000Y-88250000D03*
X135000000Y-87250000D03*
%TO.N,Net-(U2-EN)*%
X160750000Y-82500000D03*
X157500000Y-87250000D03*
%TO.N,Net-(U4-IO0)*%
X172500000Y-110500000D03*
%TO.N,Net-(U4-EN)*%
X127500000Y-108750000D03*
X127750000Y-100000000D03*
%TO.N,VBUS_USB*%
X125500000Y-102750000D03*
X126750000Y-105000000D03*
X125500000Y-107250000D03*
%TD*%
%TA.AperFunction,Conductor*%
%TO.N,GND*%
G36*
X149064446Y-73505596D02*
G01*
X150183781Y-73545574D01*
X150188194Y-73545810D01*
X151305421Y-73625716D01*
X151309727Y-73626101D01*
X152423446Y-73745838D01*
X152427802Y-73746385D01*
X153536462Y-73905787D01*
X153540805Y-73906490D01*
X154643104Y-74105367D01*
X154647404Y-74106223D01*
X155741869Y-74344309D01*
X155746152Y-74345321D01*
X156831437Y-74622324D01*
X156835654Y-74623481D01*
X157867200Y-74926370D01*
X157910366Y-74939045D01*
X157914592Y-74940368D01*
X158977322Y-75294079D01*
X158981424Y-75295525D01*
X160030952Y-75686979D01*
X160034994Y-75688569D01*
X160809144Y-76009233D01*
X161069823Y-76117210D01*
X161073881Y-76118977D01*
X162092672Y-76584243D01*
X162096665Y-76586153D01*
X163098266Y-77087518D01*
X163102189Y-77089570D01*
X163175656Y-77129686D01*
X164085220Y-77626345D01*
X164089033Y-77628516D01*
X164269619Y-77735663D01*
X165052342Y-78200075D01*
X165056107Y-78202402D01*
X165998311Y-78807919D01*
X166001992Y-78810378D01*
X166203083Y-78949998D01*
X166922052Y-79449187D01*
X166925604Y-79451749D01*
X167822246Y-80122966D01*
X167825742Y-80125681D01*
X168697867Y-80828484D01*
X168701264Y-80831323D01*
X169547735Y-81564795D01*
X169551028Y-81567753D01*
X170370792Y-82330979D01*
X170373977Y-82334053D01*
X171165946Y-83126022D01*
X171169020Y-83129207D01*
X171932246Y-83948971D01*
X171935204Y-83952264D01*
X172668676Y-84798735D01*
X172671515Y-84802132D01*
X173374318Y-85674257D01*
X173377033Y-85677753D01*
X174048236Y-86574376D01*
X174050819Y-86577958D01*
X174163124Y-86739707D01*
X174689621Y-87498007D01*
X174692080Y-87501688D01*
X175297597Y-88443892D01*
X175299924Y-88447657D01*
X175871473Y-89410949D01*
X175873663Y-89414796D01*
X176410429Y-90397810D01*
X176412481Y-90401733D01*
X176913846Y-91403334D01*
X176915756Y-91407327D01*
X177381022Y-92426118D01*
X177382789Y-92430176D01*
X177811414Y-93464966D01*
X177813031Y-93469076D01*
X178197836Y-94500776D01*
X178204461Y-94518539D01*
X178205933Y-94522714D01*
X178559631Y-95585409D01*
X178560954Y-95589633D01*
X178876511Y-96664319D01*
X178877682Y-96668588D01*
X179154675Y-97753835D01*
X179155693Y-97758143D01*
X179393772Y-98852575D01*
X179394636Y-98856916D01*
X179593506Y-99959181D01*
X179594214Y-99963551D01*
X179753611Y-101072179D01*
X179754163Y-101076571D01*
X179873893Y-102190221D01*
X179874287Y-102194630D01*
X179954188Y-103311801D01*
X179954425Y-103316221D01*
X179994403Y-104435553D01*
X179994482Y-104439979D01*
X179994482Y-105560020D01*
X179994403Y-105564446D01*
X179954425Y-106683778D01*
X179954188Y-106688198D01*
X179874287Y-107805369D01*
X179873893Y-107809778D01*
X179754163Y-108923428D01*
X179753611Y-108927820D01*
X179594214Y-110036448D01*
X179593506Y-110040818D01*
X179394636Y-111143083D01*
X179393772Y-111147424D01*
X179155693Y-112241856D01*
X179154675Y-112246164D01*
X178877682Y-113331411D01*
X178876511Y-113335680D01*
X178560954Y-114410366D01*
X178559631Y-114414590D01*
X178205933Y-115477285D01*
X178204461Y-115481460D01*
X177813035Y-116530914D01*
X177811414Y-116535033D01*
X177382789Y-117569823D01*
X177381022Y-117573881D01*
X176915756Y-118592672D01*
X176913846Y-118596665D01*
X176412481Y-119598266D01*
X176410429Y-119602189D01*
X175873663Y-120585203D01*
X175871473Y-120589050D01*
X175299924Y-121552342D01*
X175297597Y-121556107D01*
X174692080Y-122498311D01*
X174689621Y-122501992D01*
X174050825Y-123422033D01*
X174048236Y-123425623D01*
X173377033Y-124322246D01*
X173374318Y-124325742D01*
X172671515Y-125197867D01*
X172668676Y-125201264D01*
X171935204Y-126047735D01*
X171932246Y-126051028D01*
X171169020Y-126870792D01*
X171165946Y-126873977D01*
X170373977Y-127665946D01*
X170370792Y-127669020D01*
X169551028Y-128432246D01*
X169547735Y-128435204D01*
X168701264Y-129168676D01*
X168697867Y-129171515D01*
X167825742Y-129874318D01*
X167822246Y-129877033D01*
X166925623Y-130548236D01*
X166922033Y-130550825D01*
X166001992Y-131189621D01*
X165998311Y-131192080D01*
X165056107Y-131797597D01*
X165052342Y-131799924D01*
X164089050Y-132371473D01*
X164085203Y-132373663D01*
X163102189Y-132910429D01*
X163098266Y-132912481D01*
X162096665Y-133413846D01*
X162092672Y-133415756D01*
X161073881Y-133881022D01*
X161069823Y-133882789D01*
X160035033Y-134311414D01*
X160030914Y-134313035D01*
X158981460Y-134704461D01*
X158977285Y-134705933D01*
X157914590Y-135059631D01*
X157910366Y-135060954D01*
X156835680Y-135376511D01*
X156831411Y-135377682D01*
X155746164Y-135654675D01*
X155741856Y-135655693D01*
X154647424Y-135893772D01*
X154643083Y-135894636D01*
X153540818Y-136093506D01*
X153536448Y-136094214D01*
X152427820Y-136253611D01*
X152423428Y-136254163D01*
X151309778Y-136373893D01*
X151305369Y-136374287D01*
X150188198Y-136454188D01*
X150183778Y-136454425D01*
X149064447Y-136494403D01*
X149060021Y-136494482D01*
X147939979Y-136494482D01*
X147935553Y-136494403D01*
X146816221Y-136454425D01*
X146811801Y-136454188D01*
X145694630Y-136374287D01*
X145690221Y-136373893D01*
X144576571Y-136254163D01*
X144572179Y-136253611D01*
X143463551Y-136094214D01*
X143459181Y-136093506D01*
X142356916Y-135894636D01*
X142352575Y-135893772D01*
X141258143Y-135655693D01*
X141253835Y-135654675D01*
X140168588Y-135377682D01*
X140164319Y-135376511D01*
X139089633Y-135060954D01*
X139085409Y-135059631D01*
X138022714Y-134705933D01*
X138018539Y-134704461D01*
X136969085Y-134313035D01*
X136964976Y-134311417D01*
X136761658Y-134227201D01*
X135930176Y-133882789D01*
X135926118Y-133881022D01*
X134907327Y-133415756D01*
X134903334Y-133413846D01*
X133901733Y-132912481D01*
X133897810Y-132910429D01*
X132914796Y-132373663D01*
X132910949Y-132371473D01*
X131947657Y-131799924D01*
X131943892Y-131797597D01*
X131001688Y-131192080D01*
X130998007Y-131189621D01*
X130268828Y-130683343D01*
X130077958Y-130550819D01*
X130074376Y-130548236D01*
X129959799Y-130462465D01*
X129700977Y-130268713D01*
X134649500Y-130268713D01*
X134649500Y-130731287D01*
X134653460Y-130756287D01*
X134677028Y-130905095D01*
X134682754Y-130941243D01*
X134701845Y-131000000D01*
X134748444Y-131143414D01*
X134844951Y-131332820D01*
X134969890Y-131504786D01*
X135120213Y-131655109D01*
X135292179Y-131780048D01*
X135292181Y-131780049D01*
X135292184Y-131780051D01*
X135481588Y-131876557D01*
X135683757Y-131942246D01*
X135893713Y-131975500D01*
X135893714Y-131975500D01*
X136106286Y-131975500D01*
X136106287Y-131975500D01*
X136316243Y-131942246D01*
X136518412Y-131876557D01*
X136707816Y-131780051D01*
X136792748Y-131718345D01*
X136879786Y-131655109D01*
X136879788Y-131655106D01*
X136879792Y-131655104D01*
X137030104Y-131504792D01*
X137149683Y-131340204D01*
X137205011Y-131297540D01*
X137274624Y-131291561D01*
X137336420Y-131324166D01*
X137350313Y-131340199D01*
X137453661Y-131482446D01*
X137469896Y-131504792D01*
X137620213Y-131655109D01*
X137792179Y-131780048D01*
X137792181Y-131780049D01*
X137792184Y-131780051D01*
X137981588Y-131876557D01*
X138183757Y-131942246D01*
X138393713Y-131975500D01*
X138393714Y-131975500D01*
X138606286Y-131975500D01*
X138606287Y-131975500D01*
X138816243Y-131942246D01*
X139018412Y-131876557D01*
X139207816Y-131780051D01*
X139292748Y-131718345D01*
X139379786Y-131655109D01*
X139379788Y-131655106D01*
X139379792Y-131655104D01*
X139530104Y-131504792D01*
X139649683Y-131340204D01*
X139705011Y-131297540D01*
X139774624Y-131291561D01*
X139836420Y-131324166D01*
X139850313Y-131340199D01*
X139953661Y-131482446D01*
X139969896Y-131504792D01*
X140120213Y-131655109D01*
X140292179Y-131780048D01*
X140292181Y-131780049D01*
X140292184Y-131780051D01*
X140481588Y-131876557D01*
X140683757Y-131942246D01*
X140893713Y-131975500D01*
X140893714Y-131975500D01*
X141106286Y-131975500D01*
X141106287Y-131975500D01*
X141316243Y-131942246D01*
X141518412Y-131876557D01*
X141707816Y-131780051D01*
X141792748Y-131718345D01*
X141879784Y-131655110D01*
X141879784Y-131655109D01*
X141879792Y-131655104D01*
X142018967Y-131515928D01*
X142080286Y-131482446D01*
X142149978Y-131487430D01*
X142205912Y-131529301D01*
X142212184Y-131538515D01*
X142307684Y-131693345D01*
X142431654Y-131817315D01*
X142580875Y-131909356D01*
X142580880Y-131909358D01*
X142747302Y-131964505D01*
X142747309Y-131964506D01*
X142850019Y-131974999D01*
X143249999Y-131974999D01*
X143250000Y-131974998D01*
X143250000Y-130904145D01*
X143316657Y-130942630D01*
X143437465Y-130975000D01*
X143562535Y-130975000D01*
X143683343Y-130942630D01*
X143750000Y-130904145D01*
X143750000Y-131974999D01*
X144149972Y-131974999D01*
X144149986Y-131974998D01*
X144252697Y-131964505D01*
X144419119Y-131909358D01*
X144419124Y-131909356D01*
X144568345Y-131817315D01*
X144692315Y-131693345D01*
X144784356Y-131544124D01*
X144784358Y-131544119D01*
X144839505Y-131377697D01*
X144839506Y-131377690D01*
X144849999Y-131274986D01*
X144850000Y-131274973D01*
X144850000Y-130750000D01*
X143904146Y-130750000D01*
X143942630Y-130683343D01*
X143975000Y-130562535D01*
X143975000Y-130437465D01*
X143942630Y-130316657D01*
X143929383Y-130293713D01*
X151149500Y-130293713D01*
X151149500Y-130756286D01*
X151178793Y-130941239D01*
X151182754Y-130966243D01*
X151193722Y-131000000D01*
X151248444Y-131168414D01*
X151344951Y-131357820D01*
X151469890Y-131529786D01*
X151620213Y-131680109D01*
X151792179Y-131805048D01*
X151792181Y-131805049D01*
X151792184Y-131805051D01*
X151981588Y-131901557D01*
X152183757Y-131967246D01*
X152393713Y-132000500D01*
X152393714Y-132000500D01*
X152606286Y-132000500D01*
X152606287Y-132000500D01*
X152816243Y-131967246D01*
X153018412Y-131901557D01*
X153207816Y-131805051D01*
X153242230Y-131780048D01*
X153379786Y-131680109D01*
X153379788Y-131680106D01*
X153379792Y-131680104D01*
X153530104Y-131529792D01*
X153649683Y-131365204D01*
X153705011Y-131322540D01*
X153774624Y-131316561D01*
X153836420Y-131349166D01*
X153850313Y-131365199D01*
X153969539Y-131529301D01*
X153969896Y-131529792D01*
X154120213Y-131680109D01*
X154292179Y-131805048D01*
X154292181Y-131805049D01*
X154292184Y-131805051D01*
X154481588Y-131901557D01*
X154683757Y-131967246D01*
X154893713Y-132000500D01*
X154893714Y-132000500D01*
X155106286Y-132000500D01*
X155106287Y-132000500D01*
X155316243Y-131967246D01*
X155518412Y-131901557D01*
X155707816Y-131805051D01*
X155742230Y-131780048D01*
X155879786Y-131680109D01*
X155879788Y-131680106D01*
X155879792Y-131680104D01*
X156030104Y-131529792D01*
X156149683Y-131365204D01*
X156205011Y-131322540D01*
X156274624Y-131316561D01*
X156336420Y-131349166D01*
X156350313Y-131365199D01*
X156469539Y-131529301D01*
X156469896Y-131529792D01*
X156620213Y-131680109D01*
X156792179Y-131805048D01*
X156792181Y-131805049D01*
X156792184Y-131805051D01*
X156981588Y-131901557D01*
X157183757Y-131967246D01*
X157393713Y-132000500D01*
X157393714Y-132000500D01*
X157606286Y-132000500D01*
X157606287Y-132000500D01*
X157816243Y-131967246D01*
X158018412Y-131901557D01*
X158207816Y-131805051D01*
X158265141Y-131763402D01*
X158379784Y-131680110D01*
X158379784Y-131680109D01*
X158379792Y-131680104D01*
X158518967Y-131540928D01*
X158580286Y-131507446D01*
X158649978Y-131512430D01*
X158705912Y-131554301D01*
X158712184Y-131563515D01*
X158807684Y-131718345D01*
X158931654Y-131842315D01*
X159080875Y-131934356D01*
X159080880Y-131934358D01*
X159247302Y-131989505D01*
X159247309Y-131989506D01*
X159350019Y-131999999D01*
X159749999Y-131999999D01*
X159750000Y-131999998D01*
X159750000Y-130929145D01*
X159816657Y-130967630D01*
X159937465Y-131000000D01*
X160062535Y-131000000D01*
X160183343Y-130967630D01*
X160250000Y-130929145D01*
X160250000Y-131999999D01*
X160649972Y-131999999D01*
X160649986Y-131999998D01*
X160752697Y-131989505D01*
X160919119Y-131934358D01*
X160919124Y-131934356D01*
X161068345Y-131842315D01*
X161192315Y-131718345D01*
X161284356Y-131569124D01*
X161284358Y-131569119D01*
X161339505Y-131402697D01*
X161339506Y-131402690D01*
X161349999Y-131299986D01*
X161350000Y-131299973D01*
X161350000Y-130775000D01*
X160404146Y-130775000D01*
X160442630Y-130708343D01*
X160475000Y-130587535D01*
X160475000Y-130462465D01*
X160442630Y-130341657D01*
X160404146Y-130275000D01*
X161349999Y-130275000D01*
X161349999Y-129750028D01*
X161349998Y-129750013D01*
X161339505Y-129647302D01*
X161284358Y-129480880D01*
X161284356Y-129480875D01*
X161192315Y-129331654D01*
X161068345Y-129207684D01*
X160919124Y-129115643D01*
X160919119Y-129115641D01*
X160752697Y-129060494D01*
X160752690Y-129060493D01*
X160649986Y-129050000D01*
X160250000Y-129050000D01*
X160250000Y-130120854D01*
X160183343Y-130082370D01*
X160062535Y-130050000D01*
X159937465Y-130050000D01*
X159816657Y-130082370D01*
X159750000Y-130120854D01*
X159750000Y-129050000D01*
X159350028Y-129050000D01*
X159350012Y-129050001D01*
X159247302Y-129060494D01*
X159080880Y-129115641D01*
X159080875Y-129115643D01*
X158931654Y-129207684D01*
X158807683Y-129331655D01*
X158807680Y-129331659D01*
X158712183Y-129486484D01*
X158660235Y-129533209D01*
X158591273Y-129544430D01*
X158527191Y-129516587D01*
X158518964Y-129509068D01*
X158379786Y-129369890D01*
X158207820Y-129244951D01*
X158018414Y-129148444D01*
X158018413Y-129148443D01*
X158018412Y-129148443D01*
X157816243Y-129082754D01*
X157816241Y-129082753D01*
X157816240Y-129082753D01*
X157654957Y-129057208D01*
X157606287Y-129049500D01*
X157393713Y-129049500D01*
X157345042Y-129057208D01*
X157183760Y-129082753D01*
X156981585Y-129148444D01*
X156792179Y-129244951D01*
X156620213Y-129369890D01*
X156469894Y-129520209D01*
X156469890Y-129520214D01*
X156350318Y-129684793D01*
X156294989Y-129727459D01*
X156225375Y-129733438D01*
X156163580Y-129700833D01*
X156149682Y-129684793D01*
X156030109Y-129520214D01*
X156030105Y-129520209D01*
X155879786Y-129369890D01*
X155707820Y-129244951D01*
X155518414Y-129148444D01*
X155518413Y-129148443D01*
X155518412Y-129148443D01*
X155316243Y-129082754D01*
X155316241Y-129082753D01*
X155316240Y-129082753D01*
X155154957Y-129057208D01*
X155106287Y-129049500D01*
X154893713Y-129049500D01*
X154845042Y-129057208D01*
X154683760Y-129082753D01*
X154481585Y-129148444D01*
X154292179Y-129244951D01*
X154120213Y-129369890D01*
X153969894Y-129520209D01*
X153969890Y-129520214D01*
X153850318Y-129684793D01*
X153794989Y-129727459D01*
X153725375Y-129733438D01*
X153663580Y-129700833D01*
X153649682Y-129684793D01*
X153530109Y-129520214D01*
X153530105Y-129520209D01*
X153379786Y-129369890D01*
X153207820Y-129244951D01*
X153018414Y-129148444D01*
X153018413Y-129148443D01*
X153018412Y-129148443D01*
X152816243Y-129082754D01*
X152816241Y-129082753D01*
X152816240Y-129082753D01*
X152654957Y-129057208D01*
X152606287Y-129049500D01*
X152393713Y-129049500D01*
X152345042Y-129057208D01*
X152183760Y-129082753D01*
X151981585Y-129148444D01*
X151792179Y-129244951D01*
X151620213Y-129369890D01*
X151469890Y-129520213D01*
X151344951Y-129692179D01*
X151248444Y-129881585D01*
X151182753Y-130083760D01*
X151149500Y-130293713D01*
X143929383Y-130293713D01*
X143904146Y-130250000D01*
X144849999Y-130250000D01*
X144849999Y-129725028D01*
X144849998Y-129725013D01*
X144839505Y-129622302D01*
X144784358Y-129455880D01*
X144784356Y-129455875D01*
X144692315Y-129306654D01*
X144568345Y-129182684D01*
X144419124Y-129090643D01*
X144419119Y-129090641D01*
X144252697Y-129035494D01*
X144252690Y-129035493D01*
X144149986Y-129025000D01*
X143750000Y-129025000D01*
X143750000Y-130095854D01*
X143683343Y-130057370D01*
X143562535Y-130025000D01*
X143437465Y-130025000D01*
X143316657Y-130057370D01*
X143250000Y-130095854D01*
X143250000Y-129025000D01*
X142850028Y-129025000D01*
X142850012Y-129025001D01*
X142747302Y-129035494D01*
X142580880Y-129090641D01*
X142580875Y-129090643D01*
X142431654Y-129182684D01*
X142307683Y-129306655D01*
X142307680Y-129306659D01*
X142212183Y-129461484D01*
X142160235Y-129508209D01*
X142091273Y-129519430D01*
X142027191Y-129491587D01*
X142018964Y-129484068D01*
X141879786Y-129344890D01*
X141707820Y-129219951D01*
X141518414Y-129123444D01*
X141518413Y-129123443D01*
X141518412Y-129123443D01*
X141316243Y-129057754D01*
X141316241Y-129057753D01*
X141316240Y-129057753D01*
X141154957Y-129032208D01*
X141106287Y-129024500D01*
X140893713Y-129024500D01*
X140845042Y-129032208D01*
X140683760Y-129057753D01*
X140481585Y-129123444D01*
X140292179Y-129219951D01*
X140120213Y-129344890D01*
X139969894Y-129495209D01*
X139969890Y-129495214D01*
X139850318Y-129659793D01*
X139794989Y-129702459D01*
X139725375Y-129708438D01*
X139663580Y-129675833D01*
X139649682Y-129659793D01*
X139530109Y-129495214D01*
X139530105Y-129495209D01*
X139379786Y-129344890D01*
X139207820Y-129219951D01*
X139018414Y-129123444D01*
X139018413Y-129123443D01*
X139018412Y-129123443D01*
X138816243Y-129057754D01*
X138816241Y-129057753D01*
X138816240Y-129057753D01*
X138654957Y-129032208D01*
X138606287Y-129024500D01*
X138393713Y-129024500D01*
X138345042Y-129032208D01*
X138183760Y-129057753D01*
X137981585Y-129123444D01*
X137792179Y-129219951D01*
X137620213Y-129344890D01*
X137469894Y-129495209D01*
X137469890Y-129495214D01*
X137350318Y-129659793D01*
X137294989Y-129702459D01*
X137225375Y-129708438D01*
X137163580Y-129675833D01*
X137149682Y-129659793D01*
X137030109Y-129495214D01*
X137030105Y-129495209D01*
X136879786Y-129344890D01*
X136707820Y-129219951D01*
X136518414Y-129123444D01*
X136518413Y-129123443D01*
X136518412Y-129123443D01*
X136316243Y-129057754D01*
X136316241Y-129057753D01*
X136316240Y-129057753D01*
X136154957Y-129032208D01*
X136106287Y-129024500D01*
X135893713Y-129024500D01*
X135845042Y-129032208D01*
X135683760Y-129057753D01*
X135481585Y-129123444D01*
X135292179Y-129219951D01*
X135120213Y-129344890D01*
X134969890Y-129495213D01*
X134844951Y-129667179D01*
X134748444Y-129856585D01*
X134682753Y-130058760D01*
X134673069Y-130119905D01*
X134649500Y-130268713D01*
X129700977Y-130268713D01*
X129620332Y-130208343D01*
X129177753Y-129877033D01*
X129174257Y-129874318D01*
X128302132Y-129171515D01*
X128298735Y-129168676D01*
X127452264Y-128435204D01*
X127448971Y-128432246D01*
X126629207Y-127669020D01*
X126626022Y-127665946D01*
X125834053Y-126873977D01*
X125830979Y-126870792D01*
X125067753Y-126051028D01*
X125064795Y-126047735D01*
X124331323Y-125201264D01*
X124328484Y-125197867D01*
X123625681Y-124325742D01*
X123622966Y-124322246D01*
X123495190Y-124151557D01*
X122951749Y-123425604D01*
X122949187Y-123422052D01*
X122565378Y-122869262D01*
X122350349Y-122559561D01*
X122310378Y-122501992D01*
X122307919Y-122498311D01*
X122304964Y-122493713D01*
X125649500Y-122493713D01*
X125649500Y-123006286D01*
X125669299Y-123131296D01*
X125682754Y-123216243D01*
X125735381Y-123378213D01*
X125748444Y-123418414D01*
X125844951Y-123607820D01*
X125969890Y-123779786D01*
X126120213Y-123930109D01*
X126292179Y-124055048D01*
X126292181Y-124055049D01*
X126292184Y-124055051D01*
X126481588Y-124151557D01*
X126683757Y-124217246D01*
X126893713Y-124250500D01*
X126893714Y-124250500D01*
X127106286Y-124250500D01*
X127106287Y-124250500D01*
X127316243Y-124217246D01*
X127518412Y-124151557D01*
X127707816Y-124055051D01*
X127879792Y-123930104D01*
X128018604Y-123791291D01*
X128079923Y-123757809D01*
X128149615Y-123762793D01*
X128205549Y-123804664D01*
X128211821Y-123813878D01*
X128215185Y-123819333D01*
X128215186Y-123819334D01*
X128307288Y-123968656D01*
X128431344Y-124092712D01*
X128580666Y-124184814D01*
X128747203Y-124239999D01*
X128849991Y-124250500D01*
X130150008Y-124250499D01*
X130252797Y-124239999D01*
X130419334Y-124184814D01*
X130568656Y-124092712D01*
X130692712Y-123968656D01*
X130722012Y-123921153D01*
X138199500Y-123921153D01*
X138199500Y-124078846D01*
X138230261Y-124233489D01*
X138230264Y-124233501D01*
X138290602Y-124379172D01*
X138290609Y-124379185D01*
X138378210Y-124510288D01*
X138378213Y-124510292D01*
X138489707Y-124621786D01*
X138489711Y-124621789D01*
X138620814Y-124709390D01*
X138620827Y-124709397D01*
X138766498Y-124769735D01*
X138766503Y-124769737D01*
X138921153Y-124800499D01*
X138921156Y-124800500D01*
X138921158Y-124800500D01*
X139078844Y-124800500D01*
X139078845Y-124800499D01*
X139233497Y-124769737D01*
X139379179Y-124709394D01*
X139510289Y-124621789D01*
X139621789Y-124510289D01*
X139709394Y-124379179D01*
X139769737Y-124233497D01*
X139800500Y-124078842D01*
X139800500Y-123921158D01*
X139800500Y-123921155D01*
X139800499Y-123921153D01*
X142199500Y-123921153D01*
X142199500Y-124078846D01*
X142230261Y-124233489D01*
X142230264Y-124233501D01*
X142290602Y-124379172D01*
X142290609Y-124379185D01*
X142378210Y-124510288D01*
X142378213Y-124510292D01*
X142489707Y-124621786D01*
X142489711Y-124621789D01*
X142620814Y-124709390D01*
X142620827Y-124709397D01*
X142766498Y-124769735D01*
X142766503Y-124769737D01*
X142921153Y-124800499D01*
X142921156Y-124800500D01*
X142921158Y-124800500D01*
X143078844Y-124800500D01*
X143078845Y-124800499D01*
X143233497Y-124769737D01*
X143379179Y-124709394D01*
X143510289Y-124621789D01*
X143621789Y-124510289D01*
X143709394Y-124379179D01*
X143769737Y-124233497D01*
X143772339Y-124220418D01*
X144748765Y-124220418D01*
X144748765Y-124378111D01*
X144779526Y-124532754D01*
X144779529Y-124532766D01*
X144839867Y-124678437D01*
X144839874Y-124678450D01*
X144927475Y-124809553D01*
X144927478Y-124809557D01*
X145038972Y-124921051D01*
X145038976Y-124921054D01*
X145170079Y-125008655D01*
X145170092Y-125008662D01*
X145315763Y-125069000D01*
X145315768Y-125069002D01*
X145470418Y-125099764D01*
X145470421Y-125099765D01*
X145470423Y-125099765D01*
X145628109Y-125099765D01*
X145628110Y-125099764D01*
X145782762Y-125069002D01*
X145928444Y-125008659D01*
X146059554Y-124921054D01*
X146171054Y-124809554D01*
X146258659Y-124678444D01*
X146319002Y-124532762D01*
X146349765Y-124378107D01*
X146349765Y-124220423D01*
X146349765Y-124220420D01*
X146349764Y-124220418D01*
X146349133Y-124217246D01*
X146319002Y-124065768D01*
X146298596Y-124016502D01*
X146258662Y-123920092D01*
X146258655Y-123920079D01*
X146171054Y-123788976D01*
X146171051Y-123788972D01*
X146059557Y-123677478D01*
X146059553Y-123677475D01*
X145928450Y-123589874D01*
X145928437Y-123589867D01*
X145782766Y-123529529D01*
X145782756Y-123529526D01*
X145773745Y-123527734D01*
X145773744Y-123527733D01*
X145628110Y-123498765D01*
X145628107Y-123498765D01*
X145470423Y-123498765D01*
X145470420Y-123498765D01*
X145315775Y-123529526D01*
X145315763Y-123529529D01*
X145170092Y-123589867D01*
X145170079Y-123589874D01*
X145038976Y-123677475D01*
X145038972Y-123677478D01*
X144927478Y-123788972D01*
X144927475Y-123788976D01*
X144839874Y-123920079D01*
X144839867Y-123920092D01*
X144779529Y-124065763D01*
X144779526Y-124065775D01*
X144748765Y-124220418D01*
X143772339Y-124220418D01*
X143786037Y-124151555D01*
X143800499Y-124078846D01*
X143800500Y-124078844D01*
X143800500Y-123921155D01*
X143800499Y-123921153D01*
X143790368Y-123870223D01*
X143769737Y-123766503D01*
X143766136Y-123757809D01*
X143709397Y-123620827D01*
X143709390Y-123620814D01*
X143621789Y-123489711D01*
X143621786Y-123489707D01*
X143544283Y-123412204D01*
X150196517Y-123412204D01*
X150196517Y-123569897D01*
X150227278Y-123724540D01*
X150227281Y-123724552D01*
X150287619Y-123870223D01*
X150287626Y-123870236D01*
X150375227Y-124001339D01*
X150375230Y-124001343D01*
X150418484Y-124044596D01*
X150451970Y-124105919D01*
X150452422Y-124156467D01*
X150449500Y-124171158D01*
X150449500Y-124328846D01*
X150480261Y-124483489D01*
X150480264Y-124483501D01*
X150540602Y-124629172D01*
X150540609Y-124629185D01*
X150628210Y-124760288D01*
X150628213Y-124760292D01*
X150739707Y-124871786D01*
X150739711Y-124871789D01*
X150870814Y-124959390D01*
X150870827Y-124959397D01*
X150989748Y-125008655D01*
X151016503Y-125019737D01*
X151171153Y-125050499D01*
X151171156Y-125050500D01*
X151171158Y-125050500D01*
X151328844Y-125050500D01*
X151328845Y-125050499D01*
X151483497Y-125019737D01*
X151629179Y-124959394D01*
X151760289Y-124871789D01*
X151871789Y-124760289D01*
X151959394Y-124629179D01*
X152019737Y-124483497D01*
X152050500Y-124328842D01*
X152050500Y-124171158D01*
X152050500Y-124171155D01*
X152050499Y-124171153D01*
X152034896Y-124092712D01*
X152019737Y-124016503D01*
X151980242Y-123921153D01*
X153199500Y-123921153D01*
X153199500Y-124078846D01*
X153230261Y-124233489D01*
X153230264Y-124233501D01*
X153290602Y-124379172D01*
X153290609Y-124379185D01*
X153378210Y-124510288D01*
X153378213Y-124510292D01*
X153489707Y-124621786D01*
X153489711Y-124621789D01*
X153620814Y-124709390D01*
X153620827Y-124709397D01*
X153766498Y-124769735D01*
X153766503Y-124769737D01*
X153921153Y-124800499D01*
X153921156Y-124800500D01*
X153921158Y-124800500D01*
X154078844Y-124800500D01*
X154078845Y-124800499D01*
X154233497Y-124769737D01*
X154379179Y-124709394D01*
X154510289Y-124621789D01*
X154621789Y-124510289D01*
X154709394Y-124379179D01*
X154769737Y-124233497D01*
X154800500Y-124078842D01*
X154800500Y-123921158D01*
X154800500Y-123921155D01*
X154800499Y-123921153D01*
X157199500Y-123921153D01*
X157199500Y-124078846D01*
X157230261Y-124233489D01*
X157230264Y-124233501D01*
X157290602Y-124379172D01*
X157290609Y-124379185D01*
X157378210Y-124510288D01*
X157378213Y-124510292D01*
X157489707Y-124621786D01*
X157489711Y-124621789D01*
X157620814Y-124709390D01*
X157620827Y-124709397D01*
X157766498Y-124769735D01*
X157766503Y-124769737D01*
X157921153Y-124800499D01*
X157921156Y-124800500D01*
X157921158Y-124800500D01*
X158078844Y-124800500D01*
X158078845Y-124800499D01*
X158233497Y-124769737D01*
X158379179Y-124709394D01*
X158510289Y-124621789D01*
X158621789Y-124510289D01*
X158709394Y-124379179D01*
X158769737Y-124233497D01*
X158800500Y-124078842D01*
X158800500Y-123921158D01*
X158800500Y-123921155D01*
X158800499Y-123921153D01*
X158790368Y-123870223D01*
X158769737Y-123766503D01*
X158766136Y-123757809D01*
X158709397Y-123620827D01*
X158709390Y-123620814D01*
X158621789Y-123489711D01*
X158621786Y-123489707D01*
X158510292Y-123378213D01*
X158510288Y-123378210D01*
X158379185Y-123290609D01*
X158379172Y-123290602D01*
X158233501Y-123230264D01*
X158233489Y-123230261D01*
X158078845Y-123199500D01*
X158078842Y-123199500D01*
X157921158Y-123199500D01*
X157921155Y-123199500D01*
X157766510Y-123230261D01*
X157766498Y-123230264D01*
X157620827Y-123290602D01*
X157620814Y-123290609D01*
X157489711Y-123378210D01*
X157489707Y-123378213D01*
X157378213Y-123489707D01*
X157378210Y-123489711D01*
X157290609Y-123620814D01*
X157290602Y-123620827D01*
X157230264Y-123766498D01*
X157230261Y-123766510D01*
X157199500Y-123921153D01*
X154800499Y-123921153D01*
X154790368Y-123870223D01*
X154769737Y-123766503D01*
X154766136Y-123757809D01*
X154709397Y-123620827D01*
X154709390Y-123620814D01*
X154621789Y-123489711D01*
X154621786Y-123489707D01*
X154510292Y-123378213D01*
X154510288Y-123378210D01*
X154379185Y-123290609D01*
X154379172Y-123290602D01*
X154233501Y-123230264D01*
X154233489Y-123230261D01*
X154078845Y-123199500D01*
X154078842Y-123199500D01*
X153921158Y-123199500D01*
X153921155Y-123199500D01*
X153766510Y-123230261D01*
X153766498Y-123230264D01*
X153620827Y-123290602D01*
X153620814Y-123290609D01*
X153489711Y-123378210D01*
X153489707Y-123378213D01*
X153378213Y-123489707D01*
X153378210Y-123489711D01*
X153290609Y-123620814D01*
X153290602Y-123620827D01*
X153230264Y-123766498D01*
X153230261Y-123766510D01*
X153199500Y-123921153D01*
X151980242Y-123921153D01*
X151979797Y-123920079D01*
X151959397Y-123870827D01*
X151959390Y-123870814D01*
X151871789Y-123739711D01*
X151871786Y-123739707D01*
X151828532Y-123696454D01*
X151795046Y-123635131D01*
X151794596Y-123584576D01*
X151797517Y-123569893D01*
X151797517Y-123412209D01*
X151797517Y-123412206D01*
X151797516Y-123412204D01*
X151773328Y-123290606D01*
X151766754Y-123257554D01*
X151749641Y-123216239D01*
X151706414Y-123111878D01*
X151706407Y-123111865D01*
X151618806Y-122980762D01*
X151618803Y-122980758D01*
X151507309Y-122869264D01*
X151507305Y-122869261D01*
X151376202Y-122781660D01*
X151376189Y-122781653D01*
X151230518Y-122721315D01*
X151230506Y-122721312D01*
X151075862Y-122690551D01*
X151075859Y-122690551D01*
X150918175Y-122690551D01*
X150918172Y-122690551D01*
X150763527Y-122721312D01*
X150763515Y-122721315D01*
X150617844Y-122781653D01*
X150617831Y-122781660D01*
X150486728Y-122869261D01*
X150486724Y-122869264D01*
X150375230Y-122980758D01*
X150375227Y-122980762D01*
X150287626Y-123111865D01*
X150287619Y-123111878D01*
X150227281Y-123257549D01*
X150227278Y-123257561D01*
X150196517Y-123412204D01*
X143544283Y-123412204D01*
X143510292Y-123378213D01*
X143510288Y-123378210D01*
X143379185Y-123290609D01*
X143379172Y-123290602D01*
X143233501Y-123230264D01*
X143233489Y-123230261D01*
X143078845Y-123199500D01*
X143078842Y-123199500D01*
X142921158Y-123199500D01*
X142921155Y-123199500D01*
X142766510Y-123230261D01*
X142766498Y-123230264D01*
X142620827Y-123290602D01*
X142620814Y-123290609D01*
X142489711Y-123378210D01*
X142489707Y-123378213D01*
X142378213Y-123489707D01*
X142378210Y-123489711D01*
X142290609Y-123620814D01*
X142290602Y-123620827D01*
X142230264Y-123766498D01*
X142230261Y-123766510D01*
X142199500Y-123921153D01*
X139800499Y-123921153D01*
X139790368Y-123870223D01*
X139769737Y-123766503D01*
X139766136Y-123757809D01*
X139709397Y-123620827D01*
X139709390Y-123620814D01*
X139621789Y-123489711D01*
X139621786Y-123489707D01*
X139510292Y-123378213D01*
X139510288Y-123378210D01*
X139379185Y-123290609D01*
X139379172Y-123290602D01*
X139233501Y-123230264D01*
X139233489Y-123230261D01*
X139078845Y-123199500D01*
X139078842Y-123199500D01*
X138921158Y-123199500D01*
X138921155Y-123199500D01*
X138766510Y-123230261D01*
X138766498Y-123230264D01*
X138620827Y-123290602D01*
X138620814Y-123290609D01*
X138489711Y-123378210D01*
X138489707Y-123378213D01*
X138378213Y-123489707D01*
X138378210Y-123489711D01*
X138290609Y-123620814D01*
X138290602Y-123620827D01*
X138230264Y-123766498D01*
X138230261Y-123766510D01*
X138199500Y-123921153D01*
X130722012Y-123921153D01*
X130784814Y-123819334D01*
X130839999Y-123652797D01*
X130850500Y-123550009D01*
X130850499Y-122405199D01*
X163045500Y-122405199D01*
X163045500Y-122594800D01*
X163065538Y-122721314D01*
X163075158Y-122782055D01*
X163103493Y-122869261D01*
X163133747Y-122962372D01*
X163209918Y-123111865D01*
X163219819Y-123131296D01*
X163331259Y-123284679D01*
X163465321Y-123418741D01*
X163618704Y-123530181D01*
X163696643Y-123569893D01*
X163787627Y-123616252D01*
X163787629Y-123616252D01*
X163787632Y-123616254D01*
X163967945Y-123674842D01*
X164061574Y-123689671D01*
X164155200Y-123704500D01*
X164155204Y-123704500D01*
X164344800Y-123704500D01*
X164428022Y-123691318D01*
X164532055Y-123674842D01*
X164712368Y-123616254D01*
X164881296Y-123530181D01*
X165034679Y-123418741D01*
X165168741Y-123284679D01*
X165280181Y-123131296D01*
X165366254Y-122962368D01*
X165424842Y-122782055D01*
X165441318Y-122678022D01*
X165454500Y-122594800D01*
X165454500Y-122405199D01*
X167045500Y-122405199D01*
X167045500Y-122594800D01*
X167065538Y-122721314D01*
X167075158Y-122782055D01*
X167103493Y-122869261D01*
X167133747Y-122962372D01*
X167209918Y-123111865D01*
X167219819Y-123131296D01*
X167331259Y-123284679D01*
X167465321Y-123418741D01*
X167618704Y-123530181D01*
X167696643Y-123569893D01*
X167787627Y-123616252D01*
X167787629Y-123616252D01*
X167787632Y-123616254D01*
X167967945Y-123674842D01*
X168061574Y-123689671D01*
X168155200Y-123704500D01*
X168155204Y-123704500D01*
X168344800Y-123704500D01*
X168428022Y-123691318D01*
X168532055Y-123674842D01*
X168712368Y-123616254D01*
X168881296Y-123530181D01*
X169034679Y-123418741D01*
X169168741Y-123284679D01*
X169280181Y-123131296D01*
X169366254Y-122962368D01*
X169424842Y-122782055D01*
X169441318Y-122678022D01*
X169454500Y-122594800D01*
X169454500Y-122405199D01*
X169433044Y-122269735D01*
X169424842Y-122217945D01*
X169366254Y-122037632D01*
X169366252Y-122037629D01*
X169366252Y-122037627D01*
X169320846Y-121948515D01*
X169280181Y-121868704D01*
X169168741Y-121715321D01*
X169034679Y-121581259D01*
X168881296Y-121469819D01*
X168832486Y-121444949D01*
X168712372Y-121383747D01*
X168653905Y-121364750D01*
X168532055Y-121325158D01*
X168532051Y-121325157D01*
X168532050Y-121325157D01*
X168344800Y-121295500D01*
X168344796Y-121295500D01*
X168155204Y-121295500D01*
X168155200Y-121295500D01*
X167967949Y-121325157D01*
X167967946Y-121325157D01*
X167967945Y-121325158D01*
X167909482Y-121344153D01*
X167787627Y-121383747D01*
X167618703Y-121469819D01*
X167465319Y-121581260D01*
X167331260Y-121715319D01*
X167219819Y-121868703D01*
X167133747Y-122037627D01*
X167106402Y-122121786D01*
X167077936Y-122209397D01*
X167075157Y-122217949D01*
X167045500Y-122405199D01*
X165454500Y-122405199D01*
X165433044Y-122269735D01*
X165424842Y-122217945D01*
X165366254Y-122037632D01*
X165366252Y-122037629D01*
X165366252Y-122037627D01*
X165320846Y-121948515D01*
X165280181Y-121868704D01*
X165168741Y-121715321D01*
X165034679Y-121581259D01*
X164881296Y-121469819D01*
X164832486Y-121444949D01*
X164712372Y-121383747D01*
X164653905Y-121364750D01*
X164532055Y-121325158D01*
X164532051Y-121325157D01*
X164532050Y-121325157D01*
X164344800Y-121295500D01*
X164344796Y-121295500D01*
X164155204Y-121295500D01*
X164155200Y-121295500D01*
X163967949Y-121325157D01*
X163967946Y-121325157D01*
X163967945Y-121325158D01*
X163909482Y-121344153D01*
X163787627Y-121383747D01*
X163618703Y-121469819D01*
X163465319Y-121581260D01*
X163331260Y-121715319D01*
X163219819Y-121868703D01*
X163133747Y-122037627D01*
X163106402Y-122121786D01*
X163077936Y-122209397D01*
X163075157Y-122217949D01*
X163045500Y-122405199D01*
X130850499Y-122405199D01*
X130850499Y-121949992D01*
X130839999Y-121847203D01*
X130784814Y-121680666D01*
X130692712Y-121531344D01*
X130582521Y-121421153D01*
X141699500Y-121421153D01*
X141699500Y-121578846D01*
X141730261Y-121733489D01*
X141730264Y-121733501D01*
X141790602Y-121879172D01*
X141790609Y-121879185D01*
X141878210Y-122010288D01*
X141878213Y-122010292D01*
X141989707Y-122121786D01*
X141989711Y-122121789D01*
X142120814Y-122209390D01*
X142120827Y-122209397D01*
X142266498Y-122269735D01*
X142266503Y-122269737D01*
X142421153Y-122300499D01*
X142421156Y-122300500D01*
X142421158Y-122300500D01*
X142578844Y-122300500D01*
X142578845Y-122300499D01*
X142733497Y-122269737D01*
X142879179Y-122209394D01*
X143010289Y-122121789D01*
X143121789Y-122010289D01*
X143209394Y-121879179D01*
X143269737Y-121733497D01*
X143300500Y-121578842D01*
X143300500Y-121421158D01*
X143300500Y-121421155D01*
X143300499Y-121421153D01*
X153699500Y-121421153D01*
X153699500Y-121578846D01*
X153730261Y-121733489D01*
X153730264Y-121733501D01*
X153790602Y-121879172D01*
X153790609Y-121879185D01*
X153878210Y-122010288D01*
X153878213Y-122010292D01*
X153989707Y-122121786D01*
X153989711Y-122121789D01*
X154120814Y-122209390D01*
X154120827Y-122209397D01*
X154266498Y-122269735D01*
X154266503Y-122269737D01*
X154421153Y-122300499D01*
X154421156Y-122300500D01*
X154421158Y-122300500D01*
X154578844Y-122300500D01*
X154578845Y-122300499D01*
X154613963Y-122293513D01*
X154688359Y-122278716D01*
X154688364Y-122278715D01*
X154719429Y-122272535D01*
X154733497Y-122269737D01*
X154879179Y-122209394D01*
X155010289Y-122121789D01*
X155121789Y-122010289D01*
X155209394Y-121879179D01*
X155269737Y-121733497D01*
X155300500Y-121578842D01*
X155300500Y-121421158D01*
X155300500Y-121421155D01*
X155300499Y-121421153D01*
X155279421Y-121315187D01*
X155269737Y-121266503D01*
X155262694Y-121249500D01*
X155209397Y-121120827D01*
X155209390Y-121120814D01*
X155121789Y-120989711D01*
X155121786Y-120989707D01*
X155010292Y-120878213D01*
X155010288Y-120878210D01*
X154879185Y-120790609D01*
X154879172Y-120790602D01*
X154733501Y-120730264D01*
X154733489Y-120730261D01*
X154578845Y-120699500D01*
X154578842Y-120699500D01*
X154421158Y-120699500D01*
X154421155Y-120699500D01*
X154266510Y-120730261D01*
X154266498Y-120730264D01*
X154120827Y-120790602D01*
X154120814Y-120790609D01*
X153989711Y-120878210D01*
X153989707Y-120878213D01*
X153878213Y-120989707D01*
X153878210Y-120989711D01*
X153790609Y-121120814D01*
X153790602Y-121120827D01*
X153730264Y-121266498D01*
X153730261Y-121266510D01*
X153699500Y-121421153D01*
X143300499Y-121421153D01*
X143279421Y-121315187D01*
X143269737Y-121266503D01*
X143262694Y-121249500D01*
X143209397Y-121120827D01*
X143209390Y-121120814D01*
X143121789Y-120989711D01*
X143121786Y-120989707D01*
X143010292Y-120878213D01*
X143010288Y-120878210D01*
X142879185Y-120790609D01*
X142879172Y-120790602D01*
X142733501Y-120730264D01*
X142733489Y-120730261D01*
X142578845Y-120699500D01*
X142578842Y-120699500D01*
X142421158Y-120699500D01*
X142421155Y-120699500D01*
X142266510Y-120730261D01*
X142266498Y-120730264D01*
X142120827Y-120790602D01*
X142120814Y-120790609D01*
X141989711Y-120878210D01*
X141989707Y-120878213D01*
X141878213Y-120989707D01*
X141878210Y-120989711D01*
X141790609Y-121120814D01*
X141790602Y-121120827D01*
X141730264Y-121266498D01*
X141730261Y-121266510D01*
X141699500Y-121421153D01*
X130582521Y-121421153D01*
X130568656Y-121407288D01*
X130473253Y-121348443D01*
X130419336Y-121315187D01*
X130419331Y-121315185D01*
X130417862Y-121314698D01*
X130252797Y-121260001D01*
X130252795Y-121260000D01*
X130150010Y-121249500D01*
X128849998Y-121249500D01*
X128849981Y-121249501D01*
X128747203Y-121260000D01*
X128747200Y-121260001D01*
X128580668Y-121315185D01*
X128580663Y-121315187D01*
X128431342Y-121407289D01*
X128307289Y-121531342D01*
X128211821Y-121686121D01*
X128159873Y-121732845D01*
X128090910Y-121744068D01*
X128026828Y-121716224D01*
X128018601Y-121708705D01*
X127879786Y-121569890D01*
X127707820Y-121444951D01*
X127518414Y-121348444D01*
X127518413Y-121348443D01*
X127518412Y-121348443D01*
X127316243Y-121282754D01*
X127316241Y-121282753D01*
X127316240Y-121282753D01*
X127154957Y-121257208D01*
X127106287Y-121249500D01*
X126893713Y-121249500D01*
X126845042Y-121257208D01*
X126683760Y-121282753D01*
X126481585Y-121348444D01*
X126292179Y-121444951D01*
X126120213Y-121569890D01*
X125969890Y-121720213D01*
X125844951Y-121892179D01*
X125748444Y-122081585D01*
X125682753Y-122283760D01*
X125649500Y-122493713D01*
X122304964Y-122493713D01*
X121702402Y-121556107D01*
X121700075Y-121552342D01*
X121248113Y-120790602D01*
X121128516Y-120589033D01*
X121126336Y-120585203D01*
X121049827Y-120445088D01*
X120589570Y-119602189D01*
X120587518Y-119598266D01*
X120086153Y-118596665D01*
X120084243Y-118592672D01*
X119618977Y-117573881D01*
X119617210Y-117569823D01*
X119563530Y-117440229D01*
X119545892Y-117397648D01*
X172699500Y-117397648D01*
X172699500Y-117602351D01*
X172731522Y-117804534D01*
X172794781Y-117999223D01*
X172887715Y-118181613D01*
X173008028Y-118347213D01*
X173152786Y-118491971D01*
X173291392Y-118592672D01*
X173318390Y-118612287D01*
X173434607Y-118671503D01*
X173500776Y-118705218D01*
X173500778Y-118705218D01*
X173500781Y-118705220D01*
X173605137Y-118739127D01*
X173695465Y-118768477D01*
X173796557Y-118784488D01*
X173897648Y-118800500D01*
X173897649Y-118800500D01*
X174102351Y-118800500D01*
X174102352Y-118800500D01*
X174304534Y-118768477D01*
X174499219Y-118705220D01*
X174681610Y-118612287D01*
X174774590Y-118544732D01*
X174847213Y-118491971D01*
X174847215Y-118491968D01*
X174847219Y-118491966D01*
X174991966Y-118347219D01*
X174991968Y-118347215D01*
X174991971Y-118347213D01*
X175044732Y-118274590D01*
X175112287Y-118181610D01*
X175205220Y-117999219D01*
X175268477Y-117804534D01*
X175300500Y-117602352D01*
X175300500Y-117397648D01*
X175268477Y-117195466D01*
X175205220Y-117000781D01*
X175205218Y-117000778D01*
X175205218Y-117000776D01*
X175171503Y-116934607D01*
X175112287Y-116818390D01*
X175104556Y-116807749D01*
X174991971Y-116652786D01*
X174847213Y-116508028D01*
X174681613Y-116387715D01*
X174681612Y-116387714D01*
X174681610Y-116387713D01*
X174624653Y-116358691D01*
X174499223Y-116294781D01*
X174304534Y-116231522D01*
X174129995Y-116203878D01*
X174102352Y-116199500D01*
X173897648Y-116199500D01*
X173873329Y-116203351D01*
X173695465Y-116231522D01*
X173500776Y-116294781D01*
X173318386Y-116387715D01*
X173152786Y-116508028D01*
X173008028Y-116652786D01*
X172887715Y-116818386D01*
X172794781Y-117000776D01*
X172731522Y-117195465D01*
X172699500Y-117397648D01*
X119545892Y-117397648D01*
X119188569Y-116534994D01*
X119186979Y-116530952D01*
X118795525Y-115481424D01*
X118794079Y-115477322D01*
X118517937Y-114647648D01*
X122199500Y-114647648D01*
X122199500Y-114852351D01*
X122231522Y-115054534D01*
X122294781Y-115249223D01*
X122387715Y-115431613D01*
X122508028Y-115597213D01*
X122652786Y-115741971D01*
X122807749Y-115854556D01*
X122818390Y-115862287D01*
X122934607Y-115921503D01*
X123000776Y-115955218D01*
X123000778Y-115955218D01*
X123000781Y-115955220D01*
X123105137Y-115989127D01*
X123195465Y-116018477D01*
X123296557Y-116034488D01*
X123397648Y-116050500D01*
X123397649Y-116050500D01*
X123602351Y-116050500D01*
X123602352Y-116050500D01*
X123804534Y-116018477D01*
X123999219Y-115955220D01*
X124181610Y-115862287D01*
X124274590Y-115794732D01*
X124347213Y-115741971D01*
X124347215Y-115741968D01*
X124347219Y-115741966D01*
X124491966Y-115597219D01*
X124491968Y-115597215D01*
X124491971Y-115597213D01*
X124548259Y-115519738D01*
X124612287Y-115431610D01*
X124705220Y-115249219D01*
X124768477Y-115054534D01*
X124800500Y-114852352D01*
X124800500Y-114671153D01*
X169199500Y-114671153D01*
X169199500Y-114828846D01*
X169230261Y-114983489D01*
X169230264Y-114983501D01*
X169290602Y-115129172D01*
X169290609Y-115129185D01*
X169378210Y-115260288D01*
X169378213Y-115260292D01*
X169489707Y-115371786D01*
X169489711Y-115371789D01*
X169620814Y-115459390D01*
X169620827Y-115459397D01*
X169674093Y-115481460D01*
X169766503Y-115519737D01*
X169921153Y-115550499D01*
X169921156Y-115550500D01*
X169921158Y-115550500D01*
X170078844Y-115550500D01*
X170078845Y-115550499D01*
X170233497Y-115519737D01*
X170379179Y-115459394D01*
X170510289Y-115371789D01*
X170621789Y-115260289D01*
X170709394Y-115129179D01*
X170769737Y-114983497D01*
X170800500Y-114828842D01*
X170800500Y-114671158D01*
X170800500Y-114671155D01*
X170800499Y-114671153D01*
X170769737Y-114516503D01*
X170740313Y-114445466D01*
X170709397Y-114370827D01*
X170709390Y-114370814D01*
X170621789Y-114239711D01*
X170621786Y-114239707D01*
X170510292Y-114128213D01*
X170510288Y-114128210D01*
X170379185Y-114040609D01*
X170379172Y-114040602D01*
X170233501Y-113980264D01*
X170233489Y-113980261D01*
X170078845Y-113949500D01*
X170078842Y-113949500D01*
X169921158Y-113949500D01*
X169921155Y-113949500D01*
X169766510Y-113980261D01*
X169766498Y-113980264D01*
X169620827Y-114040602D01*
X169620814Y-114040609D01*
X169489711Y-114128210D01*
X169489707Y-114128213D01*
X169378213Y-114239707D01*
X169378210Y-114239711D01*
X169290609Y-114370814D01*
X169290602Y-114370827D01*
X169230264Y-114516498D01*
X169230261Y-114516510D01*
X169199500Y-114671153D01*
X124800500Y-114671153D01*
X124800500Y-114647648D01*
X124768477Y-114445465D01*
X124705218Y-114250776D01*
X124642767Y-114128211D01*
X124612287Y-114068390D01*
X124592098Y-114040602D01*
X124491971Y-113902786D01*
X124347213Y-113758028D01*
X124181613Y-113637715D01*
X124181612Y-113637714D01*
X124181610Y-113637713D01*
X124124653Y-113608691D01*
X123999223Y-113544781D01*
X123804534Y-113481522D01*
X123629995Y-113453878D01*
X123602352Y-113449500D01*
X123397648Y-113449500D01*
X123373329Y-113453351D01*
X123195465Y-113481522D01*
X123000776Y-113544781D01*
X122818386Y-113637715D01*
X122652786Y-113758028D01*
X122508028Y-113902786D01*
X122387715Y-114068386D01*
X122294781Y-114250776D01*
X122231522Y-114445465D01*
X122199500Y-114647648D01*
X118517937Y-114647648D01*
X118450644Y-114445466D01*
X118440368Y-114414590D01*
X118439045Y-114410366D01*
X118338632Y-114068390D01*
X118123481Y-113335654D01*
X118122317Y-113331411D01*
X118057853Y-113078844D01*
X117845321Y-112246152D01*
X117844306Y-112241856D01*
X117836842Y-112207546D01*
X117611389Y-111171153D01*
X164199500Y-111171153D01*
X164199500Y-111328846D01*
X164230261Y-111483489D01*
X164230264Y-111483501D01*
X164290602Y-111629172D01*
X164290609Y-111629185D01*
X164378210Y-111760288D01*
X164378213Y-111760292D01*
X164489707Y-111871786D01*
X164489711Y-111871789D01*
X164620814Y-111959390D01*
X164620827Y-111959397D01*
X164744054Y-112010439D01*
X164798458Y-112054280D01*
X164820523Y-112120574D01*
X164803244Y-112188273D01*
X164752107Y-112235884D01*
X164744054Y-112239561D01*
X164620827Y-112290602D01*
X164620814Y-112290609D01*
X164489711Y-112378210D01*
X164489707Y-112378213D01*
X164378213Y-112489707D01*
X164378210Y-112489711D01*
X164290609Y-112620814D01*
X164290602Y-112620827D01*
X164230264Y-112766498D01*
X164230261Y-112766510D01*
X164199500Y-112921153D01*
X164199500Y-113078846D01*
X164230261Y-113233489D01*
X164230264Y-113233501D01*
X164290602Y-113379172D01*
X164290609Y-113379185D01*
X164378210Y-113510288D01*
X164378213Y-113510292D01*
X164489707Y-113621786D01*
X164489711Y-113621789D01*
X164620814Y-113709390D01*
X164620827Y-113709397D01*
X164738249Y-113758034D01*
X164766503Y-113769737D01*
X164921153Y-113800499D01*
X164921156Y-113800500D01*
X164921158Y-113800500D01*
X165078844Y-113800500D01*
X165078845Y-113800499D01*
X165233497Y-113769737D01*
X165379179Y-113709394D01*
X165510289Y-113621789D01*
X165621789Y-113510289D01*
X165709394Y-113379179D01*
X165769737Y-113233497D01*
X165800500Y-113078842D01*
X165800500Y-112921158D01*
X165800500Y-112921155D01*
X165800499Y-112921153D01*
X165769738Y-112766510D01*
X165769737Y-112766503D01*
X165769735Y-112766498D01*
X165709397Y-112620827D01*
X165709390Y-112620814D01*
X165621789Y-112489711D01*
X165621786Y-112489707D01*
X165510292Y-112378213D01*
X165510288Y-112378210D01*
X165379185Y-112290609D01*
X165379172Y-112290602D01*
X165255945Y-112239561D01*
X165201541Y-112195721D01*
X165179476Y-112129427D01*
X165196755Y-112061727D01*
X165247892Y-112014116D01*
X165255945Y-112010439D01*
X165379172Y-111959397D01*
X165379172Y-111959396D01*
X165379179Y-111959394D01*
X165510289Y-111871789D01*
X165621789Y-111760289D01*
X165709394Y-111629179D01*
X165769737Y-111483497D01*
X165800500Y-111328842D01*
X165800500Y-111171158D01*
X165800500Y-111171155D01*
X165800499Y-111171153D01*
X165790679Y-111121786D01*
X165769737Y-111016503D01*
X165767163Y-111010288D01*
X165709397Y-110870827D01*
X165709390Y-110870814D01*
X165621789Y-110739711D01*
X165621786Y-110739707D01*
X165510292Y-110628213D01*
X165510288Y-110628210D01*
X165379185Y-110540609D01*
X165379172Y-110540602D01*
X165233501Y-110480264D01*
X165233489Y-110480261D01*
X165078845Y-110449500D01*
X165078842Y-110449500D01*
X164921158Y-110449500D01*
X164921155Y-110449500D01*
X164766510Y-110480261D01*
X164766498Y-110480264D01*
X164620827Y-110540602D01*
X164620814Y-110540609D01*
X164489711Y-110628210D01*
X164489707Y-110628213D01*
X164378213Y-110739707D01*
X164378210Y-110739711D01*
X164290609Y-110870814D01*
X164290602Y-110870827D01*
X164230264Y-111016498D01*
X164230261Y-111016510D01*
X164199500Y-111171153D01*
X117611389Y-111171153D01*
X117606223Y-111147404D01*
X117605363Y-111143083D01*
X117601521Y-111121789D01*
X117406490Y-110040805D01*
X117405785Y-110036448D01*
X117398172Y-109983501D01*
X117266830Y-109070000D01*
X117805138Y-109070000D01*
X118608012Y-109070000D01*
X118590795Y-109079940D01*
X118534940Y-109135795D01*
X118495444Y-109204204D01*
X118475000Y-109280504D01*
X118475000Y-109359496D01*
X118495444Y-109435796D01*
X118534940Y-109504205D01*
X118590795Y-109560060D01*
X118608012Y-109570000D01*
X117805138Y-109570000D01*
X117813430Y-109611690D01*
X117813430Y-109611692D01*
X117888807Y-109793671D01*
X117888814Y-109793684D01*
X117998248Y-109957462D01*
X117998251Y-109957466D01*
X118137533Y-110096748D01*
X118137537Y-110096751D01*
X118301315Y-110206185D01*
X118301328Y-110206192D01*
X118483306Y-110281569D01*
X118483318Y-110281572D01*
X118676504Y-110319999D01*
X118676508Y-110320000D01*
X118925000Y-110320000D01*
X118925000Y-109620000D01*
X119425000Y-109620000D01*
X119425000Y-110320000D01*
X119673492Y-110320000D01*
X119673495Y-110319999D01*
X119866681Y-110281572D01*
X119866693Y-110281569D01*
X120048671Y-110206192D01*
X120048684Y-110206185D01*
X120212462Y-110096751D01*
X120212466Y-110096748D01*
X120351748Y-109957466D01*
X120351751Y-109957462D01*
X120461185Y-109793684D01*
X120461192Y-109793671D01*
X120536569Y-109611692D01*
X120536569Y-109611690D01*
X120544862Y-109570000D01*
X119741988Y-109570000D01*
X119759205Y-109560060D01*
X119815060Y-109504205D01*
X119854556Y-109435796D01*
X119875000Y-109359496D01*
X119875000Y-109280504D01*
X119854556Y-109204204D01*
X119815060Y-109135795D01*
X119759205Y-109079940D01*
X119741988Y-109070000D01*
X120544862Y-109070000D01*
X121835138Y-109070000D01*
X122638012Y-109070000D01*
X122620795Y-109079940D01*
X122564940Y-109135795D01*
X122525444Y-109204204D01*
X122505000Y-109280504D01*
X122505000Y-109359496D01*
X122525444Y-109435796D01*
X122564940Y-109504205D01*
X122620795Y-109560060D01*
X122638012Y-109570000D01*
X121835138Y-109570000D01*
X121843430Y-109611690D01*
X121843430Y-109611692D01*
X121918807Y-109793671D01*
X121918814Y-109793684D01*
X122028248Y-109957462D01*
X122028251Y-109957466D01*
X122167533Y-110096748D01*
X122167537Y-110096751D01*
X122331315Y-110206185D01*
X122331328Y-110206192D01*
X122513306Y-110281569D01*
X122513318Y-110281572D01*
X122706504Y-110319999D01*
X122706508Y-110320000D01*
X123105000Y-110320000D01*
X123105000Y-109620000D01*
X123605000Y-109620000D01*
X123605000Y-110320000D01*
X124003492Y-110320000D01*
X124003495Y-110319999D01*
X124196681Y-110281572D01*
X124196693Y-110281569D01*
X124378671Y-110206192D01*
X124378684Y-110206185D01*
X124542462Y-110096751D01*
X124542466Y-110096748D01*
X124681748Y-109957466D01*
X124681751Y-109957462D01*
X124706012Y-109921153D01*
X161199500Y-109921153D01*
X161199500Y-110078846D01*
X161230261Y-110233489D01*
X161230264Y-110233501D01*
X161290602Y-110379172D01*
X161290609Y-110379185D01*
X161378210Y-110510288D01*
X161378213Y-110510292D01*
X161489707Y-110621786D01*
X161489711Y-110621789D01*
X161620814Y-110709390D01*
X161620827Y-110709397D01*
X161694013Y-110739711D01*
X161766503Y-110769737D01*
X161921153Y-110800499D01*
X161921156Y-110800500D01*
X161921158Y-110800500D01*
X162078844Y-110800500D01*
X162078845Y-110800499D01*
X162233497Y-110769737D01*
X162379179Y-110709394D01*
X162510289Y-110621789D01*
X162621789Y-110510289D01*
X162709394Y-110379179D01*
X162769737Y-110233497D01*
X162800500Y-110078842D01*
X162800500Y-109921158D01*
X162800500Y-109921155D01*
X162800499Y-109921153D01*
X162782137Y-109828842D01*
X162769737Y-109766503D01*
X162730242Y-109671153D01*
X165699500Y-109671153D01*
X165699500Y-109828846D01*
X165730261Y-109983489D01*
X165730264Y-109983501D01*
X165790602Y-110129172D01*
X165790609Y-110129185D01*
X165878210Y-110260288D01*
X165878213Y-110260292D01*
X165989707Y-110371786D01*
X165989711Y-110371789D01*
X166120814Y-110459390D01*
X166120827Y-110459397D01*
X166266498Y-110519735D01*
X166266503Y-110519737D01*
X166421153Y-110550499D01*
X166421156Y-110550500D01*
X166421158Y-110550500D01*
X166578844Y-110550500D01*
X166578845Y-110550499D01*
X166733497Y-110519737D01*
X166879179Y-110459394D01*
X167010289Y-110371789D01*
X167121789Y-110260289D01*
X167209394Y-110129179D01*
X167212854Y-110120827D01*
X167245994Y-110040818D01*
X167269737Y-109983497D01*
X167300500Y-109828842D01*
X167300500Y-109671158D01*
X167300500Y-109671155D01*
X167300499Y-109671153D01*
X167289393Y-109615318D01*
X167269737Y-109516503D01*
X167258802Y-109490104D01*
X167209397Y-109370827D01*
X167209390Y-109370814D01*
X167121789Y-109239711D01*
X167121786Y-109239707D01*
X167010292Y-109128213D01*
X167010288Y-109128210D01*
X166879185Y-109040609D01*
X166879172Y-109040602D01*
X166733501Y-108980264D01*
X166733489Y-108980261D01*
X166578845Y-108949500D01*
X166578842Y-108949500D01*
X166421158Y-108949500D01*
X166421155Y-108949500D01*
X166266510Y-108980261D01*
X166266498Y-108980264D01*
X166120827Y-109040602D01*
X166120814Y-109040609D01*
X165989711Y-109128210D01*
X165989707Y-109128213D01*
X165878213Y-109239707D01*
X165878210Y-109239711D01*
X165790609Y-109370814D01*
X165790602Y-109370827D01*
X165730264Y-109516498D01*
X165730261Y-109516510D01*
X165699500Y-109671153D01*
X162730242Y-109671153D01*
X162717452Y-109640274D01*
X162709397Y-109620827D01*
X162709390Y-109620814D01*
X162621789Y-109489711D01*
X162621786Y-109489707D01*
X162510292Y-109378213D01*
X162510288Y-109378210D01*
X162379185Y-109290609D01*
X162379172Y-109290602D01*
X162233501Y-109230264D01*
X162233489Y-109230261D01*
X162078845Y-109199500D01*
X162078842Y-109199500D01*
X161921158Y-109199500D01*
X161921155Y-109199500D01*
X161766510Y-109230261D01*
X161766498Y-109230264D01*
X161620827Y-109290602D01*
X161620814Y-109290609D01*
X161489711Y-109378210D01*
X161489707Y-109378213D01*
X161378213Y-109489707D01*
X161378210Y-109489711D01*
X161290609Y-109620814D01*
X161290602Y-109620827D01*
X161230264Y-109766498D01*
X161230261Y-109766510D01*
X161199500Y-109921153D01*
X124706012Y-109921153D01*
X124756112Y-109846175D01*
X124791185Y-109793684D01*
X124791192Y-109793671D01*
X124866569Y-109611692D01*
X124866569Y-109611690D01*
X124874862Y-109570000D01*
X124071988Y-109570000D01*
X124089205Y-109560060D01*
X124145060Y-109504205D01*
X124184556Y-109435796D01*
X124205000Y-109359496D01*
X124205000Y-109280504D01*
X124184556Y-109204204D01*
X124145060Y-109135795D01*
X124089205Y-109079940D01*
X124071988Y-109070000D01*
X124874862Y-109070000D01*
X124866569Y-109028309D01*
X124866569Y-109028307D01*
X124791192Y-108846328D01*
X124791185Y-108846315D01*
X124716109Y-108733957D01*
X124681751Y-108682536D01*
X124670368Y-108671153D01*
X126699500Y-108671153D01*
X126699500Y-108828846D01*
X126730261Y-108983489D01*
X126730264Y-108983501D01*
X126790602Y-109129172D01*
X126790609Y-109129185D01*
X126878210Y-109260288D01*
X126878213Y-109260292D01*
X126989707Y-109371786D01*
X126989711Y-109371789D01*
X127120814Y-109459390D01*
X127120827Y-109459397D01*
X127229005Y-109504205D01*
X127266503Y-109519737D01*
X127417905Y-109549853D01*
X127421153Y-109550499D01*
X127421156Y-109550500D01*
X127421158Y-109550500D01*
X127578844Y-109550500D01*
X127578845Y-109550499D01*
X127733497Y-109519737D01*
X127879179Y-109459394D01*
X128010289Y-109371789D01*
X128121789Y-109260289D01*
X128209394Y-109129179D01*
X128269737Y-108983497D01*
X128300500Y-108828842D01*
X128300500Y-108671158D01*
X128300500Y-108671155D01*
X128300499Y-108671153D01*
X128269737Y-108516503D01*
X128269735Y-108516498D01*
X128209397Y-108370827D01*
X128209390Y-108370814D01*
X128121789Y-108239711D01*
X128121786Y-108239707D01*
X128010292Y-108128213D01*
X128010288Y-108128210D01*
X127879185Y-108040609D01*
X127879172Y-108040602D01*
X127733501Y-107980264D01*
X127733489Y-107980261D01*
X127578845Y-107949500D01*
X127578842Y-107949500D01*
X127421158Y-107949500D01*
X127421155Y-107949500D01*
X127266510Y-107980261D01*
X127266498Y-107980264D01*
X127120827Y-108040602D01*
X127120814Y-108040609D01*
X126989711Y-108128210D01*
X126989707Y-108128213D01*
X126878213Y-108239707D01*
X126878210Y-108239711D01*
X126790609Y-108370814D01*
X126790602Y-108370827D01*
X126730264Y-108516498D01*
X126730261Y-108516510D01*
X126699500Y-108671153D01*
X124670368Y-108671153D01*
X124542466Y-108543251D01*
X124542462Y-108543248D01*
X124378684Y-108433814D01*
X124378671Y-108433807D01*
X124196693Y-108358430D01*
X124196681Y-108358427D01*
X124003495Y-108320000D01*
X123605000Y-108320000D01*
X123605000Y-109020000D01*
X123105000Y-109020000D01*
X123105000Y-108424049D01*
X123124685Y-108357010D01*
X123141870Y-108335820D01*
X123153203Y-108324627D01*
X123177665Y-108310505D01*
X123275505Y-108212665D01*
X123344688Y-108092836D01*
X123380500Y-107959183D01*
X123380500Y-107820817D01*
X123344688Y-107687164D01*
X123275505Y-107567335D01*
X123177665Y-107469495D01*
X123177664Y-107469494D01*
X123177661Y-107469492D01*
X123057838Y-107400313D01*
X123057837Y-107400312D01*
X123057836Y-107400312D01*
X122924183Y-107364500D01*
X122785817Y-107364500D01*
X122652164Y-107400312D01*
X122652161Y-107400313D01*
X122532338Y-107469492D01*
X122532333Y-107469496D01*
X122434496Y-107567333D01*
X122434492Y-107567338D01*
X122365313Y-107687161D01*
X122365312Y-107687164D01*
X122329500Y-107820817D01*
X122329500Y-107959183D01*
X122345726Y-108019737D01*
X122365312Y-108092835D01*
X122365313Y-108092838D01*
X122434492Y-108212661D01*
X122439441Y-108219110D01*
X122436813Y-108221125D01*
X122462911Y-108268919D01*
X122457927Y-108338611D01*
X122416055Y-108394544D01*
X122389197Y-108409838D01*
X122331328Y-108433807D01*
X122331315Y-108433814D01*
X122167537Y-108543248D01*
X122167533Y-108543251D01*
X122028251Y-108682533D01*
X122028248Y-108682537D01*
X121918814Y-108846315D01*
X121918807Y-108846328D01*
X121843430Y-109028307D01*
X121843430Y-109028309D01*
X121835138Y-109070000D01*
X120544862Y-109070000D01*
X120536569Y-109028309D01*
X120536569Y-109028307D01*
X120461192Y-108846328D01*
X120461185Y-108846315D01*
X120351751Y-108682537D01*
X120351748Y-108682533D01*
X120212466Y-108543251D01*
X120212462Y-108543248D01*
X120048684Y-108433814D01*
X120048671Y-108433807D01*
X119866693Y-108358430D01*
X119866681Y-108358427D01*
X119673495Y-108320000D01*
X119425000Y-108320000D01*
X119425000Y-109020000D01*
X118925000Y-109020000D01*
X118925000Y-108320000D01*
X118676504Y-108320000D01*
X118483318Y-108358427D01*
X118483306Y-108358430D01*
X118301328Y-108433807D01*
X118301315Y-108433814D01*
X118137537Y-108543248D01*
X118137533Y-108543251D01*
X117998251Y-108682533D01*
X117998248Y-108682537D01*
X117888814Y-108846315D01*
X117888807Y-108846328D01*
X117813430Y-109028307D01*
X117813430Y-109028309D01*
X117805138Y-109070000D01*
X117266830Y-109070000D01*
X117246385Y-108927802D01*
X117245836Y-108923428D01*
X117237547Y-108846328D01*
X117126101Y-107809727D01*
X117125716Y-107805421D01*
X117080352Y-107171153D01*
X124699500Y-107171153D01*
X124699500Y-107328846D01*
X124730261Y-107483489D01*
X124730264Y-107483501D01*
X124790602Y-107629172D01*
X124790609Y-107629185D01*
X124878210Y-107760288D01*
X124878213Y-107760292D01*
X124989707Y-107871786D01*
X124989711Y-107871789D01*
X125120814Y-107959390D01*
X125120827Y-107959397D01*
X125266498Y-108019735D01*
X125266503Y-108019737D01*
X125421153Y-108050499D01*
X125421156Y-108050500D01*
X125421158Y-108050500D01*
X125578844Y-108050500D01*
X125578845Y-108050499D01*
X125733497Y-108019737D01*
X125879179Y-107959394D01*
X126010289Y-107871789D01*
X126121789Y-107760289D01*
X126209394Y-107629179D01*
X126269737Y-107483497D01*
X126300500Y-107328842D01*
X126300500Y-107171158D01*
X126300500Y-107171155D01*
X126300499Y-107171153D01*
X126269738Y-107016510D01*
X126269737Y-107016503D01*
X126242234Y-106950104D01*
X126209397Y-106870827D01*
X126209390Y-106870814D01*
X126121789Y-106739711D01*
X126121786Y-106739707D01*
X126010292Y-106628213D01*
X126010288Y-106628210D01*
X125879185Y-106540609D01*
X125879172Y-106540602D01*
X125733501Y-106480264D01*
X125733489Y-106480261D01*
X125578845Y-106449500D01*
X125578842Y-106449500D01*
X125421158Y-106449500D01*
X125421155Y-106449500D01*
X125266510Y-106480261D01*
X125266498Y-106480264D01*
X125120827Y-106540602D01*
X125120814Y-106540609D01*
X124989711Y-106628210D01*
X124989707Y-106628213D01*
X124878213Y-106739707D01*
X124878210Y-106739711D01*
X124790609Y-106870814D01*
X124790602Y-106870827D01*
X124730264Y-107016498D01*
X124730261Y-107016510D01*
X124699500Y-107171153D01*
X117080352Y-107171153D01*
X117045810Y-106688194D01*
X117045574Y-106683778D01*
X117043589Y-106628213D01*
X117005597Y-105564446D01*
X117005518Y-105560020D01*
X117005518Y-104921153D01*
X125949500Y-104921153D01*
X125949500Y-105078846D01*
X125980261Y-105233489D01*
X125980264Y-105233501D01*
X126040602Y-105379172D01*
X126040609Y-105379185D01*
X126128210Y-105510288D01*
X126128213Y-105510292D01*
X126239707Y-105621786D01*
X126239711Y-105621789D01*
X126370814Y-105709390D01*
X126370827Y-105709397D01*
X126516498Y-105769735D01*
X126516503Y-105769737D01*
X126671153Y-105800499D01*
X126671156Y-105800500D01*
X126671158Y-105800500D01*
X126828844Y-105800500D01*
X126828845Y-105800499D01*
X126983497Y-105769737D01*
X127129179Y-105709394D01*
X127260289Y-105621789D01*
X127371789Y-105510289D01*
X127459394Y-105379179D01*
X127519737Y-105233497D01*
X127550500Y-105078842D01*
X127550500Y-104921158D01*
X127550500Y-104921155D01*
X127550499Y-104921153D01*
X127519737Y-104766503D01*
X127506062Y-104733489D01*
X127459397Y-104620827D01*
X127459390Y-104620814D01*
X127371790Y-104489712D01*
X127371784Y-104489705D01*
X127303232Y-104421153D01*
X161199500Y-104421153D01*
X161199500Y-104578846D01*
X161230261Y-104733489D01*
X161230264Y-104733501D01*
X161290602Y-104879172D01*
X161290609Y-104879185D01*
X161378210Y-105010288D01*
X161378213Y-105010292D01*
X161489707Y-105121786D01*
X161489711Y-105121789D01*
X161620814Y-105209390D01*
X161620827Y-105209397D01*
X161766498Y-105269735D01*
X161766503Y-105269737D01*
X161921153Y-105300499D01*
X161921156Y-105300500D01*
X161921158Y-105300500D01*
X162078844Y-105300500D01*
X162078845Y-105300499D01*
X162233497Y-105269737D01*
X162372443Y-105212184D01*
X162379172Y-105209397D01*
X162379172Y-105209396D01*
X162379179Y-105209394D01*
X162510289Y-105121789D01*
X162621789Y-105010289D01*
X162709394Y-104879179D01*
X162769737Y-104733497D01*
X162800500Y-104578842D01*
X162800500Y-104421158D01*
X162800500Y-104421155D01*
X162800499Y-104421153D01*
X162774531Y-104290606D01*
X162769737Y-104266503D01*
X162766955Y-104259786D01*
X162709397Y-104120827D01*
X162709390Y-104120814D01*
X162621789Y-103989711D01*
X162621786Y-103989707D01*
X162510292Y-103878213D01*
X162510288Y-103878210D01*
X162379185Y-103790609D01*
X162379172Y-103790602D01*
X162233501Y-103730264D01*
X162233489Y-103730261D01*
X162078845Y-103699500D01*
X162078842Y-103699500D01*
X161921158Y-103699500D01*
X161921155Y-103699500D01*
X161766510Y-103730261D01*
X161766498Y-103730264D01*
X161620827Y-103790602D01*
X161620814Y-103790609D01*
X161489711Y-103878210D01*
X161489707Y-103878213D01*
X161378213Y-103989707D01*
X161378210Y-103989711D01*
X161290609Y-104120814D01*
X161290602Y-104120827D01*
X161230264Y-104266498D01*
X161230261Y-104266510D01*
X161199500Y-104421153D01*
X127303232Y-104421153D01*
X127260292Y-104378213D01*
X127260288Y-104378210D01*
X127129185Y-104290609D01*
X127129172Y-104290602D01*
X126983501Y-104230264D01*
X126983489Y-104230261D01*
X126828845Y-104199500D01*
X126828842Y-104199500D01*
X126671158Y-104199500D01*
X126671155Y-104199500D01*
X126516510Y-104230261D01*
X126516498Y-104230264D01*
X126370827Y-104290602D01*
X126370814Y-104290609D01*
X126239711Y-104378210D01*
X126239707Y-104378213D01*
X126128213Y-104489707D01*
X126128210Y-104489711D01*
X126040609Y-104620814D01*
X126040602Y-104620827D01*
X125980264Y-104766498D01*
X125980261Y-104766510D01*
X125949500Y-104921153D01*
X117005518Y-104921153D01*
X117005518Y-104439979D01*
X117005597Y-104435553D01*
X117025502Y-103878213D01*
X117045574Y-103316215D01*
X117045811Y-103311801D01*
X117055870Y-103171155D01*
X117091631Y-102671153D01*
X124699500Y-102671153D01*
X124699500Y-102828846D01*
X124730261Y-102983489D01*
X124730264Y-102983501D01*
X124790602Y-103129172D01*
X124790609Y-103129185D01*
X124878210Y-103260288D01*
X124878213Y-103260292D01*
X124989707Y-103371786D01*
X124989711Y-103371789D01*
X125120814Y-103459390D01*
X125120827Y-103459397D01*
X125266498Y-103519735D01*
X125266503Y-103519737D01*
X125421153Y-103550499D01*
X125421156Y-103550500D01*
X125421158Y-103550500D01*
X125578844Y-103550500D01*
X125578845Y-103550499D01*
X125733497Y-103519737D01*
X125879179Y-103459394D01*
X126010289Y-103371789D01*
X126121789Y-103260289D01*
X126209394Y-103129179D01*
X126269737Y-102983497D01*
X126300500Y-102828842D01*
X126300500Y-102671158D01*
X126300500Y-102671155D01*
X126300499Y-102671153D01*
X126291957Y-102628210D01*
X126269737Y-102516503D01*
X126262990Y-102500213D01*
X126209397Y-102370827D01*
X126209390Y-102370814D01*
X126121790Y-102239712D01*
X126121784Y-102239705D01*
X126053232Y-102171153D01*
X129699500Y-102171153D01*
X129699500Y-102328846D01*
X129730261Y-102483489D01*
X129730264Y-102483501D01*
X129790602Y-102629172D01*
X129790609Y-102629185D01*
X129878210Y-102760288D01*
X129878213Y-102760292D01*
X129989707Y-102871786D01*
X129989711Y-102871789D01*
X130120814Y-102959390D01*
X130120827Y-102959397D01*
X130258683Y-103016498D01*
X130266503Y-103019737D01*
X130421153Y-103050499D01*
X130421156Y-103050500D01*
X130421158Y-103050500D01*
X130578844Y-103050500D01*
X130578845Y-103050499D01*
X130733497Y-103019737D01*
X130879179Y-102959394D01*
X131010289Y-102871789D01*
X131121789Y-102760289D01*
X131209394Y-102629179D01*
X131269737Y-102483497D01*
X131300500Y-102328842D01*
X131300500Y-102171158D01*
X131300500Y-102171155D01*
X131300499Y-102171153D01*
X131269737Y-102016503D01*
X131267163Y-102010288D01*
X131209397Y-101870827D01*
X131209390Y-101870814D01*
X131121789Y-101739711D01*
X131121786Y-101739707D01*
X131010292Y-101628213D01*
X131010288Y-101628210D01*
X130879185Y-101540609D01*
X130879173Y-101540602D01*
X130852674Y-101529627D01*
X130733501Y-101480264D01*
X130733489Y-101480261D01*
X130578845Y-101449500D01*
X130578842Y-101449500D01*
X130421158Y-101449500D01*
X130421155Y-101449500D01*
X130266510Y-101480261D01*
X130266498Y-101480264D01*
X130120827Y-101540602D01*
X130120814Y-101540609D01*
X129989711Y-101628210D01*
X129989707Y-101628213D01*
X129878213Y-101739707D01*
X129878210Y-101739711D01*
X129790609Y-101870814D01*
X129790602Y-101870827D01*
X129730264Y-102016498D01*
X129730261Y-102016510D01*
X129699500Y-102171153D01*
X126053232Y-102171153D01*
X126010292Y-102128213D01*
X126010288Y-102128210D01*
X125879185Y-102040609D01*
X125879172Y-102040602D01*
X125733501Y-101980264D01*
X125733489Y-101980261D01*
X125578845Y-101949500D01*
X125578842Y-101949500D01*
X125421158Y-101949500D01*
X125421155Y-101949500D01*
X125266510Y-101980261D01*
X125266498Y-101980264D01*
X125120827Y-102040602D01*
X125120814Y-102040609D01*
X124989711Y-102128210D01*
X124989707Y-102128213D01*
X124878213Y-102239707D01*
X124878210Y-102239711D01*
X124790609Y-102370814D01*
X124790602Y-102370827D01*
X124730264Y-102516498D01*
X124730261Y-102516510D01*
X124699500Y-102671153D01*
X117091631Y-102671153D01*
X117125717Y-102194573D01*
X117126100Y-102190277D01*
X117245839Y-101076546D01*
X117246388Y-101072179D01*
X117258246Y-100989711D01*
X117338720Y-100430000D01*
X117805138Y-100430000D01*
X118608012Y-100430000D01*
X118590795Y-100439940D01*
X118534940Y-100495795D01*
X118495444Y-100564204D01*
X118475000Y-100640504D01*
X118475000Y-100719496D01*
X118495444Y-100795796D01*
X118534940Y-100864205D01*
X118590795Y-100920060D01*
X118608012Y-100930000D01*
X117805138Y-100930000D01*
X117813430Y-100971690D01*
X117813430Y-100971692D01*
X117888807Y-101153671D01*
X117888814Y-101153684D01*
X117998248Y-101317462D01*
X117998251Y-101317466D01*
X118137533Y-101456748D01*
X118137537Y-101456751D01*
X118301315Y-101566185D01*
X118301328Y-101566192D01*
X118483306Y-101641569D01*
X118483318Y-101641572D01*
X118676504Y-101679999D01*
X118676508Y-101680000D01*
X118925000Y-101680000D01*
X118925000Y-100980000D01*
X119425000Y-100980000D01*
X119425000Y-101680000D01*
X119673492Y-101680000D01*
X119673495Y-101679999D01*
X119866681Y-101641572D01*
X119866693Y-101641569D01*
X120048671Y-101566192D01*
X120048684Y-101566185D01*
X120212462Y-101456751D01*
X120212466Y-101456748D01*
X120351748Y-101317466D01*
X120351751Y-101317462D01*
X120461185Y-101153684D01*
X120461192Y-101153671D01*
X120536569Y-100971692D01*
X120536569Y-100971690D01*
X120544862Y-100930000D01*
X119741988Y-100930000D01*
X119759205Y-100920060D01*
X119815060Y-100864205D01*
X119854556Y-100795796D01*
X119875000Y-100719496D01*
X119875000Y-100640504D01*
X119854556Y-100564204D01*
X119815060Y-100495795D01*
X119759205Y-100439940D01*
X119741988Y-100430000D01*
X120544862Y-100430000D01*
X121835138Y-100430000D01*
X122638012Y-100430000D01*
X122620795Y-100439940D01*
X122564940Y-100495795D01*
X122525444Y-100564204D01*
X122505000Y-100640504D01*
X122505000Y-100719496D01*
X122525444Y-100795796D01*
X122564940Y-100864205D01*
X122620795Y-100920060D01*
X122638012Y-100930000D01*
X121835138Y-100930000D01*
X121843430Y-100971690D01*
X121843430Y-100971692D01*
X121918807Y-101153671D01*
X121918814Y-101153684D01*
X122028248Y-101317462D01*
X122028251Y-101317466D01*
X122167533Y-101456748D01*
X122167537Y-101456751D01*
X122331315Y-101566185D01*
X122331322Y-101566189D01*
X122389196Y-101590160D01*
X122443600Y-101634000D01*
X122465666Y-101700294D01*
X122448388Y-101767994D01*
X122438774Y-101780378D01*
X122439441Y-101780890D01*
X122434492Y-101787338D01*
X122365313Y-101907161D01*
X122365312Y-101907164D01*
X122329500Y-102040817D01*
X122329500Y-102179183D01*
X122363020Y-102304280D01*
X122365312Y-102312835D01*
X122365313Y-102312838D01*
X122434492Y-102432661D01*
X122434494Y-102432664D01*
X122434495Y-102432665D01*
X122532335Y-102530505D01*
X122532336Y-102530506D01*
X122532338Y-102530507D01*
X122579400Y-102557678D01*
X122652164Y-102599688D01*
X122785817Y-102635500D01*
X122785819Y-102635500D01*
X122924181Y-102635500D01*
X122924183Y-102635500D01*
X123057836Y-102599688D01*
X123177665Y-102530505D01*
X123275505Y-102432665D01*
X123344688Y-102312836D01*
X123380500Y-102179183D01*
X123380500Y-102040817D01*
X123344688Y-101907164D01*
X123275505Y-101787335D01*
X123177665Y-101689495D01*
X123177664Y-101689494D01*
X123166999Y-101683337D01*
X123118784Y-101632769D01*
X123105000Y-101575950D01*
X123105000Y-100980000D01*
X123605000Y-100980000D01*
X123605000Y-101680000D01*
X124003492Y-101680000D01*
X124003495Y-101679999D01*
X124196681Y-101641572D01*
X124196693Y-101641569D01*
X124378671Y-101566192D01*
X124378684Y-101566185D01*
X124542462Y-101456751D01*
X124542466Y-101456748D01*
X124578061Y-101421153D01*
X164199500Y-101421153D01*
X164199500Y-101578846D01*
X164230261Y-101733489D01*
X164230264Y-101733501D01*
X164290602Y-101879172D01*
X164290609Y-101879185D01*
X164378210Y-102010288D01*
X164378213Y-102010292D01*
X164489707Y-102121786D01*
X164489711Y-102121789D01*
X164620814Y-102209390D01*
X164620827Y-102209397D01*
X164744054Y-102260439D01*
X164798458Y-102304280D01*
X164820523Y-102370574D01*
X164803244Y-102438273D01*
X164752107Y-102485884D01*
X164744054Y-102489561D01*
X164620827Y-102540602D01*
X164620814Y-102540609D01*
X164489711Y-102628210D01*
X164489707Y-102628213D01*
X164378213Y-102739707D01*
X164378210Y-102739711D01*
X164290609Y-102870814D01*
X164290602Y-102870827D01*
X164230264Y-103016498D01*
X164230261Y-103016510D01*
X164199500Y-103171153D01*
X164199500Y-103328846D01*
X164230261Y-103483489D01*
X164230264Y-103483501D01*
X164290602Y-103629172D01*
X164290609Y-103629185D01*
X164378210Y-103760288D01*
X164378213Y-103760292D01*
X164489707Y-103871786D01*
X164489711Y-103871789D01*
X164620814Y-103959390D01*
X164620827Y-103959397D01*
X164694013Y-103989711D01*
X164766503Y-104019737D01*
X164793423Y-104025091D01*
X164815624Y-104029508D01*
X164877535Y-104061892D01*
X164912109Y-104122608D01*
X164908370Y-104192377D01*
X164881706Y-104234697D01*
X164882076Y-104235001D01*
X164879661Y-104237942D01*
X164879123Y-104238798D01*
X164878212Y-104239708D01*
X164878210Y-104239711D01*
X164790609Y-104370814D01*
X164790602Y-104370827D01*
X164730264Y-104516498D01*
X164730261Y-104516510D01*
X164699500Y-104671153D01*
X164699500Y-104828846D01*
X164730261Y-104983489D01*
X164730264Y-104983501D01*
X164790602Y-105129172D01*
X164790609Y-105129185D01*
X164878210Y-105260288D01*
X164878213Y-105260292D01*
X164989707Y-105371786D01*
X164989711Y-105371789D01*
X165120814Y-105459390D01*
X165120827Y-105459397D01*
X165266498Y-105519735D01*
X165266503Y-105519737D01*
X165421153Y-105550499D01*
X165421156Y-105550500D01*
X165421158Y-105550500D01*
X165578844Y-105550500D01*
X165578845Y-105550499D01*
X165733497Y-105519737D01*
X165879179Y-105459394D01*
X165931110Y-105424694D01*
X165997785Y-105403816D01*
X166065165Y-105422300D01*
X166068863Y-105424676D01*
X166120821Y-105459394D01*
X166120823Y-105459395D01*
X166120825Y-105459396D01*
X166266498Y-105519735D01*
X166266503Y-105519737D01*
X166421153Y-105550499D01*
X166421156Y-105550500D01*
X166421158Y-105550500D01*
X166578844Y-105550500D01*
X166578845Y-105550499D01*
X166733497Y-105519737D01*
X166879179Y-105459394D01*
X167010289Y-105371789D01*
X167121789Y-105260289D01*
X167209394Y-105129179D01*
X167269737Y-104983497D01*
X167300500Y-104828842D01*
X167300500Y-104671158D01*
X167300500Y-104671155D01*
X167300499Y-104671153D01*
X167296291Y-104650000D01*
X167269737Y-104516503D01*
X167258640Y-104489712D01*
X167209397Y-104370827D01*
X167209390Y-104370814D01*
X167121789Y-104239711D01*
X167121786Y-104239707D01*
X167010292Y-104128213D01*
X167010288Y-104128210D01*
X166879185Y-104040609D01*
X166879172Y-104040602D01*
X166733501Y-103980264D01*
X166733489Y-103980261D01*
X166578845Y-103949500D01*
X166578842Y-103949500D01*
X166421158Y-103949500D01*
X166421155Y-103949500D01*
X166266510Y-103980261D01*
X166266498Y-103980264D01*
X166120827Y-104040602D01*
X166120814Y-104040609D01*
X166068891Y-104075304D01*
X166002214Y-104096182D01*
X165934833Y-104077698D01*
X165931109Y-104075304D01*
X165879185Y-104040609D01*
X165879172Y-104040602D01*
X165733501Y-103980264D01*
X165733491Y-103980261D01*
X165684374Y-103970491D01*
X165622463Y-103938106D01*
X165587889Y-103877389D01*
X165591630Y-103807620D01*
X165618296Y-103765304D01*
X165617924Y-103764999D01*
X165620357Y-103762033D01*
X165620891Y-103761186D01*
X165621789Y-103760289D01*
X165709394Y-103629179D01*
X165769737Y-103483497D01*
X165800500Y-103328842D01*
X165800500Y-103273713D01*
X168149500Y-103273713D01*
X168149500Y-103486287D01*
X168182754Y-103696243D01*
X168241879Y-103878211D01*
X168248444Y-103898414D01*
X168344951Y-104087820D01*
X168469890Y-104259786D01*
X168620213Y-104410109D01*
X168792182Y-104535050D01*
X168800946Y-104539516D01*
X168851742Y-104587491D01*
X168868536Y-104655312D01*
X168845998Y-104721447D01*
X168800946Y-104760484D01*
X168792182Y-104764949D01*
X168620213Y-104889890D01*
X168469890Y-105040213D01*
X168344951Y-105212179D01*
X168248444Y-105401585D01*
X168182753Y-105603760D01*
X168149500Y-105813713D01*
X168149500Y-106026286D01*
X168182753Y-106236239D01*
X168248444Y-106438414D01*
X168344951Y-106627820D01*
X168469890Y-106799786D01*
X168620213Y-106950109D01*
X168792182Y-107075050D01*
X168800946Y-107079516D01*
X168851742Y-107127491D01*
X168868536Y-107195312D01*
X168845998Y-107261447D01*
X168800946Y-107300484D01*
X168792182Y-107304949D01*
X168620213Y-107429890D01*
X168469890Y-107580213D01*
X168344951Y-107752179D01*
X168248444Y-107941585D01*
X168182753Y-108143760D01*
X168149500Y-108353713D01*
X168149500Y-108566286D01*
X168176056Y-108733957D01*
X168182754Y-108776243D01*
X168215066Y-108875690D01*
X168248444Y-108978414D01*
X168344951Y-109167820D01*
X168469890Y-109339786D01*
X168583430Y-109453326D01*
X168616915Y-109514649D01*
X168611931Y-109584341D01*
X168570059Y-109640274D01*
X168539083Y-109657189D01*
X168407669Y-109706203D01*
X168407664Y-109706206D01*
X168292455Y-109792452D01*
X168292452Y-109792455D01*
X168206206Y-109907664D01*
X168206202Y-109907671D01*
X168155908Y-110042517D01*
X168152003Y-110078842D01*
X168149501Y-110102123D01*
X168149500Y-110102135D01*
X168149500Y-111897870D01*
X168149501Y-111897876D01*
X168155908Y-111957483D01*
X168206202Y-112092328D01*
X168206206Y-112092335D01*
X168292452Y-112207544D01*
X168292455Y-112207547D01*
X168407664Y-112293793D01*
X168407671Y-112293797D01*
X168542517Y-112344091D01*
X168542516Y-112344091D01*
X168549444Y-112344835D01*
X168602127Y-112350500D01*
X170397872Y-112350499D01*
X170457483Y-112344091D01*
X170592331Y-112293796D01*
X170707546Y-112207546D01*
X170793796Y-112092331D01*
X170844091Y-111957483D01*
X170850500Y-111897873D01*
X170850499Y-110421153D01*
X171699500Y-110421153D01*
X171699500Y-110578846D01*
X171730261Y-110733489D01*
X171730264Y-110733501D01*
X171790602Y-110879172D01*
X171790609Y-110879185D01*
X171878210Y-111010288D01*
X171878213Y-111010292D01*
X171989707Y-111121786D01*
X171989711Y-111121789D01*
X172120814Y-111209390D01*
X172120827Y-111209397D01*
X172266498Y-111269735D01*
X172266503Y-111269737D01*
X172421153Y-111300499D01*
X172421156Y-111300500D01*
X172421158Y-111300500D01*
X172578844Y-111300500D01*
X172578845Y-111300499D01*
X172733497Y-111269737D01*
X172879179Y-111209394D01*
X173010289Y-111121789D01*
X173121789Y-111010289D01*
X173209394Y-110879179D01*
X173212854Y-110870827D01*
X173241984Y-110800499D01*
X173269737Y-110733497D01*
X173300500Y-110578842D01*
X173300500Y-110421158D01*
X173300500Y-110421155D01*
X173300499Y-110421153D01*
X173272734Y-110281572D01*
X173269737Y-110266503D01*
X173244753Y-110206185D01*
X173209397Y-110120827D01*
X173209390Y-110120814D01*
X173121789Y-109989711D01*
X173121786Y-109989707D01*
X173010292Y-109878213D01*
X173010288Y-109878210D01*
X172879185Y-109790609D01*
X172879172Y-109790602D01*
X172733501Y-109730264D01*
X172733489Y-109730261D01*
X172578845Y-109699500D01*
X172578842Y-109699500D01*
X172421158Y-109699500D01*
X172421155Y-109699500D01*
X172266510Y-109730261D01*
X172266498Y-109730264D01*
X172120827Y-109790602D01*
X172120814Y-109790609D01*
X171989711Y-109878210D01*
X171989707Y-109878213D01*
X171878213Y-109989707D01*
X171878210Y-109989711D01*
X171790609Y-110120814D01*
X171790602Y-110120827D01*
X171730264Y-110266498D01*
X171730261Y-110266510D01*
X171699500Y-110421153D01*
X170850499Y-110421153D01*
X170850499Y-110102128D01*
X170844091Y-110042517D01*
X170843457Y-110040818D01*
X170793797Y-109907671D01*
X170793793Y-109907664D01*
X170707547Y-109792455D01*
X170707544Y-109792452D01*
X170592335Y-109706206D01*
X170592328Y-109706202D01*
X170460917Y-109657189D01*
X170404983Y-109615318D01*
X170380566Y-109549853D01*
X170395418Y-109481580D01*
X170416563Y-109453332D01*
X170530104Y-109339792D01*
X170565840Y-109290606D01*
X170655048Y-109167820D01*
X170655047Y-109167820D01*
X170655051Y-109167816D01*
X170751557Y-108978412D01*
X170817246Y-108776243D01*
X170850500Y-108566287D01*
X170850500Y-108353713D01*
X170817246Y-108143757D01*
X170751557Y-107941588D01*
X170655051Y-107752184D01*
X170655049Y-107752181D01*
X170655048Y-107752179D01*
X170530109Y-107580213D01*
X170379786Y-107429890D01*
X170207820Y-107304951D01*
X170207115Y-107304591D01*
X170199054Y-107300485D01*
X170148259Y-107252512D01*
X170131463Y-107184692D01*
X170153999Y-107118556D01*
X170199054Y-107079515D01*
X170207816Y-107075051D01*
X170229789Y-107059086D01*
X170379786Y-106950109D01*
X170379788Y-106950106D01*
X170379792Y-106950104D01*
X170530104Y-106799792D01*
X170530106Y-106799788D01*
X170530109Y-106799786D01*
X170639086Y-106649789D01*
X170655051Y-106627816D01*
X170751557Y-106438412D01*
X170817246Y-106236243D01*
X170850500Y-106026287D01*
X170850500Y-105813713D01*
X170817246Y-105603757D01*
X170751557Y-105401588D01*
X170655051Y-105212184D01*
X170655049Y-105212181D01*
X170655048Y-105212179D01*
X170530109Y-105040213D01*
X170379786Y-104889890D01*
X170207820Y-104764951D01*
X170207115Y-104764591D01*
X170199054Y-104760485D01*
X170148259Y-104712512D01*
X170131463Y-104644692D01*
X170153999Y-104578556D01*
X170199054Y-104539515D01*
X170207816Y-104535051D01*
X170331711Y-104445037D01*
X170379786Y-104410109D01*
X170379788Y-104410106D01*
X170379792Y-104410104D01*
X170530104Y-104259792D01*
X170530106Y-104259788D01*
X170530109Y-104259786D01*
X170655048Y-104087820D01*
X170655047Y-104087820D01*
X170655051Y-104087816D01*
X170751557Y-103898412D01*
X170817246Y-103696243D01*
X170850500Y-103486287D01*
X170850500Y-103273713D01*
X170817246Y-103063757D01*
X170751557Y-102861588D01*
X170655051Y-102672184D01*
X170655049Y-102672181D01*
X170655048Y-102672179D01*
X170530109Y-102500213D01*
X170379786Y-102349890D01*
X170207820Y-102224951D01*
X170018414Y-102128444D01*
X170018413Y-102128443D01*
X170018412Y-102128443D01*
X169816243Y-102062754D01*
X169816241Y-102062753D01*
X169816240Y-102062753D01*
X169654957Y-102037208D01*
X169606287Y-102029500D01*
X169393713Y-102029500D01*
X169345042Y-102037208D01*
X169183760Y-102062753D01*
X168981585Y-102128444D01*
X168792179Y-102224951D01*
X168620213Y-102349890D01*
X168469890Y-102500213D01*
X168344951Y-102672179D01*
X168248444Y-102861585D01*
X168248443Y-102861587D01*
X168248443Y-102861588D01*
X168216665Y-102959390D01*
X168182753Y-103063760D01*
X168165743Y-103171158D01*
X168149500Y-103273713D01*
X165800500Y-103273713D01*
X165800500Y-103171158D01*
X165800500Y-103171155D01*
X165800499Y-103171153D01*
X165769738Y-103016510D01*
X165769737Y-103016503D01*
X165709794Y-102871786D01*
X165709397Y-102870827D01*
X165709390Y-102870814D01*
X165621789Y-102739711D01*
X165621786Y-102739707D01*
X165510292Y-102628213D01*
X165510288Y-102628210D01*
X165379185Y-102540609D01*
X165379172Y-102540602D01*
X165255945Y-102489561D01*
X165201541Y-102445721D01*
X165179476Y-102379427D01*
X165196755Y-102311727D01*
X165247892Y-102264116D01*
X165255945Y-102260439D01*
X165379172Y-102209397D01*
X165379172Y-102209396D01*
X165379179Y-102209394D01*
X165510289Y-102121789D01*
X165621789Y-102010289D01*
X165709394Y-101879179D01*
X165712854Y-101870827D01*
X165747437Y-101787335D01*
X165769737Y-101733497D01*
X165800500Y-101578842D01*
X165800500Y-101421158D01*
X165800500Y-101421155D01*
X165800499Y-101421153D01*
X165769738Y-101266510D01*
X165769737Y-101266503D01*
X165769735Y-101266498D01*
X165709397Y-101120827D01*
X165709390Y-101120814D01*
X165621789Y-100989711D01*
X165621786Y-100989707D01*
X165510292Y-100878213D01*
X165510288Y-100878210D01*
X165379185Y-100790609D01*
X165379172Y-100790602D01*
X165233501Y-100730264D01*
X165233489Y-100730261D01*
X165078845Y-100699500D01*
X165078842Y-100699500D01*
X164921158Y-100699500D01*
X164921155Y-100699500D01*
X164766510Y-100730261D01*
X164766498Y-100730264D01*
X164620827Y-100790602D01*
X164620814Y-100790609D01*
X164489711Y-100878210D01*
X164489707Y-100878213D01*
X164378213Y-100989707D01*
X164378210Y-100989711D01*
X164290609Y-101120814D01*
X164290602Y-101120827D01*
X164230264Y-101266498D01*
X164230261Y-101266510D01*
X164199500Y-101421153D01*
X124578061Y-101421153D01*
X124681748Y-101317466D01*
X124681751Y-101317462D01*
X124791185Y-101153684D01*
X124791192Y-101153671D01*
X124866569Y-100971692D01*
X124866569Y-100971690D01*
X124874862Y-100930000D01*
X124071988Y-100930000D01*
X124089205Y-100920060D01*
X124145060Y-100864205D01*
X124184556Y-100795796D01*
X124205000Y-100719496D01*
X124205000Y-100640504D01*
X124184556Y-100564204D01*
X124145060Y-100495795D01*
X124089205Y-100439940D01*
X124071988Y-100430000D01*
X124874862Y-100430000D01*
X124866569Y-100388309D01*
X124866569Y-100388307D01*
X124791192Y-100206328D01*
X124791185Y-100206315D01*
X124681751Y-100042537D01*
X124681748Y-100042533D01*
X124560368Y-99921153D01*
X126949500Y-99921153D01*
X126949500Y-100078846D01*
X126980261Y-100233489D01*
X126980264Y-100233501D01*
X127040602Y-100379172D01*
X127040609Y-100379185D01*
X127128210Y-100510288D01*
X127128213Y-100510292D01*
X127239707Y-100621786D01*
X127239711Y-100621789D01*
X127370814Y-100709390D01*
X127370827Y-100709397D01*
X127516498Y-100769735D01*
X127516503Y-100769737D01*
X127647510Y-100795796D01*
X127671153Y-100800499D01*
X127671156Y-100800500D01*
X127671158Y-100800500D01*
X127828844Y-100800500D01*
X127828845Y-100800499D01*
X127983497Y-100769737D01*
X128129179Y-100709394D01*
X128260289Y-100621789D01*
X128371789Y-100510289D01*
X128459394Y-100379179D01*
X128519737Y-100233497D01*
X128550500Y-100078842D01*
X128550500Y-99921158D01*
X128550500Y-99921155D01*
X128550499Y-99921153D01*
X128546937Y-99903248D01*
X128519737Y-99766503D01*
X128499825Y-99718430D01*
X128459397Y-99620827D01*
X128459390Y-99620814D01*
X128371789Y-99489711D01*
X128371786Y-99489707D01*
X128260292Y-99378213D01*
X128260288Y-99378210D01*
X128129185Y-99290609D01*
X128129172Y-99290602D01*
X127983501Y-99230264D01*
X127983489Y-99230261D01*
X127828845Y-99199500D01*
X127828842Y-99199500D01*
X127671158Y-99199500D01*
X127671155Y-99199500D01*
X127516510Y-99230261D01*
X127516498Y-99230264D01*
X127370827Y-99290602D01*
X127370814Y-99290609D01*
X127239711Y-99378210D01*
X127239707Y-99378213D01*
X127128213Y-99489707D01*
X127128210Y-99489711D01*
X127040609Y-99620814D01*
X127040602Y-99620827D01*
X126980264Y-99766498D01*
X126980261Y-99766510D01*
X126949500Y-99921153D01*
X124560368Y-99921153D01*
X124542466Y-99903251D01*
X124542462Y-99903248D01*
X124378684Y-99793814D01*
X124378671Y-99793807D01*
X124196693Y-99718430D01*
X124196681Y-99718427D01*
X124003495Y-99680000D01*
X123605000Y-99680000D01*
X123605000Y-100380000D01*
X123105000Y-100380000D01*
X123105000Y-99680000D01*
X122706504Y-99680000D01*
X122513318Y-99718427D01*
X122513306Y-99718430D01*
X122331328Y-99793807D01*
X122331315Y-99793814D01*
X122167537Y-99903248D01*
X122167533Y-99903251D01*
X122028251Y-100042533D01*
X122028248Y-100042537D01*
X121918814Y-100206315D01*
X121918807Y-100206328D01*
X121843430Y-100388307D01*
X121843430Y-100388309D01*
X121835138Y-100430000D01*
X120544862Y-100430000D01*
X120536569Y-100388309D01*
X120536569Y-100388307D01*
X120461192Y-100206328D01*
X120461185Y-100206315D01*
X120351751Y-100042537D01*
X120351748Y-100042533D01*
X120212466Y-99903251D01*
X120212462Y-99903248D01*
X120048684Y-99793814D01*
X120048671Y-99793807D01*
X119866693Y-99718430D01*
X119866681Y-99718427D01*
X119673495Y-99680000D01*
X119425000Y-99680000D01*
X119425000Y-100380000D01*
X118925000Y-100380000D01*
X118925000Y-99680000D01*
X118676504Y-99680000D01*
X118483318Y-99718427D01*
X118483306Y-99718430D01*
X118301328Y-99793807D01*
X118301315Y-99793814D01*
X118137537Y-99903248D01*
X118137533Y-99903251D01*
X117998251Y-100042533D01*
X117998248Y-100042537D01*
X117888814Y-100206315D01*
X117888807Y-100206328D01*
X117813430Y-100388307D01*
X117813430Y-100388309D01*
X117805138Y-100430000D01*
X117338720Y-100430000D01*
X117405788Y-99963528D01*
X117406493Y-99959181D01*
X117605369Y-98856885D01*
X117606220Y-98852606D01*
X117844311Y-97758118D01*
X117845324Y-97753835D01*
X117846303Y-97750000D01*
X117866427Y-97671153D01*
X131949500Y-97671153D01*
X131949500Y-97828846D01*
X131980261Y-97983489D01*
X131980264Y-97983501D01*
X132040602Y-98129172D01*
X132040609Y-98129185D01*
X132128210Y-98260288D01*
X132128213Y-98260292D01*
X132239707Y-98371786D01*
X132239711Y-98371789D01*
X132370814Y-98459390D01*
X132370827Y-98459397D01*
X132480422Y-98504792D01*
X132516503Y-98519737D01*
X132639079Y-98544119D01*
X132671153Y-98550499D01*
X132671156Y-98550500D01*
X132671158Y-98550500D01*
X132828844Y-98550500D01*
X132828845Y-98550499D01*
X132983497Y-98519737D01*
X133129179Y-98459394D01*
X133260289Y-98371789D01*
X133371789Y-98260289D01*
X133459394Y-98129179D01*
X133519737Y-97983497D01*
X133550500Y-97828842D01*
X133550500Y-97671158D01*
X133550500Y-97671155D01*
X133550499Y-97671153D01*
X133519738Y-97516510D01*
X133519737Y-97516503D01*
X133486999Y-97437465D01*
X133459397Y-97370827D01*
X133459395Y-97370823D01*
X133459394Y-97370821D01*
X133391168Y-97268713D01*
X164899500Y-97268713D01*
X164899500Y-97731287D01*
X164932754Y-97941243D01*
X164993820Y-98129185D01*
X164998444Y-98143414D01*
X165094951Y-98332820D01*
X165219890Y-98504786D01*
X165370213Y-98655109D01*
X165542179Y-98780048D01*
X165542181Y-98780049D01*
X165542184Y-98780051D01*
X165731588Y-98876557D01*
X165933757Y-98942246D01*
X166143713Y-98975500D01*
X166143714Y-98975500D01*
X166356286Y-98975500D01*
X166356287Y-98975500D01*
X166566243Y-98942246D01*
X166768412Y-98876557D01*
X166957816Y-98780051D01*
X166979789Y-98764086D01*
X167129786Y-98655109D01*
X167129788Y-98655106D01*
X167129792Y-98655104D01*
X167280104Y-98504792D01*
X167399683Y-98340204D01*
X167455011Y-98297540D01*
X167524624Y-98291561D01*
X167586420Y-98324166D01*
X167600313Y-98340199D01*
X167627552Y-98377690D01*
X167719896Y-98504792D01*
X167870213Y-98655109D01*
X168042179Y-98780048D01*
X168042181Y-98780049D01*
X168042184Y-98780051D01*
X168231588Y-98876557D01*
X168433757Y-98942246D01*
X168643713Y-98975500D01*
X168643714Y-98975500D01*
X168856286Y-98975500D01*
X168856287Y-98975500D01*
X169066243Y-98942246D01*
X169268412Y-98876557D01*
X169457816Y-98780051D01*
X169515141Y-98738402D01*
X169629784Y-98655110D01*
X169629784Y-98655109D01*
X169629792Y-98655104D01*
X169768967Y-98515928D01*
X169830286Y-98482446D01*
X169899978Y-98487430D01*
X169955912Y-98529301D01*
X169962184Y-98538515D01*
X170057684Y-98693345D01*
X170181654Y-98817315D01*
X170330875Y-98909356D01*
X170330880Y-98909358D01*
X170497302Y-98964505D01*
X170497309Y-98964506D01*
X170600019Y-98974999D01*
X170999999Y-98974999D01*
X171000000Y-98974998D01*
X171000000Y-97904145D01*
X171066657Y-97942630D01*
X171187465Y-97975000D01*
X171312535Y-97975000D01*
X171433343Y-97942630D01*
X171500000Y-97904145D01*
X171500000Y-98974999D01*
X171899972Y-98974999D01*
X171899986Y-98974998D01*
X172002697Y-98964505D01*
X172169119Y-98909358D01*
X172169124Y-98909356D01*
X172318345Y-98817315D01*
X172442315Y-98693345D01*
X172534356Y-98544124D01*
X172534358Y-98544119D01*
X172589505Y-98377697D01*
X172589506Y-98377690D01*
X172599999Y-98274986D01*
X172600000Y-98274973D01*
X172600000Y-97750000D01*
X171654146Y-97750000D01*
X171692630Y-97683343D01*
X171725000Y-97562535D01*
X171725000Y-97437465D01*
X171692630Y-97316657D01*
X171654146Y-97250000D01*
X172599999Y-97250000D01*
X172599999Y-96725028D01*
X172599998Y-96725013D01*
X172589505Y-96622302D01*
X172534358Y-96455880D01*
X172534356Y-96455875D01*
X172442315Y-96306654D01*
X172318345Y-96182684D01*
X172169124Y-96090643D01*
X172169119Y-96090641D01*
X172002697Y-96035494D01*
X172002690Y-96035493D01*
X171899986Y-96025000D01*
X171500000Y-96025000D01*
X171500000Y-97095854D01*
X171433343Y-97057370D01*
X171312535Y-97025000D01*
X171187465Y-97025000D01*
X171066657Y-97057370D01*
X171000000Y-97095854D01*
X171000000Y-96025000D01*
X170600028Y-96025000D01*
X170600012Y-96025001D01*
X170497302Y-96035494D01*
X170330880Y-96090641D01*
X170330875Y-96090643D01*
X170181654Y-96182684D01*
X170057683Y-96306655D01*
X170057680Y-96306659D01*
X169962183Y-96461484D01*
X169910235Y-96508209D01*
X169841273Y-96519430D01*
X169777191Y-96491587D01*
X169768964Y-96484068D01*
X169629786Y-96344890D01*
X169457820Y-96219951D01*
X169268414Y-96123444D01*
X169268413Y-96123443D01*
X169268412Y-96123443D01*
X169066243Y-96057754D01*
X169066241Y-96057753D01*
X169066240Y-96057753D01*
X168904957Y-96032208D01*
X168856287Y-96024500D01*
X168643713Y-96024500D01*
X168595042Y-96032208D01*
X168433760Y-96057753D01*
X168433757Y-96057754D01*
X168265923Y-96112287D01*
X168231585Y-96123444D01*
X168042179Y-96219951D01*
X167870213Y-96344890D01*
X167719894Y-96495209D01*
X167719890Y-96495214D01*
X167600318Y-96659793D01*
X167544989Y-96702459D01*
X167475375Y-96708438D01*
X167413580Y-96675833D01*
X167399682Y-96659793D01*
X167280109Y-96495214D01*
X167280105Y-96495209D01*
X167129786Y-96344890D01*
X166957820Y-96219951D01*
X166768414Y-96123444D01*
X166768413Y-96123443D01*
X166768412Y-96123443D01*
X166566243Y-96057754D01*
X166566241Y-96057753D01*
X166566240Y-96057753D01*
X166404957Y-96032208D01*
X166356287Y-96024500D01*
X166143713Y-96024500D01*
X166095042Y-96032208D01*
X165933760Y-96057753D01*
X165933757Y-96057754D01*
X165765923Y-96112287D01*
X165731585Y-96123444D01*
X165542179Y-96219951D01*
X165370213Y-96344890D01*
X165219890Y-96495213D01*
X165094951Y-96667179D01*
X164998444Y-96856585D01*
X164932753Y-97058760D01*
X164921753Y-97128211D01*
X164899500Y-97268713D01*
X133391168Y-97268713D01*
X133371789Y-97239711D01*
X133371786Y-97239707D01*
X133260292Y-97128213D01*
X133260288Y-97128210D01*
X133129185Y-97040609D01*
X133129172Y-97040602D01*
X132983501Y-96980264D01*
X132983489Y-96980261D01*
X132828845Y-96949500D01*
X132828842Y-96949500D01*
X132671158Y-96949500D01*
X132671155Y-96949500D01*
X132516510Y-96980261D01*
X132516498Y-96980264D01*
X132370827Y-97040602D01*
X132370814Y-97040609D01*
X132239711Y-97128210D01*
X132239707Y-97128213D01*
X132128213Y-97239707D01*
X132128210Y-97239711D01*
X132040609Y-97370814D01*
X132040602Y-97370827D01*
X131980264Y-97516498D01*
X131980261Y-97516510D01*
X131949500Y-97671153D01*
X117866427Y-97671153D01*
X118122327Y-96668548D01*
X118123476Y-96664359D01*
X118439049Y-95589619D01*
X118440368Y-95585409D01*
X118669276Y-94897648D01*
X125199500Y-94897648D01*
X125199500Y-95102351D01*
X125231522Y-95304534D01*
X125294781Y-95499223D01*
X125387715Y-95681613D01*
X125508028Y-95847213D01*
X125652786Y-95991971D01*
X125788599Y-96090643D01*
X125818390Y-96112287D01*
X125934607Y-96171503D01*
X126000776Y-96205218D01*
X126000778Y-96205218D01*
X126000781Y-96205220D01*
X126105137Y-96239127D01*
X126195465Y-96268477D01*
X126296557Y-96284488D01*
X126397648Y-96300500D01*
X126397649Y-96300500D01*
X126602351Y-96300500D01*
X126602352Y-96300500D01*
X126804534Y-96268477D01*
X126999219Y-96205220D01*
X127181610Y-96112287D01*
X127274590Y-96044732D01*
X127347213Y-95991971D01*
X127347215Y-95991968D01*
X127347219Y-95991966D01*
X127491966Y-95847219D01*
X127491968Y-95847215D01*
X127491971Y-95847213D01*
X127544732Y-95774590D01*
X127612287Y-95681610D01*
X127705220Y-95499219D01*
X127768477Y-95304534D01*
X127800500Y-95102352D01*
X127800500Y-94897648D01*
X127768477Y-94695466D01*
X127705220Y-94500781D01*
X127705218Y-94500778D01*
X127705218Y-94500776D01*
X127671503Y-94434607D01*
X127612287Y-94318390D01*
X127604556Y-94307749D01*
X127491971Y-94152786D01*
X127347213Y-94008028D01*
X127181613Y-93887715D01*
X127181612Y-93887714D01*
X127181610Y-93887713D01*
X127124653Y-93858691D01*
X126999223Y-93794781D01*
X126804534Y-93731522D01*
X126629995Y-93703878D01*
X126602352Y-93699500D01*
X126397648Y-93699500D01*
X126373329Y-93703351D01*
X126195465Y-93731522D01*
X126000776Y-93794781D01*
X125818386Y-93887715D01*
X125652786Y-94008028D01*
X125508028Y-94152786D01*
X125387715Y-94318386D01*
X125294781Y-94500776D01*
X125231522Y-94695465D01*
X125199500Y-94897648D01*
X118669276Y-94897648D01*
X118794084Y-94522660D01*
X118795518Y-94518593D01*
X119186986Y-93469028D01*
X119188561Y-93465024D01*
X119617213Y-92430169D01*
X119618977Y-92426118D01*
X119640855Y-92378213D01*
X119963758Y-91671153D01*
X149199500Y-91671153D01*
X149199500Y-91828846D01*
X149230261Y-91983489D01*
X149230264Y-91983501D01*
X149290602Y-92129172D01*
X149290609Y-92129185D01*
X149378210Y-92260288D01*
X149378213Y-92260292D01*
X149489707Y-92371786D01*
X149489711Y-92371789D01*
X149620814Y-92459390D01*
X149620818Y-92459392D01*
X149620821Y-92459394D01*
X149708256Y-92495610D01*
X149762656Y-92539449D01*
X149784722Y-92605743D01*
X149775362Y-92657622D01*
X149730264Y-92766498D01*
X149730261Y-92766510D01*
X149699500Y-92921153D01*
X149699500Y-93078846D01*
X149730261Y-93233489D01*
X149730264Y-93233501D01*
X149775362Y-93342377D01*
X149782831Y-93411846D01*
X149751556Y-93474325D01*
X149708254Y-93504390D01*
X149620823Y-93540604D01*
X149620814Y-93540609D01*
X149489711Y-93628210D01*
X149489707Y-93628213D01*
X149378213Y-93739707D01*
X149378210Y-93739711D01*
X149290609Y-93870814D01*
X149290602Y-93870827D01*
X149230264Y-94016498D01*
X149230261Y-94016510D01*
X149199500Y-94171153D01*
X149199500Y-94328846D01*
X149230261Y-94483489D01*
X149230264Y-94483501D01*
X149290602Y-94629172D01*
X149290609Y-94629185D01*
X149378210Y-94760288D01*
X149378213Y-94760292D01*
X149489707Y-94871786D01*
X149489711Y-94871789D01*
X149620814Y-94959390D01*
X149620827Y-94959397D01*
X149766498Y-95019735D01*
X149766503Y-95019737D01*
X149921153Y-95050499D01*
X149921156Y-95050500D01*
X149921158Y-95050500D01*
X150078844Y-95050500D01*
X150078845Y-95050499D01*
X150233497Y-95019737D01*
X150379179Y-94959394D01*
X150510289Y-94871789D01*
X150621789Y-94760289D01*
X150709394Y-94629179D01*
X150769737Y-94483497D01*
X150800500Y-94328842D01*
X150800500Y-94171158D01*
X150800500Y-94171155D01*
X150800499Y-94171153D01*
X150769738Y-94016510D01*
X150769737Y-94016503D01*
X150766227Y-94008028D01*
X150724638Y-93907622D01*
X150717169Y-93838153D01*
X150748445Y-93775674D01*
X150791742Y-93745611D01*
X150879179Y-93709394D01*
X151010289Y-93621789D01*
X151121789Y-93510289D01*
X151209394Y-93379179D01*
X151269737Y-93233497D01*
X151300500Y-93078842D01*
X151300500Y-92921158D01*
X151300500Y-92921155D01*
X151300499Y-92921153D01*
X151269738Y-92766510D01*
X151269737Y-92766503D01*
X151269735Y-92766498D01*
X151209397Y-92620827D01*
X151209390Y-92620814D01*
X151121789Y-92489711D01*
X151121786Y-92489707D01*
X151010292Y-92378213D01*
X151010288Y-92378210D01*
X150879185Y-92290609D01*
X150879176Y-92290604D01*
X150791746Y-92254390D01*
X150737343Y-92210549D01*
X150715278Y-92144255D01*
X150724638Y-92092377D01*
X150769735Y-91983501D01*
X150769737Y-91983497D01*
X150800500Y-91828842D01*
X150800500Y-91671158D01*
X150800500Y-91671155D01*
X150800499Y-91671153D01*
X150769738Y-91516510D01*
X150769737Y-91516503D01*
X150769735Y-91516498D01*
X150709397Y-91370827D01*
X150709390Y-91370814D01*
X150621789Y-91239711D01*
X150621786Y-91239707D01*
X150510292Y-91128213D01*
X150510288Y-91128210D01*
X150379185Y-91040609D01*
X150379172Y-91040602D01*
X150233501Y-90980264D01*
X150233489Y-90980261D01*
X150078845Y-90949500D01*
X150078842Y-90949500D01*
X149921158Y-90949500D01*
X149921155Y-90949500D01*
X149766510Y-90980261D01*
X149766498Y-90980264D01*
X149620827Y-91040602D01*
X149620814Y-91040609D01*
X149489711Y-91128210D01*
X149489707Y-91128213D01*
X149378213Y-91239707D01*
X149378210Y-91239711D01*
X149290609Y-91370814D01*
X149290602Y-91370827D01*
X149230264Y-91516498D01*
X149230261Y-91516510D01*
X149199500Y-91671153D01*
X119963758Y-91671153D01*
X120084245Y-91407322D01*
X120086153Y-91403334D01*
X120587518Y-90401733D01*
X120589570Y-90397810D01*
X121126359Y-89414755D01*
X121128502Y-89410989D01*
X121700083Y-88447643D01*
X121702402Y-88443892D01*
X121877680Y-88171153D01*
X126949500Y-88171153D01*
X126949500Y-88328846D01*
X126980261Y-88483489D01*
X126980264Y-88483501D01*
X127040602Y-88629172D01*
X127040609Y-88629185D01*
X127128210Y-88760288D01*
X127128213Y-88760292D01*
X127239707Y-88871786D01*
X127239711Y-88871789D01*
X127370814Y-88959390D01*
X127370827Y-88959397D01*
X127516498Y-89019735D01*
X127516503Y-89019737D01*
X127671153Y-89050499D01*
X127671156Y-89050500D01*
X127671158Y-89050500D01*
X127828844Y-89050500D01*
X127828845Y-89050499D01*
X127983497Y-89019737D01*
X128129179Y-88959394D01*
X128260289Y-88871789D01*
X128371789Y-88760289D01*
X128459394Y-88629179D01*
X128519737Y-88483497D01*
X128550500Y-88328842D01*
X128550500Y-88171158D01*
X128550500Y-88171155D01*
X128550499Y-88171153D01*
X128519738Y-88016510D01*
X128519737Y-88016503D01*
X128459794Y-87871786D01*
X128459397Y-87870827D01*
X128459390Y-87870814D01*
X128371789Y-87739711D01*
X128371786Y-87739707D01*
X128260292Y-87628213D01*
X128260288Y-87628210D01*
X128129185Y-87540609D01*
X128129172Y-87540602D01*
X127983501Y-87480264D01*
X127983489Y-87480261D01*
X127828845Y-87449500D01*
X127828842Y-87449500D01*
X127671158Y-87449500D01*
X127671155Y-87449500D01*
X127516510Y-87480261D01*
X127516498Y-87480264D01*
X127370827Y-87540602D01*
X127370814Y-87540609D01*
X127239711Y-87628210D01*
X127239707Y-87628213D01*
X127128213Y-87739707D01*
X127128210Y-87739711D01*
X127040609Y-87870814D01*
X127040602Y-87870827D01*
X126980264Y-88016498D01*
X126980261Y-88016510D01*
X126949500Y-88171153D01*
X121877680Y-88171153D01*
X122307951Y-87501637D01*
X122310378Y-87498007D01*
X122320450Y-87483501D01*
X122537317Y-87171153D01*
X134199500Y-87171153D01*
X134199500Y-87328846D01*
X134230261Y-87483489D01*
X134230264Y-87483501D01*
X134290602Y-87629172D01*
X134290609Y-87629185D01*
X134378210Y-87760288D01*
X134378213Y-87760292D01*
X134489707Y-87871786D01*
X134489711Y-87871789D01*
X134620814Y-87959390D01*
X134620827Y-87959397D01*
X134758683Y-88016498D01*
X134766503Y-88019737D01*
X134921153Y-88050499D01*
X134921156Y-88050500D01*
X134921158Y-88050500D01*
X135078844Y-88050500D01*
X135078845Y-88050499D01*
X135233497Y-88019737D01*
X135379179Y-87959394D01*
X135510289Y-87871789D01*
X135621789Y-87760289D01*
X135709394Y-87629179D01*
X135769737Y-87483497D01*
X135800500Y-87328842D01*
X135800500Y-87171158D01*
X135800500Y-87171155D01*
X135800499Y-87171153D01*
X156699500Y-87171153D01*
X156699500Y-87328846D01*
X156730261Y-87483489D01*
X156730264Y-87483501D01*
X156790602Y-87629172D01*
X156790609Y-87629185D01*
X156878210Y-87760288D01*
X156878213Y-87760292D01*
X156989707Y-87871786D01*
X156989711Y-87871789D01*
X157120814Y-87959390D01*
X157120827Y-87959397D01*
X157258683Y-88016498D01*
X157266503Y-88019737D01*
X157421153Y-88050499D01*
X157421156Y-88050500D01*
X157421158Y-88050500D01*
X157578844Y-88050500D01*
X157578845Y-88050499D01*
X157733497Y-88019737D01*
X157879179Y-87959394D01*
X158010289Y-87871789D01*
X158121789Y-87760289D01*
X158209394Y-87629179D01*
X158269737Y-87483497D01*
X158300500Y-87328842D01*
X158300500Y-87171158D01*
X158300500Y-87171155D01*
X158300499Y-87171153D01*
X158269738Y-87016510D01*
X158269737Y-87016503D01*
X158269735Y-87016498D01*
X158209397Y-86870827D01*
X158209390Y-86870814D01*
X158121789Y-86739711D01*
X158121786Y-86739707D01*
X158010292Y-86628213D01*
X158010288Y-86628210D01*
X157879185Y-86540609D01*
X157879172Y-86540602D01*
X157733501Y-86480264D01*
X157733489Y-86480261D01*
X157578845Y-86449500D01*
X157578842Y-86449500D01*
X157421158Y-86449500D01*
X157421155Y-86449500D01*
X157266510Y-86480261D01*
X157266498Y-86480264D01*
X157120827Y-86540602D01*
X157120814Y-86540609D01*
X156989711Y-86628210D01*
X156989707Y-86628213D01*
X156878213Y-86739707D01*
X156878210Y-86739711D01*
X156790609Y-86870814D01*
X156790602Y-86870827D01*
X156730264Y-87016498D01*
X156730261Y-87016510D01*
X156699500Y-87171153D01*
X135800499Y-87171153D01*
X135769738Y-87016510D01*
X135769737Y-87016503D01*
X135769735Y-87016498D01*
X135709397Y-86870827D01*
X135709390Y-86870814D01*
X135621789Y-86739711D01*
X135621786Y-86739707D01*
X135510292Y-86628213D01*
X135510288Y-86628210D01*
X135379185Y-86540609D01*
X135379172Y-86540602D01*
X135233501Y-86480264D01*
X135233489Y-86480261D01*
X135078845Y-86449500D01*
X135078842Y-86449500D01*
X134921158Y-86449500D01*
X134921155Y-86449500D01*
X134766510Y-86480261D01*
X134766498Y-86480264D01*
X134620827Y-86540602D01*
X134620814Y-86540609D01*
X134489711Y-86628210D01*
X134489707Y-86628213D01*
X134378213Y-86739707D01*
X134378210Y-86739711D01*
X134290609Y-86870814D01*
X134290602Y-86870827D01*
X134230264Y-87016498D01*
X134230261Y-87016510D01*
X134199500Y-87171153D01*
X122537317Y-87171153D01*
X122949206Y-86577920D01*
X122951730Y-86574421D01*
X123622987Y-85677725D01*
X123625659Y-85674284D01*
X124328498Y-84802114D01*
X124331308Y-84798752D01*
X125064800Y-83952257D01*
X125067753Y-83948971D01*
X125831006Y-83129178D01*
X125834025Y-83126050D01*
X126538922Y-82421153D01*
X159949500Y-82421153D01*
X159949500Y-82578846D01*
X159980261Y-82733489D01*
X159980264Y-82733501D01*
X160040602Y-82879172D01*
X160040609Y-82879185D01*
X160128210Y-83010288D01*
X160128213Y-83010292D01*
X160239707Y-83121786D01*
X160239711Y-83121789D01*
X160370814Y-83209390D01*
X160370827Y-83209397D01*
X160516498Y-83269735D01*
X160516503Y-83269737D01*
X160671153Y-83300499D01*
X160671156Y-83300500D01*
X160671158Y-83300500D01*
X160828844Y-83300500D01*
X160828845Y-83300499D01*
X160983497Y-83269737D01*
X161129179Y-83209394D01*
X161260289Y-83121789D01*
X161371789Y-83010289D01*
X161459394Y-82879179D01*
X161519737Y-82733497D01*
X161550500Y-82578842D01*
X161550500Y-82421158D01*
X161550500Y-82421155D01*
X161550499Y-82421153D01*
X161548498Y-82411094D01*
X161519737Y-82266503D01*
X161519735Y-82266498D01*
X161459397Y-82120827D01*
X161459390Y-82120814D01*
X161371789Y-81989711D01*
X161371786Y-81989707D01*
X161260292Y-81878213D01*
X161260288Y-81878210D01*
X161129185Y-81790609D01*
X161129172Y-81790602D01*
X160983501Y-81730264D01*
X160983489Y-81730261D01*
X160828845Y-81699500D01*
X160828842Y-81699500D01*
X160671158Y-81699500D01*
X160671155Y-81699500D01*
X160516510Y-81730261D01*
X160516498Y-81730264D01*
X160370827Y-81790602D01*
X160370814Y-81790609D01*
X160239711Y-81878210D01*
X160239707Y-81878213D01*
X160128213Y-81989707D01*
X160128210Y-81989711D01*
X160040609Y-82120814D01*
X160040602Y-82120827D01*
X159980264Y-82266498D01*
X159980261Y-82266510D01*
X159949500Y-82421153D01*
X126538922Y-82421153D01*
X126626050Y-82334025D01*
X126629208Y-82330979D01*
X126636360Y-82324320D01*
X127448977Y-81567747D01*
X127452264Y-81564795D01*
X127799019Y-81264330D01*
X128298752Y-80831308D01*
X128302114Y-80828498D01*
X129174284Y-80125659D01*
X129177725Y-80122987D01*
X130074421Y-79451730D01*
X130077920Y-79449206D01*
X130998019Y-78810369D01*
X131001688Y-78807919D01*
X131799370Y-78295280D01*
X134350000Y-78295280D01*
X134350000Y-79250000D01*
X135422769Y-79250000D01*
X135400000Y-79393753D01*
X135400000Y-79606247D01*
X135422769Y-79750000D01*
X134350000Y-79750000D01*
X134350000Y-80704719D01*
X134360482Y-80837906D01*
X134360483Y-80837912D01*
X134415898Y-81057829D01*
X134415899Y-81057832D01*
X134509695Y-81264330D01*
X134509698Y-81264336D01*
X134638851Y-81450758D01*
X134638861Y-81450770D01*
X134799229Y-81611138D01*
X134799241Y-81611148D01*
X134985663Y-81740301D01*
X134985669Y-81740304D01*
X135192167Y-81834100D01*
X135192170Y-81834101D01*
X135412087Y-81889516D01*
X135412093Y-81889517D01*
X135545280Y-81899999D01*
X135545294Y-81900000D01*
X136500000Y-81900000D01*
X136500000Y-80827231D01*
X136643753Y-80850000D01*
X136856247Y-80850000D01*
X137000000Y-80827231D01*
X137000000Y-81900000D01*
X137954706Y-81900000D01*
X137954719Y-81899999D01*
X138087906Y-81889517D01*
X138087912Y-81889516D01*
X138307829Y-81834101D01*
X138307832Y-81834100D01*
X138514330Y-81740304D01*
X138514336Y-81740301D01*
X138700758Y-81611148D01*
X138700770Y-81611138D01*
X138861138Y-81450770D01*
X138861148Y-81450758D01*
X138990301Y-81264336D01*
X138990304Y-81264330D01*
X139084100Y-81057832D01*
X139084101Y-81057829D01*
X139139516Y-80837912D01*
X139139517Y-80837906D01*
X139149999Y-80704719D01*
X139150000Y-80704706D01*
X139150000Y-79996932D01*
X139169685Y-79929893D01*
X139222489Y-79884138D01*
X139291647Y-79874194D01*
X139355203Y-79903219D01*
X139392977Y-79961997D01*
X139394891Y-79969340D01*
X139439683Y-80165590D01*
X139439687Y-80165602D01*
X139528734Y-80420082D01*
X139645714Y-80662994D01*
X139645716Y-80662997D01*
X139789162Y-80891289D01*
X139957266Y-81102085D01*
X140147915Y-81292734D01*
X140358711Y-81460838D01*
X140587003Y-81604284D01*
X140829921Y-81721267D01*
X141021049Y-81788145D01*
X141084397Y-81810312D01*
X141084405Y-81810315D01*
X141084408Y-81810315D01*
X141084409Y-81810316D01*
X141347268Y-81870312D01*
X141615187Y-81900499D01*
X141615188Y-81900500D01*
X141615191Y-81900500D01*
X141884812Y-81900500D01*
X141884812Y-81900499D01*
X142152732Y-81870312D01*
X142415591Y-81810316D01*
X142670079Y-81721267D01*
X142912997Y-81604284D01*
X143141289Y-81460838D01*
X143352085Y-81292734D01*
X143542734Y-81102085D01*
X143710838Y-80891289D01*
X143854284Y-80662997D01*
X143971267Y-80420079D01*
X144060316Y-80165591D01*
X144120312Y-79902732D01*
X144150500Y-79634809D01*
X144150500Y-79493713D01*
X148149500Y-79493713D01*
X148149500Y-80006286D01*
X148182753Y-80216239D01*
X148248444Y-80418414D01*
X148344951Y-80607820D01*
X148469890Y-80779786D01*
X148620213Y-80930109D01*
X148792179Y-81055048D01*
X148792181Y-81055049D01*
X148792184Y-81055051D01*
X148981588Y-81151557D01*
X149183757Y-81217246D01*
X149393713Y-81250500D01*
X149393714Y-81250500D01*
X149606286Y-81250500D01*
X149606287Y-81250500D01*
X149816243Y-81217246D01*
X150018412Y-81151557D01*
X150207816Y-81055051D01*
X150379792Y-80930104D01*
X150518604Y-80791291D01*
X150579923Y-80757809D01*
X150649615Y-80762793D01*
X150705549Y-80804664D01*
X150711821Y-80813878D01*
X150715185Y-80819333D01*
X150715186Y-80819334D01*
X150807288Y-80968656D01*
X150931344Y-81092712D01*
X151080666Y-81184814D01*
X151247203Y-81239999D01*
X151349991Y-81250500D01*
X152650008Y-81250499D01*
X152752797Y-81239999D01*
X152919334Y-81184814D01*
X153068656Y-81092712D01*
X153192712Y-80968656D01*
X153284814Y-80819334D01*
X153339999Y-80652797D01*
X153350500Y-80550009D01*
X153350499Y-78949992D01*
X153339999Y-78847203D01*
X153284814Y-78680666D01*
X153192712Y-78531344D01*
X153068656Y-78407288D01*
X152968282Y-78345377D01*
X152919336Y-78315187D01*
X152919331Y-78315185D01*
X152917862Y-78314698D01*
X152752797Y-78260001D01*
X152752795Y-78260000D01*
X152650010Y-78249500D01*
X151349998Y-78249500D01*
X151349981Y-78249501D01*
X151247203Y-78260000D01*
X151247200Y-78260001D01*
X151080668Y-78315185D01*
X151080663Y-78315187D01*
X150931342Y-78407289D01*
X150807289Y-78531342D01*
X150711821Y-78686121D01*
X150659873Y-78732845D01*
X150590910Y-78744068D01*
X150526828Y-78716224D01*
X150518601Y-78708705D01*
X150379786Y-78569890D01*
X150207820Y-78444951D01*
X150018414Y-78348444D01*
X150018413Y-78348443D01*
X150018412Y-78348443D01*
X149816243Y-78282754D01*
X149816241Y-78282753D01*
X149816240Y-78282753D01*
X149654957Y-78257208D01*
X149606287Y-78249500D01*
X149393713Y-78249500D01*
X149345042Y-78257208D01*
X149183760Y-78282753D01*
X148981585Y-78348444D01*
X148792179Y-78444951D01*
X148620213Y-78569890D01*
X148469890Y-78720213D01*
X148344951Y-78892179D01*
X148248444Y-79081585D01*
X148182753Y-79283760D01*
X148149500Y-79493713D01*
X144150500Y-79493713D01*
X144150500Y-79365191D01*
X144120312Y-79097268D01*
X144060316Y-78834409D01*
X143971267Y-78579921D01*
X143854284Y-78337003D01*
X143710838Y-78108711D01*
X143542734Y-77897915D01*
X143352085Y-77707266D01*
X143141289Y-77539162D01*
X142912997Y-77395716D01*
X142912994Y-77395714D01*
X142670082Y-77278734D01*
X142415602Y-77189687D01*
X142415594Y-77189684D01*
X142218446Y-77144687D01*
X142152732Y-77129688D01*
X142152728Y-77129687D01*
X142152719Y-77129686D01*
X141884813Y-77099500D01*
X141884809Y-77099500D01*
X141615191Y-77099500D01*
X141615186Y-77099500D01*
X141347280Y-77129686D01*
X141347268Y-77129688D01*
X141084405Y-77189684D01*
X141084397Y-77189687D01*
X140829917Y-77278734D01*
X140587005Y-77395714D01*
X140358712Y-77539161D01*
X140147915Y-77707265D01*
X139957265Y-77897915D01*
X139789161Y-78108712D01*
X139645714Y-78337005D01*
X139528734Y-78579917D01*
X139439687Y-78834397D01*
X139439684Y-78834405D01*
X139394891Y-79030660D01*
X139360782Y-79091638D01*
X139299121Y-79124496D01*
X139229484Y-79118801D01*
X139173980Y-79076361D01*
X139150232Y-79010651D01*
X139150000Y-79003067D01*
X139150000Y-78295293D01*
X139149999Y-78295280D01*
X139139517Y-78162093D01*
X139139516Y-78162087D01*
X139084101Y-77942170D01*
X139084100Y-77942167D01*
X138990304Y-77735669D01*
X138990301Y-77735663D01*
X138861148Y-77549241D01*
X138861138Y-77549229D01*
X138700770Y-77388861D01*
X138700758Y-77388851D01*
X138514336Y-77259698D01*
X138514330Y-77259695D01*
X138307832Y-77165899D01*
X138307829Y-77165898D01*
X138087912Y-77110483D01*
X138087906Y-77110482D01*
X137954719Y-77100000D01*
X137000000Y-77100000D01*
X137000000Y-78172768D01*
X136856247Y-78150000D01*
X136643753Y-78150000D01*
X136500000Y-78172768D01*
X136500000Y-77100000D01*
X135545280Y-77100000D01*
X135412093Y-77110482D01*
X135412087Y-77110483D01*
X135192170Y-77165898D01*
X135192167Y-77165899D01*
X134985669Y-77259695D01*
X134985663Y-77259698D01*
X134799241Y-77388851D01*
X134799229Y-77388861D01*
X134638861Y-77549229D01*
X134638851Y-77549241D01*
X134509698Y-77735663D01*
X134509695Y-77735669D01*
X134415899Y-77942167D01*
X134415898Y-77942170D01*
X134360483Y-78162087D01*
X134360482Y-78162093D01*
X134350000Y-78295280D01*
X131799370Y-78295280D01*
X131943905Y-78202393D01*
X131947658Y-78200075D01*
X131971024Y-78186211D01*
X131971027Y-78186209D01*
X131976028Y-78183242D01*
X132910989Y-77628502D01*
X132914755Y-77626359D01*
X133897828Y-77089560D01*
X133901733Y-77087518D01*
X134903334Y-76586153D01*
X134907327Y-76584243D01*
X135926118Y-76118977D01*
X135930176Y-76117210D01*
X136965024Y-75688561D01*
X136969028Y-75686986D01*
X138018593Y-75295518D01*
X138022660Y-75294084D01*
X139085423Y-74940363D01*
X139089619Y-74939049D01*
X140164359Y-74623476D01*
X140168548Y-74622327D01*
X141253860Y-74345318D01*
X141258118Y-74344311D01*
X142352606Y-74106220D01*
X142356885Y-74105369D01*
X143459203Y-73906489D01*
X143463528Y-73905788D01*
X144572204Y-73746384D01*
X144576546Y-73745839D01*
X145690277Y-73626100D01*
X145694573Y-73625717D01*
X146811808Y-73545810D01*
X146816215Y-73545574D01*
X147935553Y-73505596D01*
X147939979Y-73505518D01*
X149060021Y-73505518D01*
X149064446Y-73505596D01*
G37*
%TD.AperFunction*%
%TD*%
M02*
