M48
; DRILL file KiCad 10.0.3 date 2026-05-29T12:35:44
; FORMAT={-:-/ absolute / inch / decimal}
; #@! TF.CreationDate,2026-05-29T12:35:44-04:00
; #@! TF.GenerationSoftware,Kicad,Pcbnew,10.0.3
; #@! TF.FileFunction,Plated,1,2,PTH
FMAT,2
INCH
; #@! TA.AperFunction,Plated,PTH,ComponentDrill
T1C0.0079
; #@! TA.AperFunction,Plated,PTH,ViaDrill
T2C0.0118
; #@! TA.AperFunction,Plated,PTH,ComponentDrill
T3C0.0236
; #@! TA.AperFunction,Plated,PTH,ComponentDrill
T4C0.0354
; #@! TA.AperFunction,Plated,PTH,ComponentDrill
T5C0.0374
; #@! TA.AperFunction,Plated,PTH,ComponentDrill
T6C0.0394
; #@! TA.AperFunction,Plated,PTH,ComponentDrill
T7C0.1063
%
G90
G05
T1
X8.8268Y-3.8209
X8.8268Y-3.876
X8.8543Y-3.7933
X8.8543Y-3.8484
X8.8543Y-3.9035
X8.8819Y-3.8209
X8.8819Y-3.876
X8.9094Y-3.7933
X8.9094Y-3.8484
X8.9094Y-3.9035
X8.937Y-3.8209
X8.937Y-3.876
T2
X7.8445Y-3.5138
X7.874Y-4.2028
X8.002Y-3.189
X8.0217Y-4.5374
X8.0532Y-3.7224
X8.0532Y-3.9744
X8.1102Y-3.9075
X8.1398Y-3.878
X8.2283Y-2.9724
X8.2776Y-3.5925
X8.2776Y-4.7835
X8.2874Y-3.248
X8.2874Y-3.3957
X8.3169Y-4.0157
X8.3169Y-4.124
X8.3465Y-4.0846
X8.376Y-2.8543
X8.4055Y-3.6614
X8.435Y-4.0157
X8.4646Y-3.5925
X8.4744Y-3.1831
X8.5039Y-4.3012
X8.5236Y-3.2382
X8.5531Y-4.4193
X8.6417Y-3.2776
X8.6614Y-2.7461
X8.7402Y-4.9803
X8.8189Y-3.2185
X8.937Y-3.3071
X9.1142Y-3.0807
X9.1142Y-3.1693
X9.1142Y-4.9803
X9.2618Y-2.7559
X9.311Y-3.1791
X9.3307Y-3.0315
X9.3602Y-4.4488
X9.3898Y-3.1791
X9.3996Y-3.6811
X9.4193Y-3.2382
X9.5177Y-3.248
X9.5472Y-2.8839
X9.5571Y-4.8031
X9.7343Y-3.0413
X9.7933Y-4.5965
X9.8327Y-3.8583
X9.8819Y-3.7106
X9.9213Y-3.2776
X10.0Y-4.2421
X10.0295Y-3.5236
X10.0787Y-3.7894
T4
X9.6142Y-4.4734
X9.7717Y-4.4734
T5
X8.435Y-4.7441
X8.5335Y-4.7441
X8.6319Y-4.7441
X8.7303Y-4.7441
X9.0551Y-4.7441
X9.1535Y-4.7441
X9.252Y-4.7441
X9.3504Y-4.7441
X9.685Y-3.6319
X9.7835Y-3.6319
X9.8819Y-3.6319
T6
X8.1004Y-4.3898
X8.1988Y-4.3898
X8.8091Y-3.002
X8.9075Y-3.002
X9.4488Y-3.8142
X9.4488Y-3.9142
X9.4488Y-4.0142
X9.4488Y-4.1142
T7
X8.3661Y-2.9921
X8.563Y-2.9921
T3
G00X7.877Y-3.6783
M15
G01X7.8455Y-3.6783
M16
G05
G00X7.877Y-4.0185
M15
G01X7.8455Y-4.0185
M16
G05
G00X8.0474Y-3.6783
M15
G01X8.0041Y-3.6783
M16
G05
G00X8.0474Y-4.0185
M15
G01X8.0041Y-4.0185
M16
G05
M30
