%TF.GenerationSoftware,KiCad,Pcbnew,10.0.3*%
%TF.CreationDate,2026-05-26T23:59:48-04:00*%
%TF.ProjectId,float_pcb,666c6f61-745f-4706-9362-2e6b69636164,rev?*%
%TF.SameCoordinates,Original*%
%TF.FileFunction,Legend,Top*%
%TF.FilePolarity,Positive*%
%FSLAX46Y46*%
G04 Gerber Fmt 4.6, Leading zero omitted, Abs format (unit mm)*
G04 Created by KiCad (PCBNEW 10.0.3) date 2026-05-26 23:59:48*
%MOMM*%
%LPD*%
G01*
G04 APERTURE LIST*
G04 Aperture macros list*
%AMRoundRect*
0 Rectangle with rounded corners*
0 $1 Rounding radius*
0 $2 $3 $4 $5 $6 $7 $8 $9 X,Y pos of 4 corners*
0 Add a 4 corners polygon primitive as box body*
4,1,4,$2,$3,$4,$5,$6,$7,$8,$9,$2,$3,0*
0 Add four circle primitives for the rounded corners*
1,1,$1+$1,$2,$3*
1,1,$1+$1,$4,$5*
1,1,$1+$1,$6,$7*
1,1,$1+$1,$8,$9*
0 Add four rect primitives between the rounded corners*
20,1,$1+$1,$2,$3,$4,$5,0*
20,1,$1+$1,$4,$5,$6,$7,0*
20,1,$1+$1,$6,$7,$8,$9,0*
20,1,$1+$1,$8,$9,$2,$3,0*%
%AMOutline5P*
0 Free polygon, 5 corners , with rotation*
0 The origin of the aperture is its center*
0 number of corners: always 5*
0 $1 to $10 corner X, Y*
0 $11 Rotation angle, in degrees counterclockwise*
0 create outline with 5 corners*
4,1,5,$1,$2,$3,$4,$5,$6,$7,$8,$9,$10,$1,$2,$11*%
%AMOutline6P*
0 Free polygon, 6 corners , with rotation*
0 The origin of the aperture is its center*
0 number of corners: always 6*
0 $1 to $12 corner X, Y*
0 $13 Rotation angle, in degrees counterclockwise*
0 create outline with 6 corners*
4,1,6,$1,$2,$3,$4,$5,$6,$7,$8,$9,$10,$11,$12,$1,$2,$13*%
%AMOutline7P*
0 Free polygon, 7 corners , with rotation*
0 The origin of the aperture is its center*
0 number of corners: always 7*
0 $1 to $14 corner X, Y*
0 $15 Rotation angle, in degrees counterclockwise*
0 create outline with 7 corners*
4,1,7,$1,$2,$3,$4,$5,$6,$7,$8,$9,$10,$11,$12,$13,$14,$1,$2,$15*%
%AMOutline8P*
0 Free polygon, 8 corners , with rotation*
0 The origin of the aperture is its center*
0 number of corners: always 8*
0 $1 to $16 corner X, Y*
0 $17 Rotation angle, in degrees counterclockwise*
0 create outline with 8 corners*
4,1,8,$1,$2,$3,$4,$5,$6,$7,$8,$9,$10,$11,$12,$13,$14,$15,$16,$1,$2,$17*%
%AMFreePoly0*
4,1,52,-0.218366,0.683694,-0.202145,0.672855,-0.191306,0.656634,-0.187500,0.637500,-0.187500,0.287500,0.062500,0.287500,0.062500,0.637500,0.066306,0.656634,0.077145,0.672855,0.093366,0.683694,0.112500,0.687500,0.262500,0.687500,0.281634,0.683694,0.297855,0.672855,0.308694,0.656634,0.312500,0.637500,0.312500,0.287500,0.487500,0.287500,0.506634,0.283694,0.522855,0.272855,
0.533694,0.256634,0.537500,0.237500,0.537500,-0.237500,0.533694,-0.256634,0.522855,-0.272855,0.506634,-0.283694,0.487500,-0.287500,0.259500,-0.287500,-0.117500,-0.664500,-0.117500,-0.807500,-0.121306,-0.826634,-0.132145,-0.842855,-0.148366,-0.853694,-0.167500,-0.857500,-0.487500,-0.857500,-0.506634,-0.853694,-0.522855,-0.842855,-0.533694,-0.826634,-0.537500,-0.807500,-0.537500,0.237500,
-0.533694,0.256634,-0.522855,0.272855,-0.506634,0.283694,-0.487500,0.287500,-0.437500,0.287500,-0.437500,0.637500,-0.433694,0.656634,-0.422855,0.672855,-0.406634,0.683694,-0.387500,0.687500,-0.237500,0.687500,-0.218366,0.683694,-0.218366,0.683694,$1*%
%AMFreePoly1*
4,1,69,0.446320,1.093381,0.474531,1.074531,0.493381,1.046320,0.499999,1.013042,0.500000,-1.013043,0.493381,-1.046320,0.474531,-1.074531,0.446320,-1.093381,0.413042,-1.099999,-0.413043,-1.100000,-0.446320,-1.093381,-0.474531,-1.074531,-0.493381,-1.046320,-0.499999,-1.013042,-0.499999,-0.865000,-0.850001,-0.865000,-0.869135,-0.861194,-0.885356,-0.850355,-0.896195,-0.834134,-0.900001,-0.815000,
-0.900001,-0.665000,-0.896195,-0.645866,-0.885356,-0.629645,-0.869135,-0.618806,-0.850001,-0.615000,-0.499999,-0.615000,-0.499999,-0.365000,-0.850001,-0.365000,-0.869135,-0.361194,-0.885356,-0.350355,-0.896195,-0.334134,-0.900001,-0.315000,-0.900001,-0.165000,-0.896195,-0.145866,-0.885356,-0.129645,-0.869135,-0.118806,-0.850001,-0.115000,-0.499999,-0.115000,-0.500000,0.135000,-0.850000,0.135000,
-0.869134,0.138806,-0.885355,0.149645,-0.896194,0.165866,-0.900000,0.185000,-0.900000,0.335000,-0.896194,0.354134,-0.885355,0.370355,-0.869134,0.381194,-0.850000,0.385000,-0.500000,0.385000,-0.500000,0.635000,-0.850000,0.635000,-0.869134,0.638806,-0.885355,0.649645,-0.896194,0.665866,-0.900000,0.685000,-0.900000,0.835000,-0.896194,0.854134,-0.885355,0.870355,-0.869134,0.881194,
-0.850000,0.885000,-0.500000,0.885000,-0.500000,1.013043,-0.493381,1.046320,-0.474531,1.074531,-0.446320,1.093381,-0.413042,1.099999,0.413043,1.100000,0.446320,1.093381,0.446320,1.093381,$1*%
%AMFreePoly2*
4,1,69,0.413042,1.099999,0.446320,1.093381,0.474531,1.074531,0.493381,1.046320,0.500000,1.013043,0.500000,0.885000,0.850000,0.885000,0.869134,0.881194,0.885355,0.870355,0.896194,0.854134,0.900000,0.835000,0.900000,0.685000,0.896194,0.665866,0.885355,0.649645,0.869134,0.638806,0.850000,0.635000,0.500000,0.635000,0.500000,0.385000,0.850000,0.385000,0.869134,0.381194,
0.885355,0.370355,0.896194,0.354134,0.900000,0.335000,0.900000,0.185000,0.896194,0.165866,0.885355,0.149645,0.869134,0.138806,0.850000,0.135000,0.500000,0.135000,0.499999,-0.115000,0.850000,-0.115000,0.869134,-0.118806,0.885355,-0.129645,0.896194,-0.145866,0.900000,-0.165000,0.900000,-0.315000,0.896194,-0.334134,0.885355,-0.350355,0.869134,-0.361194,0.850000,-0.365000,
0.499999,-0.365000,0.499999,-0.615000,0.850000,-0.615000,0.869134,-0.618806,0.885355,-0.629645,0.896194,-0.645866,0.900000,-0.665000,0.900000,-0.815000,0.896194,-0.834134,0.885355,-0.850355,0.869134,-0.861194,0.850000,-0.865000,0.499999,-0.865000,0.499999,-1.013042,0.493381,-1.046320,0.474531,-1.074531,0.446320,-1.093381,0.413043,-1.100000,-0.413042,-1.099999,-0.446320,-1.093381,
-0.474531,-1.074531,-0.493381,-1.046320,-0.500000,-1.013043,-0.499999,1.013042,-0.493381,1.046320,-0.474531,1.074531,-0.446320,1.093381,-0.413043,1.100000,0.413042,1.099999,0.413042,1.099999,$1*%
%AMFreePoly3*
4,1,52,-0.093366,0.683694,-0.077145,0.672855,-0.066306,0.656634,-0.062500,0.637500,-0.062500,0.287500,0.187500,0.287500,0.187500,0.637500,0.191306,0.656634,0.202145,0.672855,0.218366,0.683694,0.237500,0.687500,0.387500,0.687500,0.406634,0.683694,0.422855,0.672855,0.433694,0.656634,0.437500,0.637500,0.437500,0.287500,0.487500,0.287500,0.506634,0.283694,0.522855,0.272855,
0.533694,0.256634,0.537500,0.237500,0.537500,-0.807500,0.533694,-0.826634,0.522855,-0.842855,0.506634,-0.853694,0.487500,-0.857500,0.167500,-0.857500,0.148366,-0.853694,0.132145,-0.842855,0.121306,-0.826634,0.117500,-0.807500,0.117500,-0.664500,-0.259500,-0.287500,-0.487500,-0.287500,-0.506634,-0.283694,-0.522855,-0.272855,-0.533694,-0.256634,-0.537500,-0.237500,-0.537500,0.237500,
-0.533694,0.256634,-0.522855,0.272855,-0.506634,0.283694,-0.487500,0.287500,-0.312500,0.287500,-0.312500,0.637500,-0.308694,0.656634,-0.297855,0.672855,-0.281634,0.683694,-0.262500,0.687500,-0.112500,0.687500,-0.093366,0.683694,-0.093366,0.683694,$1*%
G04 Aperture macros list end*
%ADD10C,0.300000*%
%ADD11C,0.150000*%
%ADD12C,0.100000*%
%ADD13C,0.120000*%
%ADD14C,0.127000*%
%ADD15RoundRect,0.150000X0.587500X0.150000X-0.587500X0.150000X-0.587500X-0.150000X0.587500X-0.150000X0*%
%ADD16RoundRect,0.225000X0.225000X0.250000X-0.225000X0.250000X-0.225000X-0.250000X0.225000X-0.250000X0*%
%ADD17C,2.200000*%
%ADD18RoundRect,0.225000X0.250000X-0.225000X0.250000X0.225000X-0.250000X0.225000X-0.250000X-0.225000X0*%
%ADD19RoundRect,0.218750X-0.256250X0.218750X-0.256250X-0.218750X0.256250X-0.218750X0.256250X0.218750X0*%
%ADD20RoundRect,0.200000X0.275000X-0.200000X0.275000X0.200000X-0.275000X0.200000X-0.275000X-0.200000X0*%
%ADD21RoundRect,0.225000X-0.250000X0.225000X-0.250000X-0.225000X0.250000X-0.225000X0.250000X0.225000X0*%
%ADD22RoundRect,0.200000X-0.200000X-0.275000X0.200000X-0.275000X0.200000X0.275000X-0.200000X0.275000X0*%
%ADD23RoundRect,0.200000X-0.275000X0.200000X-0.275000X-0.200000X0.275000X-0.200000X0.275000X0.200000X0*%
%ADD24FreePoly0,90.000000*%
%ADD25FreePoly1,0.000000*%
%ADD26FreePoly2,0.000000*%
%ADD27FreePoly3,270.000000*%
%ADD28RoundRect,0.050000X-0.060000X-0.250000X0.060000X-0.250000X0.060000X0.250000X-0.060000X0.250000X0*%
%ADD29R,1.700000X1.700000*%
%ADD30C,1.700000*%
%ADD31R,1.700000X1.000000*%
%ADD32RoundRect,0.760000X-1.140000X1.140000X-1.140000X-1.140000X1.140000X-1.140000X1.140000X1.140000X0*%
%ADD33C,3.800000*%
%ADD34RoundRect,0.250000X0.750000X-0.600000X0.750000X0.600000X-0.750000X0.600000X-0.750000X-0.600000X0*%
%ADD35O,2.000000X1.700000*%
%ADD36RoundRect,0.102000X1.125000X0.850000X-1.125000X0.850000X-1.125000X-0.850000X1.125000X-0.850000X0*%
%ADD37C,0.650000*%
%ADD38RoundRect,0.150000X0.302462X-0.150000X0.302462X0.150000X-0.302462X0.150000X-0.302462X-0.150000X0*%
%ADD39RoundRect,0.150000X0.302499X-0.150000X0.302499X0.150000X-0.302499X0.150000X-0.302499X-0.150000X0*%
%ADD40RoundRect,0.075000X0.500000X-0.075000X0.500000X0.075000X-0.500000X0.075000X-0.500000X-0.075000X0*%
%ADD41RoundRect,0.150000X0.302500X-0.150000X0.302500X0.150000X-0.302500X0.150000X-0.302500X-0.150000X0*%
%ADD42RoundRect,0.150000X0.302497X-0.150000X0.302497X0.150000X-0.302497X0.150000X-0.302497X-0.150000X0*%
%ADD43RoundRect,0.150000X0.302498X-0.150000X0.302498X0.150000X-0.302498X0.150000X-0.302498X-0.150000X0*%
%ADD44O,2.100000X1.000000*%
%ADD45O,1.800000X1.000000*%
%ADD46RoundRect,0.250000X0.725000X-0.600000X0.725000X0.600000X-0.725000X0.600000X-0.725000X-0.600000X0*%
%ADD47O,1.950000X1.700000*%
%ADD48R,0.800000X0.400000*%
%ADD49R,0.400000X0.800000*%
%ADD50Outline5P,-0.600000X0.204000X-0.204000X0.600000X0.600000X0.600000X0.600000X-0.600000X-0.600000X-0.600000X0.000000*%
%ADD51R,1.200000X1.200000*%
%ADD52R,0.800000X0.800000*%
%ADD53RoundRect,0.218750X0.256250X-0.218750X0.256250X0.218750X-0.256250X0.218750X-0.256250X-0.218750X0*%
G04 APERTURE END LIST*
D10*
X117054510Y-73550828D02*
X117054510Y-72050828D01*
X117054510Y-72050828D02*
X117411653Y-72050828D01*
X117411653Y-72050828D02*
X117625939Y-72122257D01*
X117625939Y-72122257D02*
X117768796Y-72265114D01*
X117768796Y-72265114D02*
X117840225Y-72407971D01*
X117840225Y-72407971D02*
X117911653Y-72693685D01*
X117911653Y-72693685D02*
X117911653Y-72907971D01*
X117911653Y-72907971D02*
X117840225Y-73193685D01*
X117840225Y-73193685D02*
X117768796Y-73336542D01*
X117768796Y-73336542D02*
X117625939Y-73479400D01*
X117625939Y-73479400D02*
X117411653Y-73550828D01*
X117411653Y-73550828D02*
X117054510Y-73550828D01*
X118768796Y-73550828D02*
X118625939Y-73479400D01*
X118625939Y-73479400D02*
X118554510Y-73407971D01*
X118554510Y-73407971D02*
X118483082Y-73265114D01*
X118483082Y-73265114D02*
X118483082Y-72836542D01*
X118483082Y-72836542D02*
X118554510Y-72693685D01*
X118554510Y-72693685D02*
X118625939Y-72622257D01*
X118625939Y-72622257D02*
X118768796Y-72550828D01*
X118768796Y-72550828D02*
X118983082Y-72550828D01*
X118983082Y-72550828D02*
X119125939Y-72622257D01*
X119125939Y-72622257D02*
X119197368Y-72693685D01*
X119197368Y-72693685D02*
X119268796Y-72836542D01*
X119268796Y-72836542D02*
X119268796Y-73265114D01*
X119268796Y-73265114D02*
X119197368Y-73407971D01*
X119197368Y-73407971D02*
X119125939Y-73479400D01*
X119125939Y-73479400D02*
X118983082Y-73550828D01*
X118983082Y-73550828D02*
X118768796Y-73550828D01*
X119911653Y-73550828D02*
X119911653Y-72550828D01*
X119911653Y-72836542D02*
X119983082Y-72693685D01*
X119983082Y-72693685D02*
X120054511Y-72622257D01*
X120054511Y-72622257D02*
X120197368Y-72550828D01*
X120197368Y-72550828D02*
X120340225Y-72550828D01*
X120697367Y-72550828D02*
X121054510Y-73550828D01*
X121411653Y-72550828D02*
X121054510Y-73550828D01*
X121054510Y-73550828D02*
X120911653Y-73907971D01*
X120911653Y-73907971D02*
X120840224Y-73979400D01*
X120840224Y-73979400D02*
X120697367Y-74050828D01*
X122911653Y-72050828D02*
X123411653Y-73550828D01*
X123411653Y-73550828D02*
X123911653Y-72050828D01*
X125197367Y-73550828D02*
X124340224Y-73550828D01*
X124768795Y-73550828D02*
X124768795Y-72050828D01*
X124768795Y-72050828D02*
X124625938Y-72265114D01*
X124625938Y-72265114D02*
X124483081Y-72407971D01*
X124483081Y-72407971D02*
X124340224Y-72479400D01*
D11*
X117654761Y-92200057D02*
X117559523Y-92152438D01*
X117559523Y-92152438D02*
X117464285Y-92057200D01*
X117464285Y-92057200D02*
X117321428Y-91914342D01*
X117321428Y-91914342D02*
X117226190Y-91866723D01*
X117226190Y-91866723D02*
X117130952Y-91866723D01*
X117178571Y-92104819D02*
X117083333Y-92057200D01*
X117083333Y-92057200D02*
X116988095Y-91961961D01*
X116988095Y-91961961D02*
X116940476Y-91771485D01*
X116940476Y-91771485D02*
X116940476Y-91438152D01*
X116940476Y-91438152D02*
X116988095Y-91247676D01*
X116988095Y-91247676D02*
X117083333Y-91152438D01*
X117083333Y-91152438D02*
X117178571Y-91104819D01*
X117178571Y-91104819D02*
X117369047Y-91104819D01*
X117369047Y-91104819D02*
X117464285Y-91152438D01*
X117464285Y-91152438D02*
X117559523Y-91247676D01*
X117559523Y-91247676D02*
X117607142Y-91438152D01*
X117607142Y-91438152D02*
X117607142Y-91771485D01*
X117607142Y-91771485D02*
X117559523Y-91961961D01*
X117559523Y-91961961D02*
X117464285Y-92057200D01*
X117464285Y-92057200D02*
X117369047Y-92104819D01*
X117369047Y-92104819D02*
X117178571Y-92104819D01*
X118559523Y-92104819D02*
X117988095Y-92104819D01*
X118273809Y-92104819D02*
X118273809Y-91104819D01*
X118273809Y-91104819D02*
X118178571Y-91247676D01*
X118178571Y-91247676D02*
X118083333Y-91342914D01*
X118083333Y-91342914D02*
X117988095Y-91390533D01*
X136857142Y-86039580D02*
X136809523Y-86087200D01*
X136809523Y-86087200D02*
X136666666Y-86134819D01*
X136666666Y-86134819D02*
X136571428Y-86134819D01*
X136571428Y-86134819D02*
X136428571Y-86087200D01*
X136428571Y-86087200D02*
X136333333Y-85991961D01*
X136333333Y-85991961D02*
X136285714Y-85896723D01*
X136285714Y-85896723D02*
X136238095Y-85706247D01*
X136238095Y-85706247D02*
X136238095Y-85563390D01*
X136238095Y-85563390D02*
X136285714Y-85372914D01*
X136285714Y-85372914D02*
X136333333Y-85277676D01*
X136333333Y-85277676D02*
X136428571Y-85182438D01*
X136428571Y-85182438D02*
X136571428Y-85134819D01*
X136571428Y-85134819D02*
X136666666Y-85134819D01*
X136666666Y-85134819D02*
X136809523Y-85182438D01*
X136809523Y-85182438D02*
X136857142Y-85230057D01*
X137809523Y-86134819D02*
X137238095Y-86134819D01*
X137523809Y-86134819D02*
X137523809Y-85134819D01*
X137523809Y-85134819D02*
X137428571Y-85277676D01*
X137428571Y-85277676D02*
X137333333Y-85372914D01*
X137333333Y-85372914D02*
X137238095Y-85420533D01*
X138666666Y-85468152D02*
X138666666Y-86134819D01*
X138428571Y-85087200D02*
X138190476Y-85801485D01*
X138190476Y-85801485D02*
X138809523Y-85801485D01*
X107679580Y-90916666D02*
X107727200Y-90964285D01*
X107727200Y-90964285D02*
X107774819Y-91107142D01*
X107774819Y-91107142D02*
X107774819Y-91202380D01*
X107774819Y-91202380D02*
X107727200Y-91345237D01*
X107727200Y-91345237D02*
X107631961Y-91440475D01*
X107631961Y-91440475D02*
X107536723Y-91488094D01*
X107536723Y-91488094D02*
X107346247Y-91535713D01*
X107346247Y-91535713D02*
X107203390Y-91535713D01*
X107203390Y-91535713D02*
X107012914Y-91488094D01*
X107012914Y-91488094D02*
X106917676Y-91440475D01*
X106917676Y-91440475D02*
X106822438Y-91345237D01*
X106822438Y-91345237D02*
X106774819Y-91202380D01*
X106774819Y-91202380D02*
X106774819Y-91107142D01*
X106774819Y-91107142D02*
X106822438Y-90964285D01*
X106822438Y-90964285D02*
X106870057Y-90916666D01*
X107108152Y-90059523D02*
X107774819Y-90059523D01*
X106727200Y-90297618D02*
X107441485Y-90535713D01*
X107441485Y-90535713D02*
X107441485Y-89916666D01*
X137384819Y-98488094D02*
X136384819Y-98488094D01*
X136384819Y-98488094D02*
X136384819Y-98249999D01*
X136384819Y-98249999D02*
X136432438Y-98107142D01*
X136432438Y-98107142D02*
X136527676Y-98011904D01*
X136527676Y-98011904D02*
X136622914Y-97964285D01*
X136622914Y-97964285D02*
X136813390Y-97916666D01*
X136813390Y-97916666D02*
X136956247Y-97916666D01*
X136956247Y-97916666D02*
X137146723Y-97964285D01*
X137146723Y-97964285D02*
X137241961Y-98011904D01*
X137241961Y-98011904D02*
X137337200Y-98107142D01*
X137337200Y-98107142D02*
X137384819Y-98249999D01*
X137384819Y-98249999D02*
X137384819Y-98488094D01*
X136384819Y-97583332D02*
X136384819Y-96964285D01*
X136384819Y-96964285D02*
X136765771Y-97297618D01*
X136765771Y-97297618D02*
X136765771Y-97154761D01*
X136765771Y-97154761D02*
X136813390Y-97059523D01*
X136813390Y-97059523D02*
X136861009Y-97011904D01*
X136861009Y-97011904D02*
X136956247Y-96964285D01*
X136956247Y-96964285D02*
X137194342Y-96964285D01*
X137194342Y-96964285D02*
X137289580Y-97011904D01*
X137289580Y-97011904D02*
X137337200Y-97059523D01*
X137337200Y-97059523D02*
X137384819Y-97154761D01*
X137384819Y-97154761D02*
X137384819Y-97440475D01*
X137384819Y-97440475D02*
X137337200Y-97535713D01*
X137337200Y-97535713D02*
X137289580Y-97583332D01*
X134524819Y-101642857D02*
X134048628Y-101976190D01*
X134524819Y-102214285D02*
X133524819Y-102214285D01*
X133524819Y-102214285D02*
X133524819Y-101833333D01*
X133524819Y-101833333D02*
X133572438Y-101738095D01*
X133572438Y-101738095D02*
X133620057Y-101690476D01*
X133620057Y-101690476D02*
X133715295Y-101642857D01*
X133715295Y-101642857D02*
X133858152Y-101642857D01*
X133858152Y-101642857D02*
X133953390Y-101690476D01*
X133953390Y-101690476D02*
X134001009Y-101738095D01*
X134001009Y-101738095D02*
X134048628Y-101833333D01*
X134048628Y-101833333D02*
X134048628Y-102214285D01*
X134524819Y-100690476D02*
X134524819Y-101261904D01*
X134524819Y-100976190D02*
X133524819Y-100976190D01*
X133524819Y-100976190D02*
X133667676Y-101071428D01*
X133667676Y-101071428D02*
X133762914Y-101166666D01*
X133762914Y-101166666D02*
X133810533Y-101261904D01*
X133524819Y-99833333D02*
X133524819Y-100023809D01*
X133524819Y-100023809D02*
X133572438Y-100119047D01*
X133572438Y-100119047D02*
X133620057Y-100166666D01*
X133620057Y-100166666D02*
X133762914Y-100261904D01*
X133762914Y-100261904D02*
X133953390Y-100309523D01*
X133953390Y-100309523D02*
X134334342Y-100309523D01*
X134334342Y-100309523D02*
X134429580Y-100261904D01*
X134429580Y-100261904D02*
X134477200Y-100214285D01*
X134477200Y-100214285D02*
X134524819Y-100119047D01*
X134524819Y-100119047D02*
X134524819Y-99928571D01*
X134524819Y-99928571D02*
X134477200Y-99833333D01*
X134477200Y-99833333D02*
X134429580Y-99785714D01*
X134429580Y-99785714D02*
X134334342Y-99738095D01*
X134334342Y-99738095D02*
X134096247Y-99738095D01*
X134096247Y-99738095D02*
X134001009Y-99785714D01*
X134001009Y-99785714D02*
X133953390Y-99833333D01*
X133953390Y-99833333D02*
X133905771Y-99928571D01*
X133905771Y-99928571D02*
X133905771Y-100119047D01*
X133905771Y-100119047D02*
X133953390Y-100214285D01*
X133953390Y-100214285D02*
X134001009Y-100261904D01*
X134001009Y-100261904D02*
X134096247Y-100309523D01*
X97039580Y-92166666D02*
X97087200Y-92214285D01*
X97087200Y-92214285D02*
X97134819Y-92357142D01*
X97134819Y-92357142D02*
X97134819Y-92452380D01*
X97134819Y-92452380D02*
X97087200Y-92595237D01*
X97087200Y-92595237D02*
X96991961Y-92690475D01*
X96991961Y-92690475D02*
X96896723Y-92738094D01*
X96896723Y-92738094D02*
X96706247Y-92785713D01*
X96706247Y-92785713D02*
X96563390Y-92785713D01*
X96563390Y-92785713D02*
X96372914Y-92738094D01*
X96372914Y-92738094D02*
X96277676Y-92690475D01*
X96277676Y-92690475D02*
X96182438Y-92595237D01*
X96182438Y-92595237D02*
X96134819Y-92452380D01*
X96134819Y-92452380D02*
X96134819Y-92357142D01*
X96134819Y-92357142D02*
X96182438Y-92214285D01*
X96182438Y-92214285D02*
X96230057Y-92166666D01*
X96230057Y-91785713D02*
X96182438Y-91738094D01*
X96182438Y-91738094D02*
X96134819Y-91642856D01*
X96134819Y-91642856D02*
X96134819Y-91404761D01*
X96134819Y-91404761D02*
X96182438Y-91309523D01*
X96182438Y-91309523D02*
X96230057Y-91261904D01*
X96230057Y-91261904D02*
X96325295Y-91214285D01*
X96325295Y-91214285D02*
X96420533Y-91214285D01*
X96420533Y-91214285D02*
X96563390Y-91261904D01*
X96563390Y-91261904D02*
X97134819Y-91833332D01*
X97134819Y-91833332D02*
X97134819Y-91214285D01*
X148357142Y-95274819D02*
X148023809Y-94798628D01*
X147785714Y-95274819D02*
X147785714Y-94274819D01*
X147785714Y-94274819D02*
X148166666Y-94274819D01*
X148166666Y-94274819D02*
X148261904Y-94322438D01*
X148261904Y-94322438D02*
X148309523Y-94370057D01*
X148309523Y-94370057D02*
X148357142Y-94465295D01*
X148357142Y-94465295D02*
X148357142Y-94608152D01*
X148357142Y-94608152D02*
X148309523Y-94703390D01*
X148309523Y-94703390D02*
X148261904Y-94751009D01*
X148261904Y-94751009D02*
X148166666Y-94798628D01*
X148166666Y-94798628D02*
X147785714Y-94798628D01*
X149309523Y-95274819D02*
X148738095Y-95274819D01*
X149023809Y-95274819D02*
X149023809Y-94274819D01*
X149023809Y-94274819D02*
X148928571Y-94417676D01*
X148928571Y-94417676D02*
X148833333Y-94512914D01*
X148833333Y-94512914D02*
X148738095Y-94560533D01*
X150261904Y-95274819D02*
X149690476Y-95274819D01*
X149976190Y-95274819D02*
X149976190Y-94274819D01*
X149976190Y-94274819D02*
X149880952Y-94417676D01*
X149880952Y-94417676D02*
X149785714Y-94512914D01*
X149785714Y-94512914D02*
X149690476Y-94560533D01*
X110539580Y-94166666D02*
X110587200Y-94214285D01*
X110587200Y-94214285D02*
X110634819Y-94357142D01*
X110634819Y-94357142D02*
X110634819Y-94452380D01*
X110634819Y-94452380D02*
X110587200Y-94595237D01*
X110587200Y-94595237D02*
X110491961Y-94690475D01*
X110491961Y-94690475D02*
X110396723Y-94738094D01*
X110396723Y-94738094D02*
X110206247Y-94785713D01*
X110206247Y-94785713D02*
X110063390Y-94785713D01*
X110063390Y-94785713D02*
X109872914Y-94738094D01*
X109872914Y-94738094D02*
X109777676Y-94690475D01*
X109777676Y-94690475D02*
X109682438Y-94595237D01*
X109682438Y-94595237D02*
X109634819Y-94452380D01*
X109634819Y-94452380D02*
X109634819Y-94357142D01*
X109634819Y-94357142D02*
X109682438Y-94214285D01*
X109682438Y-94214285D02*
X109730057Y-94166666D01*
X109634819Y-93833332D02*
X109634819Y-93214285D01*
X109634819Y-93214285D02*
X110015771Y-93547618D01*
X110015771Y-93547618D02*
X110015771Y-93404761D01*
X110015771Y-93404761D02*
X110063390Y-93309523D01*
X110063390Y-93309523D02*
X110111009Y-93261904D01*
X110111009Y-93261904D02*
X110206247Y-93214285D01*
X110206247Y-93214285D02*
X110444342Y-93214285D01*
X110444342Y-93214285D02*
X110539580Y-93261904D01*
X110539580Y-93261904D02*
X110587200Y-93309523D01*
X110587200Y-93309523D02*
X110634819Y-93404761D01*
X110634819Y-93404761D02*
X110634819Y-93690475D01*
X110634819Y-93690475D02*
X110587200Y-93785713D01*
X110587200Y-93785713D02*
X110539580Y-93833332D01*
X115134819Y-101416666D02*
X114658628Y-101749999D01*
X115134819Y-101988094D02*
X114134819Y-101988094D01*
X114134819Y-101988094D02*
X114134819Y-101607142D01*
X114134819Y-101607142D02*
X114182438Y-101511904D01*
X114182438Y-101511904D02*
X114230057Y-101464285D01*
X114230057Y-101464285D02*
X114325295Y-101416666D01*
X114325295Y-101416666D02*
X114468152Y-101416666D01*
X114468152Y-101416666D02*
X114563390Y-101464285D01*
X114563390Y-101464285D02*
X114611009Y-101511904D01*
X114611009Y-101511904D02*
X114658628Y-101607142D01*
X114658628Y-101607142D02*
X114658628Y-101988094D01*
X114134819Y-101083332D02*
X114134819Y-100416666D01*
X114134819Y-100416666D02*
X115134819Y-100845237D01*
X116429580Y-94166666D02*
X116477200Y-94214285D01*
X116477200Y-94214285D02*
X116524819Y-94357142D01*
X116524819Y-94357142D02*
X116524819Y-94452380D01*
X116524819Y-94452380D02*
X116477200Y-94595237D01*
X116477200Y-94595237D02*
X116381961Y-94690475D01*
X116381961Y-94690475D02*
X116286723Y-94738094D01*
X116286723Y-94738094D02*
X116096247Y-94785713D01*
X116096247Y-94785713D02*
X115953390Y-94785713D01*
X115953390Y-94785713D02*
X115762914Y-94738094D01*
X115762914Y-94738094D02*
X115667676Y-94690475D01*
X115667676Y-94690475D02*
X115572438Y-94595237D01*
X115572438Y-94595237D02*
X115524819Y-94452380D01*
X115524819Y-94452380D02*
X115524819Y-94357142D01*
X115524819Y-94357142D02*
X115572438Y-94214285D01*
X115572438Y-94214285D02*
X115620057Y-94166666D01*
X115524819Y-93261904D02*
X115524819Y-93738094D01*
X115524819Y-93738094D02*
X116001009Y-93785713D01*
X116001009Y-93785713D02*
X115953390Y-93738094D01*
X115953390Y-93738094D02*
X115905771Y-93642856D01*
X115905771Y-93642856D02*
X115905771Y-93404761D01*
X115905771Y-93404761D02*
X115953390Y-93309523D01*
X115953390Y-93309523D02*
X116001009Y-93261904D01*
X116001009Y-93261904D02*
X116096247Y-93214285D01*
X116096247Y-93214285D02*
X116334342Y-93214285D01*
X116334342Y-93214285D02*
X116429580Y-93261904D01*
X116429580Y-93261904D02*
X116477200Y-93309523D01*
X116477200Y-93309523D02*
X116524819Y-93404761D01*
X116524819Y-93404761D02*
X116524819Y-93642856D01*
X116524819Y-93642856D02*
X116477200Y-93738094D01*
X116477200Y-93738094D02*
X116429580Y-93785713D01*
D12*
X117538095Y-102096419D02*
X117538095Y-102905942D01*
X117538095Y-102905942D02*
X117585714Y-103001180D01*
X117585714Y-103001180D02*
X117633333Y-103048800D01*
X117633333Y-103048800D02*
X117728571Y-103096419D01*
X117728571Y-103096419D02*
X117919047Y-103096419D01*
X117919047Y-103096419D02*
X118014285Y-103048800D01*
X118014285Y-103048800D02*
X118061904Y-103001180D01*
X118061904Y-103001180D02*
X118109523Y-102905942D01*
X118109523Y-102905942D02*
X118109523Y-102096419D01*
X118538095Y-102191657D02*
X118585714Y-102144038D01*
X118585714Y-102144038D02*
X118680952Y-102096419D01*
X118680952Y-102096419D02*
X118919047Y-102096419D01*
X118919047Y-102096419D02*
X119014285Y-102144038D01*
X119014285Y-102144038D02*
X119061904Y-102191657D01*
X119061904Y-102191657D02*
X119109523Y-102286895D01*
X119109523Y-102286895D02*
X119109523Y-102382133D01*
X119109523Y-102382133D02*
X119061904Y-102524990D01*
X119061904Y-102524990D02*
X118490476Y-103096419D01*
X118490476Y-103096419D02*
X119109523Y-103096419D01*
D11*
X157166666Y-90344819D02*
X157166666Y-91059104D01*
X157166666Y-91059104D02*
X157119047Y-91201961D01*
X157119047Y-91201961D02*
X157023809Y-91297200D01*
X157023809Y-91297200D02*
X156880952Y-91344819D01*
X156880952Y-91344819D02*
X156785714Y-91344819D01*
X157785714Y-90773390D02*
X157690476Y-90725771D01*
X157690476Y-90725771D02*
X157642857Y-90678152D01*
X157642857Y-90678152D02*
X157595238Y-90582914D01*
X157595238Y-90582914D02*
X157595238Y-90535295D01*
X157595238Y-90535295D02*
X157642857Y-90440057D01*
X157642857Y-90440057D02*
X157690476Y-90392438D01*
X157690476Y-90392438D02*
X157785714Y-90344819D01*
X157785714Y-90344819D02*
X157976190Y-90344819D01*
X157976190Y-90344819D02*
X158071428Y-90392438D01*
X158071428Y-90392438D02*
X158119047Y-90440057D01*
X158119047Y-90440057D02*
X158166666Y-90535295D01*
X158166666Y-90535295D02*
X158166666Y-90582914D01*
X158166666Y-90582914D02*
X158119047Y-90678152D01*
X158119047Y-90678152D02*
X158071428Y-90725771D01*
X158071428Y-90725771D02*
X157976190Y-90773390D01*
X157976190Y-90773390D02*
X157785714Y-90773390D01*
X157785714Y-90773390D02*
X157690476Y-90821009D01*
X157690476Y-90821009D02*
X157642857Y-90868628D01*
X157642857Y-90868628D02*
X157595238Y-90963866D01*
X157595238Y-90963866D02*
X157595238Y-91154342D01*
X157595238Y-91154342D02*
X157642857Y-91249580D01*
X157642857Y-91249580D02*
X157690476Y-91297200D01*
X157690476Y-91297200D02*
X157785714Y-91344819D01*
X157785714Y-91344819D02*
X157976190Y-91344819D01*
X157976190Y-91344819D02*
X158071428Y-91297200D01*
X158071428Y-91297200D02*
X158119047Y-91249580D01*
X158119047Y-91249580D02*
X158166666Y-91154342D01*
X158166666Y-91154342D02*
X158166666Y-90963866D01*
X158166666Y-90963866D02*
X158119047Y-90868628D01*
X158119047Y-90868628D02*
X158071428Y-90821009D01*
X158071428Y-90821009D02*
X157976190Y-90773390D01*
X136857142Y-82039580D02*
X136809523Y-82087200D01*
X136809523Y-82087200D02*
X136666666Y-82134819D01*
X136666666Y-82134819D02*
X136571428Y-82134819D01*
X136571428Y-82134819D02*
X136428571Y-82087200D01*
X136428571Y-82087200D02*
X136333333Y-81991961D01*
X136333333Y-81991961D02*
X136285714Y-81896723D01*
X136285714Y-81896723D02*
X136238095Y-81706247D01*
X136238095Y-81706247D02*
X136238095Y-81563390D01*
X136238095Y-81563390D02*
X136285714Y-81372914D01*
X136285714Y-81372914D02*
X136333333Y-81277676D01*
X136333333Y-81277676D02*
X136428571Y-81182438D01*
X136428571Y-81182438D02*
X136571428Y-81134819D01*
X136571428Y-81134819D02*
X136666666Y-81134819D01*
X136666666Y-81134819D02*
X136809523Y-81182438D01*
X136809523Y-81182438D02*
X136857142Y-81230057D01*
X137809523Y-82134819D02*
X137238095Y-82134819D01*
X137523809Y-82134819D02*
X137523809Y-81134819D01*
X137523809Y-81134819D02*
X137428571Y-81277676D01*
X137428571Y-81277676D02*
X137333333Y-81372914D01*
X137333333Y-81372914D02*
X137238095Y-81420533D01*
X138142857Y-81134819D02*
X138761904Y-81134819D01*
X138761904Y-81134819D02*
X138428571Y-81515771D01*
X138428571Y-81515771D02*
X138571428Y-81515771D01*
X138571428Y-81515771D02*
X138666666Y-81563390D01*
X138666666Y-81563390D02*
X138714285Y-81611009D01*
X138714285Y-81611009D02*
X138761904Y-81706247D01*
X138761904Y-81706247D02*
X138761904Y-81944342D01*
X138761904Y-81944342D02*
X138714285Y-82039580D01*
X138714285Y-82039580D02*
X138666666Y-82087200D01*
X138666666Y-82087200D02*
X138571428Y-82134819D01*
X138571428Y-82134819D02*
X138285714Y-82134819D01*
X138285714Y-82134819D02*
X138190476Y-82087200D01*
X138190476Y-82087200D02*
X138142857Y-82039580D01*
X151929580Y-75642857D02*
X151977200Y-75690476D01*
X151977200Y-75690476D02*
X152024819Y-75833333D01*
X152024819Y-75833333D02*
X152024819Y-75928571D01*
X152024819Y-75928571D02*
X151977200Y-76071428D01*
X151977200Y-76071428D02*
X151881961Y-76166666D01*
X151881961Y-76166666D02*
X151786723Y-76214285D01*
X151786723Y-76214285D02*
X151596247Y-76261904D01*
X151596247Y-76261904D02*
X151453390Y-76261904D01*
X151453390Y-76261904D02*
X151262914Y-76214285D01*
X151262914Y-76214285D02*
X151167676Y-76166666D01*
X151167676Y-76166666D02*
X151072438Y-76071428D01*
X151072438Y-76071428D02*
X151024819Y-75928571D01*
X151024819Y-75928571D02*
X151024819Y-75833333D01*
X151024819Y-75833333D02*
X151072438Y-75690476D01*
X151072438Y-75690476D02*
X151120057Y-75642857D01*
X152024819Y-74690476D02*
X152024819Y-75261904D01*
X152024819Y-74976190D02*
X151024819Y-74976190D01*
X151024819Y-74976190D02*
X151167676Y-75071428D01*
X151167676Y-75071428D02*
X151262914Y-75166666D01*
X151262914Y-75166666D02*
X151310533Y-75261904D01*
X151120057Y-74309523D02*
X151072438Y-74261904D01*
X151072438Y-74261904D02*
X151024819Y-74166666D01*
X151024819Y-74166666D02*
X151024819Y-73928571D01*
X151024819Y-73928571D02*
X151072438Y-73833333D01*
X151072438Y-73833333D02*
X151120057Y-73785714D01*
X151120057Y-73785714D02*
X151215295Y-73738095D01*
X151215295Y-73738095D02*
X151310533Y-73738095D01*
X151310533Y-73738095D02*
X151453390Y-73785714D01*
X151453390Y-73785714D02*
X152024819Y-74357142D01*
X152024819Y-74357142D02*
X152024819Y-73738095D01*
X101634819Y-92166666D02*
X101158628Y-92499999D01*
X101634819Y-92738094D02*
X100634819Y-92738094D01*
X100634819Y-92738094D02*
X100634819Y-92357142D01*
X100634819Y-92357142D02*
X100682438Y-92261904D01*
X100682438Y-92261904D02*
X100730057Y-92214285D01*
X100730057Y-92214285D02*
X100825295Y-92166666D01*
X100825295Y-92166666D02*
X100968152Y-92166666D01*
X100968152Y-92166666D02*
X101063390Y-92214285D01*
X101063390Y-92214285D02*
X101111009Y-92261904D01*
X101111009Y-92261904D02*
X101158628Y-92357142D01*
X101158628Y-92357142D02*
X101158628Y-92738094D01*
X100634819Y-91833332D02*
X100634819Y-91214285D01*
X100634819Y-91214285D02*
X101015771Y-91547618D01*
X101015771Y-91547618D02*
X101015771Y-91404761D01*
X101015771Y-91404761D02*
X101063390Y-91309523D01*
X101063390Y-91309523D02*
X101111009Y-91261904D01*
X101111009Y-91261904D02*
X101206247Y-91214285D01*
X101206247Y-91214285D02*
X101444342Y-91214285D01*
X101444342Y-91214285D02*
X101539580Y-91261904D01*
X101539580Y-91261904D02*
X101587200Y-91309523D01*
X101587200Y-91309523D02*
X101634819Y-91404761D01*
X101634819Y-91404761D02*
X101634819Y-91690475D01*
X101634819Y-91690475D02*
X101587200Y-91785713D01*
X101587200Y-91785713D02*
X101539580Y-91833332D01*
X120634819Y-77916666D02*
X120158628Y-78249999D01*
X120634819Y-78488094D02*
X119634819Y-78488094D01*
X119634819Y-78488094D02*
X119634819Y-78107142D01*
X119634819Y-78107142D02*
X119682438Y-78011904D01*
X119682438Y-78011904D02*
X119730057Y-77964285D01*
X119730057Y-77964285D02*
X119825295Y-77916666D01*
X119825295Y-77916666D02*
X119968152Y-77916666D01*
X119968152Y-77916666D02*
X120063390Y-77964285D01*
X120063390Y-77964285D02*
X120111009Y-78011904D01*
X120111009Y-78011904D02*
X120158628Y-78107142D01*
X120158628Y-78107142D02*
X120158628Y-78488094D01*
X120634819Y-76964285D02*
X120634819Y-77535713D01*
X120634819Y-77249999D02*
X119634819Y-77249999D01*
X119634819Y-77249999D02*
X119777676Y-77345237D01*
X119777676Y-77345237D02*
X119872914Y-77440475D01*
X119872914Y-77440475D02*
X119920533Y-77535713D01*
X126024819Y-101166666D02*
X125548628Y-101499999D01*
X126024819Y-101738094D02*
X125024819Y-101738094D01*
X125024819Y-101738094D02*
X125024819Y-101357142D01*
X125024819Y-101357142D02*
X125072438Y-101261904D01*
X125072438Y-101261904D02*
X125120057Y-101214285D01*
X125120057Y-101214285D02*
X125215295Y-101166666D01*
X125215295Y-101166666D02*
X125358152Y-101166666D01*
X125358152Y-101166666D02*
X125453390Y-101214285D01*
X125453390Y-101214285D02*
X125501009Y-101261904D01*
X125501009Y-101261904D02*
X125548628Y-101357142D01*
X125548628Y-101357142D02*
X125548628Y-101738094D01*
X125453390Y-100595237D02*
X125405771Y-100690475D01*
X125405771Y-100690475D02*
X125358152Y-100738094D01*
X125358152Y-100738094D02*
X125262914Y-100785713D01*
X125262914Y-100785713D02*
X125215295Y-100785713D01*
X125215295Y-100785713D02*
X125120057Y-100738094D01*
X125120057Y-100738094D02*
X125072438Y-100690475D01*
X125072438Y-100690475D02*
X125024819Y-100595237D01*
X125024819Y-100595237D02*
X125024819Y-100404761D01*
X125024819Y-100404761D02*
X125072438Y-100309523D01*
X125072438Y-100309523D02*
X125120057Y-100261904D01*
X125120057Y-100261904D02*
X125215295Y-100214285D01*
X125215295Y-100214285D02*
X125262914Y-100214285D01*
X125262914Y-100214285D02*
X125358152Y-100261904D01*
X125358152Y-100261904D02*
X125405771Y-100309523D01*
X125405771Y-100309523D02*
X125453390Y-100404761D01*
X125453390Y-100404761D02*
X125453390Y-100595237D01*
X125453390Y-100595237D02*
X125501009Y-100690475D01*
X125501009Y-100690475D02*
X125548628Y-100738094D01*
X125548628Y-100738094D02*
X125643866Y-100785713D01*
X125643866Y-100785713D02*
X125834342Y-100785713D01*
X125834342Y-100785713D02*
X125929580Y-100738094D01*
X125929580Y-100738094D02*
X125977200Y-100690475D01*
X125977200Y-100690475D02*
X126024819Y-100595237D01*
X126024819Y-100595237D02*
X126024819Y-100404761D01*
X126024819Y-100404761D02*
X125977200Y-100309523D01*
X125977200Y-100309523D02*
X125929580Y-100261904D01*
X125929580Y-100261904D02*
X125834342Y-100214285D01*
X125834342Y-100214285D02*
X125643866Y-100214285D01*
X125643866Y-100214285D02*
X125548628Y-100261904D01*
X125548628Y-100261904D02*
X125501009Y-100309523D01*
X125501009Y-100309523D02*
X125453390Y-100404761D01*
X147524819Y-75642857D02*
X147048628Y-75976190D01*
X147524819Y-76214285D02*
X146524819Y-76214285D01*
X146524819Y-76214285D02*
X146524819Y-75833333D01*
X146524819Y-75833333D02*
X146572438Y-75738095D01*
X146572438Y-75738095D02*
X146620057Y-75690476D01*
X146620057Y-75690476D02*
X146715295Y-75642857D01*
X146715295Y-75642857D02*
X146858152Y-75642857D01*
X146858152Y-75642857D02*
X146953390Y-75690476D01*
X146953390Y-75690476D02*
X147001009Y-75738095D01*
X147001009Y-75738095D02*
X147048628Y-75833333D01*
X147048628Y-75833333D02*
X147048628Y-76214285D01*
X146620057Y-75261904D02*
X146572438Y-75214285D01*
X146572438Y-75214285D02*
X146524819Y-75119047D01*
X146524819Y-75119047D02*
X146524819Y-74880952D01*
X146524819Y-74880952D02*
X146572438Y-74785714D01*
X146572438Y-74785714D02*
X146620057Y-74738095D01*
X146620057Y-74738095D02*
X146715295Y-74690476D01*
X146715295Y-74690476D02*
X146810533Y-74690476D01*
X146810533Y-74690476D02*
X146953390Y-74738095D01*
X146953390Y-74738095D02*
X147524819Y-75309523D01*
X147524819Y-75309523D02*
X147524819Y-74690476D01*
X146524819Y-74071428D02*
X146524819Y-73976190D01*
X146524819Y-73976190D02*
X146572438Y-73880952D01*
X146572438Y-73880952D02*
X146620057Y-73833333D01*
X146620057Y-73833333D02*
X146715295Y-73785714D01*
X146715295Y-73785714D02*
X146905771Y-73738095D01*
X146905771Y-73738095D02*
X147143866Y-73738095D01*
X147143866Y-73738095D02*
X147334342Y-73785714D01*
X147334342Y-73785714D02*
X147429580Y-73833333D01*
X147429580Y-73833333D02*
X147477200Y-73880952D01*
X147477200Y-73880952D02*
X147524819Y-73976190D01*
X147524819Y-73976190D02*
X147524819Y-74071428D01*
X147524819Y-74071428D02*
X147477200Y-74166666D01*
X147477200Y-74166666D02*
X147429580Y-74214285D01*
X147429580Y-74214285D02*
X147334342Y-74261904D01*
X147334342Y-74261904D02*
X147143866Y-74309523D01*
X147143866Y-74309523D02*
X146905771Y-74309523D01*
X146905771Y-74309523D02*
X146715295Y-74261904D01*
X146715295Y-74261904D02*
X146620057Y-74214285D01*
X146620057Y-74214285D02*
X146572438Y-74166666D01*
X146572438Y-74166666D02*
X146524819Y-74071428D01*
X115134819Y-97666666D02*
X114658628Y-97999999D01*
X115134819Y-98238094D02*
X114134819Y-98238094D01*
X114134819Y-98238094D02*
X114134819Y-97857142D01*
X114134819Y-97857142D02*
X114182438Y-97761904D01*
X114182438Y-97761904D02*
X114230057Y-97714285D01*
X114230057Y-97714285D02*
X114325295Y-97666666D01*
X114325295Y-97666666D02*
X114468152Y-97666666D01*
X114468152Y-97666666D02*
X114563390Y-97714285D01*
X114563390Y-97714285D02*
X114611009Y-97761904D01*
X114611009Y-97761904D02*
X114658628Y-97857142D01*
X114658628Y-97857142D02*
X114658628Y-98238094D01*
X114134819Y-96809523D02*
X114134819Y-96999999D01*
X114134819Y-96999999D02*
X114182438Y-97095237D01*
X114182438Y-97095237D02*
X114230057Y-97142856D01*
X114230057Y-97142856D02*
X114372914Y-97238094D01*
X114372914Y-97238094D02*
X114563390Y-97285713D01*
X114563390Y-97285713D02*
X114944342Y-97285713D01*
X114944342Y-97285713D02*
X115039580Y-97238094D01*
X115039580Y-97238094D02*
X115087200Y-97190475D01*
X115087200Y-97190475D02*
X115134819Y-97095237D01*
X115134819Y-97095237D02*
X115134819Y-96904761D01*
X115134819Y-96904761D02*
X115087200Y-96809523D01*
X115087200Y-96809523D02*
X115039580Y-96761904D01*
X115039580Y-96761904D02*
X114944342Y-96714285D01*
X114944342Y-96714285D02*
X114706247Y-96714285D01*
X114706247Y-96714285D02*
X114611009Y-96761904D01*
X114611009Y-96761904D02*
X114563390Y-96809523D01*
X114563390Y-96809523D02*
X114515771Y-96904761D01*
X114515771Y-96904761D02*
X114515771Y-97095237D01*
X114515771Y-97095237D02*
X114563390Y-97190475D01*
X114563390Y-97190475D02*
X114611009Y-97238094D01*
X114611009Y-97238094D02*
X114706247Y-97285713D01*
X132816666Y-94781009D02*
X132959523Y-94828628D01*
X132959523Y-94828628D02*
X133007142Y-94876247D01*
X133007142Y-94876247D02*
X133054761Y-94971485D01*
X133054761Y-94971485D02*
X133054761Y-95114342D01*
X133054761Y-95114342D02*
X133007142Y-95209580D01*
X133007142Y-95209580D02*
X132959523Y-95257200D01*
X132959523Y-95257200D02*
X132864285Y-95304819D01*
X132864285Y-95304819D02*
X132483333Y-95304819D01*
X132483333Y-95304819D02*
X132483333Y-94304819D01*
X132483333Y-94304819D02*
X132816666Y-94304819D01*
X132816666Y-94304819D02*
X132911904Y-94352438D01*
X132911904Y-94352438D02*
X132959523Y-94400057D01*
X132959523Y-94400057D02*
X133007142Y-94495295D01*
X133007142Y-94495295D02*
X133007142Y-94590533D01*
X133007142Y-94590533D02*
X132959523Y-94685771D01*
X132959523Y-94685771D02*
X132911904Y-94733390D01*
X132911904Y-94733390D02*
X132816666Y-94781009D01*
X132816666Y-94781009D02*
X132483333Y-94781009D01*
X133673809Y-94304819D02*
X133864285Y-94304819D01*
X133864285Y-94304819D02*
X133959523Y-94352438D01*
X133959523Y-94352438D02*
X134054761Y-94447676D01*
X134054761Y-94447676D02*
X134102380Y-94638152D01*
X134102380Y-94638152D02*
X134102380Y-94971485D01*
X134102380Y-94971485D02*
X134054761Y-95161961D01*
X134054761Y-95161961D02*
X133959523Y-95257200D01*
X133959523Y-95257200D02*
X133864285Y-95304819D01*
X133864285Y-95304819D02*
X133673809Y-95304819D01*
X133673809Y-95304819D02*
X133578571Y-95257200D01*
X133578571Y-95257200D02*
X133483333Y-95161961D01*
X133483333Y-95161961D02*
X133435714Y-94971485D01*
X133435714Y-94971485D02*
X133435714Y-94638152D01*
X133435714Y-94638152D02*
X133483333Y-94447676D01*
X133483333Y-94447676D02*
X133578571Y-94352438D01*
X133578571Y-94352438D02*
X133673809Y-94304819D01*
X134721428Y-94304819D02*
X134911904Y-94304819D01*
X134911904Y-94304819D02*
X135007142Y-94352438D01*
X135007142Y-94352438D02*
X135102380Y-94447676D01*
X135102380Y-94447676D02*
X135149999Y-94638152D01*
X135149999Y-94638152D02*
X135149999Y-94971485D01*
X135149999Y-94971485D02*
X135102380Y-95161961D01*
X135102380Y-95161961D02*
X135007142Y-95257200D01*
X135007142Y-95257200D02*
X134911904Y-95304819D01*
X134911904Y-95304819D02*
X134721428Y-95304819D01*
X134721428Y-95304819D02*
X134626190Y-95257200D01*
X134626190Y-95257200D02*
X134530952Y-95161961D01*
X134530952Y-95161961D02*
X134483333Y-94971485D01*
X134483333Y-94971485D02*
X134483333Y-94638152D01*
X134483333Y-94638152D02*
X134530952Y-94447676D01*
X134530952Y-94447676D02*
X134626190Y-94352438D01*
X134626190Y-94352438D02*
X134721428Y-94304819D01*
X135435714Y-94304819D02*
X136007142Y-94304819D01*
X135721428Y-95304819D02*
X135721428Y-94304819D01*
X136864285Y-95304819D02*
X136292857Y-95304819D01*
X136578571Y-95304819D02*
X136578571Y-94304819D01*
X136578571Y-94304819D02*
X136483333Y-94447676D01*
X136483333Y-94447676D02*
X136388095Y-94542914D01*
X136388095Y-94542914D02*
X136292857Y-94590533D01*
X110539580Y-101166666D02*
X110587200Y-101214285D01*
X110587200Y-101214285D02*
X110634819Y-101357142D01*
X110634819Y-101357142D02*
X110634819Y-101452380D01*
X110634819Y-101452380D02*
X110587200Y-101595237D01*
X110587200Y-101595237D02*
X110491961Y-101690475D01*
X110491961Y-101690475D02*
X110396723Y-101738094D01*
X110396723Y-101738094D02*
X110206247Y-101785713D01*
X110206247Y-101785713D02*
X110063390Y-101785713D01*
X110063390Y-101785713D02*
X109872914Y-101738094D01*
X109872914Y-101738094D02*
X109777676Y-101690475D01*
X109777676Y-101690475D02*
X109682438Y-101595237D01*
X109682438Y-101595237D02*
X109634819Y-101452380D01*
X109634819Y-101452380D02*
X109634819Y-101357142D01*
X109634819Y-101357142D02*
X109682438Y-101214285D01*
X109682438Y-101214285D02*
X109730057Y-101166666D01*
X109634819Y-100309523D02*
X109634819Y-100499999D01*
X109634819Y-100499999D02*
X109682438Y-100595237D01*
X109682438Y-100595237D02*
X109730057Y-100642856D01*
X109730057Y-100642856D02*
X109872914Y-100738094D01*
X109872914Y-100738094D02*
X110063390Y-100785713D01*
X110063390Y-100785713D02*
X110444342Y-100785713D01*
X110444342Y-100785713D02*
X110539580Y-100738094D01*
X110539580Y-100738094D02*
X110587200Y-100690475D01*
X110587200Y-100690475D02*
X110634819Y-100595237D01*
X110634819Y-100595237D02*
X110634819Y-100404761D01*
X110634819Y-100404761D02*
X110587200Y-100309523D01*
X110587200Y-100309523D02*
X110539580Y-100261904D01*
X110539580Y-100261904D02*
X110444342Y-100214285D01*
X110444342Y-100214285D02*
X110206247Y-100214285D01*
X110206247Y-100214285D02*
X110111009Y-100261904D01*
X110111009Y-100261904D02*
X110063390Y-100309523D01*
X110063390Y-100309523D02*
X110015771Y-100404761D01*
X110015771Y-100404761D02*
X110015771Y-100595237D01*
X110015771Y-100595237D02*
X110063390Y-100690475D01*
X110063390Y-100690475D02*
X110111009Y-100738094D01*
X110111009Y-100738094D02*
X110206247Y-100785713D01*
X143842261Y-73050057D02*
X143747023Y-73002438D01*
X143747023Y-73002438D02*
X143651785Y-72907200D01*
X143651785Y-72907200D02*
X143508928Y-72764342D01*
X143508928Y-72764342D02*
X143413690Y-72716723D01*
X143413690Y-72716723D02*
X143318452Y-72716723D01*
X143366071Y-72954819D02*
X143270833Y-72907200D01*
X143270833Y-72907200D02*
X143175595Y-72811961D01*
X143175595Y-72811961D02*
X143127976Y-72621485D01*
X143127976Y-72621485D02*
X143127976Y-72288152D01*
X143127976Y-72288152D02*
X143175595Y-72097676D01*
X143175595Y-72097676D02*
X143270833Y-72002438D01*
X143270833Y-72002438D02*
X143366071Y-71954819D01*
X143366071Y-71954819D02*
X143556547Y-71954819D01*
X143556547Y-71954819D02*
X143651785Y-72002438D01*
X143651785Y-72002438D02*
X143747023Y-72097676D01*
X143747023Y-72097676D02*
X143794642Y-72288152D01*
X143794642Y-72288152D02*
X143794642Y-72621485D01*
X143794642Y-72621485D02*
X143747023Y-72811961D01*
X143747023Y-72811961D02*
X143651785Y-72907200D01*
X143651785Y-72907200D02*
X143556547Y-72954819D01*
X143556547Y-72954819D02*
X143366071Y-72954819D01*
X144175595Y-72050057D02*
X144223214Y-72002438D01*
X144223214Y-72002438D02*
X144318452Y-71954819D01*
X144318452Y-71954819D02*
X144556547Y-71954819D01*
X144556547Y-71954819D02*
X144651785Y-72002438D01*
X144651785Y-72002438D02*
X144699404Y-72050057D01*
X144699404Y-72050057D02*
X144747023Y-72145295D01*
X144747023Y-72145295D02*
X144747023Y-72240533D01*
X144747023Y-72240533D02*
X144699404Y-72383390D01*
X144699404Y-72383390D02*
X144127976Y-72954819D01*
X144127976Y-72954819D02*
X144747023Y-72954819D01*
X138524819Y-75642857D02*
X138048628Y-75976190D01*
X138524819Y-76214285D02*
X137524819Y-76214285D01*
X137524819Y-76214285D02*
X137524819Y-75833333D01*
X137524819Y-75833333D02*
X137572438Y-75738095D01*
X137572438Y-75738095D02*
X137620057Y-75690476D01*
X137620057Y-75690476D02*
X137715295Y-75642857D01*
X137715295Y-75642857D02*
X137858152Y-75642857D01*
X137858152Y-75642857D02*
X137953390Y-75690476D01*
X137953390Y-75690476D02*
X138001009Y-75738095D01*
X138001009Y-75738095D02*
X138048628Y-75833333D01*
X138048628Y-75833333D02*
X138048628Y-76214285D01*
X138524819Y-74690476D02*
X138524819Y-75261904D01*
X138524819Y-74976190D02*
X137524819Y-74976190D01*
X137524819Y-74976190D02*
X137667676Y-75071428D01*
X137667676Y-75071428D02*
X137762914Y-75166666D01*
X137762914Y-75166666D02*
X137810533Y-75261904D01*
X137620057Y-74309523D02*
X137572438Y-74261904D01*
X137572438Y-74261904D02*
X137524819Y-74166666D01*
X137524819Y-74166666D02*
X137524819Y-73928571D01*
X137524819Y-73928571D02*
X137572438Y-73833333D01*
X137572438Y-73833333D02*
X137620057Y-73785714D01*
X137620057Y-73785714D02*
X137715295Y-73738095D01*
X137715295Y-73738095D02*
X137810533Y-73738095D01*
X137810533Y-73738095D02*
X137953390Y-73785714D01*
X137953390Y-73785714D02*
X138524819Y-74357142D01*
X138524819Y-74357142D02*
X138524819Y-73738095D01*
X101634819Y-88666666D02*
X101158628Y-88999999D01*
X101634819Y-89238094D02*
X100634819Y-89238094D01*
X100634819Y-89238094D02*
X100634819Y-88857142D01*
X100634819Y-88857142D02*
X100682438Y-88761904D01*
X100682438Y-88761904D02*
X100730057Y-88714285D01*
X100730057Y-88714285D02*
X100825295Y-88666666D01*
X100825295Y-88666666D02*
X100968152Y-88666666D01*
X100968152Y-88666666D02*
X101063390Y-88714285D01*
X101063390Y-88714285D02*
X101111009Y-88761904D01*
X101111009Y-88761904D02*
X101158628Y-88857142D01*
X101158628Y-88857142D02*
X101158628Y-89238094D01*
X100730057Y-88285713D02*
X100682438Y-88238094D01*
X100682438Y-88238094D02*
X100634819Y-88142856D01*
X100634819Y-88142856D02*
X100634819Y-87904761D01*
X100634819Y-87904761D02*
X100682438Y-87809523D01*
X100682438Y-87809523D02*
X100730057Y-87761904D01*
X100730057Y-87761904D02*
X100825295Y-87714285D01*
X100825295Y-87714285D02*
X100920533Y-87714285D01*
X100920533Y-87714285D02*
X101063390Y-87761904D01*
X101063390Y-87761904D02*
X101634819Y-88333332D01*
X101634819Y-88333332D02*
X101634819Y-87714285D01*
X100454819Y-81083333D02*
X101169104Y-81083333D01*
X101169104Y-81083333D02*
X101311961Y-81130952D01*
X101311961Y-81130952D02*
X101407200Y-81226190D01*
X101407200Y-81226190D02*
X101454819Y-81369047D01*
X101454819Y-81369047D02*
X101454819Y-81464285D01*
X100454819Y-80702380D02*
X100454819Y-80035714D01*
X100454819Y-80035714D02*
X101454819Y-80464285D01*
X97114700Y-74821428D02*
X97114700Y-73678571D01*
X100864700Y-86321428D02*
X100864700Y-85178571D01*
X101436128Y-85749999D02*
X100293271Y-85749999D01*
X92654819Y-98583333D02*
X93369104Y-98583333D01*
X93369104Y-98583333D02*
X93511961Y-98630952D01*
X93511961Y-98630952D02*
X93607200Y-98726190D01*
X93607200Y-98726190D02*
X93654819Y-98869047D01*
X93654819Y-98869047D02*
X93654819Y-98964285D01*
X93654819Y-97583333D02*
X93654819Y-98154761D01*
X93654819Y-97869047D02*
X92654819Y-97869047D01*
X92654819Y-97869047D02*
X92797676Y-97964285D01*
X92797676Y-97964285D02*
X92892914Y-98059523D01*
X92892914Y-98059523D02*
X92940533Y-98154761D01*
X130179580Y-101642857D02*
X130227200Y-101690476D01*
X130227200Y-101690476D02*
X130274819Y-101833333D01*
X130274819Y-101833333D02*
X130274819Y-101928571D01*
X130274819Y-101928571D02*
X130227200Y-102071428D01*
X130227200Y-102071428D02*
X130131961Y-102166666D01*
X130131961Y-102166666D02*
X130036723Y-102214285D01*
X130036723Y-102214285D02*
X129846247Y-102261904D01*
X129846247Y-102261904D02*
X129703390Y-102261904D01*
X129703390Y-102261904D02*
X129512914Y-102214285D01*
X129512914Y-102214285D02*
X129417676Y-102166666D01*
X129417676Y-102166666D02*
X129322438Y-102071428D01*
X129322438Y-102071428D02*
X129274819Y-101928571D01*
X129274819Y-101928571D02*
X129274819Y-101833333D01*
X129274819Y-101833333D02*
X129322438Y-101690476D01*
X129322438Y-101690476D02*
X129370057Y-101642857D01*
X130274819Y-100690476D02*
X130274819Y-101261904D01*
X130274819Y-100976190D02*
X129274819Y-100976190D01*
X129274819Y-100976190D02*
X129417676Y-101071428D01*
X129417676Y-101071428D02*
X129512914Y-101166666D01*
X129512914Y-101166666D02*
X129560533Y-101261904D01*
X129274819Y-100071428D02*
X129274819Y-99976190D01*
X129274819Y-99976190D02*
X129322438Y-99880952D01*
X129322438Y-99880952D02*
X129370057Y-99833333D01*
X129370057Y-99833333D02*
X129465295Y-99785714D01*
X129465295Y-99785714D02*
X129655771Y-99738095D01*
X129655771Y-99738095D02*
X129893866Y-99738095D01*
X129893866Y-99738095D02*
X130084342Y-99785714D01*
X130084342Y-99785714D02*
X130179580Y-99833333D01*
X130179580Y-99833333D02*
X130227200Y-99880952D01*
X130227200Y-99880952D02*
X130274819Y-99976190D01*
X130274819Y-99976190D02*
X130274819Y-100071428D01*
X130274819Y-100071428D02*
X130227200Y-100166666D01*
X130227200Y-100166666D02*
X130179580Y-100214285D01*
X130179580Y-100214285D02*
X130084342Y-100261904D01*
X130084342Y-100261904D02*
X129893866Y-100309523D01*
X129893866Y-100309523D02*
X129655771Y-100309523D01*
X129655771Y-100309523D02*
X129465295Y-100261904D01*
X129465295Y-100261904D02*
X129370057Y-100214285D01*
X129370057Y-100214285D02*
X129322438Y-100166666D01*
X129322438Y-100166666D02*
X129274819Y-100071428D01*
X105107142Y-73704819D02*
X104630952Y-73704819D01*
X104630952Y-73704819D02*
X104630952Y-72704819D01*
X105392857Y-73657200D02*
X105535714Y-73704819D01*
X105535714Y-73704819D02*
X105773809Y-73704819D01*
X105773809Y-73704819D02*
X105869047Y-73657200D01*
X105869047Y-73657200D02*
X105916666Y-73609580D01*
X105916666Y-73609580D02*
X105964285Y-73514342D01*
X105964285Y-73514342D02*
X105964285Y-73419104D01*
X105964285Y-73419104D02*
X105916666Y-73323866D01*
X105916666Y-73323866D02*
X105869047Y-73276247D01*
X105869047Y-73276247D02*
X105773809Y-73228628D01*
X105773809Y-73228628D02*
X105583333Y-73181009D01*
X105583333Y-73181009D02*
X105488095Y-73133390D01*
X105488095Y-73133390D02*
X105440476Y-73085771D01*
X105440476Y-73085771D02*
X105392857Y-72990533D01*
X105392857Y-72990533D02*
X105392857Y-72895295D01*
X105392857Y-72895295D02*
X105440476Y-72800057D01*
X105440476Y-72800057D02*
X105488095Y-72752438D01*
X105488095Y-72752438D02*
X105583333Y-72704819D01*
X105583333Y-72704819D02*
X105821428Y-72704819D01*
X105821428Y-72704819D02*
X105964285Y-72752438D01*
X106916666Y-73704819D02*
X106345238Y-73704819D01*
X106630952Y-73704819D02*
X106630952Y-72704819D01*
X106630952Y-72704819D02*
X106535714Y-72847676D01*
X106535714Y-72847676D02*
X106440476Y-72942914D01*
X106440476Y-72942914D02*
X106345238Y-72990533D01*
X103524819Y-98392857D02*
X103048628Y-98726190D01*
X103524819Y-98964285D02*
X102524819Y-98964285D01*
X102524819Y-98964285D02*
X102524819Y-98583333D01*
X102524819Y-98583333D02*
X102572438Y-98488095D01*
X102572438Y-98488095D02*
X102620057Y-98440476D01*
X102620057Y-98440476D02*
X102715295Y-98392857D01*
X102715295Y-98392857D02*
X102858152Y-98392857D01*
X102858152Y-98392857D02*
X102953390Y-98440476D01*
X102953390Y-98440476D02*
X103001009Y-98488095D01*
X103001009Y-98488095D02*
X103048628Y-98583333D01*
X103048628Y-98583333D02*
X103048628Y-98964285D01*
X103524819Y-97440476D02*
X103524819Y-98011904D01*
X103524819Y-97726190D02*
X102524819Y-97726190D01*
X102524819Y-97726190D02*
X102667676Y-97821428D01*
X102667676Y-97821428D02*
X102762914Y-97916666D01*
X102762914Y-97916666D02*
X102810533Y-98011904D01*
X102858152Y-96583333D02*
X103524819Y-96583333D01*
X102477200Y-96821428D02*
X103191485Y-97059523D01*
X103191485Y-97059523D02*
X103191485Y-96440476D01*
X112274819Y-94166666D02*
X111798628Y-94499999D01*
X112274819Y-94738094D02*
X111274819Y-94738094D01*
X111274819Y-94738094D02*
X111274819Y-94357142D01*
X111274819Y-94357142D02*
X111322438Y-94261904D01*
X111322438Y-94261904D02*
X111370057Y-94214285D01*
X111370057Y-94214285D02*
X111465295Y-94166666D01*
X111465295Y-94166666D02*
X111608152Y-94166666D01*
X111608152Y-94166666D02*
X111703390Y-94214285D01*
X111703390Y-94214285D02*
X111751009Y-94261904D01*
X111751009Y-94261904D02*
X111798628Y-94357142D01*
X111798628Y-94357142D02*
X111798628Y-94738094D01*
X111608152Y-93309523D02*
X112274819Y-93309523D01*
X111227200Y-93547618D02*
X111941485Y-93785713D01*
X111941485Y-93785713D02*
X111941485Y-93166666D01*
X97039580Y-88666666D02*
X97087200Y-88714285D01*
X97087200Y-88714285D02*
X97134819Y-88857142D01*
X97134819Y-88857142D02*
X97134819Y-88952380D01*
X97134819Y-88952380D02*
X97087200Y-89095237D01*
X97087200Y-89095237D02*
X96991961Y-89190475D01*
X96991961Y-89190475D02*
X96896723Y-89238094D01*
X96896723Y-89238094D02*
X96706247Y-89285713D01*
X96706247Y-89285713D02*
X96563390Y-89285713D01*
X96563390Y-89285713D02*
X96372914Y-89238094D01*
X96372914Y-89238094D02*
X96277676Y-89190475D01*
X96277676Y-89190475D02*
X96182438Y-89095237D01*
X96182438Y-89095237D02*
X96134819Y-88952380D01*
X96134819Y-88952380D02*
X96134819Y-88857142D01*
X96134819Y-88857142D02*
X96182438Y-88714285D01*
X96182438Y-88714285D02*
X96230057Y-88666666D01*
X97134819Y-87714285D02*
X97134819Y-88285713D01*
X97134819Y-87999999D02*
X96134819Y-87999999D01*
X96134819Y-87999999D02*
X96277676Y-88095237D01*
X96277676Y-88095237D02*
X96372914Y-88190475D01*
X96372914Y-88190475D02*
X96420533Y-88285713D01*
X149379819Y-98403333D02*
X150094104Y-98403333D01*
X150094104Y-98403333D02*
X150236961Y-98450952D01*
X150236961Y-98450952D02*
X150332200Y-98546190D01*
X150332200Y-98546190D02*
X150379819Y-98689047D01*
X150379819Y-98689047D02*
X150379819Y-98784285D01*
X149379819Y-98022380D02*
X149379819Y-97403333D01*
X149379819Y-97403333D02*
X149760771Y-97736666D01*
X149760771Y-97736666D02*
X149760771Y-97593809D01*
X149760771Y-97593809D02*
X149808390Y-97498571D01*
X149808390Y-97498571D02*
X149856009Y-97450952D01*
X149856009Y-97450952D02*
X149951247Y-97403333D01*
X149951247Y-97403333D02*
X150189342Y-97403333D01*
X150189342Y-97403333D02*
X150284580Y-97450952D01*
X150284580Y-97450952D02*
X150332200Y-97498571D01*
X150332200Y-97498571D02*
X150379819Y-97593809D01*
X150379819Y-97593809D02*
X150379819Y-97879523D01*
X150379819Y-97879523D02*
X150332200Y-97974761D01*
X150332200Y-97974761D02*
X150284580Y-98022380D01*
X126024819Y-97916666D02*
X125548628Y-98249999D01*
X126024819Y-98488094D02*
X125024819Y-98488094D01*
X125024819Y-98488094D02*
X125024819Y-98107142D01*
X125024819Y-98107142D02*
X125072438Y-98011904D01*
X125072438Y-98011904D02*
X125120057Y-97964285D01*
X125120057Y-97964285D02*
X125215295Y-97916666D01*
X125215295Y-97916666D02*
X125358152Y-97916666D01*
X125358152Y-97916666D02*
X125453390Y-97964285D01*
X125453390Y-97964285D02*
X125501009Y-98011904D01*
X125501009Y-98011904D02*
X125548628Y-98107142D01*
X125548628Y-98107142D02*
X125548628Y-98488094D01*
X126024819Y-97440475D02*
X126024819Y-97249999D01*
X126024819Y-97249999D02*
X125977200Y-97154761D01*
X125977200Y-97154761D02*
X125929580Y-97107142D01*
X125929580Y-97107142D02*
X125786723Y-97011904D01*
X125786723Y-97011904D02*
X125596247Y-96964285D01*
X125596247Y-96964285D02*
X125215295Y-96964285D01*
X125215295Y-96964285D02*
X125120057Y-97011904D01*
X125120057Y-97011904D02*
X125072438Y-97059523D01*
X125072438Y-97059523D02*
X125024819Y-97154761D01*
X125024819Y-97154761D02*
X125024819Y-97345237D01*
X125024819Y-97345237D02*
X125072438Y-97440475D01*
X125072438Y-97440475D02*
X125120057Y-97488094D01*
X125120057Y-97488094D02*
X125215295Y-97535713D01*
X125215295Y-97535713D02*
X125453390Y-97535713D01*
X125453390Y-97535713D02*
X125548628Y-97488094D01*
X125548628Y-97488094D02*
X125596247Y-97440475D01*
X125596247Y-97440475D02*
X125643866Y-97345237D01*
X125643866Y-97345237D02*
X125643866Y-97154761D01*
X125643866Y-97154761D02*
X125596247Y-97059523D01*
X125596247Y-97059523D02*
X125548628Y-97011904D01*
X125548628Y-97011904D02*
X125453390Y-96964285D01*
X126524819Y-94642857D02*
X126048628Y-94976190D01*
X126524819Y-95214285D02*
X125524819Y-95214285D01*
X125524819Y-95214285D02*
X125524819Y-94833333D01*
X125524819Y-94833333D02*
X125572438Y-94738095D01*
X125572438Y-94738095D02*
X125620057Y-94690476D01*
X125620057Y-94690476D02*
X125715295Y-94642857D01*
X125715295Y-94642857D02*
X125858152Y-94642857D01*
X125858152Y-94642857D02*
X125953390Y-94690476D01*
X125953390Y-94690476D02*
X126001009Y-94738095D01*
X126001009Y-94738095D02*
X126048628Y-94833333D01*
X126048628Y-94833333D02*
X126048628Y-95214285D01*
X126524819Y-93690476D02*
X126524819Y-94261904D01*
X126524819Y-93976190D02*
X125524819Y-93976190D01*
X125524819Y-93976190D02*
X125667676Y-94071428D01*
X125667676Y-94071428D02*
X125762914Y-94166666D01*
X125762914Y-94166666D02*
X125810533Y-94261904D01*
X125524819Y-92785714D02*
X125524819Y-93261904D01*
X125524819Y-93261904D02*
X126001009Y-93309523D01*
X126001009Y-93309523D02*
X125953390Y-93261904D01*
X125953390Y-93261904D02*
X125905771Y-93166666D01*
X125905771Y-93166666D02*
X125905771Y-92928571D01*
X125905771Y-92928571D02*
X125953390Y-92833333D01*
X125953390Y-92833333D02*
X126001009Y-92785714D01*
X126001009Y-92785714D02*
X126096247Y-92738095D01*
X126096247Y-92738095D02*
X126334342Y-92738095D01*
X126334342Y-92738095D02*
X126429580Y-92785714D01*
X126429580Y-92785714D02*
X126477200Y-92833333D01*
X126477200Y-92833333D02*
X126524819Y-92928571D01*
X126524819Y-92928571D02*
X126524819Y-93166666D01*
X126524819Y-93166666D02*
X126477200Y-93261904D01*
X126477200Y-93261904D02*
X126429580Y-93309523D01*
X129384819Y-91488094D02*
X128384819Y-91488094D01*
X128384819Y-91488094D02*
X128384819Y-91249999D01*
X128384819Y-91249999D02*
X128432438Y-91107142D01*
X128432438Y-91107142D02*
X128527676Y-91011904D01*
X128527676Y-91011904D02*
X128622914Y-90964285D01*
X128622914Y-90964285D02*
X128813390Y-90916666D01*
X128813390Y-90916666D02*
X128956247Y-90916666D01*
X128956247Y-90916666D02*
X129146723Y-90964285D01*
X129146723Y-90964285D02*
X129241961Y-91011904D01*
X129241961Y-91011904D02*
X129337200Y-91107142D01*
X129337200Y-91107142D02*
X129384819Y-91249999D01*
X129384819Y-91249999D02*
X129384819Y-91488094D01*
X128480057Y-90535713D02*
X128432438Y-90488094D01*
X128432438Y-90488094D02*
X128384819Y-90392856D01*
X128384819Y-90392856D02*
X128384819Y-90154761D01*
X128384819Y-90154761D02*
X128432438Y-90059523D01*
X128432438Y-90059523D02*
X128480057Y-90011904D01*
X128480057Y-90011904D02*
X128575295Y-89964285D01*
X128575295Y-89964285D02*
X128670533Y-89964285D01*
X128670533Y-89964285D02*
X128813390Y-90011904D01*
X128813390Y-90011904D02*
X129384819Y-90583332D01*
X129384819Y-90583332D02*
X129384819Y-89964285D01*
D12*
X103788095Y-95096419D02*
X103788095Y-95905942D01*
X103788095Y-95905942D02*
X103835714Y-96001180D01*
X103835714Y-96001180D02*
X103883333Y-96048800D01*
X103883333Y-96048800D02*
X103978571Y-96096419D01*
X103978571Y-96096419D02*
X104169047Y-96096419D01*
X104169047Y-96096419D02*
X104264285Y-96048800D01*
X104264285Y-96048800D02*
X104311904Y-96001180D01*
X104311904Y-96001180D02*
X104359523Y-95905942D01*
X104359523Y-95905942D02*
X104359523Y-95096419D01*
X105359523Y-96096419D02*
X104788095Y-96096419D01*
X105073809Y-96096419D02*
X105073809Y-95096419D01*
X105073809Y-95096419D02*
X104978571Y-95239276D01*
X104978571Y-95239276D02*
X104883333Y-95334514D01*
X104883333Y-95334514D02*
X104788095Y-95382133D01*
D11*
X138154819Y-98333333D02*
X138869104Y-98333333D01*
X138869104Y-98333333D02*
X139011961Y-98380952D01*
X139011961Y-98380952D02*
X139107200Y-98476190D01*
X139107200Y-98476190D02*
X139154819Y-98619047D01*
X139154819Y-98619047D02*
X139154819Y-98714285D01*
X138488152Y-97428571D02*
X139154819Y-97428571D01*
X138107200Y-97666666D02*
X138821485Y-97904761D01*
X138821485Y-97904761D02*
X138821485Y-97285714D01*
X119654819Y-81083333D02*
X120369104Y-81083333D01*
X120369104Y-81083333D02*
X120511961Y-81130952D01*
X120511961Y-81130952D02*
X120607200Y-81226190D01*
X120607200Y-81226190D02*
X120654819Y-81369047D01*
X120654819Y-81369047D02*
X120654819Y-81464285D01*
X120654819Y-80559523D02*
X120654819Y-80369047D01*
X120654819Y-80369047D02*
X120607200Y-80273809D01*
X120607200Y-80273809D02*
X120559580Y-80226190D01*
X120559580Y-80226190D02*
X120416723Y-80130952D01*
X120416723Y-80130952D02*
X120226247Y-80083333D01*
X120226247Y-80083333D02*
X119845295Y-80083333D01*
X119845295Y-80083333D02*
X119750057Y-80130952D01*
X119750057Y-80130952D02*
X119702438Y-80178571D01*
X119702438Y-80178571D02*
X119654819Y-80273809D01*
X119654819Y-80273809D02*
X119654819Y-80464285D01*
X119654819Y-80464285D02*
X119702438Y-80559523D01*
X119702438Y-80559523D02*
X119750057Y-80607142D01*
X119750057Y-80607142D02*
X119845295Y-80654761D01*
X119845295Y-80654761D02*
X120083390Y-80654761D01*
X120083390Y-80654761D02*
X120178628Y-80607142D01*
X120178628Y-80607142D02*
X120226247Y-80559523D01*
X120226247Y-80559523D02*
X120273866Y-80464285D01*
X120273866Y-80464285D02*
X120273866Y-80273809D01*
X120273866Y-80273809D02*
X120226247Y-80178571D01*
X120226247Y-80178571D02*
X120178628Y-80130952D01*
X120178628Y-80130952D02*
X120083390Y-80083333D01*
X110539580Y-97916666D02*
X110587200Y-97964285D01*
X110587200Y-97964285D02*
X110634819Y-98107142D01*
X110634819Y-98107142D02*
X110634819Y-98202380D01*
X110634819Y-98202380D02*
X110587200Y-98345237D01*
X110587200Y-98345237D02*
X110491961Y-98440475D01*
X110491961Y-98440475D02*
X110396723Y-98488094D01*
X110396723Y-98488094D02*
X110206247Y-98535713D01*
X110206247Y-98535713D02*
X110063390Y-98535713D01*
X110063390Y-98535713D02*
X109872914Y-98488094D01*
X109872914Y-98488094D02*
X109777676Y-98440475D01*
X109777676Y-98440475D02*
X109682438Y-98345237D01*
X109682438Y-98345237D02*
X109634819Y-98202380D01*
X109634819Y-98202380D02*
X109634819Y-98107142D01*
X109634819Y-98107142D02*
X109682438Y-97964285D01*
X109682438Y-97964285D02*
X109730057Y-97916666D01*
X109634819Y-97583332D02*
X109634819Y-96916666D01*
X109634819Y-96916666D02*
X110634819Y-97345237D01*
X124539580Y-101166666D02*
X124587200Y-101214285D01*
X124587200Y-101214285D02*
X124634819Y-101357142D01*
X124634819Y-101357142D02*
X124634819Y-101452380D01*
X124634819Y-101452380D02*
X124587200Y-101595237D01*
X124587200Y-101595237D02*
X124491961Y-101690475D01*
X124491961Y-101690475D02*
X124396723Y-101738094D01*
X124396723Y-101738094D02*
X124206247Y-101785713D01*
X124206247Y-101785713D02*
X124063390Y-101785713D01*
X124063390Y-101785713D02*
X123872914Y-101738094D01*
X123872914Y-101738094D02*
X123777676Y-101690475D01*
X123777676Y-101690475D02*
X123682438Y-101595237D01*
X123682438Y-101595237D02*
X123634819Y-101452380D01*
X123634819Y-101452380D02*
X123634819Y-101357142D01*
X123634819Y-101357142D02*
X123682438Y-101214285D01*
X123682438Y-101214285D02*
X123730057Y-101166666D01*
X124063390Y-100595237D02*
X124015771Y-100690475D01*
X124015771Y-100690475D02*
X123968152Y-100738094D01*
X123968152Y-100738094D02*
X123872914Y-100785713D01*
X123872914Y-100785713D02*
X123825295Y-100785713D01*
X123825295Y-100785713D02*
X123730057Y-100738094D01*
X123730057Y-100738094D02*
X123682438Y-100690475D01*
X123682438Y-100690475D02*
X123634819Y-100595237D01*
X123634819Y-100595237D02*
X123634819Y-100404761D01*
X123634819Y-100404761D02*
X123682438Y-100309523D01*
X123682438Y-100309523D02*
X123730057Y-100261904D01*
X123730057Y-100261904D02*
X123825295Y-100214285D01*
X123825295Y-100214285D02*
X123872914Y-100214285D01*
X123872914Y-100214285D02*
X123968152Y-100261904D01*
X123968152Y-100261904D02*
X124015771Y-100309523D01*
X124015771Y-100309523D02*
X124063390Y-100404761D01*
X124063390Y-100404761D02*
X124063390Y-100595237D01*
X124063390Y-100595237D02*
X124111009Y-100690475D01*
X124111009Y-100690475D02*
X124158628Y-100738094D01*
X124158628Y-100738094D02*
X124253866Y-100785713D01*
X124253866Y-100785713D02*
X124444342Y-100785713D01*
X124444342Y-100785713D02*
X124539580Y-100738094D01*
X124539580Y-100738094D02*
X124587200Y-100690475D01*
X124587200Y-100690475D02*
X124634819Y-100595237D01*
X124634819Y-100595237D02*
X124634819Y-100404761D01*
X124634819Y-100404761D02*
X124587200Y-100309523D01*
X124587200Y-100309523D02*
X124539580Y-100261904D01*
X124539580Y-100261904D02*
X124444342Y-100214285D01*
X124444342Y-100214285D02*
X124253866Y-100214285D01*
X124253866Y-100214285D02*
X124158628Y-100261904D01*
X124158628Y-100261904D02*
X124111009Y-100309523D01*
X124111009Y-100309523D02*
X124063390Y-100404761D01*
X131634819Y-84642857D02*
X131158628Y-84976190D01*
X131634819Y-85214285D02*
X130634819Y-85214285D01*
X130634819Y-85214285D02*
X130634819Y-84833333D01*
X130634819Y-84833333D02*
X130682438Y-84738095D01*
X130682438Y-84738095D02*
X130730057Y-84690476D01*
X130730057Y-84690476D02*
X130825295Y-84642857D01*
X130825295Y-84642857D02*
X130968152Y-84642857D01*
X130968152Y-84642857D02*
X131063390Y-84690476D01*
X131063390Y-84690476D02*
X131111009Y-84738095D01*
X131111009Y-84738095D02*
X131158628Y-84833333D01*
X131158628Y-84833333D02*
X131158628Y-85214285D01*
X131634819Y-83690476D02*
X131634819Y-84261904D01*
X131634819Y-83976190D02*
X130634819Y-83976190D01*
X130634819Y-83976190D02*
X130777676Y-84071428D01*
X130777676Y-84071428D02*
X130872914Y-84166666D01*
X130872914Y-84166666D02*
X130920533Y-84261904D01*
X131063390Y-83119047D02*
X131015771Y-83214285D01*
X131015771Y-83214285D02*
X130968152Y-83261904D01*
X130968152Y-83261904D02*
X130872914Y-83309523D01*
X130872914Y-83309523D02*
X130825295Y-83309523D01*
X130825295Y-83309523D02*
X130730057Y-83261904D01*
X130730057Y-83261904D02*
X130682438Y-83214285D01*
X130682438Y-83214285D02*
X130634819Y-83119047D01*
X130634819Y-83119047D02*
X130634819Y-82928571D01*
X130634819Y-82928571D02*
X130682438Y-82833333D01*
X130682438Y-82833333D02*
X130730057Y-82785714D01*
X130730057Y-82785714D02*
X130825295Y-82738095D01*
X130825295Y-82738095D02*
X130872914Y-82738095D01*
X130872914Y-82738095D02*
X130968152Y-82785714D01*
X130968152Y-82785714D02*
X131015771Y-82833333D01*
X131015771Y-82833333D02*
X131063390Y-82928571D01*
X131063390Y-82928571D02*
X131063390Y-83119047D01*
X131063390Y-83119047D02*
X131111009Y-83214285D01*
X131111009Y-83214285D02*
X131158628Y-83261904D01*
X131158628Y-83261904D02*
X131253866Y-83309523D01*
X131253866Y-83309523D02*
X131444342Y-83309523D01*
X131444342Y-83309523D02*
X131539580Y-83261904D01*
X131539580Y-83261904D02*
X131587200Y-83214285D01*
X131587200Y-83214285D02*
X131634819Y-83119047D01*
X131634819Y-83119047D02*
X131634819Y-82928571D01*
X131634819Y-82928571D02*
X131587200Y-82833333D01*
X131587200Y-82833333D02*
X131539580Y-82785714D01*
X131539580Y-82785714D02*
X131444342Y-82738095D01*
X131444342Y-82738095D02*
X131253866Y-82738095D01*
X131253866Y-82738095D02*
X131158628Y-82785714D01*
X131158628Y-82785714D02*
X131111009Y-82833333D01*
X131111009Y-82833333D02*
X131063390Y-82928571D01*
X131634819Y-81642857D02*
X131158628Y-81976190D01*
X131634819Y-82214285D02*
X130634819Y-82214285D01*
X130634819Y-82214285D02*
X130634819Y-81833333D01*
X130634819Y-81833333D02*
X130682438Y-81738095D01*
X130682438Y-81738095D02*
X130730057Y-81690476D01*
X130730057Y-81690476D02*
X130825295Y-81642857D01*
X130825295Y-81642857D02*
X130968152Y-81642857D01*
X130968152Y-81642857D02*
X131063390Y-81690476D01*
X131063390Y-81690476D02*
X131111009Y-81738095D01*
X131111009Y-81738095D02*
X131158628Y-81833333D01*
X131158628Y-81833333D02*
X131158628Y-82214285D01*
X131634819Y-80690476D02*
X131634819Y-81261904D01*
X131634819Y-80976190D02*
X130634819Y-80976190D01*
X130634819Y-80976190D02*
X130777676Y-81071428D01*
X130777676Y-81071428D02*
X130872914Y-81166666D01*
X130872914Y-81166666D02*
X130920533Y-81261904D01*
X131634819Y-80214285D02*
X131634819Y-80023809D01*
X131634819Y-80023809D02*
X131587200Y-79928571D01*
X131587200Y-79928571D02*
X131539580Y-79880952D01*
X131539580Y-79880952D02*
X131396723Y-79785714D01*
X131396723Y-79785714D02*
X131206247Y-79738095D01*
X131206247Y-79738095D02*
X130825295Y-79738095D01*
X130825295Y-79738095D02*
X130730057Y-79785714D01*
X130730057Y-79785714D02*
X130682438Y-79833333D01*
X130682438Y-79833333D02*
X130634819Y-79928571D01*
X130634819Y-79928571D02*
X130634819Y-80119047D01*
X130634819Y-80119047D02*
X130682438Y-80214285D01*
X130682438Y-80214285D02*
X130730057Y-80261904D01*
X130730057Y-80261904D02*
X130825295Y-80309523D01*
X130825295Y-80309523D02*
X131063390Y-80309523D01*
X131063390Y-80309523D02*
X131158628Y-80261904D01*
X131158628Y-80261904D02*
X131206247Y-80214285D01*
X131206247Y-80214285D02*
X131253866Y-80119047D01*
X131253866Y-80119047D02*
X131253866Y-79928571D01*
X131253866Y-79928571D02*
X131206247Y-79833333D01*
X131206247Y-79833333D02*
X131158628Y-79785714D01*
X131158628Y-79785714D02*
X131063390Y-79738095D01*
X110029819Y-81108333D02*
X110744104Y-81108333D01*
X110744104Y-81108333D02*
X110886961Y-81155952D01*
X110886961Y-81155952D02*
X110982200Y-81251190D01*
X110982200Y-81251190D02*
X111029819Y-81394047D01*
X111029819Y-81394047D02*
X111029819Y-81489285D01*
X110029819Y-80155952D02*
X110029819Y-80632142D01*
X110029819Y-80632142D02*
X110506009Y-80679761D01*
X110506009Y-80679761D02*
X110458390Y-80632142D01*
X110458390Y-80632142D02*
X110410771Y-80536904D01*
X110410771Y-80536904D02*
X110410771Y-80298809D01*
X110410771Y-80298809D02*
X110458390Y-80203571D01*
X110458390Y-80203571D02*
X110506009Y-80155952D01*
X110506009Y-80155952D02*
X110601247Y-80108333D01*
X110601247Y-80108333D02*
X110839342Y-80108333D01*
X110839342Y-80108333D02*
X110934580Y-80155952D01*
X110934580Y-80155952D02*
X110982200Y-80203571D01*
X110982200Y-80203571D02*
X111029819Y-80298809D01*
X111029819Y-80298809D02*
X111029819Y-80536904D01*
X111029819Y-80536904D02*
X110982200Y-80632142D01*
X110982200Y-80632142D02*
X110934580Y-80679761D01*
X148357142Y-100024819D02*
X148023809Y-99548628D01*
X147785714Y-100024819D02*
X147785714Y-99024819D01*
X147785714Y-99024819D02*
X148166666Y-99024819D01*
X148166666Y-99024819D02*
X148261904Y-99072438D01*
X148261904Y-99072438D02*
X148309523Y-99120057D01*
X148309523Y-99120057D02*
X148357142Y-99215295D01*
X148357142Y-99215295D02*
X148357142Y-99358152D01*
X148357142Y-99358152D02*
X148309523Y-99453390D01*
X148309523Y-99453390D02*
X148261904Y-99501009D01*
X148261904Y-99501009D02*
X148166666Y-99548628D01*
X148166666Y-99548628D02*
X147785714Y-99548628D01*
X149309523Y-100024819D02*
X148738095Y-100024819D01*
X149023809Y-100024819D02*
X149023809Y-99024819D01*
X149023809Y-99024819D02*
X148928571Y-99167676D01*
X148928571Y-99167676D02*
X148833333Y-99262914D01*
X148833333Y-99262914D02*
X148738095Y-99310533D01*
X149928571Y-99024819D02*
X150023809Y-99024819D01*
X150023809Y-99024819D02*
X150119047Y-99072438D01*
X150119047Y-99072438D02*
X150166666Y-99120057D01*
X150166666Y-99120057D02*
X150214285Y-99215295D01*
X150214285Y-99215295D02*
X150261904Y-99405771D01*
X150261904Y-99405771D02*
X150261904Y-99643866D01*
X150261904Y-99643866D02*
X150214285Y-99834342D01*
X150214285Y-99834342D02*
X150166666Y-99929580D01*
X150166666Y-99929580D02*
X150119047Y-99977200D01*
X150119047Y-99977200D02*
X150023809Y-100024819D01*
X150023809Y-100024819D02*
X149928571Y-100024819D01*
X149928571Y-100024819D02*
X149833333Y-99977200D01*
X149833333Y-99977200D02*
X149785714Y-99929580D01*
X149785714Y-99929580D02*
X149738095Y-99834342D01*
X149738095Y-99834342D02*
X149690476Y-99643866D01*
X149690476Y-99643866D02*
X149690476Y-99405771D01*
X149690476Y-99405771D02*
X149738095Y-99215295D01*
X149738095Y-99215295D02*
X149785714Y-99120057D01*
X149785714Y-99120057D02*
X149833333Y-99072438D01*
X149833333Y-99072438D02*
X149928571Y-99024819D01*
X112274819Y-90916666D02*
X111798628Y-91249999D01*
X112274819Y-91488094D02*
X111274819Y-91488094D01*
X111274819Y-91488094D02*
X111274819Y-91107142D01*
X111274819Y-91107142D02*
X111322438Y-91011904D01*
X111322438Y-91011904D02*
X111370057Y-90964285D01*
X111370057Y-90964285D02*
X111465295Y-90916666D01*
X111465295Y-90916666D02*
X111608152Y-90916666D01*
X111608152Y-90916666D02*
X111703390Y-90964285D01*
X111703390Y-90964285D02*
X111751009Y-91011904D01*
X111751009Y-91011904D02*
X111798628Y-91107142D01*
X111798628Y-91107142D02*
X111798628Y-91488094D01*
X111274819Y-90011904D02*
X111274819Y-90488094D01*
X111274819Y-90488094D02*
X111751009Y-90535713D01*
X111751009Y-90535713D02*
X111703390Y-90488094D01*
X111703390Y-90488094D02*
X111655771Y-90392856D01*
X111655771Y-90392856D02*
X111655771Y-90154761D01*
X111655771Y-90154761D02*
X111703390Y-90059523D01*
X111703390Y-90059523D02*
X111751009Y-90011904D01*
X111751009Y-90011904D02*
X111846247Y-89964285D01*
X111846247Y-89964285D02*
X112084342Y-89964285D01*
X112084342Y-89964285D02*
X112179580Y-90011904D01*
X112179580Y-90011904D02*
X112227200Y-90059523D01*
X112227200Y-90059523D02*
X112274819Y-90154761D01*
X112274819Y-90154761D02*
X112274819Y-90392856D01*
X112274819Y-90392856D02*
X112227200Y-90488094D01*
X112227200Y-90488094D02*
X112179580Y-90535713D01*
X121679580Y-97916666D02*
X121727200Y-97964285D01*
X121727200Y-97964285D02*
X121774819Y-98107142D01*
X121774819Y-98107142D02*
X121774819Y-98202380D01*
X121774819Y-98202380D02*
X121727200Y-98345237D01*
X121727200Y-98345237D02*
X121631961Y-98440475D01*
X121631961Y-98440475D02*
X121536723Y-98488094D01*
X121536723Y-98488094D02*
X121346247Y-98535713D01*
X121346247Y-98535713D02*
X121203390Y-98535713D01*
X121203390Y-98535713D02*
X121012914Y-98488094D01*
X121012914Y-98488094D02*
X120917676Y-98440475D01*
X120917676Y-98440475D02*
X120822438Y-98345237D01*
X120822438Y-98345237D02*
X120774819Y-98202380D01*
X120774819Y-98202380D02*
X120774819Y-98107142D01*
X120774819Y-98107142D02*
X120822438Y-97964285D01*
X120822438Y-97964285D02*
X120870057Y-97916666D01*
X121774819Y-97440475D02*
X121774819Y-97249999D01*
X121774819Y-97249999D02*
X121727200Y-97154761D01*
X121727200Y-97154761D02*
X121679580Y-97107142D01*
X121679580Y-97107142D02*
X121536723Y-97011904D01*
X121536723Y-97011904D02*
X121346247Y-96964285D01*
X121346247Y-96964285D02*
X120965295Y-96964285D01*
X120965295Y-96964285D02*
X120870057Y-97011904D01*
X120870057Y-97011904D02*
X120822438Y-97059523D01*
X120822438Y-97059523D02*
X120774819Y-97154761D01*
X120774819Y-97154761D02*
X120774819Y-97345237D01*
X120774819Y-97345237D02*
X120822438Y-97440475D01*
X120822438Y-97440475D02*
X120870057Y-97488094D01*
X120870057Y-97488094D02*
X120965295Y-97535713D01*
X120965295Y-97535713D02*
X121203390Y-97535713D01*
X121203390Y-97535713D02*
X121298628Y-97488094D01*
X121298628Y-97488094D02*
X121346247Y-97440475D01*
X121346247Y-97440475D02*
X121393866Y-97345237D01*
X121393866Y-97345237D02*
X121393866Y-97154761D01*
X121393866Y-97154761D02*
X121346247Y-97059523D01*
X121346247Y-97059523D02*
X121298628Y-97011904D01*
X121298628Y-97011904D02*
X121203390Y-96964285D01*
X103524819Y-101738094D02*
X102524819Y-101738094D01*
X102524819Y-101738094D02*
X102524819Y-101499999D01*
X102524819Y-101499999D02*
X102572438Y-101357142D01*
X102572438Y-101357142D02*
X102667676Y-101261904D01*
X102667676Y-101261904D02*
X102762914Y-101214285D01*
X102762914Y-101214285D02*
X102953390Y-101166666D01*
X102953390Y-101166666D02*
X103096247Y-101166666D01*
X103096247Y-101166666D02*
X103286723Y-101214285D01*
X103286723Y-101214285D02*
X103381961Y-101261904D01*
X103381961Y-101261904D02*
X103477200Y-101357142D01*
X103477200Y-101357142D02*
X103524819Y-101499999D01*
X103524819Y-101499999D02*
X103524819Y-101738094D01*
X103524819Y-100214285D02*
X103524819Y-100785713D01*
X103524819Y-100499999D02*
X102524819Y-100499999D01*
X102524819Y-100499999D02*
X102667676Y-100595237D01*
X102667676Y-100595237D02*
X102762914Y-100690475D01*
X102762914Y-100690475D02*
X102810533Y-100785713D01*
X129850000Y-72531009D02*
X130183333Y-72531009D01*
X130326190Y-73054819D02*
X129850000Y-73054819D01*
X129850000Y-73054819D02*
X129850000Y-72054819D01*
X129850000Y-72054819D02*
X130326190Y-72054819D01*
X130754762Y-73054819D02*
X130754762Y-72054819D01*
X130754762Y-72054819D02*
X131326190Y-73054819D01*
X131326190Y-73054819D02*
X131326190Y-72054819D01*
X131754762Y-72769104D02*
X132230952Y-72769104D01*
X131659524Y-73054819D02*
X131992857Y-72054819D01*
X131992857Y-72054819D02*
X132326190Y-73054819D01*
X132992857Y-72531009D02*
X133135714Y-72578628D01*
X133135714Y-72578628D02*
X133183333Y-72626247D01*
X133183333Y-72626247D02*
X133230952Y-72721485D01*
X133230952Y-72721485D02*
X133230952Y-72864342D01*
X133230952Y-72864342D02*
X133183333Y-72959580D01*
X133183333Y-72959580D02*
X133135714Y-73007200D01*
X133135714Y-73007200D02*
X133040476Y-73054819D01*
X133040476Y-73054819D02*
X132659524Y-73054819D01*
X132659524Y-73054819D02*
X132659524Y-72054819D01*
X132659524Y-72054819D02*
X132992857Y-72054819D01*
X132992857Y-72054819D02*
X133088095Y-72102438D01*
X133088095Y-72102438D02*
X133135714Y-72150057D01*
X133135714Y-72150057D02*
X133183333Y-72245295D01*
X133183333Y-72245295D02*
X133183333Y-72340533D01*
X133183333Y-72340533D02*
X133135714Y-72435771D01*
X133135714Y-72435771D02*
X133088095Y-72483390D01*
X133088095Y-72483390D02*
X132992857Y-72531009D01*
X132992857Y-72531009D02*
X132659524Y-72531009D01*
X134135714Y-73054819D02*
X133659524Y-73054819D01*
X133659524Y-73054819D02*
X133659524Y-72054819D01*
X134469048Y-72531009D02*
X134802381Y-72531009D01*
X134945238Y-73054819D02*
X134469048Y-73054819D01*
X134469048Y-73054819D02*
X134469048Y-72054819D01*
X134469048Y-72054819D02*
X134945238Y-72054819D01*
X135897619Y-73054819D02*
X135326191Y-73054819D01*
X135611905Y-73054819D02*
X135611905Y-72054819D01*
X135611905Y-72054819D02*
X135516667Y-72197676D01*
X135516667Y-72197676D02*
X135421429Y-72292914D01*
X135421429Y-72292914D02*
X135326191Y-72340533D01*
X101654819Y-84333333D02*
X102369104Y-84333333D01*
X102369104Y-84333333D02*
X102511961Y-84380952D01*
X102511961Y-84380952D02*
X102607200Y-84476190D01*
X102607200Y-84476190D02*
X102654819Y-84619047D01*
X102654819Y-84619047D02*
X102654819Y-84714285D01*
X101654819Y-83428571D02*
X101654819Y-83619047D01*
X101654819Y-83619047D02*
X101702438Y-83714285D01*
X101702438Y-83714285D02*
X101750057Y-83761904D01*
X101750057Y-83761904D02*
X101892914Y-83857142D01*
X101892914Y-83857142D02*
X102083390Y-83904761D01*
X102083390Y-83904761D02*
X102464342Y-83904761D01*
X102464342Y-83904761D02*
X102559580Y-83857142D01*
X102559580Y-83857142D02*
X102607200Y-83809523D01*
X102607200Y-83809523D02*
X102654819Y-83714285D01*
X102654819Y-83714285D02*
X102654819Y-83523809D01*
X102654819Y-83523809D02*
X102607200Y-83428571D01*
X102607200Y-83428571D02*
X102559580Y-83380952D01*
X102559580Y-83380952D02*
X102464342Y-83333333D01*
X102464342Y-83333333D02*
X102226247Y-83333333D01*
X102226247Y-83333333D02*
X102131009Y-83380952D01*
X102131009Y-83380952D02*
X102083390Y-83428571D01*
X102083390Y-83428571D02*
X102035771Y-83523809D01*
X102035771Y-83523809D02*
X102035771Y-83714285D01*
X102035771Y-83714285D02*
X102083390Y-83809523D01*
X102083390Y-83809523D02*
X102131009Y-83857142D01*
X102131009Y-83857142D02*
X102226247Y-83904761D01*
X124134819Y-93392857D02*
X123658628Y-93726190D01*
X124134819Y-93964285D02*
X123134819Y-93964285D01*
X123134819Y-93964285D02*
X123134819Y-93583333D01*
X123134819Y-93583333D02*
X123182438Y-93488095D01*
X123182438Y-93488095D02*
X123230057Y-93440476D01*
X123230057Y-93440476D02*
X123325295Y-93392857D01*
X123325295Y-93392857D02*
X123468152Y-93392857D01*
X123468152Y-93392857D02*
X123563390Y-93440476D01*
X123563390Y-93440476D02*
X123611009Y-93488095D01*
X123611009Y-93488095D02*
X123658628Y-93583333D01*
X123658628Y-93583333D02*
X123658628Y-93964285D01*
X124134819Y-92440476D02*
X124134819Y-93011904D01*
X124134819Y-92726190D02*
X123134819Y-92726190D01*
X123134819Y-92726190D02*
X123277676Y-92821428D01*
X123277676Y-92821428D02*
X123372914Y-92916666D01*
X123372914Y-92916666D02*
X123420533Y-93011904D01*
X123134819Y-92107142D02*
X123134819Y-91440476D01*
X123134819Y-91440476D02*
X124134819Y-91869047D01*
X120634819Y-85142857D02*
X120158628Y-85476190D01*
X120634819Y-85714285D02*
X119634819Y-85714285D01*
X119634819Y-85714285D02*
X119634819Y-85333333D01*
X119634819Y-85333333D02*
X119682438Y-85238095D01*
X119682438Y-85238095D02*
X119730057Y-85190476D01*
X119730057Y-85190476D02*
X119825295Y-85142857D01*
X119825295Y-85142857D02*
X119968152Y-85142857D01*
X119968152Y-85142857D02*
X120063390Y-85190476D01*
X120063390Y-85190476D02*
X120111009Y-85238095D01*
X120111009Y-85238095D02*
X120158628Y-85333333D01*
X120158628Y-85333333D02*
X120158628Y-85714285D01*
X120634819Y-84190476D02*
X120634819Y-84761904D01*
X120634819Y-84476190D02*
X119634819Y-84476190D01*
X119634819Y-84476190D02*
X119777676Y-84571428D01*
X119777676Y-84571428D02*
X119872914Y-84666666D01*
X119872914Y-84666666D02*
X119920533Y-84761904D01*
X119634819Y-83857142D02*
X119634819Y-83238095D01*
X119634819Y-83238095D02*
X120015771Y-83571428D01*
X120015771Y-83571428D02*
X120015771Y-83428571D01*
X120015771Y-83428571D02*
X120063390Y-83333333D01*
X120063390Y-83333333D02*
X120111009Y-83285714D01*
X120111009Y-83285714D02*
X120206247Y-83238095D01*
X120206247Y-83238095D02*
X120444342Y-83238095D01*
X120444342Y-83238095D02*
X120539580Y-83285714D01*
X120539580Y-83285714D02*
X120587200Y-83333333D01*
X120587200Y-83333333D02*
X120634819Y-83428571D01*
X120634819Y-83428571D02*
X120634819Y-83714285D01*
X120634819Y-83714285D02*
X120587200Y-83809523D01*
X120587200Y-83809523D02*
X120539580Y-83857142D01*
%TO.C,Q1*%
D13*
X116990000Y-87690000D02*
X118510000Y-87690000D01*
X116990000Y-88690000D02*
X116990000Y-87690000D01*
X116990000Y-90810000D02*
X116990000Y-89810000D01*
X118510000Y-87690000D02*
X118510000Y-87740000D01*
X118510000Y-88860000D02*
X118510000Y-89640000D01*
X118510000Y-90760000D02*
X118510000Y-90810000D01*
X118510000Y-90810000D02*
X116990000Y-90810000D01*
X119050000Y-89630000D02*
X118810000Y-89300000D01*
X119290000Y-89300000D01*
X119050000Y-89630000D01*
G36*
X119050000Y-89630000D02*
G01*
X118810000Y-89300000D01*
X119290000Y-89300000D01*
X119050000Y-89630000D01*
G37*
%TO.C,C14*%
X137640580Y-83740000D02*
X137359420Y-83740000D01*
X137640580Y-84760000D02*
X137359420Y-84760000D01*
%TO.C,C4*%
X108240000Y-90890580D02*
X108240000Y-90609420D01*
X109260000Y-90890580D02*
X109260000Y-90609420D01*
%TO.C,D3*%
X134765000Y-96265000D02*
X134765000Y-98550000D01*
X136235000Y-96265000D02*
X134765000Y-96265000D01*
X136235000Y-98550000D02*
X136235000Y-96265000D01*
%TO.C,R16*%
X134977500Y-101237258D02*
X134977500Y-100762742D01*
X136022500Y-101237258D02*
X136022500Y-100762742D01*
%TO.C,C2*%
X94740000Y-91859420D02*
X94740000Y-92140580D01*
X95760000Y-91859420D02*
X95760000Y-92140580D01*
%TO.C,R11*%
X148762742Y-95727500D02*
X149237258Y-95727500D01*
X148762742Y-96772500D02*
X149237258Y-96772500D01*
%TO.C,C3*%
X108240000Y-93859420D02*
X108240000Y-94140580D01*
X109260000Y-93859420D02*
X109260000Y-94140580D01*
%TO.C,R7*%
X112727500Y-101012742D02*
X112727500Y-101487258D01*
X113772500Y-101012742D02*
X113772500Y-101487258D01*
%TO.C,C5*%
X116990000Y-94140580D02*
X116990000Y-93859420D01*
X118010000Y-94140580D02*
X118010000Y-93859420D01*
%TO.C,U2*%
D12*
X116650000Y-97075000D02*
X117250000Y-97075000D01*
X119950000Y-97075000D02*
X119350000Y-97075000D01*
X119950000Y-101500000D02*
X116650000Y-101500000D01*
D10*
X115950000Y-97975000D02*
G75*
G02*
X115650000Y-97975000I-150000J0D01*
G01*
X115650000Y-97975000D02*
G75*
G02*
X115950000Y-97975000I150000J0D01*
G01*
%TO.C,J8*%
D13*
X156120000Y-87240000D02*
X156120000Y-79510000D01*
X158880000Y-79510000D02*
X156120000Y-79510000D01*
X158880000Y-87240000D02*
X156120000Y-87240000D01*
X158880000Y-87240000D02*
X158880000Y-79510000D01*
X158880000Y-88510000D02*
X158880000Y-89890000D01*
X158880000Y-89890000D02*
X157500000Y-89890000D01*
%TO.C,C13*%
X137640580Y-79740000D02*
X137359420Y-79740000D01*
X137640580Y-80760000D02*
X137359420Y-80760000D01*
%TO.C,C12*%
X152490000Y-75140580D02*
X152490000Y-74859420D01*
X153510000Y-75140580D02*
X153510000Y-74859420D01*
%TO.C,R3*%
X99227500Y-91762742D02*
X99227500Y-92237258D01*
X100272500Y-91762742D02*
X100272500Y-92237258D01*
%TO.C,R1*%
X118227500Y-77512742D02*
X118227500Y-77987258D01*
X119272500Y-77512742D02*
X119272500Y-77987258D01*
%TO.C,R8*%
X126477500Y-101237258D02*
X126477500Y-100762742D01*
X127522500Y-101237258D02*
X127522500Y-100762742D01*
%TO.C,R20*%
X147977500Y-75237258D02*
X147977500Y-74762742D01*
X149022500Y-75237258D02*
X149022500Y-74762742D01*
%TO.C,R6*%
X112727500Y-97262742D02*
X112727500Y-97737258D01*
X113772500Y-97262742D02*
X113772500Y-97737258D01*
%TO.C,BOOT1*%
X131900000Y-92100000D02*
X131900000Y-90100000D01*
X132950000Y-88800000D02*
X133400000Y-88350000D01*
X132950000Y-93400000D02*
X133400000Y-93850000D01*
X135900000Y-88350000D02*
X133400000Y-88350000D01*
X135900000Y-93850000D02*
X133400000Y-93850000D01*
X136350000Y-88800000D02*
X135900000Y-88350000D01*
X136350000Y-93400000D02*
X135900000Y-93850000D01*
X137400000Y-92100000D02*
X137400000Y-90100000D01*
%TO.C,C6*%
X108240000Y-100859420D02*
X108240000Y-101140580D01*
X109260000Y-100859420D02*
X109260000Y-101140580D01*
%TO.C,Q2*%
X143177500Y-73240000D02*
X144697500Y-73240000D01*
X143177500Y-74240000D02*
X143177500Y-73240000D01*
X143177500Y-76360000D02*
X143177500Y-75360000D01*
X144697500Y-73240000D02*
X144697500Y-73290000D01*
X144697500Y-74410000D02*
X144697500Y-75190000D01*
X144697500Y-76310000D02*
X144697500Y-76360000D01*
X144697500Y-76360000D02*
X143177500Y-76360000D01*
X145237500Y-75180000D02*
X144997500Y-74850000D01*
X145477500Y-74850000D01*
X145237500Y-75180000D01*
G36*
X145237500Y-75180000D02*
G01*
X144997500Y-74850000D01*
X145477500Y-74850000D01*
X145237500Y-75180000D01*
G37*
%TO.C,R12*%
X138977500Y-75237258D02*
X138977500Y-74762742D01*
X140022500Y-75237258D02*
X140022500Y-74762742D01*
%TO.C,R2*%
X99227500Y-88262742D02*
X99227500Y-88737258D01*
X100272500Y-88262742D02*
X100272500Y-88737258D01*
%TO.C,J7*%
X94290000Y-77240000D02*
X94290000Y-85960000D01*
X95590000Y-75540000D02*
X94290000Y-77240000D01*
X98410000Y-75540000D02*
X95590000Y-75540000D01*
X98410000Y-75540000D02*
X99710000Y-77240000D01*
X99710000Y-77240000D02*
X99710000Y-85960000D01*
X99710000Y-85960000D02*
X94290000Y-85960000D01*
%TO.C,J1*%
X94000000Y-101100000D02*
X94000000Y-102350000D01*
X94000000Y-102350000D02*
X95250000Y-102350000D01*
X96550000Y-94450000D02*
X96550000Y-95200000D01*
X96550000Y-95200000D02*
X99500000Y-95200000D01*
X96550000Y-101300000D02*
X99500000Y-101300000D01*
X96550000Y-102050000D02*
X96550000Y-101300000D01*
X99500000Y-95200000D02*
X99500000Y-98250000D01*
X99500000Y-101300000D02*
X99500000Y-98250000D01*
X94290000Y-94440000D02*
X100260000Y-94440000D01*
X100260000Y-102060000D01*
X94290000Y-102060000D01*
X94290000Y-94440000D01*
X94300000Y-94450000D02*
X95050000Y-94450000D01*
X95050000Y-96250000D01*
X94300000Y-96250000D01*
X94300000Y-94450000D01*
X94300000Y-97750000D02*
X95050000Y-97750000D01*
X95050000Y-98750000D01*
X94300000Y-98750000D01*
X94300000Y-97750000D01*
X94300000Y-100250000D02*
X95050000Y-100250000D01*
X95050000Y-102050000D01*
X94300000Y-102050000D01*
X94300000Y-100250000D01*
%TO.C,C10*%
X130740000Y-101140580D02*
X130740000Y-100859420D01*
X131760000Y-101140580D02*
X131760000Y-100859420D01*
%TO.C,LS1*%
D14*
X101025000Y-74750000D02*
X102025000Y-74750000D01*
X103375000Y-78200000D02*
X103375000Y-75920000D01*
X104175000Y-79000000D02*
X103375000Y-78200000D01*
X106555000Y-74000000D02*
X105195000Y-74000000D01*
X106555000Y-79000000D02*
X104175000Y-79000000D01*
X108375000Y-77080000D02*
X108375000Y-75920000D01*
X110285000Y-74260000D02*
X110285000Y-75260000D01*
X110785000Y-74760000D02*
X109785000Y-74760000D01*
%TO.C,R14*%
D13*
X103977500Y-97987258D02*
X103977500Y-97512742D01*
X105022500Y-97987258D02*
X105022500Y-97512742D01*
%TO.C,R4*%
X112727500Y-94237258D02*
X112727500Y-93762742D01*
X113772500Y-94237258D02*
X113772500Y-93762742D01*
%TO.C,C1*%
X94740000Y-88359420D02*
X94740000Y-88640580D01*
X95760000Y-88359420D02*
X95760000Y-88640580D01*
%TO.C,J3*%
X155325000Y-93400000D02*
X153625000Y-93400000D01*
X155325000Y-102740000D02*
X153625000Y-102740000D01*
%TO.C,R9*%
X126477500Y-97987258D02*
X126477500Y-97512742D01*
X127522500Y-97987258D02*
X127522500Y-97512742D01*
%TO.C,R15*%
X126977500Y-94237258D02*
X126977500Y-93762742D01*
X128022500Y-94237258D02*
X128022500Y-93762742D01*
%TO.C,D2*%
X126765000Y-89265000D02*
X126765000Y-91550000D01*
X128235000Y-89265000D02*
X126765000Y-89265000D01*
X128235000Y-91550000D02*
X128235000Y-89265000D01*
%TO.C,U1*%
D12*
X102900000Y-90075000D02*
X103500000Y-90075000D01*
X106200000Y-90075000D02*
X105600000Y-90075000D01*
X106200000Y-94500000D02*
X102900000Y-94500000D01*
D10*
X102200000Y-90975000D02*
G75*
G02*
X101900000Y-90975000I-150000J0D01*
G01*
X101900000Y-90975000D02*
G75*
G02*
X102200000Y-90975000I150000J0D01*
G01*
%TO.C,J4*%
D13*
X139500000Y-102100000D02*
X139500000Y-103350000D01*
X139500000Y-103350000D02*
X140750000Y-103350000D01*
X142050000Y-92950000D02*
X142050000Y-93700000D01*
X142050000Y-93700000D02*
X145000000Y-93700000D01*
X142050000Y-102300000D02*
X145000000Y-102300000D01*
X142050000Y-103050000D02*
X142050000Y-102300000D01*
X145000000Y-93700000D02*
X145000000Y-98000000D01*
X145000000Y-102300000D02*
X145000000Y-98000000D01*
X139790000Y-92940000D02*
X145760000Y-92940000D01*
X145760000Y-103060000D01*
X139790000Y-103060000D01*
X139790000Y-92940000D01*
X139800000Y-92950000D02*
X140550000Y-92950000D01*
X140550000Y-94750000D01*
X139800000Y-94750000D01*
X139800000Y-92950000D01*
X139800000Y-96250000D02*
X140550000Y-96250000D01*
X140550000Y-99750000D01*
X139800000Y-99750000D01*
X139800000Y-96250000D01*
X139800000Y-101250000D02*
X140550000Y-101250000D01*
X140550000Y-103050000D01*
X139800000Y-103050000D01*
X139800000Y-101250000D01*
%TO.C,J9*%
X121000000Y-86100000D02*
X121000000Y-87350000D01*
X121000000Y-87350000D02*
X122250000Y-87350000D01*
X123550000Y-74450000D02*
X123550000Y-75200000D01*
X123550000Y-75200000D02*
X126500000Y-75200000D01*
X123550000Y-86300000D02*
X126500000Y-86300000D01*
X123550000Y-87050000D02*
X123550000Y-86300000D01*
X126500000Y-75200000D02*
X126500000Y-80750000D01*
X126500000Y-86300000D02*
X126500000Y-80750000D01*
X121290000Y-74440000D02*
X127260000Y-74440000D01*
X127260000Y-87060000D01*
X121290000Y-87060000D01*
X121290000Y-74440000D01*
X121300000Y-74450000D02*
X122050000Y-74450000D01*
X122050000Y-76250000D01*
X121300000Y-76250000D01*
X121300000Y-74450000D01*
X121300000Y-77750000D02*
X122050000Y-77750000D01*
X122050000Y-83750000D01*
X121300000Y-83750000D01*
X121300000Y-77750000D01*
X121300000Y-85250000D02*
X122050000Y-85250000D01*
X122050000Y-87050000D01*
X121300000Y-87050000D01*
X121300000Y-85250000D01*
%TO.C,C7*%
X108240000Y-97609420D02*
X108240000Y-97890580D01*
X109260000Y-97609420D02*
X109260000Y-97890580D01*
%TO.C,C8*%
X122240000Y-100859420D02*
X122240000Y-101140580D01*
X123260000Y-100859420D02*
X123260000Y-101140580D01*
%TO.C,R18*%
X129227500Y-83762742D02*
X129227500Y-84237258D01*
X130272500Y-83762742D02*
X130272500Y-84237258D01*
%TO.C,R19*%
X129227500Y-80762742D02*
X129227500Y-81237258D01*
X130272500Y-80762742D02*
X130272500Y-81237258D01*
%TO.C,J5*%
X111375000Y-86125000D02*
X111375000Y-87375000D01*
X111375000Y-87375000D02*
X112625000Y-87375000D01*
X113925000Y-74475000D02*
X113925000Y-75225000D01*
X113925000Y-75225000D02*
X116875000Y-75225000D01*
X113925000Y-86325000D02*
X116875000Y-86325000D01*
X113925000Y-87075000D02*
X113925000Y-86325000D01*
X116875000Y-75225000D02*
X116875000Y-80775000D01*
X116875000Y-86325000D02*
X116875000Y-80775000D01*
X111665000Y-74465000D02*
X117635000Y-74465000D01*
X117635000Y-87085000D01*
X111665000Y-87085000D01*
X111665000Y-74465000D01*
X111675000Y-74475000D02*
X112425000Y-74475000D01*
X112425000Y-76275000D01*
X111675000Y-76275000D01*
X111675000Y-74475000D01*
X111675000Y-77775000D02*
X112425000Y-77775000D01*
X112425000Y-83775000D01*
X111675000Y-83775000D01*
X111675000Y-77775000D01*
X111675000Y-85275000D02*
X112425000Y-85275000D01*
X112425000Y-87075000D01*
X111675000Y-87075000D01*
X111675000Y-85275000D01*
%TO.C,R10*%
X148762742Y-100477500D02*
X149237258Y-100477500D01*
X148762742Y-101522500D02*
X149237258Y-101522500D01*
%TO.C,U3*%
X139550000Y-76800000D02*
X155150000Y-76800000D01*
X139550000Y-92400000D02*
X139550000Y-76800000D01*
X155150000Y-76800000D02*
X155150000Y-92400000D01*
X155150000Y-92400000D02*
X139550000Y-92400000D01*
X139375000Y-78650000D02*
X139039000Y-78890000D01*
X139039001Y-78410000D01*
X139375000Y-78650000D01*
G36*
X139375000Y-78650000D02*
G01*
X139039000Y-78890000D01*
X139039001Y-78410000D01*
X139375000Y-78650000D01*
G37*
%TO.C,R5*%
X112727500Y-90987258D02*
X112727500Y-90512742D01*
X113772500Y-90987258D02*
X113772500Y-90512742D01*
%TO.C,C9*%
X122240000Y-97890580D02*
X122240000Y-97609420D01*
X123260000Y-97890580D02*
X123260000Y-97609420D01*
%TO.C,D1*%
X103765000Y-100200000D02*
X103765000Y-102485000D01*
X103765000Y-102485000D02*
X105235000Y-102485000D01*
X105235000Y-102485000D02*
X105235000Y-100200000D01*
%TO.C,ENABLE1*%
X130100000Y-75350000D02*
X130100000Y-77350000D01*
X131150000Y-74050000D02*
X131600000Y-73600000D01*
X131150000Y-78650000D02*
X131600000Y-79100000D01*
X131600000Y-73600000D02*
X134100000Y-73600000D01*
X131600000Y-79100000D02*
X134100000Y-79100000D01*
X134550000Y-74050000D02*
X134100000Y-73600000D01*
X134550000Y-78650000D02*
X134100000Y-79100000D01*
X135600000Y-75350000D02*
X135600000Y-77350000D01*
%TO.C,J6*%
X103000000Y-86850000D02*
X103000000Y-88100000D01*
X103000000Y-88100000D02*
X104250000Y-88100000D01*
X105550000Y-80200000D02*
X105550000Y-80950000D01*
X105550000Y-80950000D02*
X108500000Y-80950000D01*
X105550000Y-87050000D02*
X108500000Y-87050000D01*
X105550000Y-87800000D02*
X105550000Y-87050000D01*
X108500000Y-80950000D02*
X108500000Y-84000000D01*
X108500000Y-87050000D02*
X108500000Y-84000000D01*
X103290000Y-80190000D02*
X109260000Y-80190000D01*
X109260000Y-87810000D01*
X103290000Y-87810000D01*
X103290000Y-80190000D01*
X103300000Y-80200000D02*
X104050000Y-80200000D01*
X104050000Y-82000000D01*
X103300000Y-82000000D01*
X103300000Y-80200000D01*
X103300000Y-83500000D02*
X104050000Y-83500000D01*
X104050000Y-84500000D01*
X103300000Y-84500000D01*
X103300000Y-83500000D01*
X103300000Y-86000000D02*
X104050000Y-86000000D01*
X104050000Y-87800000D01*
X103300000Y-87800000D01*
X103300000Y-86000000D01*
%TO.C,R17*%
X121727500Y-92512742D02*
X121727500Y-92987258D01*
X122772500Y-92512742D02*
X122772500Y-92987258D01*
%TO.C,R13*%
X118227500Y-84262742D02*
X118227500Y-84737258D01*
X119272500Y-84262742D02*
X119272500Y-84737258D01*
%TD*%
%LPC*%
D15*
%TO.C,Q1*%
X118687500Y-90200000D03*
X118687500Y-88300000D03*
X116812500Y-89250000D03*
%TD*%
D16*
%TO.C,C14*%
X138275000Y-84250000D03*
X136725000Y-84250000D03*
%TD*%
D17*
%TO.C,H3*%
X156750000Y-74250000D03*
%TD*%
D18*
%TO.C,C4*%
X108750000Y-91525000D03*
X108750000Y-89975000D03*
%TD*%
D19*
%TO.C,D3*%
X135500000Y-96962500D03*
X135500000Y-98537500D03*
%TD*%
D20*
%TO.C,R16*%
X135500000Y-101825000D03*
X135500000Y-100175000D03*
%TD*%
D21*
%TO.C,C2*%
X95250000Y-91225000D03*
X95250000Y-92775000D03*
%TD*%
D22*
%TO.C,R11*%
X148175000Y-96250000D03*
X149825000Y-96250000D03*
%TD*%
D21*
%TO.C,C3*%
X108750000Y-93225000D03*
X108750000Y-94775000D03*
%TD*%
D23*
%TO.C,R7*%
X113250000Y-100425000D03*
X113250000Y-102075000D03*
%TD*%
D18*
%TO.C,C5*%
X117500000Y-94775000D03*
X117500000Y-93225000D03*
%TD*%
D24*
%TO.C,U2*%
X117137500Y-98012500D03*
D25*
X117350000Y-100000000D03*
D26*
X119250000Y-100000000D03*
D27*
X119462500Y-98012500D03*
D28*
X118800000Y-97425000D03*
X118300000Y-97425000D03*
X117800000Y-97425000D03*
%TD*%
D29*
%TO.C,J8*%
X157500000Y-88510000D03*
D30*
X157500000Y-85970000D03*
X157500000Y-83430000D03*
X157500000Y-80890000D03*
%TD*%
D16*
%TO.C,C13*%
X138275000Y-80250000D03*
X136725000Y-80250000D03*
%TD*%
D17*
%TO.C,H2*%
X131000000Y-96750000D03*
%TD*%
D18*
%TO.C,C12*%
X153000000Y-75775000D03*
X153000000Y-74225000D03*
%TD*%
D23*
%TO.C,R3*%
X99750000Y-91175000D03*
X99750000Y-92825000D03*
%TD*%
%TO.C,R1*%
X118750000Y-76925000D03*
X118750000Y-78575000D03*
%TD*%
D20*
%TO.C,R8*%
X127000000Y-101825000D03*
X127000000Y-100175000D03*
%TD*%
%TO.C,R20*%
X148500000Y-75825000D03*
X148500000Y-74175000D03*
%TD*%
D23*
%TO.C,R6*%
X113250000Y-96675000D03*
X113250000Y-98325000D03*
%TD*%
D31*
%TO.C,BOOT1*%
X137800000Y-93000000D03*
X131500000Y-93000000D03*
X137800000Y-89200000D03*
X131500000Y-89200000D03*
%TD*%
D21*
%TO.C,C6*%
X108750000Y-100225000D03*
X108750000Y-101775000D03*
%TD*%
D15*
%TO.C,Q2*%
X144875000Y-75750000D03*
X144875000Y-73850000D03*
X143000000Y-74800000D03*
%TD*%
D20*
%TO.C,R12*%
X139500000Y-75825000D03*
X139500000Y-74175000D03*
%TD*%
D23*
%TO.C,R2*%
X99750000Y-87675000D03*
X99750000Y-89325000D03*
%TD*%
D32*
%TO.C,J7*%
X97000000Y-78250000D03*
D33*
X97000000Y-83250000D03*
%TD*%
D34*
%TO.C,J1*%
X96750000Y-99500000D03*
D35*
X96750000Y-97000000D03*
%TD*%
D18*
%TO.C,C10*%
X131250000Y-101775000D03*
X131250000Y-100225000D03*
%TD*%
D36*
%TO.C,LS1*%
X108000000Y-74750000D03*
X103750000Y-74750000D03*
X108000000Y-78250000D03*
%TD*%
D20*
%TO.C,R14*%
X104500000Y-98575000D03*
X104500000Y-96925000D03*
%TD*%
%TO.C,R4*%
X113250000Y-94825000D03*
X113250000Y-93175000D03*
%TD*%
D21*
%TO.C,C1*%
X95250000Y-87725000D03*
X95250000Y-89275000D03*
%TD*%
D17*
%TO.C,H1*%
X93500000Y-73000000D03*
%TD*%
D37*
%TO.C,J3*%
X152820000Y-100960000D03*
X152820000Y-95180000D03*
D38*
X151622538Y-101269968D03*
D39*
X151622524Y-100470394D03*
D40*
X151745000Y-99320000D03*
X151745000Y-98320000D03*
X151745000Y-97820000D03*
X151745000Y-96820000D03*
D41*
X151622500Y-95670000D03*
D42*
X151622503Y-94870000D03*
D43*
X151622502Y-94870000D03*
D39*
X151622501Y-95670000D03*
D40*
X151745000Y-96320000D03*
X151745000Y-97320000D03*
X151745000Y-98820000D03*
X151745000Y-99820000D03*
D41*
X151622500Y-100470000D03*
D43*
X151622502Y-101269999D03*
D44*
X152320000Y-102390000D03*
D45*
X156500000Y-102390000D03*
D44*
X152320000Y-93750000D03*
D45*
X156500000Y-93750000D03*
%TD*%
D20*
%TO.C,R9*%
X127000000Y-98575000D03*
X127000000Y-96925000D03*
%TD*%
%TO.C,R15*%
X127500000Y-94825000D03*
X127500000Y-93175000D03*
%TD*%
D19*
%TO.C,D2*%
X127500000Y-89962500D03*
X127500000Y-91537500D03*
%TD*%
D24*
%TO.C,U1*%
X103387500Y-91012500D03*
D25*
X103600000Y-93000000D03*
D26*
X105500000Y-93000000D03*
D27*
X105712500Y-91012500D03*
D28*
X105050000Y-90425000D03*
X104550000Y-90425000D03*
X104050000Y-90425000D03*
%TD*%
D46*
%TO.C,J4*%
X142250000Y-100500000D03*
D47*
X142250000Y-98000000D03*
X142250000Y-95500000D03*
%TD*%
D46*
%TO.C,J9*%
X123750000Y-84500000D03*
D47*
X123750000Y-82000000D03*
X123750000Y-79500000D03*
X123750000Y-77000000D03*
%TD*%
D21*
%TO.C,C7*%
X108750000Y-96975000D03*
X108750000Y-98525000D03*
%TD*%
%TO.C,C8*%
X122750000Y-100225000D03*
X122750000Y-101775000D03*
%TD*%
D23*
%TO.C,R18*%
X129750000Y-83175000D03*
X129750000Y-84825000D03*
%TD*%
%TO.C,R19*%
X129750000Y-80175000D03*
X129750000Y-81825000D03*
%TD*%
D46*
%TO.C,J5*%
X114125000Y-84525000D03*
D47*
X114125000Y-82025000D03*
X114125000Y-79525000D03*
X114125000Y-77025000D03*
%TD*%
D22*
%TO.C,R10*%
X148175000Y-101000000D03*
X149825000Y-101000000D03*
%TD*%
D48*
%TO.C,U3*%
X140350000Y-78650000D03*
X140350000Y-79500000D03*
X140350000Y-80350000D03*
X140350000Y-81199999D03*
X140350000Y-82050000D03*
X140350000Y-82900000D03*
X140350000Y-83750000D03*
X140350001Y-84600000D03*
X140350000Y-85450000D03*
X140350000Y-86300000D03*
X140350000Y-87150000D03*
X140350000Y-88000001D03*
X140350000Y-88850000D03*
X140350000Y-89700000D03*
X140350000Y-90550000D03*
D49*
X141400000Y-91600000D03*
X142250000Y-91600000D03*
X143100000Y-91600000D03*
X143949999Y-91600000D03*
X144800000Y-91600000D03*
X145650000Y-91600000D03*
X146500000Y-91600000D03*
X147350000Y-91599999D03*
X148200000Y-91600000D03*
X149050000Y-91600000D03*
X149900000Y-91600000D03*
X150750001Y-91600000D03*
X151600000Y-91600000D03*
X152450000Y-91600000D03*
X153300000Y-91600000D03*
D48*
X154350000Y-90550000D03*
X154350000Y-89700000D03*
X154350000Y-88850000D03*
X154350000Y-88000001D03*
X154350000Y-87150000D03*
X154350000Y-86300000D03*
X154350000Y-85450000D03*
X154349999Y-84600000D03*
X154350000Y-83750000D03*
X154350000Y-82900000D03*
X154350000Y-82050000D03*
X154350000Y-81199999D03*
X154350000Y-80350000D03*
X154350000Y-79500000D03*
X154350000Y-78650000D03*
D49*
X153300000Y-77600000D03*
X152450000Y-77600000D03*
X151600000Y-77600000D03*
X150750001Y-77600000D03*
X149900000Y-77600000D03*
X149050000Y-77600000D03*
X148200000Y-77600000D03*
X147350000Y-77600001D03*
X146500000Y-77600000D03*
X145650000Y-77600000D03*
X144800000Y-77600000D03*
X143949999Y-77600000D03*
X143100000Y-77600000D03*
X142250000Y-77600000D03*
X141400000Y-77600000D03*
D50*
X145700000Y-82950000D03*
D51*
X145700000Y-84600000D03*
X145700000Y-86250000D03*
X147350000Y-82950000D03*
X147350000Y-84600000D03*
X147350000Y-86250000D03*
X149000000Y-82950000D03*
X149000000Y-84600000D03*
X149000000Y-86250000D03*
D52*
X140350000Y-77600000D03*
X140350000Y-91600000D03*
X154350000Y-91600000D03*
X154350000Y-77600000D03*
%TD*%
D20*
%TO.C,R5*%
X113250000Y-91575000D03*
X113250000Y-89925000D03*
%TD*%
D18*
%TO.C,C9*%
X122750000Y-98525000D03*
X122750000Y-96975000D03*
%TD*%
D53*
%TO.C,D1*%
X104500000Y-101787500D03*
X104500000Y-100212500D03*
%TD*%
D31*
%TO.C,ENABLE1*%
X129700000Y-74450000D03*
X136000000Y-74450000D03*
X129700000Y-78250000D03*
X136000000Y-78250000D03*
%TD*%
D34*
%TO.C,J6*%
X105750000Y-85250000D03*
D35*
X105750000Y-82750000D03*
%TD*%
D23*
%TO.C,R17*%
X122250000Y-91925000D03*
X122250000Y-93575000D03*
%TD*%
%TO.C,R13*%
X118750000Y-83675000D03*
X118750000Y-85325000D03*
%TD*%
%LPD*%
M02*
