M48
; DRILL file KiCad 10.0.3 date 2026-05-23T00:42:29
; FORMAT={-:-/ absolute / inch / decimal}
; #@! TF.CreationDate,2026-05-23T00:42:29-04:00
; #@! TF.GenerationSoftware,Kicad,Pcbnew,10.0.3
; #@! TF.FileFunction,Plated,1,2,PTH
FMAT,2
INCH
; #@! TA.AperFunction,Plated,PTH,ViaDrill
T1C0.0118
; #@! TA.AperFunction,Plated,PTH,ComponentDrill
T2C0.0236
; #@! TA.AperFunction,Plated,PTH,ComponentDrill
T3C0.0394
; #@! TA.AperFunction,Plated,PTH,ComponentDrill
T4C0.1063
%
G90
G05
T1
X3.6614Y-2.6378
X3.6614Y-2.7756
X3.6614Y-3.0906
X3.6614Y-3.5827
X3.6614Y-3.8583
X3.7992Y-4.0354
X3.8189Y-2.4803
X4.1535Y-4.0354
X4.3504Y-3.5827
X4.4094Y-4.0354
X4.4291Y-2.4803
X4.5177Y-3.3957
X4.5866Y-3.1594
X4.6457Y-3.4449
X4.685Y-3.3957
X4.7638Y-4.0354
X4.8819Y-2.4803
X5.0Y-3.7598
X5.1358Y-3.7303
X5.1378Y-3.6811
X5.1378Y-4.0354
X5.1575Y-2.815
X5.2067Y-3.002
X5.2559Y-3.7795
X5.3031Y-3.7037
X5.315Y-3.189
X5.315Y-3.2382
X5.3346Y-2.4803
X5.3839Y-3.3366
X5.4331Y-3.0906
X5.437Y-2.7657
X5.4921Y-3.189
X5.5118Y-3.2185
X5.5512Y-2.5984
X5.6496Y-2.7362
X5.6496Y-2.9134
X5.6496Y-4.0354
X5.689Y-2.5984
X5.8268Y-2.5984
X5.8268Y-3.3465
X5.8858Y-2.7362
X5.8858Y-2.9134
X5.9843Y-2.5984
X5.9843Y-3.2677
X5.9843Y-3.5433
X6.122Y-2.4803
X6.2795Y-2.6378
X6.2795Y-2.9331
X6.2795Y-3.2283
X6.2795Y-3.4449
X6.2795Y-3.6024
X6.2795Y-3.8583
X6.2795Y-4.0354
T3
X3.8898Y-3.7005
X3.8898Y-3.7989
X4.4685Y-3.0607
X4.4685Y-3.1592
X6.061Y-3.7798
X6.061Y-3.8782
X6.2124Y-2.7142
X6.2124Y-2.8142
X6.2124Y-2.9142
X6.2124Y-3.0142
T4
X3.8386Y-2.8543
X3.8386Y-3.0512
T2
G00X6.0372Y-3.2354
M15
G01X6.0805Y-3.2354
M16
G05
G00X6.0372Y-3.5756
M15
G01X6.0805Y-3.5756
M16
G05
G00X6.2077Y-3.2354
M15
G01X6.2392Y-3.2354
M16
G05
G00X6.2077Y-3.5756
M15
G01X6.2392Y-3.5756
M16
G05
M30
