%TF.GenerationSoftware,KiCad,Pcbnew,10.0.2*%
%TF.CreationDate,2026-06-05T21:48:06-04:00*%
%TF.ProjectId,float_pcb,666c6f61-745f-4706-9362-2e6b69636164,rev?*%
%TF.SameCoordinates,Original*%
%TF.FileFunction,Copper,L4,Bot*%
%TF.FilePolarity,Positive*%
%FSLAX46Y46*%
G04 Gerber Fmt 4.6, Leading zero omitted, Abs format (unit mm)*
G04 Created by KiCad (PCBNEW 10.0.2) date 2026-06-05 21:48:06*
%MOMM*%
%LPD*%
G01*
G04 APERTURE LIST*
G04 Aperture macros list*
%AMRoundRect*
0 Rectangle with rounded corners*
0 $1 Rounding radius*
0 $2 $3 $4 $5 $6 $7 $8 $9 X,Y pos of 4 corners*
0 Add a 4 corners polygon primitive as box body*
4,1,4,$2,$3,$4,$5,$6,$7,$8,$9,$2,$3,0*
0 Add four circle primitives for the rounded corners*
1,1,$1+$1,$2,$3*
1,1,$1+$1,$4,$5*
1,1,$1+$1,$6,$7*
1,1,$1+$1,$8,$9*
0 Add four rect primitives between the rounded corners*
20,1,$1+$1,$2,$3,$4,$5,0*
20,1,$1+$1,$4,$5,$6,$7,0*
20,1,$1+$1,$6,$7,$8,$9,0*
20,1,$1+$1,$8,$9,$2,$3,0*%
G04 Aperture macros list end*
%TA.AperFunction,ComponentPad*%
%ADD10RoundRect,0.250000X0.600000X0.750000X-0.600000X0.750000X-0.600000X-0.750000X0.600000X-0.750000X0*%
%TD*%
%TA.AperFunction,ComponentPad*%
%ADD11O,1.700000X2.000000*%
%TD*%
%TA.AperFunction,ComponentPad*%
%ADD12R,1.700000X1.700000*%
%TD*%
%TA.AperFunction,ComponentPad*%
%ADD13C,1.700000*%
%TD*%
%TA.AperFunction,ComponentPad*%
%ADD14RoundRect,0.760000X-1.140000X-1.140000X1.140000X-1.140000X1.140000X1.140000X-1.140000X1.140000X0*%
%TD*%
%TA.AperFunction,ComponentPad*%
%ADD15C,3.800000*%
%TD*%
%TA.AperFunction,HeatsinkPad*%
%ADD16C,0.600000*%
%TD*%
%TA.AperFunction,ComponentPad*%
%ADD17RoundRect,0.250000X0.550000X0.550000X-0.550000X0.550000X-0.550000X-0.550000X0.550000X-0.550000X0*%
%TD*%
%TA.AperFunction,ComponentPad*%
%ADD18C,1.600000*%
%TD*%
%TA.AperFunction,ComponentPad*%
%ADD19O,2.100000X1.000000*%
%TD*%
%TA.AperFunction,ComponentPad*%
%ADD20O,1.800000X1.000000*%
%TD*%
%TA.AperFunction,ComponentPad*%
%ADD21RoundRect,0.250000X0.600000X0.725000X-0.600000X0.725000X-0.600000X-0.725000X0.600000X-0.725000X0*%
%TD*%
%TA.AperFunction,ComponentPad*%
%ADD22O,1.700000X1.950000*%
%TD*%
%TA.AperFunction,SMDPad,CuDef*%
%ADD23C,1.500000*%
%TD*%
%TA.AperFunction,ViaPad*%
%ADD24C,0.600000*%
%TD*%
%TA.AperFunction,Conductor*%
%ADD25C,0.200000*%
%TD*%
%TA.AperFunction,Conductor*%
%ADD26C,0.500000*%
%TD*%
%TA.AperFunction,Conductor*%
%ADD27C,1.000000*%
%TD*%
G04 APERTURE END LIST*
D10*
%TO.P,J2,1,Pin_1_1*%
%TO.N,+BATT*%
X152000000Y-79750000D03*
D11*
%TO.P,J2,2,Pin_2_2*%
%TO.N,Net-(J1-Pin_2)*%
X149500000Y-79750000D03*
%TD*%
D12*
%TO.P,J7,1,Pin_1_1*%
%TO.N,MISC1*%
X169500000Y-103000000D03*
D13*
%TO.P,J7,2,Pin_2_2*%
%TO.N,MISC2*%
X169500000Y-105540000D03*
%TO.P,J7,3,Pin_3_3*%
%TO.N,MISC3*%
X169500000Y-108080000D03*
%TO.P,J7,4,Pin_4_4*%
%TO.N,MISC4*%
X169500000Y-110620000D03*
%TO.P,J7,5,Pin_5_5*%
%TO.N,GND*%
X169500000Y-113160000D03*
%TD*%
D14*
%TO.P,J1,1,Pin_1_1*%
%TO.N,GND*%
X136750000Y-79500000D03*
D15*
%TO.P,J1,2,Pin_2_2*%
%TO.N,Net-(J1-Pin_2)*%
X141750000Y-79500000D03*
%TD*%
D16*
%TO.P,U1,41,GND_41*%
%TO.N,GND*%
X145600000Y-103610000D03*
X145600000Y-105010000D03*
X146300000Y-102910000D03*
X146300000Y-104310000D03*
X146300000Y-105710000D03*
X147000000Y-103610000D03*
X147000000Y-105010000D03*
X147700000Y-102910000D03*
X147700000Y-104310000D03*
X147700000Y-105710000D03*
X148400000Y-103610000D03*
X148400000Y-105010000D03*
%TD*%
D17*
%TO.P,C14,1*%
%TO.N,Net-(J6-Pin_2)*%
X163250000Y-96000000D03*
D18*
%TO.P,C14,2*%
%TO.N,GND*%
X160750000Y-96000000D03*
%TD*%
D19*
%TO.P,J3,SH,SHIELD_SH*%
%TO.N,GND*%
X123355000Y-100680000D03*
D20*
X119175000Y-100680000D03*
D19*
X123355000Y-109320000D03*
D20*
X119175000Y-109320000D03*
%TD*%
D21*
%TO.P,J6,1,Pin_1_1*%
%TO.N,GND*%
X174000000Y-97500000D03*
D22*
%TO.P,J6,2,Pin_2_2*%
%TO.N,Net-(J6-Pin_2)*%
X171500000Y-97500000D03*
%TO.P,J6,3,Pin_3_3*%
%TO.N,SERVO*%
X169000000Y-97500000D03*
%TD*%
D21*
%TO.P,J5,1,Pin_1_1*%
%TO.N,GND*%
X160000000Y-130525000D03*
D22*
%TO.P,J5,2,Pin_2_2*%
%TO.N,SDA2*%
X157500000Y-130525000D03*
%TO.P,J5,3,Pin_3_3*%
%TO.N,SCL2*%
X155000000Y-130525000D03*
%TO.P,J5,4,Pin_4_4*%
%TO.N,+3V3*%
X152500000Y-130525000D03*
%TD*%
D21*
%TO.P,J4,1,Pin_1_1*%
%TO.N,GND*%
X143500000Y-130500000D03*
D22*
%TO.P,J4,2,Pin_2_2*%
%TO.N,SDA1*%
X141000000Y-130500000D03*
%TO.P,J4,3,Pin_3_3*%
%TO.N,SCL1*%
X138500000Y-130500000D03*
%TO.P,J4,4,Pin_4_4*%
%TO.N,+3V3*%
X136000000Y-130500000D03*
%TD*%
D10*
%TO.P,J8,1,Pin_1_1*%
%TO.N,Net-(J8-Pin_1)*%
X129500000Y-122750000D03*
D11*
%TO.P,J8,2,Pin_2_2*%
%TO.N,+3V3*%
X127000000Y-122750000D03*
%TD*%
D23*
%TO.P,TP1,1,1_1*%
%TO.N,GND*%
X127500000Y-118000000D03*
%TD*%
%TO.P,TP11,1,1_1*%
%TO.N,+3V3*%
X148000000Y-130500000D03*
%TD*%
%TO.P,TP5,1,1_1*%
%TO.N,BATT_SENSE*%
X134750000Y-100000000D03*
%TD*%
%TO.P,TP3,1,1_1*%
%TO.N,Net-(U1-EN)*%
X127500000Y-112000000D03*
%TD*%
%TO.P,TP10,1,1_1*%
%TO.N,SDA2*%
X157500000Y-128000000D03*
%TD*%
%TO.P,TP2,1,1_1*%
%TO.N,+BATT*%
X153500000Y-83500000D03*
%TD*%
%TO.P,TP4,1,1_1*%
%TO.N,Net-(U1-IO0)*%
X175500000Y-112000000D03*
%TD*%
%TO.P,TP9,1,1_1*%
%TO.N,SCL2*%
X152500000Y-134000000D03*
%TD*%
%TO.P,TP7,1,1_1*%
%TO.N,SDA1*%
X143500000Y-134000000D03*
%TD*%
%TO.P,TP8,1,1_1*%
%TO.N,Net-(J6-Pin_2)*%
X174000000Y-101000000D03*
%TD*%
%TO.P,TP6,1,1_1*%
%TO.N,SCL1*%
X138500000Y-128000000D03*
%TD*%
D24*
%TO.N,GND*%
X167000000Y-83250000D03*
X134000000Y-115250000D03*
X172750000Y-120250000D03*
X160750000Y-84250000D03*
X136250000Y-117750000D03*
X165500000Y-109750000D03*
X140500000Y-116750000D03*
X159750000Y-88750000D03*
X126500000Y-85750000D03*
X165250000Y-107250000D03*
X133250000Y-103750000D03*
X140500000Y-88500000D03*
X146000000Y-123500000D03*
X172500000Y-103500000D03*
X137000000Y-95250000D03*
X134000000Y-95250000D03*
X153250000Y-85250000D03*
X136500000Y-102250000D03*
X158500000Y-116750000D03*
X119000000Y-113500000D03*
X137500000Y-88750000D03*
X153250000Y-92500000D03*
X131250000Y-92500000D03*
X162750000Y-88500000D03*
X169750000Y-85000000D03*
X157500000Y-76500000D03*
X122500000Y-92500000D03*
X119000000Y-96500000D03*
X179000000Y-103500000D03*
X140000000Y-86000000D03*
X146500000Y-86000000D03*
X127000000Y-105000000D03*
X127500000Y-115250000D03*
X162500000Y-83250000D03*
X131250000Y-85250000D03*
%TO.N,BATT_SENSE*%
X160750000Y-82500000D03*
X138250000Y-100250000D03*
%TO.N,+3V3*%
X165000000Y-113000000D03*
X165000000Y-101500000D03*
X142500000Y-121500000D03*
X150000000Y-91750000D03*
X132750000Y-97750000D03*
X150000000Y-94250000D03*
X162000000Y-110000000D03*
X162000000Y-104500000D03*
X132250000Y-102250000D03*
X158000000Y-124000000D03*
X154500000Y-121500000D03*
X139000000Y-124000000D03*
X150500000Y-93000000D03*
%TO.N,Net-(U2-EN)*%
X127750000Y-88250000D03*
X135000000Y-87250000D03*
%TO.N,Net-(U3-EN)*%
X157500000Y-87250000D03*
X138000000Y-101750000D03*
%TO.N,Net-(U1-IO0)*%
X159500000Y-113000000D03*
X172500000Y-110500000D03*
%TO.N,MISC3*%
X165000000Y-111250000D03*
X166500000Y-109750000D03*
%TO.N,Net-(U1-EN)*%
X130750000Y-101000000D03*
X127500000Y-108750000D03*
%TO.N,MISC2*%
X166500000Y-104750000D03*
X165000000Y-103250000D03*
%TO.N,SDA1*%
X143000000Y-124000000D03*
X145549265Y-124299265D03*
%TO.N,SCL2*%
X151250000Y-124250000D03*
X154000000Y-124000000D03*
%TO.N,/USB_VBUS*%
X125500000Y-106750000D03*
X125500000Y-103250000D03*
%TD*%
%TO.N,BATT_SENSE*%
D25*
X160151471Y-82500000D02*
X142401471Y-100250000D01*
X160750000Y-82500000D02*
X160151471Y-82500000D01*
X138000000Y-100000000D02*
X134750000Y-100000000D01*
X138250000Y-100250000D02*
X138000000Y-100000000D01*
X142401471Y-100250000D02*
X138250000Y-100250000D01*
%TO.N,+3V3*%
D26*
X152500000Y-130525000D02*
X147975000Y-130525000D01*
%TO.N,Net-(J6-Pin_2)*%
D27*
X171500000Y-97500000D02*
X171500000Y-98500000D01*
X171500000Y-98500000D02*
X174000000Y-101000000D01*
%TO.N,+BATT*%
X152000000Y-79750000D02*
X152000000Y-82000000D01*
X152000000Y-82000000D02*
X153500000Y-83500000D01*
%TO.N,Net-(U2-EN)*%
D25*
X135000000Y-87250000D02*
X128750000Y-87250000D01*
X128750000Y-87250000D02*
X127750000Y-88250000D01*
%TO.N,Net-(U3-EN)*%
X157500000Y-89098529D02*
X157500000Y-87250000D01*
X144848529Y-101750000D02*
X157500000Y-89098529D01*
X138000000Y-101750000D02*
X144848529Y-101750000D01*
%TO.N,Net-(U1-IO0)*%
X175500000Y-112000000D02*
X174000000Y-112000000D01*
X165328529Y-111770000D02*
X171230000Y-111770000D01*
X171230000Y-111770000D02*
X172500000Y-110500000D01*
X174000000Y-112000000D02*
X172500000Y-110500000D01*
X164098529Y-113000000D02*
X165328529Y-111770000D01*
X159500000Y-113000000D02*
X164098529Y-113000000D01*
%TO.N,MISC3*%
X166500000Y-109750000D02*
X165000000Y-111250000D01*
%TO.N,Net-(U1-EN)*%
X130750000Y-101000000D02*
X130750000Y-105500000D01*
X130750000Y-105500000D02*
X127500000Y-108750000D01*
X127500000Y-108750000D02*
X127500000Y-112000000D01*
%TO.N,SCL1*%
X138500000Y-130500000D02*
X138500000Y-128000000D01*
%TO.N,MISC2*%
X166500000Y-104750000D02*
X165151471Y-103401471D01*
%TO.N,SDA1*%
X141000000Y-130500000D02*
X141000000Y-131500000D01*
X145549265Y-124299265D02*
X143299265Y-124299265D01*
X141000000Y-131500000D02*
X143500000Y-134000000D01*
X143299265Y-124299265D02*
X143000000Y-124000000D01*
%TO.N,SDA2*%
X157500000Y-130525000D02*
X157500000Y-128000000D01*
%TO.N,SCL2*%
X155000000Y-131500000D02*
X152500000Y-134000000D01*
X155000000Y-130525000D02*
X155000000Y-131500000D01*
X153750000Y-124250000D02*
X154000000Y-124000000D01*
X151250000Y-124250000D02*
X153750000Y-124250000D01*
%TO.N,/USB_VBUS*%
X125500000Y-103250000D02*
X125500000Y-106750000D01*
%TD*%
%TA.AperFunction,Conductor*%
%TO.N,GND*%
G36*
X156633329Y-86969890D02*
G01*
X156689262Y-87011762D01*
X156713679Y-87077226D01*
X156711612Y-87110263D01*
X156699500Y-87171153D01*
X156699500Y-87328846D01*
X156730261Y-87483489D01*
X156730264Y-87483501D01*
X156790602Y-87629172D01*
X156790609Y-87629185D01*
X156878602Y-87760874D01*
X156899480Y-87827551D01*
X156899500Y-87829765D01*
X156899500Y-88798432D01*
X156879815Y-88865471D01*
X156863181Y-88886113D01*
X144636113Y-101113181D01*
X144574790Y-101146666D01*
X144548432Y-101149500D01*
X138753439Y-101149500D01*
X138720938Y-101139956D01*
X138688272Y-101130995D01*
X138687502Y-101130138D01*
X138686400Y-101129815D01*
X138664231Y-101104230D01*
X138641582Y-101079016D01*
X138641397Y-101077879D01*
X138640645Y-101077011D01*
X138635823Y-101043479D01*
X138630406Y-101010046D01*
X138630864Y-101008992D01*
X138630701Y-101007853D01*
X138644781Y-100977021D01*
X138658292Y-100945983D01*
X138659417Y-100944971D01*
X138659726Y-100944297D01*
X138684548Y-100922398D01*
X138760875Y-100871398D01*
X138827553Y-100850520D01*
X138829766Y-100850500D01*
X142314802Y-100850500D01*
X142314818Y-100850501D01*
X142322414Y-100850501D01*
X142480525Y-100850501D01*
X142480528Y-100850501D01*
X142633256Y-100809577D01*
X142707862Y-100766503D01*
X142770187Y-100730520D01*
X142881991Y-100618716D01*
X142881991Y-100618714D01*
X142892195Y-100608511D01*
X142892198Y-100608506D01*
X149036638Y-94464067D01*
X149097959Y-94430584D01*
X149167651Y-94435568D01*
X149223584Y-94477440D01*
X149238878Y-94504297D01*
X149290604Y-94629176D01*
X149290609Y-94629185D01*
X149378210Y-94760288D01*
X149378213Y-94760292D01*
X149489707Y-94871786D01*
X149489711Y-94871789D01*
X149620814Y-94959390D01*
X149620827Y-94959397D01*
X149673813Y-94981344D01*
X149766503Y-95019737D01*
X149921153Y-95050499D01*
X149921156Y-95050500D01*
X149921158Y-95050500D01*
X150078844Y-95050500D01*
X150078845Y-95050499D01*
X150233497Y-95019737D01*
X150379179Y-94959394D01*
X150510289Y-94871789D01*
X150621789Y-94760289D01*
X150709394Y-94629179D01*
X150769737Y-94483497D01*
X150800500Y-94328842D01*
X150800500Y-94171158D01*
X150800500Y-94171155D01*
X150800499Y-94171153D01*
X150775362Y-94044781D01*
X150769737Y-94016503D01*
X150741984Y-93949500D01*
X150724638Y-93907622D01*
X150717169Y-93838153D01*
X150748445Y-93775674D01*
X150791742Y-93745611D01*
X150879179Y-93709394D01*
X151010289Y-93621789D01*
X151121789Y-93510289D01*
X151209394Y-93379179D01*
X151269737Y-93233497D01*
X151300500Y-93078842D01*
X151300500Y-92921158D01*
X151300500Y-92921155D01*
X151300499Y-92921153D01*
X151269738Y-92766510D01*
X151269737Y-92766503D01*
X151269735Y-92766498D01*
X151209397Y-92620827D01*
X151209390Y-92620814D01*
X151133948Y-92507908D01*
X151113070Y-92441231D01*
X151131554Y-92373851D01*
X151149365Y-92351340D01*
X156502316Y-86998389D01*
X156563637Y-86964906D01*
X156633329Y-86969890D01*
G37*
%TD.AperFunction*%
%TA.AperFunction,Conductor*%
G36*
X149064446Y-73505596D02*
G01*
X150183781Y-73545574D01*
X150188194Y-73545810D01*
X151305421Y-73625716D01*
X151309727Y-73626101D01*
X152423446Y-73745838D01*
X152427802Y-73746385D01*
X153536462Y-73905787D01*
X153540805Y-73906490D01*
X154643104Y-74105367D01*
X154647404Y-74106223D01*
X155741869Y-74344309D01*
X155746152Y-74345321D01*
X156831437Y-74622324D01*
X156835654Y-74623481D01*
X157867200Y-74926370D01*
X157910366Y-74939045D01*
X157914592Y-74940368D01*
X158977322Y-75294079D01*
X158981424Y-75295525D01*
X160030952Y-75686979D01*
X160034994Y-75688569D01*
X160809144Y-76009233D01*
X161069823Y-76117210D01*
X161073881Y-76118977D01*
X162092672Y-76584243D01*
X162096665Y-76586153D01*
X163098266Y-77087518D01*
X163102189Y-77089570D01*
X163175656Y-77129686D01*
X164085220Y-77626345D01*
X164089033Y-77628516D01*
X164269619Y-77735663D01*
X165052342Y-78200075D01*
X165056107Y-78202402D01*
X165998311Y-78807919D01*
X166001992Y-78810378D01*
X166203083Y-78949998D01*
X166922052Y-79449187D01*
X166925604Y-79451749D01*
X167822246Y-80122966D01*
X167825742Y-80125681D01*
X168697867Y-80828484D01*
X168701264Y-80831323D01*
X169547735Y-81564795D01*
X169551028Y-81567753D01*
X170370792Y-82330979D01*
X170373977Y-82334053D01*
X171165946Y-83126022D01*
X171169020Y-83129207D01*
X171932246Y-83948971D01*
X171935204Y-83952264D01*
X172668676Y-84798735D01*
X172671515Y-84802132D01*
X173374318Y-85674257D01*
X173377033Y-85677753D01*
X173959160Y-86455385D01*
X174048236Y-86574376D01*
X174050819Y-86577958D01*
X174163124Y-86739707D01*
X174689621Y-87498007D01*
X174692080Y-87501688D01*
X175297597Y-88443892D01*
X175299924Y-88447657D01*
X175871473Y-89410949D01*
X175873663Y-89414796D01*
X176410429Y-90397810D01*
X176412481Y-90401733D01*
X176913846Y-91403334D01*
X176915756Y-91407327D01*
X177381022Y-92426118D01*
X177382789Y-92430176D01*
X177811414Y-93464966D01*
X177813031Y-93469076D01*
X178199149Y-94504297D01*
X178204461Y-94518539D01*
X178205933Y-94522714D01*
X178559631Y-95585409D01*
X178560954Y-95589633D01*
X178876511Y-96664319D01*
X178877682Y-96668588D01*
X179154675Y-97753835D01*
X179155693Y-97758143D01*
X179393772Y-98852575D01*
X179394636Y-98856916D01*
X179593506Y-99959181D01*
X179594214Y-99963551D01*
X179753611Y-101072179D01*
X179754163Y-101076571D01*
X179873893Y-102190221D01*
X179874287Y-102194630D01*
X179954188Y-103311801D01*
X179954425Y-103316221D01*
X179994403Y-104435553D01*
X179994482Y-104439979D01*
X179994482Y-105560020D01*
X179994403Y-105564446D01*
X179954425Y-106683778D01*
X179954188Y-106688198D01*
X179874287Y-107805369D01*
X179873893Y-107809778D01*
X179754163Y-108923428D01*
X179753611Y-108927820D01*
X179594214Y-110036448D01*
X179593506Y-110040818D01*
X179394636Y-111143083D01*
X179393772Y-111147424D01*
X179155693Y-112241856D01*
X179154675Y-112246164D01*
X178877682Y-113331411D01*
X178876511Y-113335680D01*
X178560954Y-114410366D01*
X178559631Y-114414590D01*
X178205933Y-115477285D01*
X178204461Y-115481460D01*
X177813035Y-116530914D01*
X177811414Y-116535033D01*
X177382789Y-117569823D01*
X177381022Y-117573881D01*
X176915756Y-118592672D01*
X176913846Y-118596665D01*
X176412481Y-119598266D01*
X176410429Y-119602189D01*
X175873663Y-120585203D01*
X175871473Y-120589050D01*
X175299924Y-121552342D01*
X175297597Y-121556107D01*
X174692080Y-122498311D01*
X174689621Y-122501992D01*
X174050825Y-123422033D01*
X174048236Y-123425623D01*
X173377033Y-124322246D01*
X173374318Y-124325742D01*
X172671515Y-125197867D01*
X172668676Y-125201264D01*
X171935204Y-126047735D01*
X171932246Y-126051028D01*
X171169020Y-126870792D01*
X171165946Y-126873977D01*
X170373977Y-127665946D01*
X170370792Y-127669020D01*
X169551028Y-128432246D01*
X169547735Y-128435204D01*
X168701264Y-129168676D01*
X168697867Y-129171515D01*
X167825742Y-129874318D01*
X167822246Y-129877033D01*
X166925623Y-130548236D01*
X166922033Y-130550825D01*
X166001992Y-131189621D01*
X165998311Y-131192080D01*
X165056107Y-131797597D01*
X165052342Y-131799924D01*
X164089050Y-132371473D01*
X164085203Y-132373663D01*
X163102189Y-132910429D01*
X163098266Y-132912481D01*
X162096665Y-133413846D01*
X162092672Y-133415756D01*
X161073881Y-133881022D01*
X161069823Y-133882789D01*
X160035033Y-134311414D01*
X160030914Y-134313035D01*
X158981460Y-134704461D01*
X158977285Y-134705933D01*
X157914590Y-135059631D01*
X157910366Y-135060954D01*
X156835680Y-135376511D01*
X156831411Y-135377682D01*
X155746164Y-135654675D01*
X155741856Y-135655693D01*
X154647424Y-135893772D01*
X154643083Y-135894636D01*
X153540818Y-136093506D01*
X153536448Y-136094214D01*
X152427820Y-136253611D01*
X152423428Y-136254163D01*
X151309778Y-136373893D01*
X151305369Y-136374287D01*
X150188198Y-136454188D01*
X150183778Y-136454425D01*
X149064447Y-136494403D01*
X149060021Y-136494482D01*
X147939979Y-136494482D01*
X147935553Y-136494403D01*
X146816221Y-136454425D01*
X146811801Y-136454188D01*
X145694630Y-136374287D01*
X145690221Y-136373893D01*
X144576571Y-136254163D01*
X144572179Y-136253611D01*
X143463551Y-136094214D01*
X143459181Y-136093506D01*
X142356916Y-135894636D01*
X142352575Y-135893772D01*
X141258143Y-135655693D01*
X141253835Y-135654675D01*
X140168588Y-135377682D01*
X140164319Y-135376511D01*
X139089633Y-135060954D01*
X139085409Y-135059631D01*
X138022714Y-134705933D01*
X138018539Y-134704461D01*
X137708247Y-134588728D01*
X136969076Y-134313031D01*
X136964976Y-134311417D01*
X136761658Y-134227201D01*
X135930176Y-133882789D01*
X135926118Y-133881022D01*
X134907327Y-133415756D01*
X134903334Y-133413846D01*
X133901733Y-132912481D01*
X133897810Y-132910429D01*
X132914796Y-132373663D01*
X132910949Y-132371473D01*
X131947657Y-131799924D01*
X131943892Y-131797597D01*
X131001688Y-131192080D01*
X130998007Y-131189621D01*
X130146512Y-130598417D01*
X130077958Y-130550819D01*
X130074376Y-130548236D01*
X129959799Y-130462465D01*
X129700977Y-130268713D01*
X134649500Y-130268713D01*
X134649500Y-130731286D01*
X134677028Y-130905095D01*
X134682754Y-130941243D01*
X134701845Y-131000000D01*
X134748444Y-131143414D01*
X134844951Y-131332820D01*
X134969890Y-131504786D01*
X135120213Y-131655109D01*
X135292179Y-131780048D01*
X135292181Y-131780049D01*
X135292184Y-131780051D01*
X135481588Y-131876557D01*
X135683757Y-131942246D01*
X135893713Y-131975500D01*
X135893714Y-131975500D01*
X136106286Y-131975500D01*
X136106287Y-131975500D01*
X136316243Y-131942246D01*
X136518412Y-131876557D01*
X136707816Y-131780051D01*
X136748490Y-131750500D01*
X136879786Y-131655109D01*
X136879788Y-131655106D01*
X136879792Y-131655104D01*
X137030104Y-131504792D01*
X137149683Y-131340204D01*
X137205011Y-131297540D01*
X137274624Y-131291561D01*
X137336420Y-131324166D01*
X137350313Y-131340199D01*
X137432867Y-131453825D01*
X137469896Y-131504792D01*
X137620213Y-131655109D01*
X137792179Y-131780048D01*
X137792181Y-131780049D01*
X137792184Y-131780051D01*
X137981588Y-131876557D01*
X138183757Y-131942246D01*
X138393713Y-131975500D01*
X138393714Y-131975500D01*
X138606286Y-131975500D01*
X138606287Y-131975500D01*
X138816243Y-131942246D01*
X139018412Y-131876557D01*
X139207816Y-131780051D01*
X139248490Y-131750500D01*
X139379786Y-131655109D01*
X139379788Y-131655106D01*
X139379792Y-131655104D01*
X139530104Y-131504792D01*
X139649683Y-131340204D01*
X139705011Y-131297540D01*
X139774624Y-131291561D01*
X139836420Y-131324166D01*
X139850313Y-131340199D01*
X139932867Y-131453825D01*
X139969896Y-131504792D01*
X140120213Y-131655109D01*
X140292179Y-131780048D01*
X140292181Y-131780049D01*
X140292184Y-131780051D01*
X140365319Y-131817315D01*
X140481587Y-131876557D01*
X140481593Y-131876559D01*
X140521019Y-131889369D01*
X140532420Y-131896355D01*
X140542128Y-131898467D01*
X140570375Y-131919613D01*
X140570380Y-131919616D01*
X140631284Y-131980520D01*
X140631286Y-131980521D01*
X140638356Y-131987591D01*
X142246231Y-133595466D01*
X142279716Y-133656789D01*
X142281023Y-133702544D01*
X142249500Y-133901576D01*
X142249500Y-134098422D01*
X142280290Y-134292826D01*
X142341117Y-134480029D01*
X142430476Y-134655405D01*
X142546172Y-134814646D01*
X142685354Y-134953828D01*
X142844595Y-135069524D01*
X142927455Y-135111743D01*
X143019970Y-135158882D01*
X143019972Y-135158882D01*
X143019975Y-135158884D01*
X143120317Y-135191487D01*
X143207173Y-135219709D01*
X143401578Y-135250500D01*
X143401583Y-135250500D01*
X143598422Y-135250500D01*
X143792826Y-135219709D01*
X143980025Y-135158884D01*
X144155405Y-135069524D01*
X144314646Y-134953828D01*
X144453828Y-134814646D01*
X144569524Y-134655405D01*
X144658884Y-134480025D01*
X144719709Y-134292826D01*
X144750500Y-134098422D01*
X144750500Y-133901577D01*
X144719709Y-133707173D01*
X144658882Y-133519970D01*
X144569523Y-133344594D01*
X144453828Y-133185354D01*
X144314646Y-133046172D01*
X144155405Y-132930476D01*
X144120088Y-132912481D01*
X143980029Y-132841117D01*
X143792826Y-132780290D01*
X143598422Y-132749500D01*
X143598417Y-132749500D01*
X143401583Y-132749500D01*
X143401577Y-132749500D01*
X143202544Y-132781023D01*
X143133251Y-132772068D01*
X143095466Y-132746231D01*
X142468829Y-132119594D01*
X142435344Y-132058271D01*
X142440328Y-131988579D01*
X142482200Y-131932646D01*
X142547664Y-131908229D01*
X142595514Y-131914207D01*
X142747302Y-131964505D01*
X142747309Y-131964506D01*
X142850019Y-131974999D01*
X143249999Y-131974999D01*
X143250000Y-131974998D01*
X143250000Y-130904145D01*
X143316657Y-130942630D01*
X143437465Y-130975000D01*
X143562535Y-130975000D01*
X143683343Y-130942630D01*
X143750000Y-130904145D01*
X143750000Y-131974999D01*
X144149972Y-131974999D01*
X144149986Y-131974998D01*
X144252697Y-131964505D01*
X144419119Y-131909358D01*
X144419124Y-131909356D01*
X144568345Y-131817315D01*
X144692315Y-131693345D01*
X144784356Y-131544124D01*
X144784358Y-131544119D01*
X144839505Y-131377697D01*
X144839506Y-131377690D01*
X144849999Y-131274986D01*
X144850000Y-131274973D01*
X144850000Y-130750000D01*
X143904146Y-130750000D01*
X143942630Y-130683343D01*
X143975000Y-130562535D01*
X143975000Y-130437465D01*
X143965384Y-130401577D01*
X146749500Y-130401577D01*
X146749500Y-130598422D01*
X146780290Y-130792826D01*
X146841117Y-130980029D01*
X146924365Y-131143412D01*
X146930476Y-131155405D01*
X147046172Y-131314646D01*
X147185354Y-131453828D01*
X147344595Y-131569524D01*
X147414869Y-131605330D01*
X147519970Y-131658882D01*
X147519972Y-131658882D01*
X147519975Y-131658884D01*
X147585302Y-131680110D01*
X147707173Y-131719709D01*
X147901578Y-131750500D01*
X147901583Y-131750500D01*
X148098422Y-131750500D01*
X148292826Y-131719709D01*
X148297024Y-131718345D01*
X148480025Y-131658884D01*
X148655405Y-131569524D01*
X148814646Y-131453828D01*
X148953828Y-131314646D01*
X148953828Y-131314645D01*
X148956655Y-131311819D01*
X149017978Y-131278334D01*
X149044336Y-131275500D01*
X151227019Y-131275500D01*
X151294058Y-131295185D01*
X151337503Y-131343203D01*
X151344950Y-131357819D01*
X151469890Y-131529786D01*
X151620213Y-131680109D01*
X151792179Y-131805048D01*
X151792181Y-131805049D01*
X151792184Y-131805051D01*
X151981588Y-131901557D01*
X152183757Y-131967246D01*
X152393713Y-132000500D01*
X152393714Y-132000500D01*
X152606286Y-132000500D01*
X152606287Y-132000500D01*
X152816243Y-131967246D01*
X153018412Y-131901557D01*
X153207816Y-131805051D01*
X153282900Y-131750500D01*
X153379786Y-131680109D01*
X153379788Y-131680106D01*
X153379792Y-131680104D01*
X153530104Y-131529792D01*
X153649683Y-131365204D01*
X153705011Y-131322540D01*
X153774624Y-131316561D01*
X153836420Y-131349166D01*
X153850319Y-131365207D01*
X153971220Y-131531616D01*
X153994699Y-131597422D01*
X153978873Y-131665476D01*
X153958582Y-131692181D01*
X152904532Y-132746231D01*
X152843209Y-132779716D01*
X152797453Y-132781023D01*
X152598422Y-132749500D01*
X152598417Y-132749500D01*
X152401583Y-132749500D01*
X152401578Y-132749500D01*
X152207173Y-132780290D01*
X152019970Y-132841117D01*
X151844594Y-132930476D01*
X151753741Y-132996485D01*
X151685354Y-133046172D01*
X151685352Y-133046174D01*
X151685351Y-133046174D01*
X151546174Y-133185351D01*
X151546174Y-133185352D01*
X151546172Y-133185354D01*
X151496485Y-133253741D01*
X151430476Y-133344594D01*
X151341117Y-133519970D01*
X151280290Y-133707173D01*
X151249500Y-133901577D01*
X151249500Y-134098422D01*
X151280290Y-134292826D01*
X151341117Y-134480029D01*
X151430476Y-134655405D01*
X151546172Y-134814646D01*
X151685354Y-134953828D01*
X151844595Y-135069524D01*
X151927455Y-135111743D01*
X152019970Y-135158882D01*
X152019972Y-135158882D01*
X152019975Y-135158884D01*
X152120317Y-135191487D01*
X152207173Y-135219709D01*
X152401578Y-135250500D01*
X152401583Y-135250500D01*
X152598422Y-135250500D01*
X152792826Y-135219709D01*
X152980025Y-135158884D01*
X153155405Y-135069524D01*
X153314646Y-134953828D01*
X153453828Y-134814646D01*
X153569524Y-134655405D01*
X153658884Y-134480025D01*
X153719709Y-134292826D01*
X153750500Y-134098422D01*
X153750500Y-133901578D01*
X153736609Y-133813882D01*
X153719709Y-133707174D01*
X153719707Y-133707168D01*
X153718975Y-133702546D01*
X153727929Y-133633252D01*
X153753764Y-133595469D01*
X155368713Y-131980521D01*
X155368716Y-131980520D01*
X155392589Y-131956646D01*
X155392614Y-131956632D01*
X155441945Y-131926402D01*
X155518412Y-131901557D01*
X155707816Y-131805051D01*
X155782900Y-131750500D01*
X155879786Y-131680109D01*
X155879788Y-131680106D01*
X155879792Y-131680104D01*
X156030104Y-131529792D01*
X156149683Y-131365204D01*
X156205011Y-131322540D01*
X156274624Y-131316561D01*
X156336420Y-131349166D01*
X156350313Y-131365199D01*
X156451728Y-131504786D01*
X156469896Y-131529792D01*
X156620213Y-131680109D01*
X156792179Y-131805048D01*
X156792181Y-131805049D01*
X156792184Y-131805051D01*
X156981588Y-131901557D01*
X157183757Y-131967246D01*
X157393713Y-132000500D01*
X157393714Y-132000500D01*
X157606286Y-132000500D01*
X157606287Y-132000500D01*
X157816243Y-131967246D01*
X158018412Y-131901557D01*
X158207816Y-131805051D01*
X158325280Y-131719709D01*
X158379784Y-131680110D01*
X158379784Y-131680109D01*
X158379792Y-131680104D01*
X158518967Y-131540928D01*
X158580286Y-131507446D01*
X158649978Y-131512430D01*
X158705912Y-131554301D01*
X158712184Y-131563515D01*
X158807684Y-131718345D01*
X158931654Y-131842315D01*
X159080875Y-131934356D01*
X159080880Y-131934358D01*
X159247302Y-131989505D01*
X159247309Y-131989506D01*
X159350019Y-131999999D01*
X159749999Y-131999999D01*
X159750000Y-131999998D01*
X159750000Y-130929145D01*
X159816657Y-130967630D01*
X159937465Y-131000000D01*
X160062535Y-131000000D01*
X160183343Y-130967630D01*
X160250000Y-130929145D01*
X160250000Y-131999999D01*
X160649972Y-131999999D01*
X160649986Y-131999998D01*
X160752697Y-131989505D01*
X160919119Y-131934358D01*
X160919124Y-131934356D01*
X161068345Y-131842315D01*
X161192315Y-131718345D01*
X161284356Y-131569124D01*
X161284358Y-131569119D01*
X161339505Y-131402697D01*
X161339506Y-131402690D01*
X161349999Y-131299986D01*
X161350000Y-131299973D01*
X161350000Y-130775000D01*
X160404146Y-130775000D01*
X160442630Y-130708343D01*
X160475000Y-130587535D01*
X160475000Y-130462465D01*
X160442630Y-130341657D01*
X160404146Y-130275000D01*
X161349999Y-130275000D01*
X161349999Y-129750028D01*
X161349998Y-129750013D01*
X161339505Y-129647302D01*
X161284358Y-129480880D01*
X161284356Y-129480875D01*
X161192315Y-129331654D01*
X161068345Y-129207684D01*
X160919124Y-129115643D01*
X160919119Y-129115641D01*
X160752697Y-129060494D01*
X160752690Y-129060493D01*
X160649986Y-129050000D01*
X160250000Y-129050000D01*
X160250000Y-130120854D01*
X160183343Y-130082370D01*
X160062535Y-130050000D01*
X159937465Y-130050000D01*
X159816657Y-130082370D01*
X159750000Y-130120854D01*
X159750000Y-129050000D01*
X159350028Y-129050000D01*
X159350012Y-129050001D01*
X159247302Y-129060494D01*
X159080880Y-129115641D01*
X159080875Y-129115643D01*
X158931654Y-129207684D01*
X158807683Y-129331655D01*
X158807680Y-129331659D01*
X158712183Y-129486484D01*
X158660235Y-129533209D01*
X158591273Y-129544430D01*
X158527191Y-129516587D01*
X158518964Y-129509068D01*
X158379786Y-129369890D01*
X158207817Y-129244949D01*
X158206645Y-129244231D01*
X158206292Y-129243841D01*
X158203875Y-129242085D01*
X158204243Y-129241577D01*
X158159766Y-129192422D01*
X158148339Y-129123493D01*
X158175992Y-129059329D01*
X158198543Y-129038182D01*
X158216685Y-129025001D01*
X158314646Y-128953828D01*
X158453828Y-128814646D01*
X158569524Y-128655405D01*
X158658884Y-128480025D01*
X158719709Y-128292826D01*
X158750500Y-128098422D01*
X158750500Y-127901577D01*
X158719709Y-127707173D01*
X158658882Y-127519970D01*
X158569523Y-127344594D01*
X158453828Y-127185354D01*
X158314646Y-127046172D01*
X158155405Y-126930476D01*
X157980029Y-126841117D01*
X157792826Y-126780290D01*
X157598422Y-126749500D01*
X157598417Y-126749500D01*
X157401583Y-126749500D01*
X157401578Y-126749500D01*
X157207173Y-126780290D01*
X157019970Y-126841117D01*
X156844594Y-126930476D01*
X156753741Y-126996485D01*
X156685354Y-127046172D01*
X156685352Y-127046174D01*
X156685351Y-127046174D01*
X156546174Y-127185351D01*
X156546174Y-127185352D01*
X156546172Y-127185354D01*
X156496485Y-127253741D01*
X156430476Y-127344594D01*
X156341117Y-127519970D01*
X156280290Y-127707173D01*
X156249500Y-127901577D01*
X156249500Y-128098422D01*
X156280290Y-128292826D01*
X156341117Y-128480029D01*
X156430476Y-128655405D01*
X156546172Y-128814646D01*
X156685354Y-128953828D01*
X156783315Y-129025001D01*
X156801457Y-129038182D01*
X156844122Y-129093512D01*
X156850101Y-129163126D01*
X156817495Y-129224921D01*
X156796093Y-129242041D01*
X156796125Y-129242085D01*
X156795191Y-129242762D01*
X156793363Y-129244226D01*
X156792181Y-129244949D01*
X156620213Y-129369890D01*
X156469894Y-129520209D01*
X156469890Y-129520214D01*
X156350318Y-129684793D01*
X156294989Y-129727459D01*
X156225375Y-129733438D01*
X156163580Y-129700833D01*
X156149682Y-129684793D01*
X156030109Y-129520214D01*
X156030105Y-129520209D01*
X155879786Y-129369890D01*
X155707820Y-129244951D01*
X155518414Y-129148444D01*
X155518413Y-129148443D01*
X155518412Y-129148443D01*
X155316243Y-129082754D01*
X155316241Y-129082753D01*
X155316240Y-129082753D01*
X155154957Y-129057208D01*
X155106287Y-129049500D01*
X154893713Y-129049500D01*
X154845042Y-129057208D01*
X154683760Y-129082753D01*
X154481585Y-129148444D01*
X154292179Y-129244951D01*
X154120213Y-129369890D01*
X153969894Y-129520209D01*
X153969890Y-129520214D01*
X153850318Y-129684793D01*
X153794989Y-129727459D01*
X153725375Y-129733438D01*
X153663580Y-129700833D01*
X153649682Y-129684793D01*
X153530109Y-129520214D01*
X153530105Y-129520209D01*
X153379786Y-129369890D01*
X153207820Y-129244951D01*
X153018414Y-129148444D01*
X153018413Y-129148443D01*
X153018412Y-129148443D01*
X152816243Y-129082754D01*
X152816241Y-129082753D01*
X152816240Y-129082753D01*
X152654957Y-129057208D01*
X152606287Y-129049500D01*
X152393713Y-129049500D01*
X152345042Y-129057208D01*
X152183760Y-129082753D01*
X151981585Y-129148444D01*
X151792179Y-129244951D01*
X151620213Y-129369890D01*
X151469890Y-129520213D01*
X151344950Y-129692180D01*
X151337503Y-129706797D01*
X151289527Y-129757592D01*
X151227019Y-129774500D01*
X149081778Y-129774500D01*
X149014739Y-129754815D01*
X148981461Y-129723387D01*
X148953828Y-129685354D01*
X148814648Y-129546174D01*
X148814646Y-129546172D01*
X148655405Y-129430476D01*
X148480029Y-129341117D01*
X148292826Y-129280290D01*
X148098422Y-129249500D01*
X148098417Y-129249500D01*
X147901583Y-129249500D01*
X147901578Y-129249500D01*
X147707173Y-129280290D01*
X147519970Y-129341117D01*
X147344594Y-129430476D01*
X147301916Y-129461484D01*
X147185354Y-129546172D01*
X147185352Y-129546174D01*
X147185351Y-129546174D01*
X147046174Y-129685351D01*
X147046174Y-129685352D01*
X147046172Y-129685354D01*
X147018539Y-129723387D01*
X146930476Y-129844594D01*
X146841117Y-130019970D01*
X146780290Y-130207173D01*
X146749500Y-130401577D01*
X143965384Y-130401577D01*
X143942630Y-130316657D01*
X143904146Y-130250000D01*
X144849999Y-130250000D01*
X144849999Y-129725028D01*
X144849998Y-129725013D01*
X144839505Y-129622302D01*
X144784358Y-129455880D01*
X144784356Y-129455875D01*
X144692315Y-129306654D01*
X144568345Y-129182684D01*
X144419124Y-129090643D01*
X144419119Y-129090641D01*
X144252697Y-129035494D01*
X144252690Y-129035493D01*
X144149986Y-129025000D01*
X143750000Y-129025000D01*
X143750000Y-130095854D01*
X143683343Y-130057370D01*
X143562535Y-130025000D01*
X143437465Y-130025000D01*
X143316657Y-130057370D01*
X143250000Y-130095854D01*
X143250000Y-129025000D01*
X142850028Y-129025000D01*
X142850012Y-129025001D01*
X142747302Y-129035494D01*
X142580880Y-129090641D01*
X142580875Y-129090643D01*
X142431654Y-129182684D01*
X142307683Y-129306655D01*
X142307680Y-129306659D01*
X142212183Y-129461484D01*
X142160235Y-129508209D01*
X142091273Y-129519430D01*
X142027191Y-129491587D01*
X142018964Y-129484068D01*
X141879786Y-129344890D01*
X141707820Y-129219951D01*
X141518414Y-129123444D01*
X141518413Y-129123443D01*
X141518412Y-129123443D01*
X141316243Y-129057754D01*
X141316241Y-129057753D01*
X141316240Y-129057753D01*
X141111830Y-129025378D01*
X141106287Y-129024500D01*
X140893713Y-129024500D01*
X140888170Y-129025378D01*
X140683760Y-129057753D01*
X140481585Y-129123444D01*
X140292179Y-129219951D01*
X140120213Y-129344890D01*
X139969894Y-129495209D01*
X139969890Y-129495214D01*
X139850318Y-129659793D01*
X139794989Y-129702459D01*
X139725375Y-129708438D01*
X139663580Y-129675833D01*
X139649682Y-129659793D01*
X139530109Y-129495214D01*
X139530105Y-129495209D01*
X139379790Y-129344894D01*
X139379785Y-129344890D01*
X139216165Y-129226014D01*
X139173499Y-129170685D01*
X139167520Y-129101071D01*
X139200125Y-129039276D01*
X139216157Y-129025384D01*
X139314646Y-128953828D01*
X139453828Y-128814646D01*
X139569524Y-128655405D01*
X139658884Y-128480025D01*
X139719709Y-128292826D01*
X139750500Y-128098422D01*
X139750500Y-127901577D01*
X139719709Y-127707173D01*
X139658882Y-127519970D01*
X139569523Y-127344594D01*
X139453828Y-127185354D01*
X139314646Y-127046172D01*
X139155405Y-126930476D01*
X138980029Y-126841117D01*
X138792826Y-126780290D01*
X138598422Y-126749500D01*
X138598417Y-126749500D01*
X138401583Y-126749500D01*
X138401578Y-126749500D01*
X138207173Y-126780290D01*
X138019970Y-126841117D01*
X137844594Y-126930476D01*
X137753741Y-126996485D01*
X137685354Y-127046172D01*
X137685352Y-127046174D01*
X137685351Y-127046174D01*
X137546174Y-127185351D01*
X137546174Y-127185352D01*
X137546172Y-127185354D01*
X137496485Y-127253741D01*
X137430476Y-127344594D01*
X137341117Y-127519970D01*
X137280290Y-127707173D01*
X137249500Y-127901577D01*
X137249500Y-128098422D01*
X137280290Y-128292826D01*
X137341117Y-128480029D01*
X137430476Y-128655405D01*
X137546172Y-128814646D01*
X137685354Y-128953828D01*
X137783313Y-129025000D01*
X137783834Y-129025378D01*
X137826500Y-129080708D01*
X137832479Y-129150321D01*
X137799873Y-129212116D01*
X137783834Y-129226014D01*
X137620214Y-129344890D01*
X137620209Y-129344894D01*
X137469894Y-129495209D01*
X137469890Y-129495214D01*
X137350318Y-129659793D01*
X137294989Y-129702459D01*
X137225375Y-129708438D01*
X137163580Y-129675833D01*
X137149682Y-129659793D01*
X137030109Y-129495214D01*
X137030105Y-129495209D01*
X136879786Y-129344890D01*
X136707820Y-129219951D01*
X136518414Y-129123444D01*
X136518413Y-129123443D01*
X136518412Y-129123443D01*
X136316243Y-129057754D01*
X136316241Y-129057753D01*
X136316240Y-129057753D01*
X136111830Y-129025378D01*
X136106287Y-129024500D01*
X135893713Y-129024500D01*
X135888170Y-129025378D01*
X135683760Y-129057753D01*
X135481585Y-129123444D01*
X135292179Y-129219951D01*
X135120213Y-129344890D01*
X134969890Y-129495213D01*
X134844951Y-129667179D01*
X134748444Y-129856585D01*
X134682753Y-130058760D01*
X134649500Y-130268713D01*
X129700977Y-130268713D01*
X129618769Y-130207173D01*
X129177753Y-129877033D01*
X129174257Y-129874318D01*
X128302132Y-129171515D01*
X128298735Y-129168676D01*
X127452264Y-128435204D01*
X127448971Y-128432246D01*
X126629207Y-127669020D01*
X126626022Y-127665946D01*
X125834053Y-126873977D01*
X125830979Y-126870792D01*
X125067753Y-126051028D01*
X125064795Y-126047735D01*
X124331323Y-125201264D01*
X124328484Y-125197867D01*
X123625681Y-124325742D01*
X123622966Y-124322246D01*
X123495190Y-124151557D01*
X122951749Y-123425604D01*
X122949187Y-123422052D01*
X122310378Y-122501992D01*
X122307919Y-122498311D01*
X122304964Y-122493713D01*
X125649500Y-122493713D01*
X125649500Y-123006287D01*
X125682754Y-123216243D01*
X125735381Y-123378213D01*
X125748444Y-123418414D01*
X125844951Y-123607820D01*
X125969890Y-123779786D01*
X126120213Y-123930109D01*
X126292179Y-124055048D01*
X126292181Y-124055049D01*
X126292184Y-124055051D01*
X126481588Y-124151557D01*
X126683757Y-124217246D01*
X126893713Y-124250500D01*
X126893714Y-124250500D01*
X127106286Y-124250500D01*
X127106287Y-124250500D01*
X127316243Y-124217246D01*
X127518412Y-124151557D01*
X127707816Y-124055051D01*
X127879792Y-123930104D01*
X128018604Y-123791291D01*
X128079923Y-123757809D01*
X128149615Y-123762793D01*
X128205549Y-123804664D01*
X128211821Y-123813878D01*
X128215185Y-123819333D01*
X128215186Y-123819334D01*
X128307288Y-123968656D01*
X128431344Y-124092712D01*
X128580666Y-124184814D01*
X128747203Y-124239999D01*
X128849991Y-124250500D01*
X130150008Y-124250499D01*
X130252797Y-124239999D01*
X130419334Y-124184814D01*
X130568656Y-124092712D01*
X130692712Y-123968656D01*
X130722012Y-123921153D01*
X138199500Y-123921153D01*
X138199500Y-124078846D01*
X138230261Y-124233489D01*
X138230264Y-124233501D01*
X138290602Y-124379172D01*
X138290609Y-124379185D01*
X138378210Y-124510288D01*
X138378213Y-124510292D01*
X138489707Y-124621786D01*
X138489711Y-124621789D01*
X138620814Y-124709390D01*
X138620827Y-124709397D01*
X138766498Y-124769735D01*
X138766503Y-124769737D01*
X138921153Y-124800499D01*
X138921156Y-124800500D01*
X138921158Y-124800500D01*
X139078844Y-124800500D01*
X139078845Y-124800499D01*
X139233497Y-124769737D01*
X139379179Y-124709394D01*
X139510289Y-124621789D01*
X139621789Y-124510289D01*
X139709394Y-124379179D01*
X139769737Y-124233497D01*
X139800500Y-124078842D01*
X139800500Y-123921158D01*
X139800500Y-123921155D01*
X139800499Y-123921153D01*
X142199500Y-123921153D01*
X142199500Y-124078846D01*
X142230261Y-124233489D01*
X142230264Y-124233501D01*
X142290602Y-124379172D01*
X142290609Y-124379185D01*
X142378210Y-124510288D01*
X142378213Y-124510292D01*
X142489707Y-124621786D01*
X142489711Y-124621789D01*
X142620814Y-124709390D01*
X142620827Y-124709397D01*
X142766498Y-124769735D01*
X142766503Y-124769737D01*
X142921153Y-124800499D01*
X142921156Y-124800500D01*
X142921158Y-124800500D01*
X142933204Y-124800500D01*
X142995203Y-124817112D01*
X143067481Y-124858842D01*
X143220208Y-124899766D01*
X143220210Y-124899766D01*
X143385919Y-124899766D01*
X143385935Y-124899765D01*
X144969499Y-124899765D01*
X145036538Y-124919450D01*
X145038390Y-124920663D01*
X145170079Y-125008655D01*
X145170092Y-125008662D01*
X145315763Y-125069000D01*
X145315768Y-125069002D01*
X145470418Y-125099764D01*
X145470421Y-125099765D01*
X145470423Y-125099765D01*
X145628109Y-125099765D01*
X145628110Y-125099764D01*
X145782762Y-125069002D01*
X145928444Y-125008659D01*
X146059554Y-124921054D01*
X146171054Y-124809554D01*
X146258659Y-124678444D01*
X146319002Y-124532762D01*
X146349765Y-124378107D01*
X146349765Y-124220423D01*
X146349765Y-124220420D01*
X146343566Y-124189258D01*
X146343566Y-124189257D01*
X146339965Y-124171153D01*
X150449500Y-124171153D01*
X150449500Y-124328846D01*
X150480261Y-124483489D01*
X150480264Y-124483501D01*
X150540602Y-124629172D01*
X150540609Y-124629185D01*
X150628210Y-124760288D01*
X150628213Y-124760292D01*
X150739707Y-124871786D01*
X150739711Y-124871789D01*
X150870814Y-124959390D01*
X150870827Y-124959397D01*
X150989748Y-125008655D01*
X151016503Y-125019737D01*
X151171153Y-125050499D01*
X151171156Y-125050500D01*
X151171158Y-125050500D01*
X151328844Y-125050500D01*
X151328845Y-125050499D01*
X151483497Y-125019737D01*
X151629179Y-124959394D01*
X151686559Y-124921054D01*
X151760875Y-124871398D01*
X151827553Y-124850520D01*
X151829766Y-124850500D01*
X153663331Y-124850500D01*
X153663347Y-124850501D01*
X153670943Y-124850501D01*
X153829054Y-124850501D01*
X153829057Y-124850501D01*
X153981785Y-124809577D01*
X153981786Y-124809575D01*
X153989635Y-124807473D01*
X153989820Y-124808165D01*
X154028364Y-124800500D01*
X154078844Y-124800500D01*
X154078845Y-124800499D01*
X154233497Y-124769737D01*
X154379179Y-124709394D01*
X154510289Y-124621789D01*
X154621789Y-124510289D01*
X154709394Y-124379179D01*
X154769737Y-124233497D01*
X154800500Y-124078842D01*
X154800500Y-123921158D01*
X154800500Y-123921155D01*
X154800499Y-123921153D01*
X157199500Y-123921153D01*
X157199500Y-124078846D01*
X157230261Y-124233489D01*
X157230264Y-124233501D01*
X157290602Y-124379172D01*
X157290609Y-124379185D01*
X157378210Y-124510288D01*
X157378213Y-124510292D01*
X157489707Y-124621786D01*
X157489711Y-124621789D01*
X157620814Y-124709390D01*
X157620827Y-124709397D01*
X157766498Y-124769735D01*
X157766503Y-124769737D01*
X157921153Y-124800499D01*
X157921156Y-124800500D01*
X157921158Y-124800500D01*
X158078844Y-124800500D01*
X158078845Y-124800499D01*
X158233497Y-124769737D01*
X158379179Y-124709394D01*
X158510289Y-124621789D01*
X158621789Y-124510289D01*
X158709394Y-124379179D01*
X158769737Y-124233497D01*
X158800500Y-124078842D01*
X158800500Y-123921158D01*
X158800500Y-123921155D01*
X158800499Y-123921153D01*
X158790486Y-123870814D01*
X158769737Y-123766503D01*
X158766136Y-123757809D01*
X158709397Y-123620827D01*
X158709390Y-123620814D01*
X158621789Y-123489711D01*
X158621786Y-123489707D01*
X158510292Y-123378213D01*
X158510288Y-123378210D01*
X158379185Y-123290609D01*
X158379172Y-123290602D01*
X158233501Y-123230264D01*
X158233489Y-123230261D01*
X158078845Y-123199500D01*
X158078842Y-123199500D01*
X157921158Y-123199500D01*
X157921155Y-123199500D01*
X157766510Y-123230261D01*
X157766498Y-123230264D01*
X157620827Y-123290602D01*
X157620814Y-123290609D01*
X157489711Y-123378210D01*
X157489707Y-123378213D01*
X157378213Y-123489707D01*
X157378210Y-123489711D01*
X157290609Y-123620814D01*
X157290602Y-123620827D01*
X157230264Y-123766498D01*
X157230261Y-123766510D01*
X157199500Y-123921153D01*
X154800499Y-123921153D01*
X154790486Y-123870814D01*
X154769737Y-123766503D01*
X154766136Y-123757809D01*
X154709397Y-123620827D01*
X154709390Y-123620814D01*
X154621789Y-123489711D01*
X154621786Y-123489707D01*
X154510292Y-123378213D01*
X154510288Y-123378210D01*
X154379185Y-123290609D01*
X154379172Y-123290602D01*
X154233501Y-123230264D01*
X154233489Y-123230261D01*
X154078845Y-123199500D01*
X154078842Y-123199500D01*
X153921158Y-123199500D01*
X153921155Y-123199500D01*
X153766510Y-123230261D01*
X153766498Y-123230264D01*
X153620827Y-123290602D01*
X153620814Y-123290609D01*
X153489711Y-123378210D01*
X153489707Y-123378213D01*
X153378210Y-123489710D01*
X153308266Y-123594391D01*
X153254654Y-123639196D01*
X153205164Y-123649500D01*
X151829766Y-123649500D01*
X151762727Y-123629815D01*
X151760875Y-123628602D01*
X151629185Y-123540609D01*
X151629172Y-123540602D01*
X151483501Y-123480264D01*
X151483489Y-123480261D01*
X151328845Y-123449500D01*
X151328842Y-123449500D01*
X151171158Y-123449500D01*
X151171155Y-123449500D01*
X151016510Y-123480261D01*
X151016498Y-123480264D01*
X150870827Y-123540602D01*
X150870814Y-123540609D01*
X150739711Y-123628210D01*
X150739707Y-123628213D01*
X150628213Y-123739707D01*
X150628210Y-123739711D01*
X150540609Y-123870814D01*
X150540602Y-123870827D01*
X150480264Y-124016498D01*
X150480261Y-124016510D01*
X150449500Y-124171153D01*
X146339965Y-124171153D01*
X146332078Y-124131509D01*
X146319002Y-124065768D01*
X146278778Y-123968657D01*
X146258662Y-123920092D01*
X146258655Y-123920079D01*
X146171054Y-123788976D01*
X146171051Y-123788972D01*
X146059557Y-123677478D01*
X146059553Y-123677475D01*
X145928450Y-123589874D01*
X145928437Y-123589867D01*
X145782766Y-123529529D01*
X145782754Y-123529526D01*
X145628110Y-123498765D01*
X145628107Y-123498765D01*
X145470423Y-123498765D01*
X145470420Y-123498765D01*
X145315775Y-123529526D01*
X145315763Y-123529529D01*
X145170092Y-123589867D01*
X145170079Y-123589874D01*
X145038390Y-123677867D01*
X144971712Y-123698745D01*
X144969499Y-123698765D01*
X143824533Y-123698765D01*
X143757494Y-123679080D01*
X143711739Y-123626276D01*
X143709992Y-123622266D01*
X143709394Y-123620821D01*
X143709391Y-123620816D01*
X143709390Y-123620814D01*
X143621789Y-123489711D01*
X143621786Y-123489707D01*
X143510292Y-123378213D01*
X143510288Y-123378210D01*
X143379185Y-123290609D01*
X143379172Y-123290602D01*
X143233501Y-123230264D01*
X143233489Y-123230261D01*
X143078845Y-123199500D01*
X143078842Y-123199500D01*
X142921158Y-123199500D01*
X142921155Y-123199500D01*
X142766510Y-123230261D01*
X142766498Y-123230264D01*
X142620827Y-123290602D01*
X142620814Y-123290609D01*
X142489711Y-123378210D01*
X142489707Y-123378213D01*
X142378213Y-123489707D01*
X142378210Y-123489711D01*
X142290609Y-123620814D01*
X142290602Y-123620827D01*
X142230264Y-123766498D01*
X142230261Y-123766510D01*
X142199500Y-123921153D01*
X139800499Y-123921153D01*
X139790486Y-123870814D01*
X139769737Y-123766503D01*
X139766136Y-123757809D01*
X139709397Y-123620827D01*
X139709390Y-123620814D01*
X139621789Y-123489711D01*
X139621786Y-123489707D01*
X139510292Y-123378213D01*
X139510288Y-123378210D01*
X139379185Y-123290609D01*
X139379172Y-123290602D01*
X139233501Y-123230264D01*
X139233489Y-123230261D01*
X139078845Y-123199500D01*
X139078842Y-123199500D01*
X138921158Y-123199500D01*
X138921155Y-123199500D01*
X138766510Y-123230261D01*
X138766498Y-123230264D01*
X138620827Y-123290602D01*
X138620814Y-123290609D01*
X138489711Y-123378210D01*
X138489707Y-123378213D01*
X138378213Y-123489707D01*
X138378210Y-123489711D01*
X138290609Y-123620814D01*
X138290602Y-123620827D01*
X138230264Y-123766498D01*
X138230261Y-123766510D01*
X138199500Y-123921153D01*
X130722012Y-123921153D01*
X130784814Y-123819334D01*
X130839999Y-123652797D01*
X130850500Y-123550009D01*
X130850499Y-121949992D01*
X130839999Y-121847203D01*
X130784814Y-121680666D01*
X130692712Y-121531344D01*
X130582521Y-121421153D01*
X141699500Y-121421153D01*
X141699500Y-121578846D01*
X141730261Y-121733489D01*
X141730264Y-121733501D01*
X141790602Y-121879172D01*
X141790609Y-121879185D01*
X141878210Y-122010288D01*
X141878213Y-122010292D01*
X141989707Y-122121786D01*
X141989711Y-122121789D01*
X142120814Y-122209390D01*
X142120827Y-122209397D01*
X142266498Y-122269735D01*
X142266503Y-122269737D01*
X142421153Y-122300499D01*
X142421156Y-122300500D01*
X142421158Y-122300500D01*
X142578844Y-122300500D01*
X142578845Y-122300499D01*
X142733497Y-122269737D01*
X142879179Y-122209394D01*
X143010289Y-122121789D01*
X143121789Y-122010289D01*
X143209394Y-121879179D01*
X143269737Y-121733497D01*
X143300500Y-121578842D01*
X143300500Y-121421158D01*
X143300500Y-121421155D01*
X143300499Y-121421153D01*
X153699500Y-121421153D01*
X153699500Y-121578846D01*
X153730261Y-121733489D01*
X153730264Y-121733501D01*
X153790602Y-121879172D01*
X153790609Y-121879185D01*
X153878210Y-122010288D01*
X153878213Y-122010292D01*
X153989707Y-122121786D01*
X153989711Y-122121789D01*
X154120814Y-122209390D01*
X154120827Y-122209397D01*
X154266498Y-122269735D01*
X154266503Y-122269737D01*
X154421153Y-122300499D01*
X154421156Y-122300500D01*
X154421158Y-122300500D01*
X154578844Y-122300500D01*
X154578845Y-122300499D01*
X154733497Y-122269737D01*
X154879179Y-122209394D01*
X155010289Y-122121789D01*
X155121789Y-122010289D01*
X155209394Y-121879179D01*
X155269737Y-121733497D01*
X155300500Y-121578842D01*
X155300500Y-121421158D01*
X155300500Y-121421155D01*
X155300499Y-121421153D01*
X155279421Y-121315187D01*
X155269737Y-121266503D01*
X155262694Y-121249500D01*
X155209397Y-121120827D01*
X155209390Y-121120814D01*
X155121789Y-120989711D01*
X155121786Y-120989707D01*
X155010292Y-120878213D01*
X155010288Y-120878210D01*
X154879185Y-120790609D01*
X154879172Y-120790602D01*
X154733501Y-120730264D01*
X154733489Y-120730261D01*
X154578845Y-120699500D01*
X154578842Y-120699500D01*
X154421158Y-120699500D01*
X154421155Y-120699500D01*
X154266510Y-120730261D01*
X154266498Y-120730264D01*
X154120827Y-120790602D01*
X154120814Y-120790609D01*
X153989711Y-120878210D01*
X153989707Y-120878213D01*
X153878213Y-120989707D01*
X153878210Y-120989711D01*
X153790609Y-121120814D01*
X153790602Y-121120827D01*
X153730264Y-121266498D01*
X153730261Y-121266510D01*
X153699500Y-121421153D01*
X143300499Y-121421153D01*
X143279421Y-121315187D01*
X143269737Y-121266503D01*
X143262694Y-121249500D01*
X143209397Y-121120827D01*
X143209390Y-121120814D01*
X143121789Y-120989711D01*
X143121786Y-120989707D01*
X143010292Y-120878213D01*
X143010288Y-120878210D01*
X142879185Y-120790609D01*
X142879172Y-120790602D01*
X142733501Y-120730264D01*
X142733489Y-120730261D01*
X142578845Y-120699500D01*
X142578842Y-120699500D01*
X142421158Y-120699500D01*
X142421155Y-120699500D01*
X142266510Y-120730261D01*
X142266498Y-120730264D01*
X142120827Y-120790602D01*
X142120814Y-120790609D01*
X141989711Y-120878210D01*
X141989707Y-120878213D01*
X141878213Y-120989707D01*
X141878210Y-120989711D01*
X141790609Y-121120814D01*
X141790602Y-121120827D01*
X141730264Y-121266498D01*
X141730261Y-121266510D01*
X141699500Y-121421153D01*
X130582521Y-121421153D01*
X130568656Y-121407288D01*
X130419334Y-121315186D01*
X130252797Y-121260001D01*
X130252795Y-121260000D01*
X130150010Y-121249500D01*
X128849998Y-121249500D01*
X128849981Y-121249501D01*
X128747203Y-121260000D01*
X128747200Y-121260001D01*
X128580668Y-121315185D01*
X128580663Y-121315187D01*
X128431342Y-121407289D01*
X128307289Y-121531342D01*
X128211821Y-121686121D01*
X128159873Y-121732845D01*
X128090910Y-121744068D01*
X128026828Y-121716224D01*
X128018601Y-121708705D01*
X127879786Y-121569890D01*
X127707820Y-121444951D01*
X127518414Y-121348444D01*
X127518413Y-121348443D01*
X127518412Y-121348443D01*
X127316243Y-121282754D01*
X127316241Y-121282753D01*
X127316240Y-121282753D01*
X127154957Y-121257208D01*
X127106287Y-121249500D01*
X126893713Y-121249500D01*
X126845042Y-121257208D01*
X126683760Y-121282753D01*
X126481585Y-121348444D01*
X126292179Y-121444951D01*
X126120213Y-121569890D01*
X125969890Y-121720213D01*
X125844951Y-121892179D01*
X125748444Y-122081585D01*
X125682753Y-122283760D01*
X125680102Y-122300499D01*
X125649500Y-122493713D01*
X122304964Y-122493713D01*
X121702402Y-121556107D01*
X121700075Y-121552342D01*
X121248113Y-120790602D01*
X121128516Y-120589033D01*
X121126336Y-120585203D01*
X121049827Y-120445088D01*
X120589570Y-119602189D01*
X120587518Y-119598266D01*
X120086153Y-118596665D01*
X120084243Y-118592672D01*
X119618977Y-117573881D01*
X119617210Y-117569823D01*
X119456407Y-117181610D01*
X119188569Y-116534994D01*
X119186972Y-116530933D01*
X119137259Y-116397648D01*
X173949500Y-116397648D01*
X173949500Y-116602351D01*
X173981522Y-116804534D01*
X174044781Y-116999223D01*
X174137715Y-117181613D01*
X174258028Y-117347213D01*
X174402786Y-117491971D01*
X174512738Y-117571854D01*
X174568390Y-117612287D01*
X174684607Y-117671503D01*
X174750776Y-117705218D01*
X174750778Y-117705218D01*
X174750781Y-117705220D01*
X174855137Y-117739127D01*
X174945465Y-117768477D01*
X175046557Y-117784488D01*
X175147648Y-117800500D01*
X175147649Y-117800500D01*
X175352351Y-117800500D01*
X175352352Y-117800500D01*
X175554534Y-117768477D01*
X175749219Y-117705220D01*
X175931610Y-117612287D01*
X176024590Y-117544732D01*
X176097213Y-117491971D01*
X176097215Y-117491968D01*
X176097219Y-117491966D01*
X176241966Y-117347219D01*
X176241968Y-117347215D01*
X176241971Y-117347213D01*
X176294732Y-117274590D01*
X176362287Y-117181610D01*
X176455220Y-116999219D01*
X176518477Y-116804534D01*
X176550500Y-116602352D01*
X176550500Y-116397648D01*
X176518477Y-116195466D01*
X176455220Y-116000781D01*
X176455218Y-116000778D01*
X176455218Y-116000776D01*
X176421503Y-115934607D01*
X176362287Y-115818390D01*
X176306766Y-115741971D01*
X176241971Y-115652786D01*
X176097213Y-115508028D01*
X175931613Y-115387715D01*
X175931612Y-115387714D01*
X175931610Y-115387713D01*
X175874653Y-115358691D01*
X175749223Y-115294781D01*
X175554534Y-115231522D01*
X175379995Y-115203878D01*
X175352352Y-115199500D01*
X175147648Y-115199500D01*
X175123329Y-115203351D01*
X174945465Y-115231522D01*
X174750776Y-115294781D01*
X174568386Y-115387715D01*
X174402786Y-115508028D01*
X174258028Y-115652786D01*
X174137715Y-115818386D01*
X174044781Y-116000776D01*
X173981522Y-116195465D01*
X173949500Y-116397648D01*
X119137259Y-116397648D01*
X118795525Y-115481424D01*
X118794079Y-115477322D01*
X118517937Y-114647648D01*
X122199500Y-114647648D01*
X122199500Y-114852351D01*
X122231522Y-115054534D01*
X122294781Y-115249223D01*
X122387715Y-115431613D01*
X122508028Y-115597213D01*
X122652786Y-115741971D01*
X122757970Y-115818390D01*
X122818390Y-115862287D01*
X122934607Y-115921503D01*
X123000776Y-115955218D01*
X123000778Y-115955218D01*
X123000781Y-115955220D01*
X123105137Y-115989127D01*
X123195465Y-116018477D01*
X123296557Y-116034488D01*
X123397648Y-116050500D01*
X123397649Y-116050500D01*
X123602351Y-116050500D01*
X123602352Y-116050500D01*
X123804534Y-116018477D01*
X123999219Y-115955220D01*
X124181610Y-115862287D01*
X124274590Y-115794732D01*
X124347213Y-115741971D01*
X124347215Y-115741968D01*
X124347219Y-115741966D01*
X124491966Y-115597219D01*
X124491968Y-115597215D01*
X124491971Y-115597213D01*
X124556762Y-115508034D01*
X124612287Y-115431610D01*
X124705220Y-115249219D01*
X124768477Y-115054534D01*
X124800500Y-114852352D01*
X124800500Y-114647648D01*
X124768477Y-114445466D01*
X124768476Y-114445462D01*
X124768476Y-114445461D01*
X124710272Y-114266329D01*
X124710271Y-114266328D01*
X124705220Y-114250781D01*
X124612287Y-114068390D01*
X124604556Y-114057749D01*
X124491971Y-113902786D01*
X124347213Y-113758028D01*
X124181613Y-113637715D01*
X124181612Y-113637714D01*
X124181610Y-113637713D01*
X124108615Y-113600520D01*
X123999223Y-113544781D01*
X123804534Y-113481522D01*
X123629995Y-113453878D01*
X123602352Y-113449500D01*
X123397648Y-113449500D01*
X123373329Y-113453351D01*
X123195465Y-113481522D01*
X123000776Y-113544781D01*
X122818386Y-113637715D01*
X122652786Y-113758028D01*
X122508028Y-113902786D01*
X122387715Y-114068386D01*
X122294781Y-114250776D01*
X122231522Y-114445465D01*
X122199500Y-114647648D01*
X118517937Y-114647648D01*
X118472123Y-114510000D01*
X118440368Y-114414590D01*
X118439045Y-114410366D01*
X118338632Y-114068390D01*
X118123481Y-113335654D01*
X118122317Y-113331411D01*
X118078282Y-113158884D01*
X117845321Y-112246152D01*
X117844306Y-112241856D01*
X117770283Y-111901577D01*
X126249500Y-111901577D01*
X126249500Y-112098422D01*
X126280290Y-112292826D01*
X126341117Y-112480029D01*
X126412858Y-112620827D01*
X126430476Y-112655405D01*
X126546172Y-112814646D01*
X126685354Y-112953828D01*
X126844595Y-113069524D01*
X126862883Y-113078842D01*
X127019970Y-113158882D01*
X127019972Y-113158882D01*
X127019975Y-113158884D01*
X127120317Y-113191487D01*
X127207173Y-113219709D01*
X127401578Y-113250500D01*
X127401583Y-113250500D01*
X127598422Y-113250500D01*
X127792826Y-113219709D01*
X127980025Y-113158884D01*
X128155405Y-113069524D01*
X128314646Y-112953828D01*
X128347321Y-112921153D01*
X158699500Y-112921153D01*
X158699500Y-113078846D01*
X158730261Y-113233489D01*
X158730264Y-113233501D01*
X158790602Y-113379172D01*
X158790609Y-113379185D01*
X158878210Y-113510288D01*
X158878213Y-113510292D01*
X158989707Y-113621786D01*
X158989711Y-113621789D01*
X159120814Y-113709390D01*
X159120827Y-113709397D01*
X159238249Y-113758034D01*
X159266503Y-113769737D01*
X159421153Y-113800499D01*
X159421156Y-113800500D01*
X159421158Y-113800500D01*
X159578844Y-113800500D01*
X159578845Y-113800499D01*
X159733497Y-113769737D01*
X159879179Y-113709394D01*
X159925839Y-113678217D01*
X160010875Y-113621398D01*
X160077553Y-113600520D01*
X160079766Y-113600500D01*
X164011860Y-113600500D01*
X164011876Y-113600501D01*
X164019472Y-113600501D01*
X164177583Y-113600501D01*
X164177586Y-113600501D01*
X164330314Y-113559577D01*
X164330317Y-113559575D01*
X164337808Y-113557568D01*
X164407658Y-113559231D01*
X164457583Y-113589662D01*
X164489707Y-113621786D01*
X164489711Y-113621789D01*
X164620814Y-113709390D01*
X164620827Y-113709397D01*
X164738249Y-113758034D01*
X164766503Y-113769737D01*
X164921153Y-113800499D01*
X164921156Y-113800500D01*
X164921158Y-113800500D01*
X165078844Y-113800500D01*
X165078845Y-113800499D01*
X165233497Y-113769737D01*
X165379179Y-113709394D01*
X165510289Y-113621789D01*
X165621789Y-113510289D01*
X165709394Y-113379179D01*
X165769737Y-113233497D01*
X165800500Y-113078842D01*
X165800500Y-112921158D01*
X165800500Y-112921155D01*
X165800499Y-112921153D01*
X165781847Y-112827385D01*
X165769737Y-112766503D01*
X165739737Y-112694075D01*
X165709397Y-112620827D01*
X165709390Y-112620814D01*
X165671021Y-112563391D01*
X165650143Y-112496714D01*
X165668627Y-112429333D01*
X165720606Y-112382643D01*
X165774123Y-112370500D01*
X168184780Y-112370500D01*
X168251819Y-112390185D01*
X168297574Y-112442989D01*
X168307518Y-112512147D01*
X168295265Y-112550795D01*
X168248904Y-112641782D01*
X168183242Y-112843869D01*
X168183242Y-112843872D01*
X168150000Y-113053753D01*
X168150000Y-113266246D01*
X168183242Y-113476127D01*
X168183242Y-113476130D01*
X168248904Y-113678217D01*
X168345375Y-113867550D01*
X168384728Y-113921716D01*
X169017036Y-113289407D01*
X169034075Y-113352993D01*
X169099901Y-113467007D01*
X169192993Y-113560099D01*
X169307007Y-113625925D01*
X169370590Y-113642962D01*
X168738282Y-114275269D01*
X168738282Y-114275270D01*
X168792449Y-114314624D01*
X168981782Y-114411095D01*
X169183870Y-114476757D01*
X169393754Y-114510000D01*
X169606246Y-114510000D01*
X169816127Y-114476757D01*
X169816130Y-114476757D01*
X170018217Y-114411095D01*
X170207554Y-114314622D01*
X170261716Y-114275270D01*
X170261717Y-114275270D01*
X169629408Y-113642962D01*
X169692993Y-113625925D01*
X169807007Y-113560099D01*
X169900099Y-113467007D01*
X169965925Y-113352993D01*
X169982962Y-113289409D01*
X170615270Y-113921717D01*
X170615270Y-113921716D01*
X170654622Y-113867554D01*
X170751095Y-113678217D01*
X170816757Y-113476130D01*
X170816757Y-113476127D01*
X170850000Y-113266246D01*
X170850000Y-113053753D01*
X170816757Y-112843872D01*
X170816757Y-112843869D01*
X170751095Y-112641782D01*
X170704735Y-112550795D01*
X170691839Y-112482126D01*
X170718115Y-112417385D01*
X170775222Y-112377128D01*
X170815220Y-112370500D01*
X171143331Y-112370500D01*
X171143347Y-112370501D01*
X171150943Y-112370501D01*
X171309054Y-112370501D01*
X171309057Y-112370501D01*
X171461785Y-112329577D01*
X171529284Y-112290606D01*
X171598716Y-112250520D01*
X171710520Y-112138716D01*
X171710520Y-112138714D01*
X171720724Y-112128511D01*
X171720727Y-112128506D01*
X172412322Y-111436912D01*
X172473641Y-111403430D01*
X172543333Y-111408414D01*
X172587680Y-111436915D01*
X173515139Y-112364374D01*
X173515149Y-112364385D01*
X173519479Y-112368715D01*
X173519480Y-112368716D01*
X173631284Y-112480520D01*
X173631286Y-112480521D01*
X173631290Y-112480524D01*
X173753005Y-112550795D01*
X173768216Y-112559577D01*
X173880019Y-112589534D01*
X173920942Y-112600500D01*
X173920943Y-112600500D01*
X174327404Y-112600500D01*
X174394443Y-112620185D01*
X174427722Y-112651614D01*
X174430475Y-112655403D01*
X174430476Y-112655405D01*
X174546172Y-112814646D01*
X174685354Y-112953828D01*
X174844595Y-113069524D01*
X174862883Y-113078842D01*
X175019970Y-113158882D01*
X175019972Y-113158882D01*
X175019975Y-113158884D01*
X175120317Y-113191487D01*
X175207173Y-113219709D01*
X175401578Y-113250500D01*
X175401583Y-113250500D01*
X175598422Y-113250500D01*
X175792826Y-113219709D01*
X175980025Y-113158884D01*
X176155405Y-113069524D01*
X176314646Y-112953828D01*
X176453828Y-112814646D01*
X176569524Y-112655405D01*
X176655603Y-112486463D01*
X176658882Y-112480029D01*
X176658882Y-112480028D01*
X176658884Y-112480025D01*
X176719709Y-112292826D01*
X176726410Y-112250518D01*
X176750500Y-112098422D01*
X176750500Y-111901577D01*
X176719709Y-111707173D01*
X176658882Y-111519970D01*
X176571888Y-111349235D01*
X176569524Y-111344595D01*
X176453828Y-111185354D01*
X176314646Y-111046172D01*
X176155405Y-110930476D01*
X176100499Y-110902500D01*
X175980029Y-110841117D01*
X175792826Y-110780290D01*
X175598422Y-110749500D01*
X175598417Y-110749500D01*
X175401583Y-110749500D01*
X175401578Y-110749500D01*
X175207173Y-110780290D01*
X175019970Y-110841117D01*
X174844594Y-110930476D01*
X174753741Y-110996485D01*
X174685354Y-111046172D01*
X174685352Y-111046174D01*
X174685351Y-111046174D01*
X174546174Y-111185351D01*
X174546174Y-111185352D01*
X174546172Y-111185354D01*
X174430477Y-111344594D01*
X174427722Y-111348386D01*
X174423389Y-111351726D01*
X174421117Y-111356703D01*
X174396017Y-111372833D01*
X174372392Y-111391051D01*
X174365720Y-111392303D01*
X174362339Y-111394477D01*
X174327404Y-111399500D01*
X174300097Y-111399500D01*
X174233058Y-111379815D01*
X174212416Y-111363181D01*
X173334574Y-110485339D01*
X173301089Y-110424016D01*
X173300638Y-110421849D01*
X173269738Y-110266510D01*
X173269738Y-110266508D01*
X173269737Y-110266503D01*
X173244753Y-110206185D01*
X173209397Y-110120827D01*
X173209390Y-110120814D01*
X173121789Y-109989711D01*
X173121786Y-109989707D01*
X173010292Y-109878213D01*
X173010288Y-109878210D01*
X172879185Y-109790609D01*
X172879172Y-109790602D01*
X172733501Y-109730264D01*
X172733489Y-109730261D01*
X172578845Y-109699500D01*
X172578842Y-109699500D01*
X172421158Y-109699500D01*
X172421155Y-109699500D01*
X172266510Y-109730261D01*
X172266498Y-109730264D01*
X172120827Y-109790602D01*
X172120814Y-109790609D01*
X171989711Y-109878210D01*
X171989707Y-109878213D01*
X171878213Y-109989707D01*
X171878210Y-109989711D01*
X171790609Y-110120814D01*
X171790602Y-110120827D01*
X171730264Y-110266498D01*
X171730261Y-110266508D01*
X171699361Y-110421850D01*
X171666976Y-110483761D01*
X171665425Y-110485339D01*
X171017584Y-111133181D01*
X170990656Y-111147884D01*
X170964838Y-111164477D01*
X170958637Y-111165368D01*
X170956261Y-111166666D01*
X170929903Y-111169500D01*
X170912127Y-111169500D01*
X170845088Y-111149815D01*
X170799333Y-111097011D01*
X170789389Y-111027853D01*
X170794196Y-111007182D01*
X170817246Y-110936243D01*
X170850500Y-110726287D01*
X170850500Y-110513713D01*
X170817246Y-110303757D01*
X170751557Y-110101588D01*
X170655051Y-109912184D01*
X170655049Y-109912181D01*
X170655048Y-109912179D01*
X170530109Y-109740213D01*
X170379786Y-109589890D01*
X170207820Y-109464951D01*
X170207115Y-109464591D01*
X170199054Y-109460485D01*
X170148259Y-109412512D01*
X170131463Y-109344692D01*
X170153999Y-109278556D01*
X170199054Y-109239515D01*
X170207816Y-109235051D01*
X170256748Y-109199500D01*
X170379786Y-109110109D01*
X170379788Y-109110106D01*
X170379792Y-109110104D01*
X170530104Y-108959792D01*
X170530106Y-108959788D01*
X170530109Y-108959786D01*
X170655048Y-108787820D01*
X170655047Y-108787820D01*
X170655051Y-108787816D01*
X170751557Y-108598412D01*
X170817246Y-108396243D01*
X170850500Y-108186287D01*
X170850500Y-107973713D01*
X170817246Y-107763757D01*
X170751557Y-107561588D01*
X170655051Y-107372184D01*
X170655049Y-107372181D01*
X170655048Y-107372179D01*
X170530109Y-107200213D01*
X170379786Y-107049890D01*
X170207820Y-106924951D01*
X170207115Y-106924591D01*
X170199054Y-106920485D01*
X170148259Y-106872512D01*
X170131463Y-106804692D01*
X170153999Y-106738556D01*
X170199054Y-106699515D01*
X170207816Y-106695051D01*
X170250220Y-106664243D01*
X170379786Y-106570109D01*
X170379788Y-106570106D01*
X170379792Y-106570104D01*
X170530104Y-106419792D01*
X170530106Y-106419788D01*
X170530109Y-106419786D01*
X170655048Y-106247820D01*
X170655047Y-106247820D01*
X170655051Y-106247816D01*
X170751557Y-106058412D01*
X170817246Y-105856243D01*
X170850500Y-105646287D01*
X170850500Y-105433713D01*
X170817246Y-105223757D01*
X170751557Y-105021588D01*
X170655051Y-104832184D01*
X170655049Y-104832181D01*
X170655048Y-104832179D01*
X170530109Y-104660213D01*
X170416569Y-104546673D01*
X170383084Y-104485350D01*
X170388068Y-104415658D01*
X170429940Y-104359725D01*
X170460915Y-104342810D01*
X170592331Y-104293796D01*
X170707546Y-104207546D01*
X170793796Y-104092331D01*
X170844091Y-103957483D01*
X170850500Y-103897873D01*
X170850499Y-102102128D01*
X170844091Y-102042517D01*
X170834388Y-102016503D01*
X170793797Y-101907671D01*
X170793793Y-101907664D01*
X170707547Y-101792455D01*
X170707544Y-101792452D01*
X170592335Y-101706206D01*
X170592328Y-101706202D01*
X170457482Y-101655908D01*
X170457483Y-101655908D01*
X170397883Y-101649501D01*
X170397881Y-101649500D01*
X170397873Y-101649500D01*
X170397864Y-101649500D01*
X168602129Y-101649500D01*
X168602123Y-101649501D01*
X168542516Y-101655908D01*
X168407671Y-101706202D01*
X168407664Y-101706206D01*
X168292455Y-101792452D01*
X168292452Y-101792455D01*
X168206206Y-101907664D01*
X168206202Y-101907671D01*
X168155908Y-102042517D01*
X168153005Y-102069523D01*
X168149501Y-102102123D01*
X168149500Y-102102135D01*
X168149500Y-103897870D01*
X168149501Y-103897876D01*
X168155908Y-103957483D01*
X168206202Y-104092328D01*
X168206206Y-104092335D01*
X168292452Y-104207544D01*
X168292455Y-104207547D01*
X168407664Y-104293793D01*
X168407671Y-104293797D01*
X168539082Y-104342810D01*
X168595016Y-104384681D01*
X168619433Y-104450145D01*
X168604582Y-104518418D01*
X168583431Y-104546673D01*
X168469889Y-104660215D01*
X168344951Y-104832179D01*
X168248444Y-105021585D01*
X168182753Y-105223760D01*
X168149500Y-105433713D01*
X168149500Y-105646286D01*
X168170981Y-105781915D01*
X168182754Y-105856243D01*
X168226452Y-105990732D01*
X168248444Y-106058414D01*
X168344951Y-106247820D01*
X168469890Y-106419786D01*
X168620213Y-106570109D01*
X168792182Y-106695050D01*
X168800946Y-106699516D01*
X168851742Y-106747491D01*
X168868536Y-106815312D01*
X168845998Y-106881447D01*
X168800946Y-106920484D01*
X168792182Y-106924949D01*
X168620213Y-107049890D01*
X168469890Y-107200213D01*
X168344951Y-107372179D01*
X168248444Y-107561585D01*
X168182753Y-107763760D01*
X168149500Y-107973713D01*
X168149500Y-108186286D01*
X168178727Y-108370821D01*
X168182754Y-108396243D01*
X168221831Y-108516510D01*
X168248444Y-108598414D01*
X168344951Y-108787820D01*
X168469890Y-108959786D01*
X168620213Y-109110109D01*
X168792182Y-109235050D01*
X168800946Y-109239516D01*
X168851742Y-109287491D01*
X168868536Y-109355312D01*
X168845998Y-109421447D01*
X168800946Y-109460484D01*
X168792182Y-109464949D01*
X168620213Y-109589890D01*
X168469890Y-109740213D01*
X168344951Y-109912179D01*
X168248444Y-110101585D01*
X168182753Y-110303760D01*
X168149500Y-110513713D01*
X168149500Y-110726286D01*
X168181840Y-110930476D01*
X168182754Y-110936243D01*
X168191869Y-110964297D01*
X168205804Y-111007182D01*
X168207799Y-111077023D01*
X168171719Y-111136856D01*
X168109018Y-111167684D01*
X168087873Y-111169500D01*
X166229097Y-111169500D01*
X166162058Y-111149815D01*
X166116303Y-111097011D01*
X166106359Y-111027853D01*
X166135384Y-110964297D01*
X166141416Y-110957819D01*
X166318945Y-110780290D01*
X166514662Y-110584572D01*
X166575983Y-110551089D01*
X166578150Y-110550638D01*
X166636085Y-110539113D01*
X166733497Y-110519737D01*
X166879179Y-110459394D01*
X167010289Y-110371789D01*
X167121789Y-110260289D01*
X167209394Y-110129179D01*
X167212854Y-110120827D01*
X167245994Y-110040818D01*
X167269737Y-109983497D01*
X167300500Y-109828842D01*
X167300500Y-109671158D01*
X167300500Y-109671155D01*
X167300499Y-109671153D01*
X167284336Y-109589896D01*
X167269737Y-109516503D01*
X167264643Y-109504205D01*
X167209397Y-109370827D01*
X167209390Y-109370814D01*
X167121789Y-109239711D01*
X167121786Y-109239707D01*
X167010292Y-109128213D01*
X167010288Y-109128210D01*
X166879185Y-109040609D01*
X166879172Y-109040602D01*
X166733501Y-108980264D01*
X166733489Y-108980261D01*
X166578845Y-108949500D01*
X166578842Y-108949500D01*
X166421158Y-108949500D01*
X166421155Y-108949500D01*
X166266510Y-108980261D01*
X166266498Y-108980264D01*
X166120827Y-109040602D01*
X166120814Y-109040609D01*
X165989711Y-109128210D01*
X165989707Y-109128213D01*
X165878213Y-109239707D01*
X165878210Y-109239711D01*
X165790609Y-109370814D01*
X165790602Y-109370827D01*
X165730264Y-109516498D01*
X165730261Y-109516508D01*
X165699361Y-109671850D01*
X165666976Y-109733761D01*
X165665425Y-109735339D01*
X164985339Y-110415425D01*
X164924016Y-110448910D01*
X164921850Y-110449361D01*
X164766508Y-110480261D01*
X164766498Y-110480264D01*
X164620827Y-110540602D01*
X164620814Y-110540609D01*
X164489711Y-110628210D01*
X164489707Y-110628213D01*
X164378213Y-110739707D01*
X164378210Y-110739711D01*
X164290609Y-110870814D01*
X164290602Y-110870827D01*
X164230264Y-111016498D01*
X164230261Y-111016510D01*
X164199500Y-111171153D01*
X164199500Y-111328846D01*
X164230261Y-111483489D01*
X164230264Y-111483501D01*
X164290602Y-111629172D01*
X164290609Y-111629185D01*
X164366050Y-111742090D01*
X164386928Y-111808768D01*
X164368443Y-111876148D01*
X164350630Y-111898662D01*
X163886111Y-112363182D01*
X163824790Y-112396666D01*
X163798432Y-112399500D01*
X160079766Y-112399500D01*
X160012727Y-112379815D01*
X160010875Y-112378602D01*
X159879185Y-112290609D01*
X159879172Y-112290602D01*
X159733501Y-112230264D01*
X159733489Y-112230261D01*
X159578845Y-112199500D01*
X159578842Y-112199500D01*
X159421158Y-112199500D01*
X159421155Y-112199500D01*
X159266510Y-112230261D01*
X159266498Y-112230264D01*
X159120827Y-112290602D01*
X159120814Y-112290609D01*
X158989711Y-112378210D01*
X158989707Y-112378213D01*
X158878213Y-112489707D01*
X158878210Y-112489711D01*
X158790609Y-112620814D01*
X158790602Y-112620827D01*
X158730264Y-112766498D01*
X158730261Y-112766510D01*
X158699500Y-112921153D01*
X128347321Y-112921153D01*
X128453828Y-112814646D01*
X128569524Y-112655405D01*
X128655603Y-112486463D01*
X128658882Y-112480029D01*
X128658882Y-112480028D01*
X128658884Y-112480025D01*
X128719709Y-112292826D01*
X128726410Y-112250518D01*
X128750500Y-112098422D01*
X128750500Y-111901577D01*
X128719709Y-111707173D01*
X128658882Y-111519970D01*
X128571888Y-111349235D01*
X128569524Y-111344595D01*
X128453828Y-111185354D01*
X128314646Y-111046172D01*
X128260981Y-111007182D01*
X128151614Y-110927721D01*
X128108949Y-110872390D01*
X128100500Y-110827403D01*
X128100500Y-109921153D01*
X161199500Y-109921153D01*
X161199500Y-110078846D01*
X161230261Y-110233489D01*
X161230264Y-110233501D01*
X161290602Y-110379172D01*
X161290609Y-110379185D01*
X161378210Y-110510288D01*
X161378213Y-110510292D01*
X161489707Y-110621786D01*
X161489711Y-110621789D01*
X161620814Y-110709390D01*
X161620827Y-110709397D01*
X161694013Y-110739711D01*
X161766503Y-110769737D01*
X161921153Y-110800499D01*
X161921156Y-110800500D01*
X161921158Y-110800500D01*
X162078844Y-110800500D01*
X162078845Y-110800499D01*
X162233497Y-110769737D01*
X162379179Y-110709394D01*
X162510289Y-110621789D01*
X162621789Y-110510289D01*
X162709394Y-110379179D01*
X162769737Y-110233497D01*
X162800500Y-110078842D01*
X162800500Y-109921158D01*
X162800500Y-109921155D01*
X162800499Y-109921153D01*
X162782137Y-109828842D01*
X162769737Y-109766503D01*
X162769735Y-109766498D01*
X162709397Y-109620827D01*
X162709390Y-109620814D01*
X162621789Y-109489711D01*
X162621786Y-109489707D01*
X162510292Y-109378213D01*
X162510288Y-109378210D01*
X162379185Y-109290609D01*
X162379172Y-109290602D01*
X162233501Y-109230264D01*
X162233489Y-109230261D01*
X162078845Y-109199500D01*
X162078842Y-109199500D01*
X161921158Y-109199500D01*
X161921155Y-109199500D01*
X161766510Y-109230261D01*
X161766498Y-109230264D01*
X161620827Y-109290602D01*
X161620814Y-109290609D01*
X161489711Y-109378210D01*
X161489707Y-109378213D01*
X161378213Y-109489707D01*
X161378210Y-109489711D01*
X161290609Y-109620814D01*
X161290602Y-109620827D01*
X161230264Y-109766498D01*
X161230261Y-109766510D01*
X161199500Y-109921153D01*
X128100500Y-109921153D01*
X128100500Y-109329765D01*
X128120185Y-109262726D01*
X128121398Y-109260874D01*
X128138653Y-109235051D01*
X128209394Y-109129179D01*
X128269737Y-108983497D01*
X128297022Y-108846328D01*
X128300638Y-108828150D01*
X128333023Y-108766239D01*
X128334519Y-108764715D01*
X131118713Y-105980521D01*
X131118716Y-105980520D01*
X131230520Y-105868716D01*
X131280639Y-105781904D01*
X131309577Y-105731785D01*
X131350500Y-105579057D01*
X131350500Y-105420943D01*
X131350500Y-104421153D01*
X161199500Y-104421153D01*
X161199500Y-104578846D01*
X161230261Y-104733489D01*
X161230264Y-104733501D01*
X161290602Y-104879172D01*
X161290609Y-104879185D01*
X161378210Y-105010288D01*
X161378213Y-105010292D01*
X161489707Y-105121786D01*
X161489711Y-105121789D01*
X161620814Y-105209390D01*
X161620827Y-105209397D01*
X161759755Y-105266942D01*
X161766503Y-105269737D01*
X161921153Y-105300499D01*
X161921156Y-105300500D01*
X161921158Y-105300500D01*
X162078844Y-105300500D01*
X162078845Y-105300499D01*
X162233497Y-105269737D01*
X162379179Y-105209394D01*
X162510289Y-105121789D01*
X162621789Y-105010289D01*
X162709394Y-104879179D01*
X162769737Y-104733497D01*
X162800500Y-104578842D01*
X162800500Y-104421158D01*
X162800500Y-104421155D01*
X162800499Y-104421153D01*
X162799406Y-104415658D01*
X162769737Y-104266503D01*
X162769735Y-104266498D01*
X162709397Y-104120827D01*
X162709390Y-104120814D01*
X162621789Y-103989711D01*
X162621786Y-103989707D01*
X162510292Y-103878213D01*
X162510288Y-103878210D01*
X162379185Y-103790609D01*
X162379172Y-103790602D01*
X162233501Y-103730264D01*
X162233489Y-103730261D01*
X162078845Y-103699500D01*
X162078842Y-103699500D01*
X161921158Y-103699500D01*
X161921155Y-103699500D01*
X161766510Y-103730261D01*
X161766498Y-103730264D01*
X161620827Y-103790602D01*
X161620814Y-103790609D01*
X161489711Y-103878210D01*
X161489707Y-103878213D01*
X161378213Y-103989707D01*
X161378210Y-103989711D01*
X161290609Y-104120814D01*
X161290602Y-104120827D01*
X161230264Y-104266498D01*
X161230261Y-104266510D01*
X161199500Y-104421153D01*
X131350500Y-104421153D01*
X131350500Y-102753439D01*
X131370185Y-102686400D01*
X131422989Y-102640645D01*
X131492147Y-102630701D01*
X131555703Y-102659726D01*
X131577602Y-102684548D01*
X131628210Y-102760288D01*
X131628213Y-102760292D01*
X131739707Y-102871786D01*
X131739711Y-102871789D01*
X131870814Y-102959390D01*
X131870827Y-102959397D01*
X132008683Y-103016498D01*
X132016503Y-103019737D01*
X132171153Y-103050499D01*
X132171156Y-103050500D01*
X132171158Y-103050500D01*
X132328844Y-103050500D01*
X132328845Y-103050499D01*
X132483497Y-103019737D01*
X132629179Y-102959394D01*
X132760289Y-102871789D01*
X132871789Y-102760289D01*
X132959394Y-102629179D01*
X133019737Y-102483497D01*
X133050500Y-102328842D01*
X133050500Y-102171158D01*
X133050500Y-102171155D01*
X133050499Y-102171153D01*
X133019737Y-102016503D01*
X133006062Y-101983489D01*
X132959397Y-101870827D01*
X132959390Y-101870814D01*
X132871789Y-101739711D01*
X132871786Y-101739707D01*
X132760292Y-101628213D01*
X132760288Y-101628210D01*
X132629185Y-101540609D01*
X132629172Y-101540602D01*
X132483501Y-101480264D01*
X132483489Y-101480261D01*
X132328845Y-101449500D01*
X132328842Y-101449500D01*
X132171158Y-101449500D01*
X132171155Y-101449500D01*
X132016510Y-101480261D01*
X132016498Y-101480264D01*
X131870827Y-101540602D01*
X131870814Y-101540609D01*
X131739711Y-101628210D01*
X131739707Y-101628213D01*
X131628213Y-101739707D01*
X131628210Y-101739711D01*
X131577602Y-101815451D01*
X131551593Y-101837186D01*
X131526011Y-101859354D01*
X131524872Y-101859517D01*
X131523989Y-101860256D01*
X131490384Y-101864476D01*
X131456853Y-101869298D01*
X131455805Y-101868819D01*
X131454664Y-101868963D01*
X131424120Y-101854349D01*
X131393297Y-101840273D01*
X131392674Y-101839304D01*
X131391637Y-101838808D01*
X131373839Y-101809995D01*
X131355523Y-101781495D01*
X131355307Y-101779995D01*
X131354918Y-101779365D01*
X131350500Y-101746560D01*
X131350500Y-101579765D01*
X131370185Y-101512726D01*
X131371398Y-101510874D01*
X131431347Y-101421155D01*
X131459394Y-101379179D01*
X131462854Y-101370827D01*
X131495162Y-101292826D01*
X131519737Y-101233497D01*
X131550500Y-101078842D01*
X131550500Y-100921158D01*
X131550500Y-100921155D01*
X131550499Y-100921153D01*
X131545009Y-100893552D01*
X131519737Y-100766503D01*
X131517163Y-100760289D01*
X131459397Y-100620827D01*
X131459390Y-100620814D01*
X131371789Y-100489711D01*
X131371786Y-100489707D01*
X131260292Y-100378213D01*
X131260288Y-100378210D01*
X131129185Y-100290609D01*
X131129172Y-100290602D01*
X130983501Y-100230264D01*
X130983489Y-100230261D01*
X130828845Y-100199500D01*
X130828842Y-100199500D01*
X130671158Y-100199500D01*
X130671155Y-100199500D01*
X130516510Y-100230261D01*
X130516498Y-100230264D01*
X130370827Y-100290602D01*
X130370814Y-100290609D01*
X130239711Y-100378210D01*
X130239707Y-100378213D01*
X130128213Y-100489707D01*
X130128210Y-100489711D01*
X130040609Y-100620814D01*
X130040602Y-100620827D01*
X129980264Y-100766498D01*
X129980261Y-100766510D01*
X129949500Y-100921153D01*
X129949500Y-101078846D01*
X129980261Y-101233489D01*
X129980264Y-101233501D01*
X130040602Y-101379172D01*
X130040609Y-101379185D01*
X130128602Y-101510874D01*
X130149480Y-101577551D01*
X130149500Y-101579765D01*
X130149500Y-105199903D01*
X130129815Y-105266942D01*
X130113181Y-105287584D01*
X127485339Y-107915425D01*
X127424016Y-107948910D01*
X127421850Y-107949361D01*
X127266508Y-107980261D01*
X127266498Y-107980264D01*
X127120827Y-108040602D01*
X127120814Y-108040609D01*
X126989711Y-108128210D01*
X126989707Y-108128213D01*
X126878213Y-108239707D01*
X126878210Y-108239711D01*
X126790609Y-108370814D01*
X126790602Y-108370827D01*
X126730264Y-108516498D01*
X126730261Y-108516510D01*
X126699500Y-108671153D01*
X126699500Y-108828846D01*
X126730261Y-108983489D01*
X126730264Y-108983501D01*
X126790602Y-109129172D01*
X126790609Y-109129185D01*
X126878602Y-109260874D01*
X126899480Y-109327551D01*
X126899500Y-109329765D01*
X126899500Y-110827403D01*
X126879815Y-110894442D01*
X126848386Y-110927721D01*
X126685352Y-111046173D01*
X126546174Y-111185351D01*
X126546174Y-111185352D01*
X126546172Y-111185354D01*
X126496485Y-111253741D01*
X126430476Y-111344594D01*
X126341117Y-111519970D01*
X126280290Y-111707173D01*
X126249500Y-111901577D01*
X117770283Y-111901577D01*
X117606223Y-111147404D01*
X117605363Y-111143083D01*
X117604520Y-111138412D01*
X117406490Y-110040805D01*
X117405785Y-110036448D01*
X117398172Y-109983501D01*
X117266830Y-109070000D01*
X117805138Y-109070000D01*
X118608012Y-109070000D01*
X118590795Y-109079940D01*
X118534940Y-109135795D01*
X118495444Y-109204204D01*
X118475000Y-109280504D01*
X118475000Y-109359496D01*
X118495444Y-109435796D01*
X118534940Y-109504205D01*
X118590795Y-109560060D01*
X118608012Y-109570000D01*
X117805138Y-109570000D01*
X117813430Y-109611690D01*
X117813430Y-109611692D01*
X117888807Y-109793671D01*
X117888814Y-109793684D01*
X117998248Y-109957462D01*
X117998251Y-109957466D01*
X118137533Y-110096748D01*
X118137537Y-110096751D01*
X118301315Y-110206185D01*
X118301328Y-110206192D01*
X118483306Y-110281569D01*
X118483318Y-110281572D01*
X118676504Y-110319999D01*
X118676508Y-110320000D01*
X118925000Y-110320000D01*
X118925000Y-109620000D01*
X119425000Y-109620000D01*
X119425000Y-110320000D01*
X119673492Y-110320000D01*
X119673495Y-110319999D01*
X119866681Y-110281572D01*
X119866693Y-110281569D01*
X120048671Y-110206192D01*
X120048684Y-110206185D01*
X120212462Y-110096751D01*
X120212466Y-110096748D01*
X120351748Y-109957466D01*
X120351751Y-109957462D01*
X120461185Y-109793684D01*
X120461192Y-109793671D01*
X120536569Y-109611692D01*
X120536569Y-109611690D01*
X120544862Y-109570000D01*
X119741988Y-109570000D01*
X119759205Y-109560060D01*
X119815060Y-109504205D01*
X119854556Y-109435796D01*
X119875000Y-109359496D01*
X119875000Y-109280504D01*
X119854556Y-109204204D01*
X119815060Y-109135795D01*
X119759205Y-109079940D01*
X119741988Y-109070000D01*
X120544862Y-109070000D01*
X121835138Y-109070000D01*
X122638012Y-109070000D01*
X122620795Y-109079940D01*
X122564940Y-109135795D01*
X122525444Y-109204204D01*
X122505000Y-109280504D01*
X122505000Y-109359496D01*
X122525444Y-109435796D01*
X122564940Y-109504205D01*
X122620795Y-109560060D01*
X122638012Y-109570000D01*
X121835138Y-109570000D01*
X121843430Y-109611690D01*
X121843430Y-109611692D01*
X121918807Y-109793671D01*
X121918814Y-109793684D01*
X122028248Y-109957462D01*
X122028251Y-109957466D01*
X122167533Y-110096748D01*
X122167537Y-110096751D01*
X122331315Y-110206185D01*
X122331328Y-110206192D01*
X122513306Y-110281569D01*
X122513318Y-110281572D01*
X122706504Y-110319999D01*
X122706508Y-110320000D01*
X123105000Y-110320000D01*
X123105000Y-109620000D01*
X123605000Y-109620000D01*
X123605000Y-110320000D01*
X124003492Y-110320000D01*
X124003495Y-110319999D01*
X124196681Y-110281572D01*
X124196693Y-110281569D01*
X124378671Y-110206192D01*
X124378684Y-110206185D01*
X124542462Y-110096751D01*
X124542466Y-110096748D01*
X124681748Y-109957466D01*
X124681751Y-109957462D01*
X124791185Y-109793684D01*
X124791192Y-109793671D01*
X124866569Y-109611692D01*
X124866569Y-109611690D01*
X124874862Y-109570000D01*
X124071988Y-109570000D01*
X124089205Y-109560060D01*
X124145060Y-109504205D01*
X124184556Y-109435796D01*
X124205000Y-109359496D01*
X124205000Y-109280504D01*
X124184556Y-109204204D01*
X124145060Y-109135795D01*
X124089205Y-109079940D01*
X124071988Y-109070000D01*
X124874862Y-109070000D01*
X124866569Y-109028309D01*
X124866569Y-109028307D01*
X124791192Y-108846328D01*
X124791185Y-108846315D01*
X124681751Y-108682537D01*
X124681748Y-108682533D01*
X124542466Y-108543251D01*
X124542462Y-108543248D01*
X124378684Y-108433814D01*
X124378671Y-108433807D01*
X124196693Y-108358430D01*
X124196681Y-108358427D01*
X124003495Y-108320000D01*
X123605000Y-108320000D01*
X123605000Y-109020000D01*
X123105000Y-109020000D01*
X123105000Y-108424049D01*
X123124685Y-108357010D01*
X123141870Y-108335820D01*
X123153203Y-108324627D01*
X123177665Y-108310505D01*
X123275505Y-108212665D01*
X123344688Y-108092836D01*
X123380500Y-107959183D01*
X123380500Y-107820817D01*
X123344688Y-107687164D01*
X123275505Y-107567335D01*
X123177665Y-107469495D01*
X123177664Y-107469494D01*
X123177661Y-107469492D01*
X123057838Y-107400313D01*
X123057837Y-107400312D01*
X123057836Y-107400312D01*
X122924183Y-107364500D01*
X122785817Y-107364500D01*
X122652164Y-107400312D01*
X122652161Y-107400313D01*
X122532338Y-107469492D01*
X122532333Y-107469496D01*
X122434496Y-107567333D01*
X122434492Y-107567338D01*
X122365313Y-107687161D01*
X122365312Y-107687164D01*
X122329500Y-107820817D01*
X122329500Y-107959183D01*
X122335149Y-107980263D01*
X122365312Y-108092835D01*
X122365313Y-108092838D01*
X122434492Y-108212661D01*
X122439441Y-108219110D01*
X122436813Y-108221125D01*
X122462911Y-108268919D01*
X122457927Y-108338611D01*
X122416055Y-108394544D01*
X122389197Y-108409838D01*
X122331328Y-108433807D01*
X122331315Y-108433814D01*
X122167537Y-108543248D01*
X122167533Y-108543251D01*
X122028251Y-108682533D01*
X122028248Y-108682537D01*
X121918814Y-108846315D01*
X121918807Y-108846328D01*
X121843430Y-109028307D01*
X121843430Y-109028309D01*
X121835138Y-109070000D01*
X120544862Y-109070000D01*
X120536569Y-109028309D01*
X120536569Y-109028307D01*
X120461192Y-108846328D01*
X120461185Y-108846315D01*
X120351751Y-108682537D01*
X120351748Y-108682533D01*
X120212466Y-108543251D01*
X120212462Y-108543248D01*
X120048684Y-108433814D01*
X120048671Y-108433807D01*
X119866693Y-108358430D01*
X119866681Y-108358427D01*
X119673495Y-108320000D01*
X119425000Y-108320000D01*
X119425000Y-109020000D01*
X118925000Y-109020000D01*
X118925000Y-108320000D01*
X118676504Y-108320000D01*
X118483318Y-108358427D01*
X118483306Y-108358430D01*
X118301328Y-108433807D01*
X118301315Y-108433814D01*
X118137537Y-108543248D01*
X118137533Y-108543251D01*
X117998251Y-108682533D01*
X117998248Y-108682537D01*
X117888814Y-108846315D01*
X117888807Y-108846328D01*
X117813430Y-109028307D01*
X117813430Y-109028309D01*
X117805138Y-109070000D01*
X117266830Y-109070000D01*
X117246385Y-108927802D01*
X117245836Y-108923428D01*
X117237547Y-108846328D01*
X117126101Y-107809727D01*
X117125716Y-107805421D01*
X117045810Y-106688194D01*
X117045574Y-106683778D01*
X117034396Y-106370814D01*
X117005597Y-105564446D01*
X117005518Y-105560020D01*
X117005518Y-104439979D01*
X117005597Y-104435553D01*
X117025502Y-103878213D01*
X117045574Y-103316215D01*
X117045811Y-103311801D01*
X117055870Y-103171153D01*
X124699500Y-103171153D01*
X124699500Y-103328846D01*
X124730261Y-103483489D01*
X124730264Y-103483501D01*
X124790602Y-103629172D01*
X124790609Y-103629185D01*
X124878602Y-103760874D01*
X124899480Y-103827551D01*
X124899500Y-103829765D01*
X124899500Y-106170234D01*
X124879815Y-106237273D01*
X124878602Y-106239125D01*
X124790609Y-106370814D01*
X124790602Y-106370827D01*
X124730264Y-106516498D01*
X124730261Y-106516510D01*
X124699500Y-106671153D01*
X124699500Y-106828846D01*
X124730261Y-106983489D01*
X124730264Y-106983501D01*
X124790602Y-107129172D01*
X124790609Y-107129185D01*
X124878210Y-107260288D01*
X124878213Y-107260292D01*
X124989707Y-107371786D01*
X124989711Y-107371789D01*
X125120814Y-107459390D01*
X125120827Y-107459397D01*
X125266498Y-107519735D01*
X125266503Y-107519737D01*
X125421153Y-107550499D01*
X125421156Y-107550500D01*
X125421158Y-107550500D01*
X125578844Y-107550500D01*
X125578845Y-107550499D01*
X125733497Y-107519737D01*
X125879179Y-107459394D01*
X126010289Y-107371789D01*
X126121789Y-107260289D01*
X126209394Y-107129179D01*
X126269737Y-106983497D01*
X126300500Y-106828842D01*
X126300500Y-106671158D01*
X126300500Y-106671155D01*
X126300499Y-106671153D01*
X126269737Y-106516503D01*
X126269735Y-106516498D01*
X126209397Y-106370827D01*
X126209390Y-106370814D01*
X126121398Y-106239125D01*
X126100520Y-106172447D01*
X126100500Y-106170234D01*
X126100500Y-103829765D01*
X126120185Y-103762726D01*
X126121398Y-103760874D01*
X126209390Y-103629185D01*
X126209390Y-103629184D01*
X126209394Y-103629179D01*
X126269737Y-103483497D01*
X126300500Y-103328842D01*
X126300500Y-103171158D01*
X126300500Y-103171155D01*
X126300499Y-103171153D01*
X126269738Y-103016510D01*
X126269737Y-103016503D01*
X126209794Y-102871786D01*
X126209397Y-102870827D01*
X126209390Y-102870814D01*
X126121789Y-102739711D01*
X126121786Y-102739707D01*
X126010292Y-102628213D01*
X126010288Y-102628210D01*
X125879185Y-102540609D01*
X125879172Y-102540602D01*
X125733501Y-102480264D01*
X125733489Y-102480261D01*
X125578845Y-102449500D01*
X125578842Y-102449500D01*
X125421158Y-102449500D01*
X125421155Y-102449500D01*
X125266510Y-102480261D01*
X125266498Y-102480264D01*
X125120827Y-102540602D01*
X125120814Y-102540609D01*
X124989711Y-102628210D01*
X124989707Y-102628213D01*
X124878213Y-102739707D01*
X124878210Y-102739711D01*
X124790609Y-102870814D01*
X124790602Y-102870827D01*
X124730264Y-103016498D01*
X124730261Y-103016510D01*
X124699500Y-103171153D01*
X117055870Y-103171153D01*
X117125717Y-102194573D01*
X117126100Y-102190277D01*
X117245839Y-101076546D01*
X117246388Y-101072179D01*
X117250515Y-101043479D01*
X117338720Y-100430000D01*
X117805138Y-100430000D01*
X118608012Y-100430000D01*
X118590795Y-100439940D01*
X118534940Y-100495795D01*
X118495444Y-100564204D01*
X118475000Y-100640504D01*
X118475000Y-100719496D01*
X118495444Y-100795796D01*
X118534940Y-100864205D01*
X118590795Y-100920060D01*
X118608012Y-100930000D01*
X117805138Y-100930000D01*
X117813430Y-100971690D01*
X117813430Y-100971692D01*
X117888807Y-101153671D01*
X117888814Y-101153684D01*
X117998248Y-101317462D01*
X117998251Y-101317466D01*
X118137533Y-101456748D01*
X118137537Y-101456751D01*
X118301315Y-101566185D01*
X118301328Y-101566192D01*
X118483306Y-101641569D01*
X118483318Y-101641572D01*
X118676504Y-101679999D01*
X118676508Y-101680000D01*
X118925000Y-101680000D01*
X118925000Y-100980000D01*
X119425000Y-100980000D01*
X119425000Y-101680000D01*
X119673492Y-101680000D01*
X119673495Y-101679999D01*
X119866681Y-101641572D01*
X119866693Y-101641569D01*
X120048671Y-101566192D01*
X120048684Y-101566185D01*
X120212462Y-101456751D01*
X120212466Y-101456748D01*
X120351748Y-101317466D01*
X120351751Y-101317462D01*
X120461185Y-101153684D01*
X120461192Y-101153671D01*
X120536569Y-100971692D01*
X120536569Y-100971690D01*
X120544862Y-100930000D01*
X119741988Y-100930000D01*
X119759205Y-100920060D01*
X119815060Y-100864205D01*
X119854556Y-100795796D01*
X119875000Y-100719496D01*
X119875000Y-100640504D01*
X119854556Y-100564204D01*
X119815060Y-100495795D01*
X119759205Y-100439940D01*
X119741988Y-100430000D01*
X120544862Y-100430000D01*
X121835138Y-100430000D01*
X122638012Y-100430000D01*
X122620795Y-100439940D01*
X122564940Y-100495795D01*
X122525444Y-100564204D01*
X122505000Y-100640504D01*
X122505000Y-100719496D01*
X122525444Y-100795796D01*
X122564940Y-100864205D01*
X122620795Y-100920060D01*
X122638012Y-100930000D01*
X121835138Y-100930000D01*
X121843430Y-100971690D01*
X121843430Y-100971692D01*
X121918807Y-101153671D01*
X121918814Y-101153684D01*
X122028248Y-101317462D01*
X122028251Y-101317466D01*
X122167533Y-101456748D01*
X122167537Y-101456751D01*
X122331315Y-101566185D01*
X122331322Y-101566189D01*
X122389196Y-101590160D01*
X122443600Y-101634000D01*
X122465666Y-101700294D01*
X122448388Y-101767994D01*
X122438774Y-101780378D01*
X122439441Y-101780890D01*
X122434492Y-101787338D01*
X122365313Y-101907161D01*
X122365312Y-101907164D01*
X122329500Y-102040817D01*
X122329500Y-102179183D01*
X122364439Y-102309576D01*
X122365312Y-102312835D01*
X122365313Y-102312838D01*
X122434492Y-102432661D01*
X122434494Y-102432664D01*
X122434495Y-102432665D01*
X122532335Y-102530505D01*
X122532336Y-102530506D01*
X122532338Y-102530507D01*
X122592249Y-102565096D01*
X122652164Y-102599688D01*
X122785817Y-102635500D01*
X122785819Y-102635500D01*
X122924181Y-102635500D01*
X122924183Y-102635500D01*
X123057836Y-102599688D01*
X123177665Y-102530505D01*
X123275505Y-102432665D01*
X123344688Y-102312836D01*
X123380500Y-102179183D01*
X123380500Y-102040817D01*
X123344688Y-101907164D01*
X123278461Y-101792455D01*
X123275507Y-101787338D01*
X123275503Y-101787333D01*
X123177664Y-101689494D01*
X123166999Y-101683337D01*
X123118784Y-101632769D01*
X123105000Y-101575950D01*
X123105000Y-100980000D01*
X123605000Y-100980000D01*
X123605000Y-101680000D01*
X124003492Y-101680000D01*
X124003495Y-101679999D01*
X124196681Y-101641572D01*
X124196693Y-101641569D01*
X124378671Y-101566192D01*
X124378684Y-101566185D01*
X124542462Y-101456751D01*
X124542466Y-101456748D01*
X124681748Y-101317466D01*
X124681751Y-101317462D01*
X124791185Y-101153684D01*
X124791192Y-101153671D01*
X124866569Y-100971692D01*
X124866569Y-100971690D01*
X124874862Y-100930000D01*
X124071988Y-100930000D01*
X124089205Y-100920060D01*
X124145060Y-100864205D01*
X124184556Y-100795796D01*
X124205000Y-100719496D01*
X124205000Y-100640504D01*
X124184556Y-100564204D01*
X124145060Y-100495795D01*
X124089205Y-100439940D01*
X124071988Y-100430000D01*
X124874862Y-100430000D01*
X124866569Y-100388309D01*
X124866569Y-100388307D01*
X124791192Y-100206328D01*
X124791185Y-100206315D01*
X124681751Y-100042537D01*
X124681748Y-100042533D01*
X124542466Y-99903251D01*
X124542462Y-99903248D01*
X124539961Y-99901577D01*
X133499500Y-99901577D01*
X133499500Y-100098422D01*
X133530290Y-100292826D01*
X133591117Y-100480029D01*
X133662858Y-100620827D01*
X133680476Y-100655405D01*
X133796172Y-100814646D01*
X133935354Y-100953828D01*
X134094595Y-101069524D01*
X134151301Y-101098417D01*
X134269970Y-101158882D01*
X134269972Y-101158882D01*
X134269975Y-101158884D01*
X134325238Y-101176840D01*
X134457173Y-101219709D01*
X134651578Y-101250500D01*
X134651583Y-101250500D01*
X134848422Y-101250500D01*
X135042826Y-101219709D01*
X135073713Y-101209673D01*
X135230025Y-101158884D01*
X135405405Y-101069524D01*
X135564646Y-100953828D01*
X135703828Y-100814646D01*
X135819524Y-100655405D01*
X135819524Y-100655403D01*
X135822278Y-100651614D01*
X135877608Y-100608949D01*
X135922596Y-100600500D01*
X137455164Y-100600500D01*
X137457673Y-100601236D01*
X137460210Y-100600603D01*
X137491011Y-100611026D01*
X137522203Y-100620185D01*
X137524676Y-100622418D01*
X137526393Y-100622999D01*
X137534438Y-100631230D01*
X137552104Y-100647178D01*
X137555360Y-100651261D01*
X137628211Y-100760289D01*
X137697954Y-100830032D01*
X137702294Y-100835473D01*
X137712978Y-100861637D01*
X137726520Y-100886437D01*
X137726011Y-100893552D01*
X137728708Y-100900157D01*
X137723551Y-100927940D01*
X137721536Y-100956129D01*
X137717260Y-100961840D01*
X137715959Y-100968854D01*
X137696598Y-100989441D01*
X137679664Y-101012062D01*
X137670321Y-101017382D01*
X137668093Y-101019752D01*
X137664648Y-101020612D01*
X137652809Y-101027355D01*
X137620826Y-101040603D01*
X137620814Y-101040609D01*
X137489711Y-101128210D01*
X137489707Y-101128213D01*
X137378213Y-101239707D01*
X137378210Y-101239711D01*
X137290609Y-101370814D01*
X137290602Y-101370827D01*
X137230264Y-101516498D01*
X137230261Y-101516510D01*
X137199500Y-101671153D01*
X137199500Y-101828846D01*
X137230261Y-101983489D01*
X137230264Y-101983501D01*
X137290602Y-102129172D01*
X137290609Y-102129185D01*
X137378210Y-102260288D01*
X137378213Y-102260292D01*
X137489707Y-102371786D01*
X137489711Y-102371789D01*
X137620814Y-102459390D01*
X137620827Y-102459397D01*
X137766498Y-102519735D01*
X137766503Y-102519737D01*
X137921153Y-102550499D01*
X137921156Y-102550500D01*
X137921158Y-102550500D01*
X138078844Y-102550500D01*
X138078845Y-102550499D01*
X138233497Y-102519737D01*
X138379179Y-102459394D01*
X138379185Y-102459390D01*
X138510875Y-102371398D01*
X138577553Y-102350520D01*
X138579766Y-102350500D01*
X144761860Y-102350500D01*
X144761876Y-102350501D01*
X144769472Y-102350501D01*
X144927583Y-102350501D01*
X144927586Y-102350501D01*
X145080314Y-102309577D01*
X145130433Y-102280639D01*
X145217245Y-102230520D01*
X145329049Y-102118716D01*
X145329049Y-102118714D01*
X145339257Y-102108507D01*
X145339259Y-102108504D01*
X146026610Y-101421153D01*
X164199500Y-101421153D01*
X164199500Y-101578846D01*
X164230261Y-101733489D01*
X164230264Y-101733501D01*
X164290602Y-101879172D01*
X164290609Y-101879185D01*
X164378210Y-102010288D01*
X164378213Y-102010292D01*
X164489707Y-102121786D01*
X164489711Y-102121789D01*
X164620814Y-102209390D01*
X164620827Y-102209397D01*
X164744054Y-102260439D01*
X164798458Y-102304280D01*
X164820523Y-102370574D01*
X164803244Y-102438273D01*
X164752107Y-102485884D01*
X164744054Y-102489561D01*
X164620827Y-102540602D01*
X164620814Y-102540609D01*
X164489711Y-102628210D01*
X164489707Y-102628213D01*
X164378213Y-102739707D01*
X164378210Y-102739711D01*
X164290609Y-102870814D01*
X164290602Y-102870827D01*
X164230264Y-103016498D01*
X164230261Y-103016510D01*
X164199500Y-103171153D01*
X164199500Y-103328846D01*
X164230261Y-103483489D01*
X164230264Y-103483501D01*
X164290602Y-103629172D01*
X164290609Y-103629185D01*
X164378210Y-103760288D01*
X164378213Y-103760292D01*
X164489707Y-103871786D01*
X164489711Y-103871789D01*
X164620814Y-103959390D01*
X164620827Y-103959397D01*
X164694013Y-103989711D01*
X164766503Y-104019737D01*
X164831147Y-104032595D01*
X164921849Y-104050638D01*
X164983760Y-104083023D01*
X164985339Y-104084574D01*
X165665425Y-104764660D01*
X165698910Y-104825983D01*
X165699361Y-104828149D01*
X165730261Y-104983491D01*
X165730264Y-104983501D01*
X165790602Y-105129172D01*
X165790609Y-105129185D01*
X165878210Y-105260288D01*
X165878213Y-105260292D01*
X165989707Y-105371786D01*
X165989711Y-105371789D01*
X166120814Y-105459390D01*
X166120827Y-105459397D01*
X166266498Y-105519735D01*
X166266503Y-105519737D01*
X166421153Y-105550499D01*
X166421156Y-105550500D01*
X166421158Y-105550500D01*
X166578844Y-105550500D01*
X166578845Y-105550499D01*
X166733497Y-105519737D01*
X166879179Y-105459394D01*
X167010289Y-105371789D01*
X167121789Y-105260289D01*
X167209394Y-105129179D01*
X167269737Y-104983497D01*
X167300500Y-104828842D01*
X167300500Y-104671158D01*
X167300500Y-104671155D01*
X167300499Y-104671153D01*
X167269738Y-104516510D01*
X167269737Y-104516503D01*
X167215135Y-104384681D01*
X167209397Y-104370827D01*
X167209390Y-104370814D01*
X167121789Y-104239711D01*
X167121786Y-104239707D01*
X167010292Y-104128213D01*
X167010288Y-104128210D01*
X166879185Y-104040609D01*
X166879172Y-104040602D01*
X166733501Y-103980264D01*
X166733491Y-103980261D01*
X166578149Y-103949361D01*
X166516238Y-103916976D01*
X166514660Y-103915425D01*
X165834574Y-103235339D01*
X165801089Y-103174016D01*
X165800638Y-103171849D01*
X165769738Y-103016510D01*
X165769737Y-103016503D01*
X165709794Y-102871786D01*
X165709397Y-102870827D01*
X165709390Y-102870814D01*
X165621789Y-102739711D01*
X165621786Y-102739707D01*
X165510292Y-102628213D01*
X165510288Y-102628210D01*
X165379185Y-102540609D01*
X165379172Y-102540602D01*
X165255945Y-102489561D01*
X165201541Y-102445721D01*
X165179476Y-102379427D01*
X165196755Y-102311727D01*
X165247892Y-102264116D01*
X165255945Y-102260439D01*
X165379172Y-102209397D01*
X165379172Y-102209396D01*
X165379179Y-102209394D01*
X165510289Y-102121789D01*
X165621789Y-102010289D01*
X165709394Y-101879179D01*
X165712854Y-101870827D01*
X165747437Y-101787335D01*
X165769737Y-101733497D01*
X165800500Y-101578842D01*
X165800500Y-101421158D01*
X165800500Y-101421155D01*
X165800499Y-101421153D01*
X165769738Y-101266510D01*
X165769737Y-101266503D01*
X165769735Y-101266498D01*
X165709397Y-101120827D01*
X165709390Y-101120814D01*
X165621789Y-100989711D01*
X165621786Y-100989707D01*
X165510292Y-100878213D01*
X165510288Y-100878210D01*
X165379185Y-100790609D01*
X165379172Y-100790602D01*
X165233501Y-100730264D01*
X165233489Y-100730261D01*
X165078845Y-100699500D01*
X165078842Y-100699500D01*
X164921158Y-100699500D01*
X164921155Y-100699500D01*
X164766510Y-100730261D01*
X164766498Y-100730264D01*
X164620827Y-100790602D01*
X164620814Y-100790609D01*
X164489711Y-100878210D01*
X164489707Y-100878213D01*
X164378213Y-100989707D01*
X164378210Y-100989711D01*
X164290609Y-101120814D01*
X164290602Y-101120827D01*
X164230264Y-101266498D01*
X164230261Y-101266510D01*
X164199500Y-101421153D01*
X146026610Y-101421153D01*
X151550081Y-95897682D01*
X159450000Y-95897682D01*
X159450000Y-96102317D01*
X159482009Y-96304417D01*
X159545244Y-96499031D01*
X159638141Y-96681350D01*
X159638147Y-96681359D01*
X159670523Y-96725921D01*
X159670524Y-96725922D01*
X160350000Y-96046446D01*
X160350000Y-96052661D01*
X160377259Y-96154394D01*
X160429920Y-96245606D01*
X160504394Y-96320080D01*
X160595606Y-96372741D01*
X160697339Y-96400000D01*
X160703553Y-96400000D01*
X160024076Y-97079474D01*
X160068650Y-97111859D01*
X160250968Y-97204755D01*
X160445582Y-97267990D01*
X160647683Y-97300000D01*
X160852317Y-97300000D01*
X161054417Y-97267990D01*
X161249031Y-97204755D01*
X161431349Y-97111859D01*
X161475921Y-97079474D01*
X160796447Y-96400000D01*
X160802661Y-96400000D01*
X160904394Y-96372741D01*
X160995606Y-96320080D01*
X161070080Y-96245606D01*
X161122741Y-96154394D01*
X161150000Y-96052661D01*
X161150000Y-96046447D01*
X161829473Y-96725921D01*
X161867280Y-96722946D01*
X161935658Y-96737310D01*
X161985415Y-96786361D01*
X161994714Y-96807556D01*
X162015186Y-96869334D01*
X162107288Y-97018656D01*
X162231344Y-97142712D01*
X162380666Y-97234814D01*
X162547203Y-97289999D01*
X162649991Y-97300500D01*
X163850008Y-97300499D01*
X163952797Y-97289999D01*
X164017034Y-97268713D01*
X167649500Y-97268713D01*
X167649500Y-97731287D01*
X167682754Y-97941243D01*
X167743820Y-98129185D01*
X167748444Y-98143414D01*
X167844951Y-98332820D01*
X167969890Y-98504786D01*
X168120213Y-98655109D01*
X168292179Y-98780048D01*
X168292181Y-98780049D01*
X168292184Y-98780051D01*
X168481588Y-98876557D01*
X168683757Y-98942246D01*
X168893713Y-98975500D01*
X168893714Y-98975500D01*
X169106286Y-98975500D01*
X169106287Y-98975500D01*
X169316243Y-98942246D01*
X169518412Y-98876557D01*
X169707816Y-98780051D01*
X169749866Y-98749500D01*
X169879786Y-98655109D01*
X169879788Y-98655106D01*
X169879792Y-98655104D01*
X170030104Y-98504792D01*
X170149683Y-98340204D01*
X170171878Y-98323089D01*
X170191943Y-98303522D01*
X170199169Y-98302044D01*
X170205011Y-98297540D01*
X170232938Y-98295141D01*
X170260397Y-98289528D01*
X170267275Y-98292192D01*
X170274624Y-98291561D01*
X170299412Y-98304640D01*
X170325550Y-98314764D01*
X170332890Y-98322303D01*
X170336420Y-98324166D01*
X170350190Y-98340029D01*
X170469896Y-98504792D01*
X170471512Y-98506408D01*
X170475692Y-98512140D01*
X170485940Y-98540708D01*
X170498357Y-98568401D01*
X170498937Y-98576937D01*
X170499285Y-98577905D01*
X170499067Y-98578846D01*
X170499500Y-98585199D01*
X170499500Y-98598541D01*
X170499500Y-98598543D01*
X170499499Y-98598543D01*
X170537947Y-98791829D01*
X170537950Y-98791839D01*
X170613364Y-98973907D01*
X170613371Y-98973920D01*
X170722860Y-99137781D01*
X170722863Y-99137785D01*
X170866537Y-99281459D01*
X170866559Y-99281479D01*
X172733430Y-101148350D01*
X172766915Y-101209673D01*
X172768222Y-101216632D01*
X172780290Y-101292823D01*
X172780291Y-101292826D01*
X172841116Y-101480025D01*
X172930476Y-101655405D01*
X173046172Y-101814646D01*
X173185354Y-101953828D01*
X173344595Y-102069524D01*
X173408598Y-102102135D01*
X173519970Y-102158882D01*
X173519972Y-102158882D01*
X173519975Y-102158884D01*
X173582449Y-102179183D01*
X173707173Y-102219709D01*
X173901578Y-102250500D01*
X173901583Y-102250500D01*
X174098422Y-102250500D01*
X174292826Y-102219709D01*
X174324584Y-102209390D01*
X174480025Y-102158884D01*
X174655405Y-102069524D01*
X174814646Y-101953828D01*
X174953828Y-101814646D01*
X175069524Y-101655405D01*
X175158884Y-101480025D01*
X175219709Y-101292826D01*
X175226413Y-101250500D01*
X175250500Y-101098422D01*
X175250500Y-100901577D01*
X175219709Y-100707173D01*
X175158882Y-100519970D01*
X175091796Y-100388307D01*
X175069524Y-100344595D01*
X174953828Y-100185354D01*
X174814646Y-100046172D01*
X174655405Y-99930476D01*
X174480025Y-99841116D01*
X174292826Y-99780291D01*
X174292824Y-99780290D01*
X174216632Y-99768222D01*
X174153497Y-99738292D01*
X174148350Y-99733430D01*
X173601600Y-99186680D01*
X173568115Y-99125357D01*
X173573099Y-99055665D01*
X173614971Y-98999732D01*
X173680435Y-98975315D01*
X173689281Y-98974999D01*
X173750000Y-98974999D01*
X173750000Y-97904145D01*
X173816657Y-97942630D01*
X173937465Y-97975000D01*
X174062535Y-97975000D01*
X174183343Y-97942630D01*
X174250000Y-97904145D01*
X174250000Y-98974999D01*
X174649972Y-98974999D01*
X174649986Y-98974998D01*
X174752697Y-98964505D01*
X174919119Y-98909358D01*
X174919124Y-98909356D01*
X175068345Y-98817315D01*
X175192315Y-98693345D01*
X175284356Y-98544124D01*
X175284358Y-98544119D01*
X175339505Y-98377697D01*
X175339506Y-98377690D01*
X175349999Y-98274986D01*
X175350000Y-98274973D01*
X175350000Y-97750000D01*
X174404146Y-97750000D01*
X174442630Y-97683343D01*
X174475000Y-97562535D01*
X174475000Y-97437465D01*
X174442630Y-97316657D01*
X174404146Y-97250000D01*
X175349999Y-97250000D01*
X175349999Y-96725028D01*
X175349998Y-96725013D01*
X175339505Y-96622302D01*
X175284358Y-96455880D01*
X175284356Y-96455875D01*
X175192315Y-96306654D01*
X175068345Y-96182684D01*
X174919124Y-96090643D01*
X174919119Y-96090641D01*
X174752697Y-96035494D01*
X174752690Y-96035493D01*
X174649986Y-96025000D01*
X174250000Y-96025000D01*
X174250000Y-97095854D01*
X174183343Y-97057370D01*
X174062535Y-97025000D01*
X173937465Y-97025000D01*
X173816657Y-97057370D01*
X173750000Y-97095854D01*
X173750000Y-96025000D01*
X173350028Y-96025000D01*
X173350012Y-96025001D01*
X173247302Y-96035494D01*
X173080880Y-96090641D01*
X173080875Y-96090643D01*
X172931654Y-96182684D01*
X172807683Y-96306655D01*
X172807680Y-96306659D01*
X172712183Y-96461484D01*
X172660235Y-96508209D01*
X172591273Y-96519430D01*
X172527191Y-96491587D01*
X172518964Y-96484068D01*
X172379786Y-96344890D01*
X172207820Y-96219951D01*
X172018414Y-96123444D01*
X172018413Y-96123443D01*
X172018412Y-96123443D01*
X171816243Y-96057754D01*
X171816241Y-96057753D01*
X171816240Y-96057753D01*
X171654957Y-96032208D01*
X171606287Y-96024500D01*
X171393713Y-96024500D01*
X171345042Y-96032208D01*
X171183760Y-96057753D01*
X170981585Y-96123444D01*
X170792179Y-96219951D01*
X170620213Y-96344890D01*
X170469894Y-96495209D01*
X170469890Y-96495214D01*
X170350318Y-96659793D01*
X170294989Y-96702459D01*
X170225375Y-96708438D01*
X170163580Y-96675833D01*
X170149682Y-96659793D01*
X170030109Y-96495214D01*
X170030105Y-96495209D01*
X169879786Y-96344890D01*
X169707820Y-96219951D01*
X169518414Y-96123444D01*
X169518413Y-96123443D01*
X169518412Y-96123443D01*
X169316243Y-96057754D01*
X169316241Y-96057753D01*
X169316240Y-96057753D01*
X169154957Y-96032208D01*
X169106287Y-96024500D01*
X168893713Y-96024500D01*
X168845042Y-96032208D01*
X168683760Y-96057753D01*
X168481585Y-96123444D01*
X168292179Y-96219951D01*
X168120213Y-96344890D01*
X167969890Y-96495213D01*
X167844951Y-96667179D01*
X167748444Y-96856585D01*
X167682753Y-97058760D01*
X167659630Y-97204755D01*
X167649500Y-97268713D01*
X164017034Y-97268713D01*
X164119334Y-97234814D01*
X164176703Y-97199428D01*
X164243381Y-97158302D01*
X164243382Y-97158301D01*
X164268656Y-97142712D01*
X164392712Y-97018656D01*
X164484814Y-96869334D01*
X164539999Y-96702797D01*
X164550500Y-96600009D01*
X164550499Y-95399992D01*
X164539999Y-95297203D01*
X164484814Y-95130666D01*
X164392712Y-94981344D01*
X164268656Y-94857288D01*
X164119334Y-94765186D01*
X163952797Y-94710001D01*
X163952795Y-94710000D01*
X163850010Y-94699500D01*
X162649998Y-94699500D01*
X162649981Y-94699501D01*
X162547203Y-94710000D01*
X162547200Y-94710001D01*
X162380668Y-94765185D01*
X162380663Y-94765187D01*
X162231342Y-94857289D01*
X162107289Y-94981342D01*
X162015187Y-95130663D01*
X162015185Y-95130668D01*
X161994717Y-95192438D01*
X161954944Y-95249883D01*
X161890428Y-95276706D01*
X161867283Y-95277052D01*
X161829474Y-95274076D01*
X161150000Y-95953551D01*
X161150000Y-95947339D01*
X161122741Y-95845606D01*
X161070080Y-95754394D01*
X160995606Y-95679920D01*
X160904394Y-95627259D01*
X160802661Y-95600000D01*
X160796446Y-95600000D01*
X161475922Y-94920524D01*
X161475921Y-94920523D01*
X161431359Y-94888147D01*
X161431350Y-94888141D01*
X161249031Y-94795244D01*
X161054417Y-94732009D01*
X160852317Y-94700000D01*
X160647683Y-94700000D01*
X160445582Y-94732009D01*
X160250968Y-94795244D01*
X160068644Y-94888143D01*
X160024077Y-94920523D01*
X160024077Y-94920524D01*
X160703554Y-95600000D01*
X160697339Y-95600000D01*
X160595606Y-95627259D01*
X160504394Y-95679920D01*
X160429920Y-95754394D01*
X160377259Y-95845606D01*
X160350000Y-95947339D01*
X160350000Y-95953553D01*
X159670524Y-95274077D01*
X159670523Y-95274077D01*
X159638143Y-95318644D01*
X159545244Y-95500968D01*
X159482009Y-95695582D01*
X159450000Y-95897682D01*
X151550081Y-95897682D01*
X157868713Y-89579050D01*
X157868716Y-89579049D01*
X157980520Y-89467245D01*
X158030639Y-89380433D01*
X158059577Y-89330314D01*
X158100501Y-89177586D01*
X158100501Y-89019472D01*
X158100501Y-89011877D01*
X158100500Y-89011859D01*
X158100500Y-87829765D01*
X158120185Y-87762726D01*
X158121398Y-87760874D01*
X158209390Y-87629185D01*
X158209390Y-87629184D01*
X158209394Y-87629179D01*
X158269737Y-87483497D01*
X158300500Y-87328842D01*
X158300500Y-87171158D01*
X158300500Y-87171155D01*
X158300499Y-87171153D01*
X158288387Y-87110263D01*
X158269737Y-87016503D01*
X158262235Y-86998391D01*
X158209397Y-86870827D01*
X158209390Y-86870814D01*
X158121789Y-86739711D01*
X158121786Y-86739707D01*
X158010292Y-86628213D01*
X158010288Y-86628210D01*
X157879185Y-86540609D01*
X157879172Y-86540602D01*
X157733501Y-86480264D01*
X157733489Y-86480261D01*
X157578845Y-86449500D01*
X157578842Y-86449500D01*
X157421158Y-86449500D01*
X157421153Y-86449500D01*
X157360263Y-86461612D01*
X157290671Y-86455385D01*
X157235494Y-86412522D01*
X157212250Y-86346632D01*
X157228318Y-86278635D01*
X157248387Y-86252318D01*
X160256014Y-83244691D01*
X160317335Y-83211208D01*
X160387027Y-83216192D01*
X160391145Y-83217813D01*
X160516498Y-83269735D01*
X160516503Y-83269737D01*
X160671153Y-83300499D01*
X160671156Y-83300500D01*
X160671158Y-83300500D01*
X160828844Y-83300500D01*
X160828845Y-83300499D01*
X160983497Y-83269737D01*
X161129179Y-83209394D01*
X161260289Y-83121789D01*
X161371789Y-83010289D01*
X161459394Y-82879179D01*
X161519737Y-82733497D01*
X161550500Y-82578842D01*
X161550500Y-82421158D01*
X161550500Y-82421155D01*
X161550499Y-82421153D01*
X161534579Y-82341117D01*
X161519737Y-82266503D01*
X161506038Y-82233431D01*
X161459397Y-82120827D01*
X161459390Y-82120814D01*
X161371789Y-81989711D01*
X161371786Y-81989707D01*
X161260292Y-81878213D01*
X161260288Y-81878210D01*
X161129185Y-81790609D01*
X161129172Y-81790602D01*
X160983501Y-81730264D01*
X160983489Y-81730261D01*
X160828845Y-81699500D01*
X160828842Y-81699500D01*
X160671158Y-81699500D01*
X160671155Y-81699500D01*
X160516510Y-81730261D01*
X160516498Y-81730264D01*
X160370827Y-81790602D01*
X160370814Y-81790609D01*
X160239127Y-81878601D01*
X160172450Y-81899479D01*
X160170236Y-81899499D01*
X160072414Y-81899499D01*
X159996050Y-81919961D01*
X159919685Y-81940423D01*
X159919680Y-81940426D01*
X159782761Y-82019475D01*
X159782753Y-82019481D01*
X150679689Y-91122544D01*
X150618366Y-91156029D01*
X150548674Y-91151045D01*
X150513350Y-91130722D01*
X150510291Y-91128212D01*
X150379185Y-91040609D01*
X150379172Y-91040602D01*
X150233501Y-90980264D01*
X150233489Y-90980261D01*
X150078845Y-90949500D01*
X150078842Y-90949500D01*
X149921158Y-90949500D01*
X149921155Y-90949500D01*
X149766510Y-90980261D01*
X149766498Y-90980264D01*
X149620827Y-91040602D01*
X149620814Y-91040609D01*
X149489711Y-91128210D01*
X149489707Y-91128213D01*
X149378213Y-91239707D01*
X149378210Y-91239711D01*
X149290609Y-91370814D01*
X149290602Y-91370827D01*
X149230264Y-91516498D01*
X149230261Y-91516510D01*
X149199500Y-91671153D01*
X149199500Y-91828846D01*
X149230261Y-91983489D01*
X149230264Y-91983501D01*
X149290602Y-92129172D01*
X149290609Y-92129185D01*
X149378212Y-92260291D01*
X149380722Y-92263350D01*
X149381534Y-92265263D01*
X149381595Y-92265354D01*
X149381577Y-92265365D01*
X149408030Y-92327662D01*
X149396234Y-92396529D01*
X149372544Y-92429689D01*
X142189055Y-99613181D01*
X142127732Y-99646666D01*
X142101374Y-99649500D01*
X138829766Y-99649500D01*
X138762727Y-99629815D01*
X138760875Y-99628602D01*
X138629185Y-99540609D01*
X138629172Y-99540602D01*
X138483501Y-99480264D01*
X138483489Y-99480261D01*
X138328845Y-99449500D01*
X138328842Y-99449500D01*
X138278364Y-99449500D01*
X138239820Y-99441834D01*
X138239635Y-99442527D01*
X138231786Y-99440424D01*
X138231785Y-99440423D01*
X138079057Y-99399499D01*
X137920943Y-99399499D01*
X137913347Y-99399499D01*
X137913331Y-99399500D01*
X135922596Y-99399500D01*
X135855557Y-99379815D01*
X135822278Y-99348386D01*
X135819523Y-99344594D01*
X135703828Y-99185354D01*
X135564646Y-99046172D01*
X135405405Y-98930476D01*
X135230029Y-98841117D01*
X135042826Y-98780290D01*
X134848422Y-98749500D01*
X134848417Y-98749500D01*
X134651583Y-98749500D01*
X134651578Y-98749500D01*
X134457173Y-98780290D01*
X134269970Y-98841117D01*
X134094594Y-98930476D01*
X134032625Y-98975500D01*
X133935354Y-99046172D01*
X133935352Y-99046174D01*
X133935351Y-99046174D01*
X133796174Y-99185351D01*
X133796174Y-99185352D01*
X133796172Y-99185354D01*
X133795209Y-99186680D01*
X133680476Y-99344594D01*
X133591117Y-99519970D01*
X133530290Y-99707173D01*
X133499500Y-99901577D01*
X124539961Y-99901577D01*
X124378684Y-99793814D01*
X124378671Y-99793807D01*
X124196693Y-99718430D01*
X124196681Y-99718427D01*
X124003495Y-99680000D01*
X123605000Y-99680000D01*
X123605000Y-100380000D01*
X123105000Y-100380000D01*
X123105000Y-99680000D01*
X122706504Y-99680000D01*
X122513318Y-99718427D01*
X122513306Y-99718430D01*
X122331328Y-99793807D01*
X122331315Y-99793814D01*
X122167537Y-99903248D01*
X122167533Y-99903251D01*
X122028251Y-100042533D01*
X122028248Y-100042537D01*
X121918814Y-100206315D01*
X121918807Y-100206328D01*
X121843430Y-100388307D01*
X121843430Y-100388309D01*
X121835138Y-100430000D01*
X120544862Y-100430000D01*
X120536569Y-100388309D01*
X120536569Y-100388307D01*
X120461192Y-100206328D01*
X120461185Y-100206315D01*
X120351751Y-100042537D01*
X120351748Y-100042533D01*
X120212466Y-99903251D01*
X120212462Y-99903248D01*
X120048684Y-99793814D01*
X120048671Y-99793807D01*
X119866693Y-99718430D01*
X119866681Y-99718427D01*
X119673495Y-99680000D01*
X119425000Y-99680000D01*
X119425000Y-100380000D01*
X118925000Y-100380000D01*
X118925000Y-99680000D01*
X118676504Y-99680000D01*
X118483318Y-99718427D01*
X118483306Y-99718430D01*
X118301328Y-99793807D01*
X118301315Y-99793814D01*
X118137537Y-99903248D01*
X118137533Y-99903251D01*
X117998251Y-100042533D01*
X117998248Y-100042537D01*
X117888814Y-100206315D01*
X117888807Y-100206328D01*
X117813430Y-100388307D01*
X117813430Y-100388309D01*
X117805138Y-100430000D01*
X117338720Y-100430000D01*
X117405788Y-99963528D01*
X117406493Y-99959181D01*
X117416584Y-99903251D01*
X117605369Y-98856885D01*
X117606220Y-98852606D01*
X117844311Y-97758118D01*
X117845324Y-97753835D01*
X117846303Y-97750000D01*
X117866427Y-97671153D01*
X131949500Y-97671153D01*
X131949500Y-97828846D01*
X131980261Y-97983489D01*
X131980264Y-97983501D01*
X132040602Y-98129172D01*
X132040609Y-98129185D01*
X132128210Y-98260288D01*
X132128213Y-98260292D01*
X132239707Y-98371786D01*
X132239711Y-98371789D01*
X132370814Y-98459390D01*
X132370827Y-98459397D01*
X132480422Y-98504792D01*
X132516503Y-98519737D01*
X132621931Y-98540708D01*
X132671153Y-98550499D01*
X132671156Y-98550500D01*
X132671158Y-98550500D01*
X132828844Y-98550500D01*
X132828845Y-98550499D01*
X132983497Y-98519737D01*
X133129179Y-98459394D01*
X133260289Y-98371789D01*
X133371789Y-98260289D01*
X133459394Y-98129179D01*
X133519737Y-97983497D01*
X133550500Y-97828842D01*
X133550500Y-97671158D01*
X133550500Y-97671155D01*
X133550499Y-97671153D01*
X133519738Y-97516510D01*
X133519737Y-97516503D01*
X133486999Y-97437465D01*
X133459397Y-97370827D01*
X133459390Y-97370814D01*
X133371789Y-97239711D01*
X133371786Y-97239707D01*
X133260292Y-97128213D01*
X133260288Y-97128210D01*
X133129185Y-97040609D01*
X133129172Y-97040602D01*
X132983501Y-96980264D01*
X132983489Y-96980261D01*
X132828845Y-96949500D01*
X132828842Y-96949500D01*
X132671158Y-96949500D01*
X132671155Y-96949500D01*
X132516510Y-96980261D01*
X132516498Y-96980264D01*
X132370827Y-97040602D01*
X132370814Y-97040609D01*
X132239711Y-97128210D01*
X132239707Y-97128213D01*
X132128213Y-97239707D01*
X132128210Y-97239711D01*
X132040609Y-97370814D01*
X132040602Y-97370827D01*
X131980264Y-97516498D01*
X131980261Y-97516510D01*
X131949500Y-97671153D01*
X117866427Y-97671153D01*
X118122327Y-96668548D01*
X118123476Y-96664359D01*
X118439049Y-95589619D01*
X118440368Y-95585409D01*
X118468473Y-95500968D01*
X118586069Y-95147648D01*
X127949500Y-95147648D01*
X127949500Y-95352351D01*
X127981522Y-95554534D01*
X128044781Y-95749223D01*
X128137715Y-95931613D01*
X128258028Y-96097213D01*
X128402786Y-96241971D01*
X128544445Y-96344890D01*
X128568390Y-96362287D01*
X128684607Y-96421503D01*
X128750776Y-96455218D01*
X128750778Y-96455218D01*
X128750781Y-96455220D01*
X128839566Y-96484068D01*
X128945465Y-96518477D01*
X129046557Y-96534488D01*
X129147648Y-96550500D01*
X129147649Y-96550500D01*
X129352351Y-96550500D01*
X129352352Y-96550500D01*
X129554534Y-96518477D01*
X129749219Y-96455220D01*
X129931610Y-96362287D01*
X130024590Y-96294732D01*
X130097213Y-96241971D01*
X130097215Y-96241968D01*
X130097219Y-96241966D01*
X130241966Y-96097219D01*
X130241968Y-96097215D01*
X130241971Y-96097213D01*
X130350859Y-95947339D01*
X130362287Y-95931610D01*
X130455220Y-95749219D01*
X130518477Y-95554534D01*
X130550500Y-95352352D01*
X130550500Y-95147648D01*
X130524159Y-94981342D01*
X130518477Y-94945465D01*
X130469667Y-94795244D01*
X130455220Y-94750781D01*
X130455218Y-94750778D01*
X130455218Y-94750776D01*
X130421503Y-94684607D01*
X130362287Y-94568390D01*
X130327561Y-94520593D01*
X130241971Y-94402786D01*
X130097213Y-94258028D01*
X129931613Y-94137715D01*
X129931612Y-94137714D01*
X129931610Y-94137713D01*
X129874653Y-94108691D01*
X129749223Y-94044781D01*
X129554534Y-93981522D01*
X129379995Y-93953878D01*
X129352352Y-93949500D01*
X129147648Y-93949500D01*
X129123329Y-93953351D01*
X128945465Y-93981522D01*
X128750776Y-94044781D01*
X128568386Y-94137715D01*
X128402786Y-94258028D01*
X128258028Y-94402786D01*
X128137715Y-94568386D01*
X128044781Y-94750776D01*
X127981522Y-94945465D01*
X127949500Y-95147648D01*
X118586069Y-95147648D01*
X118794084Y-94522660D01*
X118795518Y-94518593D01*
X119186986Y-93469028D01*
X119188561Y-93465024D01*
X119617213Y-92430169D01*
X119618977Y-92426118D01*
X119692391Y-92265365D01*
X120084245Y-91407322D01*
X120086153Y-91403334D01*
X120587518Y-90401733D01*
X120589570Y-90397810D01*
X121126359Y-89414755D01*
X121128502Y-89410989D01*
X121700083Y-88447643D01*
X121702402Y-88443892D01*
X121877680Y-88171153D01*
X126949500Y-88171153D01*
X126949500Y-88328846D01*
X126980261Y-88483489D01*
X126980264Y-88483501D01*
X127040602Y-88629172D01*
X127040609Y-88629185D01*
X127128210Y-88760288D01*
X127128213Y-88760292D01*
X127239707Y-88871786D01*
X127239711Y-88871789D01*
X127370814Y-88959390D01*
X127370827Y-88959397D01*
X127515863Y-89019472D01*
X127516503Y-89019737D01*
X127671153Y-89050499D01*
X127671156Y-89050500D01*
X127671158Y-89050500D01*
X127828844Y-89050500D01*
X127828845Y-89050499D01*
X127983497Y-89019737D01*
X128129179Y-88959394D01*
X128260289Y-88871789D01*
X128371789Y-88760289D01*
X128459394Y-88629179D01*
X128519737Y-88483497D01*
X128539113Y-88386085D01*
X128550638Y-88328150D01*
X128583023Y-88266239D01*
X128584514Y-88264720D01*
X128962417Y-87886819D01*
X129023740Y-87853334D01*
X129050098Y-87850500D01*
X134420234Y-87850500D01*
X134487273Y-87870185D01*
X134489125Y-87871398D01*
X134620814Y-87959390D01*
X134620827Y-87959397D01*
X134758683Y-88016498D01*
X134766503Y-88019737D01*
X134921153Y-88050499D01*
X134921156Y-88050500D01*
X134921158Y-88050500D01*
X135078844Y-88050500D01*
X135078845Y-88050499D01*
X135233497Y-88019737D01*
X135379179Y-87959394D01*
X135510289Y-87871789D01*
X135621789Y-87760289D01*
X135709394Y-87629179D01*
X135769737Y-87483497D01*
X135800500Y-87328842D01*
X135800500Y-87171158D01*
X135800500Y-87171155D01*
X135800499Y-87171153D01*
X135788387Y-87110263D01*
X135769737Y-87016503D01*
X135762235Y-86998391D01*
X135709397Y-86870827D01*
X135709390Y-86870814D01*
X135621789Y-86739711D01*
X135621786Y-86739707D01*
X135510292Y-86628213D01*
X135510288Y-86628210D01*
X135379185Y-86540609D01*
X135379172Y-86540602D01*
X135233501Y-86480264D01*
X135233489Y-86480261D01*
X135078845Y-86449500D01*
X135078842Y-86449500D01*
X134921158Y-86449500D01*
X134921155Y-86449500D01*
X134766510Y-86480261D01*
X134766498Y-86480264D01*
X134620827Y-86540602D01*
X134620814Y-86540609D01*
X134489125Y-86628602D01*
X134422447Y-86649480D01*
X134420234Y-86649500D01*
X128836670Y-86649500D01*
X128836654Y-86649499D01*
X128829058Y-86649499D01*
X128670943Y-86649499D01*
X128594579Y-86669961D01*
X128518214Y-86690423D01*
X128518209Y-86690426D01*
X128381290Y-86769475D01*
X128381282Y-86769481D01*
X127735339Y-87415425D01*
X127674016Y-87448910D01*
X127671850Y-87449361D01*
X127516508Y-87480261D01*
X127516498Y-87480264D01*
X127370827Y-87540602D01*
X127370814Y-87540609D01*
X127239711Y-87628210D01*
X127239707Y-87628213D01*
X127128213Y-87739707D01*
X127128210Y-87739711D01*
X127040609Y-87870814D01*
X127040602Y-87870827D01*
X126980264Y-88016498D01*
X126980261Y-88016510D01*
X126949500Y-88171153D01*
X121877680Y-88171153D01*
X122307951Y-87501637D01*
X122310378Y-87498007D01*
X122320450Y-87483501D01*
X122949206Y-86577920D01*
X122951730Y-86574421D01*
X123622987Y-85677725D01*
X123625659Y-85674284D01*
X124328498Y-84802114D01*
X124331308Y-84798752D01*
X125064800Y-83952257D01*
X125067753Y-83948971D01*
X125347640Y-83648351D01*
X125831006Y-83129178D01*
X125834025Y-83126050D01*
X126626050Y-82334025D01*
X126629178Y-82331006D01*
X127448977Y-81567747D01*
X127452264Y-81564795D01*
X127799019Y-81264330D01*
X128298752Y-80831308D01*
X128302114Y-80828498D01*
X129174284Y-80125659D01*
X129177725Y-80122987D01*
X130074421Y-79451730D01*
X130077920Y-79449206D01*
X130998019Y-78810369D01*
X131001688Y-78807919D01*
X131799370Y-78295280D01*
X134350000Y-78295280D01*
X134350000Y-79250000D01*
X135422769Y-79250000D01*
X135400000Y-79393753D01*
X135400000Y-79606247D01*
X135422769Y-79750000D01*
X134350000Y-79750000D01*
X134350000Y-80704719D01*
X134360482Y-80837906D01*
X134360483Y-80837912D01*
X134415898Y-81057829D01*
X134415899Y-81057832D01*
X134509695Y-81264330D01*
X134509698Y-81264336D01*
X134638851Y-81450758D01*
X134638861Y-81450770D01*
X134799229Y-81611138D01*
X134799241Y-81611148D01*
X134985663Y-81740301D01*
X134985669Y-81740304D01*
X135192167Y-81834100D01*
X135192170Y-81834101D01*
X135412087Y-81889516D01*
X135412093Y-81889517D01*
X135545280Y-81899999D01*
X135545294Y-81900000D01*
X136500000Y-81900000D01*
X136500000Y-80827231D01*
X136643753Y-80850000D01*
X136856247Y-80850000D01*
X137000000Y-80827231D01*
X137000000Y-81900000D01*
X137954706Y-81900000D01*
X137954719Y-81899999D01*
X138087906Y-81889517D01*
X138087912Y-81889516D01*
X138307829Y-81834101D01*
X138307832Y-81834100D01*
X138514330Y-81740304D01*
X138514336Y-81740301D01*
X138700758Y-81611148D01*
X138700770Y-81611138D01*
X138861138Y-81450770D01*
X138861148Y-81450758D01*
X138990301Y-81264336D01*
X138990304Y-81264330D01*
X139084100Y-81057832D01*
X139084101Y-81057829D01*
X139139516Y-80837912D01*
X139139517Y-80837906D01*
X139149999Y-80704719D01*
X139150000Y-80704706D01*
X139150000Y-79996932D01*
X139169685Y-79929893D01*
X139222489Y-79884138D01*
X139291647Y-79874194D01*
X139355203Y-79903219D01*
X139392977Y-79961997D01*
X139394891Y-79969340D01*
X139439683Y-80165590D01*
X139439687Y-80165602D01*
X139528734Y-80420082D01*
X139645714Y-80662994D01*
X139645716Y-80662997D01*
X139789162Y-80891289D01*
X139957266Y-81102085D01*
X140147915Y-81292734D01*
X140358711Y-81460838D01*
X140587003Y-81604284D01*
X140829921Y-81721267D01*
X141021049Y-81788145D01*
X141084397Y-81810312D01*
X141084405Y-81810315D01*
X141084408Y-81810315D01*
X141084409Y-81810316D01*
X141347268Y-81870312D01*
X141615187Y-81900499D01*
X141615188Y-81900500D01*
X141615191Y-81900500D01*
X141884812Y-81900500D01*
X141884812Y-81900499D01*
X142152732Y-81870312D01*
X142415591Y-81810316D01*
X142670079Y-81721267D01*
X142912997Y-81604284D01*
X143141289Y-81460838D01*
X143352085Y-81292734D01*
X143542734Y-81102085D01*
X143710838Y-80891289D01*
X143854284Y-80662997D01*
X143971267Y-80420079D01*
X144060316Y-80165591D01*
X144120312Y-79902732D01*
X144150500Y-79634809D01*
X144150500Y-79493713D01*
X148149500Y-79493713D01*
X148149500Y-80006286D01*
X148182753Y-80216239D01*
X148248444Y-80418414D01*
X148344951Y-80607820D01*
X148469890Y-80779786D01*
X148620213Y-80930109D01*
X148792179Y-81055048D01*
X148792181Y-81055049D01*
X148792184Y-81055051D01*
X148981588Y-81151557D01*
X149183757Y-81217246D01*
X149393713Y-81250500D01*
X149393714Y-81250500D01*
X149606286Y-81250500D01*
X149606287Y-81250500D01*
X149816243Y-81217246D01*
X150018412Y-81151557D01*
X150207816Y-81055051D01*
X150379792Y-80930104D01*
X150518604Y-80791291D01*
X150579923Y-80757809D01*
X150649615Y-80762793D01*
X150705549Y-80804664D01*
X150711821Y-80813878D01*
X150715185Y-80819333D01*
X150715186Y-80819334D01*
X150807288Y-80968656D01*
X150931344Y-81092712D01*
X150940591Y-81098416D01*
X150987318Y-81150360D01*
X150999500Y-81203957D01*
X150999500Y-82098544D01*
X151033249Y-82268212D01*
X151037948Y-82291831D01*
X151037950Y-82291839D01*
X151113364Y-82473907D01*
X151113371Y-82473920D01*
X151222859Y-82637780D01*
X151222860Y-82637781D01*
X151222861Y-82637782D01*
X151362218Y-82777139D01*
X151362219Y-82777139D01*
X151369286Y-82784206D01*
X151369285Y-82784206D01*
X151369289Y-82784209D01*
X152233431Y-83648351D01*
X152266916Y-83709674D01*
X152268223Y-83716634D01*
X152280290Y-83792826D01*
X152341117Y-83980029D01*
X152381271Y-84058835D01*
X152430476Y-84155405D01*
X152546172Y-84314646D01*
X152685354Y-84453828D01*
X152844595Y-84569524D01*
X152927455Y-84611743D01*
X153019970Y-84658882D01*
X153019972Y-84658882D01*
X153019975Y-84658884D01*
X153120317Y-84691487D01*
X153207173Y-84719709D01*
X153401578Y-84750500D01*
X153401583Y-84750500D01*
X153598422Y-84750500D01*
X153792826Y-84719709D01*
X153980025Y-84658884D01*
X154155405Y-84569524D01*
X154314646Y-84453828D01*
X154453828Y-84314646D01*
X154569524Y-84155405D01*
X154658884Y-83980025D01*
X154719709Y-83792826D01*
X154750500Y-83598422D01*
X154750500Y-83401577D01*
X154719709Y-83207173D01*
X154658882Y-83019970D01*
X154587145Y-82879179D01*
X154569524Y-82844595D01*
X154453828Y-82685354D01*
X154314646Y-82546172D01*
X154155405Y-82430476D01*
X154137117Y-82421158D01*
X153980029Y-82341117D01*
X153792826Y-82280290D01*
X153716634Y-82268223D01*
X153653499Y-82238294D01*
X153648351Y-82233431D01*
X153036819Y-81621898D01*
X153003334Y-81560575D01*
X153000500Y-81534217D01*
X153000500Y-81203957D01*
X153020185Y-81136918D01*
X153059407Y-81098416D01*
X153068656Y-81092712D01*
X153192712Y-80968656D01*
X153284814Y-80819334D01*
X153339999Y-80652797D01*
X153350500Y-80550009D01*
X153350499Y-78949992D01*
X153339999Y-78847203D01*
X153284814Y-78680666D01*
X153192712Y-78531344D01*
X153068656Y-78407288D01*
X152968282Y-78345377D01*
X152919336Y-78315187D01*
X152919331Y-78315185D01*
X152917862Y-78314698D01*
X152752797Y-78260001D01*
X152752795Y-78260000D01*
X152650010Y-78249500D01*
X151349998Y-78249500D01*
X151349981Y-78249501D01*
X151247203Y-78260000D01*
X151247200Y-78260001D01*
X151080668Y-78315185D01*
X151080663Y-78315187D01*
X150931342Y-78407289D01*
X150807289Y-78531342D01*
X150711821Y-78686121D01*
X150659873Y-78732845D01*
X150590910Y-78744068D01*
X150526828Y-78716224D01*
X150518601Y-78708705D01*
X150379786Y-78569890D01*
X150207820Y-78444951D01*
X150018414Y-78348444D01*
X150018413Y-78348443D01*
X150018412Y-78348443D01*
X149816243Y-78282754D01*
X149816241Y-78282753D01*
X149816240Y-78282753D01*
X149654957Y-78257208D01*
X149606287Y-78249500D01*
X149393713Y-78249500D01*
X149345042Y-78257208D01*
X149183760Y-78282753D01*
X148981585Y-78348444D01*
X148792179Y-78444951D01*
X148620213Y-78569890D01*
X148469890Y-78720213D01*
X148344951Y-78892179D01*
X148248444Y-79081585D01*
X148182753Y-79283760D01*
X148149500Y-79493713D01*
X144150500Y-79493713D01*
X144150500Y-79365191D01*
X144120312Y-79097268D01*
X144060316Y-78834409D01*
X143971267Y-78579921D01*
X143854284Y-78337003D01*
X143710838Y-78108711D01*
X143542734Y-77897915D01*
X143352085Y-77707266D01*
X143141289Y-77539162D01*
X142912997Y-77395716D01*
X142912994Y-77395714D01*
X142670082Y-77278734D01*
X142415602Y-77189687D01*
X142415594Y-77189684D01*
X142218446Y-77144687D01*
X142152732Y-77129688D01*
X142152728Y-77129687D01*
X142152719Y-77129686D01*
X141884813Y-77099500D01*
X141884809Y-77099500D01*
X141615191Y-77099500D01*
X141615186Y-77099500D01*
X141347280Y-77129686D01*
X141347268Y-77129688D01*
X141084405Y-77189684D01*
X141084397Y-77189687D01*
X140829917Y-77278734D01*
X140587005Y-77395714D01*
X140358712Y-77539161D01*
X140147915Y-77707265D01*
X139957265Y-77897915D01*
X139789161Y-78108712D01*
X139645714Y-78337005D01*
X139528734Y-78579917D01*
X139439687Y-78834397D01*
X139439684Y-78834405D01*
X139394891Y-79030660D01*
X139360782Y-79091638D01*
X139299121Y-79124496D01*
X139229484Y-79118801D01*
X139173980Y-79076361D01*
X139150232Y-79010651D01*
X139150000Y-79003067D01*
X139150000Y-78295293D01*
X139149999Y-78295280D01*
X139139517Y-78162093D01*
X139139516Y-78162087D01*
X139084101Y-77942170D01*
X139084100Y-77942167D01*
X138990304Y-77735669D01*
X138990301Y-77735663D01*
X138861148Y-77549241D01*
X138861138Y-77549229D01*
X138700770Y-77388861D01*
X138700758Y-77388851D01*
X138514336Y-77259698D01*
X138514330Y-77259695D01*
X138307832Y-77165899D01*
X138307829Y-77165898D01*
X138087912Y-77110483D01*
X138087906Y-77110482D01*
X137954719Y-77100000D01*
X137000000Y-77100000D01*
X137000000Y-78172768D01*
X136856247Y-78150000D01*
X136643753Y-78150000D01*
X136500000Y-78172768D01*
X136500000Y-77100000D01*
X135545280Y-77100000D01*
X135412093Y-77110482D01*
X135412087Y-77110483D01*
X135192170Y-77165898D01*
X135192167Y-77165899D01*
X134985669Y-77259695D01*
X134985663Y-77259698D01*
X134799241Y-77388851D01*
X134799229Y-77388861D01*
X134638861Y-77549229D01*
X134638851Y-77549241D01*
X134509698Y-77735663D01*
X134509695Y-77735669D01*
X134415899Y-77942167D01*
X134415898Y-77942170D01*
X134360483Y-78162087D01*
X134360482Y-78162093D01*
X134350000Y-78295280D01*
X131799370Y-78295280D01*
X131943905Y-78202393D01*
X131947658Y-78200075D01*
X131971024Y-78186211D01*
X131971027Y-78186209D01*
X131976028Y-78183242D01*
X132910989Y-77628502D01*
X132914755Y-77626359D01*
X133897828Y-77089560D01*
X133901733Y-77087518D01*
X134903334Y-76586153D01*
X134907327Y-76584243D01*
X135926118Y-76118977D01*
X135930176Y-76117210D01*
X136965024Y-75688561D01*
X136969028Y-75686986D01*
X138018593Y-75295518D01*
X138022660Y-75294084D01*
X139085423Y-74940363D01*
X139089619Y-74939049D01*
X140164359Y-74623476D01*
X140168548Y-74622327D01*
X141253860Y-74345318D01*
X141258118Y-74344311D01*
X142352606Y-74106220D01*
X142356885Y-74105369D01*
X143459203Y-73906489D01*
X143463528Y-73905788D01*
X144572204Y-73746384D01*
X144576546Y-73745839D01*
X145690277Y-73626100D01*
X145694573Y-73625717D01*
X146811808Y-73545810D01*
X146816215Y-73545574D01*
X147935553Y-73505596D01*
X147939979Y-73505518D01*
X149060021Y-73505518D01*
X149064446Y-73505596D01*
G37*
%TD.AperFunction*%
%TD*%
M02*
