M48
; DRILL file KiCad 10.0.3 date 2026-05-26T23:59:49
; FORMAT={-:-/ absolute / inch / decimal}
; #@! TF.CreationDate,2026-05-26T23:59:49-04:00
; #@! TF.GenerationSoftware,Kicad,Pcbnew,10.0.3
; #@! TF.FileFunction,Plated,1,2,PTH
FMAT,2
INCH
; #@! TA.AperFunction,Plated,PTH,ViaDrill
T1C0.0118
; #@! TA.AperFunction,Plated,PTH,ComponentDrill
T2C0.0236
; #@! TA.AperFunction,Plated,PTH,ComponentDrill
T3C0.0374
; #@! TA.AperFunction,Plated,PTH,ComponentDrill
T4C0.0394
; #@! TA.AperFunction,Plated,PTH,ComponentDrill
T5C0.1063
%
G90
G05
T1
X3.6713Y-3.0807
X3.6713Y-3.2972
X3.6713Y-3.8976
X3.75Y-3.7008
X3.7598Y-3.4154
X3.7894Y-4.0354
X3.8583Y-2.8642
X3.9764Y-3.563
X4.0748Y-3.5
X4.1043Y-2.8642
X4.1142Y-3.5236
X4.1142Y-4.0354
X4.1801Y-3.5266
X4.2618Y-3.6417
X4.2717Y-3.5138
X4.2815Y-3.7795
X4.2815Y-4.0354
X4.4882Y-2.9035
X4.498Y-3.5433
X4.5079Y-3.8583
X4.5079Y-4.0354
X4.5472Y-3.3268
X4.626Y-3.6319
X4.6752Y-3.4449
X4.6752Y-3.7992
X4.7638Y-3.8189
X4.813Y-3.5827
X4.813Y-3.937
X4.8228Y-2.8937
X4.8327Y-4.0354
X4.8622Y-3.6811
X4.9311Y-3.3268
X5.0197Y-3.5039
X5.0394Y-3.7795
X5.0984Y-3.4055
X5.1181Y-3.5138
X5.1772Y-3.4547
X5.2264Y-2.8937
X5.2756Y-3.5925
X5.315Y-3.4449
X5.3346Y-3.1594
X5.3346Y-3.3169
X5.3346Y-3.7697
X5.3441Y-3.4193
X5.3642Y-3.5138
X5.374Y-3.6122
X5.4823Y-3.6614
X5.4921Y-3.3642
X5.4921Y-3.3957
X5.4921Y-3.4272
X5.4921Y-3.4646
X5.561Y-3.1988
X5.5709Y-3.1102
X5.6004Y-2.8642
X5.6299Y-4.0354
X5.6791Y-3.1102
X5.689Y-3.248
X5.689Y-3.4154
X5.7874Y-3.4449
X5.7972Y-3.2185
X5.8071Y-3.1102
X5.8366Y-3.75
X5.8465Y-2.8642
X5.9055Y-4.0354
X5.9154Y-3.1102
X5.9154Y-3.248
X5.9154Y-3.4154
X5.935Y-3.7303
X5.935Y-4.0157
X6.0236Y-3.1102
X6.063Y-2.8642
X6.0728Y-3.0217
X6.2106Y-3.7402
X6.2106Y-3.9665
X6.2205Y-3.0906
T3
X4.4931Y-3.0325
X4.4931Y-3.1309
X4.4931Y-3.2293
X4.4931Y-3.3278
X4.872Y-3.0315
X4.872Y-3.1299
X4.872Y-3.2283
X4.872Y-3.3268
X5.6004Y-3.7598
X5.6004Y-3.8583
X5.6004Y-3.9567
T4
X3.8091Y-3.8189
X3.8091Y-3.9173
X4.1634Y-3.2579
X4.1634Y-3.3563
X6.2008Y-3.1846
X6.2008Y-3.2846
X6.2008Y-3.3846
X6.2008Y-3.4846
T5
X3.8189Y-3.0807
X3.8189Y-3.2776
T2
G00X5.9752Y-3.6909
M15
G01X6.0185Y-3.6909
M16
G05
G00X5.9752Y-4.0311
M15
G01X6.0185Y-4.0311
M16
G05
G00X6.1457Y-3.6909
M15
G01X6.1772Y-3.6909
M16
G05
G00X6.1457Y-4.0311
M15
G01X6.1772Y-4.0311
M16
G05
M30
