%TF.GenerationSoftware,KiCad,Pcbnew,10.0.3*%
%TF.CreationDate,2026-05-26T23:59:48-04:00*%
%TF.ProjectId,float_pcb,666c6f61-745f-4706-9362-2e6b69636164,rev?*%
%TF.SameCoordinates,Original*%
%TF.FileFunction,Paste,Top*%
%TF.FilePolarity,Positive*%
%FSLAX46Y46*%
G04 Gerber Fmt 4.6, Leading zero omitted, Abs format (unit mm)*
G04 Created by KiCad (PCBNEW 10.0.3) date 2026-05-26 23:59:48*
%MOMM*%
%LPD*%
G01*
G04 APERTURE LIST*
G04 Aperture macros list*
%AMRoundRect*
0 Rectangle with rounded corners*
0 $1 Rounding radius*
0 $2 $3 $4 $5 $6 $7 $8 $9 X,Y pos of 4 corners*
0 Add a 4 corners polygon primitive as box body*
4,1,4,$2,$3,$4,$5,$6,$7,$8,$9,$2,$3,0*
0 Add four circle primitives for the rounded corners*
1,1,$1+$1,$2,$3*
1,1,$1+$1,$4,$5*
1,1,$1+$1,$6,$7*
1,1,$1+$1,$8,$9*
0 Add four rect primitives between the rounded corners*
20,1,$1+$1,$2,$3,$4,$5,0*
20,1,$1+$1,$4,$5,$6,$7,0*
20,1,$1+$1,$6,$7,$8,$9,0*
20,1,$1+$1,$8,$9,$2,$3,0*%
%AMOutline5P*
0 Free polygon, 5 corners , with rotation*
0 The origin of the aperture is its center*
0 number of corners: always 5*
0 $1 to $10 corner X, Y*
0 $11 Rotation angle, in degrees counterclockwise*
0 create outline with 5 corners*
4,1,5,$1,$2,$3,$4,$5,$6,$7,$8,$9,$10,$1,$2,$11*%
%AMOutline6P*
0 Free polygon, 6 corners , with rotation*
0 The origin of the aperture is its center*
0 number of corners: always 6*
0 $1 to $12 corner X, Y*
0 $13 Rotation angle, in degrees counterclockwise*
0 create outline with 6 corners*
4,1,6,$1,$2,$3,$4,$5,$6,$7,$8,$9,$10,$11,$12,$1,$2,$13*%
%AMOutline7P*
0 Free polygon, 7 corners , with rotation*
0 The origin of the aperture is its center*
0 number of corners: always 7*
0 $1 to $14 corner X, Y*
0 $15 Rotation angle, in degrees counterclockwise*
0 create outline with 7 corners*
4,1,7,$1,$2,$3,$4,$5,$6,$7,$8,$9,$10,$11,$12,$13,$14,$1,$2,$15*%
%AMOutline8P*
0 Free polygon, 8 corners , with rotation*
0 The origin of the aperture is its center*
0 number of corners: always 8*
0 $1 to $16 corner X, Y*
0 $17 Rotation angle, in degrees counterclockwise*
0 create outline with 8 corners*
4,1,8,$1,$2,$3,$4,$5,$6,$7,$8,$9,$10,$11,$12,$13,$14,$15,$16,$1,$2,$17*%
%AMFreePoly0*
4,1,52,-0.218366,0.683694,-0.202145,0.672855,-0.191306,0.656634,-0.187500,0.637500,-0.187500,0.287500,0.062500,0.287500,0.062500,0.637500,0.066306,0.656634,0.077145,0.672855,0.093366,0.683694,0.112500,0.687500,0.262500,0.687500,0.281634,0.683694,0.297855,0.672855,0.308694,0.656634,0.312500,0.637500,0.312500,0.287500,0.487500,0.287500,0.506634,0.283694,0.522855,0.272855,
0.533694,0.256634,0.537500,0.237500,0.537500,-0.237500,0.533694,-0.256634,0.522855,-0.272855,0.506634,-0.283694,0.487500,-0.287500,0.259500,-0.287500,-0.117500,-0.664500,-0.117500,-0.807500,-0.121306,-0.826634,-0.132145,-0.842855,-0.148366,-0.853694,-0.167500,-0.857500,-0.487500,-0.857500,-0.506634,-0.853694,-0.522855,-0.842855,-0.533694,-0.826634,-0.537500,-0.807500,-0.537500,0.237500,
-0.533694,0.256634,-0.522855,0.272855,-0.506634,0.283694,-0.487500,0.287500,-0.437500,0.287500,-0.437500,0.637500,-0.433694,0.656634,-0.422855,0.672855,-0.406634,0.683694,-0.387500,0.687500,-0.237500,0.687500,-0.218366,0.683694,-0.218366,0.683694,$1*%
%AMFreePoly1*
4,1,69,0.446320,1.093381,0.474531,1.074531,0.493381,1.046320,0.499999,1.013042,0.500000,-1.013043,0.493381,-1.046320,0.474531,-1.074531,0.446320,-1.093381,0.413042,-1.099999,-0.413043,-1.100000,-0.446320,-1.093381,-0.474531,-1.074531,-0.493381,-1.046320,-0.499999,-1.013042,-0.499999,-0.865000,-0.850001,-0.865000,-0.869135,-0.861194,-0.885356,-0.850355,-0.896195,-0.834134,-0.900001,-0.815000,
-0.900001,-0.665000,-0.896195,-0.645866,-0.885356,-0.629645,-0.869135,-0.618806,-0.850001,-0.615000,-0.499999,-0.615000,-0.499999,-0.365000,-0.850001,-0.365000,-0.869135,-0.361194,-0.885356,-0.350355,-0.896195,-0.334134,-0.900001,-0.315000,-0.900001,-0.165000,-0.896195,-0.145866,-0.885356,-0.129645,-0.869135,-0.118806,-0.850001,-0.115000,-0.499999,-0.115000,-0.500000,0.135000,-0.850000,0.135000,
-0.869134,0.138806,-0.885355,0.149645,-0.896194,0.165866,-0.900000,0.185000,-0.900000,0.335000,-0.896194,0.354134,-0.885355,0.370355,-0.869134,0.381194,-0.850000,0.385000,-0.500000,0.385000,-0.500000,0.635000,-0.850000,0.635000,-0.869134,0.638806,-0.885355,0.649645,-0.896194,0.665866,-0.900000,0.685000,-0.900000,0.835000,-0.896194,0.854134,-0.885355,0.870355,-0.869134,0.881194,
-0.850000,0.885000,-0.500000,0.885000,-0.500000,1.013043,-0.493381,1.046320,-0.474531,1.074531,-0.446320,1.093381,-0.413042,1.099999,0.413043,1.100000,0.446320,1.093381,0.446320,1.093381,$1*%
%AMFreePoly2*
4,1,69,0.413042,1.099999,0.446320,1.093381,0.474531,1.074531,0.493381,1.046320,0.500000,1.013043,0.500000,0.885000,0.850000,0.885000,0.869134,0.881194,0.885355,0.870355,0.896194,0.854134,0.900000,0.835000,0.900000,0.685000,0.896194,0.665866,0.885355,0.649645,0.869134,0.638806,0.850000,0.635000,0.500000,0.635000,0.500000,0.385000,0.850000,0.385000,0.869134,0.381194,
0.885355,0.370355,0.896194,0.354134,0.900000,0.335000,0.900000,0.185000,0.896194,0.165866,0.885355,0.149645,0.869134,0.138806,0.850000,0.135000,0.500000,0.135000,0.499999,-0.115000,0.850000,-0.115000,0.869134,-0.118806,0.885355,-0.129645,0.896194,-0.145866,0.900000,-0.165000,0.900000,-0.315000,0.896194,-0.334134,0.885355,-0.350355,0.869134,-0.361194,0.850000,-0.365000,
0.499999,-0.365000,0.499999,-0.615000,0.850000,-0.615000,0.869134,-0.618806,0.885355,-0.629645,0.896194,-0.645866,0.900000,-0.665000,0.900000,-0.815000,0.896194,-0.834134,0.885355,-0.850355,0.869134,-0.861194,0.850000,-0.865000,0.499999,-0.865000,0.499999,-1.013042,0.493381,-1.046320,0.474531,-1.074531,0.446320,-1.093381,0.413043,-1.100000,-0.413042,-1.099999,-0.446320,-1.093381,
-0.474531,-1.074531,-0.493381,-1.046320,-0.500000,-1.013043,-0.499999,1.013042,-0.493381,1.046320,-0.474531,1.074531,-0.446320,1.093381,-0.413043,1.100000,0.413042,1.099999,0.413042,1.099999,$1*%
%AMFreePoly3*
4,1,52,-0.093366,0.683694,-0.077145,0.672855,-0.066306,0.656634,-0.062500,0.637500,-0.062500,0.287500,0.187500,0.287500,0.187500,0.637500,0.191306,0.656634,0.202145,0.672855,0.218366,0.683694,0.237500,0.687500,0.387500,0.687500,0.406634,0.683694,0.422855,0.672855,0.433694,0.656634,0.437500,0.637500,0.437500,0.287500,0.487500,0.287500,0.506634,0.283694,0.522855,0.272855,
0.533694,0.256634,0.537500,0.237500,0.537500,-0.807500,0.533694,-0.826634,0.522855,-0.842855,0.506634,-0.853694,0.487500,-0.857500,0.167500,-0.857500,0.148366,-0.853694,0.132145,-0.842855,0.121306,-0.826634,0.117500,-0.807500,0.117500,-0.664500,-0.259500,-0.287500,-0.487500,-0.287500,-0.506634,-0.283694,-0.522855,-0.272855,-0.533694,-0.256634,-0.537500,-0.237500,-0.537500,0.237500,
-0.533694,0.256634,-0.522855,0.272855,-0.506634,0.283694,-0.487500,0.287500,-0.312500,0.287500,-0.312500,0.637500,-0.308694,0.656634,-0.297855,0.672855,-0.281634,0.683694,-0.262500,0.687500,-0.112500,0.687500,-0.093366,0.683694,-0.093366,0.683694,$1*%
G04 Aperture macros list end*
%ADD10RoundRect,0.150000X0.587500X0.150000X-0.587500X0.150000X-0.587500X-0.150000X0.587500X-0.150000X0*%
%ADD11RoundRect,0.225000X0.225000X0.250000X-0.225000X0.250000X-0.225000X-0.250000X0.225000X-0.250000X0*%
%ADD12RoundRect,0.225000X0.250000X-0.225000X0.250000X0.225000X-0.250000X0.225000X-0.250000X-0.225000X0*%
%ADD13RoundRect,0.218750X-0.256250X0.218750X-0.256250X-0.218750X0.256250X-0.218750X0.256250X0.218750X0*%
%ADD14RoundRect,0.200000X0.275000X-0.200000X0.275000X0.200000X-0.275000X0.200000X-0.275000X-0.200000X0*%
%ADD15RoundRect,0.225000X-0.250000X0.225000X-0.250000X-0.225000X0.250000X-0.225000X0.250000X0.225000X0*%
%ADD16RoundRect,0.200000X-0.200000X-0.275000X0.200000X-0.275000X0.200000X0.275000X-0.200000X0.275000X0*%
%ADD17RoundRect,0.200000X-0.275000X0.200000X-0.275000X-0.200000X0.275000X-0.200000X0.275000X0.200000X0*%
%ADD18FreePoly0,90.000000*%
%ADD19FreePoly1,0.000000*%
%ADD20FreePoly2,0.000000*%
%ADD21FreePoly3,270.000000*%
%ADD22RoundRect,0.050000X-0.060000X-0.250000X0.060000X-0.250000X0.060000X0.250000X-0.060000X0.250000X0*%
%ADD23R,1.700000X1.000000*%
%ADD24R,2.250000X1.700000*%
%ADD25RoundRect,0.150000X0.302462X-0.150000X0.302462X0.150000X-0.302462X0.150000X-0.302462X-0.150000X0*%
%ADD26RoundRect,0.150000X0.302499X-0.150000X0.302499X0.150000X-0.302499X0.150000X-0.302499X-0.150000X0*%
%ADD27RoundRect,0.075000X0.500000X-0.075000X0.500000X0.075000X-0.500000X0.075000X-0.500000X-0.075000X0*%
%ADD28RoundRect,0.150000X0.302500X-0.150000X0.302500X0.150000X-0.302500X0.150000X-0.302500X-0.150000X0*%
%ADD29RoundRect,0.150000X0.302497X-0.150000X0.302497X0.150000X-0.302497X0.150000X-0.302497X-0.150000X0*%
%ADD30RoundRect,0.150000X0.302498X-0.150000X0.302498X0.150000X-0.302498X0.150000X-0.302498X-0.150000X0*%
%ADD31O,2.100000X1.000000*%
%ADD32O,1.800000X1.000000*%
%ADD33R,0.800000X0.400000*%
%ADD34R,0.400000X0.800000*%
%ADD35Outline5P,-0.600000X0.204000X-0.204000X0.600000X0.600000X0.600000X0.600000X-0.600000X-0.600000X-0.600000X0.000000*%
%ADD36R,1.200000X1.200000*%
%ADD37R,0.800000X0.800000*%
%ADD38RoundRect,0.218750X0.256250X-0.218750X0.256250X0.218750X-0.256250X0.218750X-0.256250X-0.218750X0*%
G04 APERTURE END LIST*
D10*
%TO.C,Q1*%
X118687500Y-90200000D03*
X118687500Y-88300000D03*
X116812500Y-89250000D03*
%TD*%
D11*
%TO.C,C14*%
X138275000Y-84250000D03*
X136725000Y-84250000D03*
%TD*%
D12*
%TO.C,C4*%
X108750000Y-91525000D03*
X108750000Y-89975000D03*
%TD*%
D13*
%TO.C,D3*%
X135500000Y-96962500D03*
X135500000Y-98537500D03*
%TD*%
D14*
%TO.C,R16*%
X135500000Y-101825000D03*
X135500000Y-100175000D03*
%TD*%
D15*
%TO.C,C2*%
X95250000Y-91225000D03*
X95250000Y-92775000D03*
%TD*%
D16*
%TO.C,R11*%
X148175000Y-96250000D03*
X149825000Y-96250000D03*
%TD*%
D15*
%TO.C,C3*%
X108750000Y-93225000D03*
X108750000Y-94775000D03*
%TD*%
D17*
%TO.C,R7*%
X113250000Y-100425000D03*
X113250000Y-102075000D03*
%TD*%
D12*
%TO.C,C5*%
X117500000Y-94775000D03*
X117500000Y-93225000D03*
%TD*%
D18*
%TO.C,U2*%
X117137500Y-98012500D03*
D19*
X117350000Y-100000000D03*
D20*
X119250000Y-100000000D03*
D21*
X119462500Y-98012500D03*
D22*
X118800000Y-97425000D03*
X118300000Y-97425000D03*
X117800000Y-97425000D03*
%TD*%
D11*
%TO.C,C13*%
X138275000Y-80250000D03*
X136725000Y-80250000D03*
%TD*%
D12*
%TO.C,C12*%
X153000000Y-75775000D03*
X153000000Y-74225000D03*
%TD*%
D17*
%TO.C,R3*%
X99750000Y-91175000D03*
X99750000Y-92825000D03*
%TD*%
%TO.C,R1*%
X118750000Y-76925000D03*
X118750000Y-78575000D03*
%TD*%
D14*
%TO.C,R8*%
X127000000Y-101825000D03*
X127000000Y-100175000D03*
%TD*%
%TO.C,R20*%
X148500000Y-75825000D03*
X148500000Y-74175000D03*
%TD*%
D17*
%TO.C,R6*%
X113250000Y-96675000D03*
X113250000Y-98325000D03*
%TD*%
D23*
%TO.C,BOOT1*%
X137800000Y-93000000D03*
X131500000Y-93000000D03*
X137800000Y-89200000D03*
X131500000Y-89200000D03*
%TD*%
D15*
%TO.C,C6*%
X108750000Y-100225000D03*
X108750000Y-101775000D03*
%TD*%
D10*
%TO.C,Q2*%
X144875000Y-75750000D03*
X144875000Y-73850000D03*
X143000000Y-74800000D03*
%TD*%
D14*
%TO.C,R12*%
X139500000Y-75825000D03*
X139500000Y-74175000D03*
%TD*%
D17*
%TO.C,R2*%
X99750000Y-87675000D03*
X99750000Y-89325000D03*
%TD*%
D12*
%TO.C,C10*%
X131250000Y-101775000D03*
X131250000Y-100225000D03*
%TD*%
D24*
%TO.C,LS1*%
X108000000Y-74750000D03*
X103750000Y-74750000D03*
X108000000Y-78250000D03*
%TD*%
D14*
%TO.C,R14*%
X104500000Y-98575000D03*
X104500000Y-96925000D03*
%TD*%
%TO.C,R4*%
X113250000Y-94825000D03*
X113250000Y-93175000D03*
%TD*%
D15*
%TO.C,C1*%
X95250000Y-87725000D03*
X95250000Y-89275000D03*
%TD*%
D25*
%TO.C,J3*%
X151622538Y-101269968D03*
D26*
X151622524Y-100470394D03*
D27*
X151745000Y-99320000D03*
X151745000Y-98320000D03*
X151745000Y-97820000D03*
X151745000Y-96820000D03*
D28*
X151622500Y-95670000D03*
D29*
X151622503Y-94870000D03*
D30*
X151622502Y-94870000D03*
D26*
X151622501Y-95670000D03*
D27*
X151745000Y-96320000D03*
X151745000Y-97320000D03*
X151745000Y-98820000D03*
X151745000Y-99820000D03*
D28*
X151622500Y-100470000D03*
D30*
X151622502Y-101269999D03*
D31*
X152320000Y-102390000D03*
D32*
X156500000Y-102390000D03*
D31*
X152320000Y-93750000D03*
D32*
X156500000Y-93750000D03*
%TD*%
D14*
%TO.C,R9*%
X127000000Y-98575000D03*
X127000000Y-96925000D03*
%TD*%
%TO.C,R15*%
X127500000Y-94825000D03*
X127500000Y-93175000D03*
%TD*%
D13*
%TO.C,D2*%
X127500000Y-89962500D03*
X127500000Y-91537500D03*
%TD*%
D18*
%TO.C,U1*%
X103387500Y-91012500D03*
D19*
X103600000Y-93000000D03*
D20*
X105500000Y-93000000D03*
D21*
X105712500Y-91012500D03*
D22*
X105050000Y-90425000D03*
X104550000Y-90425000D03*
X104050000Y-90425000D03*
%TD*%
D15*
%TO.C,C7*%
X108750000Y-96975000D03*
X108750000Y-98525000D03*
%TD*%
%TO.C,C8*%
X122750000Y-100225000D03*
X122750000Y-101775000D03*
%TD*%
D17*
%TO.C,R18*%
X129750000Y-83175000D03*
X129750000Y-84825000D03*
%TD*%
%TO.C,R19*%
X129750000Y-80175000D03*
X129750000Y-81825000D03*
%TD*%
D16*
%TO.C,R10*%
X148175000Y-101000000D03*
X149825000Y-101000000D03*
%TD*%
D33*
%TO.C,U3*%
X140350000Y-78650000D03*
X140350000Y-79500000D03*
X140350000Y-80350000D03*
X140350000Y-81199999D03*
X140350000Y-82050000D03*
X140350000Y-82900000D03*
X140350000Y-83750000D03*
X140350001Y-84600000D03*
X140350000Y-85450000D03*
X140350000Y-86300000D03*
X140350000Y-87150000D03*
X140350000Y-88000001D03*
X140350000Y-88850000D03*
X140350000Y-89700000D03*
X140350000Y-90550000D03*
D34*
X141400000Y-91600000D03*
X142250000Y-91600000D03*
X143100000Y-91600000D03*
X143949999Y-91600000D03*
X144800000Y-91600000D03*
X145650000Y-91600000D03*
X146500000Y-91600000D03*
X147350000Y-91599999D03*
X148200000Y-91600000D03*
X149050000Y-91600000D03*
X149900000Y-91600000D03*
X150750001Y-91600000D03*
X151600000Y-91600000D03*
X152450000Y-91600000D03*
X153300000Y-91600000D03*
D33*
X154350000Y-90550000D03*
X154350000Y-89700000D03*
X154350000Y-88850000D03*
X154350000Y-88000001D03*
X154350000Y-87150000D03*
X154350000Y-86300000D03*
X154350000Y-85450000D03*
X154349999Y-84600000D03*
X154350000Y-83750000D03*
X154350000Y-82900000D03*
X154350000Y-82050000D03*
X154350000Y-81199999D03*
X154350000Y-80350000D03*
X154350000Y-79500000D03*
X154350000Y-78650000D03*
D34*
X153300000Y-77600000D03*
X152450000Y-77600000D03*
X151600000Y-77600000D03*
X150750001Y-77600000D03*
X149900000Y-77600000D03*
X149050000Y-77600000D03*
X148200000Y-77600000D03*
X147350000Y-77600001D03*
X146500000Y-77600000D03*
X145650000Y-77600000D03*
X144800000Y-77600000D03*
X143949999Y-77600000D03*
X143100000Y-77600000D03*
X142250000Y-77600000D03*
X141400000Y-77600000D03*
D35*
X145700000Y-82950000D03*
D36*
X145700000Y-84600000D03*
X145700000Y-86250000D03*
X147350000Y-82950000D03*
X147350000Y-84600000D03*
X147350000Y-86250000D03*
X149000000Y-82950000D03*
X149000000Y-84600000D03*
X149000000Y-86250000D03*
D37*
X140350000Y-77600000D03*
X140350000Y-91600000D03*
X154350000Y-91600000D03*
X154350000Y-77600000D03*
%TD*%
D14*
%TO.C,R5*%
X113250000Y-91575000D03*
X113250000Y-89925000D03*
%TD*%
D12*
%TO.C,C9*%
X122750000Y-98525000D03*
X122750000Y-96975000D03*
%TD*%
D38*
%TO.C,D1*%
X104500000Y-101787500D03*
X104500000Y-100212500D03*
%TD*%
D23*
%TO.C,ENABLE1*%
X129700000Y-74450000D03*
X136000000Y-74450000D03*
X129700000Y-78250000D03*
X136000000Y-78250000D03*
%TD*%
D17*
%TO.C,R17*%
X122250000Y-91925000D03*
X122250000Y-93575000D03*
%TD*%
%TO.C,R13*%
X118750000Y-83675000D03*
X118750000Y-85325000D03*
%TD*%
M02*
